<?xml version="1.0" standalone="no"?>
<!DOCTYPE svg PUBLIC "-//W3C//DTD SVG 1.1//EN" "http://www.w3.org/Graphics/SVG/1.1/DTD/svg11.dtd" >
<svg xmlns="http://www.w3.org/2000/svg">
    <metadata>
        This is a custom SVG webfont generated by Font Squirrel.
        Copyright : Copyright c 1988 1992 Adobe Systems Incorporated All Rights ReservedITC Eras is a registered
        trademark of International Typeface Corporation
        Foundry : Adobe Systems Incorporated
    </metadata>
    <defs>
        <font id="webfontVfF3ZROk" horiz-adv-x="1202">
            <font-face units-per-em="2048" ascent="1638" descent="-410"/>
            <missing-glyph horiz-adv-x="600"/>
            <glyph unicode=" " horiz-adv-x="600"/>
            <glyph unicode="&#x09;" horiz-adv-x="600"/>
            <glyph unicode="&#xa0;" horiz-adv-x="600"/>
            <glyph unicode="!" horiz-adv-x="485"
                   d="M180 301q8 268 17.5 532.5t9.5 532.5h190l-12 -185q-6 -95 -12 -218l-15 -284q-8 -161 -20 -378h-158zM154 0l8 186h194l-10 -186h-192z"/>
            <glyph unicode="&#x22;" horiz-adv-x="729"
                   d="M477 1030q12 168 12 336h158q-12 -170 -12 -336h-158zM168 1030q12 168 12 336h158q-12 -170 -12 -336h-158z"/>
            <glyph unicode="#"
                   d="M104 500h201l76 366h-186l32 138h181l33 181l34 181h152q-23 -92 -41 -181l-39 -181h264l34 181l34 181h151q-23 -92 -41 -181l-39 -181h207l-33 -138h-200l-76 -366h186l-35 -138h-180l-34 -181l-33 -181h-152q23 92 41 181l39 181h-264l-34 -181l-34 -181h-151 q23 92 41 181l38 181h-206zM444 500h265l75 366h-264z"/>
            <glyph unicode="$"
                   d="M582 1542h170q-2 -8 -4.5 -33.5t-3.5 -54.5t-2 -54.5t-1 -33.5q53 -4 104.5 -13.5t102.5 -25.5l13 -160q-59 27 -126 44.5t-163 17.5q-35 0 -72 -8.5t-65.5 -26.5t-47 -46t-18.5 -67q0 -70 38 -130t94 -117.5t123 -113.5t123 -115.5t94 -125t38 -141.5q0 -68 -23.5 -122 t-64.5 -96t-95.5 -69.5t-117.5 -40.5v-188h-168q2 41 5 94t3 84q-74 0 -146.5 18.5t-142.5 47.5l-8 167q72 -39 148.5 -67.5t160.5 -28.5q49 0 93.5 12.5t79 38t55 62.5t20.5 86q0 59 -38 112.5t-94 106.5t-122.5 107.5t-123 115t-94.5 130t-38 151.5q0 68 25.5 121t70 92 t100.5 63.5t118 30.5v176z"/>
            <glyph unicode="%" horiz-adv-x="1734"
                   d="M430 0l407 682l400 684h123l-406 -681l-397 -685h-127zM1376 770q-70 0 -111.5 -47t-63 -112.5t-28 -138.5t-6.5 -122q0 -43 8.5 -93t28 -93t54 -72t90.5 -29q68 0 107.5 45.5t61 110t27.5 134t6 116.5q0 41 -7 93t-25.5 98.5t-52.5 78t-89 31.5zM1378 856 q84 0 139.5 -36t87 -92t45 -127t13.5 -140q0 -80 -14.5 -166t-51 -156.5t-98 -116t-156.5 -45.5q-82 0 -137 33t-89 86.5t-48 121t-14 138.5q0 78 13 166t49 162t98.5 123t162.5 49zM451 1303q-70 0 -112 -47.5t-63.5 -113t-27.5 -138t-6 -121.5q0 -43 8 -93.5t27.5 -93.5 t54.5 -71.5t90 -28.5q68 0 107.5 45t61 109.5t28 134t6.5 116.5q0 41 -7.5 93.5t-26 98.5t-52 78t-88.5 32zM453 1389q84 0 139 -36t87 -92.5t45 -127t13 -140.5q0 -80 -14 -166t-51 -156.5t-98.5 -115.5t-155.5 -45q-82 0 -137.5 32.5t-89 86t-48 121t-14.5 139.5 q0 78 13.5 166t49 161.5t98.5 123t163 49.5z"/>
            <glyph unicode="&#x26;" horiz-adv-x="1409"
                   d="M963 236l-206 207q-101 105 -196 219l-88 -57q-45 -30 -83 -65.5t-62.5 -80.5t-24.5 -103q0 -66 28.5 -113.5t75 -78.5t105.5 -45.5t121 -14.5q98 0 181 29t149 103zM1276 606q-2 -102 -26.5 -199.5t-78.5 -183.5l236 -223h-209l-145 135q-86 -86 -198 -122t-230 -36 q-135 0 -227.5 33t-150 85t-83 118t-25.5 131q0 86 30 149.5t78 112.5t110 88l128 78q-47 66 -85 139.5t-38 159.5q0 78 32 137.5t84 99.5t120 60.5t137 20.5q66 0 129.5 -11.5t126.5 -29.5l6 -146q-53 25 -112.5 42.5t-118.5 17.5q-43 0 -84 -16.5t-74 -44t-52 -65.5 t-19 -81q0 -57 28.5 -121t73.5 -130.5t103 -131.5l117 -126l113 -113l93 -89q29 59 39 127t14 135h158z"/>
            <glyph unicode="'" horiz-adv-x="419" d="M168 1030q12 168 12 336h158q-12 -170 -12 -336h-158z"/>
            <glyph unicode="(" horiz-adv-x="624"
                   d="M330 -426q-45 180 -73 362.5t-28 368.5q0 276 53.5 537.5t139.5 523.5h141q-170 -541 -170 -1104q0 -174 18.5 -346t59.5 -342h-141z"/>
            <glyph unicode=")" horiz-adv-x="624"
                   d="M113 -426q90 260 130 531.5t40 545.5q0 182 -19.5 359.5t-54.5 355.5h141q41 -193 68.5 -384t27.5 -388q0 -262 -51 -517t-141 -503h-141z"/>
            <glyph unicode="*" horiz-adv-x="1093"
                   d="M516 1004l-272 77q14 27 25.5 52.5t21.5 54.5l262 -113l-2 291q12 0 25.5 -1t27.5 -1q16 0 30.5 1t31.5 1l-35 -291l274 107l17 -53l16 -52l-281 -76l177 -219l-48 -34l-47 -37l-155 245l-183 -245q-41 39 -84 71z"/>
            <glyph unicode="+"
                   d="M100 588h424q12 211 13 426h170q-8 -106 -11.5 -213t-7.5 -213h424l-6 -164h-424q-12 -213 -12 -424h-170q8 106 11 211.5t7 212.5h-424z"/>
            <glyph unicode="," horiz-adv-x="600" d="M410 152l-220 -371h-122l125 371h217z"/>
            <glyph unicode="-" horiz-adv-x="509" d="M27 444l6 138h504l-7 -138h-503z"/>
            <glyph unicode="." horiz-adv-x="600" d="M201 0l8 186h194l-10 -186h-192z"/>
            <glyph unicode="/" horiz-adv-x="829"
                   d="M10 0l109 201l170 321l210 402l228 442h184l-233 -440l-211 -401l-168 -321l-104 -204h-185z"/>
            <glyph unicode="0"
                   d="M666 1262q-78 0 -133.5 -35t-93.5 -92.5t-61.5 -130t-35.5 -148.5t-16 -148.5t-4 -127.5q0 -170 36.5 -265.5t85 -142.5t95.5 -57.5t65 -10.5q74 0 127 34t91 90.5t61.5 127t37 144t17.5 144.5t4 124q0 129 -21.5 223t-58.5 153.5t-87 88.5t-109 29zM659 1389 q135 0 225.5 -55.5t142.5 -144.5t73.5 -200.5t21.5 -226.5q0 -74 -8 -160t-29.5 -173t-58.5 -169t-95.5 -144.5t-140 -100.5t-192.5 -38q-131 0 -218 53.5t-140.5 139.5t-76 195.5t-22.5 220.5q0 393 137 598t381 205z"/>
            <glyph unicode="1"
                   d="M506 0q23 293 34 594t19 600l-149 -98l6 166l83 49q42 25 81 55h178l-20.5 -333t-18.5 -353t-12.5 -352t-4.5 -328h-196z"/>
            <glyph unicode="2"
                   d="M135 0l4 139l253 258q130 131 236.5 253t175 227.5t68.5 181.5q0 59 -28.5 98t-72.5 62.5t-97 33t-101 9.5q-92 0 -183 -18.5t-183 -41.5l24 146q201 41 398 41q74 0 151.5 -14.5t143 -48.5t107.5 -93t42 -148q0 -68 -37 -150.5t-119.5 -195t-220.5 -262.5l-336 -350h195 q117 0 234.5 1t234.5 11l-8 -139h-881z"/>
            <glyph unicode="3"
                   d="M121 190q88 -35 180 -55t191 -20q76 0 144.5 16t119.5 51t80.5 89.5t29.5 131.5q0 76 -33.5 124t-88 75t-120 36t-126.5 9q-72 0 -142 -6l9 141q25 -4 50 -6t60 -2q104 0 175 25.5t113 64.5t60.5 85t18.5 87q0 68 -25.5 111t-67.5 68.5t-96.5 36t-111.5 10.5 q-80 0 -159 -11.5t-157 -33.5l25 141q78 12 155.5 21.5t155.5 9.5q84 0 170 -12.5t154.5 -48.5t112.5 -99.5t44 -167.5q0 -88 -27.5 -148.5t-70.5 -101.5t-95 -64.5t-99 -35.5v-4q133 -8 219 -88t86 -230q0 -74 -29 -147.5t-94.5 -132t-171 -95.5t-258.5 -37 q-94 0 -185.5 14.5t-181.5 37.5z"/>
            <glyph unicode="4"
                   d="M268 594h445q4 84 8 181t7 186.5t4 162t1 107.5l-4 -4zM668 0q10 117 16 233.5t10 233.5h-573l6 156l275 367q136 183 266 376h243q-6 -109 -12 -206t-10 -190l-8 -186q-4 -92 -7 -190h228l-4 -127h-230q-4 -45 -5 -104.5t-3 -123t-2 -125.5v-114h-190z"/>
            <glyph unicode="5"
                   d="M276 1366h779l-6 -141q-29 2 -83.5 5t-114.5 5t-117.5 3t-90.5 1h-194l-43 -453q47 8 97 11.5t128 3.5q119 0 203 -29t137 -77t77.5 -111.5t24.5 -134.5q0 -121 -51 -209t-134 -146.5t-187.5 -87.5t-211.5 -29q-78 0 -155.5 10.5t-153.5 28.5l-14 150q72 -23 145.5 -37 t149.5 -14q117 0 195.5 32.5t126.5 82t68.5 105.5t20.5 105q0 78 -31.5 128t-81.5 78t-114.5 38t-130.5 10q-78 0 -152.5 -9t-148.5 -21z"/>
            <glyph unicode="6"
                   d="M831 1366q-74 -86 -163.5 -204t-166.5 -248t-129.5 -263t-52.5 -252q0 -129 73 -212t206 -83q143 0 231.5 86t88.5 232q0 113 -65 186.5t-183 73.5q-49 0 -97.5 -7t-95.5 -18l74 134q39 8 76 13t75 5q88 0 161 -23.5t125 -70.5t81 -117t29 -162q0 -61 -20.5 -140 t-76 -149.5t-151.5 -120t-246 -49.5q-96 0 -181 26t-147.5 77t-99.5 129t-37 180q0 131 44 262t113 256t150 241l156 218h229z"/>
            <glyph unicode="7"
                   d="M846 1229h-449q-84 0 -141 -3t-78 -7l8 147h861l-7 -149l-291 -606q-146 -300 -278 -611h-225z"/>
            <glyph unicode="8"
                   d="M645 1262q-125 0 -205 -76t-80 -201q0 -119 78 -177t189 -58q59 0 111.5 19t90 56t60 87.5t22.5 111.5q0 119 -75.5 178.5t-190.5 59.5zM625 635q-63 0 -122 -15.5t-104 -47t-71.5 -83t-26.5 -122.5q0 -133 89 -198t224 -65q66 0 121.5 21.5t96 59.5t64.5 93.5t24 122.5 q0 66 -25 110t-66 71.5t-94 40t-110 12.5zM664 1389q82 0 156.5 -20.5t132 -63.5t92 -109t34.5 -156q0 -129 -63.5 -210.5t-173.5 -127.5v-4q113 -23 185.5 -97.5t72.5 -203.5q0 -113 -42 -192.5t-113 -129.5t-163 -74t-192 -24q-90 0 -174 20.5t-149.5 64.5t-105.5 116 t-40 174q0 68 22.5 125.5t60.5 100.5t90 72.5t114 45.5v2q-98 35 -156.5 112t-58.5 189q0 100 39.5 174t105 121t151 71t175.5 24z"/>
            <glyph unicode="9"
                   d="M420 0l152 207q87 119 165 248t131.5 258t53.5 241q0 137 -74 222.5t-215 85.5q-68 0 -124 -22.5t-98 -62.5t-65.5 -95.5t-23.5 -123.5q0 -135 80.5 -195.5t209.5 -60.5q47 0 91.5 9.5t87.5 21.5l-76 -139q-39 -8 -77 -13.5t-79 -5.5q-86 0 -161.5 20.5t-132 65 t-90.5 112t-34 161.5q0 111 40 194.5t107.5 142t159 88.5t195.5 30q98 0 182 -27t145.5 -79t96.5 -131t35 -183q0 -123 -45 -252t-112.5 -255t-146.5 -245l-145 -217h-233z"/>
            <glyph unicode=":" horiz-adv-x="600" d="M201 0l8 186h194l-10 -186h-192zM236 827l8 187h194l-10 -187h-192z"/>
            <glyph unicode=";" horiz-adv-x="600"
                   d="M236 827l8 187h194l-10 -187h-192zM410 152l-220 -371h-122l125 371h217z"/>
            <glyph unicode="&#x37e;" horiz-adv-x="600"
                   d="M236 827l8 187h194l-10 -187h-192zM410 152l-220 -371h-122l125 371h217z"/>
            <glyph unicode="&#x3c;"
                   d="M1090 -31l-498 224l-498 217l8 192l514 217l514 223l-8 -194l-431 -168l-431 -174l418 -174l418 -168z"/>
            <glyph unicode="=" d="M88 217l6 164h1012l-6 -164h-1012zM104 631l7 164h1011l-6 -164h-1012z"/>
            <glyph unicode="&#x3e;"
                   d="M129 1042l497 -223l496 -217l-6 -192l-515 -217l-515 -224l8 195l432 168l432 174l-418 174l-419 168z"/>
            <glyph unicode="?" horiz-adv-x="954"
                   d="M330 0l8 186h194l-10 -186h-192zM121 1358q86 12 170 21.5t170 9.5q74 0 153.5 -12.5t146 -45.5t110.5 -91t44 -150q0 -55 -21.5 -106.5t-53 -99.5t-70.5 -92t-76 -81l-87 -96q-32 -36 -49 -75.5t-24.5 -99t-15.5 -164.5h-162q6 121 11.5 187.5t22 112t50.5 86.5l97 110 q25 29 57.5 63.5t61 72.5t48 78t19.5 81q0 59 -28.5 97t-74 59.5t-97.5 30t-99 8.5q-86 0 -167 -16.5t-163 -39.5z"/>
            <glyph unicode="@" horiz-adv-x="1628"
                   d="M983 358q10 104 13 208t8 208q-20 -18 -60.5 -32.5t-88.5 -27.5l-97 -28q-49 -14 -90 -33.5t-68 -46t-27 -61.5q0 -53 48.5 -74.5t111.5 -21.5q43 0 86 7t84 19l-29 -115l-83 -12q-43 -6 -103 -6q-129 0 -198.5 49t-69.5 166q0 74 44 118t109.5 71.5t142.5 45t142.5 36 t109.5 45t44 73.5q0 25 -19.5 40t-48.5 24.5t-61.5 13.5t-61.5 4q-158 0 -305 -63l31 131q68 18 143.5 28.5t173.5 10.5q86 0 143.5 -13.5t92.5 -39t49 -62.5t14 -82q0 -29 -3 -85t-6 -124l-6 -138q-3 -71 -3 -126q27 0 68.5 12t79.5 46t65.5 93.5t27.5 151.5t-36.5 183 t-106 165t-172 120t-233.5 46t-241 -48t-187.5 -131t-121.5 -196.5t-44 -244.5q0 -117 35.5 -221.5t105.5 -183.5t172 -126t234 -47q168 0 290.5 73.5t206.5 190.5h164q-49 -98 -120.5 -167.5t-158 -115t-184.5 -67t-203 -21.5q-176 0 -307 55.5t-217 148.5t-129 217 t-43 264q0 154 51.5 286.5t147.5 230t236.5 154t316.5 56.5t307 -54.5t218 -142.5t130 -199.5t43 -224.5q0 -86 -27.5 -149.5t-69.5 -108.5t-92.5 -74.5t-96.5 -47t-80.5 -24t-47.5 -6.5h-143z"/>
            <glyph unicode="A" horiz-adv-x="1267"
                   d="M899 709l-184 522l-264 -522h448zM395 575l-276 -575h-209l355 682l345 684h234l241 -683l252 -683h-202q-43 147 -95 290l-104 285h-541z"/>
            <glyph unicode="B" horiz-adv-x="1218"
                   d="M373 768h250q66 0 126 13.5t106 44t73.5 81.5t27.5 127q0 61 -20.5 101.5t-56 64t-82.5 31.5t-103 8h-305zM348 127h307q45 0 100.5 10t104.5 40t83 83t34 137q0 104 -67.5 174t-213.5 70h-329zM770 1366q63 0 130 -12.5t121 -46t89 -96t35 -160.5q0 -127 -70.5 -215 t-187.5 -123v-4q131 -29 204.5 -110t73.5 -222q0 -90 -27.5 -152.5t-72.5 -104.5t-102.5 -66.5t-114.5 -36t-110.5 -14.5t-90.5 -3h-491q10 104 18 235.5t14.5 271.5t10.5 278.5t6 256t3 203.5t1 121h561z"/>
            <glyph unicode="C" horiz-adv-x="1284"
                   d="M1202 18q-88 -16 -175 -28.5t-177 -12.5q-156 0 -288 43t-228 127t-150.5 209t-54.5 289q0 178 55.5 316.5t156.5 233.5t244.5 144.5t317.5 49.5q84 0 166 -10.5t166 -26.5l10 -158q-82 25 -165 41t-169 16q-133 0 -242.5 -42t-187.5 -119.5t-121 -186t-43 -244.5 q0 -125 37 -225t106.5 -170.5t170 -109.5t225.5 -39q94 0 186.5 16t184.5 45z"/>
            <glyph unicode="D" horiz-adv-x="1495"
                   d="M348 133h295q121 0 232.5 28.5t196.5 100.5t136.5 192.5t51.5 307.5q0 145 -44.5 237.5t-110 144.5t-140 70.5t-134.5 18.5h-436zM156 0q29 344 42 683t17 683h592q172 0 294 -46t198.5 -128t112.5 -196.5t36 -252.5q0 -141 -41 -275t-134 -238.5t-243.5 -167 t-370.5 -62.5h-503z"/>
            <glyph unicode="E" horiz-adv-x="1150"
                   d="M1098 1366l-8 -141q-98 6 -193.5 7t-194.5 1h-305l-18 -473h625l-9 -133h-622l-21 -494h215q123 0 242 2t240 10l-9 -145h-884q25 344 39 683t18 683h885z"/>
            <glyph unicode="F" horiz-adv-x="1089"
                   d="M1049 1366l-7 -143q-49 4 -97 7t-105 3h-451l-16 -473h588l-5 -139q-86 4 -172 5t-172 1h-243q-4 -72 -7 -164l-4 -182q-2 -90 -3 -166t-1 -115h-198q4 45 9 137t10 211l11 256q6 137 10.5 273.5t6.5 263.5t2 225h844z"/>
            <glyph unicode="G" horiz-adv-x="1519"
                   d="M940 766h490q-6 -72 -10.5 -146.5t-7.5 -160.5t-7 -188.5t-6 -227.5q-129 -27 -258 -46.5t-262 -19.5q-160 0 -297.5 38t-237.5 119t-157.5 206t-57.5 299q0 70 14.5 154t50 166.5t96 160.5t151.5 137.5t216 95.5t291 36q111 0 217.5 -14.5t210.5 -39.5l10 -161 q-104 35 -211.5 56t-218.5 21q-160 0 -279.5 -48t-199.5 -131t-120 -193.5t-40 -233.5q0 -135 39 -235.5t112 -166t176.5 -97t232.5 -31.5q88 0 175 13t173 38l18 467h-309z"/>
            <glyph unicode="H" horiz-adv-x="1499"
                   d="M1190 782q2 53 6 132t6 162l4 161q2 78 2 129h197l-16 -295q-8 -150 -15.5 -313.5t-12.5 -350t-9 -407.5h-201q12 164 19.5 323.5t13.5 325.5h-811q-2 -68 -5 -136.5t-5.5 -145t-4.5 -166.5t-4 -201h-198q23 344 38 683t15 683h197l-15.5 -290.5t-11.5 -293.5h811z"/>
            <glyph unicode="I" horiz-adv-x="499"
                   d="M406 1366q-23 -344 -32 -683l-18 -683h-200q18 322 34.5 655.5t16.5 710.5h199z"/>
            <glyph unicode="J" horiz-adv-x="794"
                   d="M711 1366q-18 -238 -27.5 -473.5l-19.5 -470.5q-2 -37 -5.5 -84t-15.5 -96t-38.5 -97.5t-74 -85t-120 -59.5t-179.5 -23q-74 0 -147.5 10.5t-144.5 26.5l-13 156q68 -20 141.5 -37.5t145.5 -17.5q39 0 78 9t73.5 30.5t61.5 56.5t39 84q12 47 19.5 151.5t12.5 247t8 315.5 t7 357h199z"/>
            <glyph unicode="K" horiz-adv-x="1161"
                   d="M596 729l300 -367l306 -362h-239q-135 188 -281 366l-291 357l281 318q139 159 270 325h225zM408 1366q-10 -174 -18.5 -351t-14.5 -351.5l-11.5 -342t-9.5 -321.5h-198l13 202q7 112 12 235l10 252l9.5 250t6.5 231.5t2 195.5h199z"/>
            <glyph unicode="L" horiz-adv-x="970"
                   d="M416 1366l-16 -271l-14 -286q-7 -150 -14 -316.5t-14 -359.5h363q98 0 180 2t113 4l-8 -139h-850q16 180 26.5 342t16.5 323.5t10 332.5t6 368h201z"/>
            <glyph unicode="M" horiz-adv-x="1720"
                   d="M512 1366q43 -166 144.5 -451.5t228.5 -697.5h4l115 276l134 309l131 304q62 147 103 260h264q-10 -268 -15 -533.5t-5 -533.5q0 -76 1 -149.5t3 -149.5h-180l16 558q8 290 8 630h-4l-493 -1188h-189l-385 1180h-4q-27 -291 -47 -579t-31 -601h-172q37 326 63.5 678 t49.5 688h260z"/>
            <glyph unicode="N" horiz-adv-x="1540"
                   d="M457 1366q184 -299 380 -587l386 -578h4q4 143 11 310t13 326.5t10.5 299t4.5 229.5h180q-25 -344 -38 -683t-24 -683h-239l-382 581l-382 570h-4l-25 -572q-12 -286 -16 -579h-180q27 344 40 683t19 683h242z"/>
            <glyph unicode="O" horiz-adv-x="1644"
                   d="M889 1251q-137 0 -243.5 -44t-179.5 -122.5t-111 -189.5t-38 -244q0 -125 38 -224t107.5 -169t170 -106.5t225.5 -36.5q135 0 238.5 43t173 120.5t104.5 186t35 240.5q0 123 -34 223t-100.5 173t-163.5 111.5t-222 38.5zM895 1389q158 0 288 -46.5t222 -133.5t142 -213 t50 -287q0 -172 -53 -308.5t-150.5 -230.5t-234.5 -143.5t-307 -49.5q-160 0 -293 43t-228 128t-148.5 210t-53.5 291q0 150 46 284t140.5 235.5t238.5 161t341 59.5z"/>
            <glyph unicode="P" horiz-adv-x="1097"
                   d="M383 1233l-12 -287l-13 -295q-6 -152 -9 -312.5t-3 -338.5h-190q10 113 17 246t13.5 270t10.5 270.5t7 247t4 200.5t1 132h541q106 0 174.5 -34t107.5 -84t53.5 -107.5t14.5 -102.5q0 -104 -39 -184t-105.5 -134t-154.5 -81t-187 -27q-41 0 -79.5 4.5t-79.5 10.5l-35 127 q39 -6 75.5 -10.5t75.5 -4.5q68 0 130.5 16.5t108.5 52.5t73.5 90t27.5 130q0 61 -20.5 101t-51 62.5t-68.5 32t-75 9.5h-313z"/>
            <glyph unicode="Q" horiz-adv-x="1644"
                   d="M889 1251q-137 0 -243.5 -44t-179.5 -122.5t-111 -189.5t-38 -244q0 -125 38 -224t107.5 -169t170 -106.5t225.5 -36.5q135 0 238.5 43t173 120.5t104.5 186t35 240.5q0 123 -34 223t-100.5 173t-163.5 111.5t-222 38.5zM1569 33q-168 -23 -342 -39.5t-375 -16.5 q-160 0 -293 43t-228 128t-148.5 210t-53.5 291q0 150 46 284t140.5 235.5t238.5 161t341 59.5q158 0 288 -46.5t222 -133.5t142 -213t50 -287q0 -186 -74.5 -334t-236.5 -246l4 -4q76 4 153 21.5t154 41.5z"/>
            <glyph unicode="R" horiz-adv-x="1146"
                   d="M1102 0h-213q-96 195 -210 377l-224 368q33 -6 65.5 -10t67.5 -4q68 0 130 16.5t110.5 52.5t77 90t28.5 128q0 70 -23.5 113t-60.5 65.5t-81 29.5t-85 7h-295q-14 -309 -23.5 -615.5t-13.5 -617.5h-196q12 156 21 312.5t16.5 322.5t12.5 346t5 385h522q74 0 143.5 -16.5 t125 -55.5t88 -101.5t32.5 -156.5q0 -78 -28.5 -147.5t-83 -122.5t-135 -86t-185.5 -35z"/>
            <glyph unicode="S" horiz-adv-x="978"
                   d="M868 1198q-68 25 -137 39t-141 14q-66 0 -114 -16t-79.5 -43t-48 -60.5t-16.5 -66.5q0 -63 43 -120.5t106.5 -114t138 -112.5t138 -117.5t106.5 -131.5t43 -152q0 -96 -40 -160.5t-103.5 -104.5t-144 -57.5t-160.5 -17.5q-92 0 -179 17.5t-174 40.5l-14 168 q78 -37 167 -62.5t177 -25.5q47 0 97.5 9t91.5 32.5t67.5 64.5t26.5 107q0 53 -43 108.5t-106.5 111.5t-138.5 113.5t-138.5 120t-106.5 127t-43 135.5q0 74 25 136.5t77 108.5t132 73t192 27q72 0 142.5 -9.5t142.5 -21.5z"/>
            <glyph unicode="T" horiz-adv-x="1026"
                   d="M1096 1366l-6 -143l-69 4l-71 4q-35 2 -64 2h-48h-174l-29 -618q-14 -306 -14 -615h-199q23 309 35 615.5t22 617.5h-215q-53 0 -107.5 -3t-107.5 -7l6 143h1041z"/>
            <glyph unicode="U" horiz-adv-x="1462"
                   d="M406 1366l-17 -232l-15 -243q-7 -119 -12.5 -225.5t-5.5 -180.5q0 -201 102.5 -285.5t295.5 -84.5q68 0 132 14t116.5 45t90 81t54.5 124q6 33 13 104.5t13.5 164.5t11.5 198.5t9 205t7 182.5t3 132h197l-12 -200l-13 -209l-12 -225q-6 -118 -10 -253q-4 -104 -33 -195 t-98.5 -160t-187 -108t-298.5 -39q-141 0 -247.5 31t-177 87.5t-106.5 134t-36 171.5q0 35 2 98.5t6 144.5t8 174l9 190l8 188q4 92 6 170h197z"/>
            <glyph unicode="V" horiz-adv-x="1318"
                   d="M221 1366q94 -309 202.5 -609t207.5 -607l299 606q154 299 293 610h202l-354 -680l-340 -686h-229q-111 346 -235 684l-244 682h198z"/>
            <glyph unicode="W" horiz-adv-x="1908"
                   d="M39 1366h194l177 -601l188 -597l151 319q73 160 140 324l-89 279l-95 276h196l96 -334q39 82 73 165t65 169h198l-132 -276l-128 -279q47 -164 98 -324l107 -319l266 596l258 602h195l-629 -1366h-209q-86 297 -190 590l-144 -293l-135 -297h-209z"/>
            <glyph unicode="X" horiz-adv-x="1183"
                   d="M731 702l465 -702h-223q-86 147 -180 290l-187 288l-217 -288l-211 -290h-217l280 352l273 359l-436 655h223q78 -139 167 -268t171 -264l200 263q101 128 191 269h211z"/>
            <glyph unicode="Y" horiz-adv-x="1075"
                   d="M649 586l-22 -586h-197q12 150 22.5 298t16.5 300l-438 768h209q78 -160 166 -310.5t165 -307.5l199 306l195 312h209z"/>
            <glyph unicode="Z" horiz-adv-x="1175"
                   d="M303 133h438h71q32 0 70 1t87 4t121 7l-7 -145h-1001l6 156l422 536l416 541h-467h-67q-32 0 -64.5 -1t-70.5 -4l-87 -7l4 145h975l-6 -154z"/>
            <glyph unicode="[" horiz-adv-x="624" d="M518 -426h-319l106 1792h316l-7 -86h-147l-98 -1620h153z"/>
            <glyph unicode="\" horiz-adv-x="569" d="M63 1366l327 -683l337 -683h-188l-327 683l-337 683h188z"/>
            <glyph unicode="]" horiz-adv-x="624" d="M160 1366h319l-106 -1792h-316l6 86h148l98 1620h-153z"/>
            <glyph unicode="^"
                   d="M92 598l220 384l214 384h213l369 -768h-201l-136 331l-142 331l-171 -331l-165 -331h-201z"/>
            <glyph unicode="_" horiz-adv-x="1024" d="M0 -256v102h1024v-102h-1024z"/>
            <glyph unicode="`" horiz-adv-x="593" d="M358 1411l101 -287h-135l-189 287h223z"/>
            <glyph unicode="a" horiz-adv-x="1083"
                   d="M784 0q8 59 13.5 131t9.5 149.5t7 157.5t7 156q-33 -33 -88 -55.5t-120 -39.5l-131 -37q-67 -19 -120 -47t-86.5 -68t-33.5 -99q0 -47 21.5 -79t54 -50.5t73.5 -26.5t80 -8q53 0 106.5 10t104.5 27l-33 -123q-49 -10 -99 -15.5t-101 -5.5q-55 0 -121 8.5t-121 37t-92 81 t-37 142.5q0 106 55 168.5t137 99.5t179.5 57.5t179.5 45t137 61.5t55 106q0 45 -23.5 74t-58 45.5t-75.5 21.5t-78 5q-98 0 -191.5 -20.5t-183.5 -59.5l18 133q94 25 187.5 39t191.5 14q127 0 203 -22.5t117 -59t54 -84t13 -96.5q0 -57 -5 -153.5t-10 -205.5l-10 -220 q-5 -111 -5 -195h-181z"/>
            <glyph unicode="b"
                   d="M346 858q-2 -84 -7 -172t-5 -205q0 -182 82 -279.5t229 -97.5q90 0 154.5 39t104.5 102.5t58.5 142.5t18.5 157q0 174 -89 269t-265 95q-72 0 -142.5 -14t-138.5 -37zM313 0h-172q23 344 35 683t21 683h184q-10 -92 -15.5 -184t-9.5 -185q74 16 149 27.5t150 11.5 q100 0 191.5 -24.5t160 -81t108.5 -150.5t40 -233q0 -113 -28.5 -215.5t-87 -181t-149.5 -126t-214 -47.5t-218.5 56.5t-140.5 173.5l-4 -4v-203z"/>
            <glyph unicode="c" horiz-adv-x="964"
                   d="M924 858q-66 23 -134.5 37t-154.5 14q-88 0 -152.5 -33.5t-107.5 -93t-64.5 -138.5t-21.5 -167q0 -178 91 -275.5t271 -97.5q59 0 119.5 13.5t120.5 32.5l-25 -144q-133 -29 -260 -29q-240 0 -365.5 130.5t-125.5 367.5q0 119 29.5 221.5t93 178t162 118.5t235.5 43 q72 0 141.5 -9t136.5 -30z"/>
            <glyph unicode="d" horiz-adv-x="1228"
                   d="M946 881q-45 14 -95 21t-126 7q-121 0 -204 -44t-134 -111.5t-74.5 -147.5t-23.5 -151q0 -74 19.5 -138.5t57 -111.5t95 -74t135.5 -27q68 0 122 24t94 66t66.5 96t39.5 116q23 119 22.5 239.5t5.5 235.5zM934 205l-4 4q-59 -117 -154.5 -174.5t-230.5 -57.5 q-90 0 -169 31t-137.5 90.5t-91 146.5t-32.5 201q0 117 36.5 223.5t112.5 188.5t191.5 130t275.5 48q57 0 112.5 -5t110.5 -15q4 90 5.5 169t1.5 181h180q-20 -344 -32.5 -683t-16.5 -683h-170z"/>
            <glyph unicode="e" horiz-adv-x="1083"
                   d="M897 635q0 63 -15.5 116.5t-47 93.5t-80.5 62.5t-117 22.5q-141 0 -227 -80t-109 -215h596zM289 528v-57q0 -178 102.5 -272.5t276.5 -94.5q78 0 157.5 19.5t153.5 44.5l-29 -150q-158 -41 -309 -41q-158 0 -259 44.5t-160.5 116t-83 161.5t-23.5 184q0 117 32.5 218.5 t96 176t159 116.5t218.5 42q201 0 320.5 -103.5t119.5 -311.5q0 -37 -6 -93h-766z"/>
            <glyph unicode="f" horiz-adv-x="606"
                   d="M88 887l6 127h131q0 90 6.5 162.5t36 123t90 78t168.5 27.5q49 0 98.5 -7t96.5 -18l8 -131q-41 12 -87 20.5t-101 8.5q-59 0 -92 -21.5t-48.5 -57.5t-17.5 -84t-2 -101h278l-8 -127h-270q-2 -141 -6 -254l-8 -215q-4 -102 -7.5 -202.5t-3.5 -215.5h-182 q16 223 23.5 443.5l15.5 443.5h-125z"/>
            <glyph unicode="g" horiz-adv-x="1245"
                   d="M977 887q-109 23 -211 22q-113 0 -191.5 -29.5t-132 -74.5t-84 -99.5t-46 -105.5t-19.5 -91t-4 -56q0 -156 76.5 -250t240.5 -94q123 0 206 70.5t120 182.5q16 49 24.5 118t11.5 141.5t4 142.5t5 123zM207 -287q96 -31 191.5 -51t197.5 -20q131 0 210 39.5t112 152.5 q25 86 26.5 187.5t5.5 187.5l-4 4q-53 -119 -157.5 -175t-233.5 -56q-209 0 -324.5 117.5t-115.5 326.5q0 94 26.5 201.5t100 199t201.5 150.5t331 59q98 0 192.5 -12t190.5 -29q-4 -59 -8 -108l-8 -103q-4 -53 -7 -120l-8 -165q-4 -97 -9 -233.5t-9 -328.5 q-2 -90 -25.5 -168t-79 -134.5t-147.5 -88t-233 -31.5q-207 0 -406 49z"/>
            <glyph unicode="h" horiz-adv-x="1234"
                   d="M377 1366q-10 -139 -18.5 -276.5t-12.5 -274.5l4 4q61 123 168 170t248 47q80 0 150.5 -16t122 -53t81 -98.5t29.5 -149.5q0 -18 -2 -67l-5 -114q-3 -67 -6 -143l-7 -149q-3 -74 -6 -139.5t-3 -106.5h-178q2 45 8 128t11.5 178t9.5 189.5t4 161.5q0 131 -74 186.5 t-201 55.5q-129 0 -218 -72.5t-117 -199.5q-14 -68 -22.5 -160t-12.5 -183t-5 -168t-1 -116h-183q47 682 56 1366h180z"/>
            <glyph unicode="i" horiz-adv-x="464"
                   d="M186 1225l4 141h193l-4 -141h-193zM369 1014q-18 -256 -27.5 -507t-11.5 -507h-189q20 256 30.5 507t14.5 507h183z"/>
            <glyph unicode="j" horiz-adv-x="524"
                   d="M238 1225l4 141h192l-4 -141h-192zM418 1014q-14 -242 -23 -482l-16 -481q-4 -109 -8 -206t-37 -170.5t-105.5 -116.5t-214.5 -43q-66 0 -129 9t-125 21l-14 146q53 -16 109.5 -27.5t124.5 -11.5q113 0 161.5 61.5t59.5 198.5q4 47 10 154.5t12 255t10.5 325.5t4.5 367 h180z"/>
            <glyph unicode="k" horiz-adv-x="972"
                   d="M963 1014l-433 -451l467 -563h-202q-104 147 -221 285l-226 280l208 221q103 109 200 228h207zM373 1366q-23 -344 -35 -683t-19 -683h-178q25 344 36 683t16 683h180z"/>
            <glyph unicode="l" horiz-adv-x="464" d="M385 1366q-25 -336 -37 -679t-22 -687h-185q47 682 62 1366h182z"/>
            <glyph unicode="m" horiz-adv-x="1757"
                   d="M346 831l4 5q49 96 139.5 148t202.5 52q109 0 194 -48t113 -159q53 109 145.5 158t211.5 49q68 0 125 -16t99 -50t66.5 -86.5t24.5 -123.5q0 -43 -5 -109.5t-11 -160t-11.5 -215t-7.5 -275.5h-172q10 174 21.5 344t11.5 342q0 102 -49 157.5t-156 55.5q-23 0 -54.5 -6 t-65 -24.5t-66.5 -51.5t-57 -86q-20 -41 -31.5 -98.5t-18 -143.5t-9.5 -204l-7 -285h-180q10 174 21.5 344t11.5 342q0 102 -49.5 157.5t-155.5 55.5q-23 0 -54.5 -6t-65.5 -24.5t-66.5 -51.5t-57.5 -86q-20 -41 -31.5 -98.5t-17.5 -143.5t-9 -204l-7 -285h-181 q10 121 18.5 253t14.5 264t9 259t3 238h170z"/>
            <glyph unicode="n" horiz-adv-x="1234"
                   d="M356 817l4 4q61 121 166 168t240 47q80 0 150.5 -16t122 -53t81 -98.5t29.5 -149.5q0 -18 -2 -67l-5 -114q-3 -67 -6 -143l-7 -149q-3 -74 -6 -139.5t-3 -106.5h-178q2 45 8 128t11.5 178t9.5 189.5t4 161.5q0 131 -74 186.5t-201 55.5q-129 0 -218 -72.5t-117 -199.5 q-14 -68 -22.5 -160t-12.5 -183t-5 -168t-1 -116h-183q18 256 32.5 507t19.5 507h176z"/>
            <glyph unicode="o"
                   d="M639 909q-90 0 -155.5 -33.5t-108.5 -92t-64.5 -137.5t-21.5 -171q0 -78 19.5 -145.5t61.5 -117.5t105.5 -79t149.5 -29q98 0 165.5 35t109.5 95.5t61.5 139.5t19.5 167q0 170 -82 269t-260 99zM653 1036q117 0 209 -33.5t157.5 -98t100.5 -157t35 -208.5 q0 -98 -27.5 -198.5t-90 -181.5t-165 -131.5t-251.5 -50.5q-115 0 -209.5 35t-160 100.5t-101 159t-35.5 209.5q0 125 35.5 227.5t105.5 175t170 112.5t227 40z"/>
            <glyph unicode="p" horiz-adv-x="1214"
                   d="M358 858q-2 -84 -7 -172t-5 -205q0 -182 82 -279.5t229 -97.5q90 0 155 39t104.5 102.5t58 142.5t18.5 157q0 174 -89 269t-265 95q-72 0 -142.5 -14t-138.5 -37zM135 -451q25 358 38 712.5t20 715.5q111 25 226.5 42t248.5 17q100 0 191 -24.5t159.5 -81t108.5 -150.5 t40 -233q0 -113 -28.5 -215.5t-87 -181t-149.5 -126t-214 -47.5q-109 0 -201 49.5t-151 151.5h-4q0 -135 -7.5 -283.5t-7.5 -345.5h-182z"/>
            <glyph unicode="q" horiz-adv-x="1212"
                   d="M934 883q-45 12 -89 19t-91 7q-221 0 -343 -128t-122 -347q0 -66 18.5 -125t54 -105t89 -73t124.5 -27q129 0 212 80t114 197q12 41 18.5 107.5t9.5 139t4 141.5t1 114zM918 205l-5 4q-57 -111 -154 -171.5t-222 -60.5q-100 0 -179 36t-132.5 99.5t-82 146.5t-28.5 179 q0 88 24.5 192.5t95 194.5t199.5 150.5t340 60.5q90 0 176 -9t172 -26q-29 -365 -38 -726t-17 -726h-182z"/>
            <glyph unicode="r" horiz-adv-x="712"
                   d="M340 852h4q49 94 121 139t184 45q39 0 80 -10l6 -149q-59 16 -114 16q-63 0 -111.5 -22.5t-82.5 -61.5t-55.5 -90t-29.5 -109q-8 -49 -12 -115.5t-6 -145.5t-2 -167v-182h-181l13 222q6 112 11 235t8 260t3 297h170z"/>
            <glyph unicode="s" horiz-adv-x="815"
                   d="M80 170q68 -29 139.5 -47.5t147.5 -18.5q33 0 68.5 5.5t66 20.5t50 40t19.5 66q0 47 -30.5 89t-77.5 83t-101.5 81.5t-101.5 86t-77.5 96.5t-30.5 110q0 111 83.5 182.5t262.5 71.5q61 0 122.5 -8t122.5 -18l9 -144q-53 18 -109.5 30.5t-126.5 12.5q-33 0 -66.5 -5 t-61.5 -17.5t-45 -35t-17 -58.5q0 -47 30.5 -89t77.5 -82l102 -82q54 -42 101 -88t77.5 -99.5t30.5 -116.5q0 -72 -32.5 -121t-83.5 -80t-114.5 -44.5t-123.5 -13.5q-76 0 -150.5 11.5t-146.5 29.5z"/>
            <glyph unicode="t" horiz-adv-x="651"
                   d="M84 887l4 127h137l11 186l161 35l-8 -221h277l-4 -127h-279q-4 -74 -8 -159t-7 -167t-6.5 -152.5t-3.5 -119.5q0 -37 4.5 -69t17.5 -55.5t37.5 -36.5t65.5 -13q49 0 88 7t74 17l-22 -137q-47 -10 -94.5 -17.5t-94.5 -7.5q-129 0 -189.5 54.5t-60.5 189.5q0 43 4 121 l10 172l10 192l9 181h-133z"/>
            <glyph unicode="u" horiz-adv-x="1218"
                   d="M922 188l-4 -4q-29 -59 -70 -98t-92 -63.5t-109.5 -35t-120.5 -10.5q-84 0 -153.5 17.5t-121.5 56.5t-81 102.5t-29 153.5q0 55 5.5 139t10.5 182l10 197q5 100 5 189h178q-8 -164 -21.5 -327t-13.5 -329q0 -129 73 -186t185 -57q166 0 250 89t105 236q8 57 12 130t7 150 t4 152.5t3 141.5h176l-30.5 -507t-16.5 -507h-168z"/>
            <glyph unicode="v" horiz-adv-x="1007"
                   d="M1055 1014l-232 -505l-223 -509h-197l-366 1014h186l287 -862l358 862h187z"/>
            <glyph unicode="w" horiz-adv-x="1708"
                   d="M1221 166h4l352 848h170l-447 -1014h-194l-219 827h-4l-305 -827h-191l-358 1014h172q68 -217 142 -428l149 -420h4l311 848h182z"/>
            <glyph unicode="x" horiz-adv-x="989"
                   d="M979 1014l-348 -465l350 -549h-207q-59 117 -128 224l-134 218l-305 -442h-201l402 545l-297 469h202l215 -367l254 367h197z"/>
            <glyph unicode="y" horiz-adv-x="1003"
                   d="M47 1014h189q57 -225 135 -441.5t137 -433.5h4l365 875h182l-545 -1207q-27 -57 -55.5 -110t-69.5 -93t-99.5 -64.5t-144.5 -24.5t-172 22l-16 146q39 -18 79 -29.5t75 -11.5q37 0 71.5 8t71.5 42t76 100.5t86 180.5z"/>
            <glyph unicode="z" horiz-adv-x="909"
                   d="M76 0l4 150l602 737h-236q-43 0 -78 -1l-70 -2q-34 -1 -72 -4t-83 -6l7 140h722l-6 -158l-598 -729h326q41 0 93 1t149 7l-11 -135h-749z"/>
            <glyph unicode="{" horiz-adv-x="624"
                   d="M137 518q57 -2 89 13.5t47.5 43t19.5 63.5t4 75q0 88 9 197.5t9 273.5q0 100 54.5 141t132.5 41h137l-4 -86h-80q-33 0 -55.5 -36t-22.5 -105q0 -84 -9 -190.5t-9 -266.5q0 -57 -19.5 -95t-45 -61.5t-50.5 -35t-33 -17.5v-4q8 -6 29.5 -17.5t44.5 -35t40 -61.5t17 -95 q0 -84 -9 -190.5t-9 -266.5q0 -141 68 -141h81l-4 -86h-137q-78 0 -126 41t-48 141q0 84 9 190.5t9 268.5q0 39 -2 75t-15 63.5t-43 43t-83 13.5z"/>
            <glyph unicode="|" horiz-adv-x="600" d="M240 1536h170v-2048h-170v2048z"/>
            <glyph unicode="}" horiz-adv-x="624"
                   d="M547 424q-57 2 -89 -13.5t-47.5 -43t-19.5 -63.5t-4 -75q0 -88 -9 -197.5t-9 -273.5q0 -100 -54.5 -141t-132.5 -41h-137l4 86h80q33 0 55.5 36t22.5 105q0 84 9 190.5t9 266.5q0 57 19.5 95t45 61.5t50.5 35t33 17.5v4q-8 6 -29.5 17.5t-44.5 35t-40 61.5t-17 95 q0 84 9 190.5t9 266.5q0 141 -67 141h-82l4 86h137q78 0 126 -41t48 -141q0 -84 -9 -190.5t-9 -268.5q0 -39 2 -75t15 -63.5t43 -43t83 -13.5z"/>
            <glyph unicode="~"
                   d="M98 477q18 33 43 65.5t57.5 59.5t75.5 43.5t99 16.5q53 0 112.5 -23t124.5 -51q61 -29 125 -51.5t123 -22.5q61 0 104.5 47t71.5 101l80 -127q-18 -33 -42.5 -66t-57.5 -59.5t-76 -43t-98 -16.5q-53 0 -112.5 22.5t-125.5 51.5q-61 29 -124.5 51.5t-123.5 22.5 q-61 0 -104 -47.5t-72 -100.5z"/>
            <glyph unicode="&#xa1;" horiz-adv-x="485"
                   d="M352 713q-8 -268 -17 -532.5t-9 -532.5h-191l12 185q6 95 13 218l14 283q8 160 21 379h157zM379 1014l-8 -187h-195l10 187h193z"/>
            <glyph unicode="&#xa2;"
                   d="M604 -37q4 41 5 81t3 81q-98 16 -167.5 63.5t-114.5 115t-66.5 151.5t-21.5 176q0 94 25.5 190.5t76.5 175t129 132t182 63.5q2 12 3 35.5t1 49.5v50v39h148q-4 -41 -5 -82t-5 -82q55 -4 107 -14t106 -27l10 -149q-55 25 -115.5 39t-122.5 14q-94 0 -162.5 -36 t-112.5 -96.5t-64.5 -139t-20.5 -162.5q0 -80 20.5 -148.5t62.5 -119t105.5 -80t147.5 -29.5q117 0 233 41l-24 -145q-53 -12 -107.5 -22.5t-109.5 -10.5q-2 -29 -3.5 -61.5t-1.5 -92.5h-141z"/>
            <glyph unicode="&#xa3;"
                   d="M360 748q-14 37 -30.5 73.5t-30.5 74.5t-24.5 77t-10.5 80q0 94 43 158.5t110.5 104.5t149.5 56.5t162 16.5q72 0 140.5 -9.5t138.5 -25.5l14 -152q-70 29 -141.5 44.5t-145.5 15.5q-45 0 -96 -11.5t-94 -36t-72 -64.5t-29 -97q0 -84 34 -158t59 -147h430l-25 -127h-379 l11.5 -61t5.5 -60q0 -92 -32 -160t-85 -139q25 4 48.5 6t47.5 2q37 0 62.5 -3t49 -8t48.5 -14l59 -20q49 -16 104.5 -28.5t108.5 -12.5q100 0 185 41l-31 -158q-72 -29 -160 -29q-74 0 -139.5 18.5t-126.5 41.5t-122.5 40t-127.5 17q-72 0 -134.5 -24.5t-113.5 -73.5l6 164 q88 55 138.5 140t50.5 189q0 33 -4 66l-9 66h-198l22 127h133z"/>
            <glyph unicode="&#xa4;"
                   d="M606 381q72 0 135.5 27.5t110.5 78t74.5 120t27.5 155.5q0 78 -23.5 143.5t-65.5 113.5t-100 75.5t-130 27.5t-135.5 -27.5t-110.5 -77.5t-74.5 -120t-27.5 -156q0 -78 23.5 -143.5t65.5 -113.5t100 -75.5t130 -27.5zM203 451q-47 61 -68.5 137t-21.5 153q0 92 29.5 173 t88.5 139l-112 118l104 101l111 -115q59 49 142 76t165 27q86 0 164 -27t131 -74l121 115l100 -105l-117 -112q47 -57 67.5 -137t20.5 -158q0 -92 -29.5 -172t-82.5 -144l106 -114l-100 -96l-111 118q-59 -55 -141 -82.5t-170 -27.5q-86 0 -165 26.5t-138 81.5l-117 -119 l-94 99z"/>
            <glyph unicode="&#xa5;"
                   d="M43 834l6 127h250l-217 405h201q68 -160 148.5 -310.5t152.5 -307.5l187 306l181 312h197l-258 -405h258l-4 -127h-332l-160 -263h469l-6 -127h-473l-20 -444h-174l38 444h-456l8 127h457l-127 263h-326z"/>
            <glyph unicode="&#xa6;" horiz-adv-x="600" d="M240 1382h170v-716h-170v716zM240 358h170v-716h-170v716z"/>
            <glyph unicode="&#xa7;" horiz-adv-x="1093"
                   d="M684 143q72 39 126 100.5t54 147.5q0 76 -42 129t-101 92t-127 71t-119 67q-37 -18 -69.5 -44t-57 -59t-40 -70.5t-15.5 -80.5q0 -74 42 -126.5t102.5 -91t128 -70.5t118.5 -65zM229 -295q61 -25 124 -44t130 -19q45 0 86 13t72 39.5t49.5 67.5t18.5 95q0 68 -42 113.5 t-104.5 83.5t-135.5 73t-135.5 81t-104.5 108.5t-42 154.5q0 121 67 212t169 148q-51 47 -81 102.5t-30 125.5q0 49 16.5 106.5t59.5 106.5t117 83t188 34q70 0 135.5 -13.5t131.5 -36.5v-135q-59 25 -121 41.5t-127 16.5q-43 0 -83 -11.5t-71 -37t-48 -66.5t-17 -98 q0 -68 42 -114t103 -84t135 -75t135.5 -83t103.5 -108.5t42 -154.5q0 -123 -65.5 -211t-164.5 -147q53 -47 80 -103.5t27 -130.5q0 -78 -31 -138t-83 -101t-119.5 -62.5t-139.5 -21.5q-74 0 -144.5 14t-142.5 35v141z"/>
            <glyph unicode="&#xa8;" horiz-adv-x="768"
                   d="M389 1389l-6 -156h-178l6 156h178zM700 1389l-6 -156h-178l6 156h178z"/>
            <glyph unicode="&#xa9;" horiz-adv-x="1628"
                   d="M1087 285q-47 -10 -101 -17.5t-120 -7.5q-100 0 -184 24.5t-145.5 76t-95 129t-33.5 182.5q0 98 35.5 179t100 137t156 87t201.5 31q59 0 111.5 -6t105.5 -17l19 -118q-59 16 -115.5 25t-124.5 9q-166 0 -251 -80.5t-85 -246.5q0 -61 13.5 -116.5t48 -97.5t94 -66.5 t153.5 -24.5q68 0 129.5 10t114.5 26zM791 84q131 0 240.5 47t188 130t122.5 196.5t44 244.5q0 117 -36.5 221.5t-106 184.5t-172 127t-233.5 47t-241 -48t-187.5 -131t-121.5 -196.5t-44 -244.5q0 -117 35.5 -221.5t105.5 -183.5t172.5 -126t233.5 -47zM786 -23 q-176 0 -307 55.5t-217 148.5t-129 217t-43 264q0 154 51.5 286.5t147.5 230t236.5 154t316.5 56.5t307 -55.5t218 -149.5t130 -219t43 -263q0 -154 -51 -285.5t-148.5 -230t-238 -154t-316.5 -55.5z"/>
            <glyph unicode="&#xaa;" horiz-adv-x="757"
                   d="M563 795q8 78 14.5 163.5t6.5 165.5q-27 -27 -81 -41l-108 -29q-53 -15 -94 -41t-41 -73q0 -27 12.5 -44t31 -28.5t41 -16.5t44.5 -5q33 0 64.5 9t64.5 24l-22 -86q-55 -20 -121 -21q-41 0 -80 7t-70.5 25.5t-51 51.5t-19.5 84q0 59 31.5 94t79.5 56.5t104.5 35 t104.5 26.5t80 33.5t32 55.5q0 25 -13.5 40t-34 22.5t-43 9.5t-40.5 2q-59 0 -115.5 -12.5t-110.5 -32.5l15 88q55 14 110.5 22.5t112.5 8.5q41 0 82 -5.5t73.5 -21.5t53 -47t20.5 -80q0 -82 -10 -193.5t-6 -246.5h-117z"/>
            <glyph unicode="&#xab;" horiz-adv-x="864"
                   d="M770 866l-162 -354l131 -350h-123l-174 350l104 176l97 178h127zM461 866l-162 -354l131 -350h-123l-174 350l104 176l97 178h127z"/>
            <glyph unicode="&#xac;" d="M111 795h1011l-12 -286q-6 -144 -10 -292h-172q12 106 16 208l8 206h-848z"/>
            <glyph unicode="&#xad;" horiz-adv-x="509" d="M27 444l6 138h504l-7 -138h-503z"/>
            <glyph unicode="&#xae;" horiz-adv-x="1628"
                   d="M791 84q131 0 240.5 47t188 130t122.5 196.5t44 244.5q0 117 -36.5 221.5t-106 184.5t-172 127t-233.5 47t-241 -48t-187.5 -131t-121.5 -196.5t-44 -244.5q0 -117 35.5 -221.5t105.5 -183.5t172.5 -126t233.5 -47zM786 -23q-176 0 -307 55.5t-217 148.5t-129 217 t-43 264q0 154 51.5 286.5t147.5 230t236.5 154t316.5 56.5t307 -55.5t218 -149.5t130 -219t43 -263q0 -154 -51 -285.5t-148.5 -230t-238 -154t-316.5 -55.5zM481 289l19.5 411.5t13.5 411.5h393q111 0 181.5 -49t70.5 -164q0 -80 -28.5 -128t-68.5 -73.5t-83 -34t-70 -8.5 l124 -183l134 -183h-202q-59 117 -124 229l-132 230l42 -9q22 -4 44 -4q43 0 81.5 6.5t67.5 21.5t45.5 44t16.5 76q0 39 -13.5 63.5t-34 37.5t-44 17.5t-44.5 4.5h-204q-10 -180 -16.5 -358.5t-6.5 -358.5h-162z"/>
            <glyph unicode="&#xaf;" horiz-adv-x="845" d="M195 1346h573l-12 -97h-574z"/>
            <glyph unicode="&#x2c9;" horiz-adv-x="845" d="M195 1346h573l-12 -97h-574z"/>
            <glyph unicode="&#xb0;" horiz-adv-x="901"
                   d="M477 872q100 0 153.5 61.5t53.5 153.5q0 39 -11 74t-34 61.5t-59.5 43t-85.5 16.5q-100 0 -153.5 -61.5t-53.5 -153.5q0 -39 11 -74t33.5 -61.5t59.5 -43t86 -16.5zM473 766q-80 0 -140.5 24.5t-100 65.5t-59 95.5t-19.5 115.5q0 68 23.5 127t68.5 102t108.5 68t143.5 25 t139 -25t99 -66t60.5 -95t20.5 -116q0 -68 -23.5 -127t-68.5 -102t-108.5 -67.5t-143.5 -24.5z"/>
            <glyph unicode="&#xb1;"
                   d="M109 547l6 164h424q4 76 7 151.5t1 151.5h170q-6 -76 -9 -152l-6 -151h424l-6 -164h-424q-10 -152 -6 -301h-170q6 76 8 150l4 151h-423zM88 0l6 164h1012l-6 -164h-1012z"/>
            <glyph unicode="&#xb2;" horiz-adv-x="720"
                   d="M55 557l4 98l160 145q80 75 144.5 143.5t105.5 125.5t41 92q0 37 -15.5 59.5t-39 37t-54 19.5t-61.5 5q-59 0 -119.5 -9t-124.5 -26l21 117q66 10 129 17.5t129 7.5q47 0 98 -9.5t93 -31t70 -60.5t28 -96q0 -53 -24 -101.5t-74 -106.5t-132 -135l-198 -185h397l-6 -107 h-572z"/>
            <glyph unicode="&#xb3;" horiz-adv-x="720"
                   d="M61 696q59 -23 119 -39t123 -16q43 0 85 9t75 28.5t53.5 48.5t20.5 68q0 43 -20.5 69.5t-52.5 42t-73 21.5t-82 6q-23 0 -46 -1t-48 -3l8 117q31 -6 64 -7q70 0 113.5 12.5t68.5 31t34 43t9 49.5q0 29 -14.5 49t-39 32.5t-56 18.5t-64.5 6q-106 0 -207 -25l16 113 q51 8 101.5 13.5t101.5 5.5q55 0 110.5 -7.5t101.5 -29t75 -60.5t29 -100q0 -53 -18.5 -89t-45.5 -60.5t-56.5 -38t-53.5 -21.5v-4q80 -4 135 -51t55 -140q0 -45 -19.5 -90t-62.5 -81.5t-113.5 -59t-175.5 -22.5q-59 0 -118.5 12t-118.5 28z"/>
            <glyph unicode="&#xb4;" horiz-adv-x="593" d="M526 1411l-188 -287h-135l100 287h223z"/>
            <glyph unicode="&#xb5;" horiz-adv-x="1218"
                   d="M922 188l-4 -4q-29 -59 -70 -98t-92 -63.5t-109.5 -35t-120.5 -10.5q-84 0 -146.5 19.5t-74.5 48.5h-4l-10 -496h-182q12 322 23 558.5t20.5 408.5t14.5 291t5 207h178q-8 -164 -21.5 -327t-13.5 -329q0 -129 73 -186t185 -57q166 0 250 89t105 236q8 57 12 130t7 150 t4 152.5t3 141.5h176l-30.5 -507t-16.5 -507h-168z"/>
            <glyph unicode="&#x3bc;" horiz-adv-x="1218"
                   d="M922 188l-4 -4q-29 -59 -70 -98t-92 -63.5t-109.5 -35t-120.5 -10.5q-84 0 -146.5 19.5t-74.5 48.5h-4l-10 -496h-182q12 322 23 558.5t20.5 408.5t14.5 291t5 207h178q-8 -164 -21.5 -327t-13.5 -329q0 -129 73 -186t185 -57q166 0 250 89t105 236q8 57 12 130t7 150 t4 152.5t3 141.5h176l-30.5 -507t-16.5 -507h-168z"/>
            <glyph unicode="&#xb6;" horiz-adv-x="1093"
                   d="M496 1270q-84 0 -137.5 -28t-83 -68.5t-41 -88t-11.5 -84.5q0 -45 14.5 -84.5t42 -70.5t65.5 -48.5t85 -17.5q43 0 80 13.5t74 31.5q8 113 11 223.5t3 221.5h-102zM776 -469q6 57 11 157l12 224q6 125 11 266t9 283l8 275q4 134 6.5 244t4.5 186.5t2 103.5h-125 q-2 -31 -5 -111l-8 -192l-9 -249q-5 -136 -11 -279.5t-11 -284l-9.5 -263t-6.5 -217t-2 -143.5h-121q20 301 29.5 599t20.5 597q-41 -20 -85 -31.5t-91 -11.5q-70 0 -130.5 22.5t-104.5 64.5t-69.5 99.5t-25.5 128.5q0 188 118.5 277.5t337.5 89.5h433q-6 -92 -13.5 -244.5 t-14.5 -335.5l-14 -376q-7 -195 -12.5 -368t-8.5 -309t-3 -202h-123z"/>
            <glyph unicode="&#xb7;" horiz-adv-x="600" d="M225 414l8 186h195l-10 -186h-193z"/>
            <glyph unicode="&#x2219;" horiz-adv-x="600" d="M225 414l8 186h195l-10 -186h-193z"/>
            <glyph unicode="&#xb8;" horiz-adv-x="655" d="M176 -350l209 248h135l-125 -248h-219z"/>
            <glyph unicode="&#xb9;" horiz-adv-x="720"
                   d="M283 557q14 168 21 344t13 342l-100 -69l6 129l107 63h147q-16 -188 -25.5 -399t-9.5 -410h-159z"/>
            <glyph unicode="&#xba;" horiz-adv-x="757"
                   d="M436 1307q-104 0 -154.5 -66.5t-50.5 -165.5q0 -45 11.5 -85t34 -70.5t58.5 -48t85 -17.5q53 0 91 20.5t62.5 54.5t36 78t11.5 93q0 92 -43.5 149.5t-141.5 57.5zM438 1389q137 0 216 -76t79 -215q0 -31 -9 -85.5t-42 -108.5t-95.5 -93t-168.5 -39q-137 0 -218 76 t-81 231q0 145 89 227.5t230 82.5z"/>
            <glyph unicode="&#xbb;" horiz-adv-x="864"
                   d="M133 162l166 350l-129 354h127l81 -178q40 -88 85 -176l-105 -174q-53 -86 -102 -176h-123zM442 162l166 350l-129 354h127l81 -178q40 -88 85 -176l-104 -174q-53 -86 -103 -176h-123z"/>
            <glyph unicode="&#xbc;" horiz-adv-x="1802"
                   d="M283 557q14 168 21 344t13 342l-100 -69l6 129l107 63h147q-16 -188 -25.5 -399t-9.5 -410h-159zM1237 1366l-406 -681l-397 -685h-127l407 682l400 684h123zM1096 358h243q10 94 14.5 180.5t6.5 155.5l-4 -4zM1315 0q8 72 11 137.5t5 114.5h-377l7 121l181 219 q89 109 169 217h192q-8 -106 -13 -220t-9 -231h149l-4 -106h-149q-4 -33 -5.5 -96.5t-1.5 -155.5h-155z"/>
            <glyph unicode="&#xbd;" horiz-adv-x="1802"
                   d="M1038 0l4 98l160 145q80 75 144.5 143.5t105.5 125.5t41 92q0 37 -15.5 59.5t-39 37t-54 19.5t-61.5 5q-59 0 -119.5 -9t-124.5 -26l21 117q66 10 129 17t129 7q47 0 98 -9t93 -30.5t70 -60.5t28 -96q0 -53 -24 -101.5t-74 -106.5t-132 -135l-198 -186h397l-6 -106h-572z M283 557q14 168 21 344t13 342l-100 -69l6 129l107 63h147q-16 -188 -25.5 -399t-9.5 -410h-159zM1268 1366l-406 -681l-397 -685h-127l406 682l401 684h123z"/>
            <glyph unicode="&#xbe;" horiz-adv-x="1802"
                   d="M61 696q59 -23 119 -39t123 -16q43 0 85 9t75 28.5t53.5 48.5t20.5 68q0 43 -20.5 69.5t-52.5 42t-73 21.5t-82 6q-23 0 -46 -1t-48 -3l8 117q31 -6 64 -7q70 0 113.5 12.5t68.5 31t34 43t9 49.5q0 29 -14.5 49t-39 32.5t-56 18.5t-64.5 6q-106 0 -207 -25l16 113 q51 8 101.5 13.5t101.5 5.5q55 0 110.5 -7.5t101.5 -29t75 -60.5t29 -100q0 -53 -18.5 -89t-45.5 -60.5t-56.5 -38t-53.5 -21.5v-4q80 -4 135 -51t55 -140q0 -45 -19.5 -90t-62.5 -81.5t-113.5 -59t-175.5 -22.5q-59 0 -118.5 12t-118.5 28zM1106 358h244q10 94 14 180.5 t6 155.5l-4 -4zM1339 1366l-405 -681l-397 -685h-127l406 682l401 684h122zM1325 0q8 72 11 137.5t5 114.5h-376l6 121l181 219q89 109 169 217h192q-8 -106 -13 -220t-9 -231h149l-4 -106h-149q-4 -33 -5 -96.5t-1 -155.5h-156z"/>
            <glyph unicode="&#xbf;" horiz-adv-x="954"
                   d="M666 1014l-9 -187h-194l10 187h193zM874 -344q-86 -12 -169.5 -21.5t-169.5 -9.5q-74 0 -154 12.5t-146.5 45t-110.5 91t-44 150.5q0 55 21.5 106.5t53 99.5t70.5 92t76 81q55 57 87 94t49.5 77t24.5 99.5t15 163.5h162q-6 -121 -11 -187.5t-22.5 -111.5t-51.5 -86 l-95 -110l-57.5 -64t-61.5 -72.5t-48.5 -78.5t-19.5 -80q0 -59 29 -97t74 -59.5t97 -30t99 -8.5q86 0 167 16.5t163 38.5z"/>
            <glyph unicode="&#xc0;" horiz-adv-x="1267"
                   d="M899 709l-184 522l-264 -522h448zM395 575l-276 -575h-209l355 682l345 684h234l241 -683l252 -683h-202q-43 147 -95 290l-104 285h-541zM696 1763l101 -287h-135l-189 287h223z"/>
            <glyph unicode="&#xc1;" horiz-adv-x="1267"
                   d="M899 709l-184 522l-264 -522h448zM395 575l-276 -575h-209l355 682l345 684h234l241 -683l252 -683h-202q-43 147 -95 290l-104 285h-541zM925 1763l-188 -287h-135l100 287h223z"/>
            <glyph unicode="&#xc2;" horiz-adv-x="1267"
                   d="M899 709l-184 522l-264 -522h448zM395 575l-276 -575h-209l355 682l345 684h234l241 -683l252 -683h-202q-43 147 -95 290l-104 285h-541zM715 1648l-119 -168h-115l105 242h260l117 -242h-117z"/>
            <glyph unicode="&#xc3;" horiz-adv-x="1267"
                   d="M899 709l-184 522l-264 -522h448zM395 575l-276 -575h-209l355 682l345 684h234l241 -683l252 -683h-202q-43 147 -95 290l-104 285h-541zM444 1497q0 33 4 73.5t18.5 74.5t41 57.5t71.5 23.5q41 0 80 -22.5t78 -49.5q39 -29 74 -50t63 -21q23 0 35 14t18.5 34.5t7.5 43 t1 39.5h102q0 -37 -4 -79t-18.5 -77t-42 -58.5t-74.5 -23.5q-41 0 -82 22.5t-78 51.5q-39 27 -73.5 48.5t-63.5 21.5q-23 0 -34 -13.5t-16 -33t-6 -41t-3 -35.5h-99z"/>
            <glyph unicode="&#xc4;" horiz-adv-x="1267"
                   d="M899 709l-184 522l-264 -522h448zM395 575l-276 -575h-209l355 682l345 684h234l241 -683l252 -683h-202q-43 147 -95 290l-104 285h-541zM680 1680l-6 -156h-178l6 156h178zM991 1680l-6 -156h-178l6 156h178z"/>
            <glyph unicode="&#xc5;" horiz-adv-x="1267"
                   d="M899 709l-184 522l-264 -522h448zM395 575l-276 -575h-209l355 682l345 684h234l241 -683l252 -683h-202q-43 147 -95 290l-104 285h-541zM598 1634q0 -43 29.5 -72.5t74.5 -29.5q43 0 73 29.5t30 72.5t-30 71.5t-73 28.5q-45 0 -74.5 -28.5t-29.5 -71.5zM508 1634 q0 78 55 132t139 54q82 0 137.5 -54t55.5 -132t-55.5 -133t-137.5 -55q-84 0 -139 55t-55 133z"/>
            <glyph unicode="&#xc6;" horiz-adv-x="1691"
                   d="M825 702l-106 537h-4l-266 -537h376zM842 575h-447l-148 -281q-73 -144 -141 -294h-196l352 680l338 686h1038l-8 -139q-92 4 -156.5 5t-125.5 1h-461l96 -473h328h116q57 0 115 4l-6 -137h-528l106 -500h162q68 0 120 1t93 2t82 5l-6 -135h-609z"/>
            <glyph unicode="&#xc7;" horiz-adv-x="1284"
                   d="M1202 18q-88 -16 -175 -28.5t-177 -12.5q-156 0 -288 43t-228 127t-150.5 209t-54.5 289q0 178 55.5 316.5t156.5 233.5t244.5 144.5t317.5 49.5q84 0 166 -10.5t166 -26.5l10 -158q-82 25 -165 41t-169 16q-133 0 -242.5 -42t-187.5 -119.5t-121 -186t-43 -244.5 q0 -125 37 -225t106.5 -170.5t170 -109.5t225.5 -39q94 0 186.5 16t184.5 45zM491 -350l209 248h135l-125 -248h-219z"/>
            <glyph unicode="&#xc8;" horiz-adv-x="1150"
                   d="M1098 1366l-8 -141q-98 6 -193.5 7t-194.5 1h-305l-18 -473h625l-9 -133h-622l-21 -494h215q123 0 242 2t240 10l-9 -145h-884q25 344 39 683t18 683h885zM637 1763l101 -287h-135l-189 287h223z"/>
            <glyph unicode="&#xc9;" horiz-adv-x="1150"
                   d="M1098 1366l-8 -141q-98 6 -193.5 7t-194.5 1h-305l-18 -473h625l-9 -133h-622l-21 -494h215q123 0 242 2t240 10l-9 -145h-884q25 344 39 683t18 683h885zM805 1763l-188 -287h-135l100 287h223z"/>
            <glyph unicode="&#xca;" horiz-adv-x="1150"
                   d="M1098 1366l-8 -141q-98 6 -193.5 7t-194.5 1h-305l-18 -473h625l-9 -133h-622l-21 -494h215q123 0 242 2t240 10l-9 -145h-884q25 344 39 683t18 683h885zM656 1648l-119 -168h-115l105 242h260l117 -242h-117z"/>
            <glyph unicode="&#xcb;" horiz-adv-x="1150"
                   d="M1098 1366l-8 -141q-98 6 -193.5 7t-194.5 1h-305l-18 -473h625l-9 -133h-622l-21 -494h215q123 0 242 2t240 10l-9 -145h-884q25 344 39 683t18 683h885zM582 1680l-6 -156h-178l6 156h178zM893 1680l-6 -156h-178l6 156h178z"/>
            <glyph unicode="&#xcc;" horiz-adv-x="499"
                   d="M406 1366q-23 -344 -32 -683l-18 -683h-200q18 322 34.5 655.5t16.5 710.5h199zM313 1763l101 -287h-135l-189 287h223z"/>
            <glyph unicode="&#xcd;" horiz-adv-x="499"
                   d="M406 1366q-23 -344 -32 -683l-18 -683h-200q18 322 34.5 655.5t16.5 710.5h199zM522 1763l-188 -287h-135l100 287h223z"/>
            <glyph unicode="&#xce;" horiz-adv-x="499"
                   d="M406 1366q-23 -344 -32 -683l-18 -683h-200q18 322 34.5 655.5t16.5 710.5h199zM312 1628l-119 -168h-115l105 242h260l117 -242h-117z"/>
            <glyph unicode="&#xcf;" horiz-adv-x="499"
                   d="M406 1366q-23 -344 -32 -683l-18 -683h-200q18 322 34.5 655.5t16.5 710.5h199zM258 1680l-6 -156h-178l6 156h178zM569 1680l-6 -156h-178l6 156h178z"/>
            <glyph unicode="&#xd0;" horiz-adv-x="1495"
                   d="M375 782h409l-10 -133h-403l-23 -516h295q121 0 232.5 28.5t196.5 100.5t136.5 192.5t51.5 307.5q0 145 -44.5 237.5t-110 144.5t-140 70.5t-134.5 18.5h-436zM33 782h166q8 160 12 301.5t4 282.5h592q172 0 294 -46t198.5 -128t112.5 -196.5t36 -252.5q0 -141 -41 -275 t-134 -238.5t-243.5 -167t-370.5 -62.5h-503q14 170 24 336t15 313h-175z"/>
            <glyph unicode="&#xd1;" horiz-adv-x="1540"
                   d="M457 1366q184 -299 380 -587l386 -578h4q4 143 11 310t13 326.5t10.5 299t4.5 229.5h180q-25 -344 -38 -683t-24 -683h-239l-382 581l-382 570h-4l-25 -572q-12 -286 -16 -579h-180q27 344 40 683t19 683h242zM518 1477q0 33 4 73.5t18.5 74.5t41 57.5t71.5 23.5 q41 0 80 -22.5t78 -49.5q39 -29 74 -50t63 -21q23 0 35 14t18.5 34.5t7.5 43t1 39.5h102q0 -37 -4 -79t-18.5 -77t-42 -58.5t-74.5 -23.5q-41 0 -82 22.5t-78 51.5q-39 27 -73.5 48.5t-63.5 21.5q-23 0 -34 -13.5t-16 -33t-6 -41t-3 -35.5h-99z"/>
            <glyph unicode="&#xd2;" horiz-adv-x="1644"
                   d="M889 1251q-137 0 -243.5 -44t-179.5 -122.5t-111 -189.5t-38 -244q0 -125 38 -224t107.5 -169t170 -106.5t225.5 -36.5q135 0 238.5 43t173 120.5t104.5 186t35 240.5q0 123 -34 223t-100.5 173t-163.5 111.5t-222 38.5zM895 1389q158 0 288 -46.5t222 -133.5t142 -213 t50 -287q0 -172 -53 -308.5t-150.5 -230.5t-234.5 -143.5t-307 -49.5q-160 0 -293 43t-228 128t-148.5 210t-53.5 291q0 150 46 284t140.5 235.5t238.5 161t341 59.5zM884 1763l101 -287h-135l-189 287h223z"/>
            <glyph unicode="&#xd3;" horiz-adv-x="1644"
                   d="M889 1251q-137 0 -243.5 -44t-179.5 -122.5t-111 -189.5t-38 -244q0 -125 38 -224t107.5 -169t170 -106.5t225.5 -36.5q135 0 238.5 43t173 120.5t104.5 186t35 240.5q0 123 -34 223t-100.5 173t-163.5 111.5t-222 38.5zM895 1389q158 0 288 -46.5t222 -133.5t142 -213 t50 -287q0 -172 -53 -308.5t-150.5 -230.5t-234.5 -143.5t-307 -49.5q-160 0 -293 43t-228 128t-148.5 210t-53.5 291q0 150 46 284t140.5 235.5t238.5 161t341 59.5zM1052 1763l-188 -287h-135l100 287h223z"/>
            <glyph unicode="&#xd4;" horiz-adv-x="1644"
                   d="M889 1251q-137 0 -243.5 -44t-179.5 -122.5t-111 -189.5t-38 -244q0 -125 38 -224t107.5 -169t170 -106.5t225.5 -36.5q135 0 238.5 43t173 120.5t104.5 186t35 240.5q0 123 -34 223t-100.5 173t-163.5 111.5t-222 38.5zM895 1389q158 0 288 -46.5t222 -133.5t142 -213 t50 -287q0 -172 -53 -308.5t-150.5 -230.5t-234.5 -143.5t-307 -49.5q-160 0 -293 43t-228 128t-148.5 210t-53.5 291q0 150 46 284t140.5 235.5t238.5 161t341 59.5zM863 1648l-119 -168h-115l105 242h260l117 -242h-117z"/>
            <glyph unicode="&#xd5;" horiz-adv-x="1644"
                   d="M889 1251q-137 0 -243.5 -44t-179.5 -122.5t-111 -189.5t-38 -244q0 -125 38 -224t107.5 -169t170 -106.5t225.5 -36.5q135 0 238.5 43t173 120.5t104.5 186t35 240.5q0 123 -34 223t-100.5 173t-163.5 111.5t-222 38.5zM895 1389q158 0 288 -46.5t222 -133.5t142 -213 t50 -287q0 -172 -53 -308.5t-150.5 -230.5t-234.5 -143.5t-307 -49.5q-160 0 -293 43t-228 128t-148.5 210t-53.5 291q0 150 46 284t140.5 235.5t238.5 161t341 59.5zM571 1497q0 33 4 73.5t18.5 74.5t41 57.5t71.5 23.5q41 0 80 -22.5t78 -49.5q39 -29 74 -50t63 -21 q23 0 35 14t18.5 34.5t7.5 43t1 39.5h102q0 -37 -4 -79t-18.5 -77t-42 -58.5t-74.5 -23.5q-41 0 -82 22.5t-78 51.5q-39 27 -73.5 48.5t-63.5 21.5q-23 0 -34 -13.5t-16 -33t-6 -41t-3 -35.5h-99z"/>
            <glyph unicode="&#xd6;" horiz-adv-x="1644"
                   d="M889 1251q-137 0 -243.5 -44t-179.5 -122.5t-111 -189.5t-38 -244q0 -125 38 -224t107.5 -169t170 -106.5t225.5 -36.5q135 0 238.5 43t173 120.5t104.5 186t35 240.5q0 123 -34 223t-100.5 173t-163.5 111.5t-222 38.5zM895 1389q158 0 288 -46.5t222 -133.5t142 -213 t50 -287q0 -172 -53 -308.5t-150.5 -230.5t-234.5 -143.5t-307 -49.5q-160 0 -293 43t-228 128t-148.5 210t-53.5 291q0 150 46 284t140.5 235.5t238.5 161t341 59.5zM827 1680l-6 -156h-178l6 156h178zM1138 1680l-6 -156h-178l6 156h178z"/>
            <glyph unicode="&#xd7;"
                   d="M90 139l207 193l203 194l-188 195l-191 192l125 123l185 -198l190 -197l401 395l117 -123l-206 -192l-204 -195l187 -194l192 -193l-125 -123l-184 199l-189 197l-203 -197l-200 -199z"/>
            <glyph unicode="&#xd8;" horiz-adv-x="1644"
                   d="M1335 1264q127 -86 194.5 -225.5t67.5 -329.5q0 -172 -53 -308.5t-150.5 -230.5t-234.5 -143.5t-307 -49.5q-195 0 -342 62l-102 -152h-160l145 215q-125 82 -194.5 219.5t-69.5 327.5q0 150 46 284t140.5 235.5t238.5 161t341 59.5q178 0 324 -64l102 154h160zM590 170 q123 -55 268 -55q135 0 238.5 43t173 120.5t104.5 186t35 240.5q0 137 -41 246.5t-131 181.5zM1143 1198q-109 53 -254 53q-137 0 -243.5 -44t-179.5 -122.5t-111 -189.5t-38 -244q0 -270 172 -418z"/>
            <glyph unicode="&#xd9;" horiz-adv-x="1462"
                   d="M406 1366l-17 -232l-15 -243q-7 -119 -12.5 -225.5t-5.5 -180.5q0 -201 102.5 -285.5t295.5 -84.5q68 0 132 14t116.5 45t90 81t54.5 124q6 33 13 104.5t13.5 164.5t11.5 198.5t9 205t7 182.5t3 132h197l-12 -200l-13 -209l-12 -225q-6 -118 -10 -253q-4 -104 -33 -195 t-98.5 -160t-187 -108t-298.5 -39q-141 0 -247.5 31t-177 87.5t-106.5 134t-36 171.5q0 35 2 98.5t6 144.5t8 174l9 190l8 188q4 92 6 170h197zM792 1763l101 -287h-135l-189 287h223z"/>
            <glyph unicode="&#xda;" horiz-adv-x="1462"
                   d="M406 1366l-17 -232l-15 -243q-7 -119 -12.5 -225.5t-5.5 -180.5q0 -201 102.5 -285.5t295.5 -84.5q68 0 132 14t116.5 45t90 81t54.5 124q6 33 13 104.5t13.5 164.5t11.5 198.5t9 205t7 182.5t3 132h197l-12 -200l-13 -209l-12 -225q-6 -118 -10 -253q-4 -104 -33 -195 t-98.5 -160t-187 -108t-298.5 -39q-141 0 -247.5 31t-177 87.5t-106.5 134t-36 171.5q0 35 2 98.5t6 144.5t8 174l9 190l8 188q4 92 6 170h197zM960 1763l-188 -287h-135l100 287h223z"/>
            <glyph unicode="&#xdb;" horiz-adv-x="1462"
                   d="M406 1366l-17 -232l-15 -243q-7 -119 -12.5 -225.5t-5.5 -180.5q0 -201 102.5 -285.5t295.5 -84.5q68 0 132 14t116.5 45t90 81t54.5 124q6 33 13 104.5t13.5 164.5t11.5 198.5t9 205t7 182.5t3 132h197l-12 -200l-13 -209l-12 -225q-6 -118 -10 -253q-4 -104 -33 -195 t-98.5 -160t-187 -108t-298.5 -39q-141 0 -247.5 31t-177 87.5t-106.5 134t-36 171.5q0 35 2 98.5t6 144.5t8 174l9 190l8 188q4 92 6 170h197zM770 1648l-119 -168h-115l105 242h260l117 -242h-117z"/>
            <glyph unicode="&#xdc;" horiz-adv-x="1462"
                   d="M406 1366l-17 -232l-15 -243q-7 -119 -12.5 -225.5t-5.5 -180.5q0 -201 102.5 -285.5t295.5 -84.5q68 0 132 14t116.5 45t90 81t54.5 124q6 33 13 104.5t13.5 164.5t11.5 198.5t9 205t7 182.5t3 132h197l-12 -200l-13 -209l-12 -225q-6 -118 -10 -253q-4 -104 -33 -195 t-98.5 -160t-187 -108t-298.5 -39q-141 0 -247.5 31t-177 87.5t-106.5 134t-36 171.5q0 35 2 98.5t6 144.5t8 174l9 190l8 188q4 92 6 170h197zM696 1680l-6 -156h-178l6 156h178zM1007 1680l-6 -156h-178l6 156h178z"/>
            <glyph unicode="&#xdd;" horiz-adv-x="1075"
                   d="M649 586l-22 -586h-197q12 150 22.5 298t16.5 300l-438 768h209q78 -160 166 -310.5t165 -307.5l199 306l195 312h209zM768 1763l-188 -287h-135l100 287h223z"/>
            <glyph unicode="&#xde;" horiz-adv-x="1097"
                   d="M393 1366l-16 -272h368q106 0 175 -34t108 -84t53.5 -107.5t14.5 -102.5q0 -104 -39 -184t-105.5 -134.5t-154.5 -81t-187 -26.5q-41 0 -79.5 4t-79.5 10l-35 127q39 -6 75.5 -10t75.5 -4q68 0 130.5 16.5t108.5 52t73.5 90t27.5 130.5q0 61 -20.5 101t-51 62.5t-68.5 32 t-75 9.5h-321l-8.5 -221t-7.5 -245l-6 -253q-3 -127 -3 -242h-190q10 113 17 246t13.5 270t10.5 270.5t7 247t4 200.5t1 132h184z"/>
            <glyph unicode="&#xdf;" horiz-adv-x="1161"
                   d="M530 154q47 -18 103.5 -34t124.5 -16q78 0 135 54.5t57 165.5q0 57 -22.5 102t-58 82t-79.5 69l-88 62q-49 37 -67.5 74t-18.5 96q0 72 23 106.5t88 55.5q59 18 75.5 45.5t16.5 91.5q0 92 -53 128t-137 36q-129 0 -188.5 -66.5t-69.5 -191.5q-18 -256 -27.5 -507 t-17.5 -507h-185q20 221 31.5 440l22.5 443q2 45 3 94t7 98t21.5 94t45.5 82q66 80 164.5 109t198.5 29q66 0 130 -11.5t114.5 -41t82 -80t31.5 -128.5q0 -49 -5 -81.5t-18.5 -54t-38 -37t-61.5 -29.5l-42 -17q-22 -8 -38 -20t-27 -29.5t-11 -44.5q0 -41 27.5 -72.5 t68.5 -61.5t90 -61.5t90 -73.5t68.5 -99.5t27.5 -139.5t-26.5 -143.5t-73.5 -103.5t-111.5 -62.5t-142.5 -20.5q-59 0 -115.5 8.5t-111.5 24.5z"/>
            <glyph unicode="&#xe0;" horiz-adv-x="1083"
                   d="M784 0q8 59 13.5 131t9.5 149.5t7 157.5t7 156q-33 -33 -88 -55.5t-120 -39.5l-131 -37q-67 -19 -120 -47t-86.5 -68t-33.5 -99q0 -47 21.5 -79t54 -50.5t73.5 -26.5t80 -8q53 0 106.5 10t104.5 27l-33 -123q-49 -10 -99 -15.5t-101 -5.5q-55 0 -121 8.5t-121 37t-92 81 t-37 142.5q0 106 55 168.5t137 99.5t179.5 57.5t179.5 45t137 61.5t55 106q0 45 -23.5 74t-58 45.5t-75.5 21.5t-78 5q-98 0 -191.5 -20.5t-183.5 -59.5l18 133q94 25 187.5 39t191.5 14q127 0 203 -22.5t117 -59t54 -84t13 -96.5q0 -57 -5 -153.5t-10 -205.5l-10 -220 q-5 -111 -5 -195h-181zM604 1411l101 -287h-135l-189 287h223z"/>
            <glyph unicode="&#xe1;" horiz-adv-x="1083"
                   d="M784 0q8 59 13.5 131t9.5 149.5t7 157.5t7 156q-33 -33 -88 -55.5t-120 -39.5l-131 -37q-67 -19 -120 -47t-86.5 -68t-33.5 -99q0 -47 21.5 -79t54 -50.5t73.5 -26.5t80 -8q53 0 106.5 10t104.5 27l-33 -123q-49 -10 -99 -15.5t-101 -5.5q-55 0 -121 8.5t-121 37t-92 81 t-37 142.5q0 106 55 168.5t137 99.5t179.5 57.5t179.5 45t137 61.5t55 106q0 45 -23.5 74t-58 45.5t-75.5 21.5t-78 5q-98 0 -191.5 -20.5t-183.5 -59.5l18 133q94 25 187.5 39t191.5 14q127 0 203 -22.5t117 -59t54 -84t13 -96.5q0 -57 -5 -153.5t-10 -205.5l-10 -220 q-5 -111 -5 -195h-181zM833 1411l-188 -287h-135l100 287h223z"/>
            <glyph unicode="&#xe2;" horiz-adv-x="1083"
                   d="M784 0q8 59 13.5 131t9.5 149.5t7 157.5t7 156q-33 -33 -88 -55.5t-120 -39.5l-131 -37q-67 -19 -120 -47t-86.5 -68t-33.5 -99q0 -47 21.5 -79t54 -50.5t73.5 -26.5t80 -8q53 0 106.5 10t104.5 27l-33 -123q-49 -10 -99 -15.5t-101 -5.5q-55 0 -121 8.5t-121 37t-92 81 t-37 142.5q0 106 55 168.5t137 99.5t179.5 57.5t179.5 45t137 61.5t55 106q0 45 -23.5 74t-58 45.5t-75.5 21.5t-78 5q-98 0 -191.5 -20.5t-183.5 -59.5l18 133q94 25 187.5 39t191.5 14q127 0 203 -22.5t117 -59t54 -84t13 -96.5q0 -57 -5 -153.5t-10 -205.5l-10 -220 q-5 -111 -5 -195h-181zM582 1337l-119 -168h-115l105 242h260l117 -242h-117z"/>
            <glyph unicode="&#xe3;" horiz-adv-x="1083"
                   d="M784 0q8 59 13.5 131t9.5 149.5t7 157.5t7 156q-33 -33 -88 -55.5t-120 -39.5l-131 -37q-67 -19 -120 -47t-86.5 -68t-33.5 -99q0 -47 21.5 -79t54 -50.5t73.5 -26.5t80 -8q53 0 106.5 10t104.5 27l-33 -123q-49 -10 -99 -15.5t-101 -5.5q-55 0 -121 8.5t-121 37t-92 81 t-37 142.5q0 106 55 168.5t137 99.5t179.5 57.5t179.5 45t137 61.5t55 106q0 45 -23.5 74t-58 45.5t-75.5 21.5t-78 5q-98 0 -191.5 -20.5t-183.5 -59.5l18 133q94 25 187.5 39t191.5 14q127 0 203 -22.5t117 -59t54 -84t13 -96.5q0 -57 -5 -153.5t-10 -205.5l-10 -220 q-5 -111 -5 -195h-181zM291 1186q0 33 4 73.5t18.5 74.5t41 57.5t71.5 23.5q41 0 80 -22.5t78 -49.5q39 -29 74 -50t63 -21q23 0 35 14t18.5 34.5t7.5 43t1 39.5h102q0 -37 -4 -79t-18.5 -77t-42 -58.5t-74.5 -23.5q-41 0 -82 22.5t-78 51.5q-39 27 -73.5 48.5t-63.5 21.5 q-23 0 -34 -13.5t-16 -33t-6 -41t-3 -35.5h-99z"/>
            <glyph unicode="&#xe4;" horiz-adv-x="1083"
                   d="M784 0q8 59 13.5 131t9.5 149.5t7 157.5t7 156q-33 -33 -88 -55.5t-120 -39.5l-131 -37q-67 -19 -120 -47t-86.5 -68t-33.5 -99q0 -47 21.5 -79t54 -50.5t73.5 -26.5t80 -8q53 0 106.5 10t104.5 27l-33 -123q-49 -10 -99 -15.5t-101 -5.5q-55 0 -121 8.5t-121 37t-92 81 t-37 142.5q0 106 55 168.5t137 99.5t179.5 57.5t179.5 45t137 61.5t55 106q0 45 -23.5 74t-58 45.5t-75.5 21.5t-78 5q-98 0 -191.5 -20.5t-183.5 -59.5l18 133q94 25 187.5 39t191.5 14q127 0 203 -22.5t117 -59t54 -84t13 -96.5q0 -57 -5 -153.5t-10 -205.5l-10 -220 q-5 -111 -5 -195h-181zM547 1389l-6 -156h-178l6 156h178zM858 1389l-6 -156h-178l6 156h178z"/>
            <glyph unicode="&#xe5;" horiz-adv-x="1083"
                   d="M784 0q8 59 13.5 131t9.5 149.5t7 157.5t7 156q-33 -33 -88 -55.5t-120 -39.5l-131 -37q-67 -19 -120 -47t-86.5 -68t-33.5 -99q0 -47 21.5 -79t54 -50.5t73.5 -26.5t80 -8q53 0 106.5 10t104.5 27l-33 -123q-49 -10 -99 -15.5t-101 -5.5q-55 0 -121 8.5t-121 37t-92 81 t-37 142.5q0 106 55 168.5t137 99.5t179.5 57.5t179.5 45t137 61.5t55 106q0 45 -23.5 74t-58 45.5t-75.5 21.5t-78 5q-98 0 -191.5 -20.5t-183.5 -59.5l18 133q94 25 187.5 39t191.5 14q127 0 203 -22.5t117 -59t54 -84t13 -96.5q0 -57 -5 -153.5t-10 -205.5l-10 -220 q-5 -111 -5 -195h-181zM506 1323q0 -43 29.5 -72.5t74.5 -29.5q43 0 73 29.5t30 72.5t-30 71.5t-73 28.5q-45 0 -74.5 -28.5t-29.5 -71.5zM416 1323q0 78 55 132t139 54q82 0 137.5 -54t55.5 -132t-55.5 -133t-137.5 -55q-84 0 -139 55t-55 133z"/>
            <glyph unicode="&#xe6;" horiz-adv-x="1705"
                   d="M1520 635q0 147 -62.5 221t-195.5 74q-68 0 -119 -23.5t-89 -63.5t-61.5 -93.5t-31.5 -114.5h559zM956 528v-53q0 -168 87 -269.5t235 -101.5q92 0 167 16.5t144 39.5l-28 -152q-66 -14 -135.5 -22.5t-147.5 -8.5q-119 0 -201 33t-135 85t-84 113.5t-45 119t-17 101.5 t-3 63q0 31 3 60.5t7 57.5l-4 4q-25 -41 -75 -66.5t-111.5 -47t-127 -41t-120 -46t-89 -65.5t-34.5 -96q0 -49 22.5 -82t56 -51.5t75.5 -26.5t83 -8q55 0 119 14.5t117 34.5l-31 -121q-61 -16 -123.5 -25.5t-126.5 -9.5q-78 0 -142.5 14.5t-112.5 46.5t-74.5 82t-26.5 122 q0 106 53 169.5t132 101.5t172 59.5t172 46t132.5 61.5t53.5 104q0 45 -20.5 74t-51.5 45.5t-68 21.5t-67 5q-98 0 -191.5 -20.5t-183.5 -59.5l18 133q94 25 187.5 39t191.5 14q31 0 79 -6t96 -25.5t87 -55.5t54 -95q117 182 348 182q90 0 165.5 -27.5t130 -78.5t85 -126 t30.5 -167q0 -53 -6 -109h-721z"/>
            <glyph unicode="&#xe7;" horiz-adv-x="964"
                   d="M924 858q-66 23 -134.5 37t-154.5 14q-88 0 -152.5 -33.5t-107.5 -93t-64.5 -138.5t-21.5 -167q0 -178 91 -275.5t271 -97.5q59 0 119.5 13.5t120.5 32.5l-25 -144q-133 -29 -260 -29q-240 0 -365.5 130.5t-125.5 367.5q0 119 29.5 221.5t93 178t162 118.5t235.5 43 q72 0 141.5 -9t136.5 -30zM332 -350l209 248h135l-125 -248h-219z"/>
            <glyph unicode="&#xe8;" horiz-adv-x="1083"
                   d="M897 635q0 63 -15.5 116.5t-47 93.5t-80.5 62.5t-117 22.5q-141 0 -227 -80t-109 -215h596zM289 528v-57q0 -178 102.5 -272.5t276.5 -94.5q78 0 157.5 19.5t153.5 44.5l-29 -150q-158 -41 -309 -41q-158 0 -259 44.5t-160.5 116t-83 161.5t-23.5 184q0 117 32.5 218.5 t96 176t159 116.5t218.5 42q201 0 320.5 -103.5t119.5 -311.5q0 -37 -6 -93h-766zM604 1411l101 -287h-135l-189 287h223z"/>
            <glyph unicode="&#xe9;" horiz-adv-x="1083"
                   d="M897 635q0 63 -15.5 116.5t-47 93.5t-80.5 62.5t-117 22.5q-141 0 -227 -80t-109 -215h596zM289 528v-57q0 -178 102.5 -272.5t276.5 -94.5q78 0 157.5 19.5t153.5 44.5l-29 -150q-158 -41 -309 -41q-158 0 -259 44.5t-160.5 116t-83 161.5t-23.5 184q0 117 32.5 218.5 t96 176t159 116.5t218.5 42q201 0 320.5 -103.5t119.5 -311.5q0 -37 -6 -93h-766zM854 1411l-188 -287h-135l100 287h223z"/>
            <glyph unicode="&#xea;" horiz-adv-x="1083"
                   d="M897 635q0 63 -15.5 116.5t-47 93.5t-80.5 62.5t-117 22.5q-141 0 -227 -80t-109 -215h596zM289 528v-57q0 -178 102.5 -272.5t276.5 -94.5q78 0 157.5 19.5t153.5 44.5l-29 -150q-158 -41 -309 -41q-158 0 -259 44.5t-160.5 116t-83 161.5t-23.5 184q0 117 32.5 218.5 t96 176t159 116.5t218.5 42q201 0 320.5 -103.5t119.5 -311.5q0 -37 -6 -93h-766zM643 1337l-119 -168h-115l105 242h260l117 -242h-117z"/>
            <glyph unicode="&#xeb;" horiz-adv-x="1083"
                   d="M897 635q0 63 -15.5 116.5t-47 93.5t-80.5 62.5t-117 22.5q-141 0 -227 -80t-109 -215h596zM289 528v-57q0 -178 102.5 -272.5t276.5 -94.5q78 0 157.5 19.5t153.5 44.5l-29 -150q-158 -41 -309 -41q-158 0 -259 44.5t-160.5 116t-83 161.5t-23.5 184q0 117 32.5 218.5 t96 176t159 116.5t218.5 42q201 0 320.5 -103.5t119.5 -311.5q0 -37 -6 -93h-766zM547 1389l-6 -156h-178l6 156h178zM858 1389l-6 -156h-178l6 156h178z"/>
            <glyph unicode="&#xec;" horiz-adv-x="464"
                   d="M369 1014q-18 -256 -27.5 -507t-11.5 -507h-189q20 256 30.5 507t14.5 507h183zM297 1411l101 -287h-135l-189 287h223z"/>
            <glyph unicode="&#xed;" horiz-adv-x="464"
                   d="M369 1014q-18 -256 -27.5 -507t-11.5 -507h-189q20 256 30.5 507t14.5 507h183zM465 1411l-188 -287h-135l100 287h223z"/>
            <glyph unicode="&#xee;" horiz-adv-x="464"
                   d="M369 1014q-18 -256 -27.5 -507t-11.5 -507h-189q20 256 30.5 507t14.5 507h183zM275 1337l-119 -168h-115l105 242h260l117 -242h-117z"/>
            <glyph unicode="&#xef;" horiz-adv-x="464"
                   d="M369 1014q-18 -256 -27.5 -507t-11.5 -507h-189q20 256 30.5 507t14.5 507h183zM239 1389l-6 -156h-178l6 156h178zM550 1389l-6 -156h-178l6 156h178z"/>
            <glyph unicode="&#xf0;"
                   d="M639 909q-90 0 -155.5 -33.5t-108.5 -92t-64.5 -137.5t-21.5 -171q0 -78 19.5 -145.5t61.5 -117.5t105.5 -79t149.5 -29q98 0 165.5 35t109.5 95.5t61.5 139.5t19.5 167q0 170 -82 269t-260 99zM1122 1444l84 -53l-272 -103q43 -35 83 -92t70.5 -135t49 -175.5 t18.5 -209.5q0 -172 -29.5 -291t-78 -196.5t-108.5 -119.5t-119.5 -62.5t-112 -25t-86.5 -4.5q-115 0 -209.5 35t-160 100.5t-101 159t-35.5 209.5q0 125 35.5 227.5t105.5 175t170 112.5t227 40q88 0 168 -29.5t158 -103.5h6q-23 104 -72 185t-129 143l-264 -96l-78 55 l254 94q-53 29 -107 48.5t-116 37.5l178 66q53 -16 105.5 -38t103.5 -52z"/>
            <glyph unicode="&#xf1;" horiz-adv-x="1234"
                   d="M356 817l4 4q61 121 166 168t240 47q80 0 150.5 -16t122 -53t81 -98.5t29.5 -149.5q0 -18 -2 -67l-5 -114q-3 -67 -6 -143l-7 -149q-3 -74 -6 -139.5t-3 -106.5h-178q2 45 8 128t11.5 178t9.5 189.5t4 161.5q0 131 -74 186.5t-201 55.5q-129 0 -218 -72.5t-117 -199.5 q-14 -68 -22.5 -160t-12.5 -183t-5 -168t-1 -116h-183q18 256 32.5 507t19.5 507h176zM366 1186q0 33 4 73.5t18.5 74.5t41 57.5t71.5 23.5q41 0 80 -22.5t78 -49.5q39 -29 74 -50t63 -21q23 0 35 14t18.5 34.5t7.5 43t1 39.5h102q0 -37 -4 -79t-18.5 -77t-42 -58.5 t-74.5 -23.5q-41 0 -82 22.5t-78 51.5q-39 27 -73.5 48.5t-63.5 21.5q-23 0 -34 -13.5t-16 -33t-6 -41t-3 -35.5h-99z"/>
            <glyph unicode="&#xf2;"
                   d="M639 909q-90 0 -155.5 -33.5t-108.5 -92t-64.5 -137.5t-21.5 -171q0 -78 19.5 -145.5t61.5 -117.5t105.5 -79t149.5 -29q98 0 165.5 35t109.5 95.5t61.5 139.5t19.5 167q0 170 -82 269t-260 99zM653 1036q117 0 209 -33.5t157.5 -98t100.5 -157t35 -208.5 q0 -98 -27.5 -198.5t-90 -181.5t-165 -131.5t-251.5 -50.5q-115 0 -209.5 35t-160 100.5t-101 159t-35.5 209.5q0 125 35.5 227.5t105.5 175t170 112.5t227 40zM663 1411l101 -287h-135l-189 287h223z"/>
            <glyph unicode="&#xf3;"
                   d="M639 909q-90 0 -155.5 -33.5t-108.5 -92t-64.5 -137.5t-21.5 -171q0 -78 19.5 -145.5t61.5 -117.5t105.5 -79t149.5 -29q98 0 165.5 35t109.5 95.5t61.5 139.5t19.5 167q0 170 -82 269t-260 99zM653 1036q117 0 209 -33.5t157.5 -98t100.5 -157t35 -208.5 q0 -98 -27.5 -198.5t-90 -181.5t-165 -131.5t-251.5 -50.5q-115 0 -209.5 35t-160 100.5t-101 159t-35.5 209.5q0 125 35.5 227.5t105.5 175t170 112.5t227 40zM831 1411l-188 -287h-135l100 287h223z"/>
            <glyph unicode="&#xf4;"
                   d="M639 909q-90 0 -155.5 -33.5t-108.5 -92t-64.5 -137.5t-21.5 -171q0 -78 19.5 -145.5t61.5 -117.5t105.5 -79t149.5 -29q98 0 165.5 35t109.5 95.5t61.5 139.5t19.5 167q0 170 -82 269t-260 99zM653 1036q117 0 209 -33.5t157.5 -98t100.5 -157t35 -208.5 q0 -98 -27.5 -198.5t-90 -181.5t-165 -131.5t-251.5 -50.5q-115 0 -209.5 35t-160 100.5t-101 159t-35.5 209.5q0 125 35.5 227.5t105.5 175t170 112.5t227 40zM641 1337l-119 -168h-115l105 242h260l117 -242h-117z"/>
            <glyph unicode="&#xf5;"
                   d="M639 909q-90 0 -155.5 -33.5t-108.5 -92t-64.5 -137.5t-21.5 -171q0 -78 19.5 -145.5t61.5 -117.5t105.5 -79t149.5 -29q98 0 165.5 35t109.5 95.5t61.5 139.5t19.5 167q0 170 -82 269t-260 99zM653 1036q117 0 209 -33.5t157.5 -98t100.5 -157t35 -208.5 q0 -98 -27.5 -198.5t-90 -181.5t-165 -131.5t-251.5 -50.5q-115 0 -209.5 35t-160 100.5t-101 159t-35.5 209.5q0 125 35.5 227.5t105.5 175t170 112.5t227 40zM350 1186q0 33 4 73.5t18.5 74.5t41 57.5t71.5 23.5q41 0 80 -22.5t78 -49.5q39 -29 74 -50t63 -21q23 0 35 14 t18.5 34.5t7.5 43t1 39.5h102q0 -37 -4 -79t-18.5 -77t-42 -58.5t-74.5 -23.5q-41 0 -82 22.5t-78 51.5q-39 27 -73.5 48.5t-63.5 21.5q-23 0 -34 -13.5t-16 -33t-6 -41t-3 -35.5h-99z"/>
            <glyph unicode="&#xf6;"
                   d="M639 909q-90 0 -155.5 -33.5t-108.5 -92t-64.5 -137.5t-21.5 -171q0 -78 19.5 -145.5t61.5 -117.5t105.5 -79t149.5 -29q98 0 165.5 35t109.5 95.5t61.5 139.5t19.5 167q0 170 -82 269t-260 99zM653 1036q117 0 209 -33.5t157.5 -98t100.5 -157t35 -208.5 q0 -98 -27.5 -198.5t-90 -181.5t-165 -131.5t-251.5 -50.5q-115 0 -209.5 35t-160 100.5t-101 159t-35.5 209.5q0 125 35.5 227.5t105.5 175t170 112.5t227 40zM606 1389l-6 -156h-178l6 156h178zM917 1389l-6 -156h-178l6 156h178z"/>
            <glyph unicode="&#xf7;"
                   d="M94 424l6 164h1012l-6 -164h-1012zM520 825l8 187h195l-10 -187h-193zM485 0l9 186h194l-10 -186h-193z"/>
            <glyph unicode="&#xf8;"
                   d="M979 938q86 -63 131 -169.5t45 -229.5q0 -98 -27.5 -198.5t-91 -181.5t-166 -131.5t-249.5 -50.5q-109 0 -201 35l-76 -127h-156l113 185q-88 66 -137 172t-49 239q0 125 35.5 227.5t105.5 175t170 112.5t227 40q121 0 211 -37l76 123h150zM481 133q29 -16 73 -22.5 t71 -6.5q98 0 165.5 35t109.5 95.5t61.5 139.5t19.5 167q0 84 -20.5 151.5t-65.5 116.5zM799 881q-66 29 -160 28q-90 0 -155.5 -33.5t-108.5 -92t-64.5 -137.5t-21.5 -171q0 -84 23.5 -154.5t70.5 -121.5z"/>
            <glyph unicode="&#xf9;" horiz-adv-x="1218"
                   d="M922 188l-4 -4q-29 -59 -70 -98t-92 -63.5t-109.5 -35t-120.5 -10.5q-84 0 -153.5 17.5t-121.5 56.5t-81 102.5t-29 153.5q0 55 5.5 139t10.5 182l10 197q5 100 5 189h178q-8 -164 -21.5 -327t-13.5 -329q0 -129 73 -186t185 -57q166 0 250 89t105 236q8 57 12 130t7 150 t4 152.5t3 141.5h176l-30.5 -507t-16.5 -507h-168zM671 1411l101 -287h-135l-189 287h223z"/>
            <glyph unicode="&#xfa;" horiz-adv-x="1218"
                   d="M922 188l-4 -4q-29 -59 -70 -98t-92 -63.5t-109.5 -35t-120.5 -10.5q-84 0 -153.5 17.5t-121.5 56.5t-81 102.5t-29 153.5q0 55 5.5 139t10.5 182l10 197q5 100 5 189h178q-8 -164 -21.5 -327t-13.5 -329q0 -129 73 -186t185 -57q166 0 250 89t105 236q8 57 12 130t7 150 t4 152.5t3 141.5h176l-30.5 -507t-16.5 -507h-168zM839 1411l-188 -287h-135l100 287h223z"/>
            <glyph unicode="&#xfb;" horiz-adv-x="1218"
                   d="M922 188l-4 -4q-29 -59 -70 -98t-92 -63.5t-109.5 -35t-120.5 -10.5q-84 0 -153.5 17.5t-121.5 56.5t-81 102.5t-29 153.5q0 55 5.5 139t10.5 182l10 197q5 100 5 189h178q-8 -164 -21.5 -327t-13.5 -329q0 -129 73 -186t185 -57q166 0 250 89t105 236q8 57 12 130t7 150 t4 152.5t3 141.5h176l-30.5 -507t-16.5 -507h-168zM650 1337l-119 -168h-115l105 242h260l117 -242h-117z"/>
            <glyph unicode="&#xfc;" horiz-adv-x="1218"
                   d="M922 188l-4 -4q-29 -59 -70 -98t-92 -63.5t-109.5 -35t-120.5 -10.5q-84 0 -153.5 17.5t-121.5 56.5t-81 102.5t-29 153.5q0 55 5.5 139t10.5 182l10 197q5 100 5 189h178q-8 -164 -21.5 -327t-13.5 -329q0 -129 73 -186t185 -57q166 0 250 89t105 236q8 57 12 130t7 150 t4 152.5t3 141.5h176l-30.5 -507t-16.5 -507h-168zM614 1389l-6 -156h-178l6 156h178zM925 1389l-6 -156h-178l6 156h178z"/>
            <glyph unicode="&#xfd;" horiz-adv-x="1003"
                   d="M47 1014h189q57 -225 135 -441.5t137 -433.5h4l365 875h182l-545 -1207q-27 -57 -55.5 -110t-69.5 -93t-99.5 -64.5t-144.5 -24.5t-172 22l-16 146q39 -18 79 -29.5t75 -11.5q37 0 71.5 8t71.5 42t76 100.5t86 180.5zM731 1411l-188 -287h-135l100 287h223z"/>
            <glyph unicode="&#xfe;" horiz-adv-x="1214"
                   d="M358 858q-2 -84 -7 -172t-5 -205q0 -182 82 -279.5t229 -97.5q90 0 155 39t104.5 102.5t58 142.5t18.5 157q0 174 -89 269t-265 95q-72 0 -142.5 -14t-138.5 -37zM135 -451q8 111 17 266l17 327q9 173 17.5 354.5t14.5 346.5t10 301t4 222h184q-10 -92 -15 -184t-9 -185 q74 16 148.5 27.5t150.5 11.5q98 0 188 -24.5t157.5 -81t107.5 -150.5t40 -233q0 -113 -28.5 -215.5t-87 -181t-149.5 -126t-214 -47.5q-109 0 -201 49.5t-151 151.5h-4q0 -135 -7.5 -283.5t-7.5 -345.5h-182z"/>
            <glyph unicode="&#xff;" horiz-adv-x="1003"
                   d="M47 1014h189q57 -225 135 -441.5t137 -433.5h4l365 875h182l-545 -1207q-27 -57 -55.5 -110t-69.5 -93t-99.5 -64.5t-144.5 -24.5t-172 22l-16 146q39 -18 79 -29.5t75 -11.5q37 0 71.5 8t71.5 42t76 100.5t86 180.5zM508 1389l-6 -156h-178l6 156h178zM819 1389l-6 -156 h-178l6 156h178z"/>
            <glyph unicode="&#x131;" horiz-adv-x="464"
                   d="M369 1014q-18 -256 -27.5 -507t-11.5 -507h-189q20 256 30.5 507t14.5 507h183z"/>
            <glyph unicode="&#x152;" horiz-adv-x="2111"
                   d="M1147 1231q-76 4 -155 10t-173 6q-131 0 -231.5 -46t-168 -127t-102 -188.5t-34.5 -230.5q0 -121 33.5 -220t99 -169.5t165 -108.5t228.5 -38q74 0 146.5 5t144.5 9zM1307 760h348q41 0 112.5 2t161.5 8l-6 -147q-27 2 -47.5 3t-44.5 1h-55h-76h-402l-20 -494h319h86 q41 0 85 1t93.5 4t108.5 7l-2 -145h-821q-41 0 -84 -2t-88 -6q-43 -4 -88 -7t-92 -3q-164 0 -293 45t-220.5 132t-139.5 213t-48 285q0 141 41 272.5t130 233t229.5 161.5t341.5 60q25 0 59.5 -2t75.5 -6t90 -7t102 -3h860l-6 -141q-76 4 -151.5 6t-151.5 2h-389z"/>
            <glyph unicode="&#x153;" horiz-adv-x="1929"
                   d="M1743 635q0 141 -62.5 217t-205.5 76q-135 0 -216 -83t-104 -210h588zM639 909q-90 0 -155.5 -33.5t-108.5 -92t-64.5 -137.5t-21.5 -171q0 -78 19.5 -145.5t61.5 -117.5t105.5 -79t149.5 -29q98 0 165.5 35t109.5 95.5t61.5 139.5t19.5 167q0 170 -82 269t-260 99z M1145 528v-61q0 -74 24.5 -139.5t70.5 -115.5t109.5 -79t141.5 -29q96 0 173 20.5t151 43.5l-25 -150q-78 -16 -154.5 -28.5t-154.5 -12.5q-72 0 -138.5 16.5t-123 50.5t-99.5 85t-67 121q-61 -137 -171 -205t-261 -68q-115 0 -209.5 35t-160 100.5t-101 159t-35.5 209.5 q0 125 35.5 227.5t105.5 175t170 112.5t227 40q66 0 130.5 -15t119.5 -48t99.5 -83t68.5 -120q57 133 162.5 198.5t253.5 65.5q197 0 308.5 -107.5t111.5 -305.5q0 -20 -1 -42t-3 -51h-758z"/>
            <glyph unicode="&#x178;" horiz-adv-x="1075"
                   d="M649 586l-22 -586h-197q12 150 22.5 298t16.5 300l-438 768h209q78 -160 166 -310.5t165 -307.5l199 306l195 312h209zM543 1680l-6 -156h-178l6 156h178zM854 1680l-6 -156h-178l6 156h178z"/>
            <glyph unicode="&#x2c6;" horiz-adv-x="749" d="M414 1337l-119 -168h-115l105 242h260l117 -242h-117z"/>
            <glyph unicode="&#x2da;" horiz-adv-x="645"
                   d="M287 1323q0 -43 29.5 -72.5t74.5 -29.5q43 0 73 29.5t30 72.5t-30 71.5t-73 28.5q-45 0 -74.5 -28.5t-29.5 -71.5zM197 1323q0 78 55 132t139 54q82 0 137.5 -54t55.5 -132t-55.5 -133t-137.5 -55q-84 0 -139 55t-55 133z"/>
            <glyph unicode="&#x2dc;" horiz-adv-x="864"
                   d="M180 1186q0 33 4 73.5t18.5 74.5t41 57.5t71.5 23.5q41 0 80 -22.5t78 -49.5q39 -29 74 -50t63 -21q23 0 35 14t18.5 34.5t7.5 43t1 39.5h102q0 -37 -4 -79t-18.5 -77t-42 -58.5t-74.5 -23.5q-41 0 -82 22.5t-78 51.5q-39 27 -73.5 48.5t-63.5 21.5q-23 0 -34 -13.5 t-16 -33t-6 -41t-3 -35.5h-99z"/>
            <glyph unicode="&#x2000;" horiz-adv-x="909"/>
            <glyph unicode="&#x2001;" horiz-adv-x="1820"/>
            <glyph unicode="&#x2002;" horiz-adv-x="909"/>
            <glyph unicode="&#x2003;" horiz-adv-x="1820"/>
            <glyph unicode="&#x2004;" horiz-adv-x="606"/>
            <glyph unicode="&#x2005;" horiz-adv-x="454"/>
            <glyph unicode="&#x2006;" horiz-adv-x="303"/>
            <glyph unicode="&#x2007;" horiz-adv-x="303"/>
            <glyph unicode="&#x2008;" horiz-adv-x="227"/>
            <glyph unicode="&#x2009;" horiz-adv-x="362"/>
            <glyph unicode="&#x200a;" horiz-adv-x="100"/>
            <glyph unicode="&#x2010;" horiz-adv-x="509" d="M27 444l6 138h504l-7 -138h-503z"/>
            <glyph unicode="&#x2011;" horiz-adv-x="509" d="M27 444l6 138h504l-7 -138h-503z"/>
            <glyph unicode="&#x2012;" horiz-adv-x="509" d="M27 444l6 138h504l-7 -138h-503z"/>
            <glyph unicode="&#x2013;" horiz-adv-x="1024" d="M27 444l6 138h1024l-6 -138h-1024z"/>
            <glyph unicode="&#x2014;" horiz-adv-x="2048" d="M27 444l6 138h2048l-6 -138h-2048z"/>
            <glyph unicode="&#x2018;" horiz-adv-x="419" d="M125 1030l199 336h98l-111 -336h-186z"/>
            <glyph unicode="&#x2019;" horiz-adv-x="419" d="M129 1030l111 336h186l-201 -336h-96z"/>
            <glyph unicode="&#x201a;" horiz-adv-x="419" d="M55 -188l111 335h186l-200 -335h-97z"/>
            <glyph unicode="&#x201c;" horiz-adv-x="729"
                   d="M125 1030l199 336h98l-111 -336h-186zM434 1030l199 336h98l-110 -336h-187z"/>
            <glyph unicode="&#x201d;" horiz-adv-x="729"
                   d="M129 1030l111 336h186l-201 -336h-96zM438 1030l111 336h186l-200 -336h-97z"/>
            <glyph unicode="&#x201e;" horiz-adv-x="729"
                   d="M55 -188l111 335h186l-200 -335h-97zM365 -188l110 335h187l-201 -335h-96z"/>
            <glyph unicode="&#x2022;"
                   d="M289 375q10 154 16 307.5t10 306.5h621q-10 -154 -16.5 -307.5t-10.5 -306.5h-620z"/>
            <glyph unicode="&#x2026;" horiz-adv-x="2048"
                   d="M1593 0l9 186h194l-10 -186h-193zM911 0l9 186h194l-10 -186h-193zM229 0l9 186h194l-10 -186h-193z"/>
            <glyph unicode="&#x202f;" horiz-adv-x="362"/>
            <glyph unicode="&#x2039;" horiz-adv-x="555"
                   d="M461 866l-162 -354l131 -350h-123l-174 350l104 176l97 178h127z"/>
            <glyph unicode="&#x203a;" horiz-adv-x="555"
                   d="M133 162l166 350l-129 354h127l81 -178q40 -88 85 -176l-105 -174q-53 -86 -102 -176h-123z"/>
            <glyph unicode="&#x205f;" horiz-adv-x="454"/>
            <glyph unicode="&#x2122;" horiz-adv-x="1822"
                   d="M1616 557q4 168 6 336t2 336h-4l-138 -336l-136 -336h-179l-95 336l-93 336h-4l-23 -336l-20 -336h-139q16 205 29.5 404.5t23.5 404.5h244q39 -164 86 -325l96 -324l139 324q68 161 129 325h225q-6 -205 -9 -404.5t-1 -404.5h-139zM285 557q10 176 17 351t11 352 q-66 0 -128 -1.5t-128 -3.5l6 111h670l-6 -111q-66 2 -130.5 3.5t-129.5 1.5q-8 -176 -14.5 -351.5t-8.5 -351.5h-159z"/>
            <glyph unicode="&#xe000;" horiz-adv-x="1014" d="M0 1015h1015v-1015h-1015v1015z"/>
            <glyph unicode="&#xfb01;" horiz-adv-x="1085"
                   d="M807 1225l4 141h193l-5 -141h-192zM989 1014q-18 -256 -27.5 -507t-11.5 -507h-188q20 256 30.5 507t14.5 507h182zM88 887l6 127h131q0 90 6.5 162.5t36 123t90 78t168.5 27.5q49 0 98.5 -7t96.5 -18l8 -131q-41 12 -87 20.5t-101 8.5q-59 0 -92 -21.5t-48.5 -57.5 t-17.5 -84t-2 -101h278l-8 -127h-270q-2 -141 -6 -254l-8 -215q-4 -102 -7.5 -202.5t-3.5 -215.5h-182q16 223 23.5 443.5l15.5 443.5h-125z"/>
            <glyph unicode="&#xfb02;" horiz-adv-x="1085"
                   d="M88 887l6 127h131q0 90 6.5 162.5t36 123t90 78t168.5 27.5q49 0 98.5 -7t96.5 -18l8 -131q-41 12 -87 20.5t-101 8.5q-59 0 -92 -21.5t-48.5 -57.5t-17.5 -84t-2 -101h278l-8 -127h-270q-2 -141 -6 -254l-8 -215q-4 -102 -7.5 -202.5t-3.5 -215.5h-182 q16 223 23.5 443.5l15.5 443.5h-125zM1006 1366q-25 -336 -37.5 -679t-22.5 -687h-184q47 682 61 1366h183z"/>
            <glyph unicode="&#xfb03;" horiz-adv-x="1677"
                   d="M1398 1225l4 141h193l-4 -141h-193zM1581 1014q-18 -256 -27.5 -507t-11.5 -507h-189q20 256 30.5 507t14.5 507h183zM694 887l6 127h131q0 90 6.5 162.5t36 123t90 78t168.5 27.5q49 0 98.5 -7t96.5 -18l8 -131q-41 12 -87 20.5t-101 8.5q-59 0 -92 -21.5t-48.5 -57.5 t-17.5 -84t-2 -101h278l-8 -127h-270q-2 -141 -6 -254l-8 -215q-4 -102 -7.5 -202.5t-3.5 -215.5h-182q16 223 23.5 443.5l15.5 443.5h-125zM88 887l6 127h131q0 90 6.5 162.5t36 123t90 78t168.5 27.5q49 0 98.5 -7t96.5 -18l8 -131q-41 12 -87 20.5t-101 8.5 q-59 0 -92 -21.5t-48.5 -57.5t-17.5 -84t-2 -101h278l-8 -127h-270q-2 -141 -6 -254l-8 -215q-4 -102 -7.5 -202.5t-3.5 -215.5h-182q16 223 23.5 443.5l15.5 443.5h-125z"/>
            <glyph unicode="&#xfb04;" horiz-adv-x="1677"
                   d="M1597 1366q-25 -336 -37 -679t-22 -687h-185q47 682 62 1366h182zM694 887l6 127h131q0 90 6.5 162.5t36 123t90 78t168.5 27.5q49 0 98.5 -7t96.5 -18l8 -131q-41 12 -87 20.5t-101 8.5q-59 0 -92 -21.5t-48.5 -57.5t-17.5 -84t-2 -101h278l-8 -127h-270 q-2 -141 -6 -254l-8 -215q-4 -102 -7.5 -202.5t-3.5 -215.5h-182q16 223 23.5 443.5l15.5 443.5h-125zM88 887l6 127h131q0 90 6.5 162.5t36 123t90 78t168.5 27.5q49 0 98.5 -7t96.5 -18l8 -131q-41 12 -87 20.5t-101 8.5q-59 0 -92 -21.5t-48.5 -57.5t-17.5 -84t-2 -101 h278l-8 -127h-270q-2 -141 -6 -254l-8 -215q-4 -102 -7.5 -202.5t-3.5 -215.5h-182q16 223 23.5 443.5l15.5 443.5h-125z"/>
        </font>
</defs>
</svg>
