<?xml version="1.0" standalone="no"?>
<!DOCTYPE svg PUBLIC "-//W3C//DTD SVG 1.1//EN" "http://www.w3.org/Graphics/SVG/1.1/DTD/svg11.dtd" >
<svg xmlns="http://www.w3.org/2000/svg">
    <metadata>
        This is a custom SVG webfont generated by Font Squirrel.
        Copyright : Copyright c 2004 CDAC GIST PUNE INDIA ISFOCDEVANAGARIOPEN TYPESUREKHBOLDTHIS FONT IS NOT TO BE USED
        FOR COMMERCIAL PURPOSE FOR COMMERCIAL LICENSE CONTACT CDAC GIST
    </metadata>
    <defs>
        <font id="webfontlufwLHjW" horiz-adv-x="0">
            <font-face units-per-em="2048" ascent="1638" descent="-410"/>
            <missing-glyph horiz-adv-x="784"/>
            <glyph unicode=" " horiz-adv-x="784"/>
            <glyph unicode="&#x09;" horiz-adv-x="784"/>
            <glyph unicode="&#xa0;" horiz-adv-x="784"/>
            <glyph unicode="!" horiz-adv-x="785"
                   d="M538 1479q0 -21 -3 -60.5t-3 -59.5l-105 -893h-66l-105 893q0 20 -3 59.5t-3 60.5q0 206 144 206t144 -206zM548 168q0 -66 -46 -108.5t-111 -42.5q-60 0 -105.5 44t-45.5 107q0 65 44 112.5t110 47.5t110 -47.5t44 -112.5z"/>
            <glyph unicode="&#x22;" horiz-adv-x="962"
                   d="M812 1580l-82 -481h-74l-83 481q-1 8 -1 16q0 44 37 76t85 32q46 0 82.5 -32t36.5 -76q0 -8 -1 -16zM389 1580l-79 -482l-80 5l-87 477q-1 7 -1 14q0 43 39.5 76.5t86.5 33.5q46 0 84 -34t38 -77q0 -6 -1 -13z"/>
            <glyph unicode="#" horiz-adv-x="1179"
                   d="M1187 1002h-247l-44 -273h230v-169h-254l-78 -510h-175l74 510h-273l-81 -510h-179l78 510h-250v169h277l44 273h-256v176h280l74 474h176l-71 -474h270l74 474h175l-67 -474h223v-176zM758 1002h-270l-44 -273h273z"/>
            <glyph unicode="$" horiz-adv-x="1179"
                   d="M1097 488q0 -193 -135 -311q-121 -107 -317 -129v-202h-124v201q-225 8 -436 132v338l63 -6q65 -335 373 -353v631q-192 110 -277 192q-140 133 -140 291q0 171 128 277q115 94 289 106v149h124v-149q208 -14 374 -136l4 -287h-70q-24 134 -106 217.5t-202 99.5v-545 q225 -121 305 -194q147 -135 147 -322zM518 1076v473q-68 -14 -129 -72q-70 -68 -70 -150q0 -83 66 -150q23 -23 133 -101zM873 426q0 167 -228 295v-561q104 20 166 90t62 176z"/>
            <glyph unicode="%" horiz-adv-x="1967"
                   d="M1840 652q0 -270 -160 -460q-146 -175 -320 -175q-319 0 -319 345q0 201 161 380q166 187 371 187q123 0 199 -89q68 -80 68 -188zM1742 639q0 70 -38 122q-42 57 -109 57q-137 0 -244 -224q-92 -192 -92 -317q0 -149 126 -149q145 0 257 184q100 165 100 327zM1527 1685 l-930 -1664l-155 -4l817 1460q-137 -47 -259 -47q-49 0 -88 9q14 -90 14 -99q0 -237 -169 -428q-159 -181 -331 -181q-302 0 -302 341q0 202 160 387q166 193 368 193q108 0 204 -81q57 -48 174 -48q220 0 345 162h152zM825 1379q0 23 -20 88q-36 13 -87 50q-39 28 -53 28 q-77 0 -190 -151q-134 -178 -134 -390q0 -160 126 -153q154 9 260 182q98 159 98 346z"/>
            <glyph unicode="&#x26;" horiz-adv-x="1834"
                   d="M1796 311q-98 -160 -170 -221q-88 -73 -208 -73q-202 0 -404 204q-223 -204 -497 -204q-205 0 -320 101t-115 289q0 182 157 349q117 123 291 214q-70 190 -70 319q0 168 106.5 282t273.5 114q141 0 235 -77q103 -84 103 -226q0 -248 -356 -417q159 -284 283 -447 q194 245 194 396q0 47 -27 68q-33 26 -121 31v81h547v-80q-104 -14 -155 -53q-47 -35 -102 -135q-41 -75 -250 -408q176 -193 330 -193q112 0 210 131zM1015 1392q0 72 -49 125.5t-120 53.5q-163 0 -163 -205q0 -104 83 -283q103 51 170 125q79 89 79 184zM922 315 q-157 197 -337 533q-124 -76 -180 -152q-70 -93 -70 -221q0 -111 88.5 -203t199.5 -92q134 0 299 135z"/>
            <glyph unicode="'" horiz-adv-x="671"
                   d="M473 1581l-94 -482h-74l-83 481q-1 7 -1 14q0 43 37 76.5t83 33.5q55 0 94.5 -30t39.5 -75q0 -9 -2 -18z"/>
            <glyph unicode="(" horiz-adv-x="785"
                   d="M740 -307l-45 -66q-597 404 -597 1058q0 633 612 1014l21 -74q-396 -285 -396 -921q0 -338 67 -540q91 -271 338 -471z"/>
            <glyph unicode=")" horiz-adv-x="785"
                   d="M690 617q0 -304 -166 -569q-160 -256 -444 -428l-30 75q400 287 400 915q0 345 -70 556q-93 281 -337 459l50 60q179 -92 344 -308q253 -333 253 -760z"/>
            <glyph unicode="*" horiz-adv-x="1179"
                   d="M1044 1393q7 -22 7 -42q0 -54 -49 -88q-42 -29 -91 -29q-8 0 -15 1q-37 6 -219 -62q128 -63 282 -93q30 -6 53.5 -37t23.5 -68q0 -38 -27 -68q-35 -39 -81 -39q-41 0 -80 29q-35 25 -48 56q-16 36 -172 151q0 -151 42 -296q3 -12 3 -25q0 -40 -23 -71q-27 -35 -71 -35 q-13 0 -27 3q-89 22 -89 117q0 56 30 91q17 19 43 213q-118 -74 -224 -194q-25 -28 -72 -28q-76 0 -102 72q-8 22 -8 42q0 51 46 85q41 30 88 30q10 0 19 -2q46 -2 223 75q-125 71 -289 103q-31 6 -54.5 37t-23.5 68q0 38 27 68q35 39 81 39q41 0 80 -30q35 -27 49 -59 q15 -35 167 -152q-7 172 -53 313q-4 11 -4 24q0 41 30 75.5t75 34.5q11 0 22 -2q92 -19 92 -120q0 -58 -29 -91q-24 -27 -45 -243q138 72 240 189q32 26 78 26q72 0 95 -68z"/>
            <glyph unicode="+" horiz-adv-x="1331" d="M1281 589h-517v-523h-198v523h-516v195h516v513h198v-513h517v-195z"/>
            <glyph unicode="," horiz-adv-x="588"
                   d="M496 78q0 -96 -94 -212q-89 -109 -199 -164l-39 82q70 38 133 112q66 78 66 130q0 17 -14 17q17 0 -74 -13q-145 19 -145 138q0 160 161 160q106 0 161 -86q44 -68 44 -164z"/>
            <glyph unicode="-" horiz-adv-x="785" d="M703 508h-618v185h618v-185z"/>
            <glyph unicode="." horiz-adv-x="588"
                   d="M451 171q0 -69 -45 -111.5t-112 -42.5q-64 0 -107.5 45.5t-43.5 108.5t42.5 110t108.5 47q67 0 112 -44t45 -113z"/>
            <glyph unicode="/" horiz-adv-x="688" d="M741 1705l-617 -1907l-177 -4l607 1903z"/>
            <glyph unicode="0" horiz-adv-x="1179"
                   d="M1145 843q0 -306 -119 -534q-153 -292 -448 -292q-254 0 -402 245q-139 231 -139 597q0 313 116 538q148 288 435 288q267 0 417 -245q140 -228 140 -597zM876 840q0 744 -272 744q-298 0 -298 -773q0 -693 288 -693q170 0 235 222q47 162 47 500z"/>
            <glyph unicode="1" horiz-adv-x="1179"
                   d="M948 50h-685v71q141 7 186 39q37 27 37 98v1060q0 118 -58 118q-21 0 -55 -10q-29 -9 -131 -47l5 74l478 244v-1439q0 -71 37 -98q45 -32 186 -39v-71z"/>
            <glyph unicode="2" horiz-adv-x="1179"
                   d="M1146 401l-148 -348l-952 -3v63l411 424q322 332 322 619q0 146 -85.5 232t-231.5 86q-217 0 -333 -302l-79 10q43 236 174 366q138 137 357 137q181 0 309.5 -126t128.5 -306q0 -166 -81 -314q-71 -129 -242 -310l-338 -356h446q127 0 165 20q44 24 117 140z"/>
            <glyph unicode="3" horiz-adv-x="1179"
                   d="M1035 575q0 -263 -205 -418q-184 -140 -452 -140q-293 0 -293 154q0 45 31.5 72t74.5 27q60 0 163.5 -66t171.5 -66q136 0 221 97q81 92 81 230q0 191 -109 277q-114 89 -376 89v62q388 122 388 379q0 107 -65.5 170.5t-171.5 63.5q-200 0 -341 -247l-72 15 q137 411 487 411q189 0 291 -92q96 -88 96 -240q0 -184 -199 -330q279 -136 279 -448z"/>
            <glyph unicode="4" horiz-adv-x="1179"
                   d="M1132 440h-239v-390h-223v390h-662v178l746 1067h136v-1050h242v-195zM673 635v725l-509 -725h509z"/>
            <glyph unicode="5" horiz-adv-x="1179"
                   d="M1048 1681l-118 -249l-488 -3l-78 -168q319 -55 466 -174q196 -158 196 -483q0 -267 -194 -431q-184 -156 -464 -156q-290 0 -312 145q-2 11 -2 21q0 103 127 103q80 0 177 -74t152 -74q138 0 226 115q85 112 85 277q0 240 -212 370q-169 105 -434 122q-45 13 -45 41 q0 8 6 17l265 569l474 3q51 0 71 10q26 12 69 64z"/>
            <glyph unicode="6" horiz-adv-x="1179"
                   d="M1126 575q0 -230 -135 -389q-144 -169 -371 -169q-239 0 -392 183q-162 193 -162 517q0 384 239 651q235 262 610 313q125 17 145 17l25 -75l-127 -28q-72 -18 -122 -42q-364 -171 -446 -529q125 76 275 76q215 0 338 -142t123 -383zM867 602q-44 352 -292 352 q-124 0 -216 -71q-40 -39 -40 -231q0 -238 87 -381q90 -149 250 -149q101 0 161 101q58 98 58 261q0 57 -8 118z"/>
            <glyph unicode="7" horiz-adv-x="1179"
                   d="M1081 1599l-518 -1578l-190 -4l469 1418l-455 3q-116 1 -171 -39q-43 -31 -120 -156l-73 35l151 371l907 3v-53z"/>
            <glyph unicode="8" horiz-adv-x="1179"
                   d="M1065 433q0 -192 -154 -309q-140 -107 -336 -107q-193 0 -326 103q-145 114 -145 306q0 224 295 429q-171 164 -194 194q-84 112 -84 265q0 142 124 251q136 120 346 120q164 0 285 -85q137 -97 137 -260q0 -234 -301 -396q167 -127 240 -216q113 -140 113 -295z M812 1337q0 110 -67 178.5t-177 68.5q-100 0 -167 -58q-70 -61 -70 -160q0 -179 276 -354q205 122 205 325zM844 368q0 126 -121 242q-49 47 -231 174q-3 -1 -8 -5q-159 -138 -159 -327q0 -151 69 -241q75 -96 213 -96q108 0 172.5 70.5t64.5 182.5z"/>
            <glyph unicode="9" horiz-adv-x="1179"
                   d="M1074 755q-57 -206 -204 -387q-160 -197 -370 -288q-182 -79 -374 -79l-14 79q355 66 528 297q106 141 164 328q-155 -97 -307 -97q-202 0 -324.5 140t-122.5 376q0 195 114 356q145 205 411 205q160 0 289 -104q121 -96 180 -252q61 -160 61 -339q0 -124 -31 -235z M838 1046q0 209 -55 347q-75 191 -240 191q-126 0 -187 -133q-47 -102 -47 -256q0 -183 57 -300q72 -147 222 -147q58 0 131 32t110 76q9 63 9 190z"/>
            <glyph unicode=":" horiz-adv-x="656"
                   d="M483 1014q0 -68 -46 -111t-111 -43q-66 0 -110 44.5t-44 109.5q0 63 43 108.5t111 45.5q65 0 111 -44t46 -110zM483 171q0 -68 -46 -111t-111 -43q-66 0 -110 45.5t-44 108.5q0 64 43 110.5t111 46.5q65 0 111 -44.5t46 -112.5z"/>
            <glyph unicode=";" horiz-adv-x="656"
                   d="M448 1020q0 -58 -46.5 -109t-107.5 -51q-69 0 -115 52q-42 48 -42 108t46.5 104t110.5 44q62 0 108 -44t46 -104zM496 78q0 -96 -94 -212q-89 -109 -199 -164l-39 82q70 38 133 112q66 78 66 130q0 17 -14 17q17 0 -74 -13q-145 19 -145 138q0 160 161 160q101 0 157 -80 q48 -69 48 -170z"/>
            <glyph unicode="&#x3c;" horiz-adv-x="1331" d="M1288 41l-1242 573v145l1242 576l-7 -189l-981 -461l981 -459z"/>
            <glyph unicode="=" horiz-adv-x="1331" d="M1281 818h-1231v188h1231v-188zM1281 363h-1231v188h1231v-188z"/>
            <glyph unicode="&#x3e;" horiz-adv-x="1331"
                   d="M1281 614l-1238 -573l4 185l986 459l-986 462l-4 188l1238 -576v-145z"/>
            <glyph unicode="?" horiz-adv-x="1046"
                   d="M952 1292q0 -105 -60 -213q-29 -51 -128 -184q-107 -143 -142 -209q-54 -104 -73 -246h-76q2 213 115 462q111 244 111 387q0 120 -60 201q-65 87 -177 87q-68 0 -131 -29q-76 -35 -76 -92q0 -12 4 -25l56 -71q29 -41 29 -84q0 -53 -35 -86t-89 -33q-122 0 -122 180 q0 159 132 258q119 90 280 90q202 0 327 -123q115 -113 115 -270zM664 171q0 -67 -50 -112q-46 -42 -104 -42q-59 0 -108 45.5t-49 108.5t49.5 110t107.5 47q57 0 105.5 -46t48.5 -111z"/>
            <glyph unicode="@" horiz-adv-x="2173"
                   d="M1940 695q-26 -158 -187 -381q-117 -163 -316 -163q-39 0 -87 5q-52 5 -113 52q-52 40 -82 109q-91 -107 -201 -144q-79 -26 -135 -26q-38 0 -83 10q-105 25 -162 127q-51 90 -51 214q0 35 5 69q31 234 161 406q121 160 285 214q54 18 113 18q67 0 108 -22 q53 -21 110 -101l24 86l237 3l-198 -765q-10 -38 -10 -49q0 -31 31 -46q40 -20 82 -20q78 0 140 59q85 81 146 216q58 130 71 255q12 123 -24 230q-62 183 -201 318q-148 146 -330 179q-115 21 -266 -9q-302 -60 -505 -267q-190 -195 -229 -448q-13 -72 -27 -226 q-2 -134 49 -293q75 -236 264.5 -363t470.5 -127q178 0 313 42q89 28 265 118l63 -125l-304 -123l-242 -42h-172q-242 0 -491 156q-256 160 -378 401q-102 201 -102 429q0 89 20 163q26 97 107 239q106 187 230 292q273 230 581 297q189 41 355 9q271 -52 421 -197 q51 -50 111 -135q87 -125 122 -240q24 -81 24 -222q0 -102 -13 -182zM1241 894q-6 125 -89 168q-10 5 -25 5q-96 0 -210 -141q-133 -166 -133 -380v-123q0 -135 110 -135q53 0 119 48q63 45 88 95q37 55 85 191q60 169 55 272z"/>
            <glyph unicode="A" horiz-adv-x="1631"
                   d="M1608 10h-709v20q177 2 177 81q0 18 -23 93l-103 235h-538l-54 -126q-44 -102 -44 -148q0 -79 59 -108q41 -21 142 -26v-21h-483v21q100 12 174 123q28 42 99 200l522 1166h9l547 -1244q23 -55 81 -159q60 -82 144 -86v-21zM926 501l-238 545l-247 -545h485z"/>
            <glyph unicode="B" horiz-adv-x="1509"
                   d="M1434 392q0 -148 -124 -253q-170 -144 -527 -144h-724v20q147 1 185 59q27 41 27 196v930q0 154 -27 195q-38 58 -185 59v18h776q329 0 455 -164q65 -85 65 -198q0 -242 -346 -321v-22q425 -75 425 -375zM1002 1105q0 101 -51 177q-82 126 -277 126h-75v-610 q403 0 403 307zM1057 384q0 123 -57 209q-94 141 -323 141h-78v-521q0 -83 29 -117t109 -34q142 0 231 90.5t89 231.5z"/>
            <glyph unicode="C" horiz-adv-x="1634"
                   d="M1504 1009h-22q-38 180 -172 298q-139 123 -320 123q-229 0 -368.5 -188t-139.5 -491q0 -706 505 -706q270 0 493 258v-100q-224 -241 -572 -241q-362 0 -585 212q-218 208 -218 534q0 329 238.5 564.5t569.5 235.5q162 0 331 -67q106 -42 134 -42q87 0 104 109h22v-499z "/>
            <glyph unicode="D" horiz-adv-x="1634"
                   d="M1548 735q0 -309 -173 -503q-213 -237 -644 -237h-672v20q147 1 185 59q27 41 27 196v930q0 154 -27 195q-38 58 -185 59v18h697q437 0 643 -268q149 -194 149 -469zM1168 724q0 365 -141 540q-116 144 -312 144h-102v-1233q0 -113 129 -113q426 0 426 662z"/>
            <glyph unicode="E" horiz-adv-x="1509"
                   d="M1397 450l-65 -455h-1273v20q147 1 185 59q27 41 27 196v930q0 154 -27 195q-38 58 -185 59v18h1230v-423h-22q-47 234 -176 306q-96 53 -349 53h-129v-631q189 0 259 104q42 63 77 249h22v-768h-22q-18 95 -27 128q-19 75 -50 120q-71 105 -259 105v-412q0 -157 21 -193 q27 -48 144 -48q228 0 336 48q185 84 261 340h22z"/>
            <glyph unicode="F" horiz-adv-x="1381"
                   d="M1303 1049h-22q-47 234 -177 306q-96 53 -348 53h-143v-631q212 0 295 89q61 65 85 231h22v-735h-22q-24 189 -84 259q-82 94 -296 94v-445q0 -155 27 -196q38 -58 185 -59v-20h-766v20q147 1 185 59q27 41 27 196v930q0 154 -27 195q-38 58 -185 59v18h1244v-423z"/>
            <glyph unicode="G" horiz-adv-x="1762"
                   d="M1724 584q-125 -2 -157 -59q-22 -40 -22 -192v-253q-202 -118 -629 -118q-358 0 -588.5 213t-230.5 538q0 343 238 571q234 224 578 224q190 0 329 -54.5t164 -54.5q68 0 117 109h25v-508h-24q-68 195 -210 313q-153 128 -349 128q-267 0 -393 -239q-98 -185 -98 -473 q0 -703 488 -703q124 0 255 49v258q0 152 -28 193q-38 57 -187 58v21h722v-21z"/>
            <glyph unicode="H" horiz-adv-x="1762"
                   d="M1708 -5h-768v20q149 1 187 59q28 41 28 196v445h-542v-445q0 -155 27 -196q38 -58 185 -59v-20h-766v20q147 1 185 59q27 41 27 196v930q0 154 -27 195q-38 58 -185 59v18h766v-18q-147 -1 -185 -59q-27 -41 -27 -195v-407h542v407q0 154 -28 195q-38 58 -187 59v18h768 v-18q-149 -1 -187 -59q-28 -41 -28 -195v-930q0 -155 28 -196q38 -58 187 -59v-20z"/>
            <glyph unicode="I" horiz-adv-x="881"
                   d="M825 1454q-147 -1 -185 -59q-27 -41 -27 -195v-930q0 -155 27 -196q38 -58 185 -59v-20h-766v20q147 1 185 59q27 41 27 196v930q0 154 -27 195q-38 58 -185 59v18h766v-18z"/>
            <glyph unicode="J" horiz-adv-x="1131"
                   d="M1113 1454q-147 -1 -185 -59q-27 -41 -27 -195v-797q0 -441 -496 -441q-123 0 -239 86q-129 95 -129 222q0 71 43.5 117.5t115.5 46.5q57 0 99.5 -39t42.5 -95q0 -57 -35 -104q-38 -51 -38 -76q0 -43 54 -68q42 -20 89 -20q154 0 154 227v941q0 155 -29 196 q-41 57 -199 58v18h779v-18z"/>
            <glyph unicode="K" horiz-adv-x="1762"
                   d="M1773 -5h-757v20q117 4 117 76q0 48 -122 202l-333 418l-65 -56v-385q0 -154 23 -195q33 -58 159 -60v-20h-736v20q147 1 185 59q27 41 27 196v930q0 154 -27 195q-38 58 -185 59v18h728v-18q-121 -2 -152 -60q-22 -41 -22 -194v-459l546 443q142 115 142 179 q0 88 -166 91v18h565v-18q-68 -2 -132 -37q-45 -25 -139 -101l-502 -406l514 -644q106 -133 164 -181q80 -67 168 -70v-20z"/>
            <glyph unicode="L" horiz-adv-x="1509"
                   d="M1422 502l-53 -507h-1310v20q147 1 185 59q27 41 27 196v930q0 154 -27 195q-38 58 -185 59v18h779v-18q-156 -1 -196 -58q-29 -41 -29 -196v-900q0 -174 40 -208q35 -30 222 -30q230 0 323 74q103 83 198 366h26z"/>
            <glyph unicode="M" horiz-adv-x="2137"
                   d="M2083 -5h-765v20q147 1 185 59q27 41 27 196v1103l-24 -24l-564 -1354h-14l-601 1380v-1165q0 -191 215 -195v-20h-491v20q212 4 212 195v990q0 154 -27 195q-38 58 -185 59v18h598l428 -1002l411 1002h595v-18q-147 -1 -185 -59q-27 -41 -27 -195v-930q0 -155 27 -196 q38 -58 185 -59v-20z"/>
            <glyph unicode="N" horiz-adv-x="1634"
                   d="M1589 1454q-213 -4 -213 -197v-1295h-23l-1008 1240h-18v-992q0 -191 215 -195v-20h-491v20q212 4 212 195v1099q-62 80 -96 106q-49 37 -122 39v18h518l732 -918h17v703q0 193 -212 197v18h489v-18z"/>
            <glyph unicode="O" horiz-adv-x="1762"
                   d="M1670 735q0 -340 -222.5 -556.5t-563.5 -216.5q-342 0 -564.5 216.5t-222.5 556.5t223 558q222 215 564 215q341 0 562 -215q224 -218 224 -558zM1290 735q0 706 -406 706q-239 0 -341 -255q-69 -174 -69 -451t69 -452q102 -257 341 -257q237 0 338 257q68 174 68 452z "/>
            <glyph unicode="P" horiz-adv-x="1381"
                   d="M1303 1077q0 -175 -132 -281q-157 -125 -475 -125h-97v-401q0 -155 27 -196q38 -58 185 -59v-20h-752v20q147 1 185 59q27 41 27 196v930q0 154 -27 195q-38 58 -185 59v18h697q246 0 392 -99q155 -105 155 -296zM953 1083q0 325 -301 325h-53v-670h59q295 0 295 345z "/>
            <glyph unicode="Q" horiz-adv-x="1762"
                   d="M1670 735q0 -292 -169 -499q-166 -202 -437 -257q48 -152 179 -239q119 -78 260 -78q9 0 86 12v-46q-143 -41 -281 -41q-209 0 -367 99q-166 104 -240 294q-274 53 -439 259t-165 496q0 340 223 558q222 215 564 215q341 0 562 -215q224 -218 224 -558zM1290 735 q0 706 -406 706q-239 0 -341 -255q-69 -174 -69 -451t69 -452q102 -257 341 -257q237 0 338 257q68 174 68 452z"/>
            <glyph unicode="R" horiz-adv-x="1634"
                   d="M1654 -5h-455l-482 685h-118v-410q0 -155 27 -196q38 -58 185 -59v-20h-752v20q147 1 185 59q27 41 27 196v930q0 154 -27 195q-38 58 -185 59v18h816q550 0 550 -411q0 -137 -98 -236q-94 -95 -246 -124l395 -554q50 -70 78 -94q42 -35 100 -37v-21zM1076 1058 q0 350 -320 350h-157v-672h119q358 0 358 322z"/>
            <glyph unicode="S" horiz-adv-x="1256"
                   d="M1164 414q0 -201 -153 -330q-144 -122 -348 -122q-145 0 -295 64q-54 23 -88 23q-85 0 -119 -87h-23v545h22q27 -193 159 -335q144 -154 333 -154q110 0 191 58q91 65 91 172q0 98 -86 179q-54 50 -172 113q-14 8 -147 76q-188 97 -272 181q-122 123 -122 289 q0 183 134 304q130 118 315 118q137 0 271 -67q68 -34 105 -34q62 0 84 101h23v-480h-22q-23 159 -143 282q-128 131 -285 131q-108 0 -180 -49q-83 -57 -83 -162q0 -89 92 -166q52 -43 170 -104l149 -75q189 -97 276 -184q123 -123 123 -287z"/>
            <glyph unicode="T" horiz-adv-x="1509"
                   d="M1417 1087h-23q-44 189 -124 259q-71 62 -210 62h-132v-1138q0 -155 27 -196q38 -58 185 -59v-20h-766v20q149 1 187 59q28 41 28 196v1138h-135q-139 0 -210 -62q-80 -70 -124 -259h-23v385h1320v-385z"/>
            <glyph unicode="U" horiz-adv-x="1634"
                   d="M1594 1454q-142 -2 -182 -67q-30 -48 -30 -204v-655q0 -566 -577 -566q-542 0 -542 504v734q0 154 -27 195q-38 58 -185 59v18h765v-18q-147 -1 -185 -59q-27 -41 -27 -195v-810q0 -339 323 -339q199 0 299 154q81 123 81 307v671q0 155 -31 204q-41 65 -179 67v18h497 v-18z"/>
            <glyph unicode="V" horiz-adv-x="1634"
                   d="M1610 1453q-90 -16 -150 -93q-46 -61 -126 -238l-522 -1160h-22l-593 1364q-50 116 -165 128v18h700v-18q-182 -1 -182 -88q0 -34 47 -143l352 -815l330 739q52 116 52 183q0 121 -196 124v18h475v-19z"/>
            <glyph unicode="W" horiz-adv-x="2262"
                   d="M2236 1454q-88 -6 -144 -148l-30 -81l-484 -1263h-27l-382 982l-414 -982h-28l-508 1258q-21 57 -74 161q-45 69 -113 73v18h632v-18q-130 -3 -130 -94q0 -42 38 -137l317 -789l247 594l-80 205q-47 120 -85 162q-51 57 -145 59v18h705v-18q-160 -2 -160 -91 q0 -21 39 -123l295 -770l243 639q68 179 68 229q0 113 -149 116v18h369v-18z"/>
            <glyph unicode="X" horiz-adv-x="1634"
                   d="M1616 -5h-709v20q136 4 136 89q0 33 -64 128l-250 370l-218 -269q-124 -153 -124 -199q0 -116 198 -119v-20h-553v21q111 10 214 106q40 37 161 185l285 348l-436 643q-55 80 -89 111q-47 42 -105 45v18h727v-18q-78 0 -108 -13q-44 -19 -44 -75q0 -29 45 -98l230 -354 l151 181q140 170 140 241q0 115 -165 118v18h534v-18q-130 -4 -204 -93l-418 -498l401 -596q40 -63 128 -177q65 -70 137 -74v-21z"/>
            <glyph unicode="Y" horiz-adv-x="1634"
                   d="M1602 1454q-109 -6 -209 -172l-56 -96l-347 -579v-337q0 -166 31 -205q40 -49 211 -50v-20h-825v20q173 1 213 50q32 39 32 205v274l-382 680q-37 69 -116 182q-44 46 -120 48v18h698v-18q-147 -1 -147 -80q0 -28 70 -157l296 -549l308 516q72 120 72 168q0 98 -166 102 v18h437v-18z"/>
            <glyph unicode="Z" horiz-adv-x="1509"
                   d="M1460 516l-58 -521h-1346l878 1413h-366q-148 0 -264 -128q-100 -110 -115 -228h-20l39 420h1155l-881 -1410h336q236 0 367 75q181 104 255 379h20z"/>
            <glyph unicode="[" horiz-adv-x="785"
                   d="M725 -319h-537v1971h537v-101h-202q-97 0 -110 -43q-7 -22 -7 -68v-1530q0 -109 52 -124q24 -7 72 -7h195v-98z"/>
            <glyph unicode="\" horiz-adv-x="743" d="M1001 49l-219 4l-901 1652l215 -8z"/>
            <glyph unicode="]" horiz-adv-x="785"
                   d="M596 -319h-533v98h182q73 0 93 9q38 17 43 81q1 20 1 53v1460q0 108 -11 134q-15 35 -80 35h-228v101h533v-1971z"/>
            <glyph unicode="^" horiz-adv-x="1108" d="M1109 656l-215 4l-336 763l-348 -763l-211 -4l469 993h171z"/>
            <glyph unicode="_" horiz-adv-x="1179" d="M1200 -264h-1218v156h1218v-156z"/>
            <glyph unicode="`" horiz-adv-x="722" d="M540 1161h-98l-317 199q-92 58 -92 95q0 83 68 83q76 0 128 -68z"/>
            <glyph unicode="a" horiz-adv-x="1131"
                   d="M1082 107q-93 -145 -234 -145q-177 0 -190 177q-195 -177 -348 -177q-85 0 -141 56t-56 146q0 133 113 227q106 90 434 242v189q0 79 -52 119q-42 32 -102 32q-50 0 -96 -20q-58 -26 -58 -69q0 -22 25 -51l14 -16q34 -39 34 -77q0 -56 -40 -89.5t-100 -33.5 q-59 0 -103 37q-47 39 -47 97q0 134 158 217q133 69 289 69q365 0 365 -337v-503q0 -72 15 -93t44 -21q30 0 53 29l6 8zM660 194v370q-268 -149 -268 -305q0 -58 36.5 -95t96.5 -37q51 0 135 67z"/>
            <glyph unicode="b" horiz-adv-x="1256"
                   d="M1156 545q0 -237 -126 -403q-137 -180 -364 -180q-161 0 -282 117l-172 -117h-28v1281q0 112 -17 150q-25 58 -108 61v18h415v-587q137 152 293 152q160 0 268 -118q121 -134 121 -374zM855 523q0 409 -192 409q-94 0 -189 -112v-526q0 -273 178 -273q118 0 165 145 q38 115 38 357z"/>
            <glyph unicode="c" horiz-adv-x="1006"
                   d="M939 224q-59 -117 -162 -188q-109 -74 -233 -74q-210 0 -333 158q-117 148 -117 381q0 224 124 375q132 161 350 161q129 0 229 -61q115 -71 115 -189q0 -55 -37 -90.5t-92 -35.5q-86 0 -119 66q-14 28 -33.5 141t-100.5 113q-85 0 -128 -125q-31 -90 -31 -195 q0 -195 66 -343q88 -199 264 -199q114 0 217 121z"/>
            <glyph unicode="d" horiz-adv-x="1256"
                   d="M1202 47l-382 -85h-30v164l-21 -11q-132 -153 -266 -153q-193 0 -303 167q-95 146 -95 356q0 258 127 411q116 141 290 141q139 0 268 -143v349q0 113 -19 151q-30 58 -130 60v18h436v-1237q0 -82 16 -113q26 -49 109 -52v-23zM790 237v546q-83 166 -216 166 q-165 0 -165 -418q0 -456 186 -456q104 0 195 162z"/>
            <glyph unicode="e" horiz-adv-x="1006"
                   d="M939 546h-568q0 -157 72 -283q87 -150 237 -150q132 0 236 167l20 -13q-150 -305 -409 -305q-216 0 -331 162q-102 145 -102 377q0 224 124 375q132 161 350 161q168 0 274 -157q96 -143 97 -334zM687 603q0 78 -2 114q-15 264 -147 264q-173 0 -173 -378h322z"/>
            <glyph unicode="f" horiz-adv-x="753"
                   d="M914 1357q0 -53 -41.5 -85t-97.5 -32q-44 0 -78 24q-37 25 -37 64q0 12 4 36.5t4 36.5q0 64 -62 64q-54 0 -71 -48q-12 -33 -12 -119v-293h152v-86h-152v-695q0 -117 19 -153q27 -54 125 -56v-20h-581v20q100 2 128 56q19 36 19 153v695h-147v86h147v108q0 191 114 295 q110 100 303 100q125 0 198 -46q66 -42 66 -105z"/>
            <glyph unicode="g" horiz-adv-x="1131"
                   d="M1083 -168q0 -118 -93 -202q-135 -122 -427 -122q-165 0 -285 34q-178 50 -178 163q0 105 171 144v17q-136 60 -136 189q0 88 75 164q64 64 159 101v20q-112 35 -192 136q-77 97 -77 194q0 165 131 269q123 98 296 98q113 0 213 -40h340v-103h-211q113 -108 113 -252 q0 -128 -117 -228q-122 -104 -297 -104h-133q-58 0 -91 -43q-25 -34 -25 -76q0 -61 46 -84q30 -14 100 -17q23 -1 122 -1q248 0 342 -33q154 -54 154 -224zM711 667q0 325 -159 325q-78 0 -117 -63q-48 -79 -48 -273q0 -301 162 -301t162 312zM923 -271q0 65 -77 88 q-86 25 -338 25q-143 0 -195 -27q-48 -24 -48 -91q0 -160 322 -160q114 0 204 30q132 43 132 135z"/>
            <glyph unicode="h" horiz-adv-x="1256"
                   d="M1192 -5h-505v21q67 4 89 66q14 41 14 142v421q0 140 -15 190q-23 73 -95 73q-95 0 -184 -140v-544q0 -101 14 -142q22 -62 89 -66v-21h-505v21q73 4 97 66q15 41 15 142v1019q0 111 -17 150q-25 58 -106 61v18h413v-614q162 179 309 179q154 0 218 -110q54 -93 54 -290 v-413q0 -101 16 -142q24 -62 99 -66v-21z"/>
            <glyph unicode="i" horiz-adv-x="631"
                   d="M482 1349q0 -66 -47 -115t-111 -49q-65 0 -112 49t-47 115q0 65 47 112t112 47t111.5 -47t46.5 -112zM594 -5h-538v20q82 3 106 57q17 37 17 152v552q0 111 -17 150q-25 58 -106 61v18h412v-781q0 -115 17 -153q25 -53 109 -56v-20z"/>
            <glyph unicode="j" horiz-adv-x="753"
                   d="M555 1349q0 -66 -48 -115t-113 -49t-113 49t-48 115q0 65 48 112t113 47t113 -47t48 -112zM542 -102q0 -390 -333 -390q-115 0 -187 47.5t-72 129.5q0 44 29.5 77t72.5 33q74 0 74 -123q0 -113 72 -113q73 0 73 97q0 41 -11 139t-11 162v819q0 112 -17 150 q-25 58 -108 61v18h418v-1107z"/>
            <glyph unicode="k" horiz-adv-x="1256"
                   d="M1276 -5h-508v21q66 5 66 53q0 30 -62 120l-197 287l-79 -77v-175q0 -115 15 -152q23 -54 99 -57v-20h-527v20q82 3 106 57q17 37 17 152v1019q0 111 -17 150q-25 58 -106 61v18h413v-997l269 261q104 101 104 159q0 77 -120 91v19h443v-18q-102 -4 -190 -90l-235 -229 l345 -510q47 -69 67 -91q46 -47 97 -51v-21z"/>
            <glyph unicode="l" horiz-adv-x="631"
                   d="M594 -5h-538v20q82 3 106 57q17 37 17 152v1019q0 111 -17 150q-25 58 -106 61v18h412v-1248q0 -115 17 -153q25 -53 109 -56v-20z"/>
            <glyph unicode="m" horiz-adv-x="1884"
                   d="M1820 -5h-519v21q75 4 99 66q16 41 16 142v421q0 138 -16 191q-23 77 -95 77q-106 0 -203 -145v-544q0 -102 15 -142q23 -62 96 -66v-21h-515v21q75 4 99 66q15 40 15 142v421q0 138 -16 191q-23 77 -95 77q-96 0 -205 -145v-544q0 -102 16 -142q24 -62 101 -66v-21h-519 v21q73 4 97 66q15 41 15 142v552q0 111 -17 150q-25 58 -106 61v18h413v-146q168 178 328 178q203 0 265 -198q167 198 344 198q154 0 218 -110q54 -93 54 -290v-413q0 -101 16 -142q24 -62 99 -66v-21z"/>
            <glyph unicode="n" horiz-adv-x="1256"
                   d="M1192 -5h-505v21q67 4 89 66q14 41 14 142v421q0 140 -15 190q-23 73 -95 73q-95 0 -184 -140v-544q0 -101 14 -142q22 -62 89 -66v-21h-505v21q73 4 97 66q15 41 15 142v552q0 111 -17 150q-25 58 -106 61v18h413v-147q162 179 309 179q154 0 218 -110q54 -93 54 -290 v-413q0 -101 16 -142q24 -62 99 -66v-21z"/>
            <glyph unicode="o" horiz-adv-x="1131"
                   d="M1042 501q0 -226 -124 -377q-132 -162 -350 -162t-350 162q-124 151 -124 377q0 224 124 375q132 161 350 161t350 -161q124 -151 124 -375zM739 501q0 229 -12 295q-33 185 -159 185t-159 -185q-11 -64 -11 -295q0 -232 11 -295q32 -185 159 -185t160 185q11 64 11 295z "/>
            <glyph unicode="p" horiz-adv-x="1256"
                   d="M1156 504q0 -216 -91 -366q-108 -176 -307 -176q-150 0 -263 121l-21 42v-396q0 -107 20 -141q30 -52 135 -54v-21h-570v21q83 3 108 60q17 38 17 146v1036q0 112 -17 150q-25 58 -108 61v18h415v-158l21 43q100 147 280 147q174 0 281 -160q100 -150 100 -373zM855 477 q0 447 -186 447q-124 0 -195 -171v-554q97 -143 214 -143q167 0 167 421z"/>
            <glyph unicode="q" horiz-adv-x="1256"
                   d="M1202 -487h-567v21q105 2 135 54q20 34 20 141v390q-142 -157 -303 -157q-180 0 -288 161q-94 141 -94 335q0 231 132 398q143 181 367 181q182 0 269 -123l182 123h22v-1297q0 -108 17 -146q25 -57 108 -60v-21zM790 188v419q0 177 -24 252q-38 122 -152 122 q-205 0 -205 -499q0 -415 186 -415q110 0 195 121z"/>
            <glyph unicode="r" horiz-adv-x="1006"
                   d="M963 906q0 -62 -27 -102q-30 -46 -85 -46q-54 0 -100 40q-52 45 -77 45q-64 0 -112 -76q-66 -106 -66 -328v-215q0 -117 18 -153q27 -54 123 -56v-20h-554v20q82 3 106 57q17 37 17 152v552q0 111 -17 150q-25 58 -106 61v18h413v-231h21q167 263 318 263q128 0 128 -131 z"/>
            <glyph unicode="s" horiz-adv-x="881"
                   d="M795 308q0 -151 -93.5 -248.5t-231.5 -97.5q-60 0 -201 50q-28 10 -43 10q-49 0 -65 -60h-24l-18 358h23q30 -109 111 -195q92 -96 196 -96q56 0 92.5 33t36.5 88q0 87 -154 196l-87 61q-110 77 -160 138q-72 87 -72 187q0 136 92 222q88 83 222 83q69 0 126 -26 q68 -31 80 -31q45 0 77 57h25l16 -333h-24q-116 269 -287 269q-46 0 -82 -29q-39 -32 -39 -76q0 -56 79 -120q13 -11 167 -117q238 -164 238 -323z"/>
            <glyph unicode="t" horiz-adv-x="753"
                   d="M721 919h-247v-619q0 -109 14 -151q19 -63 80 -63q73 0 134 104l17 -13q-85 -196 -284 -196q-110 0 -184 78q-67 69 -67 151v709h-136v23q268 180 407 443h19v-380h247v-86z"/>
            <glyph unicode="u" horiz-adv-x="1256"
                   d="M1192 -5h-413v162l-21 -42q-129 -153 -299 -153q-124 0 -194 91q-67 87 -67 233v490q0 112 -17 150q-25 58 -108 61v18h415v-713q0 -91 14 -133q24 -68 93 -68q91 0 184 149v536q0 112 -16 150q-25 58 -106 61v18h410v-781q0 -116 17 -153q24 -53 108 -56v-20z"/>
            <glyph unicode="v" horiz-adv-x="1131"
                   d="M1105 986q-83 -10 -138 -138l-378 -886h-36l-370 850q-73 167 -151 174v19h532v-18q-104 -5 -104 -89q0 -31 27 -90l42 -88l167 -386l134 332q69 171 69 232q0 85 -111 89v18h317v-19z"/>
            <glyph unicode="w" horiz-adv-x="1634"
                   d="M1608 986q-92 -6 -144 -155l-302 -869h-46l-292 777l-279 -777h-51l-262 719q-67 184 -107 245q-38 58 -91 61v18h502v-18q-97 -3 -97 -62q0 -11 17 -60q2 -6 5 -16l178 -466l155 431q-44 107 -64 134q-28 37 -81 39v18h510v-18q-95 -2 -95 -65q0 -22 19 -76l158 -445h19 l125 352q36 102 36 140q0 91 -101 94v18h288v-19z"/>
            <glyph unicode="x" horiz-adv-x="1131"
                   d="M1077 -5h-550v20q97 2 97 62q0 24 -18 63q-14 31 -29 61l-90 159l-104 -151q-48 -75 -48 -116q0 -75 104 -78v-20h-380v20q95 3 169 75q50 48 161 212l71 106l-163 310q-32 63 -106 181q-62 82 -132 87v19h554v-18q-49 0 -66 -7q-32 -12 -32 -52q0 -30 50 -122l76 -139 q33 46 91 134q47 76 47 116q0 63 -84 69v19h342v-18q-131 -6 -268 -220l-95 -149l193 -369q117 -224 210 -233v-21z"/>
            <glyph unicode="y" horiz-adv-x="1131"
                   d="M1105 987q-52 -2 -81.5 -37t-73.5 -146l-429 -1088q-82 -208 -249 -208q-79 0 -136 45q-61 47 -61 122q0 59 33.5 99t89.5 40q116 0 116 -134q0 -75 42 -75q53 0 97 75q37 64 110 264l-323 746q-28 68 -93 198q-55 92 -115 98v19h529v-18q-101 -4 -101 -78q0 -27 29 -97 l43 -97l173 -401l120 311q74 191 74 259q0 99 -120 103v18h326v-18z"/>
            <glyph unicode="z" horiz-adv-x="1006"
                   d="M969 990l-579 -948q260 0 353 38q136 56 194 248h20l-36 -333h-878v11l570 954h-154q-161 0 -213 -34q-64 -41 -107 -197h-23v276h853v-15z"/>
            <glyph unicode="{" horiz-adv-x="1134"
                   d="M786 -293l-8 -45q-201 0 -277 76q-80 80 -80 291v378q0 119 -34 165q-44 60 -194 102q143 46 190 108q38 52 38 161v413q0 196 91 274q80 68 266 71l7 -45q-92 -32 -127 -100q-29 -57 -29 -167v-410q0 -124 -28 -187q-34 -77 -126 -115q100 -45 132 -134q22 -59 22 -188 v-387q0 -213 157 -261z"/>
            <glyph unicode="|" horiz-adv-x="471" d="M331 50h-188v1651h188v-1651z"/>
            <glyph unicode="}" horiz-adv-x="1134"
                   d="M936 674q-147 -42 -190 -101q-33 -46 -33 -166v-378q0 -211 -80 -291q-77 -76 -278 -76l-7 45q157 48 157 261v387q0 130 22 189q33 88 134 133q-94 38 -128 115q-28 62 -28 187v410q0 110 -29 167q-36 68 -128 100l7 45q186 -3 266 -71q92 -78 92 -274v-413 q0 -109 37 -161q47 -62 186 -108z"/>
            <glyph unicode="~" horiz-adv-x="1279"
                   d="M1252 799q-155 -281 -351 -281q-97 0 -270.5 82.5t-255.5 82.5t-151 -81q-30 -36 -96 -150l-107 131q79 133 141 194q98 94 216 94q96 0 279 -82.5t244 -82.5q131 0 249 222z"/>
            <glyph unicode="&#xa4;" horiz-adv-x="1284"
                   d="M1197 101l-88 -83l-163 163q-151 -112 -305 -112q-85 0 -175 27q-103 31 -160 84l-166 -162l-85 83l164 166q-110 133 -110 319q0 176 111 320l-165 161l85 86l166 -162q139 111 323 111q179 0 317 -111l163 162l88 -86l-165 -161q112 -149 112 -318q0 -174 -112 -321z M1023 585q0 163 -117 279t-279 116q-166 0 -281 -115.5t-115 -281.5q0 -163 116 -278t279 -115t280 116t117 279z"/>
            <glyph unicode="&#xa7;" horiz-adv-x="1162"
                   d="M988 342q0 -228 -232 -376q125 -132 125 -274q0 -126 -75 -218q-89 -109 -250 -109q-114 0 -199 72q-89 76 -89 188q0 43 27 75q29 36 73 36q46 0 72 -35q24 -31 24 -75q0 -20 -10.5 -44t-10.5 -41q0 -13 4 -29q21 -75 116 -75q177 0 177 165q0 117 -145 241l-268 220 q-145 142 -145 303q0 224 232 372q-74 80 -96 121q-31 60 -31 159q0 136 94.5 229t230.5 93q113 0 198 -68q93 -74 93 -187q0 -46 -26 -78q-28 -35 -75 -35q-42 0 -71 28.5t-29 70.5q0 18 7 52.5t7 52.5q0 88 -104 88q-74 0 -124.5 -50.5t-50.5 -124.5q0 -114 169 -253 q234 -193 249 -208q133 -137 133 -286zM848 240q0 116 -141 247l-236 196q-148 -93 -148 -224q0 -120 141 -250l234 -190q150 95 150 221z"/>
            <glyph unicode="&#xa8;" horiz-adv-x="1374" d="M1304 394h-120v369h-1137v122h1257v-491z"/>
            <glyph unicode="&#xad;" horiz-adv-x="1000" d="M855 434h-709v149h709v-149z"/>
            <glyph unicode="&#xb0;" horiz-adv-x="849"
                   d="M786 1154q0 -152 -106.5 -258t-258.5 -106q-151 0 -257.5 106.5t-106.5 257.5q0 152 105.5 258t258.5 106t259 -105.5t106 -258.5zM659 1155q0 100 -69 169t-169 69t-169 -69t-69 -169t69.5 -169.5t168.5 -69.5t168.5 70t69.5 169z"/>
            <glyph unicode="&#xb6;" horiz-adv-x="1184"
                   d="M1145 1188h-151v-1979h-111v1979h-183v-1979h-113v1184q-228 4 -372 102q-173 118 -173 344q0 216 168 337q146 104 358 104h577v-92z"/>
            <glyph unicode="&#xb7;" horiz-adv-x="727"
                   d="M532 877q0 -65 -45 -110t-110 -45t-110 45t-45 110t45 110t110 45t110 -45t45 -110z"/>
            <glyph unicode="&#xd7;" horiz-adv-x="1301"
                   d="M1159 103l-109 -110l-391 391l-391 -391l-110 110l391 391l-396 396l110 109l391 -391l391 391l110 -109l-391 -391z"/>
            <glyph unicode="&#x2dd;"/>
            <glyph unicode="&#x901;"
                   d="M-355 1972l-161 -160l-158 157l161 161zM-75 1760q-21 -32 -108 -126q-135 -128 -289 -128q-164 0 -313 157q-93 98 -155 229l92 54q14 -32 31 -61q42 -70 92 -116q85 -78 176 -78q97 0 191 83q78 69 126 144z"/>
            <glyph unicode="&#x902;" d="M-109 1834l-195 -197l-203 206l197 195z"/>
            <glyph unicode="&#x903;" horiz-adv-x="711"
                   d="M565 871l-201 -200l-203 203l200 201zM565 218l-198 -198l-206 206l197 195z"/>
            <glyph unicode="&#x905;" horiz-adv-x="1677"
                   d="M1803 1184h-298v-1184l-264 178v378q-26 3 -97 20q-96 29 -141 60q32 -80 32 -163q0 -137 -95 -218q-106 -90 -253 -90q-143 0 -274 93q-208 148 -324 461l117 52q13 -46 30 -87q40 -98 91 -154q116 -129 265 -129q79 0 147 39q65 36 92 90q21 41 21 89q0 81 -52 161 q-46 -23 -149 -69q-64 -25 -155 -46l-143 215l263 89q79 27 127 72q45 43 45 85q0 95 -186 86q-144 -7 -272 -88l-135 229q187 102 344 92q143 -9 257 -98q110 -86 159 -218q19 -51 19 -102q0 -106 -71 -190q86 -60 158 -54q112 10 180 77v324h-172l-126 235h734z"/>
            <glyph unicode="&#x906;" horiz-adv-x="2325"
                   d="M2454 1184h-327v-1184l-264 178v1006h-358v-1184l-264 178v378q-26 3 -97 20q-96 29 -141 60q32 -80 32 -163q0 -137 -95 -218q-106 -90 -253 -90q-143 0 -274 93q-208 148 -324 461l117 52q13 -46 30 -87q40 -98 91 -154q117 -129 265 -129q79 0 147 39q65 36 92 90 q21 41 21 89q0 81 -52 161q-46 -23 -149 -69q-64 -25 -155 -46l-143 215l263 89q79 27 127 72q45 43 45 85q0 95 -186 86q-144 -7 -272 -88l-135 229q187 102 344 92q143 -9 257 -98q110 -86 159 -218q19 -51 19 -102q0 -106 -71 -190q86 -60 158 -54q112 10 180 77v324 h-172l-126 235h1385z"/>
            <glyph unicode="&#x907;" horiz-adv-x="1012"
                   d="M1138 1184h-301v-327h-344q-208 -3 -208 -109q0 -10 2 -20q9 -48 56 -48q28 0 196 48q28 8 57 8q165 0 278 -211q31 -58 31 -127q0 -170 -163 -298q-81 -63 -195 -100l201 -281l-135 -83l-240 355q-65 4 -114 24q-118 47 -136 163q-4 27 -4 50q0 136 117 136q40 0 65 -17 l59 -56q38 -33 84 -33q38 0 89 20q76 31 133 90.5t57 110.5q0 47 -35 47q-19 0 -114.5 -39.5t-152.5 -36.5q-61 3 -130 53q-114 84 -176 265q-17 49 -17 91q0 178 260 207h221v118h-579l-126 235h1138z"/>
            <glyph unicode="&#x908;" horiz-adv-x="1012"
                   d="M1138 1184h-301v-327h-344q-208 -3 -208 -109q0 -10 2 -20q9 -48 56 -48q28 0 196 48q28 8 57 8q165 0 278 -211q31 -58 31 -127q0 -170 -163 -298q-81 -63 -195 -100l201 -281l-135 -83l-240 355q-65 4 -114 24q-118 47 -136 163q-4 27 -4 50q0 136 117 136q40 0 65 -17 l59 -56q38 -33 84 -33q38 0 89 20q76 31 133 90.5t57 110.5q0 47 -35 47q-19 0 -114.5 -39.5t-152.5 -36.5q-61 3 -130 53q-114 84 -176 265q-17 49 -17 91q0 178 260 207h221v118h-579l-126 235l711 -3q-187 206 -244 436q-7 28 -7 57q0 98 76 165.5t187 67.5q48 0 97 -15 q107 -32 175 -132l-35 -40q-48 29 -112 29q-80 0 -131 -52q-54 -55 -54 -147q0 -18 2 -36q15 -130 180 -330h293z"/>
            <glyph unicode="&#x909;" horiz-adv-x="1131"
                   d="M1253 1184h-416q28 -27 49 -58q51 -73 60 -154q2 -14 2 -28q0 -123 -108 -190q30 -21 56 -47q64 -62 99 -139q42 -91 42 -173q0 -125 -94 -213q-87 -81 -229 -107q-24 -4 -50 -4q-116 0 -239 81t-206.5 217.5t-132.5 258.5l112 46q19 -45 38 -85q46 -95 88 -148 q113 -144 254 -144q69 0 139 38q89 49 89 167q0 142 -109 174q-5 1 -12 1q-15 0 -79 -19t-105 -19q-66 0 -111 43q-91 86 -91 146q0 50 54 72h269q27 9 48 22q50 32 64 81q5 19 5 39q0 70 -57 142h-682l-126 235h1253z"/>
            <glyph unicode="&#x90a;" horiz-adv-x="1575"
                   d="M1697 1184h-860q28 -27 49 -58q51 -73 60 -154q2 -14 2 -28q0 -123 -108 -190l49 -37q256 120 271 120q124 0 219 -80q113 -97 123 -273q12 -202 -146 -421l-204 184q44 50 144 200q39 69 39 133q0 90 -79 90q-37 0 -87 -22q-85 -37 -151 -129q17 -57 17 -121 q0 -280 -316 -323q-22 -3 -45 -3q-126 0 -252 87q-118 80 -204.5 211t-131.5 258l112 46q33 -72 126 -233q93 -140 252 -140q72 0 141 34q90 45 90 164q0 138 -99 169q-6 2 -14 2q-15 0 -79.5 -16t-104.5 -16q-73 0 -120 44q-91 86 -91 146q0 50 54 72h269q27 9 48 22 q50 32 64 81q5 19 5 39q0 70 -57 142h-682l-126 235h1694z"/>
            <glyph unicode="&#x90b;" horiz-adv-x="1966"
                   d="M2090 1184h-1047v-376q45 -19 90 -19q32 0 57 11q77 34 91 94q-46 71 -40 124q9 86 104 86q38 0 88 -15q225 -68 225 -172q0 -29 -18 -60q-12 -20 -46 -49l160 -289q-53 -15 -218 -92q-159 -88 -159 -168q0 -64 90 -64q15 0 32 3q144 22 204 100l172 -189 q-115 -133 -305 -133q-18 0 -36 1q-124 9 -233 110q-116 108 -111 237q7 197 246 284l-49 83q-34 -17 -149 -40q-114 -8 -195 51v-702l-263 178v312l-367 -286l-195 189l536 384q-107 68 -206 68q-147 0 -301 -131l-152 235q27 20 56 37q71 41 144 60q48 12 98 12 q146 0 289 -103l98 -69v298h-780l-126 235h2089z"/>
            <glyph unicode="&#x90c;" horiz-adv-x="1674"
                   d="M1829 1184h-622v-175q71 0 170 -92q141 -132 139 -355q-1 -108 -102 -228q-37 -44 -188 -182q-100 -92 -100 -135q0 -9 3 -17q27 -63 148 -63q39 0 87 6q64 8 144 57l91 -201q-163 -55 -284 -55q-46 0 -80 9q-83 22 -154 91q-68 66 -95 142q-19 53 -19 103q0 96 75 189 q25 30 147 144q137 128 137 256q0 24 -5 47q-11 54 -53 92.5t-96 38.5q-185 0 -346 -426l-230 158q16 30 66 114q-46 81 -155 81q-96 0 -154 -72.5t-58 -177.5q0 -264 353 -490l-101 -109q-490 383 -490 705q0 169 105 282q101 108 239 108q184 0 333 -212q26 30 89 95 q40 37 114 86v186h-937l-126 235h1823z"/>
            <glyph unicode="&#x90d;" horiz-adv-x="1230"
                   d="M1129 1803q-19 -30 -109 -126q-136 -126 -286 -126q-162 0 -316 155q-102 103 -154 229l91 54q14 -32 32 -61q42 -70 92 -116q85 -79 176 -79q87 0 196 79q85 61 121 149zM1370 1184h-298v-571q1 -10 1 -22q0 -134 -127 -150q-72 -9 -166 -5l-155 206q109 -11 146 -3 q48 10 40 75v470h-375v-602q2 -40 18 -79q36 -95 131 -170l447 -336q112 -88 112 -187q0 -106 -115 -197l-226 183q75 41 75 95q0 36 -38 72q-131 123 -424 298q-248 148 -248 265q0 15 4 24v634h-172l-126 235h1370z"/>
            <glyph unicode="&#x90e;" horiz-adv-x="1230"
                   d="M1370 1184h-298v-571q1 -10 1 -22q0 -134 -127 -150q-72 -9 -166 -5l-155 206q109 -11 146 -3q48 10 40 75v470h-375v-602q2 -40 18 -79q36 -95 131 -170l447 -336q112 -88 112 -187q0 -106 -115 -197l-226 183q75 41 75 95q0 36 -38 72q-131 123 -424 298 q-248 148 -248 265q0 15 4 24v634h-172l-126 235h1051q10 218 -160 221q-163 3 -240 23q-127 34 -175 131q-33 67 -33 165q0 83 21 165h103q-15 -64 -15 -120q0 -91 45 -118.5t185.5 -33t197.5 -35.5q167 -88 167 -398h223z"/>
            <glyph unicode="&#x90f;" horiz-adv-x="1230"
                   d="M1370 1184h-298v-571q1 -10 1 -22q0 -134 -127 -150q-72 -9 -166 -5l-155 206q109 -11 146 -3q48 10 40 75v470h-375v-602q2 -40 18 -79q36 -95 131 -170l447 -336q112 -88 112 -187q0 -106 -115 -197l-226 183q75 41 75 95q0 36 -38 72q-131 123 -424 298 q-248 148 -248 265q0 15 4 24v634h-172l-126 235h1370z"/>
            <glyph unicode="&#x910;" horiz-adv-x="1230"
                   d="M1370 1184h-298v-571q1 -10 1 -22q0 -134 -127 -150q-72 -9 -166 -5l-155 206q109 -11 146 -3q48 10 40 75v470h-375v-602q2 -40 18 -79q36 -95 131 -170l447 -336q112 -88 112 -187q0 -106 -115 -197l-226 183q75 41 75 95q0 36 -38 72q-131 123 -424 298 q-248 148 -248 265q0 15 4 24v634h-172l-126 235h1033l-107 215q-21 39 -45 71q-58 78 -119 112q-92 51 -160 32l-63 261q20 4 46 4q134 0 235 -102q123 -124 226 -398l86 -195h238z"/>
            <glyph unicode="&#x911;" horiz-adv-x="2325"
                   d="M2190 1803q-19 -30 -109 -126q-136 -126 -286 -126q-162 0 -316 155q-102 103 -155 229l92 54q14 -32 31 -61q42 -70 92 -116q85 -79 176 -79q88 0 197 79q85 61 120 149zM2454 1184h-298v-1184l-264 178v1006h-387v-1184l-264 178v378q-26 3 -97 20q-96 29 -141 60 q32 -80 32 -163q0 -137 -95 -218q-106 -90 -253 -90q-143 0 -274 93q-208 148 -324 461l117 52q13 -46 30 -87q40 -98 91 -154q117 -129 265 -129q79 0 147 39q65 36 92 90q21 41 21 89q0 81 -52 161q-46 -23 -149 -69q-64 -25 -155 -46l-143 215l263 89q79 27 127 72 q45 43 45 85q0 95 -186 86q-144 -7 -272 -88l-135 229q187 102 344 92q143 -9 257 -98q110 -86 159 -218q19 -51 19 -102q0 -106 -71 -190q86 -60 158 -54q112 10 180 77v324h-172l-126 235h1385z"/>
            <glyph unicode="&#x912;" horiz-adv-x="2325"
                   d="M2454 1184h-298v-1184l-264 178v1006h-387v-1184l-264 178v378q-26 3 -97 20q-96 29 -141 60q32 -80 32 -163q0 -137 -95 -218q-106 -90 -253 -90q-143 0 -274 93q-208 148 -324 461l117 52q13 -46 30 -87q40 -98 91 -154q117 -129 265 -129q79 0 147 39q65 36 92 90 q21 41 21 89q0 81 -52 161q-46 -23 -149 -69q-64 -25 -155 -46l-143 215l263 89q79 27 127 72q45 43 45 85q0 95 -186 86q-144 -7 -272 -88l-135 229q187 102 344 92q143 -9 257 -98q110 -86 159 -218q19 -51 19 -102q0 -106 -71 -190q86 -60 158 -54q112 10 180 77v324 h-172l-126 235h1071q10 218 -159 221q-163 3 -240 23q-129 34 -176 131q-33 67 -33 165q0 83 21 165h104q-16 -65 -16 -122q0 -90 45 -117t185.5 -32.5t197.5 -35.5q167 -88 167 -398h218z"/>
            <glyph unicode="&#x913;" horiz-adv-x="2325"
                   d="M2454 1184h-298v-1184l-264 178v1006h-387v-1184l-264 178v378q-26 3 -97 20q-96 29 -141 60q32 -80 32 -163q0 -137 -95 -218q-106 -90 -253 -90q-143 0 -274 93q-208 148 -324 461l117 52q13 -46 30 -87q40 -98 91 -154q117 -129 265 -129q79 0 147 39q65 36 92 90 q21 41 21 89q0 81 -52 161q-46 -23 -149 -69q-64 -25 -155 -46l-143 215l263 89q79 27 127 72q45 43 45 85q0 95 -186 86q-144 -7 -272 -88l-135 229q187 102 344 92q143 -9 257 -98q110 -86 159 -218q19 -51 19 -102q0 -106 -71 -190q86 -60 158 -54q112 10 180 77v324 h-172l-126 235h1041l-95 215q-21 39 -45 71q-57 78 -118 112q-92 51 -161 32l-63 261q20 4 46 4q134 0 235 -102q123 -124 226 -398l76 -195h243z"/>
            <glyph unicode="&#x914;" horiz-adv-x="2325"
                   d="M2454 1184h-298v-1184l-264 178v1006h-387v-1184l-264 178v378q-26 3 -97 20q-96 29 -141 60q32 -80 32 -163q0 -137 -95 -218q-106 -90 -253 -90q-143 0 -274 93q-208 148 -324 461l117 52q13 -46 30 -87q40 -98 91 -154q117 -129 265 -129q79 0 147 39q65 36 92 90 q21 41 21 89q0 81 -52 161q-46 -23 -149 -69q-64 -25 -155 -46l-143 215l263 89q79 27 127 72q45 43 45 86q0 94 -186 85q-144 -7 -272 -88l-135 229q187 102 344 92q143 -9 257 -98q110 -86 159 -218q19 -51 19 -102q0 -106 -71 -190q86 -60 158 -54q112 10 180 77v324 h-172l-126 235h938l-55 86q-12 14 -28 26q-38 30 -90 48q-69 23 -131 9l-81 201q90 0 184 -35q107 -40 175 -140l112 -195h106l-104 218q-20 39 -45 73q-59 83 -130 130q-100 66 -217 69l-61 235q205 6 327 -106q60 -55 123 -158q56 -91 52 -91l142 -370h168z"/>
            <glyph unicode="&#x915;" horiz-adv-x="1637"
                   d="M1763 1184h-771v-293q25 19 51 33q62 34 118 36q157 7 266 -153q95 -138 95 -291q0 -21 -3 -40q-26 -194 -146 -353l-209 149q30 43 54 83q58 96 78 158q36 113 36 174q0 73 -52 73q-39 0 -108 -41q-85 -50 -180 -143v-576l-261 178v235q-245 -96 -253 -96 q-144 0 -267 113q-138 128 -136 318q1 121 87 213q94 100 236 100q59 0 121 -18q112 -33 212 -157v298h-731l-126 235h1763zM731 714q-22 37 -49 66q-64 70 -143 86q-20 4 -40 4q-99 0 -180 -82q-77 -78 -77 -163q0 -23 7 -43q24 -67 124 -67q85 0 177 44q122 59 181 155z "/>
            <glyph unicode="&#x916;" horiz-adv-x="1792"
                   d="M1938 1184h-298v-1184l-264 178v40q-253 -141 -489 -141q-131 0 -248 46q-144 57 -288 207q-127 131 -202 275q-60 115 -60 200q0 67 46 86q14 6 28 6q51 0 98 -63q27 -10 46 9q13 13 14 69v272h-321l-126 235h1938zM1376 778v4q-110 104 -255 124q-23 3 -44 3 q-107 0 -175 -72q-57 -61 -57 -131q0 -93 121 -93q95 0 195 49q135 66 215 116zM1376 1184h-794v-404q-3 -26 -13 -51q-22 -58 -70 -96q-69 -54 -178 -65q15 -35 40 -68q61 -79 164 -136q163 -90 373 -90q45 0 82 7q178 32 396 170v127q-161 -136 -342 -136q-18 0 -36 2 q-118 10 -202 125q-79 107 -79 230q0 134 84 217.5t212 83.5q178 0 363 -226v310z"/>
            <glyph unicode="&#x917;" horiz-adv-x="1270"
                   d="M1399 1184h-275v-1184l-264 178v1006h-333v-594q3 -110 -80 -120q-71 -9 -201 97q-120 98 -151 167q-11 23 -11 44q0 59 74 85h109v321h-267l-126 235h1399z"/>
            <glyph unicode="&#x918;" horiz-adv-x="1330"
                   d="M1453 1184h-272v-1184l-264 178v190q-121 -87 -332 -87q-134 0 -275 110q-149 117 -175 265q-4 20 -4 39q0 143 170 222q-47 27 -149 101q-53 46 -53 111q0 30 10 55h-109l-126 235h1453zM917 1184h-493q-22 -10 -40 -23q-41 -31 -49 -72q-3 -15 -3 -29q0 -80 86 -105 h218l118 -190q-178 16 -327 -43q-116 -46 -116 -127q0 -48 47 -79q52 -34 142 -34q35 0 73 5q178 25 344 153v544z"/>
            <glyph unicode="&#x919;" horiz-adv-x="1618"
                   d="M1594 708l-169 -172l-175 175l172 169zM1751 1184h-662v-373h-579q-23 -9 -60 -40q-21 -32 -21 -65q0 -36 23 -61t51 -25q8 0 16 2q273 87 389 85q128 -2 227 -111.5t99 -239.5q0 -153 -121.5 -255t-304.5 -102q-247 0 -514 250q-111 104 -217 250l95 80 q232 -358 510 -358q143 0 269.5 62.5t126.5 142.5q0 74 -67 74q-44 0 -189.5 -45.5t-204.5 -45.5q-22 0 -38 4q-115 31 -221 166.5t-106 250.5q0 83 63 145q61 59 146 66h367v143h-828l-126 235h1751z"/>
            <glyph unicode="&#x91a;" horiz-adv-x="1533"
                   d="M1665 1184h-283v-1184l-264 178v188q-143 -115 -327 -122q-133 -5 -269 98q-123 94 -169 208q-16 40 -16 83q0 73 41 135h-192l-132 235h783l158 -235h-270q-45 -33 -106 -89q-61 -85 -61 -157q0 -78 88 -78q56 0 142 32q160 60 330 195v513h-1118l-126 235h1665z"/>
            <glyph unicode="&#x91b;" horiz-adv-x="1427"
                   d="M1551 1184h-442v-155q206 -186 206 -407q0 -42 -8 -83q-64 -314 -375 -459q-140 -65 -280 -65q-202 0 -357 128q-143 118 -143 246q0 107 92 193q-26 19 -48 39q-54 48 -81 93q-37 60 -37 123q0 86 66.5 141.5t188.5 55.5q67 0 131 -16l89 -190q-127 15 -223 3 q-81 -10 -81 -79q0 -13 3 -27q13 -56 52 -97q23 12 94 40q51 17 121 20l97 -201q-51 -1 -93 -12q-103 -25 -150 -97q-21 -33 -21 -64q0 -90 148 -90q70 0 165 23q159 39 290 151q-76 38 -134 86q-138 116 -159 261q-3 22 -3 44q0 175 189 263v132h-848l-126 235h1551z M1124 682q2 20 2 39q0 84 -33 144t-84 64q-67 6 -114 -57.5t-44 -149.5q5 -168 175 -252q26 35 45 68q47 81 53 144z"/>
            <glyph unicode="&#x91c;" horiz-adv-x="1528"
                   d="M1668 1184h-286v-1184l-264 178v556h-344q27 -27 86 -129q27 -63 27 -128q0 -170 -168 -233q-45 -17 -95 -17q-191 0 -343 209q-128 176 -206 421l111 49q17 -58 39 -112q52 -130 119 -215q81 -104 183 -104q86 0 121 55q20 30 20 70q0 92 -138 283q-17 24 -17 46 q0 46 46 46h559v209h-1118l-126 235h1668z"/>
            <glyph unicode="&#x91d;" horiz-adv-x="1568"
                   d="M1697 1184h-298v-1184l-264 178v382q-91 -24 -160 -21q-77 4 -152 26q14 -21 46 -98q12 -39 12 -80q0 -84 -46.5 -163t-120.5 -124q-97 -60 -273 -91l158 -241l-115 -78l-189 301q-51 4 -89 24q-93 47 -111 163q-4 27 -4 50q0 136 116 136q40 0 65 -17l59 -56 q38 -33 84 -33q38 0 89 20q76 31 134 89t58 109q0 50 -38 50q-19 0 -113.5 -39.5t-151.5 -36.5q-63 3 -132 52q-117 84 -175 266q-15 46 -15 87q0 170 230 211h249v118h-550l-126 235h1697zM1135 1184h-327v-327h-344q-208 0 -208 -109q0 -10 2 -20q9 -47 52 -47q5 0 200 47 q27 6 54 6q44 0 78 -15q36 -9 95 -9q72 0 157 15q133 24 241 119v340z"/>
            <glyph unicode="&#x91e;" horiz-adv-x="1599"
                   d="M1734 1184h-298v-1184l-264 178v387h-217q-7 -58 -29 -106q-55 -115 -178 -158q-57 -20 -117 -20q-197 0 -390 198q-85 88 -166 215l97 68q26 -41 52 -76q61 -85 111 -127q94 -79 195 -79q81 0 143.5 50t86.5 135q13 46 13 88q0 98 -71 98q-31 0 -74 -20 q-104 -47 -158 -123l-158 204q128 116 281 116q42 0 83 -10q189 -46 258 -250q34 0 92 6q82 19 146 64v346h-1172l-126 235h1734z"/>
            <glyph unicode="&#x91f;" horiz-adv-x="1141"
                   d="M1270 1184h-384v-224q-3 -32 -19 -60q-36 -68 -127 -106q-12 -5 -196 -72q-129 -48 -189 -83q-73 -43 -73 -131q0 -86 69 -151q77 -73 200 -73q22 0 45 3q205 23 376 189l123 -238q-50 -41 -104 -72q-129 -75 -254 -89q-32 -4 -64 -4q-227 0 -401 158q-161 147 -169 319 q-15 312 358 399q152 35 158 83v152h-619l-126 235h1270z"/>
            <glyph unicode="&#x920;" horiz-adv-x="1172"
                   d="M1316 1184h-456q48 -82 48 -166q0 -15 -2 -29q-10 -83 -46 -123q52 -42 93 -89q98 -114 128 -238q11 -47 11 -94q0 -162 -112 -274q-120 -121 -315 -121q-45 0 -92 7q-190 28 -335 170q-159 156 -152 355q8 231 204 328q121 60 283 60q22 0 38 -1q21 12 37 27 q38 37 43 85q4 37 -40 103h-651l-126 235h1316zM783 333q93 94 93 231q0 152 -108 216q-51 30 -117 30q-83 0 -163.5 -44.5t-123.5 -114.5q-53 -86 -53 -185q0 -158 107 -219q49 -28 110 -28q143 0 255 114z"/>
            <glyph unicode="&#x921;" horiz-adv-x="1332"
                   d="M1471 1184h-382v-373h-579q-23 -9 -60 -40q-21 -32 -21 -65q0 -36 23 -61t51 -25q8 0 16 2q273 87 389 85q128 -2 227 -111.5t99 -239.5q0 -153 -121.5 -255t-304.5 -102q-247 0 -514 250q-111 104 -217 250l95 80q232 -358 510 -358q143 0 269.5 62.5t126.5 142.5 q0 74 -67 74q-44 0 -189.5 -45.5t-204.5 -45.5q-22 0 -38 4q-115 31 -221 166.5t-106 250.5q0 83 63 145q61 59 146 66h367v143h-828l-126 235h1471z"/>
            <glyph unicode="&#x922;" horiz-adv-x="1159"
                   d="M1304 1184h-392v-390h-479q-178 -54 -178 -233q0 -31 6 -65q16 -92 83 -159t158 -76q-28 90 -28 177q0 205 162 253q45 13 90 13q131 0 222.5 -103.5t91.5 -250.5q0 -20 -2 -40q-12 -126 -120.5 -210.5t-253.5 -84.5q-129 0 -243 71q-144 89 -238 233q-101 155 -101 316 q0 40 7 79q45 261 295 295h267v175h-651l-126 235h1304zM891 456q-21 66 -107 66q-95 0 -148 -75q-48 -67 -43 -195q71 5 169 20q134 49 134 152q0 16 -5 32z"/>
            <glyph unicode="&#x923;" horiz-adv-x="1640"
                   d="M1766 1184h-275v-1184l-264 178v1006h-298v-513q0 -176 -81 -264q-70 -78 -191 -78q-84 0 -175 38q-245 101 -310 335v482h-172l-126 235h1766zM671 642v542h-244v-562q1 -22 9 -40q17 -43 60 -57q24 -8 46 -8q95 0 129 125z"/>
            <glyph unicode="&#x924;" horiz-adv-x="1275"
                   d="M1413 1184h-298v-1184l-264 178v547h-404q-30 0 -56 -12q-61 -29 -90 -111q-9 -26 -9 -54q0 -69 49 -135l178 -278l-123 -81l-218 344q-112 136 -106 293q10 245 266 272h513v221h-851l-126 235h1413z"/>
            <glyph unicode="&#x925;" horiz-adv-x="1447"
                   d="M1594 1184h-298v-1184l-264 178v187q-61 -36 -152 -78q-107 -50 -219 -50q-234 0 -432 204q-83 85 -126 264q31 9 152 69q34 19 95 49q-64 37 -113 78q-119 97 -142 194q-8 31 -8 63q0 116 92 193q96 80 242 74q142 -6 242 -99q93 -86 114 -211q7 -42 7 -79 q0 -194 -231 -354q-91 -63 -223 -137q15 -30 39 -52q59 -54 158 -57q226 -8 505 242v506h-172l-126 235h734zM569 1112q0 137 -87 161q-19 5 -37 5q-58 0 -92.5 -50.5t-34.5 -119.5q0 -27 6 -53q26 -117 120 -169q125 217 125 226z"/>
            <glyph unicode="&#x926;" horiz-adv-x="1177"
                   d="M1324 1184h-410v-401h-455q-32 -3 -59 -15q-66 -29 -102 -97q-17 -33 -17 -78q0 -64 31 -118q35 -60 92 -77q44 -13 89 -13q84 0 149 42q-28 46 -28 90q0 48 37.5 79.5t89.5 31.5q86 0 171 -75q82 -72 86 -140q5 -104 -101 -161l149 -329l-152 -66l-146 332 q-36 -7 -83 -7q-124 0 -229 50q-97 46 -180 133q-96 102 -138 228q-31 93 -31 168q0 230 251 262h307v161h-645l-126 235h1324z"/>
            <glyph unicode="&#x927;" horiz-adv-x="1379"
                   d="M1508 1184h-298v-1184l-264 178v179q-139 -104 -333 -108q-144 -3 -289 113q-157 125 -178 294q-2 16 -2 32q0 138 140 206q-48 36 -85 72q-88 88 -104 163q-7 33 -7 64q0 108 78 168q83 65 232 58q111 -5 195 -84t84 -170q0 -77 -66 -127q-75 -58 -213 -63 q25 -14 72 -35q37 -10 83 -11h92l106 -198h-338q-107 -37 -107 -116q0 -30 18 -65q50 -95 208 -95q67 0 122 18q153 50 292 164v547h-172l-126 235h734zM456 1092q55 32 55 100q0 46 -27.5 82t-70.5 36q-139 0 -132 -132q4 -69 46 -120q70 -1 129 34z"/>
            <glyph unicode="&#x928;" horiz-adv-x="1318"
                   d="M1470 1184h-298v-1184l-263 178v501h-399q-56 -35 -56 -94q0 -12 2 -26q6 -49 -31 -77q-33 -25 -82 -25q-43 0 -71 19q-39 27 -104 135q-67 113 -73 172q-13 120 123 131h691v270h-909l-126 235h1470z"/>
            <glyph unicode="&#x929;" horiz-adv-x="1318"
                   d="M1470 1184h-298v-1184l-263 178v501h-399q-56 -35 -56 -94q0 -12 2 -26q6 -49 -31 -77q-33 -25 -82 -25q-43 0 -71 19q-39 27 -104 135q-67 113 -73 172q-13 120 123 131h691v270h-909l-126 235h1470zM636 135l-186 -187l-186 190l186 186z"/>
            <glyph unicode="&#x92a;" horiz-adv-x="1224"
                   d="M1364 1184h-298v-1184l-263 178v281q-91 -63 -206 -63q-95 0 -204 51q-101 47 -175.5 118.5t-74.5 202.5v416h-143l-126 235h1364zM803 757v427h-396v-548q-3 -71 65 -71q41 0 107 31q128 61 224 161z"/>
            <glyph unicode="&#x92b;" horiz-adv-x="1642"
                   d="M1780 1184h-805v-278q105 72 214 72q98 0 175 -66q166 -143 166 -322q0 -73 -25 -154q-34 -115 -135 -275l-218 166q14 11 32 38q43 63 103 191q56 121 56 183q0 59 -50 59q-61 0 -184 -84q-77 -53 -134 -98v-616l-264 178v266q-83 -59 -192 -54q-60 3 -143 50 q-88 51 -158 128t-75 194v422h-143l-126 235h1780zM711 742v442h-304v-548q-6 -69 36 -69q50 0 268 175z"/>
            <glyph unicode="&#x92c;" horiz-adv-x="1321"
                   d="M1450 1184h-298v-1184l-263 178v232q-125 -163 -393 -155q-120 4 -228 75q-116 77 -168 203q-36 86 -36 173q0 136 82 234q86 103 238 126q40 6 79 6q261 0 426 -224v336h-889l-126 235h1450zM889 690v72q-127 86 -235 101q-98 14 -152 0l186 -336q32 20 109 78 q49 40 92 85zM545 461l-187 347q-28 -15 -94 -83q-44 -61 -44 -124q0 -121 133 -157q30 -8 65 -8q65 0 127 25z"/>
            <glyph unicode="&#x92d;" horiz-adv-x="1542"
                   d="M1680 1184h-298v-1184l-264 178v335h-393v-123q-14 -81 -98 -81q-9 0 -19 1q-65 7 -175 112q-118 112 -135 206q-3 15 -3 29q0 86 98 88h89v129q-35 0 -158 23q-88 23 -156 95q-77 82 -77 183q0 33 9 66q23 87 104 137q75 46 172 46q81 0 149 -34q203 -101 200 -361v-284 h393v439h-172l-126 235h734zM482 957v212q-1 132 -75 132q-11 0 -23 -3q-82 -23 -82 -145q0 -67 28 -112q47 -75 152 -84z"/>
            <glyph unicode="&#x92e;" horiz-adv-x="1339"
                   d="M1479 1184h-298v-1184l-264 178v344h-438v-81q1 -113 -90 -113q-10 0 -22 2q-51 8 -165 137q-117 131 -125 198q-11 85 86 95h55v424h-218l-126 235h1479zM917 1184h-438v-424h438v424z"/>
            <glyph unicode="&#x92f;" horiz-adv-x="1313"
                   d="M1450 1184h-298v-1184l-263 178v213q-137 -62 -285 -62q-249 0 -386 201q-85 125 -141 373q67 17 270 95q74 33 74 89q0 47 -48 97h-373l-126 235h1450zM889 705v479h-370q81 -113 81 -212q0 -36 -12 -66q-46 -114 -310 -192q30 -150 212 -150q16 0 32 1q111 8 225 58 q90 39 142 82z"/>
            <glyph unicode="&#x930;" horiz-adv-x="924"
                   d="M1080 1184h-372v-427q-8 -24 -21 -48q-31 -56 -79 -101q-77 -72 -178 -86l338 -416l-117 -106l-427 545q-10 11 -69 97q-49 73 -49 141q0 89 83 106q11 2 21 2q66 0 114 -71q54 -4 80 17q32 26 40 66v281h-444l-126 235h1080z"/>
            <glyph unicode="&#x931;" horiz-adv-x="924"
                   d="M1052 1184h-344v-427q-8 -24 -21 -48q-31 -56 -79 -101q-77 -72 -178 -86l338 -416l-117 -106l-427 545q-10 11 -69 97q-49 73 -49 141q0 89 83 106q11 2 21 2q66 0 114 -71q54 -4 80 17q32 26 40 66v281h-444l-126 235h1052zM378 135l-186 -187l-186 190l186 186z"/>
            <glyph unicode="&#x932;" horiz-adv-x="1479"
                   d="M1622 1184h-298v-1184l-263 178v647q-102 -26 -181 -111q-66 -72 -149 -230l-215 144q13 18 57 89q12 21 40 66q-50 46 -117 46q-39 0 -78 -18q-131 -61 -131 -254q0 -84 28 -147q78 -179 270 -290l-78 -97q-47 36 -192 166q-85 82 -150 198q-93 166 -88 324 q4 138 95 231t217 93q55 0 110 -20q107 -40 183 -149q26 27 109 83q61 31 130 31q70 0 140 -31v235h-1061l-126 235h1622z"/>
            <glyph unicode="&#x933;" horiz-adv-x="1538"
                   d="M1685 1184h-473v-241q226 -136 226 -422q0 -24 -2 -48q-12 -159 -91 -267q-81 -111 -210 -137q-28 -6 -56 -6q-171 0 -302 178q-142 -177 -316 -177q-99 0 -194 65q-188 128 -188 382q0 182 101 314q109 142 281 144q162 2 296 -181q20 30 69 89q47 46 129 83v224h-955 l-126 235h1685zM1162 788q-104 0 -185 -146q-70 -126 -140 -292q62 -58 140 -58q93 0 178 92q43 47 71.5 125.5t28.5 148.5q0 130 -93 130zM702 714q-72 44 -150 44q-159 0 -248 -196q-29 -64 -29 -136q0 -98 46 -148q22 -24 54 -24q89 0 170 133q85 141 157 327z"/>
            <glyph unicode="&#x934;" horiz-adv-x="1538"
                   d="M1685 1184h-473v-212q226 -136 226 -422q0 -24 -2 -48q-12 -159 -92 -269t-209 -136q-28 -6 -56 -6q-171 0 -302 178q-142 -176 -316 -176q-98 0 -194 65q-188 128 -188 382q0 182 101 314q109 142 281 144q162 2 296 -181q20 30 69 89q47 46 129 83v195h-955l-126 235 h1685zM1161 816q-104 0 -184 -145q-70 -126 -140 -293q62 -57 139 -57q93 0 179 92q43 47 71.5 125t28.5 148q0 130 -94 130zM702 742q-72 44 -150 44q-159 0 -248 -196q-29 -64 -29 -136q0 -97 46 -147q22 -24 54 -24q89 0 170 133q85 141 157 326zM937 -95l-186 -186 l-186 189l186 187z"/>
            <glyph unicode="&#x935;" horiz-adv-x="1278"
                   d="M1422 1184h-298v-1184l-264 178v248q-140 -188 -347 -188q-155 0 -280 111t-153 279q-4 25 -4 50q0 147 114 256q118 111 277 104q281 -13 393 -215v361h-860l-126 235h1422zM860 685v47q-112 88 -263 88q-76 0 -153 -26q-90 -31 -148 -98t-58 -133q0 -37 20 -64 q34 -46 133 -46q128 0 234 57q163 88 235 175z"/>
            <glyph unicode="&#x936;" horiz-adv-x="1599"
                   d="M1737 1184h-298v-1184l-264 178v1006h-441q35 -43 62 -86q66 -103 84 -189q12 -57 12 -113q0 -170 -112 -340q-88 -133 -261 -204l200 -249l-108 -89l-233 304q-22 -6 -51 -6q-66 0 -121 35q-107 68 -107 168q0 20 4 41q20 117 134 117q32 0 61 -14q67 -32 115 -89 q21 10 42 24q51 35 92 85q48 59 72 109q-87 8 -159 29q-172 52 -242 163q-40 64 -40 146q0 81 34 158h-212l-126 235h1737zM659 1003q-14 93 -72 142q-45 39 -94 39q-43 -4 -69 -49t-26 -105q0 -52 20 -96q48 -109 224 -160q22 75 22 157q0 37 -5 72z"/>
            <glyph unicode="&#x937;" horiz-adv-x="1307"
                   d="M1450 1184h-298v-1184l-263 178v159q-60 -24 -144 -24q-121 0 -238 57q-192 93 -335 301v513h-172l-126 235h1450zM889 1184h-453l453 -427v427zM866 605l-430 393v-373q3 -39 15 -68q30 -69 102 -73q117 -7 313 121z"/>
            <glyph unicode="&#x938;" horiz-adv-x="1482"
                   d="M1622 1184h-298v-1184l-263 178v375q-85 -24 -162 -24q-40 0 -73 7q-99 20 -198 120q-12 -18 -78 -71q-54 -34 -120 -63l338 -416l-117 -106l-427 545q-10 11 -69 97q-49 73 -49 141q0 89 83 106q11 2 21 2q66 0 114 -71q17 0 63 23q29 24 29 54v287h-416l-126 235h1622z M1061 857v327h-382v-396q53 -35 126 -35q23 0 46 4q122 21 210 100z"/>
            <glyph unicode="&#x939;" horiz-adv-x="1090"
                   d="M1276 1184h-416v-390h-507q-12 0 -21 -5q-23 -12 -31 -44q-2 -10 -2 -20q0 -54 59 -97q88 45 206 45q55 0 110 -11q147 -30 236 -144q73 -94 76 -194q5 -170 -158 -241l-166 192q40 18 69 40q71 52 77 115q8 85 -122 85q-134 0 -222 -88q-91 -91 -91 -186q0 -67 48 -126 q102 -127 353 -190l-40 -103q-68 24 -278 121q-282 144 -316 358q-3 20 -3 40q0 125 110 218q-30 28 -54 56q-59 69 -81 130q-19 53 -19 98q0 175 260 189h246v152h-599l-126 235h1275z"/>
            <glyph unicode="&#x93c;" d="M-396 -95l-186 -186l-186 189l186 187z"/>
            <glyph unicode="&#x93d;" horiz-adv-x="1267"
                   d="M1101 1184h-402q-111 2 -120 -78q-13 -112 292 -490q130 -162 130 -300q0 -125 -107 -216q-115 -97 -258 -97q-197 0 -361 186q-120 136 -189 281l106 66q34 -72 74 -127q97 -133 210 -162q32 -8 65 -8q88 0 149.5 54t61.5 137q0 58 -33 120q-38 70 -156.5 238 t-175.5 273q-51 94 -51 167q0 164 229 191h412z"/>
            <glyph unicode="&#x93e;" horiz-adv-x="608" d="M734 1184h-298v-1184l-264 178v1006h-172l-126 235h734z"/>
            <glyph unicode="&#x93f;" horiz-adv-x="608"
                   d="M1190 1470q-37 72 -87 135q-119 150 -283 227q-88 41 -190 41q-148 0 -240 -84q-99 -91 -99 -277q0 -50 7 -93h310l126 -235h-298v-1184l-264 178v1006h-172l-126 235h318q-87 147 -87 292q0 165 127 273q113 96 271 96q190 0 354 -114q227 -159 333 -367v-129z"/>
            <glyph unicode="&#x940;" horiz-adv-x="608"
                   d="M734 1184h-298v-1184l-264 178v1006h-172l-126 235h387q-11 56 -23 105q-28 118 -57 179q-94 198 -254 198q-38 0 -82 -9q-57 -12 -95 -60q-42 -54 -42 -132q0 -90 45 -184h-100q-15 25 -28 55q-30 71 -43 155q-7 46 -7 91q0 280 221 321q36 7 70 7q292 0 435 -460 q45 -144 72 -266h235z"/>
            <glyph unicode="&#x941;"
                   d="M3 -396q-48 -172 -247 -172q-109 0 -226 64q-163 89 -401 315l66 74q46 -48 91 -89q109 -99 195 -146q96 -52 181 -52q98 0 177 67q48 41 48 102q0 57 -39 72q-26 10 -51 10q-88 0 -155 -104l-146 158q75 93 202 93q17 0 35 -2q124 -14 204 -108q77 -90 77 -205 q0 -39 -11 -77z"/>
            <glyph unicode="&#x942;"
                   d="M315 -556l-63 -57l-117 143q-111 131 -166 180q-93 84 -181 101q-28 5 -54 5q-92 0 -155 -59q-57 -53 -57 -118q0 -54 45 -80q23 -13 51 -13q80 0 184 90l132 -132q-86 -98 -209 -98q-101 0 -207 75q-129 91 -129 253q0 115 80 190t193 75q194 0 361 -203z"/>
            <glyph unicode="&#x943;"
                   d="M-23 -504q-137 -87 -290 -87q-98 0 -186 41q-113 52 -179 147q-62 91 -62 193q0 164 150 259q118 75 179 75q14 0 21 -4l247 -180q-129 6 -278 -58q-174 -75 -174 -177q0 -45 38 -74.5t96 -28.5q173 3 298 108z"/>
            <glyph unicode="&#x944;"
                   d="M-6 -760q-121 -54 -289 -54q-267 0 -367 175q-38 67 -38 131q0 94 72 158q-33 18 -59 36q-63 45 -81.5 88.5t-18.5 80.5q0 103 128 134h252v229h264v-387h-419q-82 1 -82 -45q0 -15 11 -35q19 -35 80 -41h418v-177h-364q-89 -44 -89 -104q0 -25 18 -51q26 -37 121 -37 q87 0 202 28q122 30 241 75v-204z"/>
            <glyph unicode="&#x945;"
                   d="M-75 1803q-18 -30 -108 -126q-136 -126 -286 -126q-162 0 -316 155q-102 103 -155 229l92 54q14 -32 31 -61q42 -70 92 -116q85 -79 176 -79q87 0 196 79q85 61 121 149z"/>
            <glyph unicode="&#x946;"
                   d="M-183 1399h-98q2 16 2 37q0 201 -160 204q-163 3 -240 23q-127 34 -175 131q-33 67 -33 165q0 83 21 165h104q-16 -65 -16 -122q0 -90 45 -117t185.5 -32.5t197.5 -35.5q170 -89 167 -418z"/>
            <glyph unicode="&#x947;"
                   d="M-212 1387h-98l-123 247q-21 39 -45 71q-57 78 -118 112q-92 51 -161 32l-63 261q20 4 46 4q134 0 235 -102q123 -124 227 -398z"/>
            <glyph unicode="&#x948;"
                   d="M-178 1384h-83l-120 253q-20 39 -45 73q-59 83 -130 130q-100 66 -218 69l-60 235q205 6 327 -106q60 -55 122 -158q56 -91 52 -91zM-364 1384h-83l-78 121q-12 14 -27 26q-38 30 -90 48q-69 23 -132 9l-80 201q89 0 183 -35q107 -40 175 -140z"/>
            <glyph unicode="&#x949;" horiz-adv-x="599"
                   d="M699 1803q-19 -30 -109 -126q-136 -126 -285 -126q-162 0 -316 155q-102 103 -155 229l91 54q14 -32 32 -61q42 -70 92 -116q85 -79 176 -79q87 0 196 79q85 61 121 149zM734 1184h-298v-1184l-264 178v1006h-172l-126 235h734z"/>
            <glyph unicode="&#x94a;" horiz-adv-x="611"
                   d="M734 1184h-298v-1184l-264 178v1006h-172l-126 235h391q10 218 -159 221q-163 3 -240 23q-129 34 -176 131q-32 66 -32 164q0 83 21 166h103q-15 -64 -15 -120q0 -91 45 -118.5t185.5 -33t197.5 -35.5q167 -88 167 -398h246z"/>
            <glyph unicode="&#x94b;" horiz-adv-x="611"
                   d="M734 1184h-298v-1184l-264 178v1006h-172l-126 235h431l-107 215q-21 39 -45 71q-58 78 -119 112q-92 51 -160 32l-63 261q20 4 46 4q134 0 235 -102q123 -124 226 -398l87 -195h203z"/>
            <glyph unicode="&#x94c;" horiz-adv-x="611"
                   d="M734 1184h-298v-1184l-264 178v1006h-172l-126 235h287l-55 86q-12 14 -27 26q-38 30 -90 48q-69 23 -132 9l-81 201q90 0 184 -35q107 -40 175 -140l112 -195h106l-104 218q-20 39 -44 73q-59 83 -130 130q-100 66 -218 69l-61 235q205 6 327 -106q60 -55 123 -158 q56 -91 52 -91l142 -370h168z"/>
            <glyph unicode="&#x94d;"
                   d="M393 -625l-55 -54q-64 75 -124 135q-143 144 -240 191q-76 37 -167 37q-69 0 -128 -19l-129 223q115 18 221 9q100 -9 203 -93q56 -45 224 -222z"/>
            <glyph unicode="&#x950;" horiz-adv-x="2540"
                   d="M1677 1634l-195 -161l-161 195l195 164zM2024 1422q-16 -34 -39 -66q-53 -77 -125 -132q-152 -116 -318 -116q-224 0 -375 205q-69 93 -129 241l117 45q17 -50 92 -169q86 -103 227 -103q125 0 215.5 79.5t127.5 170.5zM2422 588q-17 -166 -97 -282q-94 -135 -239 -135 q-56 0 -117 21q-109 37 -218 215q-25 -55 -64 -94q-95 -94 -245 -95q-149 -1 -341 215q5 -273 -227 -341q-55 -16 -111 -16q-260 0 -482 314q-90 128 -161 324l127 43q21 -62 50 -117q68 -133 159 -210q94 -80 218 -80q177 0 252 132q22 39 22 91q0 77 -42 161 q-38 -16 -152 -52l-189 -51l-129 246q73 18 272 72q96 28 154 79q54 47 54 94q0 92 -174 82q-146 -8 -344 -75l-123 267q167 45 316 45q186 0 316 -91q136 -96 185 -275q10 -37 10 -74q0 -115 -84 -207q23 -46 88 -152q130 -187 238 -187q65 0 132 68q29 30 109 139l104 152 q79 111 154 173q102 84 209 94q18 2 35 2q162 0 255 -140q83 -123 83 -296q0 -30 -3 -59zM2242 616q21 93 21 161q0 121 -63 121q-62 0 -173 -118q-90 -96 -213 -284q22 -30 49 -53q64 -54 141 -62q75 -8 139 48q71 64 99 187z"/>
            <glyph unicode="&#x951;" d="M-157 1524h-240l-2 606h241z"/>
            <glyph unicode="&#x952;" d="M-101 -376h-1133v181h1133v-181z"/>
            <glyph unicode="&#x953;" horiz-adv-x="808" d="M593 1522h-157l-290 439h321z"/>
            <glyph unicode="&#x954;" horiz-adv-x="808" d="M654 1961l-290 -439h-158l127 439h321z"/>
            <glyph unicode="&#x958;" horiz-adv-x="1637"
                   d="M1763 1184h-771v-293q25 19 51 33q62 34 118 36q157 7 266 -153q95 -138 95 -291q0 -21 -3 -40q-26 -194 -146 -353l-209 149q30 43 54 83q58 96 78 158q36 113 36 174q0 73 -52 73q-39 0 -108 -41q-85 -50 -180 -143v-576l-261 178v235q-245 -96 -253 -96 q-144 0 -267 113q-138 128 -136 318q1 121 87 213q94 100 236 100q59 0 121 -18q112 -33 212 -157v298h-731l-126 235h1763zM731 714q-22 37 -49 66q-64 70 -143 86q-20 4 -40 4q-99 0 -180 -82q-77 -78 -77 -163q0 -23 7 -43q24 -67 124 -67q85 0 177 44q122 59 181 155z M464 106l-186 -186l-186 189l186 186z"/>
            <glyph unicode="&#x959;" horiz-adv-x="1792"
                   d="M1938 1184h-298v-1184l-264 178v40q-253 -141 -489 -141q-131 0 -248 46q-144 57 -288 207q-127 131 -202 275q-60 115 -60 200q0 67 46 86q14 6 28 6q51 0 98 -63q27 -10 46 9q13 13 14 69v272h-321l-126 235h1938zM1376 778v4q-110 104 -255 124q-23 3 -44 3 q-107 0 -175 -72q-57 -61 -57 -131q0 -93 121 -93q95 0 195 49q135 66 215 116zM1376 1184h-794v-404q-3 -26 -13 -51q-22 -58 -70 -96q-69 -54 -178 -65q15 -35 40 -68q61 -79 164 -136q163 -90 373 -90q45 0 82 7q178 32 396 170v127q-161 -136 -342 -136q-18 0 -36 2 q-118 10 -202 125q-79 107 -79 230q0 134 84 217.5t212 83.5q178 0 363 -226v310zM436 106l-187 -186l-186 189l186 186z"/>
            <glyph unicode="&#x95a;" horiz-adv-x="1270"
                   d="M1399 1184h-275v-1184l-264 178v1006h-333v-594q3 -110 -80 -120q-71 -9 -201 97q-120 98 -151 167q-11 23 -11 44q0 59 74 85h109v321h-267l-126 235h1399zM550 106l-186 -186l-186 189l186 186z"/>
            <glyph unicode="&#x95b;" horiz-adv-x="1528"
                   d="M1668 1184h-286v-1184l-264 178v556h-344q27 -27 86 -129q27 -63 27 -128q0 -170 -168 -233q-45 -17 -95 -17q-191 0 -343 209q-128 176 -206 421l111 49q17 -58 39 -112q52 -130 119 -215q81 -104 183 -104q86 0 121 55q20 30 20 70q0 92 -138 283q-17 24 -17 46 q0 46 46 46h559v209h-1118l-126 235h1668zM436 106l-187 -186l-186 189l186 186z"/>
            <glyph unicode="&#x95c;" horiz-adv-x="1333"
                   d="M1482 1184h-393v-373h-579q-23 -9 -60 -40q-21 -32 -21 -65q0 -36 23 -61t51 -25q8 0 16 2q266 85 382 85q137 0 225 -105q105 -125 105 -267q0 -201 -228 -301q-80 -35 -176 -35q-232 0 -460 199q-168 147 -290 301l95 80q539 -360 552 -360q128 0 240.5 64.5 t112.5 142.5q0 74 -66 74q-44 0 -189.5 -45.5t-204.5 -45.5q-22 0 -38 4q-115 31 -221 166.5t-106 250.5q0 83 63 145q61 59 146 66h367v143h-828l-126 235h1482zM998 -241l-193 -192l-194 195l192 189z"/>
            <glyph unicode="&#x95d;" horiz-adv-x="1159"
                   d="M1304 1184h-392v-379h-479q-178 -56 -178 -235q0 -30 6 -63q36 -202 241 -235q-28 90 -28 177q0 205 162 253q45 13 90 13q131 0 222.5 -103.5t91.5 -250.5q0 -20 -2 -40q-12 -127 -121 -212t-255 -85q-128 0 -241 71q-145 91 -238 233q-101 155 -101 316q0 41 7 81 q45 261 295 295h267v164h-651l-126 235h1304zM891 467q-21 66 -106 66q-94 0 -149 -77q-47 -66 -43 -192q71 5 169 20q134 49 134 151q0 16 -5 32zM860 -247l-192 -189l-192 192l189 192z"/>
            <glyph unicode="&#x95e;" horiz-adv-x="1643"
                   d="M1780 1184h-805v-267q87 43 182 43q118 0 207 -74q154 -129 154 -298q0 -70 -22 -152q-31 -114 -132 -273l-209 164q26 40 112 198q59 118 59 191q0 72 -57 72q-56 0 -153.5 -68.5t-140.5 -111.5v-608l-264 178v263q-75 -36 -156 -36q-19 0 -36 2q-137 16 -301 178 q-72 71 -75 177v422h-143l-126 235h1780zM711 742v442h-304v-502q-8 -94 50 -94q18 0 42 11q107 48 212 143zM550 178l-189 -187l-189 190l186 189z"/>
            <glyph unicode="&#x95f;" horiz-adv-x="1313"
                   d="M1450 1184h-298v-1184l-263 178v213q-137 -62 -285 -62q-249 0 -386 201q-85 125 -141 373q67 17 270 95q74 33 74 89q0 47 -48 97h-373l-126 235h1450zM889 705v479h-370q81 -113 81 -212q0 -36 -12 -66q-46 -114 -310 -192q30 -150 212 -150q16 0 32 1q111 8 225 58 q90 39 142 82zM464 106l-186 -186l-186 189l186 186z"/>
            <glyph unicode="&#x960;" horiz-adv-x="1976"
                   d="M2104 1184h-1061v-379q54 -17 101 -17q26 0 46 6q79 23 91 92q-44 66 -40 132q5 83 110 83q36 0 82 -12q219 -59 219 -161q0 -30 -21 -62q-13 -16 -43 -43l175 -192v-244h-399q-17 -5 -30 -11q-29 -14 -30 -32q-1 -34 69 -43h453v-166h-384q-16 -2 -28 -9 q-29 -16 -32 -54q-6 -84 160 -84q67 0 143 15q96 18 244 86v-224q-36 -15 -77 -27q-99 -27 -210 -30q-135 -3 -234 48q-108 56 -138 161q-6 22 -6 44q0 86 83 151q-183 42 -183 178q0 138 175 163h189v60l-95 98q-28 -14 -58 -26q-71 -27 -137 -34q-77 -8 -195 46v-697 l-263 178v312l-367 -286l-195 189l536 387q-103 70 -204 70q-73 0 -163 -41q-86 -40 -140 -95l-152 235q24 20 53 37q68 41 147 60q46 11 93 11q147 0 294 -102l98 -69v298h-780l-126 235h2104z"/>
            <glyph unicode="&#x961;" horiz-adv-x="1648"
                   d="M1800 1184h-593v-175q65 0 154 -92q127 -132 127 -355q0 -98 -107 -200q-43 -42 -200 -155q-111 -79 -115 -118q-2 -17 -2 -28q0 -61 77 -61q120 69 304 100l100 -197q-139 -6 -373 -81q-114 -36 -114 -111q0 -38 33 -72q45 -47 142 -47q30 0 65 4q64 8 190 60l106 -178 q-177 -65 -319 -65q-47 0 -85 8q-198 40 -253 244q-7 25 -7 51q0 111 108 200q-89 72 -106 121q-25 70 -25 125q0 87 67 162q48 54 186 155q165 120 165 211q0 65 -44.5 115.5t-108.5 50.5q-185 0 -346 -426l-230 158q16 30 66 114q-46 81 -155 81q-96 0 -154 -72.5 t-58 -177.5q0 -264 353 -490l-101 -109q-490 383 -490 705q0 169 105 282q101 108 239 108q184 0 333 -212q26 30 89 95q40 37 114 86v186h-937l-126 235h1794z"/>
            <glyph unicode="&#x962;"
                   d="M38 -696q-78 -13 -153 -13q-122 0 -176 37q-45 30 -61 47q-26 26 -42 67q-20 54 -20 99q0 71 53 134q22 27 116 108q50 43 68 76q22 40 22 69q0 34 -27 44q-11 4 -25 4q-70 0 -152 -75q-75 -69 -144 -211l-135 114q24 46 52 90q-42 40 -96 40q-55 0 -96 -39.5t-41 -97.5 q0 -76 76 -149q164 -158 232 -197l-85 -96l-101 86q-119 108 -208 214q-85 101 -85 218q0 93 60 152q66 64 188 64q133 0 228 -106q139 106 233 106q128 0 201 -70q66 -62 66 -154q0 -93 -66 -160l-171 -145q-40 -35 -40 -64q0 -12 6 -28q12 -32 78 -32q76 0 174 32z"/>
            <glyph unicode="&#x963;"
                   d="M91 -768q-104 -31 -192 -31q-42 0 -74 8q-163 41 -194 150q-4 15 -4 30q0 45 43 112q-29 21 -92 90q-27 38 -27 71q0 55 105 121q61 32 167 105q32 29 32 59q0 39 -37 53q-16 6 -36 6q-88 0 -164.5 -70.5t-139.5 -187.5l-149 86q12 23 46.5 53t38.5 36q-48 51 -106 51 q-53 0 -91 -40.5t-38 -98.5q0 -83 78 -158q137 -132 226 -183l-85 -96q-50 37 -98 79q-116 100 -205 206q-85 101 -85 218q0 94 60 152q66 65 188 65q133 0 228 -106q79 106 233 106q115 0 183 -70q60 -61 60 -147q0 -88 -62 -136q-21 -16 -141 -90q-93 -57 -89 -68 q11 -29 71 -29q78 0 198 39l68 -158q-87 -30 -166 -30q-24 0 -45 3q-47 -10 -47 -44q0 -32 31 -51q27 -17 61 -17q98 0 184 71z"/>
            <glyph unicode="&#x964;" horiz-adv-x="955" d="M811 -3l-269 112v1330l269 -103v-1339z"/>
            <glyph unicode="&#x965;" horiz-adv-x="1218"
                   d="M1126 -3l-240 112v1330l240 -103v-1339zM668 -3l-241 112v1330l241 -103v-1339z"/>
            <glyph unicode="&#x966;" horiz-adv-x="1287"
                   d="M1098 995q61 -102 61 -210q0 -243 -265 -421q-154 -103 -336 -103q-223 0 -354 169q-83 107 -83 233q0 121 75.5 236.5t207.5 198.5q157 99 326 99q247 0 368 -202zM823 877q-160 98 -258 98q-35 0 -58 -15q-99 -63 -99 -204q0 -93 53 -163q87 -116 215 -116q62 0 118 33 q89 54 89 177q0 97 -60 190z"/>
            <glyph unicode="&#x967;" horiz-adv-x="1049"
                   d="M912 1129q19 -49 19 -101q0 -131 -103 -251l-315 -324q22 -21 86 -89l169 -186q112 -129 138 -195q11 -27 11 -54q0 -77 -77 -135l-284 157q81 39 81 91q0 84 -253 351q-69 73 -178 175l187 186q-36 29 -68 60q-77 73 -121 143q-76 122 -76 239q0 111 67.5 188.5 t182.5 94.5q29 4 59 4q152 0 288 -104q130 -101 187 -250zM625 1015q32 76 32 138q0 123 -107 148q-18 4 -35 4q-74 0 -123 -68q-47 -63 -47 -148q0 -71 38 -146t96 -115q32 30 59 59q63 71 87 128z"/>
            <glyph unicode="&#x968;" horiz-adv-x="1241"
                   d="M1135 912q-8 -236 -188 -368q-75 -55 -179 -85l313 -531l-149 -89l-333 579q-17 -4 -40 -4q-102 0 -186 85q-54 55 -54 162q0 77 35 131q40 62 116 71q93 11 135 -141q73 13 131 39q139 64 184 182q21 57 21 113q0 176 -181 176q-64 0 -147 -25q-171 -52 -306 -181 l-187 250q196 177 475 177q45 0 90 -5q178 -20 312 -165q145 -157 138 -371z"/>
            <glyph unicode="&#x969;" horiz-adv-x="1276"
                   d="M1155 616q10 -41 10 -80q0 -170 -190 -295q-47 -31 -124 -52l218 -295l-146 -112l-269 390q-20 -3 -43 -3q-127 0 -213 80q-64 59 -64 149q0 62 31 115t76 69q23 6 42 6q61 0 108 -68q51 -73 80 -79q20 -8 45 -8q66 0 135.5 52.5t91.5 119.5q9 19 9 36q0 52 -80 77 q-68 21 -84 13h-347q0 -9 -65 13q-69 25 -92 87q-15 42 -15 76q0 58 41 89q36 25 45 16h350q11 -2 31 -2q156 0 156 85q0 18 -9 40q-164 78 -164 75h-472l-138 269h616q80 -6 141 -42q147 -86 177 -308q3 -23 3 -48q0 -130 -71 -241q153 -111 180 -224z"/>
            <glyph unicode="&#x96a;" horiz-adv-x="1594"
                   d="M1488 1261l-445 -456q248 -226 244 -407q-3 -145 -120.5 -244t-284.5 -99q-21 0 -42 2q-163 14 -279 114q-126 110 -126 269q0 211 276 429l-545 424l132 129l530 -447l468 484zM1041 565q-37 75 -127 149q-47 -42 -85 -82q-91 -96 -121 -162q-23 -50 -23 -109 q0 -76 37 -126q41 -57 115 -57q83 0 156 78q77 83 77 189q0 61 -29 120z"/>
            <glyph unicode="&#x96b;" horiz-adv-x="1482"
                   d="M1399 -11l-166 -75l-299 542q-114 -59 -247 -59q-125 0 -234 59q-144 77 -232 205q-97 140 -103 311q-8 210 86 481l309 -223q-27 -47 -106 -290q-20 -76 -20 -135q0 -213 226 -197q112 8 175 126q-48 76 -48 139q0 68 63 99q26 13 63 13q88 0 177 -56q97 -61 115 -144 q5 -21 5 -42q0 -98 -91 -173z"/>
            <glyph unicode="&#x96c;" horiz-adv-x="1296"
                   d="M1247 -106l-158 -98l-180 359q-42 -8 -97 -8q-74 0 -144 16q-131 30 -252 131q-125 106 -169 231q-14 42 -14 87q0 121 91 236q-32 29 -62 61q-70 75 -113 149q-39 67 -39 146q0 227 308 258q49 5 102 5q174 0 354 -45l101 -261q-112 13 -350 29q-105 3 -195 -28 q-96 -34 -96 -86q0 -16 10 -33q38 -61 209 -57h313q29 -10 53 -27q56 -41 76 -113q5 -17 5 -32q0 -94 -166 -95h-244q-123 -94 -123 -199q0 -48 29 -93q51 -77 139 -77q64 0 130 37q-29 40 -29 84q0 41 30.5 75.5t105.5 34.5q99 0 186 -55q96 -60 91 -142q-6 -96 -83 -155z "/>
            <glyph unicode="&#x96d;" horiz-adv-x="1511"
                   d="M1405 665q12 -271 -158 -437q-152 -147 -363 -147q-102 0 -187 39q-161 75 -292 245.5t-201 396.5q-84 274 -81 660h178q-3 -37 -3 -89q0 -379 141 -662q68 -136 171.5 -217.5t205.5 -81.5q106 0 200 59q105 66 116 165q-59 -31 -135 -31q-121 0 -235 86 q-176 132 -176 324q0 123 79.5 213.5t211.5 101.5q17 1 34 1q227 0 372 -240q113 -187 122 -386zM991 1085q-86 0 -140 -67q-48 -59 -48 -132q0 -93 63 -124q21 -10 47 -10q89 0 159 82q42 49 42 117q0 53 -29 93.5t-94 40.5z"/>
            <glyph unicode="&#x96e;" horiz-adv-x="1319"
                   d="M1227 364q-280 -333 -580 -333q-111 0 -214 52q-320 161 -320 416q0 117 62 220l673 766l170 -278l-591 -668q-59 -100 -59 -176q0 -106 128 -119q234 -23 542 387z"/>
            <glyph unicode="&#x96f;" horiz-adv-x="1215"
                   d="M1046 310q73 -77 73 -159q0 -131 -162 -240l-240 198q30 20 51 39q52 46 55 78q6 70 -124 198l-266 250q-145 145 -211 240q-99 142 -99 262q0 77 40 148q105 188 335 188q212 0 379 -148q159 -141 159 -332q0 -114 -73 -201q-96 -115 -321 -134zM636 1278 q-112 0 -180 -100q-42 -61 -42 -135q0 -75 39 -143q17 -3 39 -3q141 0 222 98q61 73 61 160q0 63 -39 93t-100 30z"/>
            <glyph unicode="&#x970;" horiz-adv-x="1109"
                   d="M975 697q0 -171 -122.5 -293.5t-293.5 -122.5t-293.5 122.5t-122.5 293.5t122.5 293t293.5 122t293.5 -122t122.5 -293zM814 697q0 106 -74.5 180.5t-180.5 74.5t-180.5 -74.5t-74.5 -180.5t74.5 -181t180.5 -75t180.5 75t74.5 181z"/>
            <glyph unicode="&#x2000;" horiz-adv-x="1075"/>
            <glyph unicode="&#x2001;" horiz-adv-x="2150"/>
            <glyph unicode="&#x2002;" horiz-adv-x="1075"/>
            <glyph unicode="&#x2003;" horiz-adv-x="2150"/>
            <glyph unicode="&#x2004;" horiz-adv-x="716"/>
            <glyph unicode="&#x2005;" horiz-adv-x="537"/>
            <glyph unicode="&#x2006;" horiz-adv-x="358"/>
            <glyph unicode="&#x2007;" horiz-adv-x="358"/>
            <glyph unicode="&#x2008;" horiz-adv-x="268"/>
            <glyph unicode="&#x2009;" horiz-adv-x="430"/>
            <glyph unicode="&#x200a;" horiz-adv-x="119"/>
            <glyph unicode="&#x200c;" d="M79 -1072h-152v3015h152v-3015z"/>
            <glyph unicode="&#x200d;"
                   d="M350 1372l-121 -110l-144 141v-2368l-152 3v2383l-162 -159l-121 110l233 230l-233 232l115 115l235 -233l235 233l115 -115l-233 -232z"/>
            <glyph unicode="&#x2010;" horiz-adv-x="785" d="M703 508h-618v185h618v-185z"/>
            <glyph unicode="&#x2011;" horiz-adv-x="785" d="M703 508h-618v185h618v-185z"/>
            <glyph unicode="&#x2012;" horiz-adv-x="785" d="M703 508h-618v185h618v-185z"/>
            <glyph unicode="&#x2013;" horiz-adv-x="1908" d="M1785 805h-1674v166h1674v-166z"/>
            <glyph unicode="&#x2014;" horiz-adv-x="2454" d="M2347 805h-2236v166h2236v-166z"/>
            <glyph unicode="&#x2018;" horiz-adv-x="658"
                   d="M541 1548q-165 0 -245 -101q-45 -57 -48 -136q44 40 107 40q64 0 110 -39q49 -43 47 -108q-3 -78 -53 -124q-45 -42 -111 -42q-81 0 -138 60q-64 69 -64 187q0 178 135 273q110 77 260 74v-84z"/>
            <glyph unicode="&#x2019;" horiz-adv-x="658"
                   d="M512 1660q0 -178 -135 -273q-110 -77 -260 -74v84q166 0 246 101q45 57 48 136q-44 -40 -107 -40q-64 0 -111 39q-49 43 -47 108q3 78 53 124q45 42 111 42q81 0 138 -60q64 -69 64 -187z"/>
            <glyph unicode="&#x2022;" horiz-adv-x="917"
                   d="M741 983q0 -125 -87.5 -212.5t-212.5 -87.5t-212.5 87.5t-87.5 212.5q0 126 87 213t213 87q125 0 212.5 -87.5t87.5 -212.5z"/>
            <glyph unicode="&#x2024;" horiz-adv-x="654"
                   d="M473 1142q0 -59 -41 -100t-100 -41t-100 41t-41 100t41 100t100 41t100 -41t41 -100z"/>
            <glyph unicode="&#x2026;" horiz-adv-x="1375"
                   d="M1258 136q3 -59 -35 -103.5t-95 -47.5q-55 -3 -97 41.5t-45 105.5t39 104q39 41 95 44q58 3 96.5 -38.5t41.5 -105.5zM838 136q3 -59 -35 -103.5t-95 -47.5q-55 -3 -97 41.5t-45 105.5t39 104q39 41 95 44q58 3 96.5 -38.5t41.5 -105.5zM419 136q3 -59 -35.5 -103.5 t-95.5 -47.5q-55 -3 -97 41.5t-45 105.5t39 104q39 41 95 44q58 3 97 -38.5t42 -105.5z"/>
            <glyph unicode="&#x202f;" horiz-adv-x="430"/>
            <glyph unicode="&#x205f;" horiz-adv-x="537"/>
            <glyph unicode="&#x20ac;" horiz-adv-x="1246"
                   d="M1201 290q-112 -177 -209 -251q-125 -97 -302 -97q-268 0 -415 220q-118 176 -142 461h-121l35 119h80v3q0 17 2 61h-117l35 119h94q42 272 191 446q171 200 433 200q197 0 401 -106v-364h-73q-30 365 -328 365q-174 0 -274 -187q-73 -137 -99 -354h674l-35 -119h-649 q-2 -25 -2 -64h632l-35 -119h-596q-8 -188 77 -355q102 -200 277 -200q139 0 233 67q71 51 173 193z"/>
            <glyph unicode="&#x25cc;" horiz-adv-x="1690"
                   d="M1588 798l-169 -38q-41 270 -247 426l107 126q268 -192 309 -514zM1141 1393l-56 -157q-130 52 -253 52q-126 0 -237 -54l-51 159q155 68 304 68q150 0 293 -68zM1584 625q-53 -317 -299 -509l-114 120q222 175 247 428zM514 1186q-216 -155 -247 -420l-166 31 q59 335 305 516zM1141 35q-143 -62 -291 -62t-308 62l64 153q110 -49 233 -49q124 0 251 49zM504 248l-98 -123q-258 185 -305 501l169 32q47 -276 234 -410z"/>
            <glyph unicode="&#xe000;" horiz-adv-x="1004" d="M0 1005h1005v-1005h-1005v1005z"/>
            <glyph horiz-adv-x="1594"
                   d="M1719 1184h-298v-1184l-264 178v484q-99 -67 -229 -67q-31 0 -62 4q-114 16 -264 143q-35 -6 -70 -22q-85 -39 -157 -124q-83 -98 -83 -199q0 -50 26 -76q37 -37 93 -37q76 0 165 60q-24 35 -24 74q0 35 21 66q34 50 97 50q79 0 153.5 -67t67.5 -134q-7 -72 -74 -141 l109 -221l-118 -68l-114 243q-73 -25 -158 -25q-162 0 -281 100q-162 137 -162 306q0 55 19 109q47 138 246 244q-23 10 -46 24q-54 35 -97 85q-73 86 -73 178q0 108 92 184t222 76q22 0 43 -2q180 -20 288 -153q92 -113 82 -223q-16 -165 -164 -258q36 -16 97 -16 q62 0 135 19q98 25 220 124v266h-172l-126 235h734zM642 1043q24 45 24 93q0 65 -43 118.5t-106 53.5q-68 0 -112 -61t-41 -146q5 -141 115 -181q35 11 64 27q69 38 99 96z"/>
            <glyph horiz-adv-x="1372"
                   d="M1499 1184h-298v-1184l-264 178v602h-361q28 -26 51 -54q54 -67 72 -130q15 -55 15 -97q0 -98 -112 -187q-74 -58 -106 -68l180 -218l-103 -98l-235 281q-14 -3 -33 -3q-90 0 -162 66q-56 52 -56 130q0 104 88 137q35 13 67 13q82 0 131 -73q106 51 106 140q0 64 -63 138 q-72 85 -281 126l28 135h774v166h-937l-126 235h1499z"/>
            <glyph d="M-54 1995l-35 -40q-48 29 -112 29q-80 0 -131 -52q-54 -55 -54 -147q0 -18 2 -36q16 -144 215 -370h-92q-63 63 -114 132q-123 165 -164 332q-9 35 -9 69q0 97 63.5 163t164.5 66q44 0 91 -14q107 -32 175 -132z"/>
            <glyph d="M89 -456l-98 -89l-324 321l-421 -341l-169 169l530 422z"/>
            <glyph d="M-129 -708q-71 -104 -240 -104q-138 0 -302 72q-139 61 -278 144l55 69q52 -35 107 -63q132 -69 254 -95q32 -7 65 -7q104 0 194 59q84 55 84 110q0 52 -58 52q-68 0 -182 -97l-126 147q75 79 204 79q20 0 40 -2q81 -8 149 -81q71 -76 71 -166q0 -62 -37 -117z"/>
            <glyph d="M186 -760l-68 -57q-45 63 -227 249q-70 63 -197 63q-90 0 -150 -31q-98 -51 -99 -109q0 -46 75 -46q36 0 84 12q75 19 147 74l109 -135q-101 -74 -213 -74q-134 0 -224 82q-85 77 -85 179q0 91 87 152q82 58 193 58q63 0 118 -21q101 -39 161 -85q51 -40 155 -153 q53 -58 134 -158z"/>
            <glyph horiz-adv-x="1158"
                   d="M1313 1184h-321v-293q100 69 169 69q83 0 135 -31l-41 -172q-31 -10 -126 -66q-77 -56 -137 -115v-576l-261 178v235q-245 -96 -253 -96q-144 0 -267 113q-138 128 -136 318q1 121 87 213q94 100 236 100q59 0 121 -18q112 -33 212 -157v298h-731l-126 235h1313zM731 714 q-22 37 -49 66q-64 70 -143 86q-20 4 -40 4q-99 0 -180 -82q-77 -78 -77 -163q0 -23 7 -43q24 -67 124 -67q85 0 177 44q122 59 181 155z"/>
            <glyph horiz-adv-x="1181"
                   d="M1396 596q-168 -154 -362 -154q-18 0 -36 2q-118 10 -202 125q-79 107 -79 230q0 134 84 217.5t212 83.5q16 0 33 -2q168 -15 350 -250v-252zM1379 780q-33 31 -71 55q-90 58 -187 71q-23 3 -44 3q-108 0 -175 -72q-57 -61 -57 -131q0 -93 121 -93q95 0 195 49 q136 66 218 118zM1396 229q-228 -134 -475 -134q-143 0 -270 51q-149 59 -294 195q-137 129 -208 264q-60 115 -60 200q0 67 46 86q14 6 28 6q51 0 98 -63q27 -10 46 9q13 13 14 69v272h-321l-126 235h1364l126 -235h-782v-404q-3 -26 -13 -51q-22 -58 -70 -96 q-69 -54 -178 -65q15 -35 40 -68q61 -79 164 -136q126 -69 350 -69q65 0 117 9q224 40 404 160v-235z"/>
            <glyph horiz-adv-x="748"
                   d="M894 1184h-367v-594q3 -110 -80 -120q-71 -9 -201 97q-120 98 -151 167q-11 23 -11 44q0 59 74 85h109v321h-267l-126 235h894z"/>
            <glyph horiz-adv-x="748"
                   d="M937 384q-118 -103 -352 -103q-134 0 -275 110q-149 117 -175 265q-4 20 -4 39q0 143 170 222q-47 27 -149 101q-53 46 -53 111q0 30 10 55h-109l-126 235h891l126 -235h-467q-22 -10 -40 -23q-41 -31 -49 -72q-3 -15 -3 -29q0 -80 86 -105h218l118 -190 q-178 16 -327 -43q-116 -46 -116 -127q0 -48 47 -79q52 -34 142 -34q35 0 73 5q189 26 364 169v-272z"/>
            <glyph horiz-adv-x="1618"
                   d="M1594 708l-169 -172l-175 175l172 169zM1751 1184h-662v-373h-579q-23 -9 -60 -40q-21 -32 -21 -65q0 -36 23 -61t51 -25q8 0 16 2q273 87 389 85q128 -2 227 -111.5t99 -239.5q0 -153 -121.5 -255t-304.5 -102q-247 0 -514 250q-111 104 -217 250l95 80 q232 -358 510 -358q143 0 269.5 62.5t126.5 142.5q0 74 -67 74q-44 0 -189.5 -45.5t-204.5 -45.5q-22 0 -38 4q-115 31 -221 166.5t-106 250.5q0 83 63 145q61 59 146 66h367v143h-828l-126 235h1751zM1314 -625l-54 -54q-64 75 -124 135q-143 144 -240 191q-76 37 -167 37 q-69 0 -128 -19l-129 223q114 18 220 9q100 -9 203 -93q56 -45 224 -222z"/>
            <glyph horiz-adv-x="929"
                   d="M1095 1184h-1095l-126 235h1095zM1132 378q-44 -37 -93 -64q-119 -65 -248 -70q-134 -5 -269 98q-123 94 -169 208q-16 40 -16 83q0 73 41 135h-192l-132 235h783l158 -235h-270q-45 -33 -106 -89q-61 -85 -61 -157q0 -78 88 -78q56 0 142 32q165 62 344 206v-304z"/>
            <glyph horiz-adv-x="1427"
                   d="M1551 1184h-442v-155q206 -186 206 -407q0 -42 -8 -83q-64 -314 -375 -459q-140 -65 -280 -65q-202 0 -357 128q-143 118 -143 246q0 107 92 193q-26 19 -48 39q-54 48 -81 93q-37 60 -37 123q0 86 66.5 141.5t188.5 55.5q67 0 131 -16l89 -190q-127 15 -223 3 q-81 -10 -81 -79q0 -13 3 -27q13 -56 52 -97q23 12 94 40q51 17 121 20l97 -201q-51 -1 -93 -12q-103 -25 -150 -97q-21 -33 -21 -64q0 -90 148 -90q70 0 165 23q159 39 290 151q-76 38 -134 86q-138 116 -159 261q-3 22 -3 44q0 175 189 263v132h-848l-126 235h1551z M1124 682q2 20 2 39q0 84 -33 144t-84 64q-67 6 -114 -57.5t-44 -149.5q5 -168 175 -252q26 35 45 68q47 81 53 144zM1413 -625l-55 -54q-64 75 -124 135q-143 144 -240 191q-76 37 -167 37q-69 0 -128 -19l-129 223q115 18 221 9q100 -9 203 -93q56 -45 224 -222z"/>
            <glyph horiz-adv-x="952"
                   d="M1124 1184h-1124l-126 235h1124zM1158 734h-384q27 -27 86 -129q27 -63 27 -128q0 -170 -168 -233q-45 -17 -95 -17q-191 0 -343 209q-128 176 -206 421l111 49q17 -58 39 -112q52 -130 119 -215q81 -104 183 -104q86 0 121 55q20 30 20 70q0 92 -138 283q-17 24 -17 46 q0 46 46 46h599v-241z"/>
            <glyph horiz-adv-x="963"
                   d="M1161 568q-106 -33 -186 -29q-77 4 -152 26q14 -21 46 -98q12 -39 13 -80q0 -84 -47 -163t-121 -124q-97 -60 -273 -91l158 -241l-115 -78l-189 301q-51 4 -89 24q-93 47 -111 163q-4 27 -4 50q0 136 116 136q40 0 65 -17l59 -56q38 -33 84 -33q38 0 89 20q76 31 134 89 t58 109q0 50 -38 50q-19 0 -113.5 -39.5t-151.5 -36.5q-63 3 -132 53q-117 83 -175 265q-15 46 -15 87q0 170 230 211h249v118h-550l-126 235h1135l126 -235h-327v-327h-344q-208 0 -208 -109q0 -10 2 -20q9 -47 52 -47q5 0 200 47q27 6 54 6q44 0 78 -15q36 -9 95 -9 q72 0 157 15q154 28 267 144v-301z"/>
            <glyph horiz-adv-x="995"
                   d="M1144 1184h-1144l-126 235h1144zM1190 565h-235q-7 -58 -29 -106q-55 -115 -178 -158q-57 -20 -117 -20q-197 0 -390 198q-85 88 -166 215l97 68q26 -41 52 -76q61 -85 111 -127q94 -79 195 -79q81 0 143.5 50t86.5 135q13 46 13 88q0 98 -71 98q-31 0 -74 -20 q-104 -47 -158 -123l-158 204q128 116 281 116q42 0 83 -10q189 -46 258 -250q34 0 92 6q96 22 164 77v-286z"/>
            <glyph horiz-adv-x="1141"
                   d="M1270 1184h-384v-224q-3 -32 -19 -60q-36 -68 -127 -106q-12 -5 -196 -72q-129 -48 -189 -83q-73 -43 -73 -131q0 -86 69 -151q77 -73 200 -73q22 0 45 3q205 23 376 189l123 -238q-50 -41 -104 -72q-129 -75 -254 -89q-32 -4 -64 -4q-227 0 -401 158q-161 147 -169 319 q-15 312 358 399q152 35 158 83v152h-619l-126 235h1270zM1203 -625l-55 -54q-64 75 -124 135q-143 144 -240 191q-76 37 -167 37q-69 0 -128 -19l-129 223q115 18 221 9q100 -9 203 -93q56 -45 224 -222z"/>
            <glyph horiz-adv-x="1172"
                   d="M1316 1184h-456q48 -82 48 -166q0 -15 -2 -29q-10 -83 -46 -123q52 -42 93 -89q98 -114 128 -238q11 -47 11 -94q0 -162 -112 -274q-120 -121 -315 -121q-45 0 -92 7q-190 28 -335 170q-159 156 -152 355q8 231 204 328q121 60 283 60q22 0 38 -1q21 12 37 27 q38 37 43 85q4 37 -40 103h-651l-126 235h1316zM783 333q93 94 93 231q0 152 -108 216q-51 30 -117 30q-83 0 -163.5 -44.5t-123.5 -114.5q-53 -86 -53 -185q0 -158 107 -219q49 -28 110 -28q143 0 255 114zM1203 -625l-55 -54q-64 75 -124 135q-143 144 -240 191 q-76 37 -167 37q-69 0 -128 -19l-129 223q115 18 221 9q100 -9 203 -93q56 -45 224 -222z"/>
            <glyph horiz-adv-x="1333"
                   d="M1471 1184h-382v-373h-579q-23 -9 -60 -40q-21 -32 -21 -65q0 -36 23 -61t51 -25q8 0 16 2q273 87 389 85q128 -2 227 -111.5t99 -239.5q0 -153 -121.5 -255t-304.5 -102q-247 0 -514 250q-111 104 -217 250l95 80q232 -358 510 -358q143 0 269.5 62.5t126.5 142.5 q0 74 -67 74q-44 0 -189.5 -45.5t-204.5 -45.5q-22 0 -38 4q-115 31 -221 166.5t-106 250.5q0 83 63 145q61 59 146 66h367v143h-828l-126 235h1471zM1354 -625l-54 -54q-64 75 -124 135q-143 144 -240 191q-76 37 -167 37q-69 0 -128 -19l-129 223q114 18 220 9 q100 -9 203 -93q56 -45 224 -222z"/>
            <glyph horiz-adv-x="1159"
                   d="M1304 1184h-392v-390h-479q-178 -54 -178 -233q0 -31 6 -65q16 -92 83 -159t158 -76q-28 90 -28 177q0 205 162 253q45 13 90 13q131 0 222.5 -103.5t91.5 -250.5q0 -20 -2 -40q-12 -126 -120.5 -210.5t-253.5 -84.5q-129 0 -243 71q-144 89 -238 233q-101 155 -101 316 q0 40 7 79q45 261 295 295h267v175h-651l-126 235h1304zM891 456q-21 66 -107 66q-95 0 -148 -75q-48 -67 -43 -195q71 5 169 20q134 49 134 152q0 16 -5 32zM1203 -625l-55 -54q-64 75 -124 135q-143 144 -240 191q-76 37 -167 37q-69 0 -128 -19l-129 223q115 18 221 9 q100 -9 203 -93q56 -45 224 -222z"/>
            <glyph horiz-adv-x="1101"
                   d="M1250 1184h-321v-513q0 -176 -81 -264q-70 -78 -191 -78q-84 0 -175 38q-245 101 -310 335v482h-172l-126 235h1250zM671 642v542h-244v-562q1 -22 9 -40q17 -43 60 -57q24 -8 46 -8q95 0 129 125z"/>
            <glyph horiz-adv-x="671"
                   d="M869 1184h-869l-126 235h868zM874 725h-427q-30 0 -56 -12q-61 -29 -90 -111q-9 -26 -9 -54q0 -69 49 -135l178 -278l-123 -81l-218 344q-112 136 -106 293q10 245 266 272h536v-238z"/>
            <glyph horiz-adv-x="857"
                   d="M1049 375q-30 -19 -169 -88q-107 -50 -219 -50q-234 0 -432 204q-83 85 -126 264q31 9 152 69q34 19 95 49q-64 37 -113 78q-119 97 -142 194q-8 31 -8 63q0 116 92 193q96 80 242 74q142 -6 242 -99q93 -86 114 -211q7 -42 7 -79q0 -194 -231 -354q-91 -63 -223 -137 q15 -30 39 -52q59 -54 158 -57q229 -8 522 258v-319zM569 1112q0 137 -87 161q-19 5 -37 5q-58 0 -92.5 -50.5t-34.5 -119.5q0 -27 6 -53q26 -117 120 -169q125 217 125 226z"/>
            <glyph horiz-adv-x="1177"
                   d="M1324 1184h-410v-401h-455q-32 -3 -59 -15q-66 -29 -102 -97q-17 -33 -17 -78q0 -64 31 -118q35 -60 92 -77q44 -13 89 -13q84 0 149 42q-28 46 -28 90q0 48 37.5 79.5t89.5 31.5q86 0 171 -75q82 -72 86 -140q5 -104 -101 -161l149 -329l-152 -66l-146 332 q-36 -7 -83 -7q-124 0 -229 50q-97 46 -180 133q-96 102 -138 228q-31 93 -31 168q0 230 251 262h307v161h-645l-126 235h1324zM1203 -625l-55 -54q-64 75 -124 135q-143 144 -240 191q-76 37 -167 37q-69 0 -128 -19l-129 223q115 18 221 9q100 -9 203 -93q56 -45 224 -222 z"/>
            <glyph horiz-adv-x="774"
                   d="M972 378q-42 -36 -92 -63q-122 -63 -267 -66q-144 -3 -289 113q-157 125 -178 294q-2 16 -2 32q0 138 140 206q-48 36 -85 72q-88 88 -104 163q-7 33 -7 64q0 108 78 168q83 65 232 58q111 -5 195 -84t84 -170q0 -77 -66 -127q-75 -58 -213 -63q25 -14 72 -35 q37 -10 83 -11h92l106 -198h-338q-107 -37 -107 -116q0 -30 18 -65q50 -95 208 -95q67 0 122 18q170 56 318 186v-281zM456 1092q55 32 55 100q0 46 -27.5 82t-70.5 36q-139 0 -132 -132q4 -69 46 -120q70 -1 129 34z"/>
            <glyph horiz-adv-x="719"
                   d="M877 1184h-877l-126 235h877zM914 679h-404q-56 -35 -56 -94q0 -12 2 -26q6 -49 -31 -77q-33 -25 -82 -25q-43 0 -71 19q-39 27 -104 135q-67 113 -73 172q-13 120 123 131h696v-235z"/>
            <glyph horiz-adv-x="625"
                   d="M837 487q-97 -91 -240 -91q-95 0 -204 51q-101 47 -175.5 118.5t-74.5 202.5v416h-143l-126 235h808l126 -235h-401v-548q-3 -71 65 -71q41 0 107 31q157 75 258 201v-310z"/>
            <glyph horiz-adv-x="1155"
                   d="M1319 785q-89 11 -198 -66q-88 -62 -146 -111v-608l-264 178v263q-71 -52 -166 -52q-13 0 -26 1q-131 11 -301 178q-72 71 -75 194v422h-143l-126 235h1310l126 -235h-335v-267q26 16 53 28q64 30 121 38q21 3 41 3q82 0 129 -43v-158zM711 740v444h-304v-568 q-5 -51 32 -51q23 0 60 23q94 57 212 152z"/>
            <glyph horiz-adv-x="702"
                   d="M877 1184h-877l-126 235h877zM900 427q-124 -181 -404 -172q-120 4 -228 75q-116 77 -168 203q-36 86 -36 173q0 136 82 234q86 103 238 126q40 6 79 6q266 0 437 -241v-77q-39 27 -78 48q-93 51 -168 61q-98 14 -152 0l186 -336q32 20 109 78q56 45 103 97v-275z M545 461l-187 347q-28 -15 -94 -83q-44 -61 -44 -124q0 -121 133 -157q30 -8 65 -8q65 0 127 25z"/>
            <glyph horiz-adv-x="937"
                   d="M1129 513h-404v-123q-14 -81 -98 -81q-9 0 -19 1q-65 7 -175 111q-118 113 -135 207q-3 15 -3 29q0 86 98 88h89v129q-35 0 -158 23q-88 23 -156 95q-77 82 -77 183q0 33 9 66q23 87 104 137q75 46 172 46q81 0 149 -34q203 -101 200 -361v-284h404v-232zM482 957v212 q-1 132 -75 132q-11 0 -23 -3q-82 -23 -82 -145q0 -67 28 -112q47 -75 152 -84z"/>
            <glyph horiz-adv-x="719"
                   d="M923 522h-444v-81q1 -113 -90 -113q-10 0 -22 2q-51 8 -165 137q-117 131 -125 198q-11 85 86 95h55v424h-218l-126 235h911l127 -235h-433v-424h444v-238z"/>
            <glyph horiz-adv-x="685"
                   d="M891 407q-150 -78 -303 -78q-234 0 -370 201q-85 125 -141 373q67 17 270 95q74 33 74 89q0 47 -48 97h-373l-126 235h866l126 -235h-347q81 -113 81 -211q0 -37 -12 -67q-46 -114 -310 -192q30 -150 212 -150q16 0 32 1q213 16 369 169v-327z"/>
            <glyph horiz-adv-x="848"
                   d="M975 1184h-975l-126 235h974zM834 613q-18 -17 -41 -32q-57 -37 -134 -62q-60 -19 -121 -19q-164 0 -320 128q-72 59 -143 126l74 100q28 -24 141 -92q81 -41 185 -41q117 0 204 47q93 51 155 109v-264z"/>
            <glyph horiz-adv-x="903"
                   d="M1084 1184h-1084l-126 235h1083zM1095 831q-35 -4 -69 -17q-81 -30 -146.5 -101t-148.5 -229l-215 144q13 18 57 89q12 21 40 66q-50 46 -117 46q-39 0 -78 -18q-131 -61 -131 -254q0 -84 28 -147q78 -179 270 -290l-78 -97q-47 36 -192 166q-85 82 -150 198 q-93 166 -88 324q4 138 95 231t217 93q55 0 110 -20q107 -40 183 -149q26 27 109 83q61 31 131 31q91 0 173 -48v-101z"/>
            <glyph horiz-adv-x="659"
                   d="M848 1184h-848l-126 235h845zM869 439q-146 -201 -356 -201q-155 0 -280 111t-153 279q-4 25 -4 50q0 147 114 256q118 111 277 104q290 -14 402 -233v-80q-116 95 -271 95q-77 0 -154 -26q-90 -31 -148 -98t-58 -133q0 -37 20 -64q34 -46 133 -46q128 0 234 57 q174 94 244 187v-258z"/>
            <glyph horiz-adv-x="955"
                   d="M1175 1184h-441q35 -43 62 -86q66 -103 84 -189q12 -57 12 -113q0 -170 -112 -340q-88 -133 -261 -204l200 -249l-108 -89l-233 304q-22 -6 -51 -6q-66 0 -121 35q-107 68 -107 168q0 20 4 41q20 117 134 117q32 0 61 -14q67 -32 115 -89q21 10 42 24q51 35 92 85 q48 59 72 109q-87 8 -159 29q-172 52 -242 163q-40 64 -40 146q0 81 34 158h-212l-126 235h1175zM659 1003q-14 93 -72 142q-45 39 -94 39q-43 -4 -69 -49t-26 -105q0 -52 20 -96q48 -109 224 -160q22 75 22 157q0 37 -5 72z"/>
            <glyph horiz-adv-x="702"
                   d="M891 338q-63 -25 -147 -25q-120 0 -237 57q-192 93 -335 301v513h-172l-126 235h891l126 -235h-455l455 -430v-416zM866 605l-430 393v-373q3 -39 15 -68q30 -69 102 -73q117 -7 313 121z"/>
            <glyph horiz-adv-x="883"
                   d="M1109 1184h-430v-396q53 -35 126 -35q23 0 46 4q138 23 230 120v-318q-94 -30 -182 -30q-40 0 -73 7q-99 20 -198 120q-12 -18 -78 -71q-54 -34 -120 -63l338 -416l-117 -106l-427 545q-10 11 -69 97q-49 73 -49 141q0 89 83 106q11 2 21 2q66 0 114 -71q17 0 63 23 q29 24 29 54v287h-416l-126 235h1109z"/>
            <glyph horiz-adv-x="1124"
                   d="M1298 1184h-341v-396h-570q-89 -2 -89 -63q0 -75 103 -89h797v-238h-653q-42 -17 -72 -38q-74 -49 -80 -105q-1 -13 -1 -26q0 -144 176 -246q151 -87 381 -106l-32 -118q-94 13 -182 37q-211 57 -360 155q-254 168 -252 376q1 152 144 232q-160 148 -160 271q0 14 2 27 q30 171 278 169h307v158h-694l-126 235h1298z"/>
            <glyph horiz-adv-x="1448"
                   d="M1620 1184h-1620l-126 235h1619zM1456 473q1 -179 -98 -292q-91 -105 -223 -112q-186 -10 -358 172q-142 -177 -316 -177q-99 0 -194 65q-188 128 -188 382q0 182 101 314q109 142 281 144q162 2 299 -207q133 212 323 212q61 0 124 -25q90 -36 159 -144q89 -137 90 -332 zM1224 777q-21 18 -48 18q-90 0 -176 -153l-163 -292q75 -71 163 -71q90 0 169 85q101 108 101 279q0 94 -46 134zM725 705q-82 48 -169 48q-165 0 -252 -191q-29 -64 -29 -136q0 -98 46 -148q22 -24 54 -24q89 0 170 133q85 141 180 318z"/>
            <glyph horiz-adv-x="983"
                   d="M1169 671q-102 -76 -241 -76q-31 0 -62 4q-114 16 -264 143q-35 -6 -70 -22q-85 -39 -157 -124q-83 -98 -83 -199q0 -50 26 -76q37 -37 93 -37q76 0 165 60q-24 35 -24 74q0 35 21 66q34 50 97 50q79 0 153.5 -67t67.5 -134q-7 -72 -74 -141l109 -221l-118 -68l-114 243 q-73 -25 -158 -25q-162 0 -281 100q-162 137 -162 306q0 55 19 109q47 138 246 244q-23 10 -46 24q-54 35 -97 85q-73 86 -73 178q0 108 92 184t222 76q22 0 43 -2q180 -20 288 -153q92 -113 82 -223q-16 -165 -164 -258q36 -16 97 -16q62 0 135 19q101 26 232 135v-258z M642 1043q24 45 24 93q0 65 -43 118.5t-106 53.5q-68 0 -112 -61t-41 -146q5 -141 115 -181q35 11 64 27q69 38 99 96z"/>
            <glyph horiz-adv-x="751"
                   d="M946 1184h-946l-126 235h946zM952 780h-376q28 -26 51 -54q54 -67 72 -130q15 -55 15 -97q0 -98 -112 -187q-74 -58 -106 -68l180 -218l-103 -98l-235 281q-14 -3 -33 -3q-90 0 -162 66q-56 52 -56 130q0 104 88 137q35 13 67 13q82 0 131 -73q106 51 106 140 q0 64 -63 138q-72 85 -281 126l28 135h789v-238z"/>
            <glyph horiz-adv-x="1637"
                   d="M1763 1184h-771v-293q25 19 51 33q62 34 118 36q157 7 266 -153q95 -138 95 -291q0 -21 -3 -40q-26 -194 -146 -353l-209 149q30 43 54 83q58 96 78 158q36 113 36 174q0 73 -52 73q-39 0 -108 -41q-85 -50 -180 -143v-576l-261 178v235q-245 -96 -253 -96 q-144 0 -267 113q-138 128 -136 318q1 121 87 213q94 100 236 100q59 0 121 -18q112 -33 212 -157v298h-731l-126 235h1763zM731 714q-22 37 -49 66q-64 70 -143 86q-20 4 -40 4q-99 0 -180 -82q-77 -78 -77 -163q0 -23 7 -43q24 -67 124 -67q85 0 177 44q122 59 181 155z M1413 -625l-55 -54q-64 75 -124 135q-143 144 -240 191q-76 37 -167 37q-69 0 -128 -19l-129 223q115 18 221 9q100 -9 203 -93q56 -45 224 -222z"/>
            <glyph horiz-adv-x="1780"
                   d="M1938 1184h-298v-1184l-264 178v40q-253 -141 -489 -141q-131 0 -248 46q-144 57 -288 207q-127 131 -202 275q-60 115 -60 200q0 67 46 86q14 6 28 6q51 0 98 -63q27 -10 46 9q13 13 14 69v272h-321l-126 235h1938zM1376 778v4q-110 104 -255 124q-23 3 -44 3 q-107 0 -175 -72q-57 -61 -57 -131q0 -93 121 -93q95 0 195 49q135 66 215 116zM1376 1184h-794v-404q-3 -26 -13 -51q-22 -58 -70 -96q-69 -54 -178 -65q15 -35 40 -68q61 -79 164 -136q163 -90 373 -90q45 0 82 7q178 32 396 170v127q-161 -136 -342 -136q-18 0 -36 2 q-118 10 -202 125q-79 107 -79 230q0 134 84 217.5t212 83.5q178 0 363 -226v310zM2089 -625l-54 -54q-64 75 -124 135q-143 144 -240 191q-76 37 -167 37q-69 0 -128 -19l-129 223q114 18 220 9q100 -9 203 -93q56 -45 224 -222z"/>
            <glyph horiz-adv-x="1270"
                   d="M1399 1184h-275v-1184l-264 178v1006h-333v-594q3 -110 -80 -120q-71 -9 -201 97q-120 98 -151 167q-11 23 -11 44q0 59 74 85h109v321h-267l-126 235h1399zM1413 -625l-55 -54q-64 75 -124 135q-143 144 -240 191q-76 37 -167 37q-69 0 -128 -19l-129 223q115 18 221 9 q100 -9 203 -93q56 -45 224 -222z"/>
            <glyph horiz-adv-x="1330"
                   d="M1453 1184h-272v-1184l-264 178v190q-121 -87 -332 -87q-134 0 -275 110q-149 117 -175 265q-4 20 -4 39q0 143 170 222q-47 27 -149 101q-53 46 -53 111q0 30 10 55h-109l-126 235h1453zM917 1184h-493q-22 -10 -40 -23q-41 -31 -49 -72q-3 -15 -3 -29q0 -80 86 -105 h218l118 -190q-178 16 -327 -43q-116 -46 -116 -127q0 -48 47 -79q52 -34 142 -34q35 0 73 5q178 25 344 153v544zM1492 -625l-54 -54q-64 75 -124 135q-143 144 -240 191q-76 37 -168 37q-69 0 -128 -19l-129 223q115 18 221 9q100 -9 203 -93q56 -45 224 -222z"/>
            <glyph horiz-adv-x="1618"
                   d="M1594 708l-169 -172l-175 175l172 169zM1751 1184h-662v-373h-579q-23 -9 -60 -40q-21 -32 -21 -65q0 -36 23 -61t51 -25q8 0 16 2q273 87 389 85q128 -2 227 -111.5t99 -239.5q0 -153 -121.5 -255t-304.5 -102q-247 0 -514 250q-111 104 -217 250l95 80 q232 -358 510 -358q143 0 269.5 62.5t126.5 142.5q0 74 -67 74q-44 0 -189.5 -45.5t-204.5 -45.5q-22 0 -38 4q-115 31 -221 166.5t-106 250.5q0 83 63 145q61 59 146 66h367v143h-828l-126 235h1751zM1413 -625l-55 -54q-64 75 -124 135q-143 144 -240 191q-76 37 -167 37 q-69 0 -128 -19l-129 223q115 18 221 9q100 -9 203 -93q56 -45 224 -222z"/>
            <glyph horiz-adv-x="1533"
                   d="M1665 1184h-283v-1184l-264 178v188q-143 -115 -327 -122q-133 -5 -269 98q-123 94 -169 208q-16 40 -16 83q0 73 41 135h-192l-132 235h783l158 -235h-270q-45 -33 -106 -89q-61 -85 -61 -157q0 -78 88 -78q56 0 142 32q160 60 330 195v513h-1118l-126 235h1665z M1810 -625l-54 -54q-64 75 -124 135q-143 144 -240 191q-76 37 -167 37q-69 0 -128 -19l-129 223q114 18 220 9q100 -9 204 -93q57 -46 224 -222z"/>
            <glyph horiz-adv-x="1528"
                   d="M1668 1184h-286v-1184l-264 178v556h-344q27 -27 86 -129q27 -63 27 -128q0 -170 -168 -233q-45 -17 -95 -17q-191 0 -343 209q-128 176 -206 421l111 49q17 -58 39 -112q52 -130 119 -215q81 -104 183 -104q86 0 121 55q20 30 20 70q0 92 -138 283q-17 24 -17 46 q0 46 46 46h559v209h-1118l-126 235h1668zM1786 -625l-55 -54q-64 75 -124 135q-143 144 -240 191q-76 37 -167 37q-69 0 -128 -19l-129 223q115 18 221 9q100 -9 203 -93q56 -45 224 -222z"/>
            <glyph horiz-adv-x="1568"
                   d="M1697 1184h-298v-1184l-264 178v382q-91 -24 -160 -21q-77 4 -152 26q14 -21 46 -98q12 -39 12 -80q0 -84 -46.5 -163t-120.5 -124q-97 -60 -273 -91l158 -241l-115 -78l-189 301q-51 4 -89 24q-93 47 -111 163q-4 27 -4 50q0 136 116 136q40 0 65 -17l59 -56 q38 -33 84 -33q38 0 89 20q76 31 134 89t58 109q0 50 -38 50q-19 0 -113.5 -39.5t-151.5 -36.5q-63 3 -132 52q-117 84 -175 266q-15 46 -15 87q0 170 230 211h249v118h-550l-126 235h1697zM1135 1184h-327v-327h-344q-208 0 -208 -109q0 -10 2 -20q9 -47 52 -47q5 0 200 47 q27 6 54 6q44 0 78 -15q36 -9 95 -9q72 0 157 15q133 24 241 119v340zM1810 -625l-54 -54q-64 75 -124 135q-143 144 -240 191q-76 37 -167 37q-69 0 -128 -19l-129 223q114 18 220 9q100 -9 204 -93q57 -46 224 -222z"/>
            <glyph horiz-adv-x="1599"
                   d="M1734 1184h-298v-1184l-264 178v387h-217q-7 -58 -29 -106q-55 -115 -178 -158q-57 -20 -117 -20q-197 0 -390 198q-85 88 -166 215l97 68q26 -41 52 -76q61 -85 111 -127q94 -79 195 -79q81 0 143.5 50t86.5 135q13 46 13 88q0 98 -71 98q-31 0 -74 -20 q-104 -47 -158 -123l-158 204q128 116 281 116q42 0 83 -10q189 -46 258 -250q34 0 92 6q82 19 146 64v346h-1172l-126 235h1734zM1799 -625l-55 -54q-64 75 -124 135q-143 144 -240 191q-76 37 -167 37q-69 0 -128 -19l-129 223q115 18 221 9q100 -9 203 -93 q56 -45 224 -222z"/>
            <glyph horiz-adv-x="1141"
                   d="M1270 1184h-384v-224q-3 -32 -19 -60q-36 -68 -127 -106q-12 -5 -196 -72q-129 -48 -189 -83q-73 -43 -73 -131q0 -86 69 -151q77 -73 200 -73q22 0 45 3q205 23 376 189l123 -238q-50 -41 -104 -72q-128 -75 -254 -89q-32 -4 -64 -4q-227 0 -401 158q-161 147 -169 319 q-15 312 358 399q152 35 158 83v152h-619l-126 235h1270zM1189 -625l-54 -54q-64 75 -124 135q-143 144 -240 191q-76 37 -167 37q-69 0 -128 -19l-129 223q114 18 220 9q100 -9 203 -93q56 -45 224 -222z"/>
            <glyph horiz-adv-x="1427"
                   d="M1551 1184h-442v-155q206 -186 206 -407q0 -42 -8 -83q-64 -314 -375 -459q-140 -65 -280 -65q-202 0 -357 128q-143 118 -143 246q0 107 92 193q-26 19 -48 39q-54 48 -81 93q-37 60 -37 123q0 86 66.5 141.5t188.5 55.5q67 0 131 -16l89 -190q-127 15 -223 3 q-81 -10 -81 -79q0 -13 3 -27q13 -56 52 -97q23 12 94 40q51 17 121 20l97 -201q-51 -1 -93 -12q-103 -25 -150 -97q-21 -33 -21 -64q0 -90 148 -90q70 0 165 23q159 39 290 151q-76 38 -134 86q-138 116 -159 261q-3 22 -3 44q0 175 189 263v132h-848l-126 235h1551z M1124 682q2 20 2 39q0 84 -33 144t-84 64q-67 6 -114 -57.5t-44 -149.5q5 -168 175 -252q26 35 45 68q47 81 53 144zM1413 -625l-55 -54q-64 75 -124 135q-143 144 -240 191q-76 37 -167 37q-69 0 -128 -19l-129 223q115 18 221 9q100 -9 203 -93q56 -45 224 -222z"/>
            <glyph horiz-adv-x="1275"
                   d="M1413 1184h-298v-1184l-264 178v547h-404q-30 0 -56 -12q-61 -29 -90 -111q-9 -26 -9 -54q0 -69 49 -135l178 -278l-123 -81l-218 344q-112 136 -106 293q10 245 266 272h513v221h-851l-126 235h1413zM1500 -625l-54 -54q-64 75 -124 135q-143 144 -240 191 q-76 37 -168 37q-69 0 -128 -19l-129 223q115 18 221 9q100 -9 203 -93q56 -45 224 -222z"/>
            <glyph horiz-adv-x="1447"
                   d="M1594 1184h-298v-1184l-264 178v187q-61 -36 -152 -78q-107 -50 -219 -50q-234 0 -432 204q-83 85 -126 264q31 9 152 69q34 19 95 49q-64 37 -113 78q-119 97 -142 194q-8 31 -8 63q0 116 92 193q96 80 242 74q142 -6 242 -99q93 -86 114 -211q7 -42 7 -79 q0 -194 -231 -354q-91 -63 -223 -137q15 -30 39 -52q59 -54 158 -57q226 -8 505 242v506h-172l-126 235h734zM569 1112q0 137 -87 161q-19 5 -37 5q-58 0 -92.5 -50.5t-34.5 -119.5q0 -27 6 -53q26 -117 120 -169q125 217 125 226zM1662 -625l-54 -54q-64 75 -124 135 q-143 144 -240 191q-76 37 -167 37q-69 0 -128 -19l-129 223q114 18 220 9q100 -9 203 -93q56 -45 224 -222z"/>
            <glyph horiz-adv-x="1177"
                   d="M1324 1184h-410v-401h-455q-32 -3 -59 -15q-66 -29 -102 -97q-17 -33 -17 -78q0 -64 31 -118q35 -60 92 -77q44 -13 89 -13q84 0 149 42q-28 46 -28 90q0 48 37.5 79.5t89.5 31.5q86 0 171 -75q82 -72 86 -140q5 -104 -101 -161l149 -329l-152 -66l-146 332 q-36 -7 -83 -7q-124 0 -229 50q-97 46 -180 133q-96 102 -138 228q-31 93 -31 168q0 230 251 262h307v161h-645l-126 235h1324zM1313 -735l-54 -54q-64 75 -124 135q-143 144 -240 191q-76 37 -168 37q-69 0 -128 -19l-129 223q115 18 221 9q100 -9 203 -93q56 -45 224 -222 z"/>
            <glyph horiz-adv-x="1379"
                   d="M1508 1184h-298v-1184l-264 178v179q-139 -104 -333 -108q-144 -3 -289 113q-157 125 -178 294q-2 16 -2 32q0 138 140 206q-48 36 -85 72q-88 88 -104 163q-7 33 -7 64q0 108 78 168q83 65 232 58q111 -5 195 -84t84 -170q0 -77 -66 -127q-75 -58 -213 -63 q25 -14 72 -35q37 -10 83 -11h92l106 -198h-338q-107 -37 -107 -116q0 -30 18 -65q50 -95 208 -95q67 0 122 18q153 50 292 164v547h-172l-126 235h734zM456 1092q55 32 55 100q0 46 -27.5 82t-70.5 36q-139 0 -132 -132q4 -69 46 -120q70 -1 129 34zM1587 -625l-55 -54 q-64 75 -124 135q-143 144 -240 191q-76 37 -167 37q-69 0 -128 -19l-129 223q115 18 221 9q100 -9 203 -93q56 -45 224 -222z"/>
            <glyph horiz-adv-x="1318"
                   d="M1470 1184h-298v-1184l-263 178v501h-399q-56 -35 -56 -94q0 -12 2 -26q6 -49 -31 -77q-33 -25 -82 -25q-43 0 -71 19q-39 27 -104 135q-67 113 -73 172q-13 120 123 131h691v270h-909l-126 235h1470zM1538 -625l-55 -54q-64 75 -124 135q-143 144 -240 191 q-76 37 -167 37q-69 0 -128 -19l-129 223q115 18 221 9q100 -9 203 -93q56 -45 224 -222z"/>
            <glyph horiz-adv-x="1224"
                   d="M1364 1184h-298v-1184l-263 178v281q-91 -63 -206 -63q-95 0 -204 51q-101 47 -175.5 118.5t-74.5 202.5v416h-143l-126 235h1364zM803 757v427h-396v-548q-3 -71 65 -71q41 0 107 31q128 61 224 161zM1413 -625l-55 -54q-64 75 -124 135q-143 144 -240 191 q-76 37 -167 37q-69 0 -128 -19l-129 223q115 18 221 9q100 -9 203 -93q56 -45 224 -222z"/>
            <glyph horiz-adv-x="1642"
                   d="M1780 1184h-805v-278q105 72 214 72q98 0 175 -66q166 -143 166 -322q0 -73 -25 -154q-34 -115 -135 -275l-218 166q14 11 32 38q43 63 103 191q56 121 56 183q0 59 -50 59q-61 0 -184 -84q-77 -53 -134 -98v-616l-264 178v266q-83 -59 -192 -54q-60 3 -143 50 q-88 51 -158 128t-75 194v422h-143l-126 235h1780zM711 742v442h-304v-548q-6 -69 36 -69q50 0 268 175zM1413 -625l-55 -54q-64 75 -124 135q-143 144 -240 191q-76 37 -167 37q-69 0 -128 -19l-129 223q115 18 221 9q100 -9 203 -93q56 -45 224 -222z"/>
            <glyph horiz-adv-x="1321"
                   d="M1450 1184h-298v-1184l-263 178v232q-125 -163 -393 -155q-120 4 -228 75q-116 77 -168 203q-36 86 -36 173q0 136 82 234q86 103 238 126q40 6 79 6q261 0 426 -224v336h-889l-126 235h1450zM889 690v72q-127 86 -235 101q-98 14 -152 0l186 -336q32 20 109 78 q49 40 92 85zM545 461l-187 347q-28 -15 -94 -83q-44 -61 -44 -124q0 -121 133 -157q30 -8 65 -8q65 0 127 25zM1538 -625l-55 -54q-64 75 -124 135q-143 144 -240 191q-76 37 -167 37q-69 0 -128 -19l-129 223q115 18 221 9q100 -9 203 -93q56 -45 224 -222z"/>
            <glyph horiz-adv-x="1542"
                   d="M1680 1184h-298v-1184l-264 178v335h-393v-123q-14 -81 -98 -81q-9 0 -19 1q-65 7 -175 112q-118 112 -135 206q-3 15 -3 29q0 86 98 88h89v129q-35 0 -158 23q-88 23 -156 95q-77 82 -77 183q0 33 9 66q23 87 104 137q75 46 172 46q81 0 149 -34q203 -101 200 -361v-284 h393v439h-172l-126 235h734zM482 957v212q-1 132 -75 132q-11 0 -23 -3q-82 -23 -82 -145q0 -67 28 -112q47 -75 152 -84zM1736 -625l-54 -54q-64 75 -124 135q-143 144 -240 191q-76 37 -167 37q-69 0 -128 -19l-129 223q114 18 220 9q100 -9 203 -93q56 -45 224 -222z"/>
            <glyph horiz-adv-x="1339"
                   d="M1479 1184h-298v-1184l-264 178v344h-438v-81q1 -113 -89 -113q-11 0 -23 2q-51 8 -165 137q-117 131 -125 198q-11 85 86 95h55v424h-218l-126 235h1479zM917 1184h-438v-424h438v424zM1587 -625l-55 -54q-64 75 -124 135q-143 144 -240 191q-76 37 -167 37 q-69 0 -128 -19l-129 223q115 18 221 9q100 -9 203 -93q56 -45 224 -222z"/>
            <glyph horiz-adv-x="1313"
                   d="M1450 1184h-298v-1184l-263 178v213q-137 -62 -285 -62q-249 0 -386 201q-85 125 -141 373q67 17 270 95q74 33 74 89q0 47 -48 97h-373l-126 235h1450zM889 705v479h-370q81 -113 81 -212q0 -36 -12 -66q-46 -114 -310 -192q30 -150 212 -150q16 0 32 1q111 8 225 58 q90 39 142 82zM1513 -625l-54 -54q-65 75 -125 135q-143 144 -240 191q-76 37 -167 37q-69 0 -128 -19l-129 223q115 18 221 9q100 -9 203 -93q56 -45 224 -222z"/>
            <glyph horiz-adv-x="924"
                   d="M1079 1184h-371v-427q-8 -24 -21 -48q-31 -56 -79 -101q-77 -72 -178 -86l338 -416l-117 -106l-427 545q-10 11 -69 97q-49 73 -49 141q0 89 83 106q11 2 21 2q66 0 114 -71q54 -4 80 17q32 26 40 66v281h-444l-126 235h1078zM1157 -625l-54 -54q-64 75 -124 135 q-143 144 -240 191q-76 37 -168 37q-69 0 -128 -19l-129 223q115 18 221 9q100 -9 203 -93q56 -45 224 -222z"/>
            <glyph horiz-adv-x="1479"
                   d="M1622 1184h-298v-1184l-263 178v647q-102 -26 -181 -111q-66 -72 -149 -230l-215 144q13 18 57 89q12 21 40 66q-50 46 -117 46q-39 0 -78 -18q-131 -61 -131 -254q0 -84 28 -147q78 -179 270 -290l-78 -97q-47 36 -192 166q-85 82 -150 198q-93 166 -88 324 q4 138 95 231t217 93q55 0 110 -20q107 -40 183 -149q26 27 109 83q61 31 130 31q70 0 140 -31v235h-1061l-126 235h1622zM1753 -625l-54 -54q-64 75 -124 135q-143 144 -240 191q-76 37 -168 37q-69 0 -128 -19l-129 223q115 18 221 9q100 -9 203 -93q56 -45 224 -222z"/>
            <glyph horiz-adv-x="1278"
                   d="M1422 1184h-298v-1184l-264 178v248q-140 -188 -347 -188q-155 0 -280 111t-153 279q-4 25 -4 50q0 147 114 256q118 111 277 104q281 -13 393 -215v361h-860l-126 235h1422zM860 685v47q-112 88 -263 88q-76 0 -153 -26q-90 -31 -148 -98t-58 -133q0 -37 20 -64 q34 -46 133 -46q128 0 234 57q163 88 235 175zM1505 -625l-54 -54q-64 75 -124 135q-143 144 -240 191q-76 37 -168 37q-69 0 -128 -19l-129 223q115 18 221 9q100 -9 203 -93q56 -45 224 -222z"/>
            <glyph horiz-adv-x="1599"
                   d="M1737 1184h-298v-1184l-264 178v1006h-441q35 -43 62 -86q66 -103 84 -189q12 -57 12 -113q0 -170 -112 -340q-88 -133 -261 -204l200 -249l-108 -89l-233 304q-22 -6 -51 -6q-66 0 -121 35q-107 68 -107 168q0 20 4 41q20 117 134 117q32 0 61 -14q67 -32 115 -89 q21 10 42 24q51 35 92 85q48 59 72 109q-87 8 -159 29q-172 52 -242 163q-40 64 -40 146q0 81 34 158h-212l-126 235h1737zM659 1003q-14 93 -72 142q-45 39 -94 39q-43 -4 -69 -49t-26 -105q0 -52 20 -96q48 -109 224 -160q22 75 22 157q0 37 -5 72zM1828 -625l-54 -54 q-64 75 -124 135q-143 144 -240 191q-76 37 -167 37q-69 0 -128 -19l-129 223q114 18 220 9q100 -9 203 -93q56 -45 224 -222z"/>
            <glyph horiz-adv-x="1307"
                   d="M1450 1184h-298v-1184l-263 178v159q-60 -24 -144 -24q-121 0 -238 57q-192 93 -335 301v513h-172l-126 235h1450zM889 1184h-453l453 -427v427zM866 605l-430 393v-373q3 -39 15 -68q30 -69 102 -73q117 -7 313 121zM1579 -625l-54 -54q-64 75 -124 135 q-143 144 -240 191q-76 37 -168 37q-69 0 -128 -19l-129 223q115 18 221 9q100 -9 203 -93q56 -45 224 -222z"/>
            <glyph horiz-adv-x="1482"
                   d="M1622 1184h-298v-1184l-263 178v375q-85 -24 -162 -24q-40 0 -73 7q-99 20 -198 120q-12 -19 -78 -71q-54 -34 -120 -63l338 -416l-117 -106l-427 545q-10 11 -69 97q-49 73 -49 141q0 89 83 106q11 2 21 2q66 0 114 -71q17 0 63 23q29 24 29 54v287h-416l-126 235h1622z M1061 857v327h-382v-396q53 -35 126 -35q23 0 46 4q122 21 210 100zM1802 -625l-54 -54q-64 75 -124 135q-143 144 -240 191q-76 37 -167 37q-69 0 -128 -19l-129 223q114 18 220 9q100 -9 203 -93q56 -45 224 -222z"/>
            <glyph horiz-adv-x="1090"
                   d="M1276 1184h-416v-390h-507q-12 0 -21 -5q-23 -12 -31 -44q-2 -10 -2 -20q0 -54 59 -97q88 45 206 45q55 0 110 -11q147 -30 236 -144q73 -94 76 -194q5 -170 -158 -241l-166 192q40 18 69 40q71 52 77 115q8 85 -122 85q-134 0 -222 -88q-91 -91 -91 -186q0 -67 48 -126 q102 -127 353 -190l-40 -103q-68 24 -278 121q-282 144 -316 358q-3 20 -3 40q0 125 110 218q-30 28 -54 56q-59 69 -81 130q-19 53 -19 98q0 175 260 189h246v152h-599l-126 235h1275zM1090 -699l-55 -54q-64 75 -124 135q-143 145 -240 192q-76 37 -166 37q-70 0 -129 -20 l-129 223q115 18 221 9q100 -9 203 -93q56 -45 224 -222z"/>
            <glyph horiz-adv-x="1563"
                   d="M1685 1184h-473v-241q226 -136 226 -422q0 -24 -2 -48q-12 -159 -91 -267q-81 -111 -210 -137q-28 -6 -56 -6q-171 0 -302 178q-142 -177 -316 -177q-99 0 -194 65q-188 128 -188 382q0 182 101 314q109 142 281 144q162 2 296 -181q20 30 69 89q47 46 129 83v224h-955 l-126 235h1685zM1162 788q-104 0 -185 -146q-70 -126 -140 -292q62 -58 140 -58q93 0 178 92q43 47 71.5 125.5t28.5 148.5q0 130 -93 130zM702 714q-72 44 -150 44q-159 0 -248 -196q-29 -64 -29 -136q0 -98 46 -148q22 -24 54 -24q89 0 170 133q85 141 157 327zM1636 -612 l-54 -54q-64 75 -124 135q-143 145 -240 192q-76 37 -166 37q-70 0 -129 -20l-129 223q114 18 220 9q100 -9 204 -93q57 -46 224 -222z"/>
            <glyph horiz-adv-x="1594"
                   d="M1719 1184h-298v-1184l-264 178v484q-99 -67 -229 -67q-31 0 -62 4q-114 16 -264 143q-35 -6 -70 -22q-85 -39 -157 -124q-83 -98 -83 -199q0 -50 26 -76q37 -37 93 -37q76 0 165 60q-24 35 -24 74q0 35 21 66q34 50 97 50q79 0 153.5 -67t67.5 -134q-7 -72 -74 -141 l109 -221l-118 -68l-114 243q-73 -25 -158 -25q-162 0 -281 100q-162 137 -162 306q0 55 19 109q47 138 246 244q-23 10 -46 24q-54 35 -97 85q-73 86 -73 178q0 108 92 184t222 76q22 0 43 -2q180 -20 288 -153q92 -113 82 -223q-16 -165 -164 -258q36 -16 97 -16 q62 0 135 19q98 25 220 124v266h-172l-126 235h734zM642 1043q24 45 24 93q0 65 -43 118.5t-106 53.5q-68 0 -112 -61t-41 -146q4 -141 115 -181q35 11 64 27q69 38 99 96zM1922 -625l-54 -54q-64 75 -124 135q-143 144 -240 191q-76 37 -168 37q-69 0 -128 -19l-129 223 q115 18 221 9q100 -9 203 -93q56 -45 224 -222z"/>
            <glyph horiz-adv-x="1372"
                   d="M1499 1184h-298v-1184l-264 178v602h-361q28 -26 51 -54q54 -67 72 -130q15 -55 15 -97q0 -98 -112 -187q-74 -58 -106 -68l180 -218l-103 -98l-235 281q-14 -3 -33 -3q-90 0 -162 66q-56 52 -56 130q0 104 88 137q35 13 67 13q82 0 131 -73q106 51 106 140q0 64 -63 138 q-72 85 -281 126l28 135h774v166h-937l-126 235h1499zM1704 -625l-55 -54q-64 75 -124 135q-143 144 -240 191q-76 37 -167 37q-69 0 -128 -19l-129 223q115 18 221 9q100 -9 203 -93q56 -45 224 -222z"/>
            <glyph horiz-adv-x="1247"
                   d="M1369 1184h-294v-293q57 73 155 73q60 0 126 -30l-37 -181q-168 -40 -244 -177v-576l-261 178v235l-545 -393l-174 198l266 163q-208 130 -203 367q2 121 88 213q93 100 235 100q59 0 121 -18q112 -33 212 -157v298h-760l-126 235h1315zM814 714q-22 37 -49 66 q-64 70 -143 86q-20 4 -40 4q-99 0 -179 -82q-77 -78 -77 -163q0 -23 7 -43q24 -67 123 -67q85 0 177 44q122 59 181 155z"/>
            <glyph horiz-adv-x="1195"
                   d="M1396 596q-168 -154 -362 -154q-18 0 -36 2q-118 10 -202 125q-79 107 -79 230q0 134 84 217.5t212 83.5q16 0 33 -2q168 -15 350 -250v-252zM1379 780q-33 31 -71 55q-90 58 -187 71q-22 3 -43 3q-109 0 -180 -75q-61 -63 -61 -132q0 -23 9 -37q33 -55 111 -55 q69 0 205.5 52.5t216.5 117.5zM1396 206l-1055 -364l-126 230l341 103q-77 47 -145 106q-165 142 -262 324q-60 113 -60 199q0 68 46 87q14 6 28 6q51 0 98 -63q27 -10 46 9q13 13 14 69v272h-321l-126 235h1356l126 -235h-774v-404q-3 -26 -13 -51q-22 -58 -70 -96 q-69 -54 -178 -65q15 -35 40 -68q61 -79 164 -136q126 -69 350 -69q65 0 117 9q224 40 404 160v-258z"/>
            <glyph horiz-adv-x="748"
                   d="M929 1184h-404v-539q4 -110 -78 -120q-72 -9 -201 95q-120 96 -151 165q-11 24 -11 45q0 59 74 84h109v270h-267l-126 235h929zM934 324l-607 -341v286l607 333v-278z"/>
            <glyph horiz-adv-x="748"
                   d="M937 321l-705 -375v280l189 95q-75 40 -131 87q-135 114 -155 248q-3 18 -3 36q0 149 169 225q-54 30 -155 103q-50 45 -50 105q0 32 13 59h-109l-126 235h891l126 -235h-467q-22 -10 -40 -23q-41 -31 -49 -72q-3 -15 -3 -29q0 -80 86 -105h218l118 -190 q-178 16 -327 -43q-116 -46 -116 -127q0 -48 47 -79q52 -34 142 -34q35 0 73 5q189 26 364 167v-333z"/>
            <glyph horiz-adv-x="1618"
                   d="M1594 708l-169 -172l-175 175l172 169zM1751 1184h-662v-373h-579q-23 -9 -60 -40q-21 -32 -21 -65q0 -36 23 -61t51 -25q8 0 16 2q266 85 382 85q137 0 225 -105q105 -125 105 -267q0 -201 -228 -301q-88 -39 -198 -34l460 -460l-98 -89l-324 321l-421 -341l-169 169 l507 403q-200 26 -393 195q-168 147 -290 301l95 80q539 -360 552 -360q128 0 240.5 64.5t112.5 142.5q0 74 -66 74q-44 0 -189.5 -45.5t-204.5 -45.5q-22 0 -38 4q-115 31 -221 166.5t-106 250.5q0 83 63 145q61 59 146 66h367v143h-828l-126 235h1751zM1470 -1096l-54 -55 q-64 75 -124 135q-143 145 -240 192q-76 37 -166 37q-70 0 -129 -20l-129 224q114 17 220 8q100 -9 203 -93q56 -45 224 -222z"/>
            <glyph horiz-adv-x="929"
                   d="M1098 1184h-1098l-126 235h1098zM1132 367l-808 -416v275l223 98q-43 30 -78 63q-84 79 -116 163q-16 41 -16 84q0 73 41 134h-192l-132 235h783l158 -235h-270q-45 -33 -106 -89q-61 -85 -61 -157q0 -78 88 -78q56 0 142 32q165 62 344 206v-315z"/>
            <glyph horiz-adv-x="1427"
                   d="M1551 1184h-442v-155q206 -186 206 -407q0 -42 -8 -83q-64 -314 -375 -459q-124 -58 -252 -64l476 -476l-98 -89l-324 321l-421 -341l-169 169l522 415q-211 -5 -371 128q-143 118 -143 246q0 107 92 193q-26 19 -48 39q-54 48 -81 93q-37 60 -37 123q0 86 66.5 141.5 t188.5 55.5q67 0 131 -16l89 -190q-127 15 -223 3q-81 -10 -81 -79q0 -13 3 -27q13 -56 52 -97q23 12 94 40q51 17 121 20l97 -201q-51 -1 -93 -12q-103 -25 -150 -97q-21 -33 -21 -64q0 -90 148 -90q70 0 165 23q159 39 290 151q-76 38 -134 86q-138 116 -159 261 q-3 22 -3 44q0 175 189 263v132h-848l-126 235h1551zM1124 682q2 20 2 39q0 84 -33 144t-84 64q-67 6 -114 -57.5t-44 -149.5q5 -168 175 -252q26 35 45 68q47 81 53 144zM1361 -1096l-54 -55q-64 75 -124 135q-143 145 -240 192q-76 37 -166 37q-70 0 -129 -20l-129 224 q114 17 220 8q100 -9 203 -93q56 -45 224 -222z"/>
            <glyph horiz-adv-x="960"
                   d="M1158 1184h-1158l-126 235h1158zM1169 794h-375q36 -62 36 -142q0 -18 -2 -36q-12 -102 -89 -160q-71 -53 -174 -55q-104 -2 -220 84q-128 95 -199 252q-48 106 -74 252l126 34q7 -43 16 -83q24 -97 58 -163q80 -154 241 -152q70 1 115 48q41 43 41 99q0 16 -4 31 q-11 42 -49 104q-34 55 -37 82q-4 34 41 42q18 3 45 1h504v-238zM1169 304l-699 -353l-140 207l839 387v-241z"/>
            <glyph horiz-adv-x="1126"
                   d="M1333 1184h-510v-330h-350q-214 -1 -214 -107q0 -11 2 -22q10 -47 56 -47q6 0 202 47q29 7 59 7q43 0 76 -13q41 -15 112 -15q67 0 146 15q152 28 412 135v-585l-269 -292l-161 149l413 393v40q-147 -29 -256 -29q-35 0 -62 3q-77 10 -152 26q14 -20 49 -98 q14 -40 14 -82q0 -171 -175 -290q-96 -66 -275 -98l155 -240l-112 -78l-192 310q-53 3 -93 22q-96 46 -113 161q-4 25 -4 47q0 142 124 142q42 0 66 -17l56 -57q36 -33 83 -33q40 0 93 21q78 31 136.5 90t58.5 112q0 20 -9 36q-9 13 -28 13q-20 0 -119 -40q-95 -38 -154 -33 q-59 0 -131 49q-120 83 -181 269q-15 46 -15 87q0 172 236 217h252v115h-556l-129 235h1324z"/>
            <glyph horiz-adv-x="995"
                   d="M1144 1184h-1144l-126 235h1144zM1190 606h-235q-4 -51 -25 -93q-50 -102 -173 -145q-78 -28 -156 -28q-212 0 -360 180q-78 94 -166 215l97 69q26 -41 52 -77q61 -85 111 -127q94 -79 195 -79q81 0 143.5 50t86.5 135q13 46 13 88q0 98 -71 98q-31 0 -74 -20 q-104 -47 -158 -123l-158 204q128 116 281 116q42 0 83 -10q189 -46 258 -250q34 0 92 6q96 22 164 78v-287zM1198 318l-490 -330l-150 180l640 306v-156z"/>
            <glyph horiz-adv-x="1069"
                   d="M1270 1184h-384v-224q-3 -32 -19 -60q-36 -68 -127 -106q-12 -5 -196 -72q-129 -48 -189 -83q-73 -43 -73 -131q0 -86 69 -151q77 -73 200 -73q22 0 45 3q205 23 376 189l123 -238q-50 -41 -104 -72q-128 -75 -254 -89q-22 -2 -54 -3l460 -460l-98 -89l-324 321 l-421 -341l-169 169l504 401q-215 14 -375 167q-149 144 -157 308q-15 312 358 399q152 35 158 83v152h-619l-126 235h1270zM1348 -1022l-54 -55q-64 75 -124 135q-143 145 -240 192q-76 37 -166 37q-70 0 -129 -20l-129 224q114 18 220 9q100 -9 203 -93q55 -45 224 -223z "/>
            <glyph horiz-adv-x="1172"
                   d="M1316 1184h-456q48 -82 48 -166q0 -15 -2 -29q-10 -83 -46 -123q52 -42 93 -89q98 -114 128 -238q11 -47 11 -94q0 -164 -115 -277q-123 -121 -323 -117l461 -462l-97 -88l-324 321l-422 -341l-169 169l508 403q-13 1 -38 4q-190 28 -335 170q-159 156 -152 355 q8 231 204 328q121 60 283 60q22 0 38 -1q21 12 37 27q38 37 43 85q4 37 -40 103h-651l-126 235h1316zM783 333q93 94 93 231q0 152 -108 216q-51 30 -117 30q-83 0 -163.5 -44.5t-123.5 -114.5q-53 -86 -53 -185q0 -158 107 -219q49 -28 110 -28q143 0 255 114zM1321 -1047 l-55 -54q-64 75 -124 135q-143 144 -240 191q-76 37 -167 37q-69 0 -128 -19l-129 223q115 18 221 9q100 -9 203 -93q55 -45 224 -223z"/>
            <glyph horiz-adv-x="1333"
                   d="M1471 1184h-382v-373h-579q-23 -9 -60 -40q-21 -32 -21 -65q0 -36 23 -61t51 -25q8 0 16 2q273 87 389 85q128 -2 227 -111.5t99 -239.5q0 -150 -117 -251t-295 -105l384 -425l-97 -89l-324 321l-421 -341l-169 169l519 365q-344 58 -637 499l95 80q232 -358 510 -358 q143 0 269.5 62.5t126.5 142.5q0 74 -67 74q-44 0 -189.5 -45.5t-204.5 -45.5q-22 0 -38 4q-115 31 -221 166.5t-106 250.5q0 83 63 145q61 59 146 66h367v143h-828l-126 235h1471zM1412 -1061l-54 -55q-64 75 -124 135q-143 145 -240 192q-76 37 -166 37q-70 0 -130 -20 l-129 224q115 17 221 8q100 -9 203 -93q56 -45 224 -222z"/>
            <glyph horiz-adv-x="1159"
                   d="M1304 1184h-392v-390h-479q-178 -54 -178 -233q0 -31 6 -65q16 -92 83 -159t158 -76q-28 90 -28 177q0 205 162 253q45 13 90 13q131 0 222.5 -103.5t91.5 -250.5q0 -20 -2 -40q-12 -132 -129.5 -217.5t-269.5 -76.5l439 -438l-98 -89l-324 321l-421 -341l-169 169 l491 391q-187 46 -331 230t-144 376q0 40 7 79q45 261 295 295h267v175h-651l-126 235h1304zM891 456q-21 66 -108 66q-94 0 -147 -75q-48 -67 -43 -195q71 5 169 20q134 49 134 152q0 16 -5 32zM1283 -1058l-54 -55q-64 75 -124 135q-143 145 -240 192q-76 37 -166 37 q-70 0 -129 -20l-129 224q114 17 220 8q100 -9 203 -93q56 -45 224 -222z"/>
            <glyph horiz-adv-x="1101"
                   d="M1250 1184h-321v-423q0 -176 -81 -264q-70 -78 -191 -78q-84 0 -175 38q-245 101 -310 336v391h-172l-126 235h1250zM671 733v451h-244v-471q1 -23 9 -41q17 -43 60 -57q24 -8 46 -8q95 0 129 126zM1289 402l-597 -435l-150 179l747 462v-206z"/>
            <glyph horiz-adv-x="685"
                   d="M891 1184h-891l-126 235h891zM891 513l-541 -404l-184 178l668 453q-78 31 -261 80q-23 4 -47 4q-134 0 -279 -105l-158 224q145 85 300 85q112 0 207 -51q142 -76 295 -194v-270z"/>
            <glyph horiz-adv-x="883"
                   d="M1072 358l-762 -478v283l189 112q-29 6 -63 24q-82 44 -178 142q-82 84 -132 264q32 9 155 69l89 49q-63 37 -111 78q-116 97 -139 194q-8 32 -8 63q0 117 92 193q95 80 243 74q140 -6 240 -99q92 -87 113 -211q7 -42 7 -80q0 -195 -228 -353q-93 -64 -226 -137 q15 -30 40 -52q60 -53 160 -57q226 -8 519 258v-336zM591 1112q0 136 -87 161q-18 5 -36 5q-57 0 -93 -53q-34 -48 -34 -118q0 -27 6 -52q26 -117 123 -169q121 217 121 226z"/>
            <glyph horiz-adv-x="1177"
                   d="M1324 1184h-410v-384h-478q-29 -18 -52 -37q-56 -46 -74 -92q-12 -32 -12 -66q0 -121 112 -172q81 -37 163 -37q40 0 69 8q-26 56 -26 106q0 55 35.5 86t87.5 31q90 0 175 -75.5t75 -150.5q-13 -99 -115 -154l167 -327l-132 -63l-169 332l-468 -272l-129 183l250 141 q-59 37 -108 85q-119 116 -167 267q-28 87 -28 159q0 234 260 271h304v161h-654l-126 235h1324zM1356 -749l-55 -55q-64 75 -124 135q-143 145 -240 192q-76 37 -166 37q-70 0 -129 -20l-129 224q115 17 221 8q100 -9 203 -93q56 -45 224 -222z"/>
            <glyph horiz-adv-x="762"
                   d="M972 335l-737 -395v278l192 77q-74 41 -129 91q-133 121 -152 270q-2 16 -2 32q0 138 140 206q-48 36 -85 72q-88 88 -104 163q-7 33 -7 64q0 108 78 168q83 65 232 58q111 -5 195 -84t84 -170q0 -77 -66 -127q-75 -58 -213 -63q25 -14 72 -35q37 -10 83 -11h92l106 -198 h-338q-107 -37 -107 -116q0 -30 18 -65q50 -95 208 -95q67 0 122 18q170 56 318 186v-324zM456 1092q55 32 55 100q0 46 -27.5 82t-70.5 36q-139 0 -132 -132q4 -69 46 -120q70 -1 129 34z"/>
            <glyph horiz-adv-x="708"
                   d="M877 1184h-877l-126 235h877zM909 679h-407q-48 -24 -48 -93q0 -7 1.5 -21.5t1.5 -21.5q0 -87 -90 -87q-35 0 -66 20q-57 37 -131 148q-77 118 -77 180q0 87 102 110h714v-235zM909 333l-568 -344v278l568 321v-255z"/>
            <glyph horiz-adv-x="639"
                   d="M837 439l-593 -385l-144 184l361 235q-47 25 -89 54q-100 71 -154 149q-71 102 -75 250v258h-143l-126 235h811l126 -235h-404v-356q0 -198 80 -240q46 -24 97 -24q126 0 253 127v-252z"/>
            <glyph horiz-adv-x="1175"
                   d="M1299 1184h-296v-310q88 61 200 61q47 0 93 -12l-3 -221q-19 2 -38 2q-156 0 -252 -145v-559l-263 178v263l-448 -346l-183 195l341 220q-35 24 -152 126q-113 108 -126 227v321h-169l-129 235h1299zM740 740v444h-304v-396q-11 -145 111 -166q12 -2 23 -2q97 0 170 120z "/>
            <glyph horiz-adv-x="685"
                   d="M877 1184h-877l-126 235h877zM880 384l-742 -436v270l172 83q-47 23 -86 55q-93 76 -129 180q-28 80 -28 160q0 139 78 237q85 107 239 133q38 6 75 6q239 0 421 -224v-111q-35 31 -70 56q-86 59 -159 73q-96 19 -155 0l183 -333q20 11 106 69l95 66v-284zM542 464 l-192 344q-27 -10 -95 -77q-42 -57 -42 -121q0 -126 140 -169q31 -9 64 -9q66 0 125 32z"/>
            <glyph horiz-adv-x="912"
                   d="M1101 593h-382v-80q0 -46 -25 -79q-27 -37 -69 -37q-82 0 -190 100q-106 97 -123 182q-3 16 -3 30q0 83 98 88h69v97q-37 0 -152 26q-88 29 -154 94q-78 78 -78 170q0 28 8 57q23 87 102 136q73 46 167 46q80 0 147 -33q203 -101 203 -332v-261h382v-204zM476 989v180 q-6 140 -89 132q-82 -8 -82 -128q0 -60 25 -104q46 -80 146 -80zM1101 258l-508 -278v241l508 252v-215z"/>
            <glyph horiz-adv-x="731"
                   d="M934 588h-455v-81q0 -113 -90 -113q-10 0 -22 2q-52 8 -165 137q-117 132 -125 201q-10 85 86 94h55v356h-218l-126 235h923l126 -235h-444v-356h455v-240zM934 307l-584 -353v258l584 347v-252z"/>
            <glyph horiz-adv-x="705"
                   d="M897 375l-725 -375v301l224 92q-35 13 -68 37q-79 58 -136 158q-89 157 -100 312q70 19 258 89q82 36 82 95q0 49 -51 100h-381l-126 235h866l126 -235h-336q81 -113 81 -209q0 -30 -9 -55q-45 -131 -327 -203q26 -191 258 -178q186 11 364 158v-322z"/>
            <glyph horiz-adv-x="659"
                   d="M848 1184h-848l-126 235h845zM869 396l-746 -462v281l172 89q-57 39 -100 87q-104 114 -118 254q-2 17 -2 34q0 153 124 261q119 104 268 98q277 -11 402 -233v-80q-116 94 -271 94q-61 0 -122 -16q-109 -29 -177 -103q-62 -67 -62 -137q0 -35 18 -61q34 -48 136 -48 q120 0 220 50q181 90 258 190v-298z"/>
            <glyph horiz-adv-x="1637"
                   d="M1846 1184h-771v-293q25 19 51 33q62 34 118 36q157 7 266 -153q95 -138 95 -291q0 -21 -3 -40q-26 -194 -146 -353l-209 149q30 43 54 83q58 96 78 158q36 113 36 174q0 73 -52 73q-39 0 -108 -41q-85 -50 -180 -143v-576l-261 178v235l-545 -393l-174 198l266 163 q-208 130 -203 367q2 121 88 213q93 100 235 100q59 0 121 -18q112 -33 212 -157v298h-760l-126 235h1792zM814 714q-22 37 -49 66q-64 70 -143 86q-20 4 -40 4q-99 0 -179 -82q-77 -78 -77 -163q0 -23 7 -43q24 -67 123 -67q85 0 177 44q122 59 181 155z"/>
            <glyph horiz-adv-x="1789"
                   d="M1914 1184h-298v-1184l-264 178v13l-1011 -349l-126 230l341 103q-77 47 -145 106q-165 142 -262 324q-60 113 -60 199q0 68 46 87q14 6 28 6q51 0 98 -63q27 -10 46 9q13 13 14 69v272h-321l-126 235h1914zM1352 760v43q-107 86 -231 103q-22 3 -43 3q-109 0 -180 -75 q-61 -63 -61 -132q0 -23 9 -37q33 -55 111 -55q69 0 204 52q111 43 191 98zM1352 1184h-770v-404q-3 -26 -13 -51q-22 -58 -70 -96q-69 -54 -178 -65q15 -35 40 -68q61 -79 164 -136q126 -69 350 -69q65 0 117 9q192 34 360 133v122q-154 -117 -318 -117q-18 0 -36 2 q-118 10 -202 125q-79 107 -79 230q0 134 84 217.5t212 83.5q164 0 339 -198v282z"/>
            <glyph horiz-adv-x="1311"
                   d="M1454 1184h-299v-1184l-263 178v122l-565 -317v286l565 310v605h-367v-539q4 -110 -78 -120q-72 -9 -201 95q-120 96 -151 165q-11 24 -11 45q0 59 74 84h109v270h-267l-126 235h1453z"/>
            <glyph horiz-adv-x="1311"
                   d="M1457 1184h-298v-1184l-264 178v120l-663 -352v280l189 95q-75 40 -131 87q-135 114 -155 248q-3 18 -3 36q0 149 169 225q-54 30 -155 103q-50 45 -50 105q0 32 13 59h-109l-126 235h1457zM895 621v563h-471q-22 -10 -40 -23q-41 -31 -49 -72q-3 -15 -3 -29 q0 -80 86 -105h218l118 -190q-178 16 -327 -43q-116 -46 -116 -127q0 -48 47 -79q52 -34 142 -34q35 0 73 5q163 23 322 134z"/>
            <glyph horiz-adv-x="1618"
                   d="M1594 708l-169 -172l-175 175l172 169zM1751 1184h-662v-373h-579q-23 -9 -60 -40q-21 -32 -21 -65q0 -36 23 -61t51 -25q8 0 16 2q273 87 389 85q128 -2 227 -111.5t99 -239.5q0 -148 -113.5 -248.5t-288.5 -107.5l433 -433l-98 -89l-324 321l-421 -341l-169 169 l476 379q-335 54 -652 493l95 80q232 -358 510 -358q143 0 269.5 62.5t126.5 142.5q0 74 -67 74q-44 0 -189.5 -45.5t-204.5 -45.5q-22 0 -38 4q-115 31 -221 166.5t-106 250.5q0 83 63 145q61 59 146 66h367v143h-828l-126 235h1751z"/>
            <glyph horiz-adv-x="1528"
                   d="M1668 1184h-298v-1184l-263 178v176l-783 -403v275l223 98q-43 30 -78 63q-84 79 -116 163q-16 41 -16 84q0 73 41 134h-192l-132 235h783l158 -235h-270q-45 -33 -106 -89q-61 -85 -61 -157q0 -78 88 -78q56 0 142 32q153 57 319 186v522h-1107l-126 235h1668z"/>
            <glyph horiz-adv-x="1427"
                   d="M1551 1184h-442v-155q206 -186 206 -407q0 -42 -8 -83q-64 -314 -375 -459q-72 -33 -145 -50l428 -427l-97 -89l-324 321l-421 -341l-170 169l444 352q-200 2 -352 128q-143 118 -143 246q0 107 92 193q-26 19 -48 39q-54 48 -81 93q-37 60 -37 123q0 86 66.5 141.5 t188.5 55.5q67 0 131 -16l89 -190q-127 15 -223 3q-81 -10 -81 -79q0 -13 3 -27q13 -56 52 -97q23 12 94 40q51 17 121 20l97 -201q-51 -1 -93 -12q-103 -25 -150 -97q-21 -33 -21 -64q0 -90 148 -90q70 0 165 23q159 39 290 151q-76 38 -134 86q-138 116 -159 261 q-3 22 -3 44q0 175 189 263v132h-848l-126 235h1551zM1124 682q2 20 2 39q0 84 -33 144t-84 64q-67 6 -114 -57.5t-44 -149.5q5 -168 175 -252q26 35 45 68q47 81 53 144z"/>
            <glyph horiz-adv-x="1554"
                   d="M1702 1184h-299v-1184l-263 178v111l-670 -338l-140 207l810 373v263h-346q36 -62 36 -142q0 -18 -2 -36q-12 -102 -89 -160q-71 -53 -174 -55q-104 -2 -220 84q-128 95 -199 252q-48 106 -74 252l126 34q7 -43 16 -83q24 -97 58 -163q80 -154 241 -152q70 1 115 48 q41 43 41 99q0 16 -4 31q-11 42 -49 104q-34 55 -37 82q-4 34 41 42q18 3 45 1h475v152h-1140l-126 235h1701z"/>
            <glyph horiz-adv-x="1701"
                   d="M1857 1184h-298v-1184l-264 178v60l-240 -261l-161 149l401 381v50q-142 -27 -245 -27q-34 0 -61 3q-77 10 -152 26q14 -20 49 -98q14 -40 14 -82q0 -171 -175 -290q-96 -66 -275 -98l155 -240l-112 -78l-192 310q-53 3 -93 22q-96 46 -113 161q-4 25 -4 47 q0 142 124 142q42 0 66 -17l56 -57q36 -33 83 -33q40 0 93 21q78 31 136.5 90t58.5 112q0 20 -9 36q-9 13 -28 13q-20 0 -119 -40q-95 -38 -154 -33q-59 0 -131 49q-120 83 -181 269q-15 46 -15 87q0 172 236 217h252v115h-556l-129 235h1857zM1295 842v342h-472v-330h-350 q-214 -1 -214 -107q0 -11 2 -22q10 -47 56 -47q6 0 202 47q29 7 59 7q43 0 76 -13q41 -15 112 -15q67 0 146 15q141 26 383 123z"/>
            <glyph horiz-adv-x="1598"
                   d="M1737 1184h-299v-1184l-263 178v124l-467 -314l-150 180l617 295v143h-220q-4 -51 -25 -93q-50 -102 -173 -145q-78 -28 -156 -28q-212 0 -360 180q-78 94 -166 215l97 69q26 -41 52 -77q61 -85 111 -127q94 -79 195 -79q81 0 143.5 50t86.5 135q13 46 13 88q0 98 -71 98 q-31 0 -74 -20q-104 -47 -158 -123l-158 204q128 116 281 116q42 0 83 -10q189 -46 258 -250q34 0 92 6q84 19 149 66v303h-1175l-126 235h1736z"/>
            <glyph horiz-adv-x="1141"
                   d="M1270 1184h-384v-224q-3 -32 -19 -60q-36 -68 -127 -106q-12 -5 -196 -72q-129 -48 -189 -83q-73 -43 -73 -131q0 -86 69 -151q77 -73 200 -73q22 0 45 3q205 23 376 189l123 -238q-50 -41 -104 -72q-128 -75 -254 -89q-23 -2 -56 -3l450 -450l-97 -88l-324 321 l-422 -341l-169 169l494 392q-207 22 -360 172q-142 142 -150 301q-15 312 358 399q152 35 158 83v152h-619l-126 235h1270z"/>
            <glyph horiz-adv-x="1172"
                   d="M1316 1184h-456q48 -82 48 -166q0 -15 -2 -29q-10 -83 -46 -123q52 -42 93 -89q98 -114 128 -238q11 -47 11 -94q0 -153 -101 -263q-109 -118 -287 -130l427 -428l-97 -88l-324 321l-422 -341l-169 169l467 371l-13 1q-190 26 -335 169q-159 156 -152 356q8 231 204 328 q121 60 283 60q22 0 38 -1q21 12 37 27q38 37 43 85q4 37 -40 103h-651l-126 235h1316zM783 333q93 94 93 231q0 152 -108 216q-51 30 -117 30q-83 0 -163.5 -44.5t-123.5 -114.5q-53 -86 -53 -185q0 -158 107 -219q49 -28 110 -28q143 0 255 114z"/>
            <glyph horiz-adv-x="1333"
                   d="M1471 1184h-382v-373h-579q-23 -9 -60 -40q-21 -32 -21 -65q0 -36 23 -61t51 -25q8 0 16 2q273 87 389 85q128 -2 227 -111.5t99 -239.5q0 -138 -101 -236.5t-260 -116.5l370 -369l-98 -89l-324 321l-421 -341l-169 169l417 331q-299 95 -571 474l95 80 q232 -358 510 -358q143 0 269.5 62.5t126.5 142.5q0 74 -67 74q-44 0 -189.5 -45.5t-204.5 -45.5q-22 0 -38 4q-115 31 -221 166.5t-106 250.5q0 83 63 145q61 59 146 66h367v143h-828l-126 235h1471z"/>
            <glyph horiz-adv-x="1159"
                   d="M1304 1184h-392v-390h-479q-178 -54 -178 -233q0 -31 6 -65q16 -92 83 -159t158 -76q-28 90 -28 177q0 205 162 253q45 13 90 13q131 0 222.5 -103.5t91.5 -250.5q0 -20 -2 -40q-12 -123 -115.5 -206.5t-244.5 -87.5l441 -442l-97 -89l-324 321l-421 -341l-169 169 l487 387q-199 32 -356 222t-157 392q0 40 7 79q45 261 295 295h267v175h-651l-126 235h1304zM891 456q-21 66 -107 66q-95 0 -148 -75q-48 -67 -43 -195q71 5 169 20q134 49 134 152q0 16 -5 32z"/>
            <glyph horiz-adv-x="1666"
                   d="M1818 1184h-299v-1184l-263 178v199l-564 -410l-150 179l714 441v597h-327v-423q0 -176 -81 -264q-70 -78 -191 -78q-84 0 -175 38q-245 101 -310 336v391h-172l-126 235h1817zM671 733v451h-244v-471q1 -23 9 -41q17 -43 60 -57q24 -8 46 -8q95 0 129 126z"/>
            <glyph horiz-adv-x="1285"
                   d="M1432 1184h-298v-1184l-264 178v319l-520 -388l-184 178l668 453q-78 31 -261 80q-23 4 -47 4q-134 0 -279 -105l-158 224q145 85 300 85q112 0 207 -51q134 -72 274 -178v385h-870l-126 235h1432z"/>
            <glyph horiz-adv-x="1459"
                   d="M1606 1184h-298v-1184l-264 178v163l-734 -461v283l189 112q-29 6 -63 24q-82 44 -178 142q-82 84 -132 264q32 9 155 69l89 49q-63 37 -111 78q-116 97 -139 194q-8 32 -8 63q0 117 92 193q95 80 243 74q140 -6 240 -99q92 -87 113 -211q7 -42 7 -80q0 -195 -228 -353 q-93 -64 -226 -137q15 -30 40 -52q60 -53 160 -57q217 -8 491 232v516h-172l-126 235h734zM591 1112q0 136 -87 161q-18 5 -36 5q-57 0 -93 -53q-34 -48 -34 -118q0 -27 6 -52q26 -117 123 -169q121 217 121 226z"/>
            <glyph horiz-adv-x="1177"
                   d="M1324 1184h-410v-384h-478q-29 -18 -52 -37q-56 -46 -74 -92q-12 -32 -12 -66q0 -121 112 -172q81 -37 163 -37q40 0 69 8q-26 56 -26 106q0 55 35.5 86t87.5 31q90 0 175 -75.5t75 -150.5q-13 -99 -115 -154l167 -327l-132 -63l-169 332l-468 -272l-129 183l250 141 q-59 37 -108 85q-119 116 -167 267q-28 87 -28 159q0 234 260 271h304v161h-654l-126 235h1324z"/>
            <glyph horiz-adv-x="1363"
                   d="M1507 1184h-298v-1184l-264 178v143l-710 -381v278l192 77q-74 41 -129 91q-133 121 -152 270q-2 16 -2 32q0 138 140 206q-48 36 -85 72q-88 88 -104 163q-7 33 -7 64q0 108 78 168q83 65 232 58q111 -5 195 -84t84 -170q0 -77 -66 -127q-75 -58 -213 -63q25 -14 72 -35 q37 -10 83 -11h92l106 -198h-338q-107 -37 -107 -116q0 -30 18 -65q50 -95 208 -95q67 0 122 18q151 50 291 164v547h-172l-126 235h734zM456 1092q55 32 55 100q0 46 -27.5 82t-70.5 36q-139 0 -132 -132q4 -69 46 -120q70 -1 129 34z"/>
            <glyph horiz-adv-x="1293"
                   d="M1445 1184h-298v-1184l-264 178v139l-542 -328v278l542 306v106h-381q-48 -24 -48 -93q0 -7 1.5 -21.5t1.5 -21.5q0 -87 -90 -87q-35 0 -66 20q-57 37 -131 148q-77 118 -77 180q0 87 102 110h688v270h-883l-126 235h1445z"/>
            <glyph horiz-adv-x="1215"
                   d="M1358 1184h-298v-1184l-264 178v234l-552 -358l-144 184l361 235q-47 25 -89 54q-100 71 -154 149q-71 102 -75 250v258h-143l-126 235h1358zM796 653v531h-389v-356q0 -198 80 -240q46 -24 97 -24q103 0 212 89z"/>
            <glyph horiz-adv-x="1643"
                   d="M1815 1184h-812v-310q118 98 236 98q86 0 154 -59q165 -143 166 -322q0 -73 -25 -154q-34 -115 -135 -275l-218 166q14 12 32 38q43 64 103 192q56 121 56 182q0 59 -50 59q-61 0 -184 -84q-77 -53 -135 -97v-618l-263 178v263l-448 -346l-183 195l341 220 q-35 24 -152 126q-113 108 -126 227v321h-169l-129 235h1815zM740 740v444h-304v-396q-11 -145 111 -166q12 -2 23 -2q97 0 170 120z"/>
            <glyph horiz-adv-x="1276"
                   d="M1423 1184h-298v-1184l-264 178v195l-723 -425v270l172 83q-47 23 -86 55q-93 76 -129 180q-28 80 -28 160q0 139 78 237q85 107 239 133q38 6 75 6q227 0 402 -201v313h-861l-126 235h1423zM861 655v98q-112 94 -210 113q-96 19 -155 0l183 -333q20 12 106 69zM542 464 l-192 344q-27 -10 -95 -77q-42 -57 -42 -121q0 -126 140 -169q31 -9 64 -9q66 0 125 32z"/>
            <glyph horiz-adv-x="1502"
                   d="M1647 1184h-299v-1184l-263 178v71l-492 -269v241l492 244v128h-366v-80q0 -46 -25 -79q-27 -37 -69 -37q-82 0 -190 100q-106 97 -123 182q-3 16 -3 30q0 83 98 88h69v97q-37 0 -152 26q-88 29 -154 94q-78 78 -78 170q0 28 8 57q23 87 102 136q73 46 167 46 q80 0 147 -33q203 -101 203 -332v-261h366v387h-172l-126 235h733zM476 989v180q-6 140 -89 132q-82 -8 -82 -128q0 -60 25 -104q46 -80 146 -80z"/>
            <glyph horiz-adv-x="1319"
                   d="M1473 1184h-299v-1184l-263 178v114l-561 -338v258l561 333v43h-432v-81q0 -113 -90 -113q-10 0 -22 2q-52 8 -165 137q-117 132 -125 201q-10 85 86 94h55v356h-218l-126 235h1472zM911 828v356h-432v-356h432z"/>
            <glyph horiz-adv-x="1285"
                   d="M1429 1184h-298v-1184l-264 178v182l-695 -360v301l224 92q-35 13 -68 37q-79 58 -136 158q-89 157 -100 312q70 19 258 89q82 36 82 95q0 49 -51 100h-381l-126 235h1429zM867 1184h-1h-336q81 -113 81 -209q0 -30 -9 -55q-45 -131 -327 -203q26 -191 258 -178 q168 10 334 134v511z"/>
            <glyph horiz-adv-x="1267"
                   d="M1410 1184h-298v-1184l-264 178v205l-725 -449v281l172 89q-57 39 -100 87q-104 114 -118 254q-2 17 -2 34q0 153 124 261q119 104 268 98q252 -10 381 -199v345h-848l-126 235h1410zM848 670v71q-111 78 -250 78q-61 0 -122 -16q-109 -29 -177 -103q-62 -67 -62 -137 q0 -35 18 -61q34 -48 136 -48q120 0 220 50q153 76 237 166z"/>
            <glyph horiz-adv-x="1158"
                   d="M1313 1184h-321v-293q100 69 169 69q83 0 135 -31l-41 -172q-31 -10 -126 -66q-77 -56 -137 -115v-576l-261 178v235q-245 -96 -253 -96q-144 0 -267 113q-138 128 -136 318q1 121 87 213q94 100 236 100q59 0 121 -18q112 -33 212 -157v298h-731l-126 235h1313zM731 714 q-22 37 -49 66q-64 70 -143 86q-20 4 -40 4q-99 0 -180 -82q-77 -78 -77 -163q0 -23 7 -43q24 -67 124 -67q85 0 177 44q122 59 181 155zM419 149l-186 -186l-187 189l187 187z"/>
            <glyph horiz-adv-x="1181"
                   d="M1396 596q-168 -154 -362 -154q-18 0 -36 2q-118 10 -202 125q-79 107 -79 230q0 134 84 217.5t212 83.5q16 0 33 -2q168 -15 350 -250v-252zM1379 780q-33 31 -71 55q-90 58 -187 71q-23 3 -44 3q-108 0 -175 -72q-57 -61 -57 -131q0 -93 121 -93q95 0 195 49 q136 66 218 118zM1396 229q-228 -134 -475 -134q-143 0 -270 51q-149 59 -294 195q-137 129 -208 264q-60 115 -60 200q0 67 46 86q14 6 28 6q51 0 98 -63q27 -10 46 9q13 13 14 69v272h-321l-126 235h1364l126 -235h-782v-404q-3 -26 -13 -51q-22 -58 -70 -96 q-69 -54 -178 -65q15 -35 40 -68q61 -79 164 -136q126 -69 350 -69q65 0 117 9q224 40 404 160v-235zM419 149l-186 -186l-187 189l187 187z"/>
            <glyph horiz-adv-x="748"
                   d="M894 1184h-367v-594q3 -110 -80 -120q-71 -9 -201 97q-120 98 -151 167q-11 23 -11 44q0 59 74 85h109v321h-267l-126 235h894zM568 174l-186 -186l-186 189l186 186z"/>
            <glyph horiz-adv-x="1618"
                   d="M1594 708l-169 -172l-175 175l172 169zM1751 1184h-662v-373h-579q-23 -9 -60 -40q-21 -32 -21 -65q0 -36 23 -61t51 -25q8 0 16 2q273 87 389 85q128 -2 227 -111.5t99 -239.5q0 -153 -121.5 -255t-304.5 -102q-247 0 -514 250q-111 104 -217 250l95 80 q232 -358 510 -358q143 0 269.5 62.5t126.5 142.5q0 74 -67 74q-44 0 -189.5 -45.5t-204.5 -45.5q-22 0 -38 4q-115 31 -221 166.5t-106 250.5q0 83 63 145q61 59 146 66h367v143h-828l-126 235h1751zM1314 -625l-54 -54q-64 75 -124 135q-143 144 -240 191q-76 37 -167 37 q-69 0 -128 -19l-129 223q114 18 220 9q100 -9 203 -93q56 -45 224 -222zM394 6l-186 -187l-186 190l186 186z"/>
            <glyph horiz-adv-x="929"
                   d="M1095 1184h-1095l-126 235h1095zM1132 378q-44 -37 -93 -64q-119 -65 -248 -70q-133 -5 -269 98q-123 94 -169 208q-16 40 -16 83q0 73 41 135h-192l-132 235h783l158 -235h-270q-45 -33 -106 -89q-61 -85 -61 -157q0 -78 88 -78q56 0 142 32q165 62 344 206v-304z M432 174l-186 -186l-187 189l187 186z"/>
            <glyph horiz-adv-x="1427"
                   d="M1551 1184h-442v-155q206 -186 206 -407q0 -42 -8 -83q-64 -314 -375 -459q-140 -65 -280 -65q-202 0 -357 128q-143 118 -143 246q0 107 92 193q-26 19 -48 39q-54 48 -81 93q-37 60 -37 123q0 86 66.5 141.5t188.5 55.5q67 0 131 -16l89 -190q-127 15 -223 3 q-81 -10 -81 -79q0 -13 3 -27q13 -56 52 -97q23 12 94 40q51 17 121 20l97 -201q-51 -1 -93 -12q-103 -25 -150 -97q-21 -33 -21 -64q0 -90 148 -90q70 0 165 23q159 39 290 151q-76 38 -134 86q-138 116 -159 261q-3 22 -3 44q0 175 189 263v132h-848l-126 235h1551z M1124 682q2 20 2 39q0 84 -33 144t-84 64q-67 6 -114 -57.5t-44 -149.5q5 -168 175 -252q26 35 45 68q47 81 53 144zM1340 -625l-54 -54q-64 75 -124 135q-143 144 -240 191q-76 37 -167 37q-69 0 -128 -19l-129 223q114 18 220 9q100 -9 203 -93q56 -45 224 -222zM376 -81 l-187 -187l-186 190l186 186z"/>
            <glyph horiz-adv-x="952"
                   d="M1124 1184h-1124l-126 235h1124zM1158 734h-384q27 -27 86 -129q27 -63 27 -128q0 -170 -168 -233q-45 -17 -95 -17q-191 0 -343 209q-128 176 -206 421l111 49q17 -58 39 -112q52 -130 119 -215q81 -104 183 -104q86 0 121 55q20 30 20 70q0 92 -138 283q-17 24 -17 46 q0 46 46 46h599v-241zM419 149l-186 -186l-187 189l187 187z"/>
            <glyph horiz-adv-x="963"
                   d="M1161 568q-106 -33 -186 -29q-77 4 -152 26q14 -21 46 -98q12 -39 12 -80q0 -84 -46.5 -163t-120.5 -124q-97 -60 -273 -91l158 -241l-115 -78l-189 301q-51 4 -89 24q-93 47 -111 163q-4 27 -4 50q0 136 116 136q40 0 65 -17l59 -56q38 -33 84 -33q38 0 89 20 q76 31 134 89t58 109q0 50 -38 50q-19 0 -113.5 -39.5t-151.5 -36.5q-63 3 -132 52q-117 84 -175 266q-15 46 -15 87q0 170 230 211h249v118h-550l-126 235h1135l126 -235h-327v-327h-344q-208 0 -208 -109q0 -10 2 -20q9 -47 52 -47q5 0 200 47q27 6 54 6q44 0 78 -15 q36 -9 95 -9q72 0 157 15q154 28 267 144v-301zM289 -193l-187 -186l-186 189l186 186z"/>
            <glyph horiz-adv-x="995"
                   d="M1144 1184h-1144l-126 235h1144zM1190 565h-235q-7 -58 -29 -106q-55 -115 -178 -158q-57 -20 -117 -20q-197 0 -390 198q-85 88 -166 215l97 68q26 -41 52 -76q61 -85 111 -127q94 -79 195 -79q81 0 143.5 50t86.5 135q13 46 13 88q0 98 -71 98q-31 0 -74 -20 q-104 -47 -158 -123l-158 204q128 116 281 116q42 0 83 -10q189 -46 258 -250q34 0 92 6q96 22 164 77v-286zM419 149l-186 -186l-187 189l187 187z"/>
            <glyph horiz-adv-x="1141"
                   d="M1270 1184h-384v-224q-3 -32 -19 -60q-36 -68 -127 -106q-12 -5 -196 -72q-129 -48 -189 -83q-73 -43 -73 -131q0 -86 69 -151q77 -73 200 -73q22 0 45 3q205 23 376 189l123 -238q-50 -41 -104 -72q-128 -75 -254 -89q-32 -4 -64 -4q-227 0 -401 158q-161 147 -169 319 q-15 312 358 399q152 35 158 83v152h-619l-126 235h1270zM1203 -625l-55 -54q-64 75 -124 135q-143 144 -240 191q-76 37 -167 37q-69 0 -128 -19l-129 223q115 18 221 9q100 -9 203 -93q56 -45 224 -222zM345 25l-186 -187l-187 190l187 186z"/>
            <glyph horiz-adv-x="1172"
                   d="M1316 1184h-456q48 -82 48 -166q0 -15 -2 -29q-10 -83 -46 -123q52 -42 93 -89q98 -114 128 -238q11 -47 11 -94q0 -162 -112 -274q-120 -121 -315 -121q-45 0 -92 7q-190 28 -335 170q-159 156 -152 355q8 231 204 328q121 60 283 60q22 0 38 -1q21 12 37 27 q38 37 43 85q4 37 -40 103h-651l-126 235h1316zM783 333q93 94 93 231q0 152 -108 216q-51 30 -117 30q-83 0 -163.5 -44.5t-123.5 -114.5q-53 -86 -53 -185q0 -158 107 -219q49 -28 110 -28q143 0 255 114zM1203 -625l-55 -54q-64 75 -124 135q-143 144 -240 191 q-76 37 -167 37q-69 0 -128 -19l-129 223q115 18 221 9q100 -9 203 -93q56 -45 224 -222zM351 0l-186 -186l-187 189l187 186z"/>
            <glyph horiz-adv-x="1333"
                   d="M1471 1184h-382v-373h-579q-23 -9 -60 -40q-21 -32 -21 -65q0 -36 23 -61t51 -25q8 0 16 2q273 87 389 85q128 -2 227 -111.5t99 -239.5q0 -153 -121.5 -255t-304.5 -102q-247 0 -514 250q-111 104 -217 250l95 80q232 -358 510 -358q143 0 269.5 62.5t126.5 142.5 q0 74 -67 74q-44 0 -189.5 -45.5t-204.5 -45.5q-22 0 -38 4q-115 31 -221 166.5t-106 250.5q0 83 63 145q61 59 146 66h367v143h-828l-126 235h1471zM1354 -625l-54 -54q-64 75 -124 135q-143 144 -240 191q-76 37 -167 37q-69 0 -128 -19l-129 223q114 18 220 9 q100 -9 203 -93q56 -45 224 -222zM400 0l-186 -186l-186 189l186 186z"/>
            <glyph horiz-adv-x="1159"
                   d="M1304 1184h-392v-390h-479q-178 -54 -178 -233q0 -31 6 -65q16 -92 83 -159t158 -76q-28 90 -28 177q0 205 162 253q45 13 90 13q131 0 222.5 -103.5t91.5 -250.5q0 -20 -2 -40q-12 -126 -120.5 -210.5t-253.5 -84.5q-129 0 -243 71q-144 89 -238 233q-101 155 -101 316 q0 40 7 79q45 261 295 295h267v175h-651l-126 235h1304zM891 456q-21 66 -108 66q-94 0 -147 -75q-48 -67 -43 -195q71 5 169 20q134 49 134 152q0 16 -5 32zM1203 -625l-55 -54q-64 75 -124 135q-143 144 -240 191q-76 37 -167 37q-69 0 -128 -19l-129 223q115 18 221 9 q100 -9 203 -93q56 -45 224 -222zM338 -6l-186 -186l-187 189l187 186z"/>
            <glyph horiz-adv-x="1101"
                   d="M1250 1184h-321v-513q0 -176 -81 -264q-70 -78 -191 -78q-84 0 -175 38q-245 101 -310 335v482h-172l-126 235h1250zM671 642v542h-244v-562q1 -22 9 -40q17 -43 60 -57q24 -8 46 -8q95 0 129 125zM734 71l-187 -186l-186 189l186 186z"/>
            <glyph horiz-adv-x="671"
                   d="M869 1184h-869l-126 235h868zM874 725h-427q-30 0 -56 -12q-61 -29 -90 -111q-9 -26 -9 -54q0 -69 49 -135l209 -264l-124 -80l-248 329q-112 136 -106 293q10 245 266 272h536v-238zM319 -12l-186 -186l-187 189l187 187z"/>
            <glyph horiz-adv-x="857"
                   d="M1049 375q-30 -19 -169 -88q-107 -50 -219 -50q-234 0 -432 204q-83 85 -126 264q31 9 152 69q34 19 95 49q-64 37 -113 78q-119 97 -142 194q-8 31 -8 63q0 116 92 193q96 80 242 74q142 -6 242 -99q93 -86 114 -211q7 -42 7 -79q0 -194 -231 -354q-91 -63 -223 -137 q15 -30 39 -52q59 -54 158 -57q229 -8 522 258v-319zM569 1112q0 137 -87 161q-19 5 -37 5q-58 0 -92.5 -50.5t-34.5 -119.5q0 -27 6 -53q26 -117 120 -169q125 217 125 226zM419 149l-186 -186l-187 189l187 187z"/>
            <glyph horiz-adv-x="1177"
                   d="M1324 1184h-410v-401h-455q-32 -3 -59 -15q-66 -29 -102 -97q-17 -33 -17 -78q0 -64 31 -118q35 -60 92 -77q44 -13 89 -13q84 0 149 42q-28 46 -28 90q0 48 37.5 79.5t89.5 31.5q86 0 171 -75q82 -72 86 -140q5 -104 -101 -161l149 -329l-152 -66l-146 332 q-36 -7 -83 -7q-124 0 -229 50q-97 46 -180 133q-96 102 -138 228q-31 93 -31 168q0 230 251 262h307v161h-645l-126 235h1324zM1335 -683l-54 -54q-64 75 -124 135q-143 144 -240 191q-76 37 -167 37q-69 0 -128 -19l-129 223q114 18 220 9q100 -9 204 -93q56 -46 224 -223 zM381 81l-186 -186l-186 189l186 186z"/>
            <glyph horiz-adv-x="774"
                   d="M972 378q-42 -36 -92 -63q-122 -63 -267 -66q-144 -3 -289 113q-157 125 -178 294q-2 16 -2 32q0 138 140 206q-48 36 -85 72q-88 88 -104 163q-7 33 -7 64q0 108 78 168q83 65 232 58q111 -5 195 -84t84 -170q0 -77 -66 -127q-75 -58 -213 -63q25 -14 72 -35 q37 -10 83 -11h92l106 -198h-338q-107 -37 -107 -116q0 -30 18 -65q50 -95 208 -95q67 0 122 18q170 56 318 186v-281zM456 1092q55 32 55 100q0 46 -27.5 82t-70.5 36q-139 0 -132 -132q4 -69 46 -120q70 -1 129 34zM406 112l-186 -187l-187 190l187 186z"/>
            <glyph horiz-adv-x="719"
                   d="M877 1184h-877l-126 235h877zM914 679h-404q-56 -35 -56 -94q0 -12 2 -26q6 -49 -31 -77q-33 -25 -82 -25q-43 0 -71 19q-39 27 -104 135q-67 113 -73 172q-13 120 123 131h696v-235zM547 146l-187 -186l-186 189l186 187z"/>
            <glyph horiz-adv-x="625"
                   d="M837 487q-97 -91 -240 -91q-95 0 -204 51q-101 47 -175.5 118.5t-74.5 202.5v416h-143l-126 235h808l126 -235h-401v-548q-3 -71 65 -71q41 0 107 31q157 75 258 201v-310zM584 146l-186 -186l-186 189l186 187z"/>
            <glyph horiz-adv-x="1155"
                   d="M1319 785q-89 11 -198 -66q-88 -62 -146 -111v-608l-264 178v263q-71 -52 -166 -52q-13 0 -26 1q-131 11 -301 178q-72 71 -75 194v422h-143l-126 235h1310l126 -235h-335v-267q26 16 53 28q64 30 121 38q21 3 41 3q82 0 129 -43v-158zM711 740v444h-304v-568 q-5 -51 32 -51q23 0 60 23q94 57 212 152zM435 146l-186 -186l-187 189l187 187z"/>
            <glyph horiz-adv-x="702"
                   d="M877 1184h-877l-126 235h877zM900 427q-124 -181 -404 -172q-120 4 -228 75q-116 77 -168 203q-36 86 -36 173q0 136 82 234q86 103 238 126q40 6 79 6q266 0 437 -241v-77q-39 27 -78 48q-93 51 -168 61q-98 14 -152 0l186 -336q32 20 109 78q56 45 103 97v-275z M545 461l-187 347q-28 -15 -94 -83q-44 -61 -44 -124q0 -121 133 -157q30 -8 65 -8q65 0 127 25zM389 68l-187 -186l-186 189l186 186z"/>
            <glyph horiz-adv-x="937"
                   d="M1129 513h-404v-123q-14 -81 -98 -81q-9 0 -19 1q-65 7 -175 111q-118 113 -135 207q-3 15 -3 29q0 86 98 88h89v129q-35 0 -158 23q-88 23 -156 95q-77 82 -77 183q0 33 9 66q23 87 104 137q75 46 172 46q81 0 149 -34q203 -101 200 -361v-284h404v-232zM482 957v212 q-1 132 -75 132q-11 0 -23 -3q-82 -23 -82 -145q0 -67 28 -112q47 -75 152 -84zM419 149l-186 -186l-187 189l187 187z"/>
            <glyph horiz-adv-x="719"
                   d="M923 522h-444v-81q1 -113 -90 -113q-10 0 -22 2q-51 8 -165 137q-117 131 -125 198q-11 85 86 95h55v424h-218l-126 235h911l127 -235h-433v-424h444v-238zM348 120l-186 -186l-187 189l187 187z"/>
            <glyph horiz-adv-x="685"
                   d="M891 407q-150 -78 -303 -78q-234 0 -370 201q-85 125 -141 373q67 17 270 95q74 33 74 89q0 47 -48 97h-373l-126 235h866l126 -235h-347q81 -113 81 -212q0 -36 -12 -66q-46 -114 -310 -192q30 -150 212 -150q16 0 32 1q213 16 369 169v-327zM419 149l-186 -186 l-187 189l187 187z"/>
            <glyph horiz-adv-x="924"
                   d="M1076 1184h-368v-427q-8 -24 -21 -48q-31 -56 -79 -101q-77 -72 -178 -86l338 -416l-117 -106l-427 545q-10 11 -69 97q-49 73 -49 141q0 89 83 106q11 2 21 2q66 0 114 -71q54 -4 80 17q32 26 40 66v281h-444l-126 235h1075zM1203 -625l-55 -54q-64 75 -124 135 q-143 144 -240 191q-76 37 -167 37q-69 0 -128 -19l-129 223q115 18 221 9q100 -9 203 -93q56 -45 224 -222zM381 149l-186 -186l-186 189l186 187z"/>
            <glyph horiz-adv-x="903"
                   d="M1084 1184h-1084l-126 235h1083zM1095 831q-35 -4 -69 -17q-81 -30 -146.5 -101t-148.5 -229l-215 144q13 18 57 89q12 21 40 66q-50 46 -117 46q-39 0 -78 -18q-131 -61 -131 -254q0 -84 28 -147q78 -179 270 -290l-78 -97q-47 36 -192 166q-85 82 -150 198 q-93 166 -88 324q4 138 95 231t217 93q55 0 110 -20q107 -40 183 -149q26 27 109 83q61 31 131 31q91 0 173 -48v-101zM357 -12l-187 -186l-186 189l186 187z"/>
            <glyph horiz-adv-x="659"
                   d="M848 1184h-848l-126 235h845zM869 439q-146 -201 -356 -201q-155 0 -280 111t-153 279q-4 25 -4 50q0 147 114 256q118 111 277 104q290 -14 402 -233v-80q-116 95 -271 95q-77 0 -154 -26q-90 -31 -148 -98t-58 -133q0 -37 20 -64q34 -46 133 -46q128 0 234 57 q174 94 244 187v-258zM351 57l-186 -187l-187 189l187 187z"/>
            <glyph horiz-adv-x="955"
                   d="M1175 1184h-441q35 -43 62 -86q66 -103 84 -189q12 -57 12 -113q0 -170 -112 -340q-88 -133 -261 -204l200 -249l-108 -89l-233 304q-22 -6 -51 -6q-66 0 -121 35q-107 68 -107 168q0 20 4 41q20 117 134 117q32 0 61 -14q67 -32 115 -89q21 10 42 24q51 35 92 85 q48 59 72 109q-87 8 -159 29q-172 52 -242 163q-40 64 -40 146q0 81 34 158h-212l-126 235h1175zM659 1003q-14 93 -72 142q-45 39 -94 39q-43 -4 -69 -49t-26 -105q0 -52 20 -96q48 -109 224 -160q22 75 22 157q0 37 -5 72zM362 -43l-186 -187l-186 189l186 187z"/>
            <glyph horiz-adv-x="702"
                   d="M891 338q-63 -25 -147 -25q-120 0 -237 57q-192 93 -335 301v513h-172l-126 235h891l126 -235h-455l455 -430v-416zM866 605l-430 393v-373q3 -39 15 -68q30 -69 102 -73q117 -7 313 121zM419 149l-186 -186l-187 189l187 187z"/>
            <glyph horiz-adv-x="883"
                   d="M1109 1184h-430v-396q53 -35 126 -35q23 0 46 4q138 23 230 120v-318q-94 -30 -182 -30q-40 0 -73 7q-99 20 -198 120q-12 -18 -78 -71q-54 -34 -120 -63l338 -416l-117 -106l-427 545q-10 11 -69 97q-49 73 -49 141q0 89 83 106q11 2 21 2q66 0 114 -71q17 0 63 23 q29 24 29 54v287h-416l-126 235h1109zM381 136l-186 -186l-186 189l186 186z"/>
            <glyph horiz-adv-x="1124"
                   d="M1298 1184h-341v-396h-570q-89 -2 -89 -63q0 -75 103 -89h797v-238h-653q-42 -17 -72 -38q-74 -49 -80 -105q-1 -13 -1 -26q0 -144 176 -246q151 -87 381 -106l-32 -118q-94 13 -182 37q-211 57 -360 155q-254 168 -252 376q1 152 144 232q-160 148 -160 271q0 14 2 27 q30 171 278 169h307v158h-694l-126 235h1298zM370 -210l-187 -187l-186 190l186 186z"/>
            <glyph horiz-adv-x="1448"
                   d="M1620 1184h-1620l-126 235h1619zM1456 473q1 -179 -98 -292q-91 -105 -223 -112q-186 -10 -358 172q-142 -177 -316 -177q-99 0 -194 65q-188 128 -188 382q0 182 101 314q109 142 281 144q162 2 299 -207q133 212 323 212q61 0 124 -25q90 -36 159 -144q89 -137 90 -332 zM1224 777q-21 18 -48 18q-90 0 -176 -153l-163 -292q75 -71 163 -71q90 0 169 85q101 108 101 279q0 94 -46 134zM725 705q-82 48 -169 48q-165 0 -252 -191q-29 -64 -29 -136q0 -98 46 -148q22 -24 54 -24q89 0 170 133q85 141 180 318zM399 -128l-187 -186l-186 189 l186 187z"/>
            <glyph horiz-adv-x="983"
                   d="M1169 671q-102 -76 -241 -76q-31 0 -62 4q-114 16 -264 143q-35 -6 -70 -22q-85 -39 -157 -124q-83 -98 -83 -199q0 -50 26 -76q37 -37 93 -37q76 0 165 60q-24 35 -24 74q0 35 21 66q34 50 97 50q79 0 153.5 -67t67.5 -134q-7 -72 -74 -141l109 -221l-118 -68l-114 243 q-73 -25 -158 -25q-162 0 -281 100q-162 137 -162 306q0 55 19 109q47 138 246 244q-23 10 -46 24q-54 35 -97 85q-73 86 -73 178q0 108 92 184t222 76q22 0 43 -2q180 -20 288 -153q92 -113 82 -223q-16 -165 -164 -258q36 -16 97 -16q62 0 135 19q101 26 232 135v-258z M642 1043q24 45 24 93q0 65 -43 118.5t-106 53.5q-68 0 -112 -61t-41 -146q4 -141 115 -181q35 11 64 27q69 38 99 96zM357 -68l-187 -186l-186 189l186 186z"/>
            <glyph horiz-adv-x="751"
                   d="M946 1184h-946l-126 235h946zM952 780h-376q28 -26 51 -54q54 -67 72 -130q15 -55 15 -97q0 -98 -112 -187q-74 -58 -106 -68l180 -218l-103 -98l-235 281q-14 -3 -33 -3q-90 0 -162 66q-56 52 -56 130q0 104 88 137q35 13 67 13q82 0 131 -73q106 51 106 140 q0 64 -63 138q-72 85 -281 126l28 135h789v-238zM362 -55l-186 -186l-186 189l186 186z"/>
            <glyph horiz-adv-x="1618"
                   d="M1594 708l-169 -172l-175 175l172 169zM1751 1184h-662v-373h-579q-23 -9 -60 -40q-21 -32 -21 -65q0 -36 23 -61t51 -25q8 0 16 2q273 87 389 85q128 -2 227 -111.5t99 -239.5q0 -153 -121.5 -255t-304.5 -102q-247 0 -514 250q-111 104 -217 250l95 80 q232 -358 510 -358q143 0 269.5 62.5t126.5 142.5q0 74 -67 74q-44 0 -189.5 -45.5t-204.5 -45.5q-22 0 -38 4q-115 31 -221 166.5t-106 250.5q0 83 63 145q61 59 146 66h367v143h-828l-126 235h1751zM398 -40l-186 -186l-187 189l187 186z"/>
            <glyph horiz-adv-x="1533"
                   d="M1665 1184h-283v-1184l-264 178v188q-143 -115 -327 -122q-133 -5 -269 98q-123 94 -169 208q-16 40 -16 83q0 73 41 135h-192l-132 235h783l158 -235h-270q-45 -33 -106 -89q-61 -85 -61 -157q0 -78 88 -78q56 0 142 32q160 60 330 195v513h-1118l-126 235h1665z M432 174l-186 -186l-187 189l187 186z"/>
            <glyph horiz-adv-x="1427"
                   d="M1551 1184h-442v-155q206 -186 206 -407q0 -42 -8 -83q-64 -314 -375 -459q-140 -65 -280 -65q-202 0 -357 128q-143 118 -143 246q0 107 92 193q-26 19 -48 39q-54 48 -81 93q-37 60 -37 123q0 86 66.5 141.5t188.5 55.5q67 0 131 -16l89 -190q-127 15 -223 3 q-81 -10 -81 -79q0 -13 3 -27q13 -56 52 -97q23 12 94 40q51 17 121 20l97 -201q-51 -1 -93 -12q-103 -25 -150 -97q-21 -33 -21 -64q0 -90 148 -90q70 0 165 23q159 39 290 151q-76 38 -134 86q-138 116 -159 261q-3 22 -3 44q0 175 189 263v132h-848l-126 235h1551z M1124 682q2 20 2 39q0 84 -33 144t-84 64q-67 6 -114 -57.5t-44 -149.5q5 -168 175 -252q26 35 45 68q47 81 53 144zM376 -81l-187 -187l-186 190l186 186z"/>
            <glyph horiz-adv-x="1568"
                   d="M1697 1184h-298v-1184l-264 178v382q-91 -24 -160 -21q-77 4 -152 26q14 -21 46 -98q12 -39 12 -80q0 -84 -46.5 -163t-120.5 -124q-97 -60 -273 -91l158 -241l-115 -78l-189 301q-51 4 -89 24q-93 47 -111 163q-4 27 -4 50q0 136 116 136q40 0 65 -17l59 -56 q38 -33 84 -33q38 0 89 20q76 31 134 89t58 109q0 50 -38 50q-19 0 -113.5 -39.5t-151.5 -36.5q-63 3 -132 52q-117 84 -175 266q-15 46 -15 87q0 170 230 211h249v118h-550l-126 235h1697zM1135 1184h-327v-327h-344q-208 0 -208 -109q0 -10 2 -20q9 -47 52 -47q5 0 200 47 q27 6 54 6q44 0 78 -15q36 -9 95 -9q72 0 157 15q133 24 241 119v340zM289 -193l-187 -186l-186 189l186 186z"/>
            <glyph horiz-adv-x="1599"
                   d="M1734 1184h-298v-1184l-264 178v387h-217q-7 -58 -29 -106q-55 -115 -178 -158q-57 -20 -117 -20q-197 0 -390 198q-85 88 -166 215l97 68q26 -41 52 -76q61 -85 111 -127q94 -79 195 -79q81 0 143.5 50t86.5 135q13 46 13 88q0 98 -71 98q-31 0 -74 -20 q-104 -47 -158 -123l-158 204q128 116 281 116q42 0 83 -10q189 -46 258 -250q34 0 92 6q82 19 146 64v346h-1172l-126 235h1734zM419 149l-186 -186l-187 189l187 187z"/>
            <glyph horiz-adv-x="1141"
                   d="M1270 1184h-384v-224q-3 -32 -19 -60q-36 -68 -127 -106q-12 -5 -196 -72q-129 -48 -189 -83q-73 -43 -73 -131q0 -86 69 -151q77 -73 200 -73q22 0 45 3q205 23 376 189l123 -238q-50 -41 -104 -72q-128 -75 -254 -89q-32 -4 -64 -4q-227 0 -401 158q-161 147 -169 319 q-15 312 358 399q152 35 158 83v152h-619l-126 235h1270zM345 25l-186 -187l-187 190l187 186z"/>
            <glyph horiz-adv-x="1172"
                   d="M1316 1184h-456q48 -82 48 -166q0 -15 -2 -29q-10 -83 -46 -123q52 -42 93 -89q98 -114 128 -238q11 -47 11 -94q0 -162 -112 -274q-120 -121 -315 -121q-45 0 -92 7q-190 28 -335 170q-159 156 -152 355q8 231 204 328q121 60 283 60q22 0 38 -1q21 12 37 27 q38 37 43 85q4 37 -40 103h-651l-126 235h1316zM783 333q93 94 93 231q0 152 -108 216q-51 30 -117 30q-83 0 -163.5 -44.5t-123.5 -114.5q-53 -86 -53 -185q0 -158 107 -219q49 -28 110 -28q143 0 255 114zM351 0l-186 -186l-187 189l187 186z"/>
            <glyph horiz-adv-x="1640"
                   d="M1766 1184h-275v-1184l-264 178v1006h-298v-513q0 -176 -81 -264q-70 -78 -191 -78q-84 0 -175 38q-245 101 -310 335v482h-172l-126 235h1766zM671 642v542h-244v-562q1 -22 9 -40q17 -43 60 -57q24 -8 46 -8q95 0 129 125zM734 71l-187 -186l-186 189l186 186z"/>
            <glyph horiz-adv-x="1275"
                   d="M1413 1184h-298v-1184l-264 178v547h-404q-30 0 -56 -12q-61 -29 -90 -111q-9 -26 -9 -54q0 -69 49 -135l178 -278l-123 -81l-218 344q-112 136 -106 293q10 245 266 272h513v221h-851l-126 235h1413zM319 -12l-186 -186l-187 189l187 187z"/>
            <glyph horiz-adv-x="1447"
                   d="M1594 1184h-298v-1184l-264 178v187q-61 -36 -152 -78q-107 -50 -219 -50q-234 0 -432 204q-83 85 -126 264q31 9 152 69q34 19 95 49q-64 37 -113 78q-119 97 -142 194q-8 31 -8 63q0 116 92 193q96 80 242 74q142 -6 242 -99q93 -86 114 -211q7 -42 7 -79 q0 -194 -231 -354q-91 -63 -223 -137q15 -30 39 -52q59 -54 158 -57q226 -8 505 242v506h-172l-126 235h734zM569 1112q0 137 -87 161q-19 5 -37 5q-58 0 -92.5 -50.5t-34.5 -119.5q0 -27 6 -53q26 -117 120 -169q125 217 125 226zM419 149l-186 -186l-187 189l187 187z"/>
            <glyph horiz-adv-x="1177"
                   d="M1324 1184h-410v-401h-455q-32 -3 -59 -15q-66 -29 -102 -97q-17 -33 -17 -78q0 -64 31 -118q35 -60 92 -77q44 -13 89 -13q84 0 149 42q-28 46 -28 90q0 48 37.5 79.5t89.5 31.5q86 0 171 -75q82 -72 86 -140q5 -104 -101 -161l149 -329l-152 -66l-146 332 q-36 -7 -83 -7q-124 0 -229 50q-97 46 -180 133q-96 102 -138 228q-31 93 -31 168q0 230 251 262h307v161h-645l-126 235h1324zM381 81l-186 -186l-186 189l186 186z"/>
            <glyph horiz-adv-x="1379"
                   d="M1508 1184h-298v-1184l-264 178v179q-139 -104 -333 -108q-144 -3 -289 113q-157 125 -178 294q-2 16 -2 32q0 138 140 206q-48 36 -85 72q-88 88 -104 163q-7 33 -7 64q0 108 78 168q83 65 232 58q111 -5 195 -84t84 -170q0 -77 -66 -127q-75 -58 -213 -63 q25 -14 72 -35q37 -10 83 -11h92l106 -198h-338q-107 -37 -107 -116q0 -30 18 -65q50 -95 208 -95q67 0 122 18q153 50 292 164v547h-172l-126 235h734zM456 1092q55 32 55 100q0 46 -27.5 82t-70.5 36q-139 0 -132 -132q4 -69 46 -120q70 -1 129 34zM406 112l-186 -187 l-187 190l187 186z"/>
            <glyph horiz-adv-x="1318"
                   d="M1470 1184h-298v-1184l-263 178v501h-399q-56 -35 -56 -94q0 -12 2 -26q6 -49 -31 -77q-33 -25 -82 -25q-43 0 -71 19q-39 27 -104 135q-67 113 -73 172q-13 120 123 131h691v270h-909l-126 235h1470zM547 146l-187 -186l-186 189l186 187z"/>
            <glyph horiz-adv-x="1224"
                   d="M1364 1184h-298v-1184l-263 178v281q-91 -63 -206 -63q-95 0 -204 51q-101 47 -175.5 118.5t-74.5 202.5v416h-143l-126 235h1364zM803 757v427h-396v-548q-3 -71 65 -71q41 0 107 31q128 61 224 161zM584 146l-186 -186l-186 189l186 187z"/>
            <glyph horiz-adv-x="1321"
                   d="M1450 1184h-298v-1184l-263 178v232q-125 -163 -393 -155q-120 4 -228 75q-116 77 -168 203q-36 86 -36 173q0 136 82 234q86 103 238 126q40 6 79 6q261 0 426 -224v336h-889l-126 235h1450zM889 690v72q-127 86 -235 101q-98 14 -152 0l186 -336q32 20 109 78 q49 40 92 85zM545 461l-187 347q-28 -15 -94 -83q-44 -61 -44 -124q0 -121 133 -157q30 -8 65 -8q65 0 127 25zM389 68l-187 -186l-186 189l186 186z"/>
            <glyph horiz-adv-x="1542"
                   d="M1680 1184h-298v-1184l-264 178v335h-393v-123q-14 -81 -98 -81q-9 0 -19 1q-65 7 -175 112q-118 112 -135 206q-3 15 -3 29q0 86 98 88h89v129q-35 0 -158 23q-88 23 -156 95q-77 82 -77 183q0 33 9 66q23 87 104 137q75 46 172 46q81 0 149 -34q203 -101 200 -361v-284 h393v439h-172l-126 235h734zM482 957v212q-1 132 -75 132q-11 0 -23 -3q-82 -23 -82 -145q0 -67 28 -112q47 -75 152 -84zM419 149l-186 -186l-187 189l187 187z"/>
            <glyph horiz-adv-x="1339"
                   d="M1479 1184h-298v-1184l-264 178v344h-438v-81q1 -113 -89 -113q-11 0 -23 2q-51 8 -165 137q-117 131 -125 198q-11 85 86 95h55v424h-218l-126 235h1479zM917 1184h-438v-424h438v424zM348 120l-186 -186l-187 189l187 187z"/>
            <glyph horiz-adv-x="924"
                   d="M1090 1184h-382v-427q-8 -24 -21 -48q-31 -56 -79 -101q-77 -72 -178 -86l338 -416l-117 -106l-427 545q-10 11 -69 97q-49 73 -49 141q0 89 83 106q11 2 21 2q66 0 114 -71q54 -4 80 17q32 26 40 66v281h-444l-126 235h1090zM381 149l-186 -186l-186 189l186 187z"/>
            <glyph horiz-adv-x="1479"
                   d="M1622 1184h-298v-1184l-263 178v647q-102 -26 -181 -111q-66 -72 -149 -230l-215 144q13 18 57 89q12 21 40 66q-50 46 -117 46q-39 0 -78 -18q-131 -61 -131 -254q0 -84 28 -147q78 -179 270 -290l-78 -97q-47 36 -192 166q-85 82 -150 198q-93 166 -88 324 q4 138 95 231t217 93q55 0 110 -20q107 -40 183 -149q26 27 109 83q61 31 130 31q70 0 140 -31v235h-1061l-126 235h1622zM357 -12l-187 -186l-186 189l186 187z"/>
            <glyph horiz-adv-x="1278"
                   d="M1422 1184h-298v-1184l-264 178v248q-140 -188 -347 -188q-155 0 -280 111t-153 279q-4 25 -4 50q0 147 114 256q118 111 277 104q281 -13 393 -215v361h-860l-126 235h1422zM860 685v47q-112 88 -263 88q-76 0 -153 -26q-90 -31 -148 -98t-58 -133q0 -37 20 -64 q34 -46 133 -46q128 0 234 57q163 88 235 175zM351 57l-186 -187l-187 189l187 187z"/>
            <glyph horiz-adv-x="1599"
                   d="M1737 1184h-298v-1184l-264 178v1006h-441q158 -186 158 -388q0 -174 -105.5 -329.5t-267.5 -214.5l200 -249l-108 -89l-233 304q-20 -6 -51 -6q-86 0 -155 58q-73 61 -73 145q0 68 35 111q37 47 103 47q94 0 176 -103q56 24 120 93q59 65 86 125q-169 8 -293 88 q-148 95 -148 250q0 88 34 158h-212l-126 235h1737zM493 1184q-45 0 -73 -58q-22 -46 -22 -96q0 -98 75 -169q66 -62 169 -87q22 68 22 157q0 93 -38 165q-47 88 -133 88zM362 -43l-186 -187l-186 189l186 187z"/>
            <glyph horiz-adv-x="1307"
                   d="M1450 1184h-298v-1184l-263 178v159q-60 -24 -144 -24q-121 0 -238 57q-192 93 -335 301v513h-172l-126 235h1450zM889 1184h-453l453 -427v427zM866 605l-430 393v-373q3 -39 15 -68q30 -69 102 -73q117 -7 313 121zM419 149l-186 -186l-187 189l187 187z"/>
            <glyph horiz-adv-x="1482"
                   d="M1622 1184h-298v-1184l-263 178v375q-85 -24 -162 -24q-40 0 -73 7q-99 20 -198 120q-12 -19 -78 -71q-54 -34 -120 -63l338 -416l-117 -106l-427 545q-10 11 -69 97q-49 73 -49 141q0 89 83 106q11 2 21 2q66 0 114 -71q17 0 63 23q29 24 29 54v287h-416l-126 235h1622z M1061 857v327h-382v-396q53 -35 126 -35q23 0 46 4q122 21 210 100zM381 136l-186 -186l-186 189l186 186z"/>
            <glyph horiz-adv-x="1090"
                   d="M1276 1184h-416v-390h-507q-12 0 -21 -5q-23 -12 -31 -44q-2 -10 -2 -20q0 -54 59 -97q88 45 206 45q55 0 110 -11q147 -30 236 -144q73 -94 76 -194q5 -170 -158 -241l-166 192q40 18 69 40q71 52 77 115q8 85 -122 85q-134 0 -222 -88q-91 -91 -91 -186q0 -67 48 -126 q102 -127 353 -190l-40 -103q-68 24 -278 121q-282 144 -316 358q-3 20 -3 40q0 125 110 218q-30 28 -54 56q-59 69 -81 130q-19 53 -19 98q0 175 260 189h246v152h-599l-126 235h1275zM370 -210l-187 -187l-186 190l186 186z"/>
            <glyph horiz-adv-x="1563"
                   d="M1685 1184h-473v-241q226 -136 226 -422q0 -24 -2 -48q-12 -159 -91 -267q-81 -111 -210 -137q-28 -6 -56 -6q-171 0 -302 178q-142 -177 -316 -177q-99 0 -194 65q-188 128 -188 382q0 182 101 314q109 142 281 144q162 2 296 -181q20 30 69 89q47 46 129 83v224h-955 l-126 235h1685zM1162 788q-104 0 -185 -146q-70 -126 -140 -292q62 -58 140 -58q93 0 178 92q43 47 71.5 125.5t28.5 148.5q0 130 -93 130zM702 714q-72 44 -150 44q-159 0 -248 -196q-29 -64 -29 -136q0 -98 46 -148q22 -24 54 -24q89 0 170 133q85 141 157 327zM399 -128 l-187 -186l-186 189l186 187z"/>
            <glyph horiz-adv-x="1594"
                   d="M1719 1184h-298v-1184l-264 178v484q-99 -67 -229 -67q-31 0 -62 4q-114 16 -264 143q-35 -6 -70 -22q-85 -39 -157 -124q-83 -98 -83 -199q0 -50 26 -76q37 -37 93 -37q76 0 165 60q-24 35 -24 74q0 35 21 66q34 50 97 50q79 0 153.5 -67t67.5 -134q-7 -72 -74 -141 l109 -221l-118 -68l-114 243q-73 -25 -158 -25q-162 0 -281 100q-162 137 -162 306q0 55 19 109q47 138 246 244q-23 10 -46 24q-54 35 -97 85q-73 86 -73 178q0 108 92 184t222 76q22 0 43 -2q180 -20 288 -153q92 -113 82 -223q-16 -165 -164 -258q36 -16 97 -16 q62 0 135 19q98 25 220 124v266h-172l-126 235h734zM642 1043q24 45 24 93q0 65 -43 118.5t-106 53.5q-68 0 -112 -61t-41 -146q4 -141 115 -181q35 11 64 27q69 38 99 96zM357 -68l-187 -186l-186 189l186 186z"/>
            <glyph horiz-adv-x="1372"
                   d="M1499 1184h-298v-1184l-264 178v602h-361q28 -26 51 -54q54 -67 72 -130q15 -55 15 -97q0 -98 -112 -187q-74 -58 -106 -68l180 -218l-103 -98l-235 281q-14 -3 -33 -3q-90 0 -162 66q-56 52 -56 130q0 104 88 137q35 13 67 13q82 0 131 -73q106 51 106 140q0 64 -63 138 q-72 85 -281 126l28 135h774v166h-937l-126 235h1499zM362 -55l-186 -186l-186 189l186 186z"/>
            <glyph horiz-adv-x="1247"
                   d="M1369 1184h-294v-293q57 73 155 73q60 0 126 -30l-37 -181q-168 -40 -244 -177v-576l-261 178v235l-282 -206q30 -70 30 -139q0 -97 -68 -97q-64 0 -214 91q-158 95 -158 151q0 41 111 100l128 68q-208 130 -203 367q2 121 88 213q93 100 235 100q59 0 121 -18 q112 -33 212 -157v298h-760l-126 235h1315zM814 714q-22 37 -49 66q-64 70 -143 86q-20 4 -40 4q-99 0 -179 -82q-77 -78 -77 -163q0 -23 7 -43q24 -67 123 -67q85 0 177 44q122 59 181 155z"/>
            <glyph horiz-adv-x="1195"
                   d="M1396 596q-168 -154 -362 -154q-18 0 -36 2q-118 10 -202 125q-79 107 -79 230q0 134 85 219q83 82 211 82q16 0 33 -2q168 -15 350 -250v-252zM1379 780q-33 31 -71 55q-90 58 -187 71q-22 3 -43 3q-109 0 -180 -75q-61 -63 -61 -132q0 -23 9 -37q33 -55 111 -55 q69 0 205.5 52.5t216.5 117.5zM1396 206l-815 -247q23 -54 23 -104q0 -94 -79 -94q-64 0 -215 91q-158 95 -158 151q0 72 112 100l292 72q-77 47 -145 106q-165 142 -262 324q-60 113 -60 199q0 68 46 87q14 6 28 6q51 0 98 -63q27 -10 46 9q13 13 14 69v272h-321l-126 235 h1356l126 -235h-774v-404q-3 -26 -13 -51q-22 -58 -70 -96q-69 -54 -178 -65q15 -35 40 -68q61 -79 164 -136q126 -69 350 -69q65 0 117 9q224 40 404 160v-258z"/>
            <glyph horiz-adv-x="748"
                   d="M929 1184h-404v-539q4 -110 -78 -120q-72 -9 -201 95q-120 96 -151 165q-11 24 -11 45q0 59 74 84h109v270h-267l-126 235h929zM934 362l-309 -192q30 -70 30 -139q0 -98 -68 -98q-64 0 -214 91q-158 95 -158 151q0 31 41 57l71 37l607 333v-240z"/>
            <glyph horiz-adv-x="748"
                   d="M937 321l-406 -200q29 -71 29 -140q0 -97 -67 -97q-64 0 -214 91q-158 95 -158 151q0 45 111 100l189 95q-75 40 -131 87q-135 114 -155 248q-3 18 -3 36q0 149 169 225q-54 30 -155 103q-50 45 -50 105q0 32 13 59h-109l-126 235h891l126 -235h-467q-22 -10 -40 -23 q-41 -31 -49 -72q-3 -15 -3 -29q0 -80 86 -105h218l118 -190q-178 16 -327 -43q-116 -46 -116 -127q0 -48 47 -79q52 -34 142 -34q35 0 73 5q189 26 364 167v-333z"/>
            <glyph horiz-adv-x="929"
                   d="M1098 1184h-1098l-126 235h1098zM1132 367l-509 -246q30 -71 30 -140q0 -97 -68 -97q-64 0 -215 91q-158 95 -158 151q0 51 112 100l223 98q-43 30 -78 63q-84 79 -116 163q-16 41 -16 84q0 73 41 134h-192l-132 235h783l158 -235h-270q-45 -33 -106 -89 q-61 -85 -61 -157q0 -78 88 -78q56 0 142 32q165 62 344 206v-315z"/>
            <glyph horiz-adv-x="1427"
                   d="M1551 1184h-442v-126q206 -144 206 -358q0 -40 -8 -81q-31 -153 -115 -261v-1003l-268 166v257h-250q-9 -255 -123 -255q-65 0 -140 94q-83 103 -83 223q0 137 174 134h422v182q-136 -61 -272 -61q-202 0 -357 128q-143 118 -143 229q0 94 92 159q-26 19 -48 39 q-54 48 -81 93q-37 60 -37 123q0 86 66.5 141.5t188.5 55.5q67 0 131 -16l89 -190q-127 15 -223 3q-81 -10 -81 -79q0 -13 3 -27q13 -56 52 -97q23 12 94 40q51 17 121 20l97 -201q-51 -1 -93 -12q-103 -25 -150 -97q-21 -33 -21 -57q0 -56 105 -56q78 0 208 32 q159 39 290 152q-76 23 -134 61q-138 90 -159 235q-3 22 -3 44q0 175 189 263v103h-848l-126 235h1551zM1124 711q2 20 2 39q0 84 -33 144t-84 64q-67 6 -114 -57.5t-44 -149.5q2 -78 50.5 -135t124.5 -66q26 20 45 43q47 55 53 118zM1547 -1125l-54 -55q-64 65 -124 117 q-143 127 -240 174q-54 26 -115 26q-94 0 -181 -52l-129 224q115 17 221 8q120 -10 203 -53q99 -51 224 -183z"/>
            <glyph horiz-adv-x="960"
                   d="M1158 1184h-1158l-126 235h1158zM1169 794h-375q36 -62 36 -142q0 -18 -2 -36q-12 -102 -89 -160q-71 -53 -174 -55q-104 -2 -220 84q-128 95 -199 252q-48 106 -74 252l126 34q7 -43 16 -83q24 -97 58 -163q80 -154 241 -152q70 1 115 48q41 43 41 99q0 16 -4 31 q-11 42 -49 104q-34 55 -37 82q-4 34 41 42q18 3 45 1h504v-238zM1169 304l-403 -192q29 -71 29 -140q0 -97 -67 -97q-64 0 -215 91q-158 95 -158 151q0 48 112 100l702 328v-241z"/>
            <glyph horiz-adv-x="1126"
                   d="M1333 1184h-510v-330h-350q-214 -1 -214 -107q0 -11 2 -22q10 -47 56 -47q6 0 202 47q29 7 59 7q43 0 76 -13q41 -15 112 -15q67 0 146 15q152 28 412 135v-585l-155 -170q29 -71 29 -150q0 -111 -67 -111q-65 0 -177 63q-120 68 -120 124q0 49 93 136l380 358v40 q-147 -29 -256 -29q-35 0 -62 3q-77 10 -152 26q14 -20 49 -98q14 -40 14 -83q0 -170 -175 -289q-96 -66 -275 -98l155 -240l-112 -78l-192 310q-53 3 -93 22q-96 46 -113 161q-4 25 -4 47q0 142 124 142q42 0 66 -17l56 -57q36 -33 83 -33q40 0 93 21q78 31 136.5 90 t58.5 112q0 20 -9 36q-9 13 -28 13q-20 0 -119 -40q-95 -38 -154 -33q-59 0 -131 49q-120 83 -181 269q-15 46 -15 87q0 172 236 217h252v115h-556l-129 235h1324z"/>
            <glyph horiz-adv-x="1141"
                   d="M1270 1184h-384v-180q-3 -32 -19 -61q-36 -68 -127 -106q-15 -6 -196 -72q-129 -47 -189 -82q-73 -43 -73 -131q0 -86 69 -152q78 -73 200 -73q22 0 45 3q205 23 376 189l123 -238q-27 -24 -139 -91v-818l-254 166v258h-249q-10 -256 -124 -256q-65 0 -140 94 q-83 104 -83 224q0 137 174 134l422 -1v127q-237 -12 -420 149q-171 148 -179 327q-15 311 358 398q152 35 158 83v109h-619l-126 235h1270zM1312 -1112l-54 -55q-54 66 -106 119q-125 129 -222 176q-76 37 -166 37q-70 0 -129 -20l-129 223q114 18 220 9q100 -9 203 -93 q56 -45 224 -222q97 -102 159 -174z"/>
            <glyph horiz-adv-x="1172"
                   d="M1316 1184h-456q58 -56 58 -126q0 -90 -58 -134q52 -42 93 -89q98 -114 128 -238q11 -47 11 -95q0 -181 -136 -296v-834l-254 166v258h-249q-10 -256 -124 -256q-65 0 -140 94q-83 104 -83 224q0 137 174 134l422 -1v119q-65 -4 -129 5q-190 28 -335 170 q-159 156 -152 355q8 231 204 328q121 60 283 60q22 0 38 -1q21 3 37 12q38 23 43 71q4 37 -40 74h-651l-126 235h1316zM783 391q93 94 93 231q0 152 -108 216q-51 30 -117 30q-83 0 -163.5 -44.5t-123.5 -114.5q-53 -86 -53 -185q0 -158 107 -219q49 -28 110 -28 q143 0 255 114zM1312 -1112l-54 -55q-54 66 -106 119q-125 129 -222 176q-76 37 -166 37q-70 0 -129 -20l-129 223q114 18 220 9q100 -9 203 -93q56 -45 224 -222q97 -102 159 -174z"/>
            <glyph horiz-adv-x="1333"
                   d="M1482 1184h-393v-373h-579q-23 -9 -60 -40q-21 -32 -21 -65q0 -36 23 -61t51 -25q8 0 16 2q266 85 382 85q137 0 225 -105q105 -126 105 -267q0 -172 -171 -272v-737l-268 166v190l-249 1q-10 -256 -124 -256q-62 0 -140 102q-83 109 -83 216q0 137 174 133h422v122 q-215 15 -425 198q-168 147 -290 301l95 80q539 -360 552 -360q128 0 240.5 64.5t112.5 142.5q0 74 -66 74q-44 0 -189.5 -45.5t-204.5 -45.5q-22 0 -38 4q-115 31 -221 166.5t-106 250.5q0 83 63 145q61 59 146 66h367v143h-828l-126 235h1482zM1411 -1115l-55 -55 q-44 52 -90 96q-109 106 -206 153q-72 35 -169 35q-85 0 -166 -24l-129 223q114 18 220 9q113 -10 209 -67.5t227 -195.5q97 -102 159 -174z"/>
            <glyph horiz-adv-x="1159"
                   d="M1304 1184h-392v-347h-479q-188 -25 -188 -234q0 -203 257 -250q-28 70 -28 140q0 164 162 212q62 19 121 19q124 0 202 -75q81 -78 81 -208q0 -19 -2 -39q-8 -83 -68 -145v-885l-268 166v258h-249q-10 -256 -124 -256q-65 0 -140 94q-83 104 -83 224q0 137 174 134 l422 -1v150q-34 -4 -69 -4q-117 0 -212 41q-162 70 -252 207q-88 133 -88 294q0 228 152 324q63 39 151 49h267v132h-651l-126 235h1304zM906 499q-21 67 -116 67q-101 0 -154 -75q-48 -67 -43 -147q40 -7 85 -7q73 0 128 20q107 39 107 101q0 19 -7 41zM1312 -1112l-54 -55 q-54 66 -106 119q-125 129 -222 176q-76 37 -166 37q-70 0 -129 -20l-129 223q114 18 220 9q100 -9 203 -93q56 -45 224 -222q97 -102 159 -174z"/>
            <glyph horiz-adv-x="671"
                   d="M1069 1184h-1069l-126 235h1069zM1082 454l-224 -112q30 -72 30 -140q0 -96 -67 -96q-64 0 -215 91q-158 95 -158 151q0 47 112 100l522 247v-241zM1074 776h-552q-47 -2 -86 -19q-95 -42 -135 -155q-19 -53 -19 -124q0 -48 8 -91l136 -318l-123 -80l-176 384 q-49 149 -49 279q0 56 10 101q48 215 325 261h661v-238z"/>
            <glyph horiz-adv-x="883"
                   d="M1072 358l-475 -300q30 -72 30 -140q0 -96 -67 -96q-64 0 -215 91q-158 95 -158 151q0 30 43 57l69 43l200 111q-29 6 -63 24q-82 44 -178 142q-82 84 -132 264q32 9 155 69l89 49q-63 37 -111 78q-116 97 -139 194q-8 32 -8 63q0 117 92 193q95 80 243 74 q140 -6 240 -99q92 -87 113 -211q7 -42 7 -80q0 -195 -228 -353q-93 -64 -226 -137q15 -30 40 -52q60 -53 160 -57q226 -8 519 258v-336zM591 1112q0 136 -87 161q-18 5 -36 5q-57 0 -93 -53q-34 -48 -34 -118q0 -26 6 -52q26 -117 123 -169q121 217 121 226z"/>
            <glyph horiz-adv-x="1177"
                   d="M1324 1184h-410v-384h-478q-29 -18 -52 -37q-56 -46 -74 -92q-12 -32 -12 -66q0 -121 112 -172q81 -37 163 -37q40 0 69 8q-26 56 -26 106q0 55 35.5 86t87.5 31q90 0 175 -75.5t75 -150.5q-13 -99 -115 -154l167 -327l-132 -63l-169 332l-248 -146q29 -71 29 -139 q0 -97 -67 -97q-64 0 -215 91q-158 95 -158 151q0 49 112 100l200 92q-59 37 -108 85q-119 116 -167 267q-28 87 -28 159q0 234 260 271h304v161h-654l-126 235h1324zM1420 -791l-55 -54q-54 65 -106 119q-125 128 -222 175q-76 37 -166 37q-70 0 -129 -20l-129 224 q115 17 221 8q100 -9 203 -93q56 -45 224 -222q97 -102 159 -174z"/>
            <glyph horiz-adv-x="762"
                   d="M972 335l-438 -223q29 -71 29 -139q0 -97 -67 -97q-64 0 -215 91q-158 95 -158 151q0 30 43 57l69 43l192 77q-74 41 -129 91q-133 121 -152 270q-2 16 -2 32q0 138 140 206q-48 36 -85 72q-88 88 -104 163q-7 33 -7 64q0 108 78 168q83 65 232 58q111 -5 195 -84 t84 -170q0 -77 -66 -127q-75 -58 -213 -63q25 -14 72 -35q37 -10 83 -11h92l106 -198h-338q-107 -37 -107 -116q0 -30 18 -65q50 -95 208 -95q67 0 122 18q170 56 318 186v-324zM456 1092q55 32 55 100q0 46 -27.5 82t-70.5 36q-139 0 -132 -132q4 -69 46 -120q70 -1 129 34 z"/>
            <glyph horiz-adv-x="708"
                   d="M877 1184h-877l-126 235h877zM1000 551l-253 180h-245q-48 -25 -48 -94q0 -7 1.5 -21.5t1.5 -21.5q0 -87 -90 -87q-35 0 -66 20q-57 37 -131 148q-77 118 -77 180q0 87 102 111h552l253 -183v-232zM1000 290l-374 -158q4 -30 4 -59q0 -84 -28 -137q-31 -58 -87 -58 q-57 0 -178.5 121.5t-121.5 181.5q0 32 70 75q53 32 102 48l613 203v-217z"/>
            <glyph horiz-adv-x="639"
                   d="M837 439l-345 -217q29 -71 29 -139q0 -97 -67 -97q-64 0 -215 91q-158 95 -158 151q0 30 43 57l69 43l268 145q-47 25 -89 54q-100 71 -154 149q-71 102 -75 250v258h-143l-126 235h811l126 -235h-404v-356q0 -198 80 -240q46 -24 97 -24q126 0 253 127v-252z"/>
            <glyph horiz-adv-x="1175"
                   d="M1299 1184h-296v-310q88 61 200 61q47 0 93 -12l-3 -221q-19 2 -38 2q-156 0 -252 -145v-559l-263 178v263l-256 -212q30 -72 30 -140q0 -96 -67 -96q-64 0 -215 91q-158 95 -158 151q0 30 43 57l69 43l264 175q-35 24 -152 126q-113 108 -126 227v321h-169l-129 235 h1299zM740 740v444h-304v-396q-11 -145 111 -166q12 -2 23 -2q97 0 170 120z"/>
            <glyph horiz-adv-x="685"
                   d="M877 1184h-877l-126 235h877zM880 384l-444 -272q30 -72 30 -140q0 -96 -67 -96q-64 0 -215 91q-158 95 -158 151q0 30 43 57l69 43l172 83q-47 23 -86 55q-93 76 -129 180q-28 80 -28 160q0 139 78 237q85 107 239 133q38 6 75 6q239 0 421 -224v-111q-35 31 -70 56 q-86 59 -159 73q-96 19 -155 0l183 -333q20 11 106 69l95 66v-284zM542 464l-192 344q-27 -10 -95 -77q-42 -57 -42 -121q0 -126 140 -169q31 -9 64 -9q66 0 125 32z"/>
            <glyph horiz-adv-x="912"
                   d="M1101 593h-382v-80q0 -46 -25 -79q-27 -37 -69 -37q-82 0 -190 100q-106 97 -123 182q-3 16 -3 30q0 83 98 88h69v97q-37 0 -152 26q-88 29 -154 94q-78 78 -78 170q0 28 8 57q23 87 102 136q73 46 167 46q80 0 147 -33q203 -101 203 -332v-261h382v-204zM476 989v180 q-6 140 -89 132q-82 -8 -82 -128q0 -60 25 -104q46 -80 146 -80zM1101 258l-292 -123q29 -71 29 -139q0 -97 -67 -97q-64 0 -214 91q-158 95 -158 151q0 30 43 57l68 43l591 232v-215z"/>
            <glyph horiz-adv-x="731"
                   d="M934 588h-455v-81q0 -113 -90 -113q-10 0 -22 2q-52 8 -165 137q-117 132 -125 201q-10 85 86 94h55v356h-218l-126 235h923l126 -235h-444v-356h455v-240zM934 307l-286 -201q30 -72 30 -140q0 -96 -67 -96q-64 0 -215 91q-158 95 -158 151q0 30 43 57l69 43l584 347 v-252z"/>
            <glyph horiz-adv-x="705"
                   d="M897 375l-417 -216q29 -71 29 -142q0 -101 -67 -101q-61 0 -219 112q-163 116 -163 173q0 68 112 100l264 76q-46 18 -88 45q-99 66 -156 166q-89 157 -100 312q70 19 258 89q82 36 82 95q0 49 -51 100h-381l-126 235h866l126 -235h-336q81 -113 81 -209q0 -30 -9 -55 q-45 -130 -327 -203q26 -191 258 -178q186 11 364 158v-322z"/>
            <glyph horiz-adv-x="659"
                   d="M848 1184h-848l-126 235h845zM869 396l-433 -284q30 -72 30 -140q0 -96 -67 -96q-64 0 -215 91q-158 95 -158 151q0 30 43 57l69 43l157 86q-57 39 -100 87q-104 114 -118 254q-2 17 -2 34q0 153 124 261q119 104 268 98q277 -11 402 -233v-80q-116 94 -271 94 q-61 0 -122 -16q-109 -29 -177 -103q-62 -67 -62 -137q0 -35 18 -61q34 -48 136 -48q120 0 220 50q181 90 258 190v-298z"/>
            <glyph horiz-adv-x="1147"
                   d="M1336 532l-204 -138q30 -72 30 -140q0 -96 -67 -96q-64 0 -215 91q-158 95 -158 151q0 30 43 57l69 43l453 225q-114 43 -298 43q-157 0 -338 -77q-28 -38 -92 -101q-45 -32 -129 -68l338 -416l-117 -106l-427 545q-10 11 -69 97q-49 73 -49 141q0 89 83 106q11 2 21 2 q66 0 114 -71q17 0 63 23q29 24 29 54v287h-416l-126 235h1336l126 -235h-657v-207q94 33 201 33q46 0 89 -7q205 -33 367 -200v-271z"/>
            <glyph horiz-adv-x="1348"
                   d="M1473 1184h-403v-373h-746q-55 -7 -55 -66q0 -43 49 -80q141 34 285 34q324 0 504 -178q130 -130 130 -257q0 -132 -99 -215l-172 149q109 63 109 172q0 95 -124 155l-161 -167q39 -94 39 -160q0 -76 -58 -76q-69 0 -177 50q-121 56 -121 111q0 47 37 82l63 48l217 163 q-237 13 -342 -57q-134 -90 -134 -222q0 -166 190 -268q165 -88 284 -104l-37 -106q-63 16 -267 95q-326 145 -372 387q-5 28 -5 55q0 144 125 252q-132 115 -132 238q0 29 9 57q41 133 209 132h488v149h-806l-126 235h1473zM1344 -804l-54 -54q-54 65 -106 119 q-125 128 -222 175q-76 37 -166 37q-70 0 -129 -20l-129 224q114 17 220 8q100 -9 203 -93q56 -45 224 -222q97 -102 159 -174z"/>
            <glyph horiz-adv-x="1637"
                   d="M1846 1184h-771v-293q25 19 51 33q62 34 118 36q157 7 266 -153q95 -138 95 -291q0 -21 -3 -40q-26 -194 -146 -353l-209 149q30 43 54 83q58 96 78 158q36 113 36 174q0 73 -52 73q-39 0 -108 -41q-85 -50 -180 -143v-576l-261 178v235l-322 -236q29 -71 29 -139 q0 -97 -67 -97q-64 0 -215 91q-158 95 -158 151q0 30 43 57l69 43l168 98q-208 130 -203 367q2 121 88 213q93 100 235 100q59 0 121 -18q112 -33 212 -157v298h-760l-126 235h1792zM814 714q-22 37 -49 66q-64 70 -143 86q-20 4 -40 4q-99 0 -179 -82q-77 -78 -77 -163 q0 -23 7 -43q24 -67 123 -67q85 0 177 44q122 59 181 155z"/>
            <glyph horiz-adv-x="1789"
                   d="M1914 1184h-298v-1184l-264 178v14l-668 -214q23 -54 23 -104q0 -94 -79 -94q-64 0 -230 100q-173 105 -173 161q0 30 31 48q55 32 56 33l244 53q-77 47 -145 106q-165 142 -262 324q-60 113 -60 199q0 68 46 87q14 6 28 6q51 0 98 -63q27 -10 46 9q13 13 14 69v272h-321 l-126 235h1914zM1352 760v43q-107 86 -231 103q-22 3 -43 3q-109 0 -180 -75q-61 -63 -61 -132q0 -23 9 -37q33 -55 111 -55q69 0 204 52q111 43 191 98zM1352 1184h-770v-404q-3 -26 -13 -51q-22 -58 -70 -96q-69 -54 -178 -65q15 -35 40 -68q61 -79 164 -136 q126 -69 350 -69q65 0 117 9q192 34 360 133v122q-154 -117 -318 -117q-18 0 -36 2q-118 10 -202 125q-79 107 -79 230q0 134 84 217.5t212 83.5q164 0 339 -198v282z"/>
            <glyph horiz-adv-x="1311"
                   d="M1454 1184h-299v-1184l-263 178v171l-319 -153q32 -78 32 -147q0 -90 -64 -90q-61 0 -205 104q-149 107 -149 165q0 49 40 77l66 40l599 240v599h-367v-539q4 -110 -78 -120q-72 -9 -201 95q-120 96 -151 165q-11 24 -11 45q0 59 74 84h109v270h-267l-126 235h1453z"/>
            <glyph horiz-adv-x="1302"
                   d="M1457 1184h-298v-1184l-264 178v122l-366 -178q30 -72 30 -141q0 -96 -67 -96q-64 0 -215 91q-158 96 -158 152q0 30 44 56l69 42l189 95q-75 40 -131 87q-135 114 -155 248q-3 18 -3 36q0 149 169 225q-54 30 -155 103q-50 45 -50 105q0 32 13 59h-109l-126 235h1457z M895 621v563h-471q-22 -10 -40 -23q-41 -31 -49 -72q-3 -15 -3 -29q0 -80 86 -105h218l118 -190q-178 16 -327 -43q-116 -46 -116 -127q0 -48 47 -79q52 -34 142 -34q35 0 73 5q163 23 322 134z"/>
            <glyph horiz-adv-x="1537"
                   d="M1677 1184h-298v-1184l-264 178v181l-492 -238q29 -71 29 -140q0 -97 -67 -97q-64 0 -215 91q-158 95 -158 151q0 51 112 100l223 98q-43 30 -78 63q-84 79 -116 163q-16 41 -16 84q0 73 41 134h-192l-132 235h783l158 -235h-270q-45 -33 -106 -89q-61 -85 -61 -157 q0 -78 88 -78q56 0 142 32q159 59 327 192v516h-1115l-126 235h1677z"/>
            <glyph horiz-adv-x="1427"
                   d="M1551 1184h-442v-126q206 -144 206 -358q0 -40 -8 -81q-31 -153 -115 -261v-1003l-268 166v257h-250q-9 -255 -123 -255q-65 0 -140 94q-83 103 -83 223q0 137 174 134h422v182q-136 -61 -272 -61q-202 0 -357 128q-143 118 -143 229q0 94 92 159q-26 19 -48 39 q-54 48 -81 93q-37 60 -37 123q0 86 66.5 141.5t188.5 55.5q67 0 131 -16l89 -190q-127 15 -223 3q-81 -10 -81 -79q0 -13 3 -27q13 -56 52 -97q23 12 94 40q51 17 121 20l97 -201q-51 -1 -93 -12q-103 -25 -150 -97q-21 -33 -21 -57q0 -56 105 -56q78 0 208 32 q159 39 290 152q-76 23 -134 61q-138 90 -159 235q-3 22 -3 44q0 175 189 263v103h-848l-126 235h1551zM1124 711q2 20 2 39q0 84 -33 144t-84 64q-67 6 -114 -57.5t-44 -149.5q2 -78 50.5 -135t124.5 -66q26 20 45 43q47 55 53 118z"/>
            <glyph horiz-adv-x="1563"
                   d="M1708 1184h-299v-1184l-263 178v115l-380 -181q29 -71 29 -140q0 -97 -67 -97q-64 0 -215 91q-158 95 -158 151q0 48 112 100l679 317v260h-352q36 -62 36 -142q0 -18 -2 -36q-12 -102 -89 -160q-71 -53 -174 -55q-104 -2 -220 84q-128 95 -199 252q-48 106 -74 252 l126 34q7 -43 16 -83q24 -97 58 -163q80 -154 241 -152q70 1 115 48q41 43 41 99q0 16 -4 31q-11 42 -49 104q-34 55 -37 82q-4 34 41 42q18 3 45 1h481v152h-1146l-126 235h1707z"/>
            <glyph horiz-adv-x="1718"
                   d="M1868 1184h-298v-1184l-263 178v72l-138 -151q29 -71 29 -150q0 -111 -67 -111q-65 0 -177 63q-120 68 -120 124q0 49 93 136l380 357v41q-141 -29 -256 -29q-35 0 -62 3q-77 10 -152 26q14 -20 49 -98q14 -40 14 -83q0 -170 -175 -289q-96 -66 -275 -98l155 -240 l-112 -78l-192 310q-53 3 -93 22q-96 46 -113 161q-4 25 -4 47q0 142 124 142q42 0 66 -17l56 -57q36 -33 83 -33q40 0 93 21q78 31 136.5 90t58.5 112q0 20 -9 36q-9 13 -28 13q-20 0 -119 -40q-95 -38 -154 -33q-59 0 -131 49q-120 83 -181 269q-15 46 -15 87 q0 172 236 217h252v115h-556l-129 235h1868zM1307 847v337h-484v-330h-350q-214 -1 -214 -107q0 -11 2 -22q10 -47 56 -47q6 0 202 47q29 7 59 7q43 0 76 -13q41 -15 112 -15q67 0 146 15q146 27 395 128z"/>
            <glyph horiz-adv-x="1141"
                   d="M1270 1184h-384v-180q-3 -32 -19 -61q-36 -68 -127 -106q-15 -6 -196 -72q-129 -47 -189 -82q-73 -43 -73 -131q0 -86 69 -152q78 -73 200 -73q22 0 45 3q205 23 376 189l123 -238q-27 -24 -139 -91v-818l-254 166v258h-249q-10 -256 -124 -256q-65 0 -140 94 q-83 104 -83 224q0 137 174 134l422 -1v127q-237 -12 -420 149q-171 148 -179 327q-15 311 358 398q152 35 158 83v109h-619l-126 235h1270z"/>
            <glyph horiz-adv-x="1172"
                   d="M1316 1184h-456q58 -56 58 -126q0 -90 -58 -134q52 -42 93 -89q98 -114 128 -238q11 -47 11 -95q0 -181 -136 -296v-834l-254 166v258h-249q-10 -256 -124 -256q-65 0 -140 94q-83 104 -83 224q0 137 174 134l422 -1v119q-65 -4 -129 5q-190 28 -335 170 q-159 156 -152 355q8 231 204 328q121 60 283 60q22 0 38 -1q21 3 37 12q38 23 43 71q4 37 -40 74h-651l-126 235h1316zM783 391q93 94 93 231q0 152 -108 216q-51 30 -117 30q-83 0 -163.5 -44.5t-123.5 -114.5q-53 -86 -53 -185q0 -158 107 -219q49 -28 110 -28 q143 0 255 114z"/>
            <glyph horiz-adv-x="1333"
                   d="M1482 1184h-393v-373h-579q-23 -9 -60 -40q-21 -32 -21 -65q0 -36 23 -61t51 -25q8 0 16 2q266 85 382 85q137 0 225 -105q105 -126 105 -267q0 -172 -171 -272v-737l-268 166v190l-249 1q-10 -256 -124 -256q-62 0 -140 102q-83 109 -83 216q0 137 174 133h422v122 q-215 15 -425 198q-168 147 -290 301l95 80q539 -360 552 -360q128 0 240.5 64.5t112.5 142.5q0 74 -66 74q-44 0 -189.5 -45.5t-204.5 -45.5q-22 0 -38 4q-115 31 -221 166.5t-106 250.5q0 83 63 145q61 59 146 66h367v143h-828l-126 235h1482z"/>
            <glyph horiz-adv-x="1159"
                   d="M1304 1184h-392v-347h-479q-188 -25 -188 -234q0 -203 257 -250q-28 70 -28 140q0 164 162 212q62 19 121 19q124 0 202 -75q81 -78 81 -208q0 -19 -2 -39q-8 -83 -68 -145v-885l-268 166v258h-249q-10 -256 -124 -256q-65 0 -140 94q-83 104 -83 224q0 137 174 134 l422 -1v150q-34 -4 -69 -4q-117 0 -212 41q-162 70 -252 207q-88 133 -88 294q0 228 152 324q63 39 151 49h267v132h-651l-126 235h1304zM906 499q-21 67 -116 67q-101 0 -154 -75q-48 -67 -43 -147q40 -7 85 -7q73 0 128 20q107 39 107 101q0 19 -7 41z"/>
            <glyph horiz-adv-x="883"
                   d="M1609 1184h-298v-1184l-264 178v165l-450 -285q30 -72 30 -140q0 -96 -67 -96q-64 0 -215 91q-158 95 -158 151q0 30 43 57l69 43l200 111q-29 6 -63 24q-82 44 -178 142q-82 84 -132 264q32 9 155 69l89 49q-63 37 -111 78q-116 97 -139 194q-8 32 -8 63q0 117 92 193 q95 80 243 74q140 -6 240 -99q92 -87 113 -211q7 -42 7 -80q0 -195 -228 -353q-93 -64 -226 -137q15 -30 40 -52q60 -53 160 -57q218 -8 494 235v513h-172l-126 235h734zM591 1112q0 136 -87 161q-18 5 -36 5q-57 0 -93 -53q-34 -48 -34 -118q0 -26 6 -52q26 -117 123 -169 q121 217 121 226z"/>
            <glyph horiz-adv-x="1177"
                   d="M1324 1184h-410v-384h-478q-29 -18 -52 -37q-56 -46 -74 -92q-12 -32 -12 -66q0 -121 112 -172q81 -37 163 -37q40 0 69 8q-26 56 -26 106q0 55 35.5 86t87.5 31q90 0 175 -75.5t75 -150.5q-13 -99 -115 -154l167 -327l-132 -63l-169 332l-248 -146q29 -71 29 -139 q0 -97 -67 -97q-64 0 -215 91q-158 95 -158 151q0 49 112 100l200 92q-59 37 -108 85q-119 116 -167 267q-28 87 -28 159q0 234 260 271h304v161h-654l-126 235h1324z"/>
            <glyph horiz-adv-x="1363"
                   d="M1509 1184h-298v-1184l-264 178v145l-413 -211q29 -71 29 -139q0 -97 -67 -97q-64 0 -215 91q-158 95 -158 151q0 30 43 57l69 43l192 77q-74 41 -129 91q-133 121 -152 270q-2 16 -2 32q0 138 140 206q-48 36 -85 72q-88 88 -104 163q-7 33 -7 64q0 108 78 168 q83 65 232 58q111 -5 195 -84t84 -170q0 -77 -66 -127q-75 -58 -213 -63q25 -14 72 -35q37 -10 83 -11h92l106 -198h-338q-107 -37 -107 -116q0 -30 18 -65q50 -95 208 -95q67 0 122 18q154 51 293 165v546h-172l-126 235h734zM456 1092q55 32 55 100q0 46 -27.5 82 t-70.5 36q-139 0 -132 -132q4 -69 46 -120q70 -1 129 34z"/>
            <glyph horiz-adv-x="1398"
                   d="M1539 1184h-298v-1184l-264 178v175l-351 -149q4 -30 4 -59q0 -83 -28 -136q-31 -58 -87 -58q-57 0 -178.5 121.5t-121.5 181.5q0 32 70 75q53 32 102 48l590 195v68l-230 163h-245q-48 -24 -48 -93q0 -7 1.5 -21.5t1.5 -21.5q0 -87 -91 -87q-34 0 -65 20 q-57 37 -131 148q-77 117 -77 179q0 87 102 111h552l230 -166v312h-977l-126 235h1539z"/>
            <glyph horiz-adv-x="1232"
                   d="M1373 1184h-299v-1184l-263 178v244l-319 -200q29 -71 29 -139q0 -97 -67 -97q-64 0 -215 91q-158 95 -158 151q0 30 43 57l69 43l268 145q-47 25 -89 54q-100 71 -154 149q-71 102 -75 250v258h-143l-126 235h1372zM811 666v518h-404v-356q0 -198 80 -240q46 -24 97 -24 q111 0 227 102z"/>
            <glyph horiz-adv-x="1643"
                   d="M1763 1184h-760v-310q25 24 51 42q62 42 118 44q157 7 266 -153q96 -139 96 -291q0 -21 -3 -40q-26 -194 -147 -353l-209 149q30 43 54 83q58 96 78 158q36 113 36 174q0 73 -51 73q-39 0 -108 -41q-85 -50 -181 -143v-576l-263 178v263l-256 -212q30 -72 30 -140 q0 -96 -67 -96q-64 0 -215 91q-158 95 -158 151q0 30 43 57l69 43l264 175q-35 24 -152 126q-113 108 -126 227v321h-169l-129 235h1763zM740 740v444h-304v-396q-11 -145 111 -166q12 -2 23 -2q97 0 170 120z"/>
            <glyph horiz-adv-x="1259"
                   d="M1406 1184h-298v-1184l-264 178v184l-408 -250q30 -72 30 -140q0 -96 -67 -96q-64 0 -215 91q-158 95 -158 151q0 30 43 57l69 43l172 83q-47 23 -86 55q-93 76 -129 180q-28 80 -28 160q0 139 78 237q85 107 239 133q38 6 75 6q212 0 385 -182v294h-844l-126 235h1406z M844 643v124q-104 82 -193 99q-96 19 -155 0l183 -333q20 12 106 69zM542 464l-192 344q-27 -10 -95 -77q-42 -57 -42 -121q0 -126 140 -169q31 -9 64 -9q66 0 125 32z"/>
            <glyph horiz-adv-x="1493"
                   d="M1642 1184h-298v-1184l-264 178v71l-271 -114q29 -71 29 -139q0 -97 -67 -97q-64 0 -214 91q-158 95 -158 151q0 30 43 57l68 43l570 224v128h-361v-80q0 -46 -25 -79q-27 -37 -69 -37q-82 0 -190 100q-106 97 -123 182q-3 16 -3 30q0 83 98 88h69v97q-37 0 -152 26 q-88 29 -154 94q-78 78 -78 170q0 28 8 57q23 87 102 136q73 46 167 46q80 0 147 -33q203 -101 203 -332v-261h361v387h-172l-126 235h734zM476 989v180q-6 140 -89 132q-82 -8 -82 -128q0 -60 25 -104q46 -80 146 -80z"/>
            <glyph horiz-adv-x="1328"
                   d="M1468 1184h-298v-1184l-264 178v115l-301 -144q29 -71 29 -139q0 -97 -67 -97q-64 0 -215 91q-158 95 -158 151q0 30 43 57l69 43l600 290v43h-427v-81q0 -113 -90 -113q-10 0 -22 2q-52 8 -165 137q-117 132 -125 201q-10 85 86 94h55v356h-218l-126 235h1468zM906 828 v356h-427v-356h427z"/>
            <glyph horiz-adv-x="1276"
                   d="M1425 1184h-298v-1184l-264 178v180l-383 -199q29 -71 29 -142q0 -101 -67 -101q-61 0 -219 112q-163 116 -163 173q0 68 112 100l264 76q-46 18 -88 45q-99 66 -156 166q-89 157 -100 312q70 19 258 89q82 36 82 95q0 49 -51 100h-381l-126 235h1425zM863 669v515h-333 q81 -113 81 -209q0 -30 -9 -55q-45 -130 -327 -203q26 -191 258 -178q167 10 330 130z"/>
            <glyph horiz-adv-x="1259"
                   d="M1400 1184h-298v-1184l-264 178v198l-402 -264q30 -72 30 -140q0 -96 -67 -96q-64 0 -215 91q-158 95 -158 151q0 30 43 57l69 43l157 86q-57 39 -100 87q-104 114 -118 254q-2 17 -2 34q0 153 124 261q119 104 268 98q240 -10 371 -185v331h-838l-126 235h1400zM838 660 v88q-108 71 -240 71q-61 0 -122 -16q-109 -29 -177 -103q-62 -67 -62 -137q0 -35 18 -61q34 -48 136 -48q120 0 220 50q141 71 227 156z"/>
            <glyph horiz-adv-x="1598"
                   d="M1742 1184h-298v-1184l-264 178v241l-394 -262q29 -71 29 -140q0 -97 -67 -97q-64 0 -214 91q-158 95 -158 151q0 30 43 57l68 43l508 291l-281 201l-502 -315l-155 194l402 244q-221 120 -212 298q6 106 83 175q81 73 203 72q178 -1 292 -101q98 -86 121 -215 q4 -24 4 -48q0 -132 -113 -221l343 -243v590h-172l-126 235h734zM744 1132q0 57 -34 100q-39 48 -102 49q-65 1 -101 -46q-31 -41 -31 -100q0 -56 37 -109.5t89 -82.5q142 182 142 189z"/>
            <glyph horiz-adv-x="1718"
                   d="M1866 1184h-298v-1184l-264 178v333l-172 -117q30 -72 30 -140q0 -96 -67 -96q-64 0 -215 91q-158 95 -158 151q0 30 43 57l69 43l453 225q-114 43 -298 43q-157 0 -338 -77q-28 -38 -92 -101q-45 -32 -129 -68l338 -416l-117 -106l-427 545q-10 11 -69 97 q-49 73 -49 141q0 89 83 106q11 2 21 2q66 0 114 -71q17 0 63 23q29 24 29 54v287h-416l-126 235h1866zM1304 834v350h-625v-207q94 33 201 33q46 0 89 -7q182 -29 335 -169z"/>
            <glyph horiz-adv-x="1348"
                   d="M1473 1184h-403v-373h-746q-55 -7 -55 -66q0 -43 49 -80q141 34 285 34q324 0 504 -178q130 -130 130 -257q0 -132 -99 -215l-172 149q109 63 109 172q0 95 -124 155l-161 -167q39 -94 39 -160q0 -76 -58 -76q-69 0 -177 50q-121 56 -121 111q0 47 37 82l63 48l217 163 q-237 13 -342 -57q-134 -90 -134 -222q0 -166 190 -268q165 -88 284 -104l-37 -106q-63 16 -267 95q-326 145 -372 387q-5 28 -5 55q0 144 125 252q-132 115 -132 238q0 29 9 57q41 133 209 132h488v149h-806l-126 235h1473z"/>
            <glyph horiz-adv-x="1637"
                   d="M1763 1184h-771v-293q25 19 51 33q62 34 118 36q168 7 271 -146q87 -128 87 -282q0 -201 -150 -365l-209 149q45 52 136 197q48 95 48 159q0 82 -70 82q-43 0 -102 -35q-85 -50 -180 -143v-342q134 -1 229.5 -100.5t95.5 -240.5q0 -167 -140 -315l-208 152 q197 131 197 275q0 65 -11 81q-15 21 -71 21q-46 0 -92 -34v-25l-28 2l-23 -20q-75 -69 -144 -211l-165 130q24 46 52 90q-43 41 -91 41t-81 -39.5t-33 -100.5q0 -73 49 -146q85 -126 232 -197l-86 -96l-131 102q-142 118 -204 192q-77 92 -77 203q0 100 66 165 q72 71 200 71q115 0 203 -80v259q-245 -96 -253 -96q-144 0 -267 113q-138 128 -136 318q1 121 87 213q94 100 236 100q59 0 121 -18q112 -33 212 -157v298h-731l-126 235h1763zM731 714q-22 37 -49 66q-64 70 -143 86q-20 4 -40 4q-99 0 -180 -82q-77 -78 -77 -163 q0 -23 7 -43q24 -67 124 -67q85 0 177 44q122 59 181 155z"/>
            <glyph horiz-adv-x="1780"
                   d="M1938 1184h-298v-1153q96 -36 156.5 -118t60.5 -186q0 -152 -134 -294l-209 152q177 96 177 240q0 65 -12 81q-14 20 -70 20q-59 0 -143 -77q-75 -69 -144 -211l-165 131q24 46 52 90q-42 40 -90 40q-50 0 -84.5 -40.5t-34.5 -100.5q0 -73 52 -143.5t179 -132.5l-85 -96 q-56 34 -104 69q-116 85 -178 159q-77 92 -77 203q0 101 66 166q72 71 200 71q133 0 228 -106q18 20 95 71v199q-46 -26 -150 -48q-125 -26 -256 -26q-206 0 -373 66q-305 121 -448 395q-60 115 -60 200q0 67 46 86q14 6 28 6q51 0 98 -63q27 -10 46 9q13 13 14 69v272h-321 l-126 235h1938zM1376 782q-110 104 -255 124q-28 4 -55 4q-103 0 -166 -56q-55 -47 -55 -107q0 -21 9 -38q32 -60 147 -60q94 0 156 27q84 36 219 106zM1376 1184h-794v-404q-3 -26 -13 -51q-22 -58 -70 -96q-69 -54 -178 -65q15 -21 41 -45q62 -55 165 -112 q151 -83 456 -83q199 0 393 123v127q-95 -80 -256 -80q-36 0 -75 4q-131 14 -223 99t-103 205q-2 19 -2 37q0 125 81 193q76 64 203 64q22 0 45 -2q158 -15 330 -224v310z"/>
            <glyph horiz-adv-x="1270"
                   d="M1399 1184h-275v-987q160 -100 160 -294q0 -167 -140 -315l-209 153q197 131 197 275q0 65 -11 81q-15 21 -71 21q-58 0 -142 -77q-75 -69 -144 -212l-165 131q24 46 52 90q-43 41 -91 41t-81.5 -40t-33.5 -102q0 -72 49 -145q85 -126 232 -197l-85 -96l-131 103 q-142 118 -204 192q-77 92 -77 203q0 100 66 165q72 71 200 71q133 0 228 -106q17 18 36 33q48 37 101 56v956h-333v-594q3 -110 -80 -120q-71 -9 -201 97q-120 98 -151 167q-11 23 -11 44q0 59 74 85h109v321h-267l-126 235h1399z"/>
            <glyph horiz-adv-x="1330"
                   d="M1453 1184h-272v-1059q136 -102 136 -277q0 -167 -140 -315l-208 153q197 131 197 275q0 65 -11 81q-15 21 -71 21q-59 0 -143 -77q-75 -69 -144 -212l-165 131q24 46 52 90q-43 41 -91 41t-81 -40t-33 -101q0 -73 49 -146q85 -126 200 -148l-85 -96q-62 40 -115 78 q-127 94 -189 168q-77 92 -77 203q0 100 66 165q72 71 200 71q133 0 228 -106q20 21 43 39q56 42 118 58v187q-121 -87 -332 -87q-134 0 -275 110q-149 117 -175 265q-4 20 -4 39q0 143 170 222q-47 27 -149 101q-53 46 -53 111q0 30 10 55h-109l-126 235h1453zM917 1184 h-493q-22 -10 -40 -23q-41 -31 -49 -72q-3 -15 -3 -29q0 -80 86 -105h218l118 -190q-178 16 -327 -43q-116 -46 -116 -127q0 -48 47 -79q52 -34 142 -34q35 0 73 5q178 25 344 153v544z"/>
            <glyph horiz-adv-x="1533"
                   d="M1665 1184h-283v-1037q169 -98 169 -299q0 -167 -140 -315l-209 153q197 131 197 275q0 65 -11 81q-15 21 -71 21q-59 0 -143 -77q-75 -69 -143 -212l-165 131q24 46 52 90q-43 41 -91 41t-81.5 -40t-33.5 -102q0 -72 49 -145q85 -126 232 -197l-85 -96l-131 103 q-142 118 -204 192q-77 93 -77 203q0 101 65 165q72 71 200 71q134 0 229 -106q16 17 34 31q44 36 94 55v240q-145 -116 -327 -123q-133 -5 -269 98q-123 94 -169 209q-16 40 -16 80q0 69 41 123h-192l-132 235h783l158 -235h-270q-45 -33 -106 -89q-61 -85 -61 -152 q0 -71 83 -71q56 0 147 34q160 60 330 195v470h-1118l-126 235h1665z"/>
            <glyph horiz-adv-x="1427"
                   d="M1551 1184h-442v-140q199 -126 199 -335q0 -41 -9 -83q-47 -233 -216 -359v-275q193 -87 193 -280q0 -145 -132 -285l-209 153q169 116 169 216q0 102 -82 102q-87 0 -143 -77q-53 -72 -108 -214l-201 133q24 46 52 90q-40 38 -88 38q-53 0 -92.5 -42.5t-39.5 -101.5 q0 -74 64 -139q69 -70 126 -90l-86 -96q-40 22 -78 49q-89 64 -151 138q-77 92 -77 203q0 100 66 165q72 71 200 71q109 0 228 -106q20 21 43 39q55 42 117 58l-1 134q-98 -29 -207 -29q-232 0 -351 95q-145 115 -145 233q0 100 94 176q-26 19 -48 39q-54 48 -81 93 q-37 60 -37 124q0 86 66.5 141t186.5 55q68 0 133 -16l89 -189q-127 15 -223 3q-81 -10 -81 -79q0 -13 3 -27q13 -56 52 -98q23 12 94 40q51 17 121 20l97 -200q-51 -1 -93 -12q-103 -25 -150 -97q-21 -33 -21 -60q0 -71 126 -71q75 0 187 28q159 39 290 123q-76 38 -134 86 q-138 116 -159 261q-3 22 -3 43q0 172 189 234v118h-848l-126 235h1551zM1124 726q2 20 2 38q0 78 -32 126.5t-85 52.5q-69 6 -114.5 -44t-43.5 -133q5 -168 175 -252q26 35 45 68q47 81 53 144z"/>
            </font>
</defs>
</svg>
