<?xml version="1.0" standalone="no"?>
<!DOCTYPE svg PUBLIC "-//W3C//DTD SVG 1.1//EN" "http://www.w3.org/Graphics/SVG/1.1/DTD/svg11.dtd" >
<svg xmlns="http://www.w3.org/2000/svg">
    <metadata>
        This is a custom SVG webfont generated by Font Squirrel.
        Copyright : Copyright c 2005 CDAC GIST PUNE INDIA ISFOCDEVANAGARIOPEN TYPEYOGESHBOLD ONLY FOR NONCOMMERCIAL
        PURPOSES This font not to be distributed along with any software for commercial purposes without prior written
        consent from CDAC GIST Pune
    </metadata>
    <defs>
        <font id="webfontSTwWxgNs" horiz-adv-x="0">
            <font-face units-per-em="2048" ascent="1638" descent="-410"/>
            <missing-glyph horiz-adv-x="540"/>
            <glyph unicode=" " horiz-adv-x="540"/>
            <glyph unicode="&#x09;" horiz-adv-x="540"/>
            <glyph unicode="&#xa0;" horiz-adv-x="540"/>
            <glyph unicode="!" horiz-adv-x="722"
                   d="M481 1360q0 -20 -3 -56.5t-3 -53.5l-95 -808h-36l-95 808q0 17 -2.5 53.5t-2.5 56.5q0 175 118 175q119 0 119 -175zM490 154q0 -55 -38 -89.5t-93 -34.5q-50 0 -87 36t-37 88q0 55 36 94.5t91 39.5t91.5 -39.5t36.5 -94.5z"/>
            <glyph unicode="&#x22;" horiz-adv-x="885"
                   d="M733 1455l-74 -430h-44l-75 430q-6 37 24.5 67.5t73.5 30.5q37 0 66.5 -26t29.5 -60q0 -6 -1 -12zM344 1455l-71 -430l-50 2l-77 428q-6 35 26 66.5t74 31.5q40 0 72 -31.5t26 -66.5z"/>
            <glyph unicode="#" horiz-adv-x="1084"
                   d="M1078 935h-226l-44 -279h214v-127h-232l-71 -470h-134l68 470h-279l-74 -470h-137l72 470h-232v127h252l45 279h-238v134h256l68 437h134l-66 -437h277l68 437h133l-62 -437h208v-134zM713 935h-276l-45 -279h279z"/>
            <glyph unicode="$" horiz-adv-x="1084"
                   d="M995 448q0 -174 -123 -280q-112 -95 -293 -112v-184h-86v184q-210 4 -401 116v288l33 -3q62 -317 368 -326v602q-178 102 -254 173q-129 121 -129 264q0 154 117 247q106 85 266 92v136h86v-136q196 -9 345 -119l3 -244h-39q-22 125 -105.5 204t-203.5 90v-525 q209 -113 280 -177q136 -122 136 -290zM490 962v478q-66 -5 -133 -64q-78 -68 -78 -155q0 -86 70 -153q1 -1 141 -106zM817 392q0 166 -238 294v-555q107 16 172.5 85t65.5 176z"/>
            <glyph unicode="%" horiz-adv-x="1808"
                   d="M1678 600q0 -243 -144 -414q-131 -156 -284 -156q-279 0 -279 303q0 180 144 340q149 167 331 167q107 0 173 -77q59 -69 59 -163zM1615 588q0 69 -37 120q-42 58 -111 58q-136 0 -238 -214q-85 -178 -85 -299q0 -149 130 -149q141 0 247 176q94 156 94 308zM1381 1535 l-841 -1502l-109 -3l757 1354q-140 -55 -267 -55q-58 0 -98 13q1 -11 8 -55q6 -36 6 -55q0 -213 -151 -384q-143 -162 -294 -162q-264 0 -264 300q0 180 144 347q149 173 328 173q93 0 178 -72q56 -47 169 -47q209 0 324 148h110zM772 1268q0 22 -21 92q-36 12 -83 46 q-39 28 -56 28q-78 0 -186 -144q-126 -167 -126 -366q0 -162 131 -155q149 9 250 174q91 150 91 325z"/>
            <glyph unicode="&#x26;" horiz-adv-x="1687"
                   d="M1633 282q-84 -137 -148 -189q-76 -63 -181 -63q-185 0 -372 193q-203 -193 -457 -193q-184 0 -285 89t-101 255q0 165 147 317q108 112 269 194q-68 181 -68 300q0 149 94 249.5t241 100.5q125 0 208 -67q89 -73 89 -197q0 -223 -333 -377q157 -281 280 -440 q193 236 193 386q0 96 -137 104v48h475v-48q-96 -12 -146 -55q-38 -32 -88 -123q-16 -29 -235 -383q172 -190 321 -190q109 0 196 116zM947 1280q0 71 -48.5 124.5t-120.5 53.5q-163 0 -163 -202q0 -106 83 -279q101 46 168 119q81 88 81 184zM867 288q-152 188 -324 511 q-122 -74 -178 -145q-71 -92 -71 -217q0 -108 85.5 -197t193.5 -89q59 0 145 41q83 39 149 96z"/>
            <glyph unicode="'" horiz-adv-x="392"
                   d="M291 1455l-74 -430h-45l-74 430q-6 35 24.5 66.5t70.5 31.5q41 0 70 -25.5t29 -60.5q0 -6 -1 -12z"/>
            <glyph unicode="(" horiz-adv-x="722"
                   d="M662 -285l-27 -39q-531 360 -531 954q0 575 540 911l12 -41q-362 -260 -362 -853q0 -312 62 -499q82 -252 306 -433z"/>
            <glyph unicode=")" horiz-adv-x="722"
                   d="M621 567q0 -275 -149 -515q-143 -231 -392 -382l-18 45q366 263 366 846q0 318 -64 515q-85 260 -305 421l30 35q155 -80 303 -275q229 -303 229 -690z"/>
            <glyph unicode="*" horiz-adv-x="1084"
                   d="M947 1277q6 -17 6 -33q0 -47 -46 -76q-41 -25 -81 -19q-36 5 -238 -68q133 -70 291 -101q23 -5 41.5 -29.5t18.5 -53.5q0 -31 -21 -54q-28 -31 -65 -31q-75 0 -105 70q-15 35 -184 160q-4 -154 39 -303q3 -10 3 -21q0 -31 -19 -55q-22 -28 -55 -28q-10 0 -21 3 q-72 17 -72 97q0 45 24 73q18 21 28.5 91.5t19.5 139.5q-128 -75 -235 -196q-19 -21 -55 -21q-60 0 -81 57q-6 17 -6 33q0 41 36 69q33 25 71 25q9 0 17 -2q49 -3 238 80q-126 77 -294 110q-24 5 -42 29t-18 54t21 53q28 31 65 31q75 0 105 -72q14 -34 181 -164 q-4 177 -51 321q-3 8 -3 18q0 32 24.5 60t59.5 28q8 0 17 -2q75 -15 75 -99q0 -46 -24 -73t-48 -255q145 70 247 187q25 21 61 21q57 0 75 -54z"/>
            <glyph unicode="+" horiz-adv-x="1223" d="M1164 555h-475v-481h-154v481h-476v152h476v472h154v-472h475v-152z"/>
            <glyph unicode="," horiz-adv-x="540"
                   d="M442 71q0 -83 -82 -185q-77 -96 -167 -141l-24 50q58 32 116 101q62 76 62 128q0 29 -26 29q8 0 -69 -11q-118 15 -118 112q0 134 133 134q89 0 136 -73q39 -59 39 -144z"/>
            <glyph unicode="-" horiz-adv-x="722" d="M633 481h-541v143h541v-143z"/>
            <glyph unicode="." horiz-adv-x="540"
                   d="M401 157q0 -57 -37 -92t-94 -35q-53 0 -88.5 37.5t-35.5 89.5q0 53 35 92t89 39q56 0 93.5 -37t37.5 -94z"/>
            <glyph unicode="/" horiz-adv-x="633" d="M662 1553l-558 -1725l-134 -3l550 1722z"/>
            <glyph unicode="0" horiz-adv-x="1084"
                   d="M1039 775q0 -278 -108 -484q-136 -261 -399 -261q-226 0 -358 219q-126 208 -126 541q0 285 105 488q131 257 387 257q237 0 372 -219q127 -206 127 -541zM820 772q0 698 -265 698q-288 0 -288 -725q0 -650 279 -650q166 0 229 214q45 151 45 463z"/>
            <glyph unicode="1" horiz-adv-x="1084"
                   d="M858 59h-603v39q124 6 167 39q38 28 38 101v974q0 123 -65 123q-35 0 -157 -46l3 38l412 211v-1300q0 -73 38 -101q43 -33 167 -39v-39z"/>
            <glyph unicode="2" horiz-adv-x="1084"
                   d="M1036 362l-127 -300l-853 -3v39l375 386q300 310 300 579q0 140 -83 223t-223 83q-209 0 -315 -276l-48 6q37 203 154 316q124 120 319 120q161 0 275 -111.5t114 -271.5q0 -149 -73 -282q-64 -117 -221 -282l-333 -350h442q123 0 158 18q42 21 107 124z"/>
            <glyph unicode="3" horiz-adv-x="1084"
                   d="M938 529q0 -234 -183 -373q-166 -126 -408 -126q-255 0 -255 127q0 78 83 78q51 0 147 -61t162 -61q132 0 213 94q78 89 78 221q0 182 -103 265q-106 85 -342 85v33q356 112 356 359q0 104 -64.5 166.5t-167.5 62.5q-191 0 -320 -226l-42 9q118 353 431 353 q168 0 257 -81q84 -76 84 -210q0 -170 -196 -306q140 -63 205 -159t65 -250z"/>
            <glyph unicode="4" horiz-adv-x="1084"
                   d="M1027 419h-219v-360h-178v360h-609v145l680 971h104v-965h222v-151zM633 570v725l-508 -725h508z"/>
            <glyph unicode="5" horiz-adv-x="1084"
                   d="M947 1544l-101 -214l-448 -3l-83 -178q299 -50 434 -156q180 -141 180 -438q0 -239 -173 -385q-165 -140 -417 -140q-256 0 -274 121q-1 9 -1 17q0 81 102 81q69 0 158 -68t145 -68q134 0 219 111q81 107 81 263q0 228 -202 352q-159 98 -404 114q-30 9 -30 23q0 5 4 10 l240 517l428 3q50 0 69 9q24 10 58 50z"/>
            <glyph unicode="6" horiz-adv-x="1084"
                   d="M1022 529q0 -206 -121 -349q-128 -150 -331 -150q-213 0 -350 163q-146 173 -146 466q0 348 216 590q213 237 553 283q110 15 122 15l15 -44l-110 -25q-60 -16 -107 -38q-358 -169 -424 -528q122 86 273 86q191 0 300.5 -126t109.5 -343zM811 555q-42 336 -282 336 q-121 0 -208 -68q-5 -4 -12 -15q-30 -70 -30 -208q0 -222 82 -358q87 -144 242 -144q102 0 160 99q55 95 55 249q0 53 -7 109z"/>
            <glyph unicode="7" horiz-adv-x="1084"
                   d="M980 1473l-472 -1440l-146 -3l431 1303l-437 3q-111 1 -164 -37q-41 -29 -109 -138l-44 21l130 321l811 3v-33z"/>
            <glyph unicode="8" horiz-adv-x="1084"
                   d="M965 398q0 -169 -136 -273q-124 -95 -300 -95q-173 0 -291 92q-128 100 -128 270q0 202 279 392q-176 172 -183 181q-81 103 -81 244q0 124 109 220q120 106 309 106q147 0 254 -76q121 -85 121 -227q0 -212 -288 -362q162 -123 228 -201q107 -129 107 -271zM760 1229 q0 107 -65.5 174t-171.5 67q-97 0 -163 -57q-69 -60 -69 -157q0 -174 267 -341q202 116 202 314zM790 339q0 121 -116 232q-41 39 -220 165q-9 -3 -20 -11q-149 -129 -149 -309q0 -144 66 -230q73 -94 207 -94q105 0 168.5 69t63.5 178z"/>
            <glyph unicode="9" horiz-adv-x="1084"
                   d="M974 698q-51 -187 -185 -351q-145 -179 -335 -261q-164 -71 -326 -71l-9 47q317 59 481 277q111 148 163 341q-156 -107 -306 -107q-180 0 -289 124t-109 336q0 175 102 319q131 183 368 183q142 0 257 -92q108 -86 161 -225q55 -145 55 -307q0 -112 -28 -213zM784 962 q0 194 -51 324q-73 184 -234 184q-125 0 -185 -130q-44 -97 -44 -241q0 -171 54 -282q69 -143 216 -143q57 0 128.5 31.5t106.5 75.5q9 60 9 181z"/>
            <glyph unicode=":" horiz-adv-x="603"
                   d="M431 932q0 -57 -38 -92t-93 -35t-91.5 36.5t-36.5 90.5q0 53 36 90.5t92 37.5q54 0 92.5 -36.5t38.5 -91.5zM431 157q0 -57 -38 -92t-93 -35t-91.5 37.5t-36.5 89.5q0 53 36 92t92 39q55 0 93 -37t38 -94z"/>
            <glyph unicode=";" horiz-adv-x="603"
                   d="M398 938q0 -48 -39 -90.5t-89 -42.5q-57 0 -95 43q-35 40 -35 90q0 49 38.5 85.5t91.5 36.5q51 0 89.5 -36.5t38.5 -85.5zM442 71q0 -83 -82 -185q-77 -96 -167 -141l-24 50q58 32 116 101q62 76 62 128q0 29 -26 29q8 0 -69 -11q-118 15 -118 112q0 134 133 134 q85 0 133 -68q42 -60 42 -149z"/>
            <glyph unicode="&#x3c;" horiz-adv-x="1223" d="M1170 59l-1114 514v116l1114 517l-6 -143l-920 -433l920 -431z"/>
            <glyph unicode="=" horiz-adv-x="1223" d="M1164 766h-1105v146h1105v-146zM1164 347h-1105v146h1105v-146z"/>
            <glyph unicode="&#x3e;" horiz-adv-x="1223"
                   d="M1164 573l-1111 -514l3 140l927 431l-927 433l-3 143l1111 -517v-116z"/>
            <glyph unicode="?" horiz-adv-x="962"
                   d="M861 1188q0 -94 -54 -191q-26 -47 -115 -166l-62 -83q-113 -151 -137 -329h-45q2 177 105 404.5t103 361.5q0 115 -58 193q-63 86 -173 86q-67 0 -129 -31q-75 -37 -75 -95q0 -14 5 -28q2 -3 41 -54q36 -47 36 -83q0 -95 -101 -95q-98 0 -98 151q0 139 116 226 q105 80 249 80q180 0 291 -109q101 -99 101 -238zM597 157q0 -55 -42 -92q-38 -35 -86 -35q-49 0 -88 37q-42 38 -42 90t41 91.5t89 39.5q47 0 87.5 -39t40.5 -92z"/>
            <glyph unicode="@" horiz-adv-x="1999"
                   d="M1770 641q-24 -142 -169 -344q-105 -146 -275 -146q-27 0 -55 3q-47 5 -54 7q-29 9 -71 41q-46 36 -80 116q-38 -46 -67 -72q-59 -52 -126 -74q-72 -24 -119 -24q-36 0 -74 9q-90 21 -140 110q-45 81 -45 191q0 31 4 62q28 212 145 366q109 144 256 192q47 16 100 16 q58 0 93 -19q57 -21 113 -113l26 98l190 3l-178 -686q-9 -35 -9 -48q0 -38 36 -56q40 -20 81 -20q77 0 139 59q121 115 175 303q32 111 32 196q0 84 -26 160q-58 171 -188 298q-140 137 -311 168q-106 19 -249 -9q-282 -56 -471 -249q-178 -182 -215 -419q-25 -163 -25 -222 q0 -121 45 -262q71 -221 249 -340.5t440 -119.5q166 0 291 39q82 25 235 103l44 -89l-264 -107l-220 -38h-157q-218 0 -444 141q-233 146 -343 364q-92 181 -92 388q0 79 18 146q24 87 97 216q96 170 209 265q248 209 528 270q173 37 321 9q96 -18 161 -43q129 -48 219 -135 q154 -149 211 -338q21 -71 21 -198q0 -94 -12 -168zM1155 823q-6 123 -89 166q-13 7 -30 7q-97 0 -205 -139q-124 -157 -124 -355v-113q0 -138 114 -138q53 0 116.5 44.5t87.5 93.5q34 51 79 178q56 159 51 256z"/>
            <glyph unicode="A" horiz-adv-x="1339"
                   d="M1317 0h-250l-135 395h-535l-147 -395h-238l545 1431h233zM849 611l-179 542l-197 -542h376z"/>
            <glyph unicode="B" horiz-adv-x="1339"
                   d="M1244 432q0 -185 -129 -304q-138 -128 -372 -128h-613v1431h628q198 0 313 -110q107 -102 107 -261q0 -189 -162 -292q228 -91 228 -336zM942 1045q0 177 -267 177h-317v-380h314q270 0 270 203zM1008 435q0 203 -306 203h-344v-437h376q132 0 204 64q70 61 70 170z"/>
            <glyph unicode="C" horiz-adv-x="1445"
                   d="M1335 545q-52 -354 -301 -502q-149 -89 -320 -89q-273 0 -446 177q-199 204 -199 591q0 338 178.5 541.5t488.5 203.5q265 0 422 -150q139 -133 159 -340h-206q-62 272 -375 272q-187 0 -301 -130q-123 -140 -123 -390q0 -557 429 -557q116 0 212 72q130 97 173 301h209z "/>
            <glyph unicode="D" horiz-adv-x="1445"
                   d="M1335 734q0 -289 -133 -488q-165 -246 -488 -246h-569v1431h579q278 0 444.5 -191.5t166.5 -505.5zM1092 722q0 246 -106 375q-102 125 -289 125h-324v-1021h338q175 0 278 138.5t103 382.5z"/>
            <glyph unicode="E" horiz-adv-x="1339"
                   d="M1214 0h-1062v1431h1048v-211h-820v-383h756v-214h-756v-417h834v-206z"/>
            <glyph unicode="F" horiz-adv-x="1232" d="M1151 1220h-771v-383h677v-214h-677v-623h-228v1431h999v-211z"/>
            <glyph unicode="G" horiz-adv-x="1555"
                   d="M1393 0h-164l-39 150q-170 -196 -452 -196q-340 0 -517 255q-145 210 -145 517q0 294 163 502q187 239 514 239q222 0 386 -120q185 -135 213 -373l-206 -2q-72 277 -403 277q-185 0 -301 -136q-123 -145 -123 -396q0 -552 432 -552q148 0 259 80q153 112 160 344h-429 v189h652v-778z"/>
            <glyph unicode="H" horiz-adv-x="1445" d="M1278 0h-230v636h-682v-636h-229v1431h229v-579h682v579h230v-1431z"/>
            <glyph unicode="I" horiz-adv-x="586" d="M395 0h-231v1431h231v-1431z"/>
            <glyph unicode="J" horiz-adv-x="1016"
                   d="M859 393q0 -235 -140 -350q-112 -92 -290 -92q-227 0 -335 137q-79 100 -79 241v152h223v-113q0 -206 182 -206q206 0 206 221v1048h233v-1038z"/>
            <glyph unicode="K" horiz-adv-x="1339"
                   d="M1327 0h-297l-478 677l-189 -179v-498h-228v1431h228v-633l635 635h319l-598 -591z"/>
            <glyph unicode="L" horiz-adv-x="1124" d="M1065 0h-930v1431h228v-1225h702v-206z"/>
            <glyph unicode="M" horiz-adv-x="1658"
                   d="M1511 0h-233v1102l-365 -1102h-209l-346 1087v-1087h-228v1431h290l394 -1161l381 1161h316v-1431z"/>
            <glyph unicode="N" horiz-adv-x="1445"
                   d="M1281 0h-251l-667 1072v-1072h-228v1431h245l668 -1085v1085h233v-1431z"/>
            <glyph unicode="O" horiz-adv-x="1555"
                   d="M1460 712q0 -287 -151 -496q-189 -265 -553 -265q-365 0 -552 265q-148 208 -148 496t148 493q187 260 552 260q364 0 553 -260q151 -206 151 -493zM1217 712q0 236 -123 383q-126 152 -338 152q-214 0 -338 -152q-119 -145 -119 -383q0 -239 119 -387q125 -155 338 -155 q211 0 338 155q123 150 123 387z"/>
            <glyph unicode="P" horiz-adv-x="1339"
                   d="M1234 1016q0 -178 -100 -298q-118 -144 -342 -144h-412v-574h-228v1433h640q202 0 324 -119q118 -116 118 -298zM991 1013q0 209 -255 209h-356v-439h349q262 0 262 230z"/>
            <glyph unicode="Q" horiz-adv-x="1555"
                   d="M1460 30l-123 -162l-228 176q-145 -93 -353 -93q-365 0 -552 265q-148 208 -148 496t148 493q187 260 552 260q364 0 553 -260q151 -206 151 -493q0 -324 -192 -540zM1217 712q0 236 -123 383q-126 152 -338 152q-214 0 -338 -152q-119 -145 -119 -383q0 -239 119 -387 q125 -155 338 -155q83 0 157 27l-126 98l123 162l177 -135q130 141 130 390z"/>
            <glyph unicode="R" horiz-adv-x="1445"
                   d="M1347 0h-263q-41 123 -41 366q0 221 -226 221h-432v-587h-228v1431h660q209 0 332 -82q151 -100 151 -313q0 -224 -172 -334q125 -56 135 -263l13 -250q4 -89 71 -127v-62zM1057 1013q0 209 -230 209h-442v-427h410q262 0 262 218z"/>
            <glyph unicode="S" horiz-adv-x="1339"
                   d="M1232 400q0 -235 -194 -354q-154 -95 -381 -95q-289 0 -444 175q-130 146 -130 358h206q0 -166 121 -252q100 -70 247 -70q130 0 219 39q125 55 125 177q0 97 -61 142q-55 41 -224 81l-282 67q-309 73 -309 345q0 190 115 312q132 140 383 140q330 0 462 -176 q82 -109 90 -305h-204q-7 143 -113 213q-86 57 -215 57q-287 0 -287 -216q0 -122 142 -155l395 -90q339 -78 339 -393z"/>
            <glyph unicode="T" horiz-adv-x="1232" d="M1178 1220h-464v-1220h-231v1220h-468v211h1163v-211z"/>
            <glyph unicode="U" horiz-adv-x="1445"
                   d="M1278 506q0 -236 -145 -385q-159 -162 -444 -162q-278 0 -424 159q-128 139 -128 361v952h231v-898q0 -194 105 -287q85 -76 221 -76q144 0 237 74q117 93 117 284v903h230v-925z"/>
            <glyph unicode="V" horiz-adv-x="1339" d="M1271 1431l-513 -1431h-223l-510 1431h233l387 -1161l388 1161h238z"/>
            <glyph unicode="W" horiz-adv-x="1877"
                   d="M1813 1431l-373 -1433h-216l-311 1123l-312 -1123h-218l-371 1433h231l250 -1097l307 1097h223l304 -1097l250 1097h236z"/>
            <glyph unicode="X" horiz-adv-x="1339"
                   d="M1300 0h-289l-361 552l-378 -552h-277l513 734l-459 697h263l345 -508l339 508h260l-456 -697z"/>
            <glyph unicode="Y" horiz-adv-x="1339"
                   d="M1286 1431l-521 -849v-582h-228v572l-530 859h248l390 -641l388 641h253z"/>
            <glyph unicode="Z" horiz-adv-x="1232"
                   d="M1160 0h-1133v187l814 1033h-745v211h1064v-187l-826 -1038h826v-206z"/>
            <glyph unicode="[" horiz-adv-x="722"
                   d="M653 -279h-466v1785h466v-66h-172q-73 0 -95 -19q-27 -23 -27 -97v-1407q0 -82 25 -108t103 -26h166v-62z"/>
            <glyph unicode="\" horiz-adv-x="683" d="M897 59l-169 3l-814 1491l166 -6z"/>
            <glyph unicode="]" horiz-adv-x="722"
                   d="M535 -279h-464v62h155q65 0 88 9q40 16 48 68q3 25 3 69v1342q0 102 -11 128q-18 41 -87 41h-196v66h464v-1785z"/>
            <glyph unicode="^" horiz-adv-x="1019" d="M998 618l-167 3l-317 721l-330 -721l-163 -3l418 885h140z"/>
            <glyph unicode="_" horiz-adv-x="1084" d="M1090 -229h-1093v116h1093v-116z"/>
            <glyph unicode="`" horiz-adv-x="722"
                   d="M540 1161h-98l-317 199q-92 58 -92 95q0 83 68 83q29 0 68.5 -21t59.5 -47z"/>
            <glyph unicode="a" horiz-adv-x="1124"
                   d="M1052 3q-81 -32 -117 -32q-166 0 -194 130q-162 -140 -351 -140q-152 0 -245 89.5t-93 231.5q0 297 328 337l280 34q69 8 69 100q0 135 -219 135q-185 0 -221 -184h-184q14 376 435 376q135 0 237 -46q168 -77 168 -258v-579q0 -42 26 -42q10 0 81 15v-167zM729 368v130 q-44 -17 -265 -46q-187 -24 -187 -145q0 -157 155 -157q112 0 204.5 64.5t92.5 153.5z"/>
            <glyph unicode="b" horiz-adv-x="1124"
                   d="M1033 555q0 -231 -101 -389q-126 -198 -375 -198q-84 0 -167 49q-63 38 -76 64v-81h-213v1431h213v-481q110 129 267 130q207 1 332 -149q120 -145 120 -376zM807 525q0 351 -257 351q-150 0 -204 -142q-32 -86 -32 -255q0 -171 82 -256q65 -66 158 -66q123 0 191 108 q62 99 62 260z"/>
            <glyph unicode="c" horiz-adv-x="1016"
                   d="M940 395q-19 -175 -103 -286q-113 -148 -324 -148q-218 0 -347 152q-124 146 -124 383q0 259 120 413q132 171 383 171q196 0 297 -129q82 -105 95 -279h-189q-39 204 -228 204q-248 0 -248 -351q0 -368 248 -368q78 0 142 66.5t86 171.5h192z"/>
            <glyph unicode="d" horiz-adv-x="1124"
                   d="M991 0h-213v98q-89 -130 -263 -130q-246 0 -368 198q-95 155 -95 389q0 232 115 376q119 149 324 149q186 0 287 -133v484h213v-1431zM778 479q0 397 -255 397q-160 0 -215 -130q-31 -72 -31 -221q0 -164 56 -260q63 -108 187 -108q95 0 166 66q92 87 92 256z"/>
            <glyph unicode="e" horiz-adv-x="1124"
                   d="M1028 439h-746q16 -282 272 -282q100 0 176 69q68 62 72 125h196q-5 -70 -41 -146q-49 -106 -138 -165q-119 -79 -287 -79q-218 0 -348 152q-125 146 -125 383q0 259 122 413q133 171 386 171q225 0 345 -171q116 -166 116 -470zM805 623q-27 253 -263 253 q-102 0 -176.5 -74t-83.5 -179h523z"/>
            <glyph unicode="f" horiz-adv-x="586"
                   d="M532 1244h-90q-79 0 -79 -88v-103h160v-189h-160v-864h-216v864h-132v189h132v152q0 240 285 240h100v-201z"/>
            <glyph unicode="g" horiz-adv-x="1124"
                   d="M996 103q0 -539 -500 -539q-134 0 -234 61q-143 88 -166 282h193q31 -152 219 -152q180 0 240 122q32 66 32 209q-89 -125 -255 -125q-246 0 -369 201q-97 159 -97 393q0 232 116 376q120 149 325 149q189 0 280 -140v113h216v-950zM780 479q0 397 -248 397 q-158 0 -214 -130q-31 -73 -31 -221q0 -164 56 -260q63 -108 187 -108q92 0 161 66q89 86 89 256z"/>
            <glyph unicode="h" horiz-adv-x="1124"
                   d="M984 0h-216v680q0 196 -187 196q-255 0 -255 -304v-572h-213v1431h213v-481q100 130 273 130q158 0 256 -72q129 -94 129 -301v-707z"/>
            <glyph unicode="i" horiz-adv-x="478" d="M329 1207h-216v224h216v-224zM329 0h-216v1053h216v-1053z"/>
            <glyph unicode="j" horiz-adv-x="478"
                   d="M329 1207h-216v224h216v-224zM326 -130q0 -287 -284 -287q-45 0 -84 3v198h49q64 0 83.5 18t19.5 85v1166h216v-1183z"/>
            <glyph unicode="k" horiz-adv-x="1016"
                   d="M1013 0h-272l-304 491l-111 -98v-393h-213v1431h213v-763l395 387h275l-405 -407z"/>
            <glyph unicode="l" horiz-adv-x="478" d="M334 0h-216v1431h216v-1431z"/>
            <glyph unicode="m" horiz-adv-x="1658"
                   d="M1519 0h-216v672q0 204 -170 204q-95 0 -155 -74q-56 -69 -56 -166v-636h-215v717q0 159 -140 159q-92 0 -155 -57q-86 -79 -86 -247v-572h-213v1053h213v-118q93 145 273 145q188 0 269 -145q74 76 129 106q74 39 181 39q122 0 213 -67q128 -95 128 -296v-717z"/>
            <glyph unicode="n" horiz-adv-x="1124"
                   d="M984 0h-216v641q0 235 -201 235q-92 0 -155 -57q-86 -79 -86 -247v-572h-213v1053h213v-116q95 143 273 143q158 0 256 -72q129 -94 129 -301v-707z"/>
            <glyph unicode="o" horiz-adv-x="1124"
                   d="M1038 525q0 -227 -121 -385q-138 -179 -377 -179t-372 179q-116 156 -116 385q0 228 116 381q133 174 372 174q240 0 377 -174q121 -155 121 -381zM814 525q0 131 -52 226q-72 130 -222 130q-149 0 -216 -130q-47 -91 -47 -226q0 -137 47 -232q67 -136 216 -136 q150 0 222 136q52 99 52 232z"/>
            <glyph unicode="p" horiz-adv-x="1124"
                   d="M1033 555q0 -231 -102 -393q-127 -201 -374 -201q-141 0 -243 115v-473h-213v1450h213v-108q94 135 267 135q208 0 332 -149q120 -145 120 -376zM807 525q0 351 -257 351q-150 0 -204 -142q-32 -86 -32 -255q0 -171 82 -256q65 -66 158 -66q123 0 191 108q62 99 62 260z "/>
            <glyph unicode="q" horiz-adv-x="1124"
                   d="M984 -402h-219v478q-88 -115 -250 -115q-246 0 -368 201q-95 158 -95 393q0 232 115 376q119 149 324 149q181 0 274 -147v120h219v-1455zM765 479q0 167 -35 255q-56 142 -207 142q-160 0 -215 -130q-31 -72 -31 -221q0 -164 56 -260q63 -108 187 -108q93 0 159 66 q86 86 86 256z"/>
            <glyph unicode="r" horiz-adv-x="692"
                   d="M667 849h-86q-106 0 -168 -69.5t-62 -173.5v-606h-214v1053h214v-125q88 152 248 152q23 0 68 -15v-216z"/>
            <glyph unicode="s" horiz-adv-x="1016"
                   d="M930 324q0 -164 -124 -265q-120 -98 -308 -98q-274 0 -378 146q-62 86 -68 249h188q19 -199 256 -199q213 0 213 140q0 51 -43 77q-35 21 -143 48l-199 49q-245 60 -245 265q0 169 122 261q109 83 280 83q251 0 352 -148q60 -86 60 -206h-206q0 155 -223 155 q-175 0 -175 -113q0 -52 37 -74q27 -17 125 -41l172 -42q166 -40 236.5 -107t70.5 -180z"/>
            <glyph unicode="t" horiz-adv-x="586"
                   d="M523 866h-160v-635q0 -61 79 -61h76v-162q-70 -32 -145 -32q-125 0 -184 90q-42 65 -42 155v645h-132v189h132v273h216v-273h160v-189z"/>
            <glyph unicode="u" horiz-adv-x="1124"
                   d="M981 0h-218v108q-100 -142 -299 -142q-135 0 -236 83q-115 95 -115 253v751h216v-695q0 -201 169 -201q135 0 207 108q58 87 58 209v579h218v-1053z"/>
            <glyph unicode="v" horiz-adv-x="1016" d="M971 1053l-392 -1053h-204l-373 1053h219l262 -790l275 790h213z"/>
            <glyph unicode="w" horiz-adv-x="1445"
                   d="M1391 1053l-302 -1053h-196l-196 744l-192 -744h-196l-297 1053h209l186 -741l189 741h209l191 -741l194 741h201z"/>
            <glyph unicode="x" horiz-adv-x="1016"
                   d="M996 0h-272l-241 361l-238 -361h-265l371 542l-331 511h245l228 -331l221 331h243l-334 -511z"/>
            <glyph unicode="y" horiz-adv-x="1016"
                   d="M967 1053l-363 -1026q-115 -299 -204 -388q-67 -66 -199 -66q-55 0 -96 32v189q64 -32 116 -32q43 0 72 47q18 29 85 181l-371 1063h216l268 -790l257 790h219z"/>
            <glyph unicode="z" horiz-adv-x="1016" d="M937 0h-893v165l572 701h-520v187h817v-162l-574 -709h598v-182z"/>
            <glyph unicode="{" horiz-adv-x="1042"
                   d="M707 -279l-3 -18q-170 0 -235 66q-68 70 -68 258v347q0 113 -27 158q-35 58 -148 89q106 34 143 93q32 50 32 153v380q0 173 78 242q67 59 225 61l3 -18q-143 -49 -143 -255v-377q0 -121 -30 -177q-35 -67 -136 -99q108 -38 142 -115q24 -55 24 -182v-357 q0 -205 143 -249z"/>
            <glyph unicode="|" horiz-adv-x="434" d="M291 59h-145v1491h145v-1491z"/>
            <glyph unicode="}" horiz-adv-x="1042"
                   d="M814 621q-109 -31 -144 -87q-29 -46 -29 -160v-347q0 -188 -67 -258q-65 -66 -235 -66l-3 18q142 43 142 249v357q0 128 25 182q35 77 144 115q-103 31 -139 99q-30 56 -30 177v377q0 107 -29 163q-32 64 -113 92l3 18q158 -2 224 -61q78 -69 78 -242v-380 q0 -103 32 -153q37 -59 141 -93z"/>
            <glyph unicode="~" horiz-adv-x="1176"
                   d="M1134 733q-134 -243 -305 -243q-85 0 -247 75.5t-238 75.5q-75 0 -135 -64q-35 -38 -93 -138l-80 98q68 115 123 168q85 82 188 82q81 0 255.5 -76t226.5 -76q128 0 231 194z"/>
            <glyph unicode="&#xa4;" horiz-adv-x="780"
                   d="M709 1061q0 -134 -94 -227.5t-228 -93.5q-133 0 -226.5 93.5t-93.5 227.5q0 135 93 228t227 93q135 0 228.5 -93t93.5 -228zM620 1062q0 98 -67.5 165.5t-165.5 67.5t-165.5 -67.5t-67.5 -165.5q0 -97 68 -165t165 -68t165 68t68 165z"/>
            <glyph unicode="&#xa7;" horiz-adv-x="1069"
                   d="M895 314q0 -210 -222 -343q123 -124 123 -254q0 -112 -65 -192q-78 -95 -219 -95q-98 0 -173 62q-79 66 -79 163q0 35 22 62t56 27q75 0 75 -88q0 -15 -10.5 -38t-10.5 -40q0 -14 5 -31q21 -78 121 -78q176 0 176 165q0 112 -133 228l-247 201q-133 129 -133 273 q0 207 221 340q-75 83 -87 103q-37 61 -37 157q0 120 82.5 201.5t202.5 81.5q99 0 173 -60q80 -64 80 -161q0 -90 -79 -90q-33 0 -55.5 22t-22.5 55q0 16 6.5 47.5t6.5 48.5q0 95 -109 95q-74 0 -124.5 -50.5t-50.5 -124.5q0 -104 131 -218l245 -202q131 -129 131 -267z M793 221q0 113 -134 237l-225 187q-151 -91 -151 -223q0 -116 132 -238l225 -184q153 93 153 221z"/>
            <glyph unicode="&#xa8;" horiz-adv-x="843"
                   d="M668 903q0 -109 -76.5 -185.5t-185.5 -76.5t-185.5 76.5t-76.5 185.5q0 110 76 186.5t186 76.5q109 0 185.5 -77t76.5 -186z"/>
            <glyph unicode="&#xad;" horiz-adv-x="919" d="M772 413h-624v110h624v-110z"/>
            <glyph unicode="&#xb0;" horiz-adv-x="1088"
                   d="M1039 1106h-138v-1820h-76v1820h-195v-1820h-76v1089q-210 0 -343 88q-158 105 -158 309q0 192 149 298q130 93 321 93h516v-57z"/>
            <glyph unicode="&#xb6;" horiz-adv-x="1263" d="M1185 376h-83v339h-1045v85h1128v-424z"/>
            <glyph unicode="&#xb7;" horiz-adv-x="1264"
                   d="M1143 125q2 -49 -29 -86t-78 -39q-44 -2 -78.5 34.5t-36.5 87.5q-2 50 30.5 85t78.5 37q47 2 79 -31.5t34 -87.5zM757 125q2 -49 -29 -86t-78 -39q-44 -2 -78.5 34.5t-36.5 87.5q-2 50 30.5 85t78.5 37q47 2 79 -31.5t34 -87.5zM371 125q2 -49 -29 -86t-78 -39 q-45 -2 -79.5 34.5t-36.5 87.5q-2 50 31 85t79 37q47 2 79 -31.5t34 -87.5z"/>
            <glyph unicode="&#xd7;" horiz-adv-x="1754" d="M1627 754h-1511v125h1511v-125z"/>
            <glyph unicode="&#x2dd;"/>
            <glyph unicode="&#x901;" horiz-adv-x="6"
                   d="M-418 1951h-193v169h193v-169zM-37 1982q0 -184 -123 -294q-128 -113 -354 -113q-225 0 -357.5 111.5t-132.5 295.5h232q0 -241 272 -241q235 0 235 214q0 9 -1 27h229z"/>
            <glyph unicode="&#x902;" horiz-adv-x="6" d="M-124 1674h-283v262h283v-262z"/>
            <glyph unicode="&#x903;" horiz-adv-x="602"
                   d="M636 1244h-636v189h636v-189zM464 772h-286v271h286v-271zM464 192h-286v272h286v-272z"/>
            <glyph unicode="&#x905;" horiz-adv-x="1651"
                   d="M1685 1244h-175v-1244h-246v602q-41 -21 -82 -22q-67 -2 -116 22q20 -70 20 -110q0 -169 -129.5 -284t-306.5 -115q-171 0 -335 146q-119 107 -219 275q-79 132 -79 156l206 85q-4 -9 59 -123q76 -136 158 -222q113 -119 216 -119q91 0 139 62q44 56 45 147 q2 211 -252 211q-47 0 -88 -7l-82 181q11 -2 32 -2q97 0 166 34q108 52 108 171q0 161 -153 161q-78 0 -180 -76q-89 -67 -89 -85l-169 130q20 40 123 111q154 107 324 107q159 0 263 -88q107 -91 107 -231q0 -166 -139 -260q8 0 76 -30q81 -37 122 -69q23 -18 65 -18 q79 0 190 54v450h-215v189h636v-189z"/>
            <glyph unicode="&#x906;" horiz-adv-x="2225"
                   d="M2253 1244h-181v-1244h-246v1244h-288v-1244h-246v602q-41 -21 -82 -22q-29 -1 -87 9q-50 9 -57 13q20 -70 20 -110q0 -169 -129.5 -284t-306.5 -115q-171 0 -335 146q-119 107 -219 275q-79 132 -79 156l206 85q-4 -9 59 -123q76 -136 158 -222q113 -119 216 -119 q91 0 139 62q44 56 45 147q2 211 -252 211q-47 0 -88 -7l-82 181q11 -2 32 -2q97 0 166 34q108 52 108 171q0 161 -153 161q-78 0 -180 -76q-89 -67 -89 -85l-169 130q20 40 123 111q154 107 324 107q159 0 263 -88q107 -91 107 -231q0 -166 -139 -260q8 0 76 -30 q81 -37 122 -69q23 -18 71 -18q101 0 212 54v450h-243v189h1204v-189z"/>
            <glyph unicode="&#x907;" horiz-adv-x="1159"
                   d="M1249 1244h-277v-356h-531q-43 0 -43 -44q0 -29 32 -72q51 -68 72 -87q30 -26 66 -26t144 34q80 25 146 25q213 0 213 -249q0 -144 -83 -255q-61 -82 -157 -136q-74 -41 -96 -38q43 -32 141 -99q131 -81 190 -111l-113 -183q-137 87 -289 214q-46 38 -166 153q4 0 -39 -3 t-69 -3q-99 0 -168 51q-75 55 -75 142q0 64 45.5 105.5t118.5 41.5q85 0 175 -77q74 -63 74 -79q7 -3 29 -3q91 0 162 42q106 64 106 202q0 77 -66 77q-30 0 -101.5 -20t-101.5 -21q-166 -5 -317 170q-135 157 -135 280q0 64 48 106q45 38 104 38h461v181h-749v189h1249 v-189z"/>
            <glyph unicode="&#x908;" horiz-adv-x="1159"
                   d="M1249 1244h-277v-356h-531q-43 0 -43 -44q0 -29 32 -72q51 -68 72 -87q30 -26 66 -26t144 34q80 25 146 25q213 0 213 -249q0 -144 -83 -255q-61 -82 -157 -136q-74 -41 -96 -38q43 -32 141 -99q131 -81 190 -111l-113 -183q-137 87 -289 214q-46 38 -166 153q4 0 -39 -3 t-69 -3q-99 0 -168 51q-75 55 -75 142q0 64 45.5 105.5t118.5 41.5q85 0 175 -77q74 -63 74 -79q7 -3 29 -3q91 0 162 42q106 64 106 202q0 77 -66 77q-30 0 -101.5 -20t-101.5 -21q-166 -5 -317 170q-135 157 -135 280q0 64 48 106q45 38 104 38h461v181h-749v189h743 q-53 30 -112 123q-74 117 -74 233q0 150 99 234q85 72 209 72q85 0 187 -34v-142q-9 0 -48.5 11.5t-62.5 11.5q-75 0 -130 -37q-70 -49 -70 -144q0 -170 167 -328h341v-189z"/>
            <glyph unicode="&#x909;" horiz-adv-x="1521"
                   d="M1555 1244h-300q76 -85 79 -187q2 -84 -52 -167q-47 -72 -103 -101q223 -114 223 -342q0 -192 -131 -318q-127 -123 -313 -123q-233 0 -449 235q-155 169 -286 439q-101 207 -101 239l203 121q86 -245 178 -419q223 -420 444 -420q102 0 160 73q52 66 52 167 q0 91 -41 157q-46 75 -123 75h-277l-93 192h325q57 0 98 64q38 59 40 134q2 52 -28 112q-24 50 -48 69h-1012v189h1555v-189z"/>
            <glyph unicode="&#x90a;" horiz-adv-x="1874"
                   d="M1905 1244h-817q82 -86 82 -187q0 -85 -55 -168q-48 -74 -103 -100q52 -17 66 -22v0q10 -4 3 -4q-9 -1 -1 -5q17 -9 54 -40q29 45 119 95q105 58 197 58q140 0 232.5 -96t92.5 -244q0 -273 -232 -514l-172 122q16 0 95 129q92 151 92 266q0 63 -29 109q-33 52 -87 52 q-67 0 -144 -85q-63 -70 -63 -87q3 -31 3 -59q0 -164 -68 -276q-105 -174 -353 -174q-211 0 -387 219q-127 157 -222 407q-78 204 -69 222l183 119q60 -228 131 -390q171 -390 367 -390q189 0 189 240q0 91 -47 158q-51 74 -131 74h-189l-94 192h238q61 0 99.5 52.5 t38.5 145.5q0 122 -76 181h-848v189h1905v-189z"/>
            <glyph unicode="&#x90b;" horiz-adv-x="2038"
                   d="M2061 1244h-786v-455l206 84q-10 22 -10 50q0 66 45 122q49 60 112 60q65 0 113 -42.5t48 -104.5q0 -135 -84 -150l192 -268q-40 0 -137 -55q-134 -74 -135 -177q-1 -130 119 -130q64 0 132 39q51 29 58 43l87 -144q-26 -31 -91 -64q-99 -52 -211 -52q-131 0 -218.5 88 t-87.5 220q0 109 98 191q74 62 140 72l-108 156l-268 -133v-594h-243v464l-540 -379l-147 184l560 342q-212 262 -306 262q-39 0 -189 -76q-141 -73 -150 -87l-127 186q10 15 190 95q200 89 279 89q74 0 186 -89q80 -64 170 -165q74 -85 74 -91v509h-1032v189h2061v-189z "/>
            <glyph unicode="&#x90c;" horiz-adv-x="1719"
                   d="M1764 1244h-382v-274q225 -84 218 -348q-4 -150 -81 -265q-60 -88 -193 -190l-119 -84q-67 -56 -67 -113q0 -9 2 -18q14 -85 147 -85q21 0 42 3q85 11 172 76l77 70l94 -157l-92 -83q-117 -83 -256 -90q-141 -7 -253 62q-129 81 -132 224q-2 96 56 170q42 54 173 155 q222 172 210 319q-13 156 -145 156q-63 0 -116 -43q-103 -84 -158 -296l-201 98q6 20 40 102q17 37 42 79q-84 108 -231 108q-87 0 -147 -59q-68 -67 -68 -184q0 -137 93 -238q66 -73 173 -119q74 -33 96 -33l-113 -179q-25 0 -129 62q-139 83 -226 191q-120 149 -120 324 q0 180 127.5 303.5t310.5 123.5q199 0 339 -133q20 25 46 44q63 48 146 64v257h-1139v189h1764v-189z"/>
            <glyph unicode="&#x90d;" horiz-adv-x="1264"
                   d="M1264 1982q0 -183 -126 -294q-129 -113 -352 -113q-225 0 -357 111.5t-132 295.5h232q0 -241 271 -241q236 0 236 216q0 7 -1 25h229zM1303 1244h-192v-489q0 -82 -62 -136q-91 -79 -164 -79l-167 147q46 0 102 28q45 22 45 79v450h-416v-679l648 -548q11 -7 25 -42 q18 -46 17 -97q-2 -89 -81 -154q-72 -59 -152 -59q-11 0 -21 1l-144 133q147 0 164 62t-17 91l-682 574v718h-206v189h1303v-189z"/>
            <glyph unicode="&#x90e;" horiz-adv-x="1264"
                   d="M1303 1244h-192v-489q0 -82 -62 -136q-91 -79 -164 -79l-167 147q46 0 102 28q45 22 45 79v450h-416v-679l648 -548q11 -7 25 -42q18 -46 17 -97q-2 -89 -81 -154q-72 -59 -152 -59q-11 0 -21 1l-144 133q147 0 164 62t-17 91l-682 574v718h-206v189h927 q-28 135 -141 159l-207 33q-135 23 -220 68q-128 67 -128 261q0 68 15 132h124q-9 -42 -9 -75q0 -139 125 -176q66 -20 261 -48q117 -17 200 -82q116 -90 137 -272h219v-189z"/>
            <glyph unicode="&#x90f;" horiz-adv-x="1264"
                   d="M1303 1244h-192v-489q0 -82 -62 -136q-91 -79 -164 -79l-167 147q46 0 102 28q45 22 45 79v450h-416v-679l648 -548q11 -7 25 -42q18 -46 17 -97q-2 -89 -81 -154q-72 -59 -152 -59q-11 0 -21 1l-144 133q147 0 164 62t-17 91l-682 574v718h-206v189h1303v-189z"/>
            <glyph unicode="&#x910;" horiz-adv-x="1264"
                   d="M1303 1244h-192v-489q0 -82 -62 -136q-91 -79 -164 -79l-167 147q46 0 102 28q45 22 45 79v450h-416v-679l648 -548q11 -7 25 -42q18 -46 17 -97q-2 -89 -81 -154q-72 -59 -152 -59q-11 0 -21 1l-144 133q147 0 164 62t-17 91l-682 574v718h-206v189h883l-569 509 l181 147l556 -656h252v-189z"/>
            <glyph unicode="&#x911;" horiz-adv-x="2225"
                   d="M2168 1982q0 -183 -126 -294q-129 -113 -352 -113q-225 0 -357 111.5t-132 295.5h232q0 -241 272 -241q235 0 235 214q0 9 -1 27h229zM2253 1244h-181v-1244h-246v1244h-288v-1244h-246v602q-41 -21 -82 -22q-29 -1 -87 9q-50 9 -57 13q20 -70 20 -110 q0 -169 -129.5 -284t-306.5 -115q-171 0 -335 146q-119 107 -219 275q-79 132 -79 156l206 85q-4 -9 59 -123q76 -136 158 -222q113 -119 216 -119q91 0 139 62q44 56 45 147q2 211 -252 211q-47 0 -88 -7l-82 181q11 -2 32 -2q97 0 166 34q108 52 108 171q0 161 -153 161 q-78 0 -180 -76q-89 -67 -89 -85l-169 130q20 40 123 111q154 107 324 107q159 0 263 -88q107 -91 107 -231q0 -166 -139 -260q8 0 76 -30q81 -37 122 -69q23 -18 71 -18q101 0 212 54v450h-243v189h1204v-189z"/>
            <glyph unicode="&#x912;" horiz-adv-x="2225"
                   d="M2253 1244h-181v-1244h-246v1244h-288v-1244h-246v602q-41 -21 -82 -22q-29 -1 -87 9q-50 9 -57 13q20 -70 20 -110q0 -169 -129.5 -284t-306.5 -115q-171 0 -335 146q-119 107 -219 275q-79 132 -79 156l206 85q-4 -9 59 -123q76 -136 158 -222q113 -119 216 -119 q91 0 139 62q44 56 45 147q2 211 -252 211q-47 0 -88 -7l-82 181q11 -2 32 -2q97 0 166 34q108 52 108 171q0 161 -153 161q-78 0 -180 -76q-89 -67 -89 -85l-169 130q20 40 123 111q154 107 324 107q159 0 263 -88q107 -91 107 -231q0 -166 -139 -260q8 0 76 -30 q81 -37 122 -69q23 -18 71 -18q101 0 212 54v450h-243v189h839q-28 135 -141 159l-207 33q-135 23 -220 68q-128 67 -128 261q0 68 15 132h124q-9 -42 -9 -75q0 -139 125 -176q66 -20 261 -48q117 -17 200 -82q116 -90 137 -272h208v-189z"/>
            <glyph unicode="&#x913;" horiz-adv-x="2225"
                   d="M2253 1244h-181v-1244h-246v1244h-288v-1244h-246v602q-41 -21 -82 -22q-29 -1 -87 9q-50 9 -57 13q20 -70 20 -110q0 -169 -129.5 -284t-306.5 -115q-171 0 -335 146q-119 107 -219 275q-79 132 -79 156l206 85q-4 -9 59 -123q76 -136 158 -222q113 -119 216 -119 q91 0 139 62q44 56 45 147q2 211 -252 211q-47 0 -88 -7l-82 181q11 -2 32 -2q97 0 166 34q108 52 108 171q0 161 -153 161q-78 0 -180 -76q-89 -67 -89 -85l-169 130q20 40 123 111q154 107 324 107q159 0 263 -88q107 -91 107 -231q0 -166 -139 -260q8 0 76 -30 q81 -37 122 -69q23 -18 71 -18q101 0 212 54v450h-243v189h851l-569 509l181 147l557 -656h184v-189z"/>
            <glyph unicode="&#x914;" horiz-adv-x="2225"
                   d="M2253 1244h-181v-1244h-246v1244h-288v-1244h-246v602q-41 -21 -82 -22q-29 -1 -87 9q-50 9 -57 13q20 -70 20 -110q0 -169 -129.5 -284t-306.5 -115q-171 0 -335 146q-119 107 -219 275q-79 132 -79 156l206 85q-4 -9 59 -123q76 -136 158 -222q113 -119 216 -119 q91 0 139 62q44 56 45 147q2 211 -252 211q-47 0 -88 -7l-82 181q11 -2 32 -2q97 0 166 34q108 52 108 171q0 161 -153 161q-78 0 -180 -76q-89 -67 -89 -85l-169 130q20 40 123 111q154 107 324 107q159 0 263 -88q107 -91 107 -231q0 -166 -139 -260q8 0 76 -30 q81 -37 122 -69q23 -18 71 -18q101 0 212 54v450h-243v189h593l-412 246l101 192l460 -438h193l-480 560l220 116l384 -676h145v-189z"/>
            <glyph unicode="&#x915;" horiz-adv-x="1769"
                   d="M1806 1244h-763v-342q-3 0 30 27q39 32 84 51q65 27 138 26q157 -1 268 -111t111 -267q0 -125 -74 -262q-52 -98 -137 -192q-67 -75 -75 -75l-178 136q7 0 59 54q66 67 107 138q57 98 57 189q0 201 -167 201q-91 0 -166 -83q-57 -64 -57 -87v-647h-243v339 q-116 -76 -237 -76q-175 0 -289 110q-119 115 -119 305q0 269 245 366q110 44 247 44l54 -192q-314 6 -314 -212q0 -104 52 -163.5t138 -59.5q91 0 166 65q57 51 57 68v650h-800v189h1806v-189z"/>
            <glyph unicode="&#x916;" horiz-adv-x="1888"
                   d="M1914 1244h-181v-1244h-246v205q-258 -146 -532 -146q-288 0 -501 203q-158 151 -257 392q-73 177 -73 256l178 99q-1 -3 -1 -9q0 -44 36 -107q43 -76 96 -76q77 0 94 54q4 15 4 110v263h-531v189h1914v-189zM1487 1244h-715v-348q0 -98 -23.5 -145.5t-87.5 -86.5 q-41 -25 -119 -27q67 2 -73 2q0 -26 45 -115q64 -126 162 -205q137 -110 319 -110q233 0 492 184v145q-107 -69 -212 -69q-157 0 -256 87q-102 89 -100 233q2 137 106 228q100 88 239 88q57 0 101 -11l54 -153q7 0 -38.5 5.5t-71.5 3.5q-62 -4 -106 -46q-47 -45 -47 -110 q0 -68 41 -110t115 -42q86 0 175 82v520z"/>
            <glyph unicode="&#x917;" horiz-adv-x="1391"
                   d="M1405 1244h-209v-1244h-246v1244h-337v-704q0 -122 -90 -122q-55 0 -214 125.5t-159 174.5q0 33 26 56t59 23h130v447h-365v189h1405v-189z"/>
            <glyph unicode="&#x918;" horiz-adv-x="1498"
                   d="M1518 1244h-181v-1244h-246v360q-209 -111 -404 -111q-168 0 -299 91q-142 99 -142 248q0 146 147 237q-97 23 -153 96t-56 173q0 80 45 150h-229v189h1518v-189zM1091 597v647h-627q-57 -45 -57 -127q0 -66 53 -110q50 -43 120 -43h223l90 -178h-198q-77 0 -136 -49 t-59 -121q0 -80 66 -133q63 -50 149 -50q112 0 227 58q90 45 149 106z"/>
            <glyph unicode="&#x919;" horiz-adv-x="1732"
                   d="M1654 780h-243v221h243v-221zM1770 1244h-521v-351h-503q-41 0 -41 -27q0 -14 13 -35q28 -44 79 -94q69 -67 113 -67q61 0 151.5 32.5t139.5 32.5q91 0 142 -88q45 -77 45 -192q0 -234 -168 -345q-121 -80 -287 -79q-207 1 -425 160q-158 115 -302 297q-116 146 -116 168 l156 144q0 -16 101 -158q126 -176 256 -287q180 -154 338 -154q100 0 157.5 68t57.5 186q0 86 -52 86q-14 0 -30 -7q-123 -56 -226 -56q-96 0 -241 146q-157 157 -158 300q-1 59 42 100.5t103 41.5h418v178h-1012v189h1770v-189z"/>
            <glyph unicode="&#x91a;" horiz-adv-x="1529"
                   d="M1546 1244h-181v-1244h-246v438q-62 -64 -163 -114q-129 -64 -255 -64q-162 0 -264.5 88t-102.5 229q0 102 64 200q44 68 83 94h-342v183h842v-181h-201q-24 0 -108 -85q-101 -104 -101 -200q0 -147 153 -147q137 0 270 128q73 70 125 156v519h-1119v189h1546v-189z"/>
            <glyph unicode="&#x91b;" horiz-adv-x="1633"
                   d="M1659 1244h-339v-181q47 0 109 -48q106 -83 106 -260q0 -257 -259 -486.5t-549 -228.5q-204 1 -343 114q-155 125 -155 338q0 165 150 285q-55 8 -131 77q-101 92 -101 212q0 93 68 178h-215v189h1659v-189zM1303 763q0 62 -28 103q-31 44 -82 44q-107 0 -107 -161 q0 -152 110 -246q20 8 59 82q48 92 48 178zM1094 1071v173h-645q-10 0 -33 -44q-30 -58 -29 -129q2 -103 92 -144q46 -22 95 -22h133l51 -178h-102q-84 0 -138 -69t-54 -163q0 -113 77 -189.5t186 -76.5q102 0 214 53q91 43 113 74q-18 0 -92 130q-89 158 -89 300 q0 226 221 285z"/>
            <glyph unicode="&#x91c;" horiz-adv-x="1758"
                   d="M1772 1244h-180v-1244h-246v780h-300q68 -136 68 -217q0 -152 -103.5 -261.5t-250.5 -109.5q-306 0 -508 364q-85 151 -142 363l195 124q-12 -6 44 -175q64 -193 148 -318q113 -171 238 -171q143 0 141 175q-1 125 -99 279q-82 131 -101 131h670v280h-1346v189h1772v-189 z"/>
            <glyph unicode="&#x91d;" horiz-adv-x="1665"
                   d="M1688 1244h-181v-1244h-246v506q-50 -6 -74 -6q-72 0 -152 40q0 -133 -71 -240q-42 -63 -149 -124q-84 -48 -114 -52l107 -65l116 -65l-138 -147q-13 0 -173 108q-111 75 -152 121q-25 -5 -82 -5q-103 0 -174 48q-81 55 -81 152q0 54 41.5 92t97.5 38q57 0 157 -69 q89 -62 89 -72q2 -1 9 -1q77 0 164 42q126 62 126 177q0 73 -75 73q-32 0 -113.5 -18.5t-116.5 -18.5q-92 0 -218 155q-124 152 -124 258q0 63 46 108t110 45h398v164h-715v189h1688v-189zM1261 1244h-325v-348h-467q-36 0 -36 -28q0 -24 31 -65q74 -98 140 -98q41 0 111 22 q53 17 101 17q88 0 202 -66q35 -20 82 -20q65 0 161 43v543z"/>
            <glyph unicode="&#x91e;" horiz-adv-x="1606"
                   d="M1631 1244h-181v-1244h-246v583q-42 -18 -79 -18q-31 0 -86 11.5t-50 11.5q0 -80 -91 -186q-128 -150 -347 -150q-199 0 -452 181l133 161q12 -30 94 -87q109 -77 217 -77q101 0 162 77.5t58 193.5q-3 94 -57 146q-50 49 -132 49q-55 0 -147 -48l-139 178q108 54 269 54 q182 0 311 -93q136 -98 136 -246q-1 0 42 -3t65 -3q44 0 93 29v480h-1204v189h1631v-189z"/>
            <glyph unicode="&#x91f;" horiz-adv-x="1364"
                   d="M1385 1244h-283v-413h-522q-82 0 -133 -62t-51 -158q0 -150 130 -271q125 -117 268 -117q84 0 174 56q99 61 143 154l187 -131q-184 -262 -509 -262q-258 0 -447 177t-189 422q0 166 109 271q106 102 264 102h345v232h-871v189h1385v-189z"/>
            <glyph unicode="&#x920;" horiz-adv-x="1389"
                   d="M1411 1244h-309v-413h-522q-82 0 -133 -62t-51 -158q0 -147 138 -271q129 -117 260 -117q97 0 171 50q92 63 92 182q0 144 -93 215l161 133q150 -129 150 -317q0 -200 -150 -327q-140 -119 -336 -119q-232 0 -431 177q-207 184 -205 422q2 167 110 271q105 102 263 102 h345v232h-871v189h1411v-189z"/>
            <glyph unicode="&#x921;" horiz-adv-x="1523"
                   d="M1546 1244h-248v-351h-535q-41 0 -41 -27q0 -14 13 -35q28 -44 79 -94q69 -67 113 -67q61 0 156 32.5t144 32.5q91 0 142 -88q44 -77 44 -192q0 -234 -168 -345q-121 -79 -287 -79q-207 0 -424 159q-158 115 -303 298q-115 145 -115 168l155 144q0 -16 101 -158 q127 -176 257 -287q181 -154 341 -154q100 0 156 67.5t56 186.5q0 86 -50 86q-14 0 -30 -7q-123 -56 -237 -56q-96 0 -240 146q-156 157 -156 300q0 57 42.5 99.5t99.5 42.5h452v178h-1063v189h1546v-189z"/>
            <glyph unicode="&#x922;" horiz-adv-x="1389"
                   d="M1413 1244h-288v-413h-517q-87 0 -151 -62.5t-64 -149.5q0 -146 133 -283q117 -121 198 -121q-63 86 -63 203q0 119 92 201t217 82q128 0 223.5 -84t95.5 -207q0 -179 -147 -291q-134 -102 -317 -102q-271 0 -476 202q-194 190 -194 411q0 157 111 269.5t268 112.5h345 v232h-879v189h1413v-189zM1066 401q0 51 -32 90.5t-79 39.5q-49 0 -81 -41t-32 -94q0 -58 27 -109.5t64 -68.5q51 7 92 60t41 123z"/>
            <glyph unicode="&#x923;" horiz-adv-x="1637"
                   d="M1659 1244h-181v-1244h-245v1244h-261v-529q0 -133 -117 -239t-270 -106q-163 0 -284 112q-114 106 -114 233v529h-187v189h1659v-189zM727 715v529h-294v-529q0 -152 152 -152q142 0 142 152z"/>
            <glyph unicode="&#x924;" horiz-adv-x="1382"
                   d="M1405 1244h-181v-1244h-246v817h-492q-116 0 -116 -127q0 -116 94 -257q70 -104 178 -205q90 -84 104 -84l-166 -144q-12 0 -118 110q-129 133 -211 264q-112 180 -112 321q0 160 104 243q76 60 164 60h571v246h-978v189h1405v-189z"/>
            <glyph unicode="&#x925;" horiz-adv-x="1521"
                   d="M1546 1244h-181v-1244h-246v415q-192 -161 -469 -161q-288 0 -473 191q-157 163 -154 344q116 -34 226 -34q136 0 229 65q110 77 110 220q0 235 -192 235q-125 0 -125 -110q0 -44 40 -75q37 -29 76 -27v-161q-8 -1 -20 -1q-100 0 -188 53q-125 75 -125 225q0 125 104 205 q99 76 238 75q180 -1 309 -130t129 -309q0 -179 -142 -312q-137 -128 -308 -128q88 -142 277 -142q143 0 291 109q100 75 167 166v531h-214v189h641v-189z"/>
            <glyph unicode="&#x926;" horiz-adv-x="1389"
                   d="M1419 1244h-300v-396h-545q-66 0 -117 -50q-56 -53 -56 -134q0 -265 424 -265q0 226 193 226q70 0 122.5 -48t52.5 -122q0 -134 -127 -206q0 -9 51 -127q26 -61 48 -96q17 -25 17 -23l-221 -51q0 -2 -9 16q-14 27 -33 86q-31 95 -34 152q-25 -1 -56 -1q-238 0 -410 74 q-280 120 -280 408q0 151 110 252q103 96 243 96h379v209h-871v189h1419v-189z"/>
            <glyph unicode="&#x927;" horiz-adv-x="1391"
                   d="M1405 1244h-181v-1244h-246v353q-179 -133 -424 -133q-167 0 -275 88q-115 94 -115 255q0 129 127 226q-9 0 -62 45q-69 59 -112 132q-60 101 -60 213q0 143 94 216q81 64 214 64q143 0 229 -89q79 -83 79 -208q0 -22 -3 -45h-181q3 19 3 42q0 136 -105 136 q-110 0 -110 -136q0 -186 164 -288q-14 0 56 18t156 18q70 0 88 -2l76 -159q-30 3 -68 3q-348 0 -348 -195q0 -158 187 -158q207 0 390 188v660h-215v189h642v-189z"/>
            <glyph unicode="&#x928;" horiz-adv-x="1391"
                   d="M1405 1244h-181v-1244h-246v707h-424v-178q0 -54 -5 -66q-14 -36 -74 -36q-64 0 -193 154q-127 151 -127 219q0 62 46 91q27 16 53 16h724v337h-978v189h1405v-189z"/>
            <glyph unicode="&#x929;" horiz-adv-x="1382"
                   d="M1405 1244h-181v-1244h-246v707h-424v-178q0 -54 -5 -66q-14 -36 -74 -36q-64 0 -193 154q-127 151 -127 219q0 62 46 91q27 16 53 16h724v337h-978v189h1405v-189zM494 29h-229v221h229v-221z"/>
            <glyph unicode="&#x92a;" horiz-adv-x="1269"
                   d="M1292 1244h-181v-1244h-246v537q-138 -76 -254 -76q-196 0 -316 112q-108 102 -108 244v427h-187v189h1292v-189zM865 765v479h-435v-396q0 -209 189 -209q136 0 246 126z"/>
            <glyph unicode="&#x92b;" horiz-adv-x="1769"
                   d="M1798 1244h-780v-283q114 76 237 76q161 0 272 -97q115 -100 115 -253q0 -136 -72 -273q-53 -101 -137 -189q-66 -69 -82 -72l-192 133q9 0 63 50q71 65 115 141q62 105 62 216q0 69 -41.5 113.5t-108.5 44.5q-88 0 -165 -72q-66 -61 -66 -101v-678h-246v478 q-99 -71 -215 -71q-226 0 -325 165q-62 103 -62 231v441h-170v189h1798v-189zM772 727v517h-362v-450q0 -101 22 -143q34 -66 136 -66q61 0 134 59q65 53 70 83z"/>
            <glyph unicode="&#x92c;" horiz-adv-x="1269"
                   d="M1292 1244h-181v-1244h-246v342q-153 -85 -314 -85q-174 0 -303 106q-143 119 -143 310t149 301q131 97 320 97q113 0 186 -22l23 -167q-83 23 -175 23q-110 0 -173 -48l430 -265v652h-865v189h1292v-189zM823 492l-458 285q-31 -37 -31 -116q0 -110 80 -173 q75 -58 191 -58q69 0 149.5 31t68.5 31z"/>
            <glyph unicode="&#x92d;" horiz-adv-x="1413"
                   d="M1433 1244h-181v-1244h-246v582h-316v-192q0 -79 -94 -79q-48 0 -223 159q-178 162 -178 220q0 87 91 87h169v402q0 107 -113 107q-102 0 -102 -107q0 -37 13 -74t13 -31h-173q-28 67 -28 127q0 130 85 199q78 64 212 64q145 0 236.5 -77t91.5 -203v-407h316v467h-214 v189h641v-189z"/>
            <glyph unicode="&#x92e;" horiz-adv-x="1360"
                   d="M1377 1244h-181v-1244h-246v625h-379v-153q0 -93 -76 -93q-64 0 -217.5 142.5t-153.5 205.5q0 50 44 72q25 12 47 12h119v433h-334v189h1377v-189zM950 1244h-379v-433h379v433z"/>
            <glyph unicode="&#x92f;" horiz-adv-x="1391"
                   d="M1405 1244h-181v-1244h-246v335q-144 -69 -274 -69q-257 0 -409 153q-151 150 -151 398q28 -4 62 -4q266 0 266 207q0 64 -41 142q-35 65 -61 82h-370v189h1405v-189zM978 1244h-365q97 -131 97 -257q0 -208 -147 -294q-61 -35 -147 -43q34 -212 262 -212q154 0 300 116 v690z"/>
            <glyph unicode="&#x930;" horiz-adv-x="1155"
                   d="M1179 1244h-243v-351q0 -128 -96 -198q-85 -62 -246 -62q0 -4 59 -88q64 -94 105 -144q59 -72 157 -174q87 -90 94 -94l-178 -147l-137 157q-159 189 -276 357l-193 289q-95 148 -95 152l187 122q0 -30 73 -124q94 -122 204 -122q99 0 99 110v317h-693v189h1179v-189z "/>
            <glyph unicode="&#x931;" horiz-adv-x="1155"
                   d="M1179 1244h-243v-351q0 -128 -96 -198q-85 -62 -246 -62q0 -4 59 -88q64 -94 105 -144q59 -72 157 -174q87 -90 94 -94l-178 -147l-137 157q-159 189 -276 357l-193 289q-95 148 -95 152l187 122q0 -30 73 -124q94 -122 204 -122q99 0 99 110v317h-693v189h1179v-189z M409 29h-229v221h229v-221z"/>
            <glyph unicode="&#x932;" horiz-adv-x="1665"
                   d="M1688 1244h-181v-1244h-246v776q-121 -31 -187 -115q-47 -60 -80 -141q-24 -62 -24 -82l-198 85q0 13 39 107q7 16 27 49q19 30 19 31q-14 29 -62 61q-76 52 -176 49q-212 -6 -212 -232q0 -119 106 -228q77 -77 199 -141q93 -49 108 -49l-110 -187q-24 0 -147 69 q-159 89 -260 201q-139 155 -139 327q0 219 137 332q118 97 307 97q119 0 235 -54q96 -45 144 -101q64 50 118.5 73t155.5 40v277h-1261v189h1688v-189z"/>
            <glyph unicode="&#x933;" horiz-adv-x="1659"
                   d="M1685 1244h-399v-249q280 -112 280 -430q0 -198 -109 -329q-110 -134 -284 -134q-226 0 -331 206q-105 -201 -325 -201q-176 0 -281.5 125t-105.5 331q0 192 107 318q111 129 286 128q214 -2 325 -189q29 57 88 107q81 68 113 68v249h-1049v189h1685v-189zM1334 563 q0 271 -183 271q-85 0 -153 -127q-51 -96 -51 -130q-3 -13 18 -82q27 -86 70 -141q58 -74 135 -74q87 0 130 94q34 75 34 189zM741 585q9 46 -53 140q-71 109 -157 109t-134 -89q-41 -75 -41 -182q0 -272 167 -272q81 0 139 72q43 54 66 137q20 69 13 85z"/>
            <glyph unicode="&#x934;" horiz-adv-x="1659"
                   d="M1685 1244h-399v-249q280 -112 280 -430q0 -198 -109 -329q-110 -134 -284 -134q-226 0 -331 206q-105 -201 -325 -201q-176 0 -281.5 125t-105.5 331q0 192 107 318q111 129 286 128q214 -2 325 -189q29 57 88 107q81 68 113 68v249h-1049v189h1685v-189zM1334 563 q0 271 -183 271q-85 0 -153 -127q-51 -96 -51 -130q-3 -13 18 -82q27 -86 70 -141q58 -74 135 -74q87 0 130 94q34 75 34 189zM741 585q9 46 -53 140q-71 109 -157 109t-134 -89q-41 -75 -41 -182q0 -272 167 -272q81 0 139 72q43 54 66 137q20 69 13 85zM946 -169h-229v221 h229v-221z"/>
            <glyph unicode="&#x935;" horiz-adv-x="1266"
                   d="M1292 1244h-181v-1244h-246v383q-138 -78 -283 -78q-191 0 -314 93q-138 105 -138 295q0 166 128 268q120 96 299 96q92 0 164 -22l37 -181q-65 42 -159 42q-95 0 -157 -53q-66 -57 -66 -153q0 -215 232 -215q138 0 257 123v646h-865v189h1292v-189z"/>
            <glyph unicode="&#x936;" horiz-adv-x="1674"
                   d="M1688 1244h-181v-1244h-246v1244h-334q99 -122 99 -266q0 -323 -230 -461q-97 -57 -231 -73l156 -127q97 -76 206 -153l-141 -181q-111 74 -356 294q-74 67 -184 176q-99 98 -99 101l155 156l91 -85q44 -14 107 -14q228 0 258 243q-122 -46 -193 -46q-149 0 -245 75 q-102 81 -102 222q0 76 53 139h-271v189h1688v-189zM777 1080q-35 178 -206 178q-55 0 -94 -41.5t-39 -97.5q0 -64 47 -103q44 -38 114 -38q126 0 178 102z"/>
            <glyph unicode="&#x937;" horiz-adv-x="1249"
                   d="M1264 1244h-181v-1244h-246v464q-124 -63 -238 -63q-172 0 -298 116t-126 283v444h-175v189h1264v-189zM837 1244h-419l419 -419v419zM817 664l-401 402v-297q0 -77 57.5 -130.5t137.5 -53.5q113 0 206 79z"/>
            <glyph unicode="&#x938;" horiz-adv-x="1611"
                   d="M1631 1244h-181v-1244h-246v650h-215l-132 184h347v410h-362v-351q0 -145 -93 -206q-38 -25 -111 -42q-54 -12 -73 -12q0 -3 60 -88q66 -94 107 -144l218 -246l-192 -141q-88 107 -365 486q-83 119 -179 281q-81 137 -81 143l184 119q0 -21 57 -114q67 -112 126 -112 q99 0 99 110v317h-599v189h1631v-189z"/>
            <glyph unicode="&#x939;" horiz-adv-x="1278"
                   d="M1300 1244h-226v-359h-625q-46 0 -46 -41q0 -24 27 -55q95 -111 118 -111q-11 0 61 13t137 13q163 0 278 -68q132 -78 132 -212q0 -155 -138 -237l-178 113q84 27 84 118q0 105 -192 105q-131 0 -214 -56q-88 -61 -88 -165q0 -116 125 -194q92 -58 235 -87 q119 -24 134 -15l-73 -164q-24 -10 -178 31q-194 51 -317 144q-169 128 -169 317q0 105 83 200q66 74 86 74q-25 0 -110 101q-99 119 -99 218q0 57 43 96.5t101 39.5h551v181h-842v189h1300v-189z"/>
            <glyph unicode="&#x93c;" d="M-500 -249h-229v201h229v-201z"/>
            <glyph unicode="&#x93d;" horiz-adv-x="1182"
                   d="M1086 384q0 -177 -117 -282q-122 -108 -336 -108q-191 0 -386 131q-146 99 -171 155l142 153q0 -25 154 -140q174 -129 284 -129q91 0 140 62q44 55 44 144q0 83 -88 170l-187 164l-287 244q-103 104 -103 253q0 80 56 152q63 80 148 80h647v-189h-571q-9 0 -28 -14 q-26 -21 -26 -51q0 -48 119 -150l221 -187l234 -216q111 -121 111 -242z"/>
            <glyph unicode="&#x93e;" horiz-adv-x="602" d="M642 1244h-181v-1244h-246v1244h-215v189h642v-189z"/>
            <glyph unicode="&#x93f;" horiz-adv-x="602"
                   d="M1611 1416h-251q-367 481 -682 481q-296 0 -296 -269q0 -86 24 -148.5t24 -46.5h212v-189h-181v-1244h-246v1244h-215v189h220q0 -13 -29.5 64.5t-29.5 153.5q0 217 145 327q135 103 378 103q295 0 641 -332q143 -139 286 -333z"/>
            <glyph unicode="&#x940;" horiz-adv-x="602"
                   d="M642 1244h-181v-1244h-246v1244h-215v189h220q0 33 -30 133q-44 151 -119 245q-104 131 -252 131q-90 0 -146.5 -52t-56.5 -140q0 -91 64 -218q54 -108 74 -116h-237q-128 171 -128 348q0 161 102.5 253t279.5 92q260 0 435 -175q126 -125 196 -324q45 -129 45 -177h195 v-189z"/>
            <glyph unicode="&#x941;"
                   d="M71 -302q0 -187 -160 -286q-134 -82 -332 -82q-318 0 -534 263l127 136q140 -210 395 -210q98 0 174 46.5t95 123.5q4 17 4 34q0 107 -132 107q-13 0 -27 -2q-61 -7 -110 -48q-37 -32 -37 -43l-145 144q0 22 71 72q99 70 243 70q153 0 259 -91q109 -94 109 -234z"/>
            <glyph unicode="&#x942;"
                   d="M274 -568l-201 -93q5 21 -25 132q-38 144 -106 234q-93 125 -228 125q-65 0 -112 -35q-51 -38 -51 -95q0 -50 39 -83t91 -33q64 0 107 29l93 -161q-85 -46 -217 -46q-135 0 -234 87q-103 90 -103 221q0 142 115 223q109 77 287 77q196 0 337 -148q102 -106 165 -277 q43 -117 43 -157z"/>
            <glyph unicode="&#x943;"
                   d="M-17 -571q-136 -76 -317 -76q-177 0 -292 79q-129 88 -129 246q0 174 118 257q92 65 227 65h269v-170h-241q-72 0 -113 -42q-36 -39 -36 -96q0 -93 73 -137q55 -33 133 -33q95 0 215 60z"/>
            <glyph unicode="&#x944;"
                   d="M110 -605q-136 -68 -263 -68q-356 0 -356 229q0 110 88 158q-173 39 -173 173q0 202 379 212l79 -130q-251 -13 -251 -113q0 -31 24 -58t55 -27q68 20 136 20q24 0 54 -1.5l30 -1.5l63 -141q-88 8 -130 8q-142 0 -142 -96q0 -88 153 -88q45 0 109 22q48 16 63 26z"/>
            <glyph unicode="&#x945;"
                   d="M-37 1982q0 -183 -125 -294q-129 -113 -352 -113q-225 0 -357.5 111.5t-132.5 295.5h232q0 -241 272 -241q235 0 235 214q0 9 -1 27h229z"/>
            <glyph unicode="&#x946;"
                   d="M-158 1416h-156l-24 80q-39 79 -120 96l-207 33q-135 23 -220 68q-128 67 -128 261q0 68 15 132h125q-9 -43 -9 -76q0 -138 124 -175q66 -20 261 -48q117 -17 200 -82q80 -62 117 -180q22 -68 22 -109z"/>
            <glyph unicode="&#x947;" d="M-150 1416h-164l-588 526l181 147z"/>
            <glyph unicode="&#x948;" d="M-172 1416h-119l-495 577l221 116zM-481 1416h-138l-441 263l102 192z"/>
            <glyph unicode="&#x949;" horiz-adv-x="602"
                   d="M811 1982q0 -183 -125 -294q-129 -113 -352 -113q-225 0 -357 111.5t-132 295.5h231q0 -241 272 -241q235 0 235 214q0 9 -1 27h229zM642 1244h-181v-1244h-246v1244h-215v189h642v-189z"/>
            <glyph unicode="&#x94a;" horiz-adv-x="602"
                   d="M642 1244h-181v-1244h-246v1244h-215v189h276q-28 135 -140 159l-207 33q-135 23 -220 68q-128 67 -128 261q0 68 15 132h124q-9 -42 -9 -75q0 -139 125 -176q66 -20 261 -48q117 -17 200 -82q116 -90 137 -272h208v-189z"/>
            <glyph unicode="&#x94b;" horiz-adv-x="602"
                   d="M642 1244h-181v-1244h-246v1244h-215v189h261l-569 509l181 147l556 -656h213v-189z"/>
            <glyph unicode="&#x94c;" horiz-adv-x="602"
                   d="M642 1244h-181v-1244h-246v1244h-215v189h87l-412 246l102 192l460 -438h192l-480 560l221 116l383 -676h89v-189z"/>
            <glyph unicode="&#x94d;" d="M105 -594l-77 -107l-548 370l167 178z"/>
            <glyph unicode="&#x950;" horiz-adv-x="2375"
                   d="M1566 1744h-192v178h192v-178zM1951 1784q0 -187 -130 -304q-132 -120 -348 -120q-224 0 -359 119q-133 116 -133 305h232q0 -103 71 -172t180 -69q115 0 182 71q64 66 64 170h241zM2270 693q0 -211 -100 -351q-106 -147 -279 -147q-49 0 -101 11.5t-46 11.5l-39 138 q149 0 219 43q121 73 120 288q-1 162 -27 240q-41 127 -157 127q-57 0 -132 -130q-135 -234 -140 -240q-92 -130 -194 -130q-56 0 -135.5 24t-71.5 24q17 -60 17 -110q0 -169 -127.5 -284t-304.5 -115q-171 0 -335 146q-119 107 -219 275q-79 132 -79 156l206 85 q-4 -9 59 -123q76 -136 157 -222q113 -119 216 -119q179 0 181 209q2 216 -241 216q-73 0 -98 -12l-79 181q10 -2 32 -2q95 0 164 34q106 52 106 171q0 161 -149 161q-78 0 -180 -76q-89 -67 -89 -85l-170 130q20 40 123 111q154 107 324 107q159 0 263 -88 q107 -91 107 -231q0 -167 -138 -260q12 0 73 -26q77 -32 111 -68q56 -59 178 -59q67 0 146 137q126 220 154 255q111 137 254 137q421 0 421 -540z"/>
            <glyph unicode="&#x951;" d="M-200 1573h-172l1 526h169z"/>
            <glyph unicode="&#x952;" d="M-190 -461h-1189v187h1189v-187z"/>
            <glyph unicode="&#x953;" horiz-adv-x="710" d="M584 1601l-143 -108l-368 458l143 112z"/>
            <glyph unicode="&#x954;" horiz-adv-x="707" d="M615 1951l-368 -458l-142 108l367 462z"/>
            <glyph unicode="&#x958;" horiz-adv-x="1769"
                   d="M1806 1244h-763v-342q-3 0 30 27q39 32 84 51q65 27 138 26q157 -1 268 -111t111 -267q0 -125 -74 -262q-52 -98 -137 -192q-67 -75 -75 -75l-178 136q7 0 59 54q66 67 107 138q57 98 57 189q0 201 -167 201q-91 0 -166 -83q-57 -64 -57 -87v-647h-243v339 q-116 -76 -237 -76q-175 0 -289 110q-119 115 -119 305q0 269 245 366q110 44 247 44l54 -192q-314 6 -314 -212q0 -104 52 -163.5t138 -59.5q91 0 166 65q57 51 57 68v650h-800v189h1806v-189zM404 6h-229v200h229v-200z"/>
            <glyph unicode="&#x959;" horiz-adv-x="1888"
                   d="M1914 1244h-181v-1244h-246v205q-258 -146 -532 -146q-288 0 -501 203q-158 151 -257 392q-73 177 -73 256l178 99q-1 -3 -1 -9q0 -44 36 -107q43 -76 96 -76q77 0 94 54q4 15 4 110v263h-531v189h1914v-189zM1487 1244h-715v-348q0 -98 -23.5 -145.5t-87.5 -86.5 q-41 -25 -119 -27q67 2 -73 2q0 -26 45 -115q64 -126 162 -205q137 -110 319 -110q233 0 492 184v145q-107 -69 -212 -69q-157 0 -256 87q-102 89 -100 233q2 137 106 228q100 88 239 88q57 0 101 -11l54 -153q7 0 -38.5 5.5t-71.5 3.5q-62 -4 -106 -46q-47 -45 -47 -110 q0 -68 41 -110t115 -42q86 0 175 82v520zM404 6h-229v200h229v-200z"/>
            <glyph unicode="&#x95a;" horiz-adv-x="1391"
                   d="M1405 1244h-209v-1244h-246v1244h-337v-704q0 -122 -90 -122q-55 0 -214 125.5t-159 174.5q0 33 26 56t59 23h130v447h-365v189h1405v-189zM461 6h-229v200h229v-200z"/>
            <glyph unicode="&#x95b;" horiz-adv-x="1758"
                   d="M1772 1244h-180v-1244h-246v780h-300q68 -136 68 -217q0 -152 -103.5 -261.5t-250.5 -109.5q-306 0 -508 364q-85 151 -142 363l195 124q-12 -6 44 -175q64 -193 148 -318q113 -171 238 -171q143 0 141 175q-1 125 -99 279q-82 131 -101 131h670v280h-1346v189h1772v-189 zM404 6h-229v200h229v-200z"/>
            <glyph unicode="&#x95c;" horiz-adv-x="1523"
                   d="M1546 1244h-248v-351h-535q-41 0 -41 -27q0 -14 13 -35q28 -44 79 -94q69 -67 113 -67q61 0 156 32.5t144 32.5q91 0 142 -88q44 -77 44 -192q0 -234 -168 -345q-121 -79 -287 -79q-207 0 -424 159q-159 115 -303 298q-115 145 -115 168l155 144q0 -16 101 -158 q127 -176 257 -287q181 -154 341 -154q100 0 156 67.5t56 186.5q0 86 -50 86q-14 0 -30 -7q-123 -56 -237 -56q-96 0 -240 146q-156 157 -156 300q0 57 42.5 99.5t99.5 42.5h452v178h-1063v189h1546v-189zM998 -305h-229v200h229v-200z"/>
            <glyph unicode="&#x95d;" horiz-adv-x="1389"
                   d="M1413 1244h-288v-413h-517q-87 0 -151 -62.5t-64 -149.5q0 -146 133 -283q117 -121 198 -121q-63 86 -63 203q0 119 92 201t217 82q128 0 223.5 -84t95.5 -207q0 -179 -147 -291q-134 -102 -317 -102q-271 0 -476 202q-194 190 -194 411q0 157 111 269.5t268 112.5h345 v232h-879v189h1413v-189zM1066 401q0 51 -32 90.5t-79 39.5q-49 0 -81 -41t-32 -94q0 -58 27 -109.5t64 -68.5q51 7 92 60t41 123zM913 -305h-229v200h229v-200z"/>
            <glyph unicode="&#x95e;" horiz-adv-x="1769"
                   d="M1798 1244h-780v-283q114 76 237 76q161 0 272 -97q115 -100 115 -253q0 -136 -72 -273q-53 -101 -137 -189q-66 -69 -82 -72l-192 133q9 0 63 50q71 65 115 141q62 105 62 216q0 69 -41.5 113.5t-108.5 44.5q-88 0 -165 -72q-66 -61 -66 -101v-678h-246v478 q-99 -71 -215 -71q-226 0 -325 165q-62 103 -62 231v441h-170v189h1798v-189zM772 727v517h-362v-450q0 -101 22 -143q34 -66 136 -66q61 0 134 59q65 53 70 83zM404 6h-229v200h229v-200z"/>
            <glyph unicode="&#x95f;" horiz-adv-x="1391"
                   d="M1405 1244h-181v-1244h-246v335q-144 -69 -274 -69q-257 0 -409 153q-151 150 -151 398q28 -4 62 -4q266 0 266 207q0 64 -41 142q-35 65 -61 82h-370v189h1405v-189zM978 1244h-365q97 -131 97 -257q0 -208 -147 -294q-61 -35 -147 -43q34 -212 262 -212q154 0 300 116 v690zM404 6h-229v200h229v-200z"/>
            <glyph unicode="&#x960;" horiz-adv-x="2038"
                   d="M2188 -155q-28 -21 -90 -43q-101 -37 -212 -37q-128 0 -206 47q-88 54 -88 154q0 118 84 206q-263 0 -263 187q0 89 97 158q84 59 141 51l-108 159l-268 -133v-594h-243v464l-540 -379l-147 184l560 342q-212 262 -306 262q-39 0 -189 -76q-141 -73 -150 -87l-127 186 q10 15 190 95q200 89 279 89q74 0 186 -89q80 -64 170 -165q74 -85 74 -91v509h-1032v189h2061v-189h-786v-455l206 84q-12 26 -12 57q0 66 47.5 120.5t111.5 54.5q65 0 113 -42.5t48 -104.5q0 -108 -84 -150l192 -262q-20 10 -137 -44q-134 -61 -135 -143q-1 -105 119 -105 q65 0 132 30q53 24 58 35l93 -135q-28 14 -132 -37q-120 -58 -120 -147q0 -127 119 -127q65 0 133 41q56 35 56 46z"/>
            <glyph unicode="&#x961;" horiz-adv-x="1690"
                   d="M1764 1244h-382v-274q220 -82 220 -312q0 -18 -2 -36q-14 -168 -145 -270q-65 -50 -235 -120q-123 -51 -123 -96q0 -91 107 -91q21 0 47 3q64 7 145 61l74 -149q-236 -45 -236 -155q0 -95 104 -95q16 0 33 2q146 19 206 150l113 -136l-71 -90q-96 -91 -242 -105 q-24 -2 -48 -2q-133 0 -214.5 68t-85.5 174q-3 85 58 140q37 33 70 41q-69 0 -136 29q-129 57 -126 197q2 106 122 177l228 109q129 67 146 158q-13 152 -148 152q-69 0 -124 -45q-103 -84 -158 -296l-201 98q6 20 40 102q17 37 42 79q-84 108 -231 108q-87 0 -147 -59 q-68 -67 -68 -184q0 -137 93 -238q66 -73 173 -119q74 -33 96 -33l-113 -179q-25 0 -129 62q-139 83 -226 191q-120 149 -120 324q0 180 127.5 303.5t310.5 123.5q199 0 339 -133q20 25 46 44q63 48 146 64v257h-1139v189h1764v-189z"/>
            <glyph unicode="&#x962;"
                   d="M37 -666q-100 -95 -276 -95q-83 0 -141 46q-65 51 -65 135q0 66 109 145.5t109 154.5q0 67 -83 67q-34 0 -57 -16q-41 -29 -71 -89l-34 -87l-156 63l71 119q-50 39 -112 39q-51 0 -101 -44q-53 -49 -53 -110q0 -51 53 -106q55 -58 113 -58l-75 -108q-68 0 -148 64 q-105 85 -105 224q0 104 87 184t209 80q108 0 210 -69q50 59 170 59q237 0 237 -218q0 -82 -46 -140q-25 -31 -90 -77q-53 -37 -60 -62q-4 -16 -4 -28q0 -33 31 -41q12 -3 60 -3q50 0 76 19q17 13 50 46q40 -51 92 -94z"/>
            <glyph unicode="&#x963;"
                   d="M55 -722q-67 -88 -196 -88q-149 0 -172 115q-15 73 24 97q-16 -5 -36 -5q-49 0 -85 28q-43 35 -43 97q0 68 59 123q24 22 108 76q59 37 59 61q0 67 -83 67q-34 0 -57 -16q-82 -57 -122 -157l-156 62l48 66l40 34q-52 40 -112 40q-160 0 -160 -148q0 -51 54 -104 q56 -56 114 -56l-71 -119q-66 0 -146 69q-103 91 -103 230q0 102 90 176t214 74q102 0 198 -65q50 59 170 59q129 0 192 -65q45 -47 45 -107q0 -141 -157 -216q-107 -52 -104 -88q4 -43 103 -43q32 0 45 7l98 35q9 -18 34 -79q-131 -65 -131 -102q0 -17 23.5 -35t38.5 -16 q45 6 84 34.5t43 58.5z"/>
            <glyph unicode="&#x964;" horiz-adv-x="1069" d="M845 0h-246v1614h246v-1614z"/>
            <glyph unicode="&#x965;" horiz-adv-x="1275" d="M1085 0h-245v1614h245v-1614zM605 0h-246v1614h246v-1614z"/>
            <glyph unicode="&#x966;" horiz-adv-x="1204"
                   d="M1128 718q0 -214 -153 -365.5t-367 -151.5q-219 0 -374 152.5t-155 370.5q0 215 156 367.5t373 152.5q216 0 368 -154.5t152 -371.5zM885 724q0 134 -75 233q-80 106 -202 106q-126 0 -209 -107q-77 -100 -77 -238q0 -135 78 -234q83 -105 208 -105q124 0 203 108 q74 100 74 237z"/>
            <glyph unicode="&#x967;" horiz-adv-x="1204"
                   d="M1026 0h-246v630q-96 -50 -192 -50q-178 0 -305.5 125.5t-127.5 303.5t126 305.5t304 127.5q179 0 308 -116q133 -118 133 -291v-1035zM800 1018q0 97 -54 169q-58 77 -147 77q-90 0 -148 -75q-55 -71 -55 -171q0 -98 55 -176q60 -84 148 -84q91 0 148 80q53 75 53 180z "/>
            <glyph unicode="&#x968;" horiz-adv-x="1204"
                   d="M1086 936q0 -174 -98 -323q-75 -114 -192 -195q-94 -65 -132 -65l337 -455l-181 -116l-328 512q-339 0 -339 187q0 68 49 113t123 45q69 0 153 -71q70 -60 70 -73q116 0 209 141q91 136 91 297q0 319 -291 322q-76 1 -185 -44q-99 -40 -126 -72l-161 147q48 41 168 88 q161 62 310 62q231 0 377 -142.5t146 -357.5z"/>
            <glyph unicode="&#x969;" horiz-adv-x="1204"
                   d="M1063 469q0 -228 -122 -348q-106 -104 -271 -104q31 -57 92 -132.5t134 -133.5l-178 -138q-86 113 -133 192q-35 58 -104 189q-63 0 -141 33q-139 59 -139 188q0 65 43 107.5t112 42.5q87 0 164 -93q60 -73 60 -97q110 0 173 67q67 71 67 205q0 103 -80 172 q-76 65 -183 65h-192l-79 173h206q81 0 150 44q99 64 99 193q0 72 -69 116q-62 39 -146 39q-86 0 -194 -49q-92 -42 -92 -52l-107 172q43 28 126 60q147 56 287 56q195 0 312 -92q123 -97 123 -270q0 -199 -173 -274q255 -100 255 -331z"/>
            <glyph unicode="&#x96a;" horiz-adv-x="1204"
                   d="M1148 1187q0 -109 -98 -226q-70 -85 -181 -163q-89 -63 -100 -63q7 0 69 -53q76 -67 124 -136q67 -95 67 -181q0 -200 -127 -304q-113 -92 -297 -92q-181 0 -297 97q-127 107 -127 299q0 117 124 254q94 104 130 116q-15 0 -103 63q-110 77 -180 163q-95 116 -95 226 q0 97 38 182q45 98 111 98l161 -87q-83 -75 -84 -193q-1 -81 79 -170q58 -65 150 -127q74 -50 84 -50q11 0 88 49q97 60 158 125q85 90 85 173q0 118 -82 195l167 85q58 0 99 -94q37 -86 37 -186zM800 362q0 115 -100 200q-73 63 -104 63q-29 0 -98 -63q-94 -85 -94 -200 q0 -207 201 -207q195 0 195 207z"/>
            <glyph unicode="&#x96b;" horiz-adv-x="1204"
                   d="M1125 -54q0 -140 -98 -213q-66 -50 -125 -50l-187 130q11 0 60 22q60 27 87 58q39 44 39 95q0 23 -8 49l-130 449q-106 -45 -209 -45q-210 0 -348 155t-138 382q0 137 71 310q43 105 76 154l192 -102q-20 -29 -56 -130q-51 -143 -51 -246q0 -156 66 -246q68 -93 191 -93 q93 0 167 62q-17 8 -17 109q0 128 37 222q48 121 144 121q79 0 130 -67q48 -63 48 -148q0 -103 -52 -209q-43 -87 -78 -107l169 -546q20 -64 20 -116z"/>
            <glyph unicode="&#x96c;" horiz-adv-x="1204"
                   d="M1094 260q0 -77 -95 -153q-78 -62 -106 -62q9 -47 85 -198q31 -62 93 -155l-206 -88q-64 128 -96 235q-45 151 -45 184q-141 0 -294 78q-235 120 -235 360q0 192 181 311q-236 80 -232 333q2 154 129 244q120 84 307 84q103 0 214 -37l68 -195q9 0 -94 35.5t-157 35.5 q-111 0 -175 -55q-60 -52 -60 -137q0 -108 89 -163q75 -46 191 -46h130l76 -176h-201q-95 0 -163 -69t-68 -165q0 -125 91 -199q83 -67 206 -67q-4 36 57 121q72 100 149 100q73 0 117 -44.5t44 -111.5z"/>
            <glyph unicode="&#x96d;" horiz-adv-x="1204"
                   d="M1148 772q0 -780 -549 -780q-322 0 -453 289q-92 204 -92 581q0 108 11 286t11 161l232 124q0 32 -27 -232.5t-27 -431.5q0 -608 345 -608q143 0 226 99q54 66 54 102q-179 0 -288 141q-105 138 -105 354q0 163 74 269q85 123 243 123q199 0 282 -146q63 -113 63 -331z M910 517q12 -2 26 72q14 79 14 170q0 321 -161 321q-128 0 -128 -238q0 -167 110 -260q76 -65 139 -65z"/>
            <glyph unicode="&#x96e;" horiz-adv-x="1204"
                   d="M1131 215q-29 -44 -148 -119q-177 -113 -353 -113q-216 0 -376.5 147t-160.5 351q0 168 139 308l639 644l203 -121l-644 -651l-65 -63q-63 -77 -63 -160q0 -122 88 -203.5t226 -81.5q103 0 244 105q121 90 121 107z"/>
            <glyph unicode="&#x96f;" horiz-adv-x="1204"
                   d="M1102 -184q-73 -145 -277 -138l-115 167q175 6 175 93q0 44 -23 68l-653 695q-138 147 -138 348q0 175 127.5 299.5t304.5 124.5q180 0 308 -128.5t130 -309.5q2 -168 -82 -295q-91 -138 -234 -138l477 -534q25 -49 25 -137q0 -66 -25 -115zM695 1040q0 95 -51 165 q-56 76 -141 76q-87 0 -142 -75q-51 -69 -53 -166q-2 -102 52 -179q58 -83 149 -81q88 2 137 73t49 187z"/>
            <glyph unicode="&#x970;" horiz-adv-x="1125"
                   d="M965 681q0 -164 -123 -277t-288 -113q-169 0 -291 109q-126 114 -126 281t126 281q122 109 291 109q165 0 288 -113t123 -277zM770 681q0 86 -64.5 145.5t-151.5 59.5q-89 0 -153 -58.5t-64 -146.5t64 -146.5t153 -58.5q87 0 151.5 59.5t64.5 145.5z"/>
            <glyph unicode="&#x2000;" horiz-adv-x="1060"/>
            <glyph unicode="&#x2001;" horiz-adv-x="2120"/>
            <glyph unicode="&#x2002;" horiz-adv-x="1060"/>
            <glyph unicode="&#x2003;" horiz-adv-x="2120"/>
            <glyph unicode="&#x2004;" horiz-adv-x="706"/>
            <glyph unicode="&#x2005;" horiz-adv-x="530"/>
            <glyph unicode="&#x2006;" horiz-adv-x="353"/>
            <glyph unicode="&#x2007;" horiz-adv-x="353"/>
            <glyph unicode="&#x2008;" horiz-adv-x="265"/>
            <glyph unicode="&#x2009;" horiz-adv-x="424"/>
            <glyph unicode="&#x200a;" horiz-adv-x="117"/>
            <glyph unicode="&#x200c;" d="M59 -972h-112v2744h112v-2744z"/>
            <glyph unicode="&#x200d;"
                   d="M302 1262l-91 -83l-147 144v-2196l-112 2v2210l-163 -160l-91 83l214 211l-214 214l86 85l216 -213l216 213l86 -85l-214 -214z"/>
            <glyph unicode="&#x2010;" horiz-adv-x="722" d="M633 481h-541v143h541v-143z"/>
            <glyph unicode="&#x2011;" horiz-adv-x="722" d="M633 481h-541v143h541v-143z"/>
            <glyph unicode="&#x2012;" horiz-adv-x="722" d="M633 481h-541v143h541v-143z"/>
            <glyph unicode="&#x2013;" horiz-adv-x="605"
                   d="M484 1437q-146 0 -223 -98q-47 -60 -47 -172q41 64 113 62q51 -1 89 -33q43 -35 41 -89q-2 -65 -43.5 -104t-98.5 -35q-83 6 -128 71q-39 58 -39 143q0 156 117 239q95 69 219 66v-50z"/>
            <glyph unicode="&#x2014;" horiz-adv-x="605"
                   d="M457 1526q0 -156 -116 -239q-95 -69 -219 -66v50q145 0 222 98q48 61 48 172q-41 -64 -113 -62q-51 1 -90 33q-43 35 -41 89q2 65 44 104t99 35q83 -6 127 -71q39 -57 39 -143z"/>
            <glyph unicode="&#x2018;" horiz-adv-x="1181"
                   d="M1081 93l-61 -57l-149 149q-139 -107 -282 -107q-80 0 -164 26q-96 30 -144 81l-152 -149l-59 57l151 152q-107 123 -107 294q0 163 107 295l-151 148l59 59l152 -148q122 106 298 106q169 0 292 -106l149 148l61 -59l-151 -148q108 -138 108 -293q0 -160 -108 -296z M954 538q0 156 -111 266.5t-266 110.5q-158 0 -268 -110.5t-110 -268.5q0 -156 110.5 -265.5t266.5 -109.5t267 110.5t111 266.5z"/>
            <glyph unicode="&#x2019;" horiz-adv-x="668"
                   d="M475 806q0 -54 -37 -91.5t-91 -37.5t-91.5 37.5t-37.5 91.5t37.5 91.5t91.5 37.5t91 -37.5t37 -91.5z"/>
            <glyph unicode="&#x2022;" horiz-adv-x="1196"
                   d="M1047 95l-82 -82l-359 360l-360 -360l-81 82l359 359l-364 364l82 81l359 -359l360 359l81 -81l-359 -359z"/>
            <glyph unicode="&#x2024;" horiz-adv-x="601"
                   d="M421 1050q0 -48 -34 -82t-82 -34t-82 34t-34 82t34 82t82 34q49 0 82.5 -33.5t33.5 -82.5z"/>
            <glyph unicode="&#x2026;" horiz-adv-x="2256" d="M2144 754h-2028v125h2028v-125z"/>
            <glyph unicode="&#x202f;" horiz-adv-x="424"/>
            <glyph unicode="&#x205f;" horiz-adv-x="530"/>
            <glyph unicode="&#x20ac;" horiz-adv-x="1146"
                   d="M1085 262q-96 -152 -182 -217q-112 -84 -269 -84q-242 0 -373 201q-106 162 -126 425h-105l24 82h77v16q0 33 2 70h-103l24 82h87q36 250 170 410q154 184 392 184q178 0 355 -92v-312h-41q-27 335 -314 335q-172 0 -268 -187q-68 -132 -90 -338h617l-24 -82h-599 q-3 -42 -3 -86h576l-24 -82h-550q-1 -17 -1 -36q0 -177 79 -324q96 -179 260 -179q132 0 222 64q65 46 155 171z"/>
            <glyph unicode="&#x25cc;" horiz-adv-x="1742"
                   d="M1563 739l-115 -26q-35 232 -212 366l72 85q221 -159 255 -425zM1155 1253l-38 -106q-108 43 -221 43q-111 0 -200 -43l-34 106q124 54 251 54t242 -54zM1558 552q-44 -262 -246 -420l-76 80q191 150 212 366zM582 1079q-82 -59 -140 -155q-61 -100 -73 -206l-110 21 q48 276 251 425zM1155 42q-114 -49 -239 -49q-127 0 -254 49l43 102q90 -40 201 -40t215 40zM573 221l-63 -81q-212 152 -251 412l115 21q38 -237 199 -352z"/>
            <glyph unicode="&#xe000;" horiz-adv-x="1055" d="M0 1055h1055v-1055h-1055v1055z"/>
            <glyph horiz-adv-x="1532"
                   d="M1556 1244h-181v-1244h-246v729q-142 -42 -253 -42q-209 0 -407 99q-40 -8 -91 -64q-70 -76 -70 -176q0 -127 107 -179q59 -28 131 -28q-7 23 -7 48q0 68 45 122t109 54q87 0 138 -48q48 -46 48 -122q0 -80 -52 -126q-35 -30 -55 -30q20 -31 65 -93q37 -45 102 -116 l-162 -113l-93 147l-73 116q-45 -14 -111 -14q-165 0 -294 109q-138 116 -138 281q0 226 232 351q-139 111 -139 282q0 119 96 197q92 75 221 75q140 0 246 -84q110 -88 110 -216q0 -142 -161 -257q77 -31 200 -31q126 0 256 64v309h-215v189h642v-189zM602 1159 q0 60 -32 98q-35 41 -92 41q-48 0 -82 -35t-34 -84q0 -118 107 -178q19 0 69 41q64 53 64 117z"/>
            <glyph horiz-adv-x="1652"
                   d="M1675 1244h-181v-1244h-246v905h-731q-35 0 -35 -28q0 -24 32 -66q44 -58 60 -73q28 -24 67 -24q36 0 105 21q55 17 110 17q102 0 165 -55q73 -62 73 -180q0 -135 -85 -235q-63 -73 -162 -118q-75 -34 -98 -31q31 -41 76 -71q66 -44 111 -54l-142 -161q-57 35 -164 122 q-52 42 -121 116q-30 -6 -79 -6q-103 0 -174 49q-81 55 -81 152q0 55 40 92.5t96 37.5q57 0 157 -69q89 -62 89 -72q2 -1 10 -1q77 0 164 42q126 61 126 176q0 73 -75 73q-32 0 -112.5 -18t-115.5 -18q-96 0 -223 145q-130 147 -130 265q0 65 48.5 110t115.5 45h883v156 h-1248v189h1675v-189z"/>
            <glyph d="M-51 1919q-9 0 -48 11.5t-62 11.5q-75 0 -130 -37q-71 -49 -71 -144q0 -178 187 -345h-156q-209 197 -209 396q0 148 96 222q80 61 207 61q84 0 186 -34v-142z"/>
            <glyph d="M8 -297l-149 -158l-362 384l-368 -412l-186 132l424 410h226z"/>
            <glyph d="M-85 -563q0 -120 -123 -185q-114 -60 -306 -60q-152 0 -307 66q-112 48 -212 124q-74 56 -81 70l108 149q19 -39 154 -135q183 -130 343 -130q198 0 198 104q0 88 -110 88q-54 0 -111 -24q-47 -20 -53 -33l-105 128q-17 0 82 39.5t192 39.5q151 0 239 -60q92 -64 92 -181 z"/>
            <glyph d="M76 -690l-144 -118q0 30 -95 133q-125 135 -281 172q-53 12 -103 12q-151 0 -151 -86q0 -90 141 -90q66 0 119 45l65 -147q7 0 -62 -18.5t-111 -18.5q-179 0 -276 66q-91 62 -91 169q0 112 105 175q95 58 241 58q84 0 166 -21q147 -38 271 -122q89 -61 156 -139 q50 -59 50 -70z"/>
            <glyph horiz-adv-x="1193"
                   d="M1425 707q-65 31 -173 31q-64 0 -143 -83q-66 -70 -66 -87v-568h-243v339q-116 -76 -237 -76q-175 0 -289 110q-119 115 -119 305q0 269 245 366q110 44 247 44l54 -192q-314 6 -314 -212q0 -104 52 -163.5t138 -59.5q91 0 166 65q57 51 57 68v650h-800v189h1233v-189 h-190v-421q0 13 62 53q79 51 164 51q51 0 107 -15.5t49 -15.5v-189z"/>
            <glyph horiz-adv-x="1286"
                   d="M1510 554q-102 -85 -235 -85q-157 0 -256 87q-102 89 -100 233q2 137 106 228q100 88 239 88q57 0 101 -11l54 -153q7 0 -38.5 5.5t-71.5 3.5q-62 -4 -106 -46q-47 -45 -47 -110q0 -68 41 -110t115 -42q100 0 198 104v-192zM1510 218q7 0 -76 -41q-96 -47 -198 -77 q-143 -41 -281 -41q-288 0 -501 203q-158 151 -257 392q-73 177 -73 256l178 99q-1 -3 -1 -9q0 -44 36 -107q43 -76 96 -76q77 0 94 54q4 15 4 110v263h-531v189h1326v-189h-554v-348q0 -98 -23.5 -145.5t-87.5 -86.5q-41 -25 -119 -27q66 2 -73 2q0 -26 45 -115 q64 -126 162 -205q137 -110 319 -110q242 0 515 201v-192z"/>
            <glyph horiz-adv-x="786"
                   d="M825 1244h-212v-676q0 -121 -90 -121q-55 0 -214 125t-159 174q0 33 26 56t59 23h130v419h-365v189h825v-189z"/>
            <glyph horiz-adv-x="905"
                   d="M1122 379q-37 -31 -163 -76q-155 -54 -272 -54q-168 0 -299 91q-142 99 -142 248q0 146 147 237q-97 23 -153 96t-56 173q0 80 45 150h-229v189h944v-189h-480q-57 -45 -57 -127q0 -66 53 -110q50 -43 120 -43h223l90 -178h-198q-77 0 -136 -49t-59 -121q0 -80 66 -133 q63 -50 149 -50q139 0 278 87q113 71 129 119v-260z"/>
            <glyph horiz-adv-x="1745"
                   d="M1654 780h-243v221h243v-221zM1785 1244h-536v-351h-503q-41 0 -41 -27q0 -14 13 -35q28 -44 79 -94q69 -67 113 -67q61 0 151.5 32.5t139.5 32.5q91 0 142 -88q45 -77 45 -192q0 -234 -168 -345q-121 -80 -287 -79q-207 1 -425 160q-158 115 -302 297q-116 146 -116 168 l156 144q0 -16 101 -158q126 -176 255 -287q181 -154 339 -154q100 0 157.5 68t57.5 186q0 86 -52 86q-14 0 -30 -7q-123 -56 -226 -56q-96 0 -241 146q-157 157 -158 300q-1 59 42 100.5t103 41.5h418v178h-1012v189h1785v-189zM1393 -594l-76 -107l-549 370l167 178z"/>
            <glyph horiz-adv-x="902"
                   d="M941 1244h-941v189h941v-189zM1122 441q-24 -34 -143 -98q-153 -83 -278 -83q-162 0 -264.5 88t-102.5 229q0 102 64 200q44 68 83 94h-342v183h842v-181h-201q-24 0 -108 -85q-101 -104 -101 -200q0 -147 153 -147q218 0 398 288v-288z"/>
            <glyph horiz-adv-x="1633"
                   d="M1659 1244h-339v-181q47 0 109 -48q106 -83 106 -260q0 -257 -259 -486.5t-549 -228.5q-204 1 -343 114q-155 125 -155 338q0 165 150 285q-55 8 -131 77q-101 92 -101 212q0 93 68 178h-215v189h1659v-189zM1303 763q0 62 -28 103q-31 44 -82 44q-107 0 -107 -161 q0 -152 110 -246q20 8 59 82q48 92 48 178zM1094 1071v173h-645q-10 0 -33 -44q-30 -58 -29 -129q2 -103 92 -144q46 -22 95 -22h133l51 -178h-102q-84 0 -138 -69t-54 -163q0 -113 77 -189.5t186 -76.5q102 0 214 53q91 43 113 74q-18 0 -92 130q-89 158 -89 300 q0 226 221 285zM1246 -594l-76 -107l-549 370l167 178z"/>
            <glyph horiz-adv-x="1142"
                   d="M1182 1244h-1182v189h1182v-189zM1363 780h-317q68 -136 68 -217q0 -152 -103.5 -261.5t-250.5 -109.5q-306 0 -508 364q-85 151 -142 363l195 124q-12 -6 44 -175q64 -193 148 -318q113 -171 238 -171q143 0 141 175q-1 125 -99 279q-82 131 -101 131h687v-184z"/>
            <glyph horiz-adv-x="1054"
                   d="M1281 509q2 0 -36.5 -4.5t-57.5 -4.5q-72 0 -152 40q0 -133 -71 -240q-42 -63 -149 -124q-84 -48 -114 -52l107 -65l116 -65l-138 -147q-13 0 -173 108q-111 75 -152 121q-25 -5 -82 -5q-103 0 -174 48q-81 55 -81 152q0 54 41.5 92t97.5 38q57 0 157 -69q89 -62 89 -72 q2 -1 9 -1q77 0 164 42q126 62 126 177q0 73 -75 73q-32 0 -113.5 -18.5t-116.5 -18.5q-92 0 -218 155q-124 152 -124 258q0 63 46 108t110 45h398v164h-715v189h1094v-189h-158v-348h-467q-36 0 -36 -28q0 -24 31 -65q74 -98 140 -98q41 0 111 22q53 17 101 17 q88 0 202 -66q35 -20 82 -20q51 0 117 25l64 27v-201z"/>
            <glyph horiz-adv-x="1018"
                   d="M1057 1244h-1057v189h1057v-189zM1238 599q-63 -34 -113 -34q-31 0 -86 11.5t-50 11.5q0 -80 -91 -186q-128 -150 -347 -150q-199 0 -452 181l133 161q12 -30 94 -87q109 -77 217 -77q101 0 162 77.5t58 193.5q-3 94 -57 146q-50 49 -132 49q-55 0 -147 -48l-139 178 q108 54 269 54q182 0 311 -93q136 -98 136 -246q-1 0 42 -3t65 -3q56 0 127 51v-187z"/>
            <glyph horiz-adv-x="1364"
                   d="M1385 1244h-283v-413h-522q-82 0 -133 -62t-51 -158q0 -150 130 -271q125 -117 268 -117q84 0 174 56q99 61 143 154l187 -131q-184 -262 -509 -262q-258 0 -447 177t-189 422q0 166 109 271q106 102 264 102h345v232h-871v189h1385v-189zM1246 -594l-76 -107l-549 370 l167 178z"/>
            <glyph horiz-adv-x="1389"
                   d="M1411 1244h-309v-413h-522q-82 0 -133 -62t-51 -158q0 -147 138 -271q129 -117 260 -117q97 0 171 50q92 63 92 182q0 144 -93 215l161 133q150 -129 150 -317q0 -200 -150 -327q-140 -119 -336 -119q-232 0 -431 177q-207 184 -205 422q2 167 110 271q105 102 263 102 h345v232h-871v189h1411v-189zM1246 -594l-76 -107l-549 370l167 178z"/>
            <glyph horiz-adv-x="1523"
                   d="M1546 1244h-248v-351h-535q-41 0 -41 -27q0 -14 13 -35q28 -44 79 -94q69 -67 113 -67q61 0 156 32.5t144 32.5q91 0 142 -88q44 -77 44 -192q0 -234 -168 -345q-121 -79 -287 -79q-207 0 -424 159q-159 115 -303 298q-115 145 -115 168l155 144q0 -16 101 -158 q127 -176 257 -287q181 -154 341 -154q100 0 156 67.5t56 186.5q0 86 -50 86q-14 0 -30 -7q-123 -56 -237 -56q-96 0 -240 146q-156 157 -156 300q0 57 42.5 99.5t99.5 42.5h452v178h-1063v189h1546v-189zM1246 -594l-76 -107l-549 370l167 178z"/>
            <glyph horiz-adv-x="1389"
                   d="M1413 1244h-288v-413h-517q-87 0 -151 -62.5t-64 -149.5q0 -146 133 -283q117 -121 198 -121q-63 86 -63 203q0 119 92 201t217 82q128 0 223.5 -84t95.5 -207q0 -179 -147 -291q-134 -102 -317 -102q-271 0 -476 202q-194 190 -194 411q0 157 111 269.5t268 112.5h345 v232h-879v189h1413v-189zM1066 401q0 51 -32 90.5t-79 39.5q-49 0 -81 -41t-32 -94q0 -58 27 -109.5t64 -68.5q51 7 92 60t41 123zM1246 -594l-76 -107l-549 370l167 178z"/>
            <glyph horiz-adv-x="1020"
                   d="M1060 1244h-88v-529q0 -133 -117 -239t-270 -106q-163 0 -284 112q-114 106 -114 233v529h-187v189h1060v-189zM727 715v529h-294v-529q0 -152 152 -152q142 0 142 152z"/>
            <glyph horiz-adv-x="777"
                   d="M817 1244h-817v189h817v-189zM998 817h-512q-116 0 -116 -127q0 -116 94 -257q70 -104 178 -205q90 -84 104 -84l-166 -144q-12 0 -118 110q-129 133 -211 264q-112 180 -112 321q0 160 104 243q76 60 164 60h591v-181z"/>
            <glyph horiz-adv-x="916"
                   d="M1136 430q-195 -176 -486 -176q-288 0 -473 191q-157 163 -154 344q116 -34 226 -34q136 0 229 65q110 77 110 220q0 235 -192 235q-125 0 -125 -110q0 -44 40 -75q37 -29 76 -27v-161q-8 -1 -20 -1q-100 0 -188 53q-125 75 -125 225q0 125 104 205q99 76 238 75 q180 -1 309 -130t129 -309q0 -179 -142 -312q-137 -128 -308 -128q88 -142 277 -142q165 0 333 143q130 111 142 160v-311z"/>
            <glyph horiz-adv-x="1389"
                   d="M1419 1244h-300v-396h-545q-66 0 -117 -50q-56 -53 -56 -134q0 -265 424 -265q0 226 193 226q70 0 122.5 -48t52.5 -122q0 -134 -127 -206q0 -9 51 -127q26 -61 48 -96q17 -25 17 -23l-221 -51q0 -2 -9 16q-14 27 -33 86q-31 95 -34 152q-25 -1 -56 -1q-238 0 -410 74 q-280 120 -280 408q0 151 110 252q103 96 243 96h379v209h-871v189h1419v-189zM1246 -594l-76 -107l-549 370l167 178z"/>
            <glyph horiz-adv-x="789"
                   d="M1012 382q0 -7 -54 -43q-70 -48 -156 -78q-118 -41 -248 -41q-167 0 -275 88q-115 94 -115 255q0 129 127 226q-9 0 -62 45q-69 59 -112 132q-60 101 -60 213q0 143 94 216q81 64 214 64q143 0 229 -89q79 -83 79 -208q0 -22 -3 -45h-181q3 19 3 42q0 136 -105 136 q-110 0 -110 -136q0 -186 164 -288q-14 0 56 18t156 18q70 0 88 -2l76 -159q-30 3 -68 3q-348 0 -348 -195q0 -158 187 -158q149 0 299 109q118 86 125 120v-243z"/>
            <glyph horiz-adv-x="772"
                   d="M811 1244h-811v189h811v-189zM995 707h-441v-178q0 -54 -5 -66q-14 -36 -74 -36q-64 0 -193 154q-127 151 -127 219q0 62 46 91q27 16 53 16h741v-200z"/>
            <glyph horiz-adv-x="647"
                   d="M871 540q-144 -79 -260 -79q-196 0 -316 112q-108 102 -108 244v427h-187v189h687v-189h-257v-396q0 -209 189 -209q136 0 252 133v-232z"/>
            <glyph horiz-adv-x="1179"
                   d="M1419 727q-74 33 -158 33q-89 0 -171 -71q-72 -62 -72 -101v-588h-246v478q-110 -71 -218 -71q-229 0 -326 155q-58 94 -58 221v461h-170v189h1218v-189h-200v-390l74 52q85 47 174 47q61 0 112.5 -18.5t40.5 -18.5v-189zM772 727v517h-362v-450q0 -101 22 -143 q34 -66 136 -66q121 0 204 142z"/>
            <glyph horiz-adv-x="639"
                   d="M678 1244h-678v189h678v-189zM885 353q-161 -96 -334 -96q-174 0 -303 106q-143 119 -143 310t149 301q131 97 320 97q113 0 186 -22l23 -167q-83 23 -175 23q-110 0 -173 -48l450 -277v-227zM823 492l-458 285q-31 -37 -31 -116q0 -110 80 -173q75 -58 191 -58 q69 0 149.5 31t68.5 31z"/>
            <glyph horiz-adv-x="808"
                   d="M1037 582h-347v-192q0 -79 -94 -79q-48 0 -223 159q-178 162 -178 220q0 87 91 87h169v402q0 107 -113 107q-102 0 -102 -107q0 -37 13 -74t13 -31h-173q-28 67 -28 127q0 130 85 199q78 64 212 64q145 0 236.5 -77t91.5 -203v-407h347v-195z"/>
            <glyph horiz-adv-x="772"
                   d="M1001 625h-430v-153q0 -93 -76 -93q-64 0 -217.5 142.5t-153.5 205.5q0 50 44 72q25 12 47 12h119v433h-334v189h811v-189h-240v-433h430v-186z"/>
            <glyph horiz-adv-x="777"
                   d="M998 345q-155 -79 -294 -79q-257 0 -409 153q-151 150 -151 398q28 -4 62 -4q266 0 266 207q0 64 -41 142q-35 65 -61 82h-370v189h817v-189h-204q97 -131 97 -257q0 -208 -147 -294q-61 -35 -147 -43q34 -212 262 -212q165 0 320 133v-226z"/>
            <glyph horiz-adv-x="678"
                   d="M718 1244h-718v189h718v-189zM806 622q-120 -57 -314 -57q-176 0 -402 173v178q217 -139 388 -139q199 0 328 68v-223z"/>
            <glyph horiz-adv-x="1054"
                   d="M1094 1244h-1094v189h1094v-189zM1281 780q-134 -27 -207 -119q-47 -60 -80 -141q-24 -62 -24 -82l-198 85q0 13 39 107q7 16 27 49q19 30 19 31q-14 29 -62 61q-76 52 -176 49q-212 -6 -212 -232q0 -119 106 -228q77 -77 199 -141q93 -49 108 -49l-110 -187 q-24 0 -147 69q-159 89 -260 201q-139 155 -139 327q0 219 137 332q118 97 307 97q119 0 235 -54q96 -45 144 -101q64 50 118 73q38 16 108 31q57 12 68 12v-190z"/>
            <glyph horiz-adv-x="642"
                   d="M681 1244h-681v189h681v-189zM876 390q-144 -85 -294 -85q-191 0 -314 93q-138 105 -138 295q0 166 128 268q120 96 299 96q92 0 164 -22l37 -181q-65 42 -159 42q-95 0 -157 -53q-66 -57 -66 -153q0 -215 232 -215q144 0 268 136v-221z"/>
            <glyph horiz-adv-x="1086"
                   d="M1125 1244h-198q99 -122 99 -266q0 -323 -230 -461q-97 -57 -231 -73l156 -127q97 -76 206 -153l-141 -181q-111 74 -356 294q-74 67 -184 176q-99 98 -99 101l155 156l91 -85q44 -14 107 -14q228 0 258 243q-122 -46 -193 -46q-149 0 -245 75q-102 81 -102 222 q0 76 53 139h-271v189h1125v-189zM777 1080q-35 178 -206 178q-55 0 -94 -41.5t-39 -97.5q0 -64 47 -103q44 -38 114 -38q126 0 178 102z"/>
            <glyph horiz-adv-x="633"
                   d="M862 478q-134 -77 -263 -77q-172 0 -298 116t-126 283v444h-175v189h673v-189h-255l444 -444v-322zM817 664l-401 402v-297q0 -77 57.5 -130.5t137.5 -53.5q113 0 206 79z"/>
            <glyph horiz-adv-x="1032"
                   d="M1261 650h-272l-132 184h404v-184zM1071 1244h-229v-351q0 -145 -93 -206q-38 -25 -111 -42q-54 -12 -73 -12q0 -3 60 -88q66 -94 107 -144l218 -246l-192 -141q-88 107 -365 486q-83 119 -179 281q-81 137 -81 143l184 119q0 -21 57 -114q67 -112 126 -112q99 0 99 110 v317h-599v189h1071v-189z"/>
            <glyph horiz-adv-x="1233"
                   d="M1323 526h-616q-274 0 -274 -215q0 -154 245 -235q169 -56 334 -56q26 0 28 3l-70 -167q-18 -14 -208 24q-229 45 -375 138q-200 128 -200 327q0 121 83 212q62 68 86 68q-25 0 -110 103q-99 120 -99 219q0 56 43 94.5t101 38.5h551v164h-842v189h1272v-189h-198v-342 h-625q-46 0 -46 -40q0 -23 27 -54q77 -90 104 -90h789v-192z"/>
            <glyph horiz-adv-x="1456"
                   d="M1495 1244h-1495v189h1495v-189zM1555 594q0 -196 -103.5 -316t-278.5 -120q-225 0 -331 207q-107 -201 -325 -201q-178 0 -278 111q-103 112 -103 316q0 190 105 304.5t282 113.5q217 -2 325 -189q107 192 325 192q382 0 382 -418zM1323 591q0 243 -172 243 q-94 0 -155 -112q-43 -79 -43 -117q-9 -38 36 -139q58 -130 167 -130q84 0 128 78q39 68 39 177zM746 613q3 48 -58 127q-71 94 -157 94q-83 0 -128 -71q-41 -64 -41 -172q0 -243 161 -243q115 0 181 125q53 100 42 140z"/>
            <glyph horiz-adv-x="936"
                   d="M1156 738q-159 -51 -280 -51q-209 0 -407 99q-40 -8 -91 -64q-70 -76 -70 -176q0 -127 107 -179q59 -28 131 -28q-7 23 -7 48q0 68 45 122t109 54q87 0 138 -48q48 -46 48 -122q0 -80 -52 -126q-35 -30 -55 -30q20 -31 65 -93q37 -45 102 -116l-162 -113l-93 147l-73 116 q-45 -14 -111 -14q-165 0 -294 109q-138 116 -138 281q0 226 232 351q-139 111 -139 282q0 119 96 197q92 75 221 75q140 0 246 -84q110 -88 110 -216q0 -142 -161 -257q77 -31 200 -31q139 0 283 79v-212zM602 1159q0 60 -32 98q-35 41 -92 41q-48 0 -82 -35t-34 -84 q0 -118 107 -178q19 0 69 41q64 53 64 117z"/>
            <glyph horiz-adv-x="1035"
                   d="M1074 1244h-1074v189h1074v-189zM1255 905h-738q-35 0 -35 -28q0 -24 32 -66q44 -58 60 -73q28 -24 67 -24q36 0 105 21q55 17 110 17q102 0 165 -55q73 -62 73 -180q0 -135 -85 -235q-63 -73 -162 -118q-75 -34 -98 -31q30 -41 76 -71q66 -44 111 -54l-142 -161 q-57 35 -164 122q-52 42 -121 116q-30 -6 -79 -6q-103 0 -174 49q-81 55 -81 152q0 55 40 92.5t96 37.5q57 0 157 -69q89 -62 89 -72q2 -1 10 -1q77 0 164 42q126 61 126 176q0 73 -75 73q-32 0 -112.5 -18t-115.5 -18q-96 0 -223 145q-130 147 -130 265q0 65 48.5 110 t115.5 45h890v-183z"/>
            <glyph horiz-adv-x="1769"
                   d="M1806 1244h-763v-342q-3 0 30 27q39 32 84 51q65 27 138 26q157 -1 268 -111t111 -267q0 -125 -74 -262q-52 -98 -137 -192q-67 -75 -75 -75l-178 136q7 0 59 54q66 67 107 138q57 98 57 189q0 201 -167 201q-91 0 -166 -83q-57 -64 -57 -87v-647h-243v339 q-116 -76 -237 -76q-175 0 -289 110q-119 115 -119 305q0 269 245 366q110 44 247 44l54 -192q-314 6 -314 -212q0 -104 52 -163.5t138 -59.5q91 0 166 65q57 51 57 68v650h-800v189h1806v-189zM1318 -594l-76 -107l-548 370l167 178z"/>
            <glyph horiz-adv-x="1888"
                   d="M1914 1244h-181v-1244h-246v205q-258 -146 -532 -146q-288 0 -501 203q-158 151 -257 392q-73 177 -73 256l178 99q-1 -3 -1 -9q0 -44 36 -107q43 -76 96 -76q77 0 94 54q4 15 4 110v263h-531v189h1914v-189zM1487 1244h-715v-348q0 -98 -23.5 -145.5t-87.5 -86.5 q-41 -25 -119 -27q67 2 -73 2q0 -26 45 -115q64 -126 162 -205q137 -110 319 -110q233 0 492 184v145q-107 -69 -212 -69q-157 0 -256 87q-102 89 -100 233q2 137 106 228q100 88 239 88q57 0 101 -11l54 -153q7 0 -38.5 5.5t-71.5 3.5q-62 -4 -106 -46q-47 -45 -47 -110 q0 -68 41 -110t115 -42q86 0 175 82v520zM1986 -594l-76 -107l-548 370l166 178z"/>
            <glyph horiz-adv-x="1391"
                   d="M1405 1244h-209v-1244h-246v1244h-337v-704q0 -122 -90 -122q-55 0 -214 125.5t-159 174.5q0 33 26 56t59 23h130v447h-365v189h1405v-189zM1483 -594l-76 -107l-548 370l166 178z"/>
            <glyph horiz-adv-x="1498"
                   d="M1518 1244h-181v-1244h-246v360q-209 -111 -404 -111q-168 0 -299 91q-142 99 -142 248q0 146 147 237q-97 23 -153 96t-56 173q0 80 45 150h-229v189h1518v-189zM1091 597v647h-627q-57 -45 -57 -127q0 -66 53 -110q50 -43 120 -43h223l90 -178h-198q-77 0 -136 -49 t-59 -121q0 -80 66 -133q63 -50 149 -50q112 0 227 58q90 45 149 106zM1563 -594l-76 -107l-548 370l166 178z"/>
            <glyph horiz-adv-x="1732"
                   d="M1654 780h-243v221h243v-221zM1770 1244h-521v-351h-503q-41 0 -41 -27q0 -14 13 -35q28 -44 79 -94q69 -67 113 -67q61 0 151.5 32.5t139.5 32.5q91 0 142 -88q45 -77 45 -192q0 -234 -168 -345q-121 -80 -287 -79q-207 1 -425 160q-158 115 -302 297q-116 146 -116 168 l156 144q0 -16 101 -158q126 -176 256 -287q180 -154 338 -154q100 0 157.5 68t57.5 186q0 86 -52 86q-14 0 -30 -7q-123 -56 -226 -56q-96 0 -241 146q-157 157 -158 300q-1 59 42 100.5t103 41.5h418v178h-1012v189h1770v-189zM1416 -594l-76 -107l-549 370l167 178z"/>
            <glyph horiz-adv-x="1529"
                   d="M1546 1244h-181v-1244h-246v438q-62 -64 -163 -114q-129 -64 -255 -64q-162 0 -264.5 88t-102.5 229q0 102 64 200q44 68 83 94h-342v183h842v-181h-201q-24 0 -108 -85q-101 -104 -101 -200q0 -147 153 -147q137 0 270 128q73 70 125 156v519h-1119v189h1546v-189z M1563 -594l-76 -107l-548 370l166 178z"/>
            <glyph horiz-adv-x="1758"
                   d="M1772 1244h-180v-1244h-246v780h-300q68 -136 68 -217q0 -152 -103.5 -261.5t-250.5 -109.5q-306 0 -508 364q-85 151 -142 363l195 124q-12 -6 44 -175q64 -193 148 -318q113 -171 238 -171q143 0 141 175q-1 125 -99 279q-82 131 -101 131h670v280h-1346v189h1772v-189 zM1816 -594l-76 -107l-548 370l166 178z"/>
            <glyph horiz-adv-x="1665"
                   d="M1688 1244h-181v-1244h-246v506q-50 -6 -74 -6q-72 0 -152 40q0 -133 -71 -240q-42 -63 -149 -124q-84 -48 -114 -52l107 -65l116 -65l-138 -147q-13 0 -173 108q-111 75 -152 121q-25 -5 -82 -5q-103 0 -174 48q-81 55 -81 152q0 54 41.5 92t97.5 38q57 0 157 -69 q89 -62 89 -72q2 -1 9 -1q77 0 164 42q126 62 126 177q0 73 -75 73q-32 0 -113.5 -18.5t-116.5 -18.5q-92 0 -218 155q-124 152 -124 258q0 63 46 108t110 45h398v164h-715v189h1688v-189zM1261 1244h-325v-348h-467q-36 0 -36 -28q0 -24 31 -65q74 -98 140 -98q41 0 111 22 q53 17 101 17q88 0 202 -66q35 -20 82 -20q64 0 161 43v543zM1732 -594l-77 -107l-548 370l167 178z"/>
            <glyph horiz-adv-x="1606"
                   d="M1631 1244h-181v-1244h-246v583q-42 -18 -79 -18q-31 0 -86 11.5t-50 11.5q0 -80 -91 -186q-128 -150 -347 -150q-199 0 -452 181l133 161q12 -30 94 -87q109 -77 217 -77q101 0 162 77.5t58 193.5q-3 94 -57 146q-50 49 -132 49q-55 0 -147 -48l-139 178q108 54 269 54 q182 0 311 -93q136 -98 136 -246q-1 0 42 -3t65 -3q44 0 93 29v480h-1204v189h1631v-189zM1683 -594l-76 -107l-548 370l167 178z"/>
            <glyph horiz-adv-x="1364"
                   d="M1385 1244h-283v-413h-522q-82 0 -133 -62t-51 -158q0 -150 130 -271q125 -117 268 -117q84 0 174 56q99 61 143 154l187 -131q-184 -262 -509 -262q-258 0 -447 177t-189 422q0 166 109 271q106 102 264 102h345v232h-871v189h1385v-189zM1246 -594l-76 -107l-549 370 l167 178z"/>
            <glyph horiz-adv-x="1633"
                   d="M1659 1244h-339v-181q47 0 109 -48q106 -83 106 -260q0 -257 -259 -486.5t-549 -228.5q-204 1 -343 114q-155 125 -155 338q0 165 150 285q-55 8 -131 77q-101 92 -101 212q0 93 68 178h-215v189h1659v-189zM1303 763q0 62 -28 103q-31 44 -82 44q-107 0 -107 -161 q0 -152 110 -246q20 8 59 82q48 92 48 178zM1094 1071v173h-645q-10 0 -33 -44q-30 -58 -29 -129q2 -103 92 -144q46 -22 95 -22h133l51 -178h-102q-84 0 -138 -69t-54 -163q0 -113 77 -189.5t186 -76.5q102 0 214 53q91 43 113 74q-18 0 -92 130q-89 158 -89 300 q0 226 221 285zM1349 -594l-76 -107l-549 370l167 178z"/>
            <glyph horiz-adv-x="1382"
                   d="M1405 1244h-181v-1244h-246v817h-492q-116 0 -116 -127q0 -116 94 -257q70 -104 178 -205q90 -84 104 -84l-166 -144q-12 0 -118 110q-129 133 -211 264q-112 180 -112 321q0 160 104 243q76 60 164 60h571v246h-978v189h1405v-189zM1443 -594l-76 -107l-549 370l167 178 z"/>
            <glyph horiz-adv-x="1521"
                   d="M1546 1244h-181v-1244h-246v415q-192 -161 -469 -161q-288 0 -473 191q-157 163 -154 344q116 -34 226 -34q136 0 229 65q110 77 110 220q0 235 -192 235q-125 0 -125 -110q0 -44 40 -75q37 -29 76 -27v-161q-8 -1 -20 -1q-100 0 -188 53q-125 75 -125 225q0 125 104 205 q99 76 238 75q180 -1 309 -130t129 -309q0 -179 -142 -312q-137 -128 -308 -128q88 -142 277 -142q143 0 291 109q100 75 167 166v531h-214v189h641v-189zM1589 -594l-76 -107l-549 370l167 178z"/>
            <glyph horiz-adv-x="1389"
                   d="M1419 1244h-300v-396h-545q-66 0 -117 -50q-56 -53 -56 -134q0 -265 424 -265q0 226 193 226q70 0 122.5 -48t52.5 -122q0 -134 -127 -206q0 -9 51 -127q26 -61 48 -96q17 -25 17 -23l-221 -51q0 -2 -9 16q-14 27 -33 86q-31 95 -34 152q-25 -1 -56 -1q-238 0 -410 74 q-280 120 -280 408q0 151 110 252q103 96 243 96h379v209h-871v189h1419v-189zM1309 -657l-77 -107l-548 370l167 178z"/>
            <glyph horiz-adv-x="1391"
                   d="M1405 1244h-181v-1244h-246v353q-179 -133 -424 -133q-167 0 -275 88q-115 94 -115 255q0 129 127 226q-9 0 -62 45q-69 59 -112 132q-60 101 -60 213q0 143 94 216q81 64 214 64q143 0 229 -89q79 -83 79 -208q0 -22 -3 -45h-181q3 19 3 42q0 136 -105 136 q-110 0 -110 -136q0 -186 164 -288q-14 0 56 18t156 18q70 0 88 -2l76 -159q-30 3 -68 3q-348 0 -348 -195q0 -158 187 -158q207 0 390 188v660h-215v189h642v-189zM1469 -594l-76 -107l-549 370l167 178z"/>
            <glyph horiz-adv-x="1391"
                   d="M1405 1244h-181v-1244h-246v707h-424v-178q0 -54 -5 -66q-14 -36 -74 -36q-64 0 -193 154q-127 151 -127 219q0 62 46 91q27 16 53 16h724v337h-978v189h1405v-189zM1443 -594l-76 -107l-549 370l167 178z"/>
            <glyph horiz-adv-x="1269"
                   d="M1292 1244h-181v-1244h-246v537q-138 -76 -254 -76q-196 0 -316 112q-108 102 -108 244v427h-187v189h1292v-189zM865 765v479h-435v-396q0 -209 189 -209q136 0 246 126zM1349 -594l-76 -107l-549 370l167 178z"/>
            <glyph horiz-adv-x="1769"
                   d="M1798 1244h-780v-283q114 76 237 76q161 0 272 -97q115 -100 115 -253q0 -136 -72 -273q-53 -101 -137 -189q-66 -69 -82 -72l-192 133q9 0 63 50q71 65 115 141q62 105 62 216q0 69 -41.5 113.5t-108.5 44.5q-88 0 -165 -72q-66 -61 -66 -101v-678h-246v478 q-99 -71 -215 -71q-226 0 -325 165q-62 103 -62 231v441h-170v189h1798v-189zM772 727v517h-362v-450q0 -101 22 -143q34 -66 136 -66q61 0 134 59q65 53 70 83zM1246 -594l-76 -107l-549 370l167 178z"/>
            <glyph horiz-adv-x="1269"
                   d="M1292 1244h-181v-1244h-246v342q-153 -85 -314 -85q-174 0 -302 106q-144 119 -144 310t149 301q131 97 320 97q113 0 186 -22l23 -167q-83 23 -175 23q-110 0 -173 -48l430 -265v652h-865v189h1292v-189zM823 492l-458 285q-31 -37 -31 -116q0 -110 80 -173 q75 -58 191 -58q69 0 149.5 31t68.5 31zM1336 -594l-76 -107l-549 370l167 178z"/>
            <glyph horiz-adv-x="1413"
                   d="M1433 1244h-181v-1244h-246v582h-316v-192q0 -79 -94 -79q-48 0 -223 159q-178 162 -178 220q0 87 91 87h169v402q0 107 -113 107q-102 0 -102 -107q0 -37 13 -74t13 -31h-173q-28 67 -28 127q0 130 85 199q78 64 212 64q145 0 236.5 -77t91.5 -203v-407h316v467h-214 v189h641v-189zM1483 -594l-76 -107l-548 370l166 178z"/>
            <glyph horiz-adv-x="1360"
                   d="M1377 1244h-181v-1244h-246v625h-379v-153q0 -93 -76 -93q-64 0 -217.5 142.5t-153.5 205.5q0 50 44 72q25 12 47 12h119v433h-334v189h1377v-189zM950 1244h-379v-433h379v433zM1429 -594l-76 -107l-549 370l167 178z"/>
            <glyph horiz-adv-x="1391"
                   d="M1405 1244h-181v-1244h-246v335q-144 -69 -274 -69q-257 0 -409 153q-151 150 -151 398q28 -4 62 -4q266 0 266 207q0 64 -41 142q-35 65 -61 82h-370v189h1405v-189zM978 1244h-365q97 -131 97 -257q0 -208 -147 -294q-61 -35 -147 -43q34 -212 262 -212q154 0 300 116 v690zM1469 -594l-76 -107l-549 370l167 178z"/>
            <glyph horiz-adv-x="1155"
                   d="M1179 1244h-243v-351q0 -128 -96 -198q-85 -62 -246 -62q0 -4 59 -88q64 -94 105 -144q59 -72 157 -174q87 -90 94 -94l-178 -147l-137 157q-159 189 -276 357l-193 289q-95 148 -95 152l187 122q0 -30 73 -124q94 -122 204 -122q99 0 99 110v317h-693v189h1179v-189z M1246 -594l-76 -107l-549 370l167 178z"/>
            <glyph horiz-adv-x="1665"
                   d="M1688 1244h-181v-1244h-246v776q-121 -31 -187 -115q-47 -60 -80 -141q-24 -62 -24 -82l-198 85q0 13 39 107q7 16 27 49q19 30 19 31q-14 29 -62 61q-76 52 -176 49q-212 -6 -212 -232q0 -119 106 -228q77 -77 199 -141q93 -49 108 -49l-110 -187q-24 0 -147 69 q-159 89 -260 201q-139 155 -139 327q0 219 137 332q118 97 307 97q119 0 235 -54q96 -45 144 -101q64 50 118.5 73t155.5 40v277h-1261v189h1688v-189zM1736 -594l-76 -107l-548 370l166 178z"/>
            <glyph horiz-adv-x="1266"
                   d="M1292 1244h-181v-1244h-246v383q-138 -78 -283 -78q-191 0 -314 93q-138 105 -138 295q0 166 128 268q120 96 299 96q92 0 164 -22l37 -181q-65 42 -159 42q-95 0 -157 -53q-66 -57 -66 -153q0 -215 232 -215q138 0 257 123v646h-865v189h1292v-189zM1336 -594l-76 -107 l-549 370l167 178z"/>
            <glyph horiz-adv-x="1674"
                   d="M1688 1244h-181v-1244h-246v1244h-334q99 -122 99 -266q0 -323 -230 -461q-97 -57 -231 -73l156 -127q97 -76 206 -153l-141 -181q-111 74 -356 294q-74 67 -184 176q-99 98 -99 101l155 156l91 -85q44 -14 107 -14q228 0 258 243q-122 -46 -193 -46q-149 0 -245 75 q-102 81 -102 222q0 76 53 139h-271v189h1688v-189zM777 1080q-35 178 -206 178q-55 0 -94 -41.5t-39 -97.5q0 -64 47 -103q44 -38 114 -38q126 0 178 102zM1723 -594l-76 -107l-548 370l167 178z"/>
            <glyph horiz-adv-x="1249"
                   d="M1264 1244h-181v-1244h-246v464q-124 -63 -238 -63q-172 0 -298 116t-126 283v444h-175v189h1264v-189zM837 1244h-419l419 -419v419zM817 664l-401 402v-297q0 -77 57.5 -130.5t137.5 -53.5q113 0 206 79zM1309 -594l-77 -107l-548 370l167 178z"/>
            <glyph horiz-adv-x="1611"
                   d="M1631 1244h-181v-1244h-246v650h-215l-132 184h347v410h-362v-351q0 -145 -93 -206q-38 -25 -111 -42q-54 -12 -73 -12q0 -3 60 -88q66 -94 107 -144l218 -246l-192 -141q-88 107 -365 486q-83 119 -179 281q-81 137 -81 143l184 119q0 -21 57 -114q67 -112 126 -112 q99 0 99 110v317h-599v189h1631v-189zM1669 -594l-76 -107l-549 370l167 178z"/>
            <glyph horiz-adv-x="1278"
                   d="M1300 1244h-226v-359h-625q-46 0 -46 -41q0 -24 27 -55q95 -111 118 -111q-11 0 61 13t137 13q163 0 278 -68q132 -78 132 -212q0 -155 -138 -237l-178 113q84 27 84 118q0 105 -192 105q-131 0 -214 -56q-88 -61 -88 -165q0 -116 125 -194q92 -58 235 -87 q119 -24 134 -15l-73 -164q-24 -10 -178 31q-194 51 -317 144q-169 128 -169 317q0 105 83 200q66 74 86 74q-25 0 -110 101q-99 119 -99 218q0 57 43 96.5t101 39.5h551v181h-842v189h1300v-189zM1038 -678l-76 -107l-549 370l167 178z"/>
            <glyph horiz-adv-x="1659"
                   d="M1685 1244h-399v-249q280 -112 280 -430q0 -198 -109 -329q-110 -134 -284 -134q-226 0 -331 206q-105 -201 -325 -201q-176 0 -281.5 125t-105.5 331q0 192 107 318q111 129 286 128q214 -2 325 -189q29 57 88 107q81 68 113 68v249h-1049v189h1685v-189zM1334 563 q0 271 -183 271q-85 0 -153 -127q-51 -96 -51 -130q-3 -13 18 -82q27 -86 70 -141q58 -74 135 -74q87 0 130 94q34 75 34 189zM741 585q9 46 -53 140q-71 109 -157 109t-134 -89q-41 -75 -41 -182q0 -272 167 -272q81 0 139 72q43 54 66 137q20 69 13 85zM1563 -594 l-76 -107l-548 370l166 178z"/>
            <glyph horiz-adv-x="1532"
                   d="M1556 1244h-181v-1244h-246v729q-142 -42 -253 -42q-209 0 -407 99q-40 -8 -91 -64q-70 -76 -70 -176q0 -127 107 -179q59 -28 131 -28q-7 23 -7 48q0 68 45 122t109 54q87 0 138 -48q48 -46 48 -122q0 -80 -52 -126q-35 -30 -55 -30q20 -31 65 -93q37 -45 102 -116 l-162 -113l-93 147l-73 116q-45 -14 -111 -14q-165 0 -294 109q-138 116 -138 281q0 226 232 351q-139 111 -139 282q0 119 96 197q92 75 221 75q140 0 246 -84q110 -88 110 -216q0 -142 -161 -257q77 -31 200 -31q126 0 256 64v309h-215v189h642v-189zM602 1159 q0 60 -32 98q-35 41 -92 41q-48 0 -82 -35t-34 -84q0 -118 107 -178q19 0 69 41q64 53 64 117zM1599 -594l-77 -107l-548 370l167 178z"/>
            <glyph horiz-adv-x="1652"
                   d="M1675 1244h-181v-1244h-246v905h-731q-35 0 -35 -28q0 -24 32 -66q44 -58 60 -73q28 -24 67 -24q36 0 105 21q55 17 110 17q102 0 165 -55q73 -62 73 -180q0 -135 -85 -235q-63 -73 -162 -118q-75 -34 -98 -31q31 -41 76 -71q66 -44 111 -54l-142 -161q-57 35 -164 122 q-52 42 -121 116q-30 -6 -79 -6q-103 0 -174 49q-81 55 -81 152q0 55 40 92.5t96 37.5q57 0 157 -69q89 -62 89 -72q2 -1 10 -1q77 0 164 42q126 61 126 176q0 73 -75 73q-32 0 -112.5 -18t-115.5 -18q-96 0 -223 145q-130 147 -130 265q0 65 48.5 110t115.5 45h883v156 h-1248v189h1675v-189zM1732 -594l-77 -107l-548 370l167 178z"/>
            <glyph horiz-adv-x="1193"
                   d="M1425 707q-65 31 -173 31q-64 0 -143 -83q-66 -70 -66 -87v-568h-243v339l-528 -398l-139 187l267 165q-112 44 -177 141q-68 103 -68 244q0 269 245 366q110 44 247 44l54 -192q-314 6 -314 -212q0 -104 52 -163.5t138 -59.5q91 0 166 65q57 51 57 68v650h-800v189h1233 v-189h-190v-421q0 13 62 53q79 51 164 51q51 0 107 -15.5t49 -15.5v-189z"/>
            <glyph horiz-adv-x="1300"
                   d="M1524 551l-699 -229l-130 147l393 88q-25 0 -77 60q-75 85 -75 214q0 133 106 211q96 71 233 69q33 0 99 -17l54 -147q4 0 -39 5.5t-69 5.5q-60 0 -105 -46t-45 -109q0 -70 37 -113q40 -48 113 -48q100 0 204 104v-195zM1524 237q8 0 -75 -52q-94 -59 -197 -96 q-145 -52 -288 -52q-327 0 -541 190q-164 144 -248 382q-59 167 -59 293l175 99q-2 -4 -2 -12q0 -47 35 -103q44 -69 109 -69q63 0 83 54q10 30 10 110v263h-526v189h1343v-189h-571v-348q0 -112 -76 -182q-72 -67 -179 -67q-35 0 -93.5 13t-53.5 13q0 -31 47 -131 q69 -143 177 -233q150 -125 356 -125q263 0 574 232v-179z"/>
            <glyph horiz-adv-x="786"
                   d="M825 1244h-169v-605q0 -122 -91 -122q-55 0 -214 125.5t-159 174.5q0 33 26 56t59 23h130v348h-407v189h825v-189zM1004 418l-591 -424l-156 198l747 388v-162z"/>
            <glyph horiz-adv-x="905"
                   d="M1128 407l-687 -438l-139 184q5 0 189.5 79t178.5 79q-161 0 -283 66q-142 78 -141 211q1 158 147 237q-95 28 -152 99.5t-57 169.5q0 80 45 150h-229v189h944v-189h-480q-57 -45 -57 -127q0 -66 53 -110q50 -43 120 -43h223l90 -178h-198q-77 0 -136 -49t-59 -121 q0 -80 66 -130q62 -48 149 -48q140 0 279 69q113 56 134 98v-198z"/>
            <glyph horiz-adv-x="1745"
                   d="M1654 780h-243v221h243v-221zM1785 1244h-536v-351h-503q-41 0 -41 -27q0 -14 13 -35q28 -44 79 -94q69 -67 113 -67q61 0 151.5 32.5t139.5 32.5q91 0 142 -88q45 -77 45 -192q0 -333 -320 -408l373 -320l-150 -159l-362 385l-367 -413l-187 133l396 383 q-173 51 -348 204q-129 111 -242 260q-91 120 -91 136l156 144q0 -16 101 -158q126 -176 255 -287q181 -154 339 -154q100 0 157.5 68t57.5 186q0 86 -52 86q-14 0 -30 -7q-123 -56 -226 -56q-96 0 -241 146q-157 157 -158 300q-1 59 42 100.5t103 41.5h418v178h-1012v189 h1785v-189zM1411 -851l-76 -107l-548 370l166 178z"/>
            <glyph horiz-adv-x="902"
                   d="M941 1244h-941v189h941v-189zM1125 441l-808 -464l-139 187l379 181q-104 -6 -209 59q-133 81 -133 224q0 168 155 243h-330v183h825v-181h-184q-31 0 -98 -50q-91 -68 -91 -164q0 -201 218 -201q109 0 271 99q144 88 144 110v-226z"/>
            <glyph horiz-adv-x="1633"
                   d="M1659 1244h-339v-181q47 0 109 -48q106 -83 106 -260q0 -205 -178 -406q-174 -197 -413 -274l390 -334l-150 -158l-362 384l-368 -413l-186 133l371 359q-176 26 -287 136q-123 122 -123 310q0 165 150 285q-55 8 -131 77q-101 92 -101 212q0 93 68 178h-215v189h1659 v-189zM1303 763q0 62 -28 103q-31 44 -82 44q-107 0 -107 -161q0 -152 110 -246q20 8 59 82q48 92 48 178zM1094 1071v173h-645q-10 0 -33 -44q-30 -58 -29 -129q2 -103 92 -144q46 -22 95 -22h133l51 -178h-102q-84 0 -138 -69t-54 -163q0 -113 77 -189.5t186 -76.5 q102 0 214 53q91 43 113 74q-18 0 -92 130q-89 158 -89 300q0 226 221 285zM1304 -837l-76 -107l-549 370l167 178z"/>
            <glyph horiz-adv-x="1136"
                   d="M1182 1244h-1182v189h1182v-189zM1363 899h-368q85 -57 85 -167q0 -149 -134 -241q-113 -78 -248 -78q-292 0 -466 290q-73 120 -116 289l201 108q-11 -7 28 -140q44 -154 117 -253q99 -136 233 -136q65 0 109 45t44 119q0 125 -92 248q-75 100 -97 100h704v-184z M1365 407l-607 -430l-184 187l791 387v-144z"/>
            <glyph horiz-adv-x="1283"
                   d="M1507 311l-365 -294l-138 170l503 294v-170zM1507 642q11 0 -109 -41t-194 -44q-95 -4 -186 14q0 -173 -63 -271q-40 -62 -138 -118q-77 -45 -107 -49l107 -65q34 -21 116 -62l-139 -150q-95 38 -183 107l-142 122q-30 -6 -82 -6q-103 0 -174 49q-80 55 -80 152 q0 54 41 92t97 38q57 0 157 -69q89 -62 89 -72q10 -7 77 8q82 17 135 58q71 55 71 143q0 80 -72 80q-32 0 -114.5 -22t-118.5 -22q-92 0 -218 155q-124 152 -124 258q0 63 45.5 108t109.5 45h396v164h-704v189h1323v-189h-393v-348h-466q-37 0 -37 -28q0 -24 31 -65 q74 -99 138 -99q41 0 111 23q65 21 127 21q61 0 137.5 -23.5t97.5 -23.5q114 0 227 38q80 27 153 71q64 38 58 38v-206z"/>
            <glyph horiz-adv-x="1018"
                   d="M1057 1244h-1057v189h1057v-189zM1238 599q-63 -34 -113 -34q-31 0 -86 11.5t-50 11.5q0 -80 -91 -186q-128 -150 -347 -150q-199 0 -452 181l133 161q12 -30 94 -87q109 -77 217 -77q101 0 162 77.5t58 193.5q-3 94 -57 146q-50 49 -132 49q-55 0 -147 -48l-139 178 q108 54 269 54q182 0 311 -93q136 -98 136 -246q-1 0 42 -3t65 -3q56 0 127 51v-187zM1237 297l-533 -467l-156 198l689 431v-162z"/>
            <glyph horiz-adv-x="1364"
                   d="M1385 1244h-283v-413h-522q-82 0 -133 -62t-51 -158q0 -150 130 -271q125 -117 268 -117q84 0 174 56q99 61 143 154l187 -131q-138 -197 -345 -245l353 -303l-149 -158l-362 384l-368 -413l-186 133l375 363q-200 55 -330 214q-133 162 -133 362q0 166 109 271 q106 102 264 102h345v232h-871v189h1385v-189zM1277 -824l-76 -107l-549 370l167 178z"/>
            <glyph horiz-adv-x="1389"
                   d="M1411 1244h-309v-413h-522q-82 0 -133 -62t-51 -158q0 -147 138 -271q129 -117 260 -117q97 0 171 50q92 63 92 182q0 144 -93 215l161 133q150 -129 150 -317q0 -162 -103 -280q-95 -110 -247 -149l369 -316l-150 -158l-362 384l-368 -413l-186 133l392 380 q-193 60 -326 215q-143 165 -141 357q2 167 110 271q105 102 263 102h345v232h-871v189h1411v-189zM1264 -837l-76 -107l-549 370l167 178z"/>
            <glyph horiz-adv-x="1523"
                   d="M1546 1244h-248v-351h-535q-41 0 -41 -27q0 -14 13 -35q28 -44 79 -94q69 -67 113 -67q61 0 156 32.5t144 32.5q91 0 142 -88q44 -77 44 -192q0 -346 -340 -413l368 -315l-150 -159l-362 385l-367 -413l-187 133l402 388q-168 55 -339 206q-125 111 -234 257 q-88 116 -88 132l155 144q0 -16 101 -158q127 -176 257 -287q181 -154 341 -154q100 0 156 67.5t56 186.5q0 86 -50 86q-14 0 -30 -7q-123 -56 -237 -56q-96 0 -240 146q-156 157 -156 300q0 57 42.5 99.5t99.5 42.5h452v178h-1063v189h1546v-189zM1411 -851l-76 -107 l-548 370l166 178z"/>
            <glyph horiz-adv-x="1389"
                   d="M1413 1244h-288v-413h-517q-87 0 -151 -62.5t-64 -149.5q0 -146 133 -283q117 -121 198 -121q-63 86 -63 203q0 119 92 201t217 82q128 0 223.5 -84t95.5 -207q0 -143 -98 -246q-88 -94 -229 -130l359 -307l-150 -159l-362 385l-367 -413l-187 133l384 372 q-207 63 -348 238q-136 169 -136 347q0 157 111 269.5t268 112.5h345v232h-879v189h1413v-189zM1066 401q0 51 -32 90.5t-79 39.5q-49 0 -81 -41t-32 -94q0 -58 27 -109.5t64 -68.5q51 7 92 60t41 123zM1291 -851l-76 -107l-548 370l166 178z"/>
            <glyph horiz-adv-x="1020"
                   d="M1060 1244h-88v-472q0 -133 -117 -238.5t-270 -105.5q-163 0 -284 112q-114 105 -114 232v472h-187v189h1060v-189zM727 772v472h-294v-472q0 -152 152 -152q142 0 142 152zM1291 418l-591 -424l-155 198l746 388v-162z"/>
            <glyph horiz-adv-x="879"
                   d="M919 1244h-919v189h919v-189zM1100 464l-608 -393l-147 183l596 354q-198 263 -311 263q-40 0 -214 -80q-168 -76 -176 -90l-124 187q9 14 215 96q224 90 302 90q87 0 208 -94q87 -67 181 -174q78 -89 78 -96v-246z"/>
            <glyph horiz-adv-x="916"
                   d="M1145 396l-769 -436l-139 187q6 0 239.5 90.5t227.5 90.5q-253 0 -420 115q-119 83 -184 217l-46 123q43 -13 203 -28q132 -1 229 69q110 80 110 216q0 235 -192 235q-124 0 -124 -110q0 -44 40 -75q37 -29 76 -27v-161q-8 -1 -20 -1q-100 0 -188 53q-126 75 -126 225 q0 125 104 205q99 76 238 75q180 -1 309 -130t129 -309q0 -227 -224 -339q-136 -68 -231 -68q158 -141 373 -141q140 0 270 76q86 51 115 91v-243z"/>
            <glyph horiz-adv-x="1399"
                   d="M1419 1244h-300v-351h-537q-71 0 -118 -47q-51 -49 -51 -131q0 -166 215 -238q89 -30 214 -39q-1 12 -1 28q0 207 194 207q61 0 104 -44t43 -106q0 -139 -150 -189q0 -9 21 -79q26 -92 58 -167q28 -65 57 -119q22 -41 22 -40l-226 -28q0 -18 -54 175q-9 33 -39 164 l-653 -330l-128 189l574 201q-143 31 -244 86q-245 133 -245 366q0 167 98 250q83 69 219 69h393v173h-885v189h1419v-189zM1309 -657l-77 -107l-548 370l167 178z"/>
            <glyph horiz-adv-x="783"
                   d="M1012 427q0 -3 -729 -450l-139 187l387 127q-97 0 -185 38q-182 79 -182 284q0 129 127 227q-10 0 -66 40q-74 51 -121 114q-64 88 -64 185q0 141 94 215q82 65 214 65q143 0 229 -90q79 -84 79 -208q0 -22 -3 -44h-181q4 20 4 42q0 136 -114 136q-102 0 -102 -136 q0 -114 91 -186q64 -51 98 -51q-12 0 60 18t147 18q58 0 85 -3l76 -158q-30 3 -67 3q-343 0 -343 -195q0 -87 69 -129q49 -29 112 -29q149 0 299 102q119 80 125 112v-234z"/>
            <glyph horiz-adv-x="772"
                   d="M811 1244h-811v189h811v-189zM995 735h-452v-158q0 -54 -5 -66q-14 -36 -74 -36q-65 0 -192.5 143t-127.5 210q0 62 46 91q28 17 53 17h752v-201zM995 359l-605 -353l-138 186l743 328v-161z"/>
            <glyph horiz-adv-x="636"
                   d="M871 540l-608 -500l-156 155l475 288q-17 -2 -34 -2q-136 0 -244 92q-117 99 -117 244v427h-187v189h676v-189h-246v-396q0 -203 189 -203q137 0 252 118v-223z"/>
            <glyph horiz-adv-x="1179"
                   d="M1419 727q-74 33 -158 33q-89 0 -171 -71q-72 -62 -72 -101v-588h-246v478l-542 -432l-155 155l359 219q-130 30 -199 132q-65 95 -65 231v462h-170v188h1218v-188h-200v-391l74 52q85 47 174 47q61 0 112.5 -18.5t40.5 -18.5v-189zM772 727v518h-362v-451 q0 -101 22 -143q34 -66 136 -66q121 0 204 142z"/>
            <glyph horiz-adv-x="639"
                   d="M678 1244h-678v189h678v-189zM885 353q0 -3 -614 -381l-138 186l367 130q-145 11 -251 88q-142 105 -142 297q0 186 141 297q131 101 326 101q113 0 186 -14l23 -175q-94 23 -175 23q-89 0 -167 -43l444 -277v-232zM823 492l-458 285q0 6 -11.5 -31.5t-11.5 -84.5 q0 -112 80 -173q71 -55 183 -55q69 0 149.5 29.5t68.5 29.5z"/>
            <glyph horiz-adv-x="831"
                   d="M1054 687h-359v-164q0 -21 -16 -43q-27 -36 -88 -36q-46 0 -208.5 139.5t-162.5 182.5q0 54 31 78q18 15 35 15h175v337q0 41 -38 67q-33 24 -75 23q-96 -2 -96 -107q0 -37 11 -74t11 -31h-169q-23 72 -23 127q0 128 79 197q75 66 206 66q145 0 236.5 -77t91.5 -203v-325 h359v-172zM1052 367l-614 -384l-138 170l752 353v-139z"/>
            <glyph horiz-adv-x="772"
                   d="M1001 693h-430v-153q0 -93 -76 -93q-64 0 -217.5 142t-153.5 205q0 50 44 72q26 13 47 13h119v365h-334v189h811v-189h-240v-365h430v-186zM1001 356l-631 -367l-138 186l769 331v-150z"/>
            <glyph horiz-adv-x="777"
                   d="M998 390l-608 -413l-138 187l344 175q-62 -8 -157 33q-122 51 -198 155q-97 133 -97 330q42 -8 89 -8q239 0 239 194q0 63 -41 130q-32 52 -61 71h-370v189h817v-189h-204q97 -109 97 -235q0 -198 -147 -278q-61 -34 -147 -41q34 -207 262 -207q165 0 320 133v-226z"/>
            <glyph horiz-adv-x="642"
                   d="M681 1244h-681v189h681v-189zM876 390l-616 -384l-138 186l390 150q-111 10 -189 49q-190 95 -190 319q0 165 126 259q117 88 298 88q106 0 175 -22l26 -184q-65 45 -159 45q-95 0 -156 -53q-64 -57 -64 -153q0 -102 71 -158q63 -49 158 -49q144 0 268 128v-221z"/>
            <glyph horiz-adv-x="1786"
                   d="M1806 1244h-763v-342q-3 0 30 27q39 32 84 51q65 27 138 26q157 -1 268 -111t111 -267q0 -125 -74 -262q-52 -98 -137 -192q-67 -75 -75 -75l-178 136q7 0 59 54q66 67 107 138q57 98 57 189q0 84 -39 139q-45 62 -128 62q-91 0 -166 -83q-57 -64 -57 -87v-647h-243v373 q0 -3 -523 -381l-170 163l376 170q-73 0 -165 57q-163 100 -163 319q0 232 185 329q113 59 270 59q19 0 37 -1l54 -192q-25 9 -73 9q-93 0 -156 -40q-85 -54 -85 -170q0 -90 52 -142.5t138 -52.5q91 0 166 51q57 40 57 54v639h-800v189h1806v-189z"/>
            <glyph horiz-adv-x="1929"
                   d="M1944 1245h-181v-1245h-246v233q-259 -196 -553 -196q-327 0 -541 190q-164 144 -248 382q-59 167 -59 293l175 99q-2 -4 -2 -12q0 -47 35 -103q44 -69 109 -69q63 0 83 54q10 30 10 110v263h-526v189h1944v-188zM1517 411v138l-692 -227l-130 147l393 88q-25 0 -77 60 q-75 85 -75 214q0 133 106 211q96 71 233 69q33 0 99 -17l54 -147q4 0 -39 5.5t-69 5.5q-60 0 -105 -46t-45 -109q0 -70 37 -113q40 -48 113 -48q98 0 197 98v505l-745 -1v-348q0 -112 -76 -182q-72 -67 -179 -67q-35 0 -93.5 13t-53.5 13q0 -31 47 -131q69 -143 177 -233 q150 -125 356 -125q269 0 567 227z"/>
            <glyph horiz-adv-x="1414"
                   d="M1429 1245h-181v-1245h-246v415l-589 -421l-156 198l745 390v663l-346 -1v-605q0 -122 -91 -122q-55 0 -214 125.5t-159 174.5q0 33 26 56t59 23h130v348h-407v189h1429v-188z"/>
            <glyph horiz-adv-x="1529"
                   d="M1546 1245h-181v-1245h-246v401l-678 -432l-139 184q5 0 189.5 79t178.5 79q-161 0 -283 66q-142 78 -141 211q1 158 147 237q-95 28 -152 99.5t-57 169.5q0 80 45 150h-229v189h1546v-188zM1119 1245l-655 -1q-57 -45 -57 -127q0 -66 53 -110q50 -43 120 -43h223 l90 -178h-198q-77 0 -136 -49t-59 -121q0 -80 66 -130q62 -48 149 -48q129 0 258 59q103 47 146 96v652z"/>
            <glyph horiz-adv-x="1745"
                   d="M1654 780h-243v221h243v-221zM1785 1244h-536v-351h-503q-41 0 -41 -27q0 -14 13 -35q28 -44 79 -94q69 -67 113 -67q61 0 151.5 32.5t139.5 32.5q91 0 142 -88q45 -77 45 -192q0 -333 -320 -408l373 -320l-150 -159l-362 385l-367 -413l-187 133l396 383 q-173 51 -348 204q-129 111 -242 260q-91 119 -91 136l156 144q0 -16 101 -158q126 -176 256 -287q180 -154 338 -154q100 0 157.5 68t57.5 186q0 86 -52 86q-14 0 -30 -7q-123 -56 -226 -56q-96 0 -241 146q-157 157 -158 300q-1 59 42 100.5t103 41.5h418v178h-1012v189 h1785v-189z"/>
            <glyph horiz-adv-x="1523"
                   d="M1540 1245h-181v-1245h-246v434l-796 -457l-139 187l379 181q-104 -6 -209 59q-133 81 -133 224q0 168 155 243h-330v183h825v-181h-184q-31 0 -98 -50q-91 -68 -91 -164q0 -201 218 -201q96 0 238 80q105 59 165 115v592l-1113 -1v189h1540v-188z"/>
            <glyph horiz-adv-x="1633"
                   d="M1659 1244h-339v-181q47 0 109 -48q106 -83 106 -260q0 -205 -178 -406q-174 -197 -413 -274l390 -334l-150 -158l-362 384l-368 -413l-186 133l371 359q-176 26 -287 136q-123 122 -123 310q0 165 150 285q-55 8 -131 77q-101 92 -101 212q0 93 68 178h-215v189h1659 v-189zM1303 763q0 62 -28 103q-31 44 -82 44q-107 0 -107 -161q0 -152 110 -246q20 8 59 82q48 92 48 178zM1094 1071v173h-645q-10 0 -33 -44q-30 -58 -29 -129q2 -103 92 -144q46 -22 95 -22h133l51 -178h-102q-84 0 -138 -69t-54 -163q0 -113 77 -189.5t186 -76.5 q102 0 214 53q91 43 113 74q-18 0 -92 130q-89 158 -89 300q0 226 221 285z"/>
            <glyph horiz-adv-x="1757"
                   d="M1775 1245h-181v-1245h-246v395l-590 -418l-184 187l774 379v356h-353q85 -57 85 -167q0 -149 -134 -241q-113 -78 -248 -78q-292 0 -466 290q-73 120 -116 289l201 108q-11 -7 28 -140q44 -154 117 -253q99 -136 233 -136q65 0 109 45t44 119q0 125 -92 248 q-75 100 -97 100h689v162l-1348 -1v189h1775v-188z"/>
            <glyph horiz-adv-x="1906"
                   d="M1927 1245h-181v-1245h-246v306l-358 -289l-138 170l496 290v162q-69 -28 -121 -44q-107 -35 -175 -38q-95 -4 -186 14q0 -173 -63 -271q-40 -62 -138 -118q-77 -45 -107 -49l107 -65q34 -21 116 -62l-139 -150q-95 38 -183 107l-142 122q-30 -6 -82 -6q-103 0 -174 49 q-80 55 -80 152q0 54 41 92t97 38q57 0 157 -69q89 -62 89 -72q10 -7 77 8q82 17 135 58q71 55 71 143q0 80 -72 80q-32 0 -114.5 -22t-118.5 -22q-92 0 -218 155q-124 152 -124 258q0 63 45.5 108t109.5 45h396v164h-704v189h1927v-188zM1500 843v402l-570 -1v-348h-466 q-37 0 -37 -28q0 -24 31 -65q74 -99 138 -99q41 0 111 23q65 21 127 21q61 0 137.5 -23.5t97.5 -23.5q233 0 431 142z"/>
            <glyph horiz-adv-x="1649"
                   d="M1664 1245h-181v-1245h-246v312l-498 -394l-155 198l653 363v162q-77 -42 -112 -42q-31 0 -86 11.5t-50 11.5q0 -80 -91 -187q-128 -150 -347 -150q-199 0 -452 181l133 161q12 -30 94 -87q109 -77 217 -77q100 0 163 79q60 77 57 193q-3 94 -57 146q-50 49 -132 49 q-55 0 -147 -48l-139 178q108 54 269 54q182 0 311 -94q136 -98 136 -246q-1 0 42 -2.5t65 -2.5q45 0 126 54v422l-1237 -1v189h1664v-188z"/>
            <glyph horiz-adv-x="1364"
                   d="M1385 1244h-283v-413h-522q-82 0 -133 -62t-51 -158q0 -150 130 -271q125 -117 268 -117q84 0 174 56q99 61 143 154l187 -131q-138 -197 -345 -245l353 -303l-149 -158l-362 384l-368 -413l-186 133l375 363q-200 55 -330 214q-133 162 -133 362q0 166 109 271 q106 102 264 102h345v232h-871v189h1385v-189z"/>
            <glyph horiz-adv-x="1389"
                   d="M1411 1244h-309v-413h-522q-82 0 -133 -62t-51 -158q0 -147 138 -271q129 -117 260 -117q97 0 171 50q92 63 92 182q0 144 -93 215l161 133q150 -129 150 -317q0 -162 -103 -280q-95 -110 -247 -149l369 -316l-150 -158l-362 384l-368 -413l-186 133l392 380 q-193 60 -326 215q-143 165 -141 357q2 167 110 271q105 102 263 102h345v232h-871v189h1411v-189z"/>
            <glyph horiz-adv-x="1523"
                   d="M1546 1244h-248v-351h-535q-41 0 -41 -27q0 -14 13 -35q28 -44 79 -94q69 -67 113 -67q61 0 156 32.5t144 32.5q91 0 142 -88q44 -77 44 -192q0 -346 -340 -413l368 -315l-150 -159l-362 385l-367 -413l-187 133l402 388q-168 55 -339 206q-125 111 -234 257 q-88 116 -88 132l155 144q0 -16 101 -158q127 -176 257 -287q181 -154 341 -154q100 0 156 67.5t56 186.5q0 86 -50 86q-14 0 -30 -7q-123 -56 -237 -56q-96 0 -240 146q-156 157 -156 300q0 57 42.5 99.5t99.5 42.5h452v178h-1063v189h1546v-189z"/>
            <glyph horiz-adv-x="1389"
                   d="M1413 1244h-288v-413h-517q-87 0 -151 -62.5t-64 -149.5q0 -146 133 -283q117 -121 198 -121q-63 86 -63 203q0 119 92 201t217 82q128 0 223.5 -84t95.5 -207q0 -143 -98 -247q-88 -93 -229 -129l359 -307l-150 -159l-362 385l-367 -413l-187 133l384 372 q-207 63 -348 238q-136 169 -136 347q0 157 111 269.5t268 112.5h345v232h-879v189h1413v-189zM1066 401q0 51 -32 90.5t-79 39.5q-49 0 -81 -41t-32 -94q0 -58 27 -109.5t64 -68.5q51 7 92 60t41 123z"/>
            <glyph horiz-adv-x="1643"
                   d="M1660 1245h-181v-1245h-246v377l-533 -383l-155 198l688 357v696q-46 0 -132 -1h-129v-472q0 -133 -117 -238.5t-270 -105.5q-163 0 -284 112q-114 105 -114 232v472h-187v189h1660v-188zM727 772v472h-294v-472q0 -152 152 -152q142 0 142 152z"/>
            <glyph horiz-adv-x="1500"
                   d="M1517 1245h-181v-1245h-246v458l-598 -387l-147 183l596 354q-198 263 -311 263q-40 0 -214 -80q-168 -76 -176 -90l-124 187q9 14 215 96q224 90 302 90q111 0 275 -152q100 -92 182 -200v523l-1090 -1v189h1517v-188z"/>
            <glyph horiz-adv-x="1540"
                   d="M1555 1245h-181v-1245h-246v386l-752 -426l-139 187q6 0 239.5 90.5t227.5 90.5q-253 0 -420 115q-119 83 -184 217l-46 123q43 -13 203 -28q132 -1 229 69q110 80 110 216q0 235 -192 235q-124 0 -124 -110q0 -44 40 -75q37 -29 76 -27v-161q-8 -1 -20 -1 q-100 0 -188 53q-126 75 -126 225q0 125 104 205q99 76 238 75q180 -1 309 -130t129 -309q0 -227 -224 -339q-136 -68 -231 -68q158 -141 373 -141q213 0 368 149v624h-215v188h642v-188z"/>
            <glyph horiz-adv-x="1399"
                   d="M1419 1244h-300v-351h-537q-71 0 -118 -47q-51 -49 -51 -131q0 -166 215 -238q89 -30 214 -39q-1 12 -1 28q0 207 194 207q61 0 104 -44t43 -106q0 -139 -150 -189q0 -9 21 -79q26 -92 58 -167q28 -65 57 -119q22 -41 22 -40l-226 -28q0 -18 -54 175q-9 33 -39 164 l-605 -324l-127 189l525 195q-143 31 -244 86q-245 133 -245 366q0 167 98 250q83 69 219 69h393v173h-885v189h1419v-189z"/>
            <glyph horiz-adv-x="1409"
                   d="M1418 1245h-181v-1245h-246v413l-708 -436l-139 187l387 127q-97 0 -185 38q-182 79 -182 284q0 129 127 227q-10 0 -66 40q-74 51 -121 114q-64 88 -64 185q0 141 94 215q82 65 214 65q143 0 229 -90q79 -84 79 -208q0 -22 -3 -44h-181q4 20 4 42q0 136 -114 136 q-102 0 -102 -136q0 -114 91 -186q64 -51 98 -51q-12 0 60 18t147 18q58 0 85 -3l76 -158q-30 3 -67 3q-343 0 -343 -195q0 -87 69 -129q49 -29 112 -29q124 0 252 72q88 51 151 116v610h-215v188h642v-188z"/>
            <glyph horiz-adv-x="1403"
                   d="M1418 1245h-181v-1245h-246v349l-601 -343l-138 186l739 320v223h-448v-158q0 -54 -5 -66q-14 -36 -74 -36q-65 0 -192.5 143t-127.5 210q0 62 46 91q28 17 53 17h748v309l-991 -1v189h1418v-188z"/>
            <glyph horiz-adv-x="1266"
                   d="M1283 1245h-181v-1245h-246v528l-593 -488l-156 155l475 288q-17 -2 -34 -2q-136 0 -244 92q-117 99 -117 244v427h-187v189h1283v-188zM856 1245l-426 -1v-396q0 -203 189 -203q128 0 237 103v497z"/>
            <glyph horiz-adv-x="1775"
                   d="M1792 1244h-749v-272l69 46q80 42 169 42q158 0 272.5 -111.5t114.5 -267.5q0 -192 -139 -379q-100 -135 -149 -155l-193 133q9 0 61 50q69 65 111 141q60 105 60 216q0 72 -38 124q-41 57 -106 57q-88 0 -166 -83q-66 -70 -66 -112v-673h-243v478l-523 -461l-178 153 l370 268q-17 0 -73 28q-74 38 -116 88q-85 103 -85 249v441h-195v189h1792v-189zM800 727v517h-362v-450q0 -209 156 -209q66 0 138 59q62 52 68 83z"/>
            <glyph horiz-adv-x="1266"
                   d="M1283 1245h-181v-1245h-246v335l-585 -363l-138 186l367 130q-145 11 -251 88q-142 105 -142 297q0 187 141 297q131 101 326 101q113 0 186 -14l23 -175q-94 23 -175 23q-89 0 -167 -43l415 -259v642l-856 -1v189h1283v-188zM823 492l-458 285q0 6 -11.5 -31.5 t-11.5 -84.5q0 -112 80 -173q71 -55 183 -55q69 0 149.5 29.5t68.5 29.5z"/>
            <glyph horiz-adv-x="1449"
                   d="M1466 1245h-181v-1245h-246v360l-601 -377l-138 170l739 347v187h-344v-164q0 -21 -16 -43q-27 -36 -88 -36q-46 0 -208.5 139.5t-162.5 182.5q0 54 31 78q18 15 35 15h175v337q0 41 -38 67q-33 24 -75 23q-96 -2 -96 -107q0 -37 11 -74t11 -31h-169q-23 72 -23 127 q0 128 79 197q75 66 206 66q145 0 236.5 -77t91.5 -203v-325h344v386h-215v188h642v-188z"/>
            <glyph horiz-adv-x="1397"
                   d="M1414 1245h-181v-1245h-246v348l-617 -359l-138 186l755 325v193h-416v-153q0 -93 -76 -93q-64 0 -217.5 142t-153.5 205q0 50 44 72q26 13 47 13h119v365h-334v189h1414v-188zM987 1245l-416 -1v-365h416v366z"/>
            <glyph horiz-adv-x="1409"
                   d="M1424 1245h-181v-1245h-246v389l-607 -412l-138 187l344 175q-62 -8 -157 33q-122 51 -198 155q-97 133 -97 330q42 -8 89 -8q239 0 239 194q0 63 -41 130q-32 52 -61 71h-370v189h1424v-188zM997 615v630l-384 -1q97 -109 97 -235q0 -198 -147 -278q-61 -34 -147 -41 q34 -207 262 -207q174 0 319 132z"/>
            <glyph horiz-adv-x="1271"
                   d="M1286 1245h-181v-1245h-246v380l-599 -374l-138 186l390 150q-111 10 -189 49q-190 95 -190 319q0 165 126 259q117 88 298 88q106 0 175 -22l26 -184q-65 45 -159 45q-95 0 -156 -53q-64 -57 -64 -153q0 -102 71 -158q63 -49 158 -49q132 0 251 111v651l-859 -1v189 h1286v-188z"/>
            <glyph horiz-adv-x="1193"
                   d="M1425 707q-65 31 -173 31q-64 0 -143 -83q-66 -70 -66 -87v-568h-243v339q-116 -76 -237 -76q-175 0 -289 110q-119 115 -119 305q0 269 245 366q110 44 247 44l54 -192q-314 6 -314 -212q0 -104 52 -163.5t138 -59.5q91 0 166 65q57 51 57 68v650h-800v189h1233v-189 h-190v-421q0 13 62 53q79 51 164 51q51 0 107 -15.5t49 -15.5v-189zM330 3h-229v201h229v-201z"/>
            <glyph horiz-adv-x="1286"
                   d="M1510 554q-102 -85 -235 -85q-157 0 -256 87q-102 89 -100 233q2 137 106 228q100 88 239 88q57 0 101 -11l54 -153q7 0 -38.5 5.5t-71.5 3.5q-62 -4 -106 -46q-47 -45 -47 -110q0 -68 41 -110t115 -42q100 0 198 104v-192zM1510 218q7 0 -76 -41q-96 -47 -198 -77 q-143 -41 -281 -41q-288 0 -501 203q-158 151 -257 392q-73 177 -73 256l178 99q-1 -3 -1 -9q0 -44 36 -107q43 -76 96 -76q77 0 94 54q4 15 4 110v263h-531v189h1326v-189h-554v-348q0 -98 -23.5 -145.5t-87.5 -86.5q-41 -25 -119 -27q67 2 -73 2q0 -26 45 -115 q64 -126 162 -205q136 -110 319 -110q242 0 515 201v-192zM330 3h-229v201h229v-201z"/>
            <glyph horiz-adv-x="786"
                   d="M825 1244h-212v-676q0 -121 -90 -121q-55 0 -214 125t-159 174q0 33 26 56t59 23h130v419h-365v189h825v-189zM611 3h-229v201h229v-201z"/>
            <glyph horiz-adv-x="1745"
                   d="M1654 780h-243v221h243v-221zM1785 1244h-536v-351h-503q-41 0 -41 -27q0 -14 13 -35q28 -44 79 -94q69 -67 113 -67q61 0 151.5 32.5t139.5 32.5q91 0 142 -88q45 -77 45 -192q0 -234 -168 -345q-121 -80 -287 -79q-207 1 -425 160q-158 115 -302 297q-116 146 -116 168 l156 144q0 -16 101 -158q126 -176 255 -287q181 -154 339 -154q100 0 157.5 68t57.5 186q0 86 -52 86q-14 0 -30 -7q-123 -56 -226 -56q-96 0 -241 146q-157 157 -158 300q-1 59 42 100.5t103 41.5h418v178h-1012v189h1785v-189zM1393 -594l-76 -107l-549 370l167 178z M330 3h-229v201h229v-201z"/>
            <glyph horiz-adv-x="902"
                   d="M941 1244h-941v189h941v-189zM1122 441q-24 -34 -143 -98q-153 -83 -278 -83q-162 0 -264.5 88t-102.5 229q0 102 64 200q44 68 83 94h-342v183h842v-181h-201q-24 0 -108 -85q-101 -104 -101 -200q0 -147 153 -147q218 0 398 288v-288zM330 3h-229v201h229v-201z"/>
            <glyph horiz-adv-x="1633"
                   d="M1659 1244h-339v-181q47 0 109 -48q106 -83 106 -260q0 -257 -259 -486.5t-549 -228.5q-204 1 -343 114q-155 125 -155 338q0 165 150 285q-55 8 -131 77q-101 92 -101 212q0 93 68 178h-215v189h1659v-189zM1303 763q0 62 -28 103q-31 44 -82 44q-107 0 -107 -161 q0 -152 110 -246q20 8 59 82q48 92 48 178zM1094 1071v173h-645q-10 0 -33 -44q-30 -58 -29 -129q2 -103 92 -144q46 -22 95 -22h133l51 -178h-102q-84 0 -138 -69t-54 -163q0 -113 77 -189.5t186 -76.5q102 0 214 53q91 43 113 74q-18 0 -92 130q-89 158 -89 300 q0 226 221 285zM1246 -594l-76 -107l-549 370l167 178zM370 -197h-229v200h229v-200z"/>
            <glyph horiz-adv-x="1142"
                   d="M1182 1244h-1182v189h1182v-189zM1363 780h-317q68 -136 68 -217q0 -152 -103.5 -261.5t-250.5 -109.5q-306 0 -508 364q-85 151 -142 363l195 124q-12 -6 44 -175q64 -193 148 -318q113 -171 238 -171q143 0 141 175q-1 125 -99 279q-82 131 -101 131h687v-184zM330 3 h-229v201h229v-201z"/>
            <glyph horiz-adv-x="1054"
                   d="M1281 509q2 0 -36.5 -4.5t-57.5 -4.5q-72 0 -152 40q0 -133 -71 -240q-42 -63 -149 -124q-84 -48 -114 -52l107 -65l116 -65l-138 -147q-13 0 -173 108q-111 75 -152 121q-25 -5 -82 -5q-103 0 -174 48q-81 55 -81 152q0 54 41.5 92t97.5 38q57 0 157 -69q89 -62 89 -72 q2 -1 9 -1q77 0 164 42q126 62 126 177q0 73 -75 73q-32 0 -113.5 -18.5t-116.5 -18.5q-92 0 -218 155q-124 152 -124 258q0 63 46 108t110 45h398v164h-715v189h1094v-189h-158v-348h-467q-36 0 -36 -28q0 -24 31 -65q74 -98 140 -98q41 0 111 22q53 17 101 17 q88 0 202 -66q35 -20 82 -20q51 0 117 25l64 27v-201zM330 -250h-229v200h229v-200z"/>
            <glyph horiz-adv-x="1018"
                   d="M1057 1244h-1057v189h1057v-189zM1238 599q-63 -34 -113 -34q-31 0 -86 11.5t-50 11.5q0 -80 -91 -186q-128 -150 -347 -150q-199 0 -452 181l133 161q12 -30 94 -87q109 -77 217 -77q101 0 162 77.5t58 193.5q-3 94 -57 146q-50 49 -132 49q-55 0 -147 -48l-139 178 q108 54 269 54q182 0 311 -93q136 -98 136 -246q-1 0 42 -3t65 -3q56 0 127 51v-187zM330 3h-229v201h229v-201z"/>
            <glyph horiz-adv-x="1364"
                   d="M1385 1244h-283v-413h-522q-82 0 -133 -62t-51 -158q0 -150 130 -271q125 -117 268 -117q84 0 174 56q99 61 143 154l187 -131q-184 -262 -509 -262q-258 0 -447 177t-189 422q0 166 109 271q106 102 264 102h345v232h-871v189h1385v-189zM1246 -594l-76 -107l-549 370 l167 178zM330 -197h-229v200h229v-200z"/>
            <glyph horiz-adv-x="1389"
                   d="M1411 1244h-309v-413h-522q-82 0 -133 -62t-51 -158q0 -147 138 -271q129 -117 260 -117q97 0 171 50q92 63 92 182q0 144 -93 215l161 133q150 -129 150 -317q0 -200 -150 -327q-140 -119 -336 -119q-232 0 -431 177q-207 184 -205 422q2 167 110 271q105 102 263 102 h345v232h-871v189h1411v-189zM1246 -594l-76 -107l-549 370l167 178zM330 -197h-229v200h229v-200z"/>
            <glyph horiz-adv-x="1523"
                   d="M1546 1244h-248v-351h-535q-41 0 -41 -27q0 -14 13 -35q28 -44 79 -94q69 -67 113 -67q61 0 156 32.5t144 32.5q91 0 142 -88q44 -77 44 -192q0 -234 -168 -345q-121 -79 -287 -79q-207 0 -424 159q-159 115 -303 298q-115 145 -115 168l155 144q0 -16 101 -158 q127 -176 257 -287q181 -154 341 -154q100 0 156 67.5t56 186.5q0 86 -50 86q-14 0 -30 -7q-123 -56 -237 -56q-96 0 -240 146q-156 157 -156 300q0 57 42.5 99.5t99.5 42.5h452v178h-1063v189h1546v-189zM1246 -594l-76 -107l-549 370l167 178zM383 -197h-229v200h229v-200 z"/>
            <glyph horiz-adv-x="1389"
                   d="M1413 1244h-288v-413h-517q-87 0 -151 -62.5t-64 -149.5q0 -146 133 -283q117 -121 198 -121q-63 86 -63 203q0 119 92 201t217 82q128 0 223.5 -84t95.5 -207q0 -179 -147 -291q-134 -102 -317 -102q-271 0 -476 202q-194 190 -194 411q0 157 111 269.5t268 112.5h345 v232h-879v189h1413v-189zM1066 401q0 51 -32 90.5t-79 39.5q-49 0 -81 -41t-32 -94q0 -58 27 -109.5t64 -68.5q51 7 92 60t41 123zM1246 -594l-76 -107l-549 370l167 178zM370 -197h-229v200h229v-200z"/>
            <glyph horiz-adv-x="1020"
                   d="M1060 1244h-88v-529q0 -133 -117 -239t-270 -106q-163 0 -284 112q-114 106 -114 233v529h-187v189h1060v-189zM727 715v529h-294v-529q0 -152 152 -152q142 0 142 152zM664 3h-229v201h229v-201z"/>
            <glyph horiz-adv-x="777"
                   d="M817 1244h-817v189h817v-189zM998 817h-512q-116 0 -116 -127q0 -116 94 -257q70 -104 178 -205q90 -84 104 -84l-166 -144q-12 0 -118 110q-129 133 -211 264q-112 180 -112 321q0 160 104 243q76 60 164 60h591v-181zM263 -64h-229v200h229v-200z"/>
            <glyph horiz-adv-x="916"
                   d="M1136 430q-195 -176 -486 -176q-288 0 -473 191q-157 163 -154 344q116 -34 226 -34q136 0 229 65q110 77 110 220q0 235 -192 235q-125 0 -125 -110q0 -44 40 -75q37 -29 76 -27v-161q-8 -1 -20 -1q-100 0 -188 53q-125 75 -125 225q0 125 104 205q99 76 238 75 q180 -1 309 -130t129 -309q0 -179 -142 -312q-137 -128 -308 -128q88 -142 277 -142q165 0 333 143q130 111 142 160v-311zM330 3h-229v201h229v-201z"/>
            <glyph horiz-adv-x="1389"
                   d="M1419 1244h-300v-396h-545q-66 0 -117 -50q-56 -53 -56 -134q0 -265 424 -265q0 226 193 226q70 0 122.5 -48t52.5 -122q0 -134 -127 -206q0 -9 51 -127q26 -61 48 -96q17 -25 17 -23l-221 -51q0 -2 -9 16q-14 27 -33 86q-31 95 -34 152q-25 -1 -56 -1q-238 0 -410 74 q-280 120 -280 408q0 151 110 252q103 96 243 96h379v209h-871v189h1419v-189zM1246 -594l-76 -107l-549 370l167 178zM370 -90h-229v201h229v-201z"/>
            <glyph horiz-adv-x="789"
                   d="M1012 382q0 -7 -54 -43q-70 -48 -156 -78q-118 -41 -248 -41q-167 0 -275 88q-115 94 -115 255q0 129 127 226q-9 0 -62 45q-69 59 -112 132q-60 101 -60 213q0 143 94 216q81 64 214 64q143 0 229 -89q79 -83 79 -208q0 -22 -3 -45h-181q3 19 3 42q0 136 -105 136 q-110 0 -110 -136q0 -186 164 -288q-14 0 56 18t156 18q70 0 88 -2l76 -159q-30 3 -68 3q-348 0 -348 -195q0 -158 187 -158q149 0 299 109q118 86 125 120v-243zM343 -77h-229v200h229v-200z"/>
            <glyph horiz-adv-x="772"
                   d="M811 1244h-811v189h811v-189zM995 707h-441v-178q0 -54 -5 -66q-14 -36 -74 -36q-64 0 -193 154q-127 151 -127 219q0 62 46 91q27 16 53 16h741v-200zM558 3h-229v201h229v-201z"/>
            <glyph horiz-adv-x="647"
                   d="M871 540q-144 -79 -260 -79q-196 0 -316 112q-108 102 -108 244v427h-187v189h687v-189h-257v-396q0 -209 189 -209q136 0 252 133v-232zM490 3h-228v201h228v-201z"/>
            <glyph horiz-adv-x="1179"
                   d="M1419 727q-74 33 -158 33q-89 0 -171 -71q-72 -62 -72 -101v-588h-246v478q-110 -71 -218 -71q-229 0 -326 155q-58 94 -58 221v461h-170v189h1218v-189h-200v-390l74 52q85 47 174 47q61 0 112.5 -18.5t40.5 -18.5v-189zM772 727v517h-362v-450q0 -101 22 -143 q34 -66 136 -66q121 0 204 142zM490 3h-228v201h228v-201z"/>
            <glyph horiz-adv-x="639"
                   d="M678 1244h-678v189h678v-189zM885 353q-161 -96 -334 -96q-174 0 -303 106q-143 119 -143 310t149 301q131 97 320 97q113 0 186 -22l23 -167q-83 23 -175 23q-110 0 -173 -48l450 -277v-227zM823 492l-458 285q-31 -37 -31 -116q0 -110 80 -173q75 -58 191 -58 q69 0 149.5 31t68.5 31zM330 3h-229v201h229v-201z"/>
            <glyph horiz-adv-x="808"
                   d="M1037 582h-347v-192q0 -79 -94 -79q-48 0 -223 159q-178 162 -178 220q0 87 91 87h169v402q0 107 -113 107q-102 0 -102 -107q0 -37 13 -74t13 -31h-173q-28 67 -28 127q0 130 85 199q78 64 212 64q145 0 236.5 -77t91.5 -203v-407h347v-195zM330 3h-229v201h229v-201z "/>
            <glyph horiz-adv-x="772"
                   d="M1001 625h-430v-153q0 -93 -76 -93q-64 0 -217.5 142.5t-153.5 205.5q0 50 44 72q25 12 47 12h119v433h-334v189h811v-189h-240v-433h430v-186zM330 3h-229v201h229v-201z"/>
            <glyph horiz-adv-x="777"
                   d="M998 345q-155 -79 -294 -79q-257 0 -409 153q-151 150 -151 398q28 -4 62 -4q266 0 266 207q0 64 -41 142q-35 65 -61 82h-370v189h817v-189h-204q97 -131 97 -257q0 -208 -147 -294q-61 -35 -147 -43q34 -212 262 -212q165 0 320 133v-226zM330 3h-229v201h229v-201z "/>
            <glyph horiz-adv-x="1155"
                   d="M1179 1244h-243v-351q0 -128 -96 -198q-85 -62 -246 -62q0 -4 59 -88q64 -94 105 -144q59 -72 157 -174q87 -90 94 -94l-178 -147l-137 157q-159 189 -276 357l-193 289q-95 148 -95 152l187 122q0 -30 73 -124q94 -122 204 -122q99 0 99 110v317h-693v189h1179v-189z M1246 -594l-76 -107l-549 370l167 178zM330 3h-229v201h229v-201z"/>
            <glyph horiz-adv-x="1054"
                   d="M1094 1244h-1094v189h1094v-189zM1281 780q-134 -27 -207 -119q-47 -60 -80 -141q-24 -62 -24 -82l-198 85q0 13 39 107q7 16 27 49q19 30 19 31q-14 29 -62 61q-76 52 -176 49q-212 -6 -212 -232q0 -119 106 -228q77 -77 199 -141q93 -49 108 -49l-110 -187 q-24 0 -147 69q-159 89 -260 201q-139 155 -139 327q0 219 137 332q118 97 307 97q119 0 235 -54q96 -45 144 -101q64 50 118 73q38 16 108 31q57 12 68 12v-190zM317 -130h-229v201h229v-201z"/>
            <glyph horiz-adv-x="642"
                   d="M681 1244h-681v189h681v-189zM876 390q-144 -85 -294 -85q-191 0 -314 93q-138 105 -138 295q0 166 128 268q120 96 299 96q92 0 164 -22l37 -181q-65 42 -159 42q-95 0 -157 -53q-66 -57 -66 -153q0 -215 232 -215q144 0 268 136v-221zM330 3h-229v201h229v-201z"/>
            <glyph horiz-adv-x="1086"
                   d="M1125 1244h-198q99 -122 99 -266q0 -323 -230 -461q-97 -57 -231 -73l156 -127q97 -76 206 -153l-141 -181q-111 74 -356 294q-74 67 -184 176q-99 98 -99 101l155 156l91 -85q44 -14 107 -14q228 0 258 243q-122 -46 -193 -46q-149 0 -245 75q-102 81 -102 222 q0 76 53 139h-271v189h1125v-189zM777 1080q-35 178 -206 178q-55 0 -94 -41.5t-39 -97.5q0 -64 47 -103q44 -38 114 -38q126 0 178 102zM330 3h-229v201h229v-201z"/>
            <glyph horiz-adv-x="633"
                   d="M862 478q-134 -77 -263 -77q-172 0 -298 116t-126 283v444h-175v189h673v-189h-255l444 -444v-322zM817 664l-401 402v-297q0 -77 57.5 -130.5t137.5 -53.5q113 0 206 79zM478 3h-229v201h229v-201z"/>
            <glyph horiz-adv-x="1032"
                   d="M1261 650h-272l-132 184h404v-184zM1071 1244h-229v-351q0 -145 -93 -206q-38 -25 -111 -42q-54 -12 -73 -12q0 -3 60 -88q66 -94 107 -144l218 -246l-192 -141q-88 107 -365 486q-83 119 -179 281q-81 137 -81 143l184 119q0 -21 57 -114q67 -112 126 -112q99 0 99 110 v317h-599v189h1071v-189zM330 3h-229v201h229v-201z"/>
            <glyph horiz-adv-x="1233"
                   d="M1323 526h-616q-274 0 -274 -215q0 -154 245 -235q169 -56 334 -56q26 0 28 3l-70 -167q-18 -14 -208 24q-229 45 -375 138q-200 128 -200 327q0 121 83 212q62 68 86 68q-25 0 -110 103q-99 120 -99 219q0 56 43 94.5t101 38.5h551v164h-842v189h1272v-189h-198v-342 h-625q-46 0 -46 -40q0 -23 27 -54q77 -90 104 -90h789v-192zM290 -250h-229v200h229v-200z"/>
            <glyph horiz-adv-x="1456"
                   d="M1495 1244h-1495v189h1495v-189zM1555 594q0 -196 -103.5 -316t-278.5 -120q-225 0 -331 207q-107 -201 -325 -201q-178 0 -278 111q-103 112 -103 316q0 190 105 304.5t282 113.5q217 -2 325 -189q107 192 325 192q382 0 382 -418zM1323 591q0 243 -172 243 q-94 0 -155 -112q-43 -79 -43 -117q-9 -38 36 -139q58 -130 167 -130q84 0 128 78q39 68 39 177zM746 613q3 48 -58 127q-71 94 -157 94q-83 0 -128 -71q-41 -64 -41 -172q0 -243 161 -243q115 0 181 125q53 100 42 140zM958 -170h-229v201h229v-201z"/>
            <glyph horiz-adv-x="936"
                   d="M1156 738q-159 -51 -280 -51q-209 0 -407 99q-40 -8 -91 -64q-70 -76 -70 -176q0 -127 107 -179q59 -28 131 -28q-7 23 -7 48q0 68 45 122t109 54q87 0 138 -48q48 -46 48 -122q0 -80 -52 -126q-35 -30 -55 -30q20 -31 65 -93q37 -45 102 -116l-162 -113l-93 147l-73 116 q-45 -14 -111 -14q-165 0 -294 109q-138 116 -138 281q0 226 232 351q-139 111 -139 282q0 119 96 197q92 75 221 75q140 0 246 -84q110 -88 110 -216q0 -142 -161 -257q77 -31 200 -31q139 0 283 79v-212zM602 1159q0 60 -32 98q-35 41 -92 41q-48 0 -82 -35t-34 -84 q0 -118 107 -178q19 0 69 41q64 53 64 117zM343 -130h-229v201h229v-201z"/>
            <glyph horiz-adv-x="1035"
                   d="M1074 1244h-1074v189h1074v-189zM1255 905h-738q-35 0 -35 -28q0 -24 32 -66q44 -58 60 -73q28 -24 67 -24q36 0 105 21q55 17 110 17q102 0 165 -55q73 -62 73 -180q0 -135 -85 -235q-63 -73 -162 -118q-75 -34 -98 -31q30 -41 76 -71q66 -44 111 -54l-142 -161 q-57 35 -164 122q-52 42 -121 116q-30 -6 -79 -6q-103 0 -174 49q-81 55 -81 152q0 55 40 92.5t96 37.5q57 0 157 -69q89 -62 89 -72q2 -1 10 -1q77 0 164 42q126 61 126 176q0 73 -75 73q-32 0 -112.5 -18t-115.5 -18q-96 0 -223 145q-130 147 -130 265q0 65 48.5 110 t115.5 45h890v-183zM370 -237h-229v200h229v-200z"/>
            <glyph horiz-adv-x="1745"
                   d="M1654 780h-243v221h243v-221zM1785 1244h-536v-351h-503q-41 0 -41 -27q0 -14 13 -35q28 -44 79 -94q69 -67 113 -67q61 0 151.5 32.5t139.5 32.5q91 0 142 -88q45 -77 45 -192q0 -234 -168 -345q-121 -80 -287 -79q-207 1 -425 160q-158 115 -303 297q-115 146 -115 168 l156 144q0 -16 101 -158q126 -176 255 -287q181 -154 339 -154q100 0 157.5 68t57.5 186q0 86 -52 86q-14 0 -30 -7q-123 -56 -226 -56q-96 0 -241 146q-157 157 -158 300q-1 59 42 100.5t103 41.5h418v178h-1012v189h1785v-189zM330 3h-229v201h229v-201z"/>
            <glyph horiz-adv-x="1529"
                   d="M1546 1244h-181v-1244h-246v438q-62 -64 -163 -114q-129 -64 -255 -64q-162 0 -264.5 88t-102.5 229q0 102 64 200q44 68 83 94h-342v183h842v-181h-201q-24 0 -108 -85q-101 -104 -101 -200q0 -147 153 -147q137 0 270 128q73 70 125 156v519h-1119v189h1546v-189z M330 3h-229v201h229v-201z"/>
            <glyph horiz-adv-x="1633"
                   d="M1659 1244h-339v-181q47 0 109 -48q106 -83 106 -260q0 -257 -259 -486.5t-549 -228.5q-204 1 -343 114q-155 125 -155 338q0 165 150 285q-55 8 -131 77q-101 92 -101 212q0 93 68 178h-215v189h1659v-189zM1303 763q0 62 -28 103q-31 44 -82 44q-107 0 -107 -161 q0 -152 110 -246q20 8 59 82q48 92 48 178zM1094 1071v173h-645q-10 0 -33 -44q-30 -58 -29 -129q2 -103 92 -144q46 -22 95 -22h133l51 -178h-102q-84 0 -138 -69t-54 -163q0 -113 77 -189.5t186 -76.5q102 0 214 53q91 43 113 74q-18 0 -92 130q-89 158 -89 300 q0 226 221 285zM370 -197h-229v200h229v-200z"/>
            <glyph horiz-adv-x="1665"
                   d="M1688 1244h-181v-1244h-246v506q-50 -6 -74 -6q-72 0 -152 40q0 -133 -71 -240q-42 -63 -149 -124q-84 -48 -114 -52l107 -65l116 -65l-138 -147q-13 0 -173 108q-111 75 -152 121q-25 -5 -82 -5q-103 0 -174 48q-81 55 -81 152q0 54 41.5 92t97.5 38q57 0 157 -69 q89 -62 89 -72q2 -1 9 -1q77 0 164 42q126 62 126 177q0 73 -75 73q-32 0 -113.5 -18.5t-116.5 -18.5q-92 0 -218 155q-124 152 -124 258q0 63 46 108t110 45h398v164h-715v189h1688v-189zM1261 1244h-325v-348h-467q-36 0 -36 -28q0 -24 31 -65q74 -98 140 -98q41 0 111 22 q53 17 101 17q88 0 202 -66q35 -20 82 -20q65 0 161 43v543zM330 -250h-229v200h229v-200z"/>
            <glyph horiz-adv-x="1606"
                   d="M1631 1244h-181v-1244h-246v583q-42 -18 -79 -18q-31 0 -86 11.5t-50 11.5q0 -80 -91 -186q-128 -150 -347 -150q-199 0 -452 181l133 161q12 -30 94 -87q109 -77 217 -77q101 0 162 77.5t58 193.5q-3 94 -57 146q-50 49 -132 49q-55 0 -147 -48l-139 178q108 54 269 54 q182 0 311 -93q136 -98 136 -246q-1 0 42 -3t65 -3q44 0 93 29v480h-1204v189h1631v-189zM330 3h-229v201h229v-201z"/>
            <glyph horiz-adv-x="1364"
                   d="M1385 1244h-283v-413h-522q-82 0 -133 -62t-51 -158q0 -150 130 -271q125 -117 268 -117q84 0 174 56q99 61 143 154l187 -131q-184 -262 -509 -262q-258 0 -447 177t-189 422q0 166 109 271q106 102 264 102h345v232h-871v189h1385v-189zM330 -197h-229v200h229v-200z "/>
            <glyph horiz-adv-x="1389"
                   d="M1411 1244h-309v-413h-522q-82 0 -133 -62t-51 -158q0 -147 138 -271q129 -117 260 -117q97 0 171 50q92 63 92 182q0 144 -93 215l161 133q150 -129 150 -317q0 -200 -150 -327q-140 -119 -336 -119q-232 0 -431 177q-207 184 -205 422q2 167 110 271q105 102 263 102 h345v232h-871v189h1411v-189zM330 -197h-229v200h229v-200z"/>
            <glyph horiz-adv-x="1637"
                   d="M1659 1244h-181v-1244h-245v1244h-261v-529q0 -133 -117 -239t-270 -106q-163 0 -284 112q-114 106 -114 233v529h-187v189h1659v-189zM727 715v529h-294v-529q0 -152 152 -152q142 0 142 152zM664 3h-229v201h229v-201z"/>
            <glyph horiz-adv-x="1382"
                   d="M1405 1244h-181v-1244h-246v817h-492q-116 0 -116 -127q0 -116 94 -257q70 -104 178 -205q90 -84 104 -84l-166 -144q-12 0 -118 110q-129 133 -211 264q-112 180 -112 321q0 160 104 243q76 60 164 60h571v246h-978v189h1405v-189zM263 -64h-229v200h229v-200z"/>
            <glyph horiz-adv-x="1521"
                   d="M1546 1244h-181v-1244h-246v415q-192 -161 -469 -161q-288 0 -473 191q-157 163 -154 344q116 -34 226 -34q136 0 229 65q110 77 110 220q0 235 -192 235q-125 0 -125 -110q0 -44 40 -75q37 -29 76 -27v-161q-8 -1 -20 -1q-100 0 -188 53q-125 75 -125 225q0 125 104 205 q99 76 238 75q180 -1 309 -130t129 -309q0 -179 -142 -312q-137 -128 -308 -128q88 -142 277 -142q143 0 291 109q100 75 167 166v531h-214v189h641v-189zM330 3h-229v201h229v-201z"/>
            <glyph horiz-adv-x="1389"
                   d="M1419 1244h-300v-396h-545q-66 0 -117 -50q-56 -53 -56 -134q0 -265 424 -265q0 226 193 226q70 0 122.5 -48t52.5 -122q0 -134 -127 -206q0 -9 51 -127q26 -61 48 -96q17 -25 17 -23l-221 -51q0 -2 -9 16q-14 27 -33 86q-31 95 -34 152q-25 -1 -56 -1q-238 0 -410 74 q-280 120 -280 408q0 151 110 252q103 96 243 96h379v209h-871v189h1419v-189zM370 -90h-229v201h229v-201z"/>
            <glyph horiz-adv-x="1391"
                   d="M1405 1244h-181v-1244h-246v353q-179 -133 -424 -133q-167 0 -275 88q-115 94 -115 255q0 129 127 226q-9 0 -62 45q-69 59 -112 132q-60 101 -60 213q0 143 94 216q81 64 214 64q143 0 229 -89q79 -83 79 -208q0 -22 -3 -45h-181q3 19 3 42q0 136 -105 136 q-110 0 -110 -136q0 -186 164 -288q-14 0 56 18t156 18q70 0 88 -2l76 -159q-30 3 -68 3q-348 0 -348 -195q0 -158 187 -158q207 0 390 188v660h-215v189h642v-189zM343 -77h-229v200h229v-200z"/>
            <glyph horiz-adv-x="1382"
                   d="M1405 1244h-181v-1244h-246v707h-424v-178q0 -54 -5 -66q-14 -36 -74 -36q-64 0 -193 154q-127 151 -127 219q0 62 46 91q27 16 53 16h724v337h-978v189h1405v-189zM494 29h-229v221h229v-221z"/>
            <glyph horiz-adv-x="1269"
                   d="M1292 1244h-181v-1244h-246v537q-138 -76 -254 -76q-196 0 -316 112q-108 102 -108 244v427h-187v189h1292v-189zM865 765v479h-435v-396q0 -209 189 -209q136 0 246 126zM490 3h-228v201h228v-201z"/>
            <glyph horiz-adv-x="1269"
                   d="M1292 1244h-181v-1244h-246v342q-153 -85 -314 -85q-174 0 -302 106q-144 119 -144 310t149 301q131 97 320 97q113 0 186 -22l23 -167q-83 23 -175 23q-110 0 -173 -48l430 -265v652h-865v189h1292v-189zM823 492l-458 285q-31 -37 -31 -116q0 -110 80 -173 q75 -58 191 -58q69 0 149.5 31t68.5 31zM330 3h-229v201h229v-201z"/>
            <glyph horiz-adv-x="1413"
                   d="M1433 1244h-181v-1244h-246v582h-316v-192q0 -79 -94 -79q-48 0 -223 159q-178 162 -178 220q0 87 91 87h169v402q0 107 -113 107q-102 0 -102 -107q0 -37 13 -74t13 -31h-173q-28 67 -28 127q0 130 85 199q78 64 212 64q145 0 236.5 -77t91.5 -203v-407h316v467h-214 v189h641v-189zM330 3h-229v201h229v-201z"/>
            <glyph horiz-adv-x="1360"
                   d="M1377 1244h-181v-1244h-246v625h-379v-153q0 -93 -76 -93q-64 0 -217.5 142.5t-153.5 205.5q0 50 44 72q25 12 47 12h119v433h-334v189h1377v-189zM950 1244h-379v-433h379v433zM330 3h-229v201h229v-201z"/>
            <glyph horiz-adv-x="1155"
                   d="M1179 1244h-243v-351q0 -128 -96 -198q-85 -62 -246 -62q0 -4 59 -88q64 -94 105 -144q59 -72 157 -174q87 -90 94 -94l-178 -147l-137 157q-159 189 -276 357l-193 289q-95 148 -95 152l187 122q0 -30 73 -124q94 -122 204 -122q99 0 99 110v317h-693v189h1179v-189z M409 29h-229v221h229v-221z"/>
            <glyph horiz-adv-x="1665"
                   d="M1688 1244h-181v-1244h-246v776q-121 -31 -187 -115q-47 -60 -80 -141q-24 -62 -24 -82l-198 85q0 13 39 107q7 16 27 49q19 30 19 31q-14 29 -62 61q-76 52 -176 49q-212 -6 -212 -232q0 -119 106 -228q77 -77 199 -141q93 -49 108 -49l-110 -187q-24 0 -147 69 q-159 89 -260 201q-139 155 -139 327q0 219 137 332q118 97 307 97q119 0 235 -54q96 -45 144 -101q64 50 118.5 73t155.5 40v277h-1261v189h1688v-189zM317 -130h-229v201h229v-201z"/>
            <glyph horiz-adv-x="1266"
                   d="M1292 1244h-181v-1244h-246v383q-138 -78 -283 -78q-191 0 -314 93q-138 105 -138 295q0 166 128 268q120 96 299 96q92 0 164 -22l37 -181q-65 42 -159 42q-95 0 -157 -53q-66 -57 -66 -153q0 -215 232 -215q138 0 257 123v646h-865v189h1292v-189zM330 3h-229v201h229 v-201z"/>
            <glyph horiz-adv-x="1674"
                   d="M1688 1244h-181v-1244h-246v1244h-334q99 -122 99 -266q0 -323 -230 -461q-97 -57 -231 -73l156 -127q97 -76 206 -153l-141 -181q-111 74 -356 294q-74 67 -184 176q-99 98 -99 101l155 156l91 -85q44 -14 107 -14q228 0 258 243q-122 -46 -193 -46q-149 0 -245 75 q-102 81 -102 222q0 76 53 139h-271v189h1688v-189zM777 1080q-35 178 -206 178q-55 0 -94 -41.5t-39 -97.5q0 -64 47 -103q44 -38 114 -38q126 0 178 102zM330 3h-229v201h229v-201z"/>
            <glyph horiz-adv-x="1249"
                   d="M1264 1244h-181v-1244h-246v464q-124 -63 -238 -63q-172 0 -298 116t-126 283v444h-175v189h1264v-189zM837 1244h-419l419 -419v419zM817 664l-401 402v-297q0 -77 57.5 -130.5t137.5 -53.5q113 0 206 79zM478 3h-229v201h229v-201z"/>
            <glyph horiz-adv-x="1611"
                   d="M1631 1244h-181v-1244h-246v650h-215l-132 184h347v410h-362v-351q0 -145 -93 -206q-38 -25 -111 -42q-54 -12 -73 -12q0 -3 60 -88q66 -94 107 -144l218 -246l-192 -141q-88 107 -365 486q-83 119 -179 281q-81 137 -81 143l184 119q0 -21 57 -114q67 -112 126 -112 q99 0 99 110v317h-599v189h1631v-189zM330 3h-229v201h229v-201z"/>
            <glyph horiz-adv-x="1278"
                   d="M1300 1244h-226v-359h-625q-46 0 -46 -41q0 -24 27 -55q95 -111 118 -111q-11 0 61 13t137 13q163 0 278 -68q132 -78 132 -212q0 -155 -138 -237l-178 113q84 27 84 118q0 105 -192 105q-131 0 -214 -56q-88 -61 -88 -165q0 -116 125 -194q92 -58 235 -87 q119 -24 134 -15l-73 -164q-24 -10 -178 31q-194 51 -317 144q-169 128 -169 317q0 105 83 200q66 74 86 74q-25 0 -110 101q-99 119 -99 218q0 57 43 96.5t101 39.5h551v181h-842v189h1300v-189zM290 -250h-229v200h229v-200z"/>
            <glyph horiz-adv-x="1659"
                   d="M1685 1244h-399v-249q280 -112 280 -430q0 -198 -109 -329q-110 -134 -284 -134q-226 0 -331 206q-105 -201 -325 -201q-176 0 -281.5 125t-105.5 331q0 192 107 318q111 129 286 128q214 -2 325 -189q29 57 88 107q81 68 113 68v249h-1049v189h1685v-189zM1334 563 q0 271 -183 271q-85 0 -153 -127q-51 -96 -51 -130q-3 -13 18 -82q27 -86 70 -141q58 -74 135 -74q87 0 130 94q34 75 34 189zM741 585q9 46 -53 140q-71 109 -157 109t-134 -89q-41 -75 -41 -182q0 -272 167 -272q81 0 139 72q43 54 66 137q20 69 13 85zM946 -169h-229v221 h229v-221z"/>
            <glyph horiz-adv-x="1532"
                   d="M1556 1244h-181v-1244h-246v729q-142 -42 -253 -42q-209 0 -407 99q-40 -8 -91 -64q-70 -76 -70 -176q0 -127 107 -179q59 -28 131 -28q-7 23 -7 48q0 68 45 122t109 54q87 0 138 -48q48 -46 48 -122q0 -80 -52 -126q-35 -30 -55 -30q20 -31 65 -93q37 -45 102 -116 l-162 -113l-93 147l-73 116q-45 -14 -111 -14q-165 0 -294 109q-138 116 -138 281q0 226 232 351q-139 111 -139 282q0 119 96 197q92 75 221 75q140 0 246 -84q110 -88 110 -216q0 -142 -161 -257q77 -31 200 -31q126 0 256 64v309h-215v189h642v-189zM602 1159 q0 60 -32 98q-35 41 -92 41q-48 0 -82 -35t-34 -84q0 -118 107 -178q19 0 69 41q64 53 64 117zM343 -130h-229v201h229v-201z"/>
            <glyph horiz-adv-x="1652"
                   d="M1675 1244h-181v-1244h-246v905h-731q-35 0 -35 -28q0 -24 32 -66q44 -58 60 -73q28 -24 67 -24q36 0 105 21q55 17 110 17q102 0 165 -55q73 -62 73 -180q0 -135 -85 -235q-63 -73 -162 -118q-75 -34 -98 -31q31 -41 76 -71q66 -44 111 -54l-142 -161q-57 35 -164 122 q-52 42 -121 116q-30 -6 -79 -6q-103 0 -174 49q-81 55 -81 152q0 55 40 92.5t96 37.5q57 0 157 -69q89 -62 89 -72q2 -1 10 -1q77 0 164 42q126 61 126 176q0 73 -75 73q-32 0 -112.5 -18t-115.5 -18q-96 0 -223 145q-130 147 -130 265q0 65 48.5 110t115.5 45h883v156 h-1248v189h1675v-189zM370 -237h-229v200h229v-200z"/>
            <glyph horiz-adv-x="1193"
                   d="M1425 707q-65 31 -173 31q-64 0 -143 -83q-66 -70 -66 -87v-568h-243v339l-382 -268q53 -69 53 -109q0 -59 -63 -59q-56 0 -139 47.5t-145 114.5q-16 18 -16 37q0 55 115 110l177 81q-112 44 -177 141q-68 103 -68 244q0 269 245 366q110 44 247 44l54 -192 q-314 6 -314 -212q0 -104 52 -163.5t138 -59.5q91 0 166 65q57 51 57 68v650h-800v189h1233v-189h-190v-421q0 13 62 53q79 51 164 51q51 0 107 -15.5t49 -15.5v-189z"/>
            <glyph horiz-adv-x="1300"
                   d="M1524 551l-534 -179q47 -57 47 -93q0 -34 -55 -34q-136 0 -253 110q-30 29 -30 55q0 59 133 92l256 55q-25 0 -77 60q-75 85 -75 214q0 133 106 211q96 71 233 69q33 0 99 -17l54 -147q4 0 -39 5.5t-69 5.5q-60 0 -105 -46t-45 -109q0 -70 37 -113q40 -48 113 -48 q100 0 204 104v-195zM1524 237q8 0 -83 -61q-103 -71 -211 -115q-153 -61 -296 -61q-463 0 -680 393q-138 248 -138 509l175 99q-2 -4 -2 -12q0 -47 35 -103q44 -69 109 -69q63 0 83 54q10 30 10 110v263h-526v189h1343v-189h-571v-348q0 -112 -76 -182q-72 -67 -179 -67 q-35 0 -93.5 13t-53.5 13q0 -37 40 -140q59 -155 161 -252q143 -134 349 -134q263 0 604 269v-179z"/>
            <glyph horiz-adv-x="786"
                   d="M825 1244h-169v-605q0 -122 -91 -122q-55 0 -214 125.5t-159 174.5q0 33 26 56t59 23h130v348h-407v189h825v-189zM1038 430l-411 -242q53 -70 53 -108q0 -59 -63 -59q-56 0 -139 47.5t-145 114.5q-16 18 -16 37q0 55 115 110l606 262v-162z"/>
            <glyph horiz-adv-x="905"
                   d="M1128 407l-605 -308q38 -70 38 -118q0 -27 -14.5 -41.5t-44.5 -14.5q-62 0 -157.5 51t-157.5 118q-21 23 -21 48q0 49 71 94q5 0 166 45.5t155 45.5q-113 6 -200 61q-113 72 -112 200q1 158 147 237q-95 28 -152 99.5t-57 169.5q0 80 45 150h-229v189h944v-189h-480 q-57 -45 -57 -127q0 -66 53 -110q50 -43 120 -43h223l90 -178h-198q-77 0 -136 -49t-59 -121q0 -79 66 -130q62 -48 149 -48q140 0 279 69q113 56 134 98v-198z"/>
            <glyph horiz-adv-x="902"
                   d="M941 1244h-941v189h941v-189zM1125 441l-665 -279q30 -75 30 -122q0 -35 -17 -46.5t-44 -11.5q-58 0 -139 45q-84 46 -146 113q-20 22 -20 45q0 48 79 91l292 80q-98 -5 -178 53q-102 75 -102 219q0 168 155 243h-330v183h825v-181h-184q-31 0 -98 -50q-91 -68 -91 -164 q0 -201 218 -201q109 0 271 99q144 88 144 110v-226z"/>
            <glyph horiz-adv-x="1633"
                   d="M1659 1244h-339v-157q47 0 109 -48q106 -83 106 -260q0 -266 -272 -443v-735l-226 1v256h-434v-85q7 -109 -62 -109q-44 0 -111.5 103.5t-67.5 176.5q0 100 114 100h561v188q-140 -43 -279 -42q-221 1 -359 82q-170 100 -170 306q0 96 64 161l86 63q-61 9 -131 64 q-101 80 -101 200q0 93 68 178h-215v189h1659v-189zM1303 788q0 62 -28 103q-31 44 -82 44q-107 0 -107 -162q0 -152 110 -246q20 8 59 83q48 92 48 178zM1094 1096v148h-645q-10 0 -33 -44q-30 -58 -29 -129q3 -142 187 -142h133l51 -178h-102q-192 0 -192 -170 q0 -106 93 -158q77 -43 201 -43q260 0 292 46q-20 0 -90 107q-87 135 -87 277q0 226 221 286zM1690 -660l-57 -140l-664 86l67 214z"/>
            <glyph horiz-adv-x="1136"
                   d="M1182 1244h-1182v189h1182v-189zM1363 899h-368q85 -57 85 -167q0 -149 -134 -241q-113 -78 -248 -78q-292 0 -466 290q-73 120 -116 289l201 108q-11 -7 28 -140q44 -154 117 -253q99 -136 233 -136q65 0 109 45t44 119q0 125 -92 248q-75 100 -97 100h704v-184z M1365 407l-476 -303q37 -72 37 -125q0 -73 -69 -73q-120 0 -284 177q-20 22 -20 45q0 48 79 91l733 332v-144z"/>
            <glyph horiz-adv-x="1283"
                   d="M1507 311l-251 -178q52 -114 52 -172q0 -27 -13 -36q-16 -11 -43 -11q-58 0 -139 45q-84 46 -146 113q-20 22 -20 44q0 49 79 91l481 274v-170zM1507 642q11 0 -109 -41t-194 -44q-133 -6 -232 14q0 -175 -62 -271q-40 -62 -139 -118q-77 -45 -107 -49l107 -65 q34 -21 116 -62l-138 -150q-97 39 -184 107l-142 122q-30 -6 -81 -6q-103 0 -174 49q-81 55 -81 152q0 54 41.5 92t97.5 38q57 0 157 -69q89 -62 89 -72q10 -7 77 8q82 17 134 58q71 55 71 143q0 80 -72 80q-32 0 -114.5 -22t-118.5 -22q-92 0 -218 155q-124 152 -124 258 q0 63 45.5 108t109.5 45h396v164h-658v189h1323v-189h-439v-348h-466q-37 0 -37 -28q0 -24 31 -65q75 -101 139 -101q41 0 110 25q51 18 94 18t96.5 -23t77.5 -23q188 -3 337 36q107 28 184 73q68 40 57 40v-206z"/>
            <glyph horiz-adv-x="1364"
                   d="M1385 1244h-283v-370h-522q-82 0 -133 -62t-51 -158q0 -143 130 -222q111 -67 268 -67q84 0 174 56q99 61 143 154l187 -130q-68 -97 -148 -156v-688l-226 1v256h-434v-85q7 -109 -62 -109q-44 0 -111.5 103.5t-67.5 176.5q0 100 114 100h561v149q-60 -11 -135 -11 q-271 0 -446 127q-190 137 -190 373q0 166 109 271q106 102 264 102h345v189h-871v189h1385v-189zM1410 -957l-76 -107l-549 370l167 178z"/>
            <glyph horiz-adv-x="1389"
                   d="M1411 1244h-309v-349h-522q-84 0 -134 -51t-50 -145q0 -150 104 -234q99 -80 261 -80q110 0 187 40q109 57 109 180q0 109 -93 157l161 69q150 -67 150 -258q0 -187 -180 -278v-694l-226 1v256h-333v-85q6 -109 -63 -109q-44 0 -111.5 103.5t-67.5 176.5q0 100 115 100 h460v188q-64 -8 -139 -8q-235 0 -400 132q-177 142 -177 372q0 164 109 259q103 89 264 89h345v168h-871v189h1411v-189zM1336 -965l-77 -108l-548 371l167 178z"/>
            <glyph horiz-adv-x="1523"
                   d="M1546 1244h-248v-307h-535q-41 0 -41 -27q0 -14 13 -35q21 -34 79 -76q67 -48 113 -48q61 0 156 32.5t144 32.5q91 0 142 -88q44 -77 44 -192q0 -179 -157 -277v-658l-227 1v256h-433v-85q6 -109 -63 -109q-44 0 -111.5 103.5t-67.5 176.5q0 100 115 100h560v139 q-39 -5 -71 -5q-207 0 -424 132q-159 96 -303 248q-115 122 -115 142l155 144q0 -14 101 -131q127 -146 257 -238q181 -127 341 -127q90 0 156 71q56 61 56 117q0 86 -50 86q-14 0 -30 -7q-123 -56 -237 -56q-99 0 -240 127q-156 140 -156 282q0 57 42.5 99.5t99.5 42.5h452 v134h-1063v189h1546v-189zM1484 -957l-76 -107l-548 370l166 178z"/>
            <glyph horiz-adv-x="1389"
                   d="M1413 1244h-288v-326h-517q-87 0 -151 -62.5t-64 -149.5q0 -144 133 -265q114 -103 198 -103q-63 86 -63 179q0 118 93 196q90 75 216 75q129 0 222 -77q97 -80 97 -202q0 -188 -163 -290v-618l-227 1v236h-333v-85q6 -109 -63 -109q-44 0 -111 103.5t-67 176.5 q0 100 114 100h460v120q-35 -4 -74 -4q-273 0 -476 184q-194 176 -194 394q0 157 111 269t268 112h345v145h-879v189h1413v-189zM1066 500q0 50 -31.5 84.5t-79.5 34.5q-50 0 -81.5 -36.5t-31.5 -88.5q0 -110 91 -153q50 6 91.5 54.5t41.5 104.5zM1365 -973l-76 -108 l-548 371l166 178z"/>
            <glyph horiz-adv-x="777"
                   d="M817 1244h-817v189h817v-189zM998 528l-217 -107q53 -115 53 -172q0 -27 -13 -36q-16 -11 -43 -11q-58 0 -139 45q-84 46 -146 113q-20 22 -20 45q0 48 79 91l446 201v-169zM998 817h-562q-25 0 -70 -34q-66 -49 -66 -129q0 -165 92 -369q80 -175 103 -175l-167 -144 q-240 366 -240 729q0 160 105 243q76 60 164 60h641v-181z"/>
            <glyph horiz-adv-x="916"
                   d="M1145 396l-673 -257q43 -94 43 -147q0 -29 -15 -39t-40 -10q-55 0 -137 45.5t-151 111.5q-53 51 -53 93q0 54 73 83q299 79 291 80q-178 30 -288 138q-78 77 -116 188l-25 101q43 -13 203 -28q132 -1 229 69q110 80 110 216q0 235 -192 235q-124 0 -124 -110 q0 -44 40 -75q37 -29 76 -27v-161q-8 -1 -20 -1q-100 0 -188 53q-126 75 -126 225q0 125 104 205q99 76 238 75q180 -1 309 -130t129 -309q0 -227 -208 -333q-120 -62 -214 -62q62 -149 309 -149q218 0 416 163v-243z"/>
            <glyph horiz-adv-x="1399"
                   d="M1419 1244h-300v-351h-537q-71 0 -118 -47q-51 -49 -51 -131q0 -166 215 -238q89 -30 214 -39q-1 12 -1 28q0 207 194 207q61 0 104 -44t43 -106q0 -139 -150 -189q0 -9 21 -79q26 -92 58 -167q28 -65 57 -119q22 -41 22 -40l-226 -28q0 -18 -54 175q-9 33 -39 164 l-370 -156q48 -105 48 -160q0 -27 -13.5 -36.5t-36.5 -9.5q-55 0 -148 49q-85 46 -138 96q-47 45 -47 88q0 67 100 114l326 97q-122 24 -208 75q-209 122 -209 355q0 165 112 250q92 69 232 69h366v173h-885v189h1419v-189zM1309 -657l-77 -107l-548 370l167 178z"/>
            <glyph horiz-adv-x="783"
                   d="M1012 427q0 -3 -597 -271q52 -114 52 -172q0 -27 -13 -36q-16 -11 -41 -11q-55 0 -137 45.5t-150 112.5q-48 47 -48 87q0 57 85 88l235 57q-42 0 -118 55q-115 84 -116 231q-1 165 127 227q-10 0 -66 40q-74 51 -121 114q-64 88 -64 185q0 141 94 215q82 65 214 65 q143 0 229 -90q79 -84 79 -208q0 -22 -3 -44h-181q4 20 4 42q0 136 -114 136q-102 0 -102 -136q0 -114 91 -186q64 -51 98 -51q-12 0 60 18t147 18q58 0 85 -3l76 -158q-30 3 -67 3q-343 0 -343 -195q0 -87 69 -129q49 -29 112 -29q218 0 424 214v-234z"/>
            <glyph horiz-adv-x="893"
                   d="M933 1244h-933v189h933v-189zM1111 563l-433 -210l77 -166q0 -94 -60 -94q-81 0 -240 92q-164 95 -164 154q0 54 57 79l574 252q0 17 -122 113q-142 110 -243 110h-93v-161q0 -76 -71 -76q-47 0 -152 131q-108 135 -108 208q0 96 261 96q130 0 239 -28q186 -48 421 -336 l57 28v-192z"/>
            <glyph horiz-adv-x="636"
                   d="M871 540l-428 -327q53 -115 53 -172q0 -27 -13 -36q-16 -11 -41 -11q-55 0 -137 45.5t-150 112.5q-48 47 -48 87q0 57 85 88l390 156q-17 -2 -34 -2q-136 0 -244 92q-117 99 -117 244v427h-187v189h676v-189h-246v-396q0 -203 189 -203q136 0 252 118v-223z"/>
            <glyph horiz-adv-x="1179"
                   d="M1419 727q-74 33 -158 33q-89 0 -171 -71q-72 -62 -72 -101v-588h-246v478l-357 -322q52 -114 52 -172q0 -27 -13 -36q-16 -11 -41 -11q-55 0 -137 45.5t-150 112.5q-48 47 -48 87q0 57 85 88l271 150q-130 30 -199 132q-65 95 -65 231v462h-170v188h1218v-188h-200v-391 l74 52q85 47 174 47q61 0 112.5 -18.5t40.5 -18.5v-189zM772 727v518h-362v-451q0 -101 22 -143q34 -66 136 -66q121 0 204 142z"/>
            <glyph horiz-adv-x="639"
                   d="M678 1244h-678v189h678v-189zM885 353q0 -3 -413 -260q52 -114 52 -172q0 -27 -13 -36q-16 -11 -41 -11q-55 0 -137 45.5t-150 112.5q-48 47 -48 87q0 57 85 88q228 85 223 86q-119 12 -209 86q-127 104 -127 294q0 187 141 297q131 101 326 101q113 0 186 -14l23 -175 q-94 23 -175 23q-89 0 -167 -43l444 -277v-232zM823 492l-458 285q0 6 -11.5 -31.5t-11.5 -84.5q0 -112 80 -173q71 -55 183 -55q69 0 149.5 29.5t68.5 29.5z"/>
            <glyph horiz-adv-x="831"
                   d="M1054 687h-359v-164q0 -21 -16 -43q-27 -36 -88 -36q-46 0 -208.5 139.5t-162.5 182.5q0 54 31 78q18 15 35 15h175v337q0 41 -38 67q-33 24 -75 23q-96 -2 -96 -107q0 -37 11 -74t11 -31h-169q-23 72 -23 127q0 128 79 197q75 66 206 66q145 0 236.5 -77t91.5 -203v-325 h359v-172zM1052 342l-379 -167q52 -114 52 -172q0 -27 -13 -36t-35 -9q-55 0 -150 53q-86 48 -143 103q-48 47 -48 87q0 57 85 89l631 216v-164z"/>
            <glyph horiz-adv-x="772"
                   d="M1001 693h-430v-153q0 -93 -76 -93q-64 0 -217.5 142t-153.5 205q0 50 44 72q26 13 47 13h119v365h-334v189h811v-189h-240v-365h430v-186zM998 356l-325 -181q52 -114 52 -172q0 -27 -13 -36t-35 -9q-55 0 -150 53q-86 48 -143 103q-48 47 -48 87q0 57 85 89l577 230 v-164z"/>
            <glyph horiz-adv-x="777"
                   d="M998 390l-429 -297q53 -115 53 -172q0 -27 -13 -36q-16 -11 -41 -11q-55 0 -137 45.5t-150 112.5q-48 47 -48 88q0 56 84 87l279 132q-62 -8 -157 33q-122 51 -198 155q-97 133 -97 330q42 -8 89 -8q239 0 239 194q0 63 -41 130q-32 52 -61 71h-370v189h817v-189h-204 q97 -109 97 -235q0 -198 -147 -278q-61 -34 -147 -41q34 -207 262 -207q165 0 320 133v-226z"/>
            <glyph horiz-adv-x="642"
                   d="M681 1244h-681v189h681v-189zM876 390l-450 -280q40 -81 40 -128q0 -29 -16.5 -38t-39.5 -9q-105 0 -236 129q-48 47 -48 87q0 58 85 89l301 102q-111 10 -189 49q-190 95 -190 319q0 165 126 259q117 88 298 88q106 0 175 -22l26 -184q-65 45 -159 45q-95 0 -156 -53 q-64 -57 -64 -153q0 -102 71 -158q63 -49 158 -49q144 0 268 128v-221z"/>
            <glyph horiz-adv-x="1275"
                   d="M1504 534l-299 -164q52 -114 52 -172q0 -27 -13 -36t-33 -9q-109 0 -295 156q-52 44 -52 84q0 55 89 91l435 163q-11 57 -92 148q-121 138 -287 138q-90 0 -167 -23v-79q0 -109 -115 -164q-58 -28 -204 -28q0 -4 55 -88q64 -98 117 -169q56 -74 151 -173q80 -82 90 -87 l-178 -139l-134 144q-155 178 -262 359q-79 133 -163 294q-69 134 -69 139l181 116q0 -26 51 -110q65 -108 138 -108q99 0 99 110v317h-599v189h1314v-189h-472v-133q43 3 94 3q203 0 299 -51q133 -72 269 -365v-164z"/>
            <glyph horiz-adv-x="1399"
                   d="M1430 1244h-269v-339h-740q-51 1 -51 -31q0 -13 11 -32q21 -37 60 -78q34 -37 42 -37q-17 0 82.5 11t191.5 11q194 0 339 -113q168 -130 168 -349q0 -272 -154 -360l-147 102q32 16 67 78q51 89 51 203q0 76 -38 126q-27 35 -70 54q-38 17 -38 13l-180 -216 q80 -113 80 -163q0 -39 -62 -39q-80 0 -207 82q-63 41 -63 94q0 62 75 124l199 186q-30 7 -70 7q-134 0 -237 -61q-128 -77 -128 -217q0 -129 85 -240q62 -81 160 -143q75 -47 94 -47l-130 -139q-19 0 -110 57q-124 77 -201 181q-108 146 -108 323q0 132 41 213 q32 63 115 137q-15 0 -82 87q-79 104 -79 195q0 150 178 150h627v170h-932v189h1430v-189zM1158 -771l-76 -107l-548 370l166 178z"/>
            <glyph horiz-adv-x="1786"
                   d="M1806 1244h-763v-342q-3 0 30 27q39 32 84 51q65 27 138 26q157 -1 268 -111t111 -267q0 -125 -74 -262q-52 -98 -137 -192q-67 -75 -75 -75l-178 136q7 0 59 54q66 67 107 138q57 98 57 189q0 84 -39 139q-45 62 -128 62q-91 0 -166 -83q-57 -64 -57 -87v-647h-243v339 l-382 -268q53 -69 53 -109q0 -59 -63 -59q-56 0 -139 47.5t-145 114.5q-16 18 -16 37q0 55 115 110l260 113q-73 0 -165 57q-163 100 -163 319q0 232 185 329q113 59 270 59q19 0 37 -1l54 -192q-25 9 -73 9q-93 0 -156 -40q-85 -54 -85 -170q0 -90 52 -142.5t138 -52.5 q91 0 166 51q57 40 57 54v639h-800v189h1806v-189z"/>
            <glyph horiz-adv-x="1915"
                   d="M1938 1245h-181v-1245h-246v227q-285 -227 -577 -227q-463 0 -680 393q-138 248 -138 509l175 99q-2 -4 -2 -12q0 -47 35 -103q44 -69 109 -69q63 0 83 54q10 30 10 110v263h-526v189h1938v-188zM1511 1245l-739 -1v-348q0 -112 -76 -182q-72 -67 -179 -67 q-35 0 -93.5 13t-53.5 13q0 -37 40 -140q59 -155 161 -252q143 -134 349 -134q264 0 591 258v142l-521 -175q47 -57 47 -93q0 -34 -55 -34q-136 0 -253 110q-30 29 -30 55q0 59 133 92l256 55q-25 0 -77 60q-75 85 -75 214q0 133 106 211q96 71 233 69q33 0 99 -17l54 -147 q4 0 -39 5.5t-69 5.5q-60 0 -105 -46t-45 -109q0 -70 37 -113q40 -48 113 -48q94 0 191 91v512z"/>
            <glyph horiz-adv-x="1401"
                   d="M1431 1245h-181v-1245h-246v410l-377 -222q53 -70 53 -108q0 -59 -63 -59q-56 0 -139 47.5t-145 114.5q-16 18 -16 37q0 55 115 110l572 247v668l-348 -1v-605q0 -122 -91 -122q-55 0 -214 125.5t-159 174.5q0 33 26 56t59 23h130v348h-407v189h1431v-188z"/>
            <glyph horiz-adv-x="1496"
                   d="M1511 1245h-181v-1245h-246v385l-561 -286q38 -70 38 -118q0 -27 -14.5 -41.5t-44.5 -14.5q-62 0 -157.5 51t-157.5 118q-21 23 -21 48q0 49 71 94q5 0 166 45.5t155 45.5q-113 6 -200 61q-113 72 -112 200q1 158 147 237q-95 28 -152 99.5t-57 169.5q0 80 45 150h-229 v189h1511v-188zM1084 561v684l-620 -1q-57 -45 -57 -127q0 -66 53 -110q50 -43 120 -43h223l90 -178h-198q-77 0 -136 -49t-59 -121q0 -80 66 -130q62 -48 149 -48q206 0 369 123z"/>
            <glyph horiz-adv-x="1490"
                   d="M1511 1245h-181v-1245h-246v424l-624 -262q30 -75 30 -122q0 -35 -17 -46.5t-44 -11.5q-58 0 -139 45q-84 46 -146 113q-20 22 -20 45q0 48 79 91l292 80q-98 -5 -178 53q-102 75 -102 219q0 168 155 243h-330v183h825v-181h-184q-31 0 -98 -50q-91 -68 -91 -164 q0 -201 218 -201q158 0 374 170v617l-1084 -1v189h1511v-188z"/>
            <glyph horiz-adv-x="1633"
                   d="M1659 1244h-339v-157q47 0 109 -48q106 -83 106 -260q0 -266 -272 -443v-735l-226 1v256h-434v-85q7 -109 -62 -109q-44 0 -111.5 103.5t-67.5 176.5q0 100 114 100h561v188q-140 -43 -279 -42q-221 1 -359 82q-170 100 -170 306q0 96 64 161l86 63q-61 9 -131 64 q-101 80 -101 200q0 93 68 178h-215v189h1659v-189zM1303 788q0 62 -28 103q-31 44 -82 44q-107 0 -107 -162q0 -152 110 -246q20 8 59 83q48 92 48 178zM1094 1096v148h-645q-10 0 -33 -44q-30 -58 -29 -129q3 -142 187 -142h133l51 -178h-102q-192 0 -192 -170 q0 -106 93 -158q77 -43 201 -43q260 0 292 46q-20 0 -90 107q-87 135 -87 277q0 226 221 286z"/>
            <glyph horiz-adv-x="1760"
                   d="M1777 1245h-181v-1245h-246v399l-472 -260q29 -68 29 -120q0 -63 -46 -80q-16 -6 -35 -6q-115 0 -253 150q-20 22 -20 45q0 48 79 91l718 325v355h-355q85 -57 85 -167q0 -149 -134 -241q-113 -78 -248 -78q-292 0 -466 290q-73 120 -116 289l201 108q-11 -7 28 -140 q44 -154 117 -253q99 -136 233 -136q65 0 109 45t44 119q0 125 -92 248q-75 100 -97 100h691v162l-1350 -1v189h1777v-188z"/>
            <glyph horiz-adv-x="1892"
                   d="M1911 1245h-181v-1245h-246v295l-228 -162q52 -114 52 -172q0 -27 -13 -36q-16 -11 -43 -11q-58 0 -139 45q-84 46 -146 113q-20 22 -20 44q0 49 79 91l458 261v165q-180 -72 -280 -76q-133 -6 -232 14q0 -175 -62 -271q-40 -62 -139 -118q-77 -45 -107 -49l107 -65 q34 -21 116 -62l-138 -150q-97 39 -184 107l-142 122q-30 -6 -81 -6q-103 0 -174 49q-81 55 -81 152q0 54 41.5 92t97.5 38q57 0 157 -69q89 -62 89 -72q10 -7 77 8q82 17 134 58q71 55 71 143q0 80 -72 80q-32 0 -114.5 -22t-118.5 -22q-92 0 -218 155q-124 152 -124 258 q0 63 45.5 108t109.5 45h396v164h-658v189h1911v-188zM1484 831v414l-600 -1v-348h-466q-37 0 -37 -28q0 -24 31 -65q75 -101 139 -101q41 0 110 25q51 18 94 18t96.5 -23t77.5 -23q366 -5 555 132z"/>
            <glyph horiz-adv-x="1364"
                   d="M1385 1244h-283v-370h-522q-82 0 -133 -62t-51 -158q0 -143 130 -222q111 -67 268 -67q84 0 174 56q99 61 143 154l187 -130q-68 -97 -148 -156v-688l-226 1v271h-434v-100q7 -109 -62 -109q-44 0 -111.5 103.5t-67.5 176.5q0 100 114 100h561v149q-60 -11 -135 -11 q-271 0 -446 127q-190 137 -190 373q0 166 109 271q106 102 264 102h345v189h-871v189h1385v-189z"/>
            <glyph horiz-adv-x="1389"
                   d="M1411 1244h-309v-349h-522q-84 0 -134 -51t-50 -145q0 -150 104 -234q99 -80 261 -80q110 0 187 40q109 57 109 180q0 109 -93 157l161 69q150 -67 150 -258q0 -187 -180 -278v-694l-226 1v271h-333v-100q6 -109 -63 -109q-44 0 -111.5 103.5t-67.5 176.5q0 100 115 100 h460v188q-64 -8 -139 -8q-235 0 -400 132q-177 142 -177 372q0 164 109 259q103 89 264 89h345v168h-871v189h1411v-189z"/>
            <glyph horiz-adv-x="1523"
                   d="M1546 1244h-248v-307h-535q-41 0 -41 -27q0 -14 13 -35q21 -34 79 -76q67 -48 113 -48q61 0 156 32.5t144 32.5q91 0 142 -88q44 -77 44 -192q0 -179 -157 -277v-658l-227 1v271h-304v-100q6 -109 -63 -109q-44 0 -111.5 103.5t-67.5 176.5q0 100 114 100h432v139 q-39 -5 -71 -5q-207 0 -424 132q-159 96 -303 248q-115 122 -115 142l155 144q0 -14 101 -131q127 -146 257 -238q181 -127 341 -127q90 0 156 71q56 61 56 117q0 86 -50 86q-14 0 -30 -7q-123 -56 -237 -56q-99 0 -240 127q-156 140 -156 282q0 57 42.5 99.5t99.5 42.5h452 v134h-1063v189h1546v-189z"/>
            <glyph horiz-adv-x="1389"
                   d="M1413 1244h-288v-326h-517q-87 0 -151 -62.5t-64 -149.5q0 -144 133 -265q114 -103 198 -103q-63 86 -63 179q0 118 93 196q90 75 216 75q129 0 222 -77q97 -80 97 -202q0 -188 -163 -290v-618l-227 1v251h-304v-100q6 -109 -63 -109q-44 0 -111.5 103.5t-67.5 176.5 q0 100 115 100h431v120q-35 -4 -74 -4q-273 0 -476 184q-194 176 -194 394q0 157 111 269t268 112h345v145h-879v189h1413v-189zM1066 500q0 50 -31.5 84.5t-79.5 34.5q-50 0 -81.5 -36.5t-31.5 -88.5q0 -110 91 -153q50 6 91.5 54.5t41.5 104.5z"/>
            <glyph horiz-adv-x="1530"
                   d="M1545 1245h-181v-1245h-246v386l-646 -247q43 -94 43 -147q0 -29 -15 -39t-40 -10q-55 0 -137 45.5t-151 111.5q-53 51 -53 93q0 54 73 83q299 78 291 80q-313 80 -400 435q19 -10 43 -18q57 -17 131 -18q132 -1 229 69q110 80 110 216q0 235 -192 235q-124 0 -124 -110 q0 -44 40 -75q37 -29 76 -27v-161q-8 -1 -20 -1q-100 0 -188 53q-126 75 -126 225q0 125 104 205q99 76 238 75q180 -1 309 -130t129 -309q0 -227 -208 -333q-120 -62 -214 -62q62 -149 309 -149q202 0 389 141v628h-215v188h642v-188z"/>
            <glyph horiz-adv-x="1399"
                   d="M1419 1244h-300v-351h-537q-71 0 -118 -47q-51 -49 -51 -131q0 -166 215 -238q89 -30 214 -39q-1 12 -1 28q0 207 194 207q61 0 104 -44t43 -106q0 -139 -150 -189q0 -9 21 -79q26 -92 58 -167q28 -65 57 -119q22 -41 22 -40l-226 -28q0 -18 -54 175q-9 33 -39 164 l-370 -156q48 -105 48 -160q0 -27 -13.5 -36.5t-36.5 -9.5q-55 0 -148 49q-85 46 -138 96q-47 45 -47 88q0 67 100 114l326 97q-122 24 -208 75q-209 122 -209 355q0 165 112 250q92 69 232 69h366v173h-885v189h1419v-189z"/>
            <glyph horiz-adv-x="1399"
                   d="M1414 1245h-181v-1245h-246v415l-572 -259q52 -114 52 -172q0 -27 -13 -36q-16 -11 -41 -11q-55 0 -137 45.5t-150 112.5q-48 47 -48 87q0 57 85 88l235 57q-42 0 -118 55q-115 84 -116 231q-1 165 127 227q-10 0 -66 40q-74 51 -121 114q-64 88 -64 185q0 141 94 215 q82 65 214 65q143 0 229 -90q79 -84 79 -208q0 -22 -3 -44h-181q4 20 4 42q0 136 -114 136q-102 0 -102 -136q0 -114 91 -186q64 -51 98 -51q-12 0 60 18t147 18q58 0 85 -3l76 -158q-30 3 -67 3q-343 0 -343 -195q0 -87 69 -129q49 -29 112 -29q205 0 399 188v610h-215v188 h642v-188z"/>
            <glyph horiz-adv-x="1496"
                   d="M1519 1245h-181v-1245h-246v553l-414 -200l77 -166q0 -94 -60 -94q-81 0 -240 92q-164 95 -164 154q0 54 57 79l574 252q0 17 -122 113q-142 110 -243 110h-93v-161q0 -76 -71 -76q-47 0 -152 131q-108 135 -108 208q0 96 261 96q130 0 239 -28q186 -48 421 -336l38 18 v500l-1092 -1v189h1519v-188z"/>
            <glyph horiz-adv-x="1261"
                   d="M1282 1245h-181v-1245h-246v528l-412 -315q53 -115 53 -172q0 -27 -13 -36q-16 -11 -41 -11q-55 0 -137 45.5t-150 112.5q-48 47 -48 87q0 57 85 88l390 156q-17 -2 -34 -2q-136 0 -244 92q-117 99 -117 244v427h-187v189h1282v-188zM855 748v497l-425 -1v-396 q0 -203 189 -203q126 0 236 103z"/>
            <glyph horiz-adv-x="1725"
                   d="M1742 1245h-724v-284q114 76 237 76q160 0 269 -97q113 -99 113 -253q0 -136 -71 -274q-52 -100 -135 -188q-64 -69 -80 -72l-192 133q9 0 63 50q71 65 115 141q62 105 62 216q0 69 -41.5 113.5t-108.5 44.5q-82 0 -153 -78l-78 -95v-678h-246v478l-374 -294 q48 -97 48 -148q0 -26 -14 -36q-17 -11 -45 -11q-102 0 -261 106q-57 38 -57 78q0 54 94 97l271 150q-130 30 -199 132q-65 95 -65 231v462h-170v188h1742v-188zM772 727v518h-362v-451q0 -101 22 -143q34 -66 136 -66q121 0 204 142z"/>
            <glyph horiz-adv-x="1273"
                   d="M1293 1245h-180v-1245h-246v341l-395 -248q52 -114 52 -172q0 -27 -13 -36q-16 -11 -41 -11q-55 0 -137 45.5t-150 112.5q-48 47 -48 87q0 57 85 88q228 85 223 86q-119 12 -209 86q-127 104 -127 294q0 187 141 297q131 101 326 101q113 0 186 -14l23 -175 q-94 23 -175 23q-89 0 -167 -43l426 -265v648l-867 -1v189h1293v-188zM823 492l-458 285q0 6 -11.5 -31.5t-11.5 -84.5q0 -112 80 -173q71 -55 183 -55q69 0 149.5 29.5t68.5 29.5z"/>
            <glyph horiz-adv-x="1444"
                   d="M1459 1245h-181v-1245h-246v333l-359 -158q52 -114 52 -172q0 -27 -13 -36t-35 -9q-55 0 -150 53q-86 48 -143 103q-48 47 -48 87q0 57 85 89l611 209v188h-337v-164q0 -21 -16 -43q-27 -36 -88 -36q-46 0 -208.5 139.5t-162.5 182.5q0 54 31 78q18 15 35 15h175v337 q0 41 -38 67q-33 24 -75 23q-96 -2 -96 -107q0 -37 11 -74t11 -31h-169q-23 72 -23 127q0 128 79 197q75 66 206 66q145 0 236.5 -77t91.5 -203v-325h337v386h-214v188h641v-188z"/>
            <glyph horiz-adv-x="1393"
                   d="M1414 1245h-181v-1245h-246v350l-314 -175q52 -114 52 -172q0 -27 -13 -36t-35 -9q-55 0 -150 53q-86 48 -143 103q-48 47 -48 87q0 57 85 89l566 226v177h-416v-153q0 -93 -76 -93q-64 0 -217.5 142t-153.5 205q0 50 44 72q26 13 47 13h119v365h-334v189h1414v-188z M987 879v366l-416 -1v-365h416z"/>
            <glyph horiz-adv-x="1381"
                   d="M1396 1245h-181v-1245h-245v370l-401 -277q53 -115 53 -172q0 -27 -13 -36q-16 -11 -41 -11q-55 0 -137 45.5t-150 112.5q-48 47 -48 88q0 56 84 87l279 132q-62 -8 -157 33q-122 51 -198 155q-97 133 -97 330q42 -8 89 -8q239 0 239 194q0 63 -41 130q-32 52 -61 71 h-370v189h1396v-188zM970 593v652l-357 -1q97 -109 97 -235q0 -198 -147 -278q-61 -34 -147 -41q34 -207 262 -207q148 0 292 110z"/>
            <glyph horiz-adv-x="1267"
                   d="M1282 1245h-181v-1245h-246v377l-429 -267q40 -81 40 -128q0 -29 -16.5 -38t-39.5 -9q-105 0 -236 129q-48 47 -48 87q0 58 85 89l301 102q-111 10 -189 49q-190 95 -190 319q0 165 126 259q117 88 298 88q106 0 175 -22l26 -184q-65 45 -159 45q-95 0 -156 -53 q-64 -57 -64 -153q0 -102 71 -158q63 -49 158 -49q129 0 247 107v655l-855 -1v189h1282v-188z"/>
            <glyph horiz-adv-x="1633"
                   d="M1659 1244h-181v-1244h-245v657l-401 -330l52 -114q18 -41 18 -65q0 -38 -30 -63q-8 -6 -27 -6q-55 0 -171 43q-109 41 -139 68q-46 41 -46 88q0 52 60 91q68 49 369 239l-183 80q-52 22 -164 81l-390 -260l-127 175l342 209q-54 27 -104 76q-100 96 -100 213 q0 144 112 215q91 59 233 59q147 0 247 -77q104 -81 104 -209q0 -171 -161 -285q32 -20 169 -91q95 -46 142 -49l195 148v351h-244v189h670v-189zM659 1165q0 46 -34 78t-88 32q-133 0 -133 -110q0 -78 67 -143q52 -50 72 -50q116 77 116 193z"/>
            <glyph horiz-adv-x="1898"
                   d="M1918 1244h-181v-1244h-246v527l-286 -157q52 -114 52 -172q0 -27 -13 -36t-33 -9q-109 0 -295 156q-52 44 -52 84q0 55 89 91l435 163q-11 57 -92 148q-121 138 -287 138q-90 0 -167 -23v-79q0 -109 -115 -164q-58 -28 -204 -28q0 -4 55 -88q64 -98 117 -169 q56 -74 151 -173q80 -82 90 -87l-178 -139l-134 144q-155 178 -262 359q-79 133 -163 294q-69 134 -69 139l181 116q0 -26 51 -110q65 -108 138 -108q99 0 99 110v317h-599v189h1918v-189zM1491 1244h-649v-133q43 3 94 3q203 0 299 -51q128 -69 256 -337v518z"/>
            <glyph horiz-adv-x="1399"
                   d="M1430 1244h-269v-339h-740q-51 1 -51 -31q0 -13 11 -32q21 -37 60 -78q34 -37 42 -37q-17 0 82.5 11t191.5 11q194 0 339 -113q168 -130 168 -349q0 -272 -154 -360l-147 102q32 16 67 78q51 89 51 203q0 76 -38 126q-27 35 -70 54q-38 17 -38 13l-180 -216 q80 -113 80 -164q0 -38 -62 -38q-80 0 -207 82q-63 41 -63 94q0 62 75 124l199 186q-30 7 -70 7q-134 0 -237 -61q-128 -77 -128 -217q0 -129 85 -240q62 -81 160 -143q75 -47 94 -47l-130 -139q-19 0 -110 57q-124 77 -201 181q-108 146 -108 323q0 132 41 213 q32 63 115 137q-15 0 -82 87q-79 104 -79 195q0 150 178 150h627v170h-932v189h1430v-189z"/>
            <glyph horiz-adv-x="1769"
                   d="M1806 1244h-763v-291q-3 0 30 27q39 32 84 51q65 28 138 27q157 -1 268 -111.5t111 -267.5q0 -125 -64 -229q-45 -74 -118 -131q-55 -42 -66 -42l-178 136q32 0 94 51q91 76 91 204q0 200 -167 200q-91 0 -166 -82q-57 -64 -57 -87v-471q52 16 107 16q148 0 232 -91 q70 -76 70 -174q0 -168 -162 -286l-146 118q119 73 119 158q0 48 -30.5 85t-76.5 37q-30 0 -61 -18q-118 -68 -166 -242l-203 50l47 94q19 35 33 38q-54 80 -134 80q-95 0 -147 -45q-48 -41 -48 -105q0 -69 73 -117q54 -35 77 -35l-120 -120q-215 97 -215 291q0 126 84 205 q92 87 257 87q87 0 167 -45v213q-107 -46 -228 -46q-181 0 -293 93q-124 102 -124 288q0 210 245 291q120 40 247 40l54 -192q-19 2 -44 2q-270 0 -270 -174q0 -81 52.5 -130.5t137.5 -49.5q91 0 166 65q57 50 57 67v568h-800v189h1806v-189z"/>
            <glyph horiz-adv-x="1886"
                   d="M1914 1244h-181v-1111q153 -93 153 -256q0 -255 -219 -326l-177 100q200 31 200 220q0 65 -47 104q-43 35 -104 35q-52 0 -93 -26q-116 -74 -155 -279l-194 97q13 29 46 94q19 35 34 38q-74 80 -154 80q-94 0 -147 -50q-47 -44 -48 -110q-1 -93 91 -144q59 -33 96 -33 l-120 -120q-82 22 -140 59q-140 91 -141 246q-1 137 95 224.5t251 87.5q88 0 178 -25q84 -24 119 -55q94 87 230 96v212q-249 -131 -554 -131q-248 0 -455 148q-157 113 -267 290q-87 141 -87 201l178 99q-1 -3 -1 -9q0 -44 36 -107q43 -76 96 -76q77 0 94 54q4 15 4 110 v263h-531v189h1914v-189zM1487 1244h-715v-348q0 -98 -23.5 -145.5t-87.5 -86.5q-35 -21 -81 -21q-25 0 -61 9q0 -16 40 -58q58 -62 153 -100q130 -53 313 -53q148 0 286 36q118 32 176 73v108q-92 -59 -239 -59q-131 0 -213 72t-82 178q0 116 87 186t224 70q57 0 101 -11 l54 -153q7 0 -38.5 5.5t-71.5 3.5q-153 -11 -153 -95q0 -61 52 -97q45 -31 104 -31q86 0 175 82v435z"/>
            <glyph horiz-adv-x="1391"
                   d="M1405 1244h-209v-955q98 -37 150 -123q45 -75 45 -167q0 -255 -219 -326l-178 100q201 87 201 220q0 60 -37.5 98t-89.5 38q-40 0 -76 -23q-116 -74 -154 -279l-195 97l47 94q19 35 34 38q-75 80 -155 80q-94 0 -147 -50q-47 -44 -47 -110q0 -82 92 -138q65 -39 95 -39 l-167 -113q-65 29 -112 72q-111 103 -112 258q-1 136 95.5 222.5t251.5 86.5q128 0 202 -40q15 -8 84 -69q63 59 146 83v945h-337v-598q0 -121 -90 -121q-55 0 -214 125t-159 174q0 33 26 56t59 23h130v341h-365v189h1405v-189z"/>
            <glyph horiz-adv-x="1498"
                   d="M1518 1244h-181v-1052q115 -79 115 -213q0 -168 -162 -286l-146 118q91 104 91 189q0 87 -83 87q-28 0 -57 -14q-122 -60 -166 -242l-203 50l47 94q19 35 33 38q-54 80 -134 80q-74 0 -116.5 -38t-42.5 -99q0 -69 55 -123q42 -42 59 -42l-120 -120q-215 97 -215 291 q0 126 84 205q92 87 257 87q125 0 200 -48l80 -67l56 46q52 43 122 54v248q-51 -56 -171 -102q-124 -47 -233 -47q-173 0 -303 82q-147 91 -147 238q0 131 156 228q-107 26 -153 66q-56 49 -56 142q0 80 45 150h-229v189h1518v-189zM1091 686v558h-627q-57 -45 -57 -127 q0 -61 53 -80q33 -12 120 -12h223l90 -179h-198q-77 0 -135 -47q-60 -50 -60 -122q0 -78 66 -119q58 -36 149 -36q112 0 227 58q90 45 149 106z"/>
            <glyph horiz-adv-x="1529"
                   d="M1546 1244h-181v-1075q87 -79 87 -190q0 -168 -162 -286l-146 118q91 104 91 189q0 87 -83 87q-28 0 -57 -14q-122 -60 -166 -242l-203 50l47 94q19 35 33 38q-54 80 -134 80q-74 0 -116.5 -38t-42.5 -99q0 -69 55 -123q42 -42 59 -42l-120 -120q-215 97 -215 291 q0 126 84 205q92 87 257 87q125 0 200 -48l80 -67l62 51q60 46 144 53v285q-58 -60 -163 -106q-127 -56 -255 -56q-164 0 -264 79q-103 82 -103 222q0 146 147 244h-342v183h842v-181h-201q-30 0 -108 -60q-101 -79 -101 -175q0 -131 153 -131q138 0 270 119q79 71 125 148 v430h-1119v189h1546v-189z"/>
            <glyph horiz-adv-x="1633"
                   d="M1659 1244h-339v-145q38 0 109 -54q106 -80 106 -216q0 -183 -199 -342v-294q116 -78 116 -214q0 -168 -162 -286l-146 118q91 104 91 189q0 87 -83 87q-28 0 -57 -14q-122 -60 -166 -242l-203 50l47 94q19 35 33 38q-54 80 -134 80q-74 0 -116.5 -38t-42.5 -99 q0 -69 55 -123q42 -42 59 -42l-120 -120q-215 97 -215 291q0 126 84 205q92 87 257 87q125 0 200 -48l80 -67l65 53q62 46 152 51v165q-135 -52 -407 -52q-210 0 -341 67q-153 79 -153 232q0 126 150 207q-232 53 -232 204q0 93 68 178h-215v189h1659v-189zM1303 799 q0 62 -28 103q-31 44 -82 44q-107 0 -107 -161q0 -81 97 -160q120 51 120 174zM1094 1107v137h-645q-9 0 -32 -44q-30 -58 -30 -129q0 -87 124 -87q20 0 42.5 2.5t20.5 2.5h133l51 -178h-102q-84 0 -138 -45.5t-54 -107.5q0 -69 86 -115q79 -42 177 -42q106 0 337 65 q-19 0 -90 82q-87 102 -87 201q0 164 207 258z"/>
            <glyph horiz-adv-x="1269"
                   d="M1292 1244h-181v-938q158 -83 158 -274q0 -255 -219 -326l-177 100q200 87 200 220q0 122 -106 122q-42 0 -83 -26q-58 -37 -97 -115q-35 -71 -41 -147l-194 97l47 94q19 35 33 38q-52 80 -132 80q-173 0 -175 -160q-1 -93 91 -144q59 -33 96 -33l-120 -120 q-82 22 -141 59q-140 91 -141 246q-1 138 102 239.5t256 101.5q137 0 244 -109q79 73 153 91v208q-138 -76 -254 -76q-196 0 -316 112q-108 102 -108 244v416h-187v189h1292v-189zM865 776v468h-435v-385q0 -209 189 -209q136 0 246 126z"/>
            <glyph horiz-adv-x="1769"
                   d="M1798 1244h-780v-283q114 76 237 76q161 0 272 -97q115 -100 115 -253q0 -151 -103 -274q-74 -88 -113 -96l-192 133q24 0 84 57q81 78 81 186q0 69 -41.5 113.5t-108.5 44.5q-88 0 -165 -72q-66 -61 -66 -101v-461q56 27 132 27q148 0 232 -91q70 -76 70 -174 q0 -168 -162 -286l-146 118q91 104 91 189q0 87 -83 87q-28 0 -57 -14q-122 -60 -166 -242l-203 50l47 94q19 35 33 38q-54 80 -134 80q-74 0 -116.5 -38t-42.5 -99q0 -69 55 -123q42 -42 59 -42l-120 -120q-215 97 -215 291q0 126 84 205q92 87 257 87q82 0 139 -19v252 q-99 -71 -215 -71q-226 0 -325 165q-62 103 -62 231v432h-170v189h1798v-189zM772 736v508h-362v-440q0 -101 22 -143q34 -67 136 -67q61 0 134 59q65 53 70 83z"/>
            <glyph horiz-adv-x="1269"
                   d="M1292 1244h-181v-1028q78 -35 121 -107q37 -62 37 -130q0 -168 -161 -286l-147 118q91 104 91 189q0 87 -83 87q-28 0 -57 -14q-122 -60 -165 -242l-204 50l47 94q19 35 34 38q-55 80 -135 80q-74 0 -116.5 -38t-42.5 -99q0 -69 56 -123q42 -42 59 -42l-120 -120 q-215 97 -215 291q0 126 84 205q92 87 257 87q125 0 199 -48l80 -67q5 2 46 38t89 52v219q-151 -84 -314 -84q-168 0 -303 106q-143 114 -143 278q0 188 149 282q124 79 320 79q113 0 186 -23l23 -167q-83 23 -175 23q-110 0 -173 -48l430 -196v546h-865v189h1292v-189z M823 598l-458 217q-31 1 -31 -78q0 -87 79.5 -144t191.5 -57q69 0 149.5 31t68.5 31z"/>
            <glyph horiz-adv-x="1360"
                   d="M1377 1244h-181v-920q140 -87 140 -263q0 -255 -219 -326l-178 100q201 87 201 220q0 57 -30.5 90t-76.5 33q-42 0 -83 -27q-72 -46 -137 -262l-195 97l47 94q19 35 33 38q-51 80 -131 80q-174 0 -176 -160q-1 -93 91 -144q59 -33 96 -33l-120 -120q-82 22 -140 59 q-140 91 -141 246q-1 139 100 238q104 103 257 103q137 0 244 -109q86 80 172 94v343h-379v-105q0 -93 -76 -93q-67 0 -217 118q-154 121 -154 182q0 50 44 72q25 12 47 12h119v343h-334v189h1377v-189zM950 1244h-379v-343h379v343z"/>
            <glyph horiz-adv-x="1743"
                   d="M1772 1245h-181v-1245h-246v336q-53 17 -103 17q-72 0 -123 -37q-97 -70 -147 -296l-206 82q6 22 34 90q18 37 42 80q-70 107 -217 107q-209 0 -209 -189q0 -108 117 -151q59 -22 122 -22l-113 -178q-68 0 -177 76q-167 115 -167 321q0 102 96 205q-89 104 -96 274 q-7 178 110 290q115 109 300 109q199 0 339 -133q21 12 95 67q29 21 111 36q22 4 44 4q77 0 148 -45v202h-1345v188h1772v-188zM1345 538v310q-39 27 -91 27q-40 0 -84 -16q-102 -38 -192 -274l-201 77q0 14 23 73q18 37 42 79q-70 108 -217 108q-80 0 -142 -54 q-68 -61 -68 -154t54 -163q60 20 139 20q199 0 339 -133q25 31 57 55q77 56 177 63q85 6 164 -18z"/>
            <glyph horiz-adv-x="1266"
                   d="M1292 1244h-181l1 -1029q92 -34 127 -110q27 -59 27 -166q0 -134 -162 -246l-147 118q120 73 120 158q0 48 -30.5 85t-76.5 37q-30 0 -61 -18q-118 -68 -166 -242l-203 50q13 29 46 94q19 35 34 38q-55 80 -135 80q-94 0 -147 -50q-47 -44 -47 -110q0 -69 73 -112 q51 -30 77 -30l-120 -120q-215 97 -215 291q0 126 84 205q92 87 257 87q147 0 256 -115q61 57 65 59q39 29 97 38v225q-138 -78 -283 -78q-192 0 -314 91q-138 102 -138 292q0 146 128 236q120 85 299 85q92 0 164 -22l37 -181q-64 42 -159 42q-223 0 -223 -163 q0 -93 66 -152t166 -59q137 0 257 124v568h-865v189h1292v-189z"/>
            <glyph horiz-adv-x="2440"
                   d="M2460 1244h-181v-1244h-246v776q-119 -31 -186 -115q-47 -60 -80 -141q-25 -62 -25 -82l-198 85q0 11 40 107q7 16 27 49q18 30 18 31q-14 29 -61 61q-76 52 -176 49q-212 -6 -212 -232q0 -119 106 -228q76 -77 198 -141q93 -49 108 -49l-110 -187q-24 0 -147 69 q-161 89 -261 201q-139 155 -137 327v17q-124 58 -168 81l-170 91l-390 -260l-127 175l342 209q-54 27 -104 76q-100 96 -100 213q0 144 112 215q91 59 233 59q147 0 247 -77q104 -81 104 -209q0 -171 -161 -285l169 -91q20 -11 47 -23q98 238 409 238q119 0 235 -54 q96 -45 144 -101q63 49 119 73t155 40v277h-982v189h1409v-189zM687 1165q0 46 -34 78t-88 32q-132 0 -132 -110q0 -78 67 -143q51 -50 71 -50q116 77 116 193z"/>
            <glyph horiz-adv-x="1469"
                   d="M1469 1244h-322v-339h-741q-50 1 -50 -30q0 -26 50 -87t63 -61q-17 0 88 11t197 11q444 0 520 -320q70 -29 114 -95q41 -64 41 -134q0 -207 -178 -264l-144 81q163 71 163 179q0 99 -86 99q-34 0 -68 -22q-94 -60 -111 -212l-157 79l37 75q15 28 27 32q-41 64 -106 64 q-142 0 -143 -129q-1 -76 74 -117q49 -27 78 -27l-97 -97q-66 18 -114 48q-113 73 -114 199q-1 112 82 194t207 82q111 0 198 -88q57 53 101 63q-81 134 -336 134q-429 0 -429 -321q0 -207 250 -405l-130 -139q-13 0 -86 69q-96 91 -156 203q-84 158 -84 335q0 220 167 327 q-16 0 -82 87q-80 104 -80 195q0 150 179 150h627v170h-918v189h1469v-189z"/>
            <glyph horiz-adv-x="1769"
                   d="M1806 1244h-763v-212q122 79 275 78q164 -1 262 -92q87 -81 87 -193q0 -131 -81 -234q87 -93 87 -229q0 -125 -59 -218q-42 -68 -109 -112q-48 -32 -61 -32l-178 136q27 0 85 46q82 66 82 168q0 85 -38 122.5t-129 37.5q-79 0 -158 -78q-65 -63 -65 -82v-350h-243v141 q-129 -84 -265 -84q-170 0 -275 91.5t-105 241.5q0 142 81 217q-81 87 -81 178q0 207 161 295q105 57 262 57q36 0 69 -3l54 -192q-30 3 -65 3q-249 0 -249 -148q0 -75 53 -100q38 -19 137 -19q91 0 166 65q57 51 57 68v433h-800v189h1806v-189zM1439 791q0 47 -37 84 q-42 42 -106 42q-84 0 -253 -137v-172q-3 0 30 26q39 31 84 49q65 27 138 26q57 0 112 -15q32 50 32 97zM800 380v176q-116 -76 -237 -76q-19 0 -55 -7.5t-53 -7.5q-13 0 -24 3q-30 -28 -32 -31q-12 -20 -12 -69q0 -45 54 -79t136 -34q116 0 223 125z"/>
            <glyph horiz-adv-x="2026"
                   d="M2055 1244h-760v-266l62 32q73 31 161 30q167 -1 286 -111q130 -118 130 -304q0 -136 -78 -277q-58 -104 -148 -196q-71 -73 -88 -76l-164 142q7 0 62 63q69 79 112 161q60 113 60 214q0 198 -178 198q-92 0 -158 -38q-59 -33 -59 -67v-749h-246v831h-388q-18 0 -60 -47 q-56 -62 -55 -142q1 -131 65 -259q47 -94 121 -174q56 -61 71 -65l-164 -144q-16 5 -89 89q-97 109 -157 229q-83 165 -82 324q0 70 39 133l43 56h-291v181h947v232h-1049v189h2055v-189z"/>
            <glyph horiz-adv-x="1769"
                   d="M1806 1244h-763v-291q-3 0 30 27q39 32 84 51q65 28 138 27q157 -1 268 -111.5t111 -267.5q0 -125 -62 -242q-44 -85 -115 -156q-55 -56 -64 -56l-178 135q24 0 90 78q88 102 88 230q0 200 -167 200q-91 0 -166 -82q-57 -64 -57 -87v-699h-243v141q-129 -84 -237 -84 q-173 0 -289 91q-119 95 -119 242q0 113 81 188q-81 87 -81 207q0 207 161 295q105 57 262 57q36 0 69 -3l54 -192q-30 3 -65 3q-249 0 -249 -148t190 -148q91 0 166 65q57 51 57 68v462h-800v189h1806v-189zM800 380v148q-116 -77 -237 -77q-66 0 -132 17q-44 -42 -44 -100 q0 -45 54 -79t136 -34q116 0 223 125z"/>
            <glyph horiz-adv-x="1636"
                   d="M1547 766h-209l-1 211h210v-211zM1636 1244h-433v-311h-577q-41 -14 -41 -37q0 -30 49 -79q65 -65 106 -65q22 0 47 8q152 48 288 48q207 0 207 -195q0 -94 -87 -175q-99 -92 -265 -115l-2 -130q85 66 206 66q142 0 226 -81q79 -76 79 -198q0 -139 -88 -214 q-81 -71 -219 -71q-23 0 -48 2l-46 119q94 0 158.5 46t64.5 114q0 117 -154 117q-90 0 -179 -97v-391l-190 2v147q-101 -51 -212 -51q-154 0 -251 69q-105 74 -105 202q0 288 361 288q7 0 73 -6l62 -177q1 0 -40.5 20.5t-72.5 20.5q-81 0 -136 -37q-57 -40 -57 -103 q0 -130 169 -130q117 0 209 86l-4 383q-225 14 -423 133q-48 29 -129 90l-71 54l161 124q61 -74 138 -128q183 -128 411 -131q94 -1 161 28q82 36 82 105q0 59 -82 59q-39 0 -151.5 -20t-167.5 -20q-56 0 -172 106q-129 118 -128 220q1 75 54 113q39 28 87 28h478v164h-982 v189h1636v-189z"/>
            <glyph horiz-adv-x="1636"
                   d="M1547 766h-209l-1 211h210v-211zM1636 1244h-433v-311h-577q-41 -14 -41 -37q0 -30 49 -79q65 -65 106 -65q22 0 47 8q152 48 288 48q207 0 207 -195q0 -68 -49 -133v-895l-162 1l1 91q-155 -73 -257 -73q-375 0 -560 307q-77 129 -110 308l121 48q4 -134 69 -134 q14 0 27 6v284q-23 12 -51 29q-48 29 -129 90l-71 54l161 124q61 -74 138 -128q183 -128 411 -131q94 -1 161 28q82 36 82 105q0 59 -82 59q-39 0 -151.5 -20t-167.5 -20q-56 0 -172 106q-129 118 -128 220q1 75 54 113q39 28 87 28h478v164h-982v189h1636v-189zM1072 -159 v49q-89 -42 -183 -42q-102 0 -189 54q-100 61 -100 155q0 84 65.5 139.5t163.5 55.5q106 0 180 -44l-17 -112q-44 21 -126 21q-84 0 -113 -22q-19 -15 -19 -52q0 -22 43 -40.5t101 -18.5q159 0 194 57v320q-106 -44 -243 -44q-178 0 -306 39v-182q0 -99 -69 -133 q-18 -9 -43 -9q-30 0 -62 12q54 -153 182 -236q102 -67 203 -67q160 0 338 100z"/>
            <glyph horiz-adv-x="1636"
                   d="M1547 766h-209l-1 211h210v-211zM1657 1244h-454v-311h-577q-41 -14 -41 -37q0 -30 49 -79q65 -65 106 -65q22 0 47 8q152 48 288 48q207 0 207 -195q0 -104 -107 -191v-814h-172l1 730q-79 -21 -175 -21q-126 0 -213 16v-428q0 -88 -65 -88q-44 0 -162 82 q-128 88 -128 147q0 46 62 46q10 0 30 -1t30 -1q68 0 68 52l1 239q-69 28 -141 71q-48 29 -129 90l-71 54l161 124q61 -74 138 -128q183 -128 411 -131q94 -1 161 28q82 36 82 105q0 59 -82 59q-39 0 -151.5 -20t-167.5 -20q-56 0 -172 106q-129 118 -128 220q1 75 54 113 q39 28 87 28h478v164h-982v189h1657v-189z"/>
            <glyph horiz-adv-x="1636"
                   d="M1547 766l-210 -1v212h210v-211zM1657 1244h-454v-311h-577q-41 -14 -41 -37q0 -30 49 -79q65 -65 106 -65q22 0 47 8q152 48 288 48q207 0 207 -195q0 -112 -118 -200v-811h-189v184q-97 -88 -243 -88q-131 0 -228 74q-102 79 -102 195q0 149 73 183q-140 88 -140 253 q0 9 9 30l-33 19q-48 29 -129 90l-71 54l161 124q61 -74 138 -128q183 -128 411 -131q94 -1 161 28q82 36 82 105q0 59 -82 59q-39 0 -151.5 -20t-167.5 -20q-56 0 -172 106q-129 118 -128 220q1 75 54 113q39 28 87 28h478v164h-982v189h1657v-189zM975 2v329 q-67 -14 -146 -14q-183 0 -315 42q-8 -99 69 -146q85 20 169 3l58 -153q-73 14 -115 13q-69 -1 -108 -43q-29 -33 -29 -69q0 -39 40 -68q48 -35 133 -35q149 0 244 141z"/>
            <glyph horiz-adv-x="1636"
                   d="M1547 765h-210v212h210v-212zM1657 1244h-454v-311h-602q-26 3 -26 -25q0 -30 34 -91q37 -66 121 -66q28 0 57 9q152 48 288 48q207 0 207 -195q0 -90 -80 -169q-91 -89 -245 -117v-131q109 66 221 66q144 0 236 -81.5t92 -201.5q0 -143 -88.5 -227t-226.5 -84 q-20 0 -40 2l-65 171q17 -3 38 -3q71 0 121 28q66 36 66 107q0 57 -34 91.5t-86 34.5q-112 0 -234 -88v-406h-199v468h-133q-166 -37 -166 -175q0 -108 132 -223l-143 -84q-191 167 -191 331q0 97 88 155h-179l1 153h591l-1 88q-240 11 -446 134q-48 29 -129 90l-71 54 l161 124q61 -74 138 -128q183 -128 411 -131q94 -1 161 28q82 36 82 105q0 59 -70 59q-32 0 -135 -20.5t-160 -20.5q-90 0 -209 106q-128 114 -127 221q1 75 54 113q39 28 87 28h478v164h-982v189h1657v-189z"/>
            <glyph horiz-adv-x="1636"
                   d="M1547 765h-210v212h210v-212zM1657 1244h-454v-311h-602q-26 3 -26 -24q0 -31 34 -92q37 -66 121 -66q28 0 57 9q152 48 288 48q207 0 207 -195q0 -109 -112 -196v-813l-187 1v343q-86 -37 -181 -37q-97 0 -216 89q-177 -97 -177 -182q0 -68 97 -68q57 0 69 23 q-34 31 -34 57q0 60 31 66q9 2 26 2q47 0 104.5 -51t57.5 -100q0 -50 -45 -91l89 -111l-138 -87l-57 160q-9 -4 -56 -4q-102 0 -192 71q-95 74 -95 168q0 139 167 229q-111 87 -111 171q0 97 93 144q-51 23 -104 55q-48 29 -129 90l-71 54l161 124q61 -74 138 -128 q183 -128 411 -131q94 -1 161 28q82 36 82 105q0 59 -70 59q-32 0 -135 -20.5t-160 -20.5q-90 0 -209 106q-128 114 -127 221q1 75 54 113q39 28 87 28h478v164h-982v189h1657v-189zM983 150v183q-71 -16 -154 -16q-51 0 -87 2q33 -51 33 -100q0 -97 -91 -137 q51 -52 120 -52q127 0 179 120zM626 213q0 91 -81 91q-50 0 -64.5 -17t-14.5 -57q0 -64 69 -94q91 45 91 77z"/>
            <glyph horiz-adv-x="2063"
                   d="M2086 1245h-181v-1478h-245v206h-525v-120q0 -62 -54 -62q-23 0 -56 12q-49 18 -129.5 105.5t-99.5 142.5q-5 13 -5 26q0 65 67 65h68v181q-46 -6 -97 -6q-293 0 -518 135q-48 29 -129 90l-71 54l161 124q61 -74 138 -128q183 -128 411 -131q94 -1 161 28q82 36 82 105 q0 59 -70 59q-32 0 -135 -20.5t-160 -20.5q-90 0 -209 106q-128 114 -127 221q1 75 54 113q39 28 87 28h478v165h-982v188h2086v-188zM1660 1245h-457v-312h-602q-26 3 -26 -25q0 -30 34 -91q37 -66 121 -66q28 0 57 9q153 48 288 48q207 0 207 -195q0 -129 -147 -220v-251 h525v1103zM1547 765h-210v212h210v-212z"/>
            <glyph horiz-adv-x="1582"
                   d="M1598 1244h-181v-1244h-246v197q-149 -180 -413 -180q-154 0 -260 85q-112 90 -112 231q0 77 22 103l-286 1v180h310q-90 74 -90 172q0 60 21 95q1 1 45 53h-286v180h776v-168h-272q-64 -62 -64 -144q0 -121 139 -188h197v-168h-272q-32 -14 -32 -96q0 -59 48 -100 q51 -44 132 -44q208 0 397 223v812l-1171 1v188h1598v-189z"/>
            <glyph horiz-adv-x="1633"
                   d="M1659 1244h-339v-181q47 0 109 -48q106 -83 106 -260q0 -138 -87 -282q-82 -137 -221 -245v-754h-213v167q-105 -91 -270 -91q-145 0 -243 82q-105 89 -105 239q0 146 96 217q-263 116 -263 404q0 165 150 285q-55 8 -131 77q-101 92 -101 212q0 93 68 178h-215v189h1659 v-189zM1303 763q0 62 -28 103q-31 44 -82 44q-107 0 -107 -161q0 -152 110 -246q20 8 59 82q48 92 48 178zM1094 1071v173h-645q-10 0 -33 -44q-30 -58 -29 -129q2 -103 92 -144q46 -22 95 -22h133l51 -178h-102q-84 0 -138 -69t-54 -163q0 -113 77 -189.5t186 -76.5 q102 0 214 53q91 43 113 74q-18 0 -92 130q-89 158 -89 300q0 226 221 285zM1014 102q-147 -63 -287 -62h-24q-97 -57 -97 -136q0 -91 61 -143q47 -40 99 -40q170 0 248 172v209z"/>
            <glyph horiz-adv-x="1667"
                   d="M1682 1245h-181v-1245h-245v337l-421 -1q75 -65 75 -167q0 -99 -63 -166q-76 -79 -217 -79q-287 0 -576 418l143 128q212 -360 398 -360q56 0 91 36.5t35 98.5q0 131 -130 201l20 57l645 -2v268l-270 185l-151 1q75 -64 75 -146q0 -101 -65 -167q-79 -81 -233 -81 q-287 0 -558 400l143 129q195 -343 381 -343q143 0 143 110q0 131 -130 208l20 57l387 -1l258 -176v300h-1256v188h1682v-188z"/>
            <glyph horiz-adv-x="1662"
                   d="M1679 1245h-181v-1245h-246v116q-92 -89 -237 -116q-43 -8 -85 -8q-165 0 -235 118q-42 71 -42 139q0 44 19 67l-320 -143l-110 150l734 290l80 -160l-172 -51q-54 -41 -54 -93q0 -39 32 -84q40 -56 127 -56q50 0 93 22q109 55 170 155v377q-43 -12 -128 -12 q-144 0 -252 97q-36 -275 -377 -275q-228 0 -458 195l115 137q149 -166 314 -166q157 0 213 62q33 37 33 110q0 103 -171 103q-84 0 -178 -103l-80 169q103 116 271 116q221 0 301 -188q103 -74 252 -74q76 0 145 51v300h-1252v188h1679v-188z"/>
            <glyph horiz-adv-x="1662"
                   d="M1679 1245h-181v-1245h-246l1 319l-369 -27q74 -65 74 -167q0 -245 -280 -245q-287 0 -624 418l143 129q261 -361 447 -361q67 0 90 12q35 18 35 75q0 131 -130 249l20 57l593 34v230q-43 -12 -128 -12q-144 0 -252 97q-36 -275 -377 -275q-228 0 -458 195l115 137 q149 -166 314 -166q157 0 213 62q33 37 33 110q0 103 -171 103q-84 0 -178 -103l-80 169q103 116 271 116q221 0 301 -188q103 -74 252 -74q76 0 145 51v300h-1252v188h1679v-188z"/>
            <glyph horiz-adv-x="1364"
                   d="M1385 1244h-297v-370h-523q-84 0 -134 -43.5t-50 -119.5q0 -113 107 -172q93 -51 244 -51q250 0 365 209l186 -130q-61 -82 -154 -145q-151 -102 -328 -102v-150q119 72 200 72q137 0 217 -81q75 -75 75 -188q0 -139 -88 -216q-82 -71 -220 -71q-23 0 -47 2l-63 130 q229 0 229 149q0 100 -126 100q-85 0 -177 -87v-375l-199 2v139q-103 -52 -202 -52q-129 0 -214 76q-90 80 -90 210q0 127 102 204q91 69 215 69q19 0 74 -5l65 -169q1 0 -42 4t-74 4q-139 0 -139 -114t134 -114q60 0 102 28l69 57v367q-464 48 -464 428q0 139 109 229 q106 87 264 87h345v189h-856v189h1385v-189z"/>
            <glyph horiz-adv-x="1364"
                   d="M1385 1244h-297v-370h-523q-84 0 -134 -43.5t-50 -119.5q0 -113 107 -172q93 -51 244 -51q250 0 365 209l186 -130l-7 -9q-81 -110 -198 -168v-782h-213l1 717q-62 -9 -137 -9q-91 0 -177 16v-462q0 -88 -65 -88q-42 0 -170 99q-136 106 -136 165q0 46 62 46q10 0 30 -1 t30 -1q68 0 68 52l1 247q-234 114 -234 350q0 139 109 229q106 87 264 87h345v189h-856v189h1385v-189z"/>
            <glyph horiz-adv-x="1371"
                   d="M1396 1244h-285v-317h-571q-52 0 -91 -35.5t-39 -85.5q0 -113 118 -172q95 -46 227 -46q118 0 226 47q88 39 136 92l164 -131q-29 -21 -91 -62q-25 -17 -79 -48v-347h-588q-47 0 -81.5 -32.5t-34.5 -78.5q0 -108 125 -167q103 -48 240 -48q211 0 345 130l164 -127 q-200 -164 -501 -164q-231 0 -406 100q-199 113 -199 299q0 106 89 177q85 66 200 66h421v141q-28 -3 -91 -2q-245 2 -416 88q-203 103 -203 290q0 130 97 199q84 59 214 59h399v175h-885v189h1396v-189z"/>
            <glyph horiz-adv-x="1381"
                   d="M1396 1244h-285v-328h-571q-52 0 -91 -36t-39 -86q0 -113 118 -171q94 -46 227 -46q118 0 226 47q88 38 136 91l164 -130q-30 -37 -76.5 -67.5t-79.5 -42.5v-359h-599q-51 0 -88 -30.5t-37 -77.5q0 -106 126 -166q107 -51 253 -51q94 0 167 27q85 32 85 83q0 43 -26 75 q-19 24 -28 24l156 93q61 -42 80 -68q31 -41 30 -110q-1 -141 -153 -210q-122 -56 -305 -56q-233 0 -411 95q-196 106 -200 276q-2 101 67 176t168 75h492v153q-49 -4 -108 -3q-245 2 -416 89q-203 103 -203 290q0 130 97 198q84 59 214 59h399v187h-885v189h1396v-189z"/>
            <glyph horiz-adv-x="1364"
                   d="M1385 1244h-297v-370h-523q-84 0 -134 -43.5t-50 -119.5q0 -113 107 -172q93 -51 244 -51q250 0 365 209l186 -130l-7 -9q-81 -110 -198 -168v-782h-213l1 149q-141 -110 -316 -110q-143 0 -253 76q-129 88 -129 236q0 127 102 204q92 69 216 69q120 0 155 -23l65 -179 q11 0 -37 13t-128 13q-85 0 -134.5 -36.5t-49.5 -92.5q0 -44 49 -78q57 -39 156 -39q129 0 304 142v373q-62 -9 -137 -9q-277 0 -440 127q-151 117 -151 296q0 139 109 229q106 87 264 87h345v189h-856v189h1385v-189z"/>
            <glyph horiz-adv-x="1371"
                   d="M1396 1244h-279v-337h-622q-44 0 -73 -32.5t-29 -77.5q0 -96 122 -158q111 -57 248 -57q238 0 238 113q0 25 -23 56q-18 24 -28 29l155 108q32 -14 71 -62q51 -63 51 -131q0 -72 -27 -128q-32 -64 -83 -64v-364h-600q-50 0 -87 -30.5t-37 -77.5q0 -106 126 -166 q107 -52 253 -52q93 0 165 28q83 32 83 83q0 57 -62 93l153 96q114 -79 113 -175q-1 -141 -148 -212q-118 -57 -299 -57q-230 0 -410 95q-203 108 -203 276q0 103 68.5 178.5t168.5 75.5h492v141q3 0 -48 -1t-82 -1q-211 0 -382 89q-211 108 -211 298q0 111 65 177 q63 63 161 63h497v184h-893v189h1396v-189z"/>
            <glyph horiz-adv-x="1399"
                   d="M1418 1244h-238v-311h-577q-40 -14 -40 -36q0 -31 49 -80q62 -62 118 -62q18 0 35 5q152 48 288 48q206 0 206 -195q0 -161 -119 -228v-777h-186v713q-38 -4 -147 -4q-68 0 -178 20v-467q0 -88 -65 -88q-42 0 -170 99q-136 106 -136 165q0 46 62 46q10 0 30 -1t30 -1 q68 0 68 52l1 244q-205 74 -381 200l161 125q67 -72 148 -123q194 -124 422 -127q94 -1 161 28q82 36 82 105q0 59 -82 59q-39 0 -152 -20t-168 -20q-70 0 -180 106q-120 115 -119 220q1 75 54 113q39 28 87 28h478v164h-960v189h1418v-189z"/>
            <glyph horiz-adv-x="1450"
                   d="M1546 1244h-237v-311h-577q-40 -14 -40 -36q0 -31 49 -80q65 -65 106 -65q21 0 46 8q152 48 289 48q206 0 206 -195q0 -111 -111 -199q-131 -102 -341 -97q-89 2 -175 16.5t-74 14.5l-14 -20q-13 -18 -13 -37q0 -41 64 -90q70 -53 114 -53q26 0 58 10q133 42 286 40 q206 -3 206 -198q0 -141 -146 -237q-135 -88 -309 -88q-372 0 -800 322l113 156q314 -334 681 -334q87 0 161 44q82 49 82 120q0 59 -80 59q-39 0 -152 -21t-169 -21q-62 0 -171 75q-129 89 -129 188q0 50 8.5 89t8.5 61q-50 20 -200 110q-48 29 -129 90l-72 54l161 125 q100 -95 204 -164q249 -164 477 -167q94 -1 161 28q82 36 82 105q0 59 -82 59q-39 0 -151.5 -20t-167.5 -20q-56 0 -172 106q-129 118 -128 220q1 75 54 113q40 28 88 28h477v164h-1088v189h1546v-189z"/>
            <glyph horiz-adv-x="1506"
                   d="M1546 1244h-237v-300h-577q-40 -2 -40 -28q0 -27 49 -76q40 -40 130 -40q24 0 138.5 14t172.5 14q206 0 206 -195q0 -129 -161 -192v-297h-608q-23 0 -59 -27q-54 -42 -54 -117q0 -104 139 -166q92 -40 141 -40q-8 36 -8 66q0 205 285 205q117 0 199 -47q95 -55 95 -151 q0 -114 -143 -176q-118 -50 -281 -50q-261 0 -440 83q-217 102 -216 296q1 126 87 194q77 60 199 60h446v127q-44 -8 -107 -8q-320 0 -625 192q-46 29 -124 92l-68 55l161 116q306 -322 681 -322q243 0 243 96q0 77 -101 77q-44 0 -150 -19t-150 -19q-60 0 -171 87 q-129 101 -129 202q0 75 54 113q40 28 88 28h477v153h-1088v189h1546v-189zM1148 -136q0 91 -122 91q-118 0 -118 -144q0 -18 2 -34h96q142 0 142 87z"/>
            <glyph horiz-adv-x="1399"
                   d="M1418 1244h-238v-311h-577q-40 -14 -40 -36q0 -31 49 -80q62 -62 118 -62q18 0 35 5q152 48 288 48q206 0 206 -195q0 -116 -124 -205v-800h-192v149q-141 -110 -335 -110q-143 0 -254 76q-129 88 -129 236q0 127 102 204q92 69 216 69q120 0 156 -23l65 -179 q11 0 -37.5 13t-128.5 13q-85 0 -134 -36.5t-49 -92.5q0 -44 48 -78q57 -39 156 -39q77 0 188 56q81 42 136 86l1 374q-56 -9 -137 -9q-473 0 -739 269l161 125q67 -72 148 -123q194 -124 422 -127q94 -1 161 28q82 36 82 105q0 59 -82 59q-39 0 -152 -20t-168 -20 q-70 0 -180 106q-120 115 -119 220q1 75 54 113q39 28 87 28h478v164h-960v189h1418v-189z"/>
            <glyph horiz-adv-x="1347"
                   d="M1391 1247h-313v-245h-486q-217 0 -217 -185q0 -214 333 -214q336 0 336 122q0 69 -97 69q-98 0 -98 -80q0 -58 63 -52l-120 -51q-103 29 -103 125q0 83 71 139t175 56q103 0 175 -52q77 -56 77 -145q0 -127 -109 -204v-340h-486q-217 0 -217 -186q0 -214 333 -214 q336 0 336 123q0 68 -97 68q-98 0 -98 -80q0 -58 63 -51l-120 -52q-103 30 -103 126q0 83 71 139t175 56q103 0 175 -53q77 -56 77 -145q0 -160 -171 -239q-132 -61 -321 -61q-229 0 -378 99q-163 107 -163 291q0 144 101 234q98 87 249 87l363 -1v118q-86 -16 -172 -16 q-229 0 -378 99q-163 107 -163 291q0 144 101 234q98 87 249 87l363 -1v104h-867v189h1391v-189z"/>
            </font>
</defs>
</svg>
