<?xml version="1.0" standalone="no"?>
<!DOCTYPE svg PUBLIC "-//W3C//DTD SVG 1.1//EN" "http://www.w3.org/Graphics/SVG/1.1/DTD/svg11.dtd" >
<svg xmlns="http://www.w3.org/2000/svg">
    <metadata>
        This is a custom SVG webfont generated by Font Squirrel.
        Copyright : Copyright c GNU GPL v2v3 with font exception 2010 by Mohd Asif Ali Rizvan fastrizwaangmailcom All
        rights reserved
        Foundry : Mohd Asif Ali Rizvan
        Foundry URL : httpwwwgurumaacom
    </metadata>
    <defs>
        <font id="webfontrob2J27r" horiz-adv-x="2">
            <font-face units-per-em="2610" ascent="2088" descent="-522"/>
            <missing-glyph horiz-adv-x="1389"/>
            <glyph horiz-adv-x="0"/>
            <glyph horiz-adv-x="0"/>
            <glyph unicode="&#xd;" horiz-adv-x="521"/>
            <glyph unicode=" " horiz-adv-x="1389"/>
            <glyph unicode="&#x09;" horiz-adv-x="1389"/>
            <glyph unicode="&#xa0;" horiz-adv-x="1389"/>
            <glyph unicode="!" horiz-adv-x="415"
                   d="M308 579l-56 800v339h230v-339l-54 -800h-120zM260 201v214h214v-214h-214z"/>
            <glyph unicode="&#x22;" horiz-adv-x="741"
                   d="M196 1211l-51 288v247h209v-247l-43 -288h-115zM538 1211l-51 288v247h211v-247l-48 -288h-112z"/>
            <glyph unicode="#" horiz-adv-x="1312"
                   d="M196 551l87 438h-173v155h206l77 378h-283v150h313l92 444h153l-89 -444h326l89 444h156l-90 -444h179v-150h-212l-74 -378h286v-155h-319l-89 -438h-156l87 438h-321l-89 -438h-156zM469 1144h324l79 373h-327z"/>
            <glyph unicode="$" horiz-adv-x="1187"
                   d="M561 155v184q-140 20 -227 61q-87 46 -150 148q-64 99 -74 245l186 35q23 -150 76 -221q79 -99 189 -110v591q-117 23 -235 90q-89 51 -137 140q-46 84 -46 196q0 199 137 324q97 82 281 102v86h109v-86q161 -20 260 -97q120 -99 146 -281l-194 -28q-15 110 -71 171 q-51 56 -141 77v-538q140 -36 186 -54q87 -41 143 -94q54 -54 82 -130q31 -76 30 -163q0 -194 -122 -321q-122 -133 -319 -143v-184h-109zM551 1787q-110 -15 -174 -87q-61 -69 -61 -166q0 -94 51 -158q54 -64 184 -104v515zM693 482q107 15 179 97q71 79 71 198 q0 99 -51 164q-51 61 -199 109v-568z"/>
            <glyph unicode="%" horiz-adv-x="1814"
                   d="M196 1379q0 163 81.5 275t237.5 112q143 0 234 -99q94 -105 94.5 -298.5t-94.5 -295.5q-92 -107 -234 -107q-135 0 -230 105q-89 102 -89 308zM517 1639q-66 0 -114 -56q-43 -61 -44 -224q0 -143 44 -204q48 -59 114 -59q71 0 120 59q43 61 44 221q0 145 -44 207 q-49 56 -120 56zM573 196l826 1598h153l-828 -1598h-151zM1178 584q0 163 81 275q79 112 235 112q143 0 239 -99q92 -105 92 -298.5t-97 -298.5q-92 -105 -234 -104q-135 0 -225 104q-91 103 -91 309zM1494 828q-71 0 -113 -58q-48 -61 -48 -219q0 -143 48 -204 q46 -61 113 -62q71 0 119 62q46 61 46 219q0 143 -46 204q-48 58 -119 58z"/>
            <glyph unicode="&#x26;" horiz-adv-x="1457"
                   d="M1045 400q-92 -102 -201 -153q-107 -48 -235 -48q-232 0 -367 155q-112 127 -112 288q0 138 89 250q92 115 270 201q-99 117 -135 192q-33 74 -33 142q0 135 107 237t270 102q153 0 252.5 -96.5t99.5 -229.5q0 -217 -288 -367l273 -347q46 89 71 212l194 -41 q-51 -201 -135 -329q105 -138 237 -232l-125 -147q-112 71 -232 211zM668 1193q120 71 153 125q38 51 38 120q0 74 -48 124q-51 48 -123 49q-76 0 -125 -49q-51 -48 -51 -119q0 -33 18 -74q18 -38 56 -82zM930 548l-344 423q-150 -92 -204 -166q-51 -77 -51 -153 q0 -92 72 -191q74 -99 209 -99q84 0 173 51q86 56 145 135z"/>
            <glyph unicode="'" horiz-adv-x="397" d="M194 1300l-46 283v255h211v-255l-51 -283h-114z"/>
            <glyph unicode="(" horiz-adv-x="734"
                   d="M500 -181q-158 194 -263 454q-107 260 -107 540q0 247 79 472q94 263 291 520h132q-127 -214 -168 -306q-61 -143 -97 -301q-46 -191 -46 -387q0 -494 311 -992h-132z"/>
            <glyph unicode=")" horiz-adv-x="864"
                   d="M342 -184h-136q308 497 309 995q0 191 -41 384q-36 155 -99 296q-43 94 -169 314h136q194 -260 285 -523q82 -224 82 -471q0 -278 -110 -538q-104 -263 -257 -457z"/>
            <glyph unicode="*" horiz-adv-x="866"
                   d="M97 1450l51 148q163 -59 234 -99q-18 186 -18 257h151q-3 -105 -26 -257q107 54 245 99l46 -148q-130 -43 -255 -58q61 -54 176 -197l-125 -86q-59 82 -138 221q-79 -145 -135 -221l-122 86q120 150 171 197q-133 25 -255 58z"/>
            <glyph unicode="+" horiz-adv-x="1340" d="M591 433v416h-410v173h410v413h179v-413h408v-173h-408v-416h-179z"/>
            <glyph unicode="," horiz-adv-x="573"
                   d="M199 199v211h214v-211q0 -117 -43 -189q-41 -74 -133 -112l-51 82q59 25 84 74q31 51 33 145h-104z"/>
            <glyph unicode="-" horiz-adv-x="757" d="M107 915v186h571v-186h-571z"/>
            <glyph unicode="." horiz-adv-x="708" d="M209 189v211h214v-211h-214z"/>
            <glyph unicode="/" horiz-adv-x="772" d="M76 186l439 1568h148l-439 -1568h-148z"/>
            <glyph unicode="0" horiz-adv-x="1271"
                   d="M125 976q0 270 56 434q54 163 161 252q112 87 277 86q122 0 212 -48q94 -48 153 -140q61 -94 94 -227q33 -130 33 -357q0 -268 -56 -431q-51 -163 -163 -254q-107 -89 -273 -90q-219 0 -346 158q-148 189 -148 617zM316 976q0 -372 87 -494q87 -127 216 -128 q127 0 214 128q87 122 87 494q0 375 -86.5 497.5t-216.5 122.5q-127 0 -204 -107q-97 -141 -97 -513z"/>
            <glyph unicode="1" horiz-adv-x="846"
                   d="M658 199h-192v1188q-64 -69 -173 -130q-110 -64 -196 -97v181q155 74 273 176q117 107 165 203h123v-1521z"/>
            <glyph unicode="2" horiz-adv-x="1289"
                   d="M1106 372v-178h-999q-5 69 18 130q38 102 122 201t245 229q247 204 336 319q84 122 84 227q0 110 -79 186t-206 76q-133 0 -214.5 -81.5t-81.5 -223.5l-193 20q20 214 147 329q130 110 347 109.5t344 -119.5q127 -122 128 -301q0 -89 -38.5 -178.5t-122.5 -183.5 q-87 -97 -285 -268q-168 -143 -217 -191q-48 -51 -79 -102h744z"/>
            <glyph unicode="3" horiz-adv-x="1279"
                   d="M148 617l183 25q31 -158 110 -229q76 -66 186 -66q133 0 224.5 89t91.5 224q0 127 -87 212q-84 82 -211 81q-54 0 -130 -18l20 164q18 -3 28 -3q120 0 217 61q92 61 92 194q0 99 -69 171q-69 64 -178.5 63.5t-181.5 -68.5q-71 -66 -91 -204l-189 33q36 186 158 288 q120 102 298 102q125 0 229.5 -51t158.5 -146q59 -89 58 -193q0 -99 -53.5 -181t-157.5 -128q135 -31 211 -127q71 -99 72 -245q0 -196 -143 -336q-145 -138 -367 -138q-199 0 -331 117q-133 120 -148 309z"/>
            <glyph unicode="4" horiz-adv-x="1302"
                   d="M757 184v364h-660v171l693 981h153v-981h204v-171h-204v-364h-186zM757 719v683l-477 -683h477z"/>
            <glyph unicode="5" horiz-adv-x="1279"
                   d="M148 614l196 18q23 -143 105 -217q76 -69 188 -68q135 0 230 102q92 99 91 267q0 158 -89 250q-89 94 -234 94q-89 0 -161 -40q-74 -43 -115 -110l-175 25l147 778h755v-179h-607l-79 -405q135 94 286 94q196 0 334 -140q135 -135 135 -351q0 -206 -120 -355 q-143 -184 -398 -183q-206 0 -336 114q-133 115 -153 306z"/>
            <glyph unicode="6" horiz-adv-x="1279"
                   d="M1088 1364l-186 -16q-23 112 -71 161q-71 79 -184 79q-89 0 -155 -51q-89 -64 -140 -186q-48 -122 -51 -349q66 99 163 153q99 48 204 48q186 0 316 -140q133 -135 132 -354q0 -140 -61 -262.5t-171 -189.5q-105 -64 -244 -63q-232 0 -380 170q-145 171 -145 564 q0 441 163 637q143 176 380 176q178 0 295 -102q112 -99 135 -275zM329 709q0 -94 41 -184q43 -87 114 -135q74 -43 153 -43q120 0 204 94t84 260q0 155 -84 247q-82 89 -209 89t-217 -89q-86 -91 -86 -239z"/>
            <glyph unicode="7" horiz-adv-x="1266"
                   d="M158 1511v176h981v-142q-145 -155 -288 -411q-140 -255 -216 -522q-59 -191 -72 -418h-193q3 178 71 433q64 252 194 487q125 237 267 397h-744z"/>
            <glyph unicode="8" horiz-adv-x="1284"
                   d="M421 1022q-115 41 -171 122q-56 76 -56 186q0 166 119.5 278t313.5 112q204 0 324 -114q117 -115 117 -278q0 -110 -54 -184q-56 -82 -168 -122q140 -46 214 -148q74 -99 74 -242q0 -194 -140 -326q-138 -130 -359 -130q-227 0 -365 130q-138 135 -137 334q0 148 76 247 q74 97 212 135zM382 1338q0 -110 72 -178q71 -66 181 -67q107 0 176 67q69 69 68 168q0 102 -71 173q-71 69 -176 69q-107 0 -178 -69q-72 -66 -72 -163zM321 635q0 -76 41 -153q41 -71 112 -115q76 -38 161 -38q135 0 219 84q89 87 89 219q0 135 -92 222q-89 87 -224 87 q-127 0 -214 -87q-92 -86 -92 -219z"/>
            <glyph unicode="9" horiz-adv-x="1284"
                   d="M163 561l179 12q23 -122 86 -178q66 -56 168 -56q84 0 148 38q66 38 107 105q41 64 69 176q25 112 26 229v36q-54 -92 -153 -146q-94 -51 -207 -51q-191 0 -318 133q-130 138 -130 359q0 232 132 372q135 140 342 141q148 0 270 -79t186 -227q66 -148 66 -426 q0 -293 -66 -464q-61 -173 -186 -260q-122 -92 -293 -91q-176 0 -291 96q-112 100 -135 281zM925 1229q0 161 -84 254q-87 92 -204 92q-125 0 -219 -99q-89 -99 -89 -260q0 -148 86.5 -237t211.5 -89q133 0 214 89q84 89 84 250z"/>
            <glyph unicode=":" horiz-adv-x="726" d="M291 1353v209h211v-209h-211zM291 469v212h211v-212h-211z"/>
            <glyph unicode=";" horiz-adv-x="680"
                   d="M270 1081v209h209v-209h-209zM270 194v214h209v-214q0 -117 -38 -189q-41 -74 -133 -112l-51 79q59 25 85 76q31 48 33 146h-105z"/>
            <glyph unicode="&#x3c;" horiz-adv-x="1340" d="M176 795v171l1007 426v-186l-801 -327l801 -328v-184z"/>
            <glyph unicode="=" horiz-adv-x="1254" d="M1093 1137h-996v176h996v-176zM1093 678h-996v173h996v-173z"/>
            <glyph unicode="&#x3e;" horiz-adv-x="1333"
                   d="M1188 808l-1004 -428v183l792 329l-792 326v186l1004 -423v-173z"/>
            <glyph unicode="?" horiz-adv-x="1302"
                   d="M535 568v56q0 107 28 189q23 59 74 120q38 46 133 130q99 84 125 135q31 54 30 110q0 112 -84 193.5t-206 81.5q-120 0 -199 -72q-82 -76 -105 -234l-193 20q25 214 153 327q130 112 336 112q224 0 356.5 -122.5t132.5 -293.5q0 -97 -48 -178q-43 -87 -178 -204 q-92 -84 -120 -120q-28 -41 -41 -89q-15 -48 -18 -161h-176zM525 194v214h209v-214h-209z"/>
            <glyph unicode="&#xad;" horiz-adv-x="757" d="M107 915v186h571v-186h-571z"/>
            <glyph unicode="&#x901;"
                   d="M-443 2353h-174v160h174v-160zM-54 2398q-23 -135 -61 -201q-120 -196 -413 -196q-283 0 -410 196q-41 66 -69 201h153q3 -59 13 -91q69 -196 313 -197q209 0 283 146q25 48 36 142h155z"/>
            <glyph unicode="&#x902;" d="M-194 2019h-219v216h219v-216z"/>
            <glyph unicode="&#x903;" horiz-adv-x="655"
                   d="M673 1613h-673v123h673v-123zM464 1048h-222v219h222v-219zM464 461h-222v220h222v-220z"/>
            <glyph unicode="&#x905;" horiz-adv-x="1763"
                   d="M1794 1613h-252v-1422h-158v681q-46 -8 -97 -13q-48 -8 -53 -8q-56 0 -141 28q-13 5 -38 21q10 -36 21 -51q20 -71 20 -140q0 -189 -120 -288q-105 -92 -270 -92q-229 0 -469 290q-79 97 -196 293l122 74q102 -178 168 -270q204 -268 378 -267q102 0 173 76q69 79 69 191 q0 138 -92 219q-89 79 -219 79q-38 0 -89 -12q-15 -3 -51 -16l-59 115l176 31q92 23 145 86q56 69 56 171q0 94 -48 156q-59 69 -168 68q-107 0 -235 -102q-38 -38 -99 -109l-123 89q74 84 133 122q163 122 331 123q161 0 258 -97q97 -94 96 -240q0 -206 -178 -298 q31 -8 46 -13q51 -15 74 -25q25 -8 81 -49q8 -3 26 -15q36 -13 61 -15q74 -20 110 -21q51 0 130 26q28 8 71 25v599h-280v123h690v-123z"/>
            <glyph unicode="&#x906;" horiz-adv-x="2273"
                   d="M2337 1613h-252v-1419h-156v1419h-265v123h673v-123zM1794 1613h-252v-1422h-158v681q-46 -8 -97 -13q-48 -8 -53 -8q-56 0 -141 28q-13 5 -38 21q10 -36 21 -51q20 -71 20 -140q0 -189 -120 -288q-105 -92 -270 -92q-229 0 -469 290q-79 97 -196 293l122 74 q102 -178 168 -270q204 -268 378 -267q102 0 173 76q69 79 69 191q0 138 -92 219q-89 79 -219 79q-38 0 -89 -12q-15 -3 -51 -16l-59 115l176 31q92 23 145 86q56 69 56 171q0 94 -48 156q-59 69 -168 68q-107 0 -235 -102q-38 -38 -99 -109l-123 89q74 84 133 122 q163 122 331 123q161 0 258 -97q97 -94 96 -240q0 -206 -178 -298q31 -8 46 -13q51 -15 74 -25q25 -8 81 -49q8 -3 26 -15q36 -13 61 -15q74 -20 110 -21q51 0 130 26q28 8 71 25v599h-280v123h690v-123z"/>
            <glyph unicode="&#x907;" horiz-adv-x="1315"
                   d="M1361 1613h-347v-395h-624q-18 -13 -18 -25q0 -23 18 -61q15 -38 71 -110q36 -51 87 -99.5t89 -48.5q71 0 143 26q166 59 209 58q76 0 120 -66q41 -64 41 -150q0 -206 -123 -342q-143 -155 -283 -155l64 -61q74 -69 114.5 -99.5t130.5 -87.5q74 -43 81 -48l-86 -122 q-28 13 -44 25q-112 74 -211 168q-71 61 -166 161q-48 48 -51 56l-87 -5q-107 0 -196 56q-107 61 -107 171q0 54 38 97q41 41 97 40q112 0 224 -114q33 -36 92 -118q120 15 179 44q178 82 178 288q0 71 -3 84q-13 48 -50 48q-105 -36 -191.5 -61t-150.5 -25q-115 0 -257 186 q-138 184 -138 288q0 56 41 92q38 33 97 33h514v272h-856v123h1361v-123z"/>
            <glyph unicode="&#x908;" horiz-adv-x="1315"
                   d="M1361 1613h-347v-395h-624q-18 -13 -18 -25q0 -23 18 -61q15 -38 71 -110q36 -51 87 -99.5t89 -48.5q71 0 143 26q166 59 209 58q76 0 120 -66q41 -64 41 -150q0 -206 -123 -342q-143 -155 -283 -155l64 -61q74 -69 114.5 -99.5t130.5 -87.5q74 -43 81 -48l-86 -122 q-28 13 -44 25q-112 74 -211 168q-71 61 -166 161q-48 48 -51 56l-87 -5q-107 0 -196 56q-107 61 -107 171q0 54 38 97q41 41 97 40q112 0 224 -114q33 -36 92 -118q120 15 179 44q178 82 178 288q0 71 -3 84q-13 48 -50 48q-105 -36 -191.5 -61t-150.5 -25q-115 0 -257 186 q-138 184 -138 288q0 56 41 92q38 33 97 33h514v272h-856v123h1361v-123zM1137 2335q-25 13 -44 12q-54 18 -117 18q-87 0 -143 -48q-54 -54 -53 -156q0 -127 102 -283q33 -51 104 -132h-122q-31 10 -120 153q-112 178 -112 316q0 145 107 217q82 56 219 56q71 0 128 -18 q23 0 51 -18v-117z"/>
            <glyph unicode="&#x909;" horiz-adv-x="1610"
                   d="M1652 1613h-423q41 -51 61 -81q64 -110 63.5 -204t-41 -158t-114.5 -115q247 -107 247 -403q0 -181 -122 -293q-125 -115 -311 -114q-232 0 -451 252q-148 171 -291 466l-99 253l135 81l87 -239q112 -265 254 -446q176 -240 357 -240q153 0 225 100q54 74 53 196 q0 135 -79 237q-79 105 -209 104h-273l-53 123h321q71 3 104 12q110 51 110 194q0 87 -76 191l-79 84h-1048v123h1652v-123z"/>
            <glyph unicode="&#x90a;" horiz-adv-x="1977"
                   d="M2054 1613h-961q43 -51 62 -81q64 -110 63 -204q0 -97 -43 -168q-41 -66 -127 -115q18 -18 33 -23q41 -25 56 -38l71 -79q61 71 102 104q130 107 245 107q138 0 234 -104q97 -102 97 -242q0 -153 -132 -362q-41 -71 -130 -184l-141 77q84 97 128 158q127 186 127 318 q0 87 -35 143q-48 74 -153 74q-97 0 -197 -110q-33 -36 -76 -114q3 -33 3 -54q0 -173 -62 -283q-97 -189 -346 -188q-234 0 -418 237q-133 173 -217 433q-69 222 -56 245l130 94q28 -112 51 -227q76 -257 178 -423q145 -227 329 -227q150 0 207 92q46 64 45 186 q0 133 -58 224q-59 97 -171 97h-224l-61 125h272q64 23 92 43q94 71 94 194q0 87 -76 191q-25 31 -79 84h-910v123h2054v-123z"/>
            <glyph unicode="&#x90b;" horiz-adv-x="2214"
                   d="M2258 1613h-968v-627l359 174q-23 33 -23 74q0 71 51 127q48 59 120 59q153 0 153 -189q0 -51 -64 -102q-18 -18 -66 -46l160 -285q-110 -28 -160 -49q-158 -74 -158 -204q0 -120 51 -178q54 -61 150 -61q102 0 166 69q23 23 46 66l112 -125q-38 -43 -71 -64 q-102 -69 -248 -68q-171 0 -270 104q-97 107 -97 263q0 120 87 216q87 92 209 92l-99 196l-408 -196v-668h-156v597l-645 -472l-96 133l662 430q-97 117 -150 171q-163 168 -224 168q-64 0 -278 -97q-71 -33 -199 -101l-102 117q10 13 257 120q268 117 339 117 q82 0 260 -191q168 -176 176 -207v637h-1134v123h2258v-123z"/>
            <glyph unicode="&#x90c;" horiz-adv-x="1728"
                   d="M1769 1552h-546v-280q25 -5 46 -5q122 3 186 -64q74 -92 74 -206q0 -84 -48 -146q-51 -61 -140 -104q-133 -92 -179 -138t-28 -89q13 -38 44 -51q18 -33 61 -54q69 -18 168 0q54 18 117 67l61 -135q-43 -28 -71 -36q-94 -38 -173 -38q-64 0 -123 20q-59 23 -107 79 q-92 97 -91 201q0 69 45 133q41 61 133 107q122 61 173 120q51 61 51 115q0 51 -41 84q-48 31 -122 30q-61 0 -122 -20q-61 -25 -117 -82q-94 -89 -161 -188q-18 -33 -61 -77l-117 95q28 56 48 91q8 13 18 3q-33 48 -61 79q-71 61 -146 87q-36 20 -53.5 17.5t-58.5 -7.5 q-138 -25 -130 -276q0 -158 153 -311q84 -102 242 -214l138 -94l-94 -71q-51 31 -102 84q-219 143 -370 341q-122 148 -122 342q0 148 79 245q84 97 242 96q133 0 255 -107q38 -36 92 -107q20 20 30 33q41 46 79 74q38 33 92 51q13 8 51 18v288h-1063l-15 174l1784 -6v-168z "/>
            <glyph unicode="&#x90d;" horiz-adv-x="1325"
                   d="M1379 1613h-242v-558v-33q-13 -64 -72 -120q-51 -54 -114 -79q-10 -5 -23 -10l-110 89h18q54 13 102 64q25 33 38 79q0 13 3 38v530h-566v-739l680 -632q28 -10 49 -61q25 -51 25 -105q0 -110 -114 -165q-38 -13 -115 -31l-130 130q15 -3 41 -5q23 -3 33 -2q48 0 71 10 q25 10 41 30q18 23 18 51t-31 64q-10 10 -28 31l-703 660v764h-250v123h1379v-123zM1152 2370q-23 -135 -61 -198q-120 -199 -413 -199q-285 0 -408 199q-41 64 -71 198h153q13 -97 41 -140q82 -145 285 -145q212 0 285 140q23 46 31 145h158z"/>
            <glyph unicode="&#x90e;" horiz-adv-x="1327"
                   d="M1114 1733h-115q-13 56 -30 84q-46 94 -136 125q-84 31 -209 44q-127 8 -224 56q-99 48 -130 119q-36 71 -36 161q0 64 11 107q0 3 10 20l79 -5q-3 -25 -3 -43q0 -84 26 -145q43 -97 130 -118q201 -25 288 -38t201 -89q69 -46 110 -166zM1379 1613h-242v-558v-33 q-13 -64 -72 -120q-51 -54 -114 -79q-10 -5 -23 -10l-110 89h18q54 13 102 64q25 33 38 79q0 13 3 38v530h-566v-739l680 -632q28 -10 49 -61q25 -51 25 -105q0 -110 -114 -165q-38 -13 -115 -31l-130 130q15 -3 41 -5q23 -3 33 -2q48 0 71 10q25 10 41 30q18 23 18 51 t-31 64q-10 10 -28 31l-703 660v764h-250v123h1379v-123z"/>
            <glyph unicode="&#x90f;" horiz-adv-x="1333"
                   d="M1379 1613h-242v-558v-33q-13 -64 -72 -120q-51 -54 -114 -79q-10 -5 -23 -10l-110 89h18q54 13 102 64q25 33 38 79q0 13 3 38v530h-566v-739l680 -632q28 -10 49 -61q25 -51 25 -105q0 -110 -114 -165q-38 -13 -115 -31l-130 130q15 -3 41 -5q23 -3 33 -2q48 0 71 10 q25 10 41 30q18 23 18 51t-31 64q-10 10 -28 31l-703 660v764h-250v123h1379v-123z"/>
            <glyph unicode="&#x910;" horiz-adv-x="1327"
                   d="M1078 1741h-102l-650 650l130 104zM1379 1613h-242v-558v-33q-13 -64 -72 -120q-51 -54 -114 -79q-10 -5 -23 -10l-110 89h18q54 13 102 64q25 33 38 79q0 13 3 38v530h-566v-739l680 -632q28 -10 49 -61q25 -51 25 -105q0 -110 -114 -165q-38 -13 -115 -31l-130 130 q15 -3 41 -5q23 -3 33 -2q48 0 71 10q25 10 41 30q18 23 18 51t-31 64q-10 10 -28 31l-703 660v764h-250v123h1379v-123z"/>
            <glyph unicode="&#x911;" horiz-adv-x="2306"
                   d="M2421 1613h-254v-1419h-156v1419h-263v123h673v-123zM2268 2358q-20 -133 -61 -199q-120 -199 -413 -199q-285 0 -410 199q-41 66 -71 199h155q13 -97 38 -141q82 -145 288 -145q209 0 283 143q25 43 36 143h155zM1794 1613h-252v-1422h-158v681q-46 -8 -97 -13 q-48 -8 -53 -8q-56 0 -141 28q-13 5 -38 21q10 -36 21 -51q20 -71 20 -140q0 -189 -120 -288q-105 -92 -270 -92q-229 0 -469 290q-79 97 -196 293l122 74q102 -178 168 -270q204 -268 378 -267q102 0 173 76q69 79 69 191q0 138 -92 219q-89 79 -219 79q-38 0 -89 -12 q-15 -3 -51 -16l-59 115l176 31q92 23 145 86q56 69 56 171q0 94 -48 156q-59 69 -168 68q-107 0 -235 -102q-38 -38 -99 -109l-123 89q74 84 133 122q163 122 331 123q161 0 258 -97q97 -94 96 -240q0 -206 -178 -298q31 -8 46 -13q51 -15 74 -25q25 -8 81 -49q8 -3 26 -15 q36 -13 61 -15q74 -20 110 -21q51 0 130 26q28 8 71 25v599h-280v123h690v-123z"/>
            <glyph unicode="&#x912;" horiz-adv-x="2263"
                   d="M2042 1698h-118q-13 59 -28 86q-46 94 -135 125q-84 31 -209 41q-130 10 -227 61q-97 43 -127 115q-36 71 -36 160q0 66 10 107q0 5 11 23l79 -7q-3 -25 -3 -41q0 -87 26 -148q41 -97 130 -117q201 -23 288 -38q87 -13 201 -90q69 -46 107 -165q13 -38 31 -112z M2347 1613h-252v-1419h-158v1419h-262v123h672v-123zM1794 1613h-252v-1422h-158v681q-46 -8 -97 -13q-48 -8 -53 -8q-56 0 -141 28q-13 5 -38 21q10 -36 21 -51q20 -71 20 -140q0 -189 -120 -288q-105 -92 -270 -92q-229 0 -469 290q-79 97 -196 293l122 74 q102 -178 168 -270q204 -268 378 -267q102 0 173 76q69 79 69 191q0 138 -92 219q-89 79 -219 79q-38 0 -89 -12q-15 -3 -51 -16l-59 115l176 31q92 23 145 86q56 69 56 171q0 94 -48 156q-59 69 -168 68q-107 0 -235 -102q-38 -38 -99 -109l-123 89q74 84 133 122 q163 122 331 123q161 0 258 -97q97 -94 96 -240q0 -206 -178 -298q31 -8 46 -13q51 -15 74 -25q25 -8 81 -49q8 -3 26 -15q36 -13 61 -15q74 -20 110 -21q51 0 130 26q28 8 71 25v599h-280v123h690v-123z"/>
            <glyph unicode="&#x913;" horiz-adv-x="2293"
                   d="M2067 1741h-102l-652 650l132 104zM2370 1613h-254v-1419h-156v1419h-262v123h672v-123zM1794 1613h-252v-1422h-158v681q-46 -8 -97 -13q-48 -8 -53 -8q-56 0 -141 28q-13 5 -38 21q10 -36 21 -51q20 -71 20 -140q0 -189 -120 -288q-105 -92 -270 -92q-229 0 -469 290 q-79 97 -196 293l122 74q102 -178 168 -270q204 -268 378 -267q102 0 173 76q69 79 69 191q0 138 -92 219q-89 79 -219 79q-38 0 -89 -12q-15 -3 -51 -16l-59 115l176 31q92 23 145 86q56 69 56 171q0 94 -48 156q-59 69 -168 68q-107 0 -235 -102q-38 -38 -99 -109l-123 89 q74 84 133 122q163 122 331 123q161 0 258 -97q97 -94 96 -240q0 -206 -178 -298q31 -8 46 -13q51 -15 74 -25q25 -8 81 -49q8 -3 26 -15q36 -13 61 -15q74 -20 110 -21q51 0 130 26q28 8 71 25v599h-280v123h690v-123z"/>
            <glyph unicode="&#x914;" horiz-adv-x="2301"
                   d="M1787 1728h-102l-497 324l94 132zM2059 1728h-89l-553 673l153 89zM2376 1613h-250v-1419h-158v1419h-265v123h673v-123zM1794 1613h-252v-1422h-158v681q-46 -8 -97 -13q-48 -8 -53 -8q-56 0 -141 28q-13 5 -38 21q10 -36 21 -51q20 -71 20 -140q0 -189 -120 -288 q-105 -92 -270 -92q-229 0 -469 290q-79 97 -196 293l122 74q102 -178 168 -270q204 -268 378 -267q102 0 173 76q69 79 69 191q0 138 -92 219q-89 79 -219 79q-38 0 -89 -12q-15 -3 -51 -16l-59 115l176 31q92 23 145 86q56 69 56 171q0 94 -48 156q-59 69 -168 68 q-107 0 -235 -102q-38 -38 -99 -109l-123 89q74 84 133 122q163 122 331 123q161 0 258 -97q97 -94 96 -240q0 -206 -178 -298q31 -8 46 -13q51 -15 74 -25q25 -8 81 -49q8 -3 26 -15q36 -13 61 -15q74 -20 110 -21q51 0 130 26q28 8 71 25v599h-280v123h690v-123z"/>
            <glyph unicode="&#x915;" horiz-adv-x="1937"
                   d="M1942 1613h-877v-448q41 48 72 76q99 76 229 77q178 0 293 -110q112 -107 112 -273q0 -150 -152 -359q-43 -66 -153 -178l-133 91q89 92 135 148q138 181 138 311q0 120 -54 184q-59 64 -171 63q-122 0 -219 -122t-97 -229v-653h-150v451q-43 -41 -71 -58 q-94 -59 -204 -59q-176 0 -298 122q-125 122 -125 296q0 171 117 291q120 115 301 114q43 -8 97 -15q15 -3 40 -15v-133l-30 21q-43 18 -95 17q-112 0 -193 -79q-76 -82 -76.5 -196.5t71.5 -208.5q69 -92 186 -92q99 0 176 69q105 89 104 153v744h-918v123h1945v-123z"/>
            <glyph unicode="&#x916;" horiz-adv-x="1988"
                   d="M2054 1613h-255v-1419h-155v1419h-263v123h673v-123zM1672 859q-54 -41 -87 -59q-110 -59 -224 -58q-140 0 -234 86q-107 92 -107 235q0 148 104 237q99 89 245 89q31 0 66 -2q38 -8 71 -21l44 -125q-36 10 -56 13q-74 13 -110 13q-94 0 -153 -51q-56 -56 -56 -145 q0 -94 51 -150.5t155 -56.5q97 0 204 74q33 23 87 76v-155zM1672 510q-115 -71 -191 -110q-232 -107 -433 -107q-293 0 -497 181q-145 133 -260 385q-41 82 -95 224q-15 51 -48 133l132 69l62 -166q20 -20 38 -26q54 -31 104 -30q71 0 102 35.5t31 96.5v418h-617v123h1440 v-123h-673v-397q0 -97 -56 -174q-74 -105 -214 -104q-33 0 -54 3q-23 5 -40 10q74 -181 142 -265q209 -270 510 -271q194 0 426 120q74 38 191 123v-148z"/>
            <glyph unicode="&#x917;" horiz-adv-x="1531"
                   d="M1539 1613h-252v-1419h-158v1419h-262v123h672v-123zM902 1613h-255v-774v-62q-15 -61 -71 -61q-71 0 -209 133q-138 138 -138 219q0 38 51 51q10 0 31 5h178v489h-489v123h902v-123z"/>
            <glyph unicode="&#x918;" horiz-adv-x="1631"
                   d="M1313 688q-99 -64 -161 -92q-199 -92 -354 -91q-161 0 -293 91q-125 92 -125 243q0 122 86 216q28 28 85 69q-82 31 -125 56q-122 84 -123 219q0 66 28 133q25 69 62 92h-324v122h1017v-122h-502q-46 -33 -67 -59q-61 -74 -61 -155q0 -92 72 -151q74 -56 145 -56h257 l56 -110h-170q-94 0 -179 -66q-107 -76 -107 -183q0 -99 89 -161q87 -61 197 -61q138 0 331 112q153 94 166 125v-171zM1636 1624h-255v-1423h-155v1423h-263v122h673v-122z"/>
            <glyph unicode="&#x919;" horiz-adv-x="1781"
                   d="M1728 1027h-201v184h201v-184zM1794 1613h-441v-395h-639q-20 -15 -21 -38q0 -31 16 -71q20 -38 73 -110q97 -127 207 -127q51 0 165.5 45.5t165.5 45.5q79 0 115 -71q41 -69 41 -166q0 -227 -127.5 -354t-334.5 -127q-209 0 -438 176q-163 130 -316 328l-122 179 l119 109l115 -173q145 -199 286 -321q196 -171 356 -171q140 0 225 97q82 94 81 250q0 74 -15 91.5t-59 17.5q-23 0 -122 -40q-105 -46 -171 -46q-143 0 -293 186q-135 171 -135 290q0 69 41 97q46 25 115 26h517v272h-1198v123h1794v-123z"/>
            <glyph unicode="&#x91a;" horiz-adv-x="1661"
                   d="M1672 1613h-252v-1419h-158v1419h-263v123h673v-123zM1025 1613h-1025v123h1025v-123zM1259 754q-74 -79 -132 -119q-176 -122 -367 -123q-143 0 -245 92q-102 84 -102 245q0 140 112 267q33 38 112 95h-489v122h907v-122h-191q-41 0 -115 -51q-176 -125 -176 -309 q0 -105 54 -158q54 -51 140 -51q176 0 354 161q148 138 138 173v-222z"/>
            <glyph unicode="&#x91b;" horiz-adv-x="1766"
                   d="M1802 1613h-418v-257q117 -38 168 -99q76 -84 77 -212q0 -319 -278 -545q-263 -212 -579 -212q-199 0 -329 122q-125 122 -124 306q0 204 165 329q-92 38 -140 71q-138 99 -138 243q0 105 51 186q13 28 62 68h-319v123h1802v-123zM1234 1348v265h-719q-25 -5 -87 -79 q-74 -94 -74 -160q0 -110 100 -181q87 -61 183 -61q38 0 71.5 2.5t66.5 9.5l66 -112q-18 3 -51 3q-130 0 -227 -87q-99 -89 -99 -221.5t97 -224.5t232 -92q145 0 295 87q54 25 130 87q-31 10 -102 135q-102 168 -102 326q0 161 113 250q33 30 107 53zM1481 1045 q0 74 -28 125q-46 69 -143 69q-76 0 -120 -61q-41 -59 -40 -143q0 -110 48 -207q64 -138 122 -160q59 61 82 102q79 132 79 275z"/>
            <glyph unicode="&#x91c;" horiz-adv-x="1842"
                   d="M1262 1613h-1262v123h1262v-123zM1501 1144h-436q20 -10 72 -96q61 -110 61 -189q0 -153 -82 -255q-97 -120 -270 -120q-199 0 -372 197q-122 143 -224 369q-76 181 -69 204l130 94q-41 -23 140 -374q186 -377 413 -378q82 0 130 74q54 76 54 179q0 115 -115 275 q-36 54 -115 140h683v-120zM1891 1613h-252v-1419h-156v1419h-265v123h673v-123z"/>
            <glyph unicode="&#x91d;" horiz-adv-x="1761"
                   d="M1394 811q-28 -13 -43 -21q-56 -20 -105 -20q-43 0 -94 18q-48 13 -79 25v-87q0 -145 -120 -252q-145 -127 -272 -127q31 -23 48 -33q54 -36 94 -54l156 -76l-95 -113q-25 18 -43 26l-143 87q-31 23 -102 81q-31 20 -71 59l-61 -8q-105 0 -173 31q-94 41 -95 135 q0 48 33 84q36 38 82 38q92 0 178 -81q28 -23 72 -74q120 13 176 40q181 82 181 263q0 71 -16 87q-20 13 -71 12q-25 0 -71 -12q-120 -36 -164 -36q-133 0 -262 158q-127 155 -128 257q0 79 62 115q38 23 91 23h449v257h-808v123h1165v-123h-202v-382h-570q-28 -8 -29 -25 q0 -23 23 -62q18 -38 77 -112q33 -46 81 -71q51 -23 92 -23q59 0 100 13q105 33 147 33q56 0 95 -26q69 -46 71 -46q38 -13 79 -22q43 -5 79 -6q84 0 158 41q13 8 28 21v-135zM1789 1613h-252v-1419h-156v1419h-265v123h673v-123z"/>
            <glyph unicode="&#x91e;" horiz-adv-x="1689"
                   d="M1142 1613h-1142v123h1142v-123zM1369 851q-23 -3 -49 -12q-28 -10 -61 -11q-51 0 -135 26q-31 8 -76 25q0 -171 -128 -313q-125 -145 -334 -145q-145 0 -336 102q-61 31 -163 101l99 118q82 -66 130 -97q158 -102 270 -102q155 0 235 115q71 110 71 265q0 153 -61 239 q-74 105 -232 105q-48 0 -122 -36q-54 -28 -72 -46l-99 120q59 33 97 43q110 46 183 46q234 0 367 -196q41 -64 87 -199q33 -15 48 -23q66 -25 100 -25q97 0 181 58v-158zM1766 1613h-252v-1419h-155v1419h-266v123h673v-123z"/>
            <glyph unicode="&#x91f;" horiz-adv-x="1496"
                   d="M1519 1613h-352v-458h-530q-112 0 -194 -79q-79 -76 -79 -189q0 -191 148 -334q145 -143 344 -143q265 0 403 225l125 -79q-94 -140 -214 -209t-291 -69q-268 0 -464 183.5t-196 438.5q0 161 109.5 273t270.5 112h415v328h-1014v123h1519v-123z"/>
            <glyph unicode="&#x920;" horiz-adv-x="1498"
                   d="M1519 1613h-362v-443h-558q-105 0 -173 -84q-66 -84 -67 -196q0 -194 153 -339q138 -135 306 -136q150 0 260 94.5t110 232.5q0 97 -61 186q-20 31 -64 71l104 100q66 -43 118 -146q54 -99 53 -216q0 -194 -148 -316q-143 -120 -372 -120q-242 0 -428 173 q-184 178 -184 426q0 181 115 290q122 107 301 107h382v316h-1004v123h1519v-123z"/>
            <glyph unicode="&#x921;" horiz-adv-x="1621"
                   d="M1647 1613h-327v-395h-606q-18 -13 -18 -33q0 -31 18 -71.5t68 -111.5q48 -66 102 -102q54 -33 105 -21l196 59q92 25 135 25q79 0 115 -71q41 -69 41 -166q0 -227 -127.5 -354t-334.5 -127q-209 0 -438 176q-163 130 -316 328l-122 179l119 109q-10 -54 240 -341 q288 -324 517 -324q140 0 225 97q82 94 81 250q0 74 -15 91.5t-59 17.5q-23 0 -122 -40q-105 -46 -171 -46q-143 0 -293 186q-135 171 -135 290q0 69 41 97q46 25 115 26h486v272h-1167v123h1647v-123z"/>
            <glyph unicode="&#x922;" horiz-adv-x="1516"
                   d="M1514 1613h-364v-451h-533q-112 0 -186 -69q-76 -74 -77 -193q0 -296 248 -439q82 -51 252 -89q-38 38 -59 69q-59 92 -58 204q0 122 84 206t206 84q133 0 222 -86q89 -82 89 -217q0 -176 -140 -283q-133 -89 -314 -89q-260 0 -463 176q-217 184 -217 454 q0 168 109.5 275t272.5 107h408v341h-994v123h1514v-123zM1188 624q0 84 -41 133q-41 51 -107 51q-71 0 -120 -51q-48 -48 -48 -125q0 -125 69 -194q23 -23 71 -43q61 15 87 33q89 61 89 196z"/>
            <glyph unicode="&#x923;" horiz-adv-x="1723"
                   d="M1142 1613h-153v-568q0 -166 -84 -257q-94 -112 -267.5 -112.5t-273.5 101.5q-99 99 -99 260v576h-265v123h1142v-123zM831 1045v568h-416v-576q0 -112 51 -180.5t158 -68.5q112 0 161 74q46 73 46 183zM1797 1613h-252l-3 -1422l-155 3v1419h-263v123h673v-123z"/>
            <glyph unicode="&#x924;" horiz-adv-x="1496"
                   d="M869 1613h-869v123h869v-123zM1121 1160h-586q-112 0 -160 -44q-54 -43 -54 -122q0 -217 214 -471q64 -82 209 -207l-97 -102q-161 135 -234 232q-240 280 -240 530q0 143 82 219q76 76 209 77h657v-112zM1517 1613h-253v-1419h-155v1419h-265v123h673v-123z"/>
            <glyph unicode="&#x925;" horiz-adv-x="1542"
                   d="M1269 765q-82 -89 -142 -130q-184 -133 -408 -133q-316 0 -520 263q-66 84 -140 257q48 -13 127 -28q82 -18 122 -18q158 0 288 105q122 102 123 257q0 122 -82 212q-82 87 -196 86q-89 0 -140 -46q-54 -46 -54 -122q0 -79 64 -120q66 -43 132 -30v-107q-66 -5 -104 5 q-245 38 -245 257q0 145 115 222q97 64 234 64q194 0 314 -120q115 -117 115 -301q0 -240 -174 -362q-219 -158 -392 -112q54 -76 97 -117q133 -122 308 -123q222 0 413 176q61 59 145 181v-216zM1598 1624h-252v-1423h-158v1423h-263v122h673v-122z"/>
            <glyph unicode="&#x926;" horiz-adv-x="1473"
                   d="M1514 1613h-331v-402h-581q-102 0 -161 -61q-61 -61 -61 -166q0 -278 278 -370q92 -31 280 -33q-8 13 -10 41q-3 23 -3 64q0 82 26 125q38 61 130 61q66 0 107 -49q41 -46 41 -114q0 -102 -82 -174q-10 -5 -41 -25q18 -38 21 -54q33 -76 51 -107l122 -211h-186l-72 155 l-71 179h-43q-342 0 -525.5 132.5t-183.5 379.5q0 150 95 252q99 102 242 102h458v275h-1014v123h1514v-123z"/>
            <glyph unicode="&#x927;" horiz-adv-x="1457"
                   d="M841 1613h-81v123h81v-123zM1076 706q-23 -71 -197 -155q-145 -69 -303 -69q-171 0 -291 91q-117 92 -117 238q0 115 74 203q23 31 77 69q-89 61 -130 107q-127 135 -128 273q0 150 82 229q82 74 229 74q112 0 194 -66q84 -66 84 -171v-91h-135v91q0 125 -135 125 q-69 0 -112 -51q-48 -51 -49 -135q0 -150 102 -252q31 -31 100 -72q33 15 56 23q79 23 181 23l79 -7l71 -123q-25 3 -71 8q-43 3 -56 3q-143 0 -248 -69q-105 -64 -104 -186q0 -99 71 -158q74 -61 179 -62q184 0 359 143q56 48 138 145v-178zM1481 1613h-252v-1419h-156 v1419h-265v123h673v-123z"/>
            <glyph unicode="&#x928;" horiz-adv-x="1447"
                   d="M846 1613h-846v123h846v-123zM1088 1093h-532v-234v-48q-10 -41 -67 -41q-46 0 -175 150q-133 150 -133 199q0 61 38 76q38 20 74 21h795v-123zM1494 1613h-250v-1419h-158v1419h-265v123h673v-123z"/>
            <glyph unicode="&#x929;" horiz-adv-x="1468"
                   d="M563 184h-219v175h219v-175zM846 1613h-846v123h846v-123zM1088 1093h-532v-234v-48q-10 -41 -67 -41q-46 0 -175 150q-133 150 -133 199q0 61 38 76q38 20 74 21h795v-123zM1494 1613h-250v-1419h-158v1419h-265v123h673v-123z"/>
            <glyph unicode="&#x92a;" horiz-adv-x="1315"
                   d="M969 808q-51 -41 -87 -61q-115 -66 -222 -66q-199 0 -313 119q-112 120 -113 299v514h-234v123h721v-123h-328v-542q0 -135 76 -204t189 -69q110 0 221 104q36 36 90 107v-201zM1379 1613h-252v-1419h-158v1419h-263v123h673v-123z"/>
            <glyph unicode="&#x92b;" horiz-adv-x="1896"
                   d="M1924 1613h-874v-443q43 46 77 71q97 71 203 72q163 0 281 -110q115 -110 115 -268q0 -148 -95 -300q-127 -214 -211 -240l-128 94q89 64 135 115q135 153 135 344q0 102 -58 171q-59 66 -171 66q-102 0 -206 -125q-31 -41 -77 -125v-744h-158v599q-61 -59 -130 -84 t-155 -25q-186 0 -286 107q-102 112 -102 283v542h-219v123h1924v-123zM892 1032v581h-512v-568q0 -133 56 -191q59 -56 160 -56q125 0 212 79q84 76 84 155z"/>
            <glyph unicode="&#x92c;" horiz-adv-x="1350"
                   d="M734 1613h-734v123h734v-123zM979 655q-51 -48 -89 -71q-120 -71 -253 -72q-194 0 -334 123q-140 117 -140 303q0 194 130 308q133 120 324 120q56 0 137 -20q13 -5 41 -13l28 -130q-33 13 -56 13q-82 23 -130 23q-102 0 -173 -41q-23 -13 -51 -38l528 -357l38 56v-204z M879 732l-535 351q-13 -15 -13 -33q-20 -54 -20 -104q0 -143 97 -227t242 -84q82 0 161 46q25 15 68 51zM1384 1613h-250v-1419h-158v1419h-265v123h673v-123z"/>
            <glyph unicode="&#x92d;" horiz-adv-x="1534"
                   d="M928 1613h-125v123h125v-123zM1183 900h-515v-225q3 -31 -5 -56q-5 -25 -56 -25q-48 0 -204 155q-153 155 -153 209q0 31 30 54q28 20 49 20h186v490q0 61 -36 102q-36 36 -120 35q-66 0 -102 -40q-38 -46 -38 -118q0 -64 31 -125q5 -10 18 -28h-141q-15 31 -20 51 q-25 61 -25 102q0 135 81 207q84 69 209 69t212 -77q84 -76 84 -189v-479h515v-132zM1590 1613h-252v-1419h-155v1419h-265v123h672v-123z"/>
            <glyph unicode="&#x92e;" horiz-adv-x="1414"
                   d="M1104 948h-566v-216q3 -23 0 -29q-13 -38 -61 -38q-61 0 -194 138q-127 138 -128 196q0 51 34 64q36 13 53 13h138v537h-380v123h859v-123h-321v-537h566v-128zM1494 1613h-250v-1419h-158v1419h-265v123h673v-123z"/>
            <glyph unicode="&#x92f;" horiz-adv-x="1506"
                   d="M1147 655q-61 -43 -99 -64q-138 -71 -291 -71q-257 0 -403 171q-145 173 -145 385q25 -5 56 -13q28 -8 46 -8q117 0 186 54q79 69 79 204q0 94 -71 209q-25 36 -79 91h-426v123h915v-123h-298q41 -61 58 -102q61 -117 62 -206q0 -206 -174 -306q-59 -33 -173 -61 q31 -99 64 -150q105 -155 303 -156q163 0 293 115q38 41 97 115v-207zM1555 1613h-255v-1419h-153v1419h-265v123h673v-123z"/>
            <glyph unicode="&#x930;" horiz-adv-x="1177"
                   d="M1223 1613h-295v-395q0 -74 -36 -135q-36 -64 -125 -109q-92 -41 -171 -41q-51 0 -99 15l214 -306q71 -89 194 -221l109 -120l-112 -110q-107 115 -227 260q-130 161 -224 296q-135 191 -232 352l-74 140l123 89l122 -209q13 -31 64 -51q51 -23 107 -23q99 0 153 51 q54 54 53 143v374h-767v123h1223v-123z"/>
            <glyph unicode="&#x931;" horiz-adv-x="1172"
                   d="M1223 1613h-295v-395q0 -74 -36 -135q-36 -64 -125 -109q-92 -41 -171 -41q-51 0 -99 15l214 -306q71 -89 194 -221l109 -120l-112 -110q-107 115 -227 260q-130 161 -224 296q-135 191 -232 352l-74 140l123 89l122 -209q13 -31 64 -51q51 -23 107 -23q99 0 153 51 q54 54 53 143v374h-767v123h1223v-123zM523.828 -10.5986h-262.79v207.592h262.79v-207.592z"/>
            <glyph unicode="&#x932;" horiz-adv-x="1804"
                   d="M1198 1613h-1198v123h1198v-123zM1440 1101q-59 -8 -89 -18q-102 -36 -176 -112q-76 -79 -122 -173q-38 -71 -41 -110l-133 69l46 115q8 28 38 74q0 5 16 20q-25 56 -133 117q-89 48 -178 49q-130 0 -207 -77q-82 -79 -81 -214q0 -209 252 -390q82 -56 252 -135l-73 -135 q-76 0 -296 173q-291 227 -291 497q0 196 120 304q120 110 324 109q115 0 229 -61q117 -61 166 -132q31 25 51 38q71 54 94 69q69 28 184 51l48 10v-138zM1848 1613h-252v-1419h-156v1419h-265v123h673v-123z"/>
            <glyph unicode="&#x933;" horiz-adv-x="1761"
                   d="M1794 1613h-425v-308q94 -48 137 -89q143 -140 143 -365q0 -196 -94 -328q-102 -145 -296 -146q-265 0 -349 258q-38 -125 -130 -199t-219 -74q-171 0 -281 145q-107 148 -107 342q0 178 112 313q115 135 288 135q242 0 345 -237q25 48 40 74q54 82 102 112q51 31 79 46 q33 13 72 13v308h-1211v123h1794v-123zM1481 849q0 138 -49 224q-54 107 -183 107q-99 0 -168 -99q-110 -153 -92 -232q-20 -107 76 -245q82 -107 207 -107q120 0 171 110q38 89 38 242zM846 849q-25 105 -51 160q-84 168 -229 169q-105 0 -166 -97q-59 -97 -58 -240 q0 -155 51 -257q59 -99 173 -100q143 0 227 181q25 62 53 184z"/>
            <glyph unicode="&#x934;" horiz-adv-x="1735"
                   d="M1794 1613h-425v-308q94 -48 137 -89q143 -140 143 -365q0 -196 -94 -328q-102 -145 -296 -146q-265 0 -349 258q-38 -125 -130 -199t-219 -74q-171 0 -281 145q-107 148 -107 342q0 178 112 313q115 135 288 135q242 0 345 -237q25 48 40 74q54 82 102 112q51 31 79 46 q33 13 72 13v308h-1211v123h1794v-123zM1481 849q0 138 -49 224q-54 107 -183 107q-99 0 -168 -99q-110 -153 -92 -232q-20 -107 76 -245q82 -107 207 -107q120 0 171 110q38 89 38 242zM846 849q-25 105 -51 160q-84 168 -229 169q-105 0 -166 -97q-59 -97 -58 -240 q0 -155 51 -257q59 -99 173 -100q143 0 227 181q25 62 53 184zM1045 15h-219v173h219v-173z"/>
            <glyph unicode="&#x935;" horiz-adv-x="1340"
                   d="M737 1613h-737v123h737v-123zM981 665q-51 -51 -145 -92q-92 -38 -186 -38q-186 0 -319 120q-127 112 -127 306q0 184 110 296q112 120 285 119q82 0 163 -28q13 -3 41 -15l28 -127q-33 18 -56 25q-74 23 -158 23q-257 0 -258 -306q0 -120 77 -204q79 -89 201 -89 q117 0 242 94q41 28 102 92v-176zM1392 1613h-253v-1419h-155v1419h-265v123h673v-123z"/>
            <glyph unicode="&#x936;" horiz-adv-x="1743"
                   d="M1142 1613h-250q33 -20 49 -40q110 -120 109 -306q0 -234 -158 -383q-181 -176 -395 -175l492 -416l-105 -109l-713 614l99 104l102 -84h33q110 0 191 31q84 31 146 84q64 54 104 127q43 74 44 146v15q0 8 -6 18q-48 -46 -79 -67q-97 -64 -193 -63q-148 0 -248 86 q-97 84 -96 230q0 76 40 145q13 15 44 43h-352v123h1142v-123zM869 1394q-28 76 -53 115q-82 112 -199 112q-92 0 -143 -51q-51 -56 -51 -135q0 -84 61 -143q61 -61 143 -61q107 0 184 82q25 25 58 81zM1802 1613h-250v-1419h-158v1419h-265v123h673v-123z"/>
            <glyph unicode="&#x937;" horiz-adv-x="1345"
                   d="M981 747q-74 -51 -150 -77q-76 -28 -158 -28q-176 0 -303 107q-127 110 -128 273v591h-242v123h744v-123h-318l555 -591v-275zM963 879l-560 607v-466q0 -120 76 -189q79 -66 202 -66q105 0 198 48q66 38 84 66zM1384 1613h-250v-1419h-158v1419h-265v123h673v-123z"/>
            <glyph unicode="&#x938;" horiz-adv-x="1794"
                   d="M1412 966h-441l-102 127h543v-127zM1165 1613h-334v-395v-38q0 -105 -23 -158q-46 -94 -158 -117q-43 -5 -64 -5q-36 0 -81 12l68 -101l123 -187q54 -71 219 -252l64 -71l-125 -110l-204 258q-138 184 -217 298q-127 189 -209 336q-25 54 -61 123l128 79l89 -166 q23 -59 58.5 -79t106.5 -20q76 0 113 40q18 28 17 95q-3 56 -2 84v374h-673v123h1165v-123zM1820 1613h-255v-1419h-155v1419h-263v123h673v-123z"/>
            <glyph unicode="&#x939;" horiz-adv-x="1412"
                   d="M1445 1613h-318v-390h-712q-54 0 -53 -40q0 -23 15.5 -53.5t27.5 -56.5q18 -25 69 -89q13 -18 41 -49q33 13 84 23q94 18 176 18q212 0 331 -74q117 -74 117 -234q0 -99 -73 -179q-23 -28 -74 -56l-113 79q36 20 51 39q51 54 51 124q0 102 -79 143q-82 41 -219 41 q-181 0 -280 -82q-97 -82 -97 -206q0 -199 324 -308q326 -107 351 -69l-51 -100q-64 -46 -397 74q-393 138 -393 413q0 125 87 219q31 28 92 72q-71 69 -100 114q-99 138 -99 237q0 64 38 97q38 36 100 36h627v257h-969v123h1445v-123z"/>
            <glyph unicode="&#x93c;" d="M-566 -28h-219v173h219v-173z"/>
            <glyph unicode="&#x93d;" horiz-adv-x="1254"
                   d="M1157 563q0 -184 -137 -288q-135 -107 -337 -107q-143 0 -311 95q-245 135 -285 219l109 102q8 -38 156 -156q184 -143 321 -143q125 0 211 51q117 64 118 207q0 112 -209 298l-393 329q-214 194 -214 313q0 127 82 192q76 61 206 61h589v-123h-599q-51 0 -97 -30 q-46 -36 -46 -92q0 -69 217 -245l403 -336q216 -207 216 -347z"/>
            <glyph unicode="&#x93e;" horiz-adv-x="662" d="M672 1613h-252v-1419h-155v1419h-265v123h672v-123z"/>
            <glyph unicode="&#x93f;" horiz-adv-x="632"
                   d="M1710 1723h-191q-64 69 -125 143q-150 166 -311 270q-224 145 -403 145q-122 0 -219 -89q-97 -87 -97 -242q0 -61 26 -150l25 -64h257v-123h-252v-1419h-155v1419h-265v123h277q-20 43 -30 74q-31 87 -31 160q0 219 128 329q133 110 351 110q229 0 490 -179 q181 -122 374 -328z"/>
            <glyph unicode="&#x940;" horiz-adv-x="632"
                   d="M663 1614h-250v-1425h-156v1425h-267v122h267q-59 176 -109 260q-155 265 -377 265q-110 0 -158 -63q-51 -66 -51 -179q0 -105 45 -209q18 -36 51 -87h-142q-33 56 -51 90q-54 120 -54 206q0 178 94.5 267.5t262.5 89.5q306 0 500 -321q64 -107 132 -319h263v-122z"/>
            <glyph unicode="&#x941;" horiz-adv-x="0"
                   d="M127 -61q0 -161 -163 -242q-135 -66 -339 -67q-242 0 -458 138q-71 43 -164 138l85 132q69 -117 221 -209q150 -92 324 -92q133 0 224 44q112 51 112 158q0 69 -63.5 112t-150.5 43q-46 0 -142 -61q-31 -18 -82 -56l-115 112l105 56q130 59 234 59q166 0 268 -69 q104 -71 104 -196z"/>
            <glyph unicode="&#x942;" horiz-adv-x="0"
                   d="M158 -477l-133 -68q23 66 -73 308q-122 303 -355 303q-84 0 -142 -61q-61 -59 -61.5 -143t56 -135t137.5 -51q48 0 102 26q18 5 43 25l79 -122q-41 -20 -66 -26q-87 -28 -158 -28q-148 0 -247 87q-99 89 -100 232q0 138 102 235q107 99 255 99q293 0 457 -342 q53 -112 104 -339z"/>
            <glyph unicode="&#x943;"
                   d="M-25 -375q-56 -33 -95 -51q-125 -51 -244 -51q-153 0 -273 90q-130 99 -130 257q0 140 107 232q105 89 247 89h196v-120h-165q-102 0 -166 -48q-64 -51 -64 -143q0 -102 77 -163q82 -64 193 -64q87 0 169 41q66 43 71 46z"/>
            <glyph unicode="&#x944;"
                   d="M54 -484q-43 -25 -74 -36q-94 -38 -184 -38q-125 0 -219 61q-115 71 -115 191q0 56 41 115q13 18 43 43q-51 20 -71 36q-74 59 -74 155q0 135 178 184q59 13 179 18l36 -107q-3 20 -125 -8q-120 -25 -120 -107q0 -51 48 -87q10 -10 49 -23q13 8 23 8q66 15 112 15 q33 0 61 -2q31 -3 56 -10l51 -115q-33 5 -46 5q-74 13 -92 13q-76 0 -132 -31q-61 -31 -61 -104q0 -138 173 -138q54 0 127 41q23 10 67 38z"/>
            <glyph unicode="&#x945;"
                   d="M-54 2386q-23 -135 -61 -202q-120 -196 -413 -196q-283 0 -410 196q-41 66 -69 202h153q13 -99 38 -140q82 -145 288 -146q209 0 283 143q25 43 36 143h155z"/>
            <glyph unicode="&#x946;"
                   d="M-224 1726h-118q-10 56 -28 84q-46 94 -135 127q-84 28 -209 41q-127 10 -227 59q-97 46 -127 117q-36 71 -36 163q0 61 11 102q0 8 7 23l82 -3q-3 -31 -3 -46q0 -87 26 -147q41 -94 130 -113q204 -25 288 -40q87 -13 201 -92q69 -43 107 -163q13 -41 31 -112z"/>
            <glyph unicode="&#x947;" d="M-209 1726h-102l-652 652l132 102z"/>
            <glyph unicode="&#x948;" d="M-500 1726h-102l-494 323l92 133zM-224 1726h-92l-553 672l155 90z"/>
            <glyph unicode="&#x949;" horiz-adv-x="652"
                   d="M647 2373q-20 -135 -61 -199q-120 -199 -413 -199q-283 0 -407 199q-43 64 -72 199h156q13 -97 38 -140q79 -145 285 -146q209 0 283 143q25 43 36 143h155zM675 1613h-252v-1419h-155v1419h-265v123h672v-123z"/>
            <glyph unicode="&#x94a;" horiz-adv-x="642"
                   d="M418 1718h-115q-13 56 -30 87q-43 92 -135 124q-84 28 -209 41q-127 10 -225 59q-97 46 -130 117q-36 71 -35 161q0 64 10 107q0 5 10 20l82 -5q-5 -25 -5 -43q0 -87 25 -148q43 -94 130 -115q204 -23 291 -38q87 -13 198 -92q71 -43 110 -163q13 -38 28 -112zM675 1613 h-252v-1419h-155v1419h-265v123h672v-123z"/>
            <glyph unicode="&#x94b;" horiz-adv-x="642"
                   d="M375 1741h-105l-650 650l133 104zM675 1613h-252v-1419h-155v1419h-265v123h672v-123z"/>
            <glyph unicode="&#x94c;" horiz-adv-x="652"
                   d="M155 1738h-104l-494 324l91 133zM428 1738h-89l-556 673l156 89zM675 1613h-252v-1419h-155v1419h-265v123h672v-123z"/>
            <glyph unicode="&#x94d;" d="M112 -441l-66 -66l-507 377l122 125z"/>
            <glyph unicode="&#x950;" horiz-adv-x="2276"
                   d="M1667 2021h-184v174h184v-174zM2128 2146q0 -206 -160 -349q-166 -138 -390 -138q-222 0 -388 138q-163 140 -163 349h161q0 -155 109 -262q107 -107 281 -107q171 0 283 104q112 107 112 265h155zM2177 859q0 -181 -105 -316q-107 -133 -270 -133q-140 0 -247 110 l74 132q31 -48 48 -68q64 -64 130 -64q105 0 163 107q56 110 56 245q0 176 -33 249q-51 120 -204 120q-36 0 -308 -229q-130 -110 -235 -110q-48 0 -119 18q-23 3 -62 15q23 -46 39 -71q38 -84 38 -155q0 -186 -117.5 -283t-277.5 -97q-232 0 -469 290q-79 97 -194 293 l125 74q99 -178 163 -270q201 -268 382 -267q102 0 169 76q66 79 66 191q0 143 -87 222q-92 76 -219 76q-36 0 -94 -12q-15 -3 -51 -16l-49 115l171 31q196 46 196 257q0 97 -45 156q-54 69 -164 68q-107 0 -232 -102l-104 -109l-122 89q79 84 132 122q166 122 337 123 q158 0 252 -92q94 -97 94 -245q0 -204 -173 -298q38 -8 71 -18q61 -23 125 -61q54 -23 110 -23q82 0 160 36q82 38 148 120q89 102 158 150q89 61 194 61q196 0 298 -160q82 -133 82 -347z"/>
            <glyph unicode="&#x951;" horiz-adv-x="0" d="M-627 2531h153v-446h-153v441v5z"/>
            <glyph unicode="&#x952;" horiz-adv-x="5" d="M-698 -38h622v-82h-620v82h-2z"/>
            <glyph unicode="&#x953;" horiz-adv-x="15" d="M-749 2225h267l156 -459h-130z"/>
            <glyph unicode="&#x954;" horiz-adv-x="15" d="M-596 2684h331l-331 -622l-199 10l206 612h-7z"/>
            <glyph unicode="&#x958;" horiz-adv-x="1914"
                   d="M1947 1613h-874v-451q38 54 69 79q97 76 227 77q181 0 293 -109.5t112 -273.5q0 -148 -150 -362q-48 -64 -156 -175l-130 91q89 92 135 146q138 181 138 313q0 115 -56 181q-59 66 -171 66q-125 0 -219 -122q-92 -122 -92 -232v-650h-155v451q-41 -38 -72 -58 q-92 -61 -199 -61q-181 0 -305 122q-122 122 -123 301q0 171 120 285q122 117 298 117q46 0 97 -15q15 -5 41 -15v-133q-18 13 -31 21q-43 18 -94 17q-112 0 -189 -79q-82 -82 -81 -196q0 -120 71 -209q74 -94 186 -94q99 0 179 71q102 87 102 156v741h-918v123h1947v-123z M487 166h-219v219h219v-219z"/>
            <glyph unicode="&#x959;" horiz-adv-x="2000"
                   d="M2065 1613h-255v-1419h-156v1419h-262v123h673v-123zM1672 859q-54 -41 -87 -59q-110 -59 -224 -58q-140 0 -234 86q-107 92 -107 235q0 148 104 237q99 89 245 89q31 0 66 -2q38 -8 71 -21l44 -125q-36 10 -56 13q-74 13 -110 13q-94 0 -153 -51q-56 -56 -56 -145 q0 -94 51 -150.5t155 -56.5q97 0 204 74q33 23 87 76v-155zM1672 510q-115 -71 -191 -110q-232 -107 -433 -107q-293 0 -497 181q-145 133 -260 385q-41 82 -95 224q-15 51 -48 133l132 69l62 -166q20 -20 38 -26q54 -31 104 -30q71 0 102 35.5t31 96.5v418h-617v123h1440 v-123h-673v-397q0 -97 -56 -174q-74 -105 -214 -104q-33 0 -54 3q-23 5 -40 10q74 -181 142 -265q209 -270 510 -271q194 0 426 120q74 38 191 123v-148zM1160 -18h-219v217h219v-217z"/>
            <glyph unicode="&#x95a;" horiz-adv-x="1371"
                   d="M902 1613h-255v-759v-61q-15 -61 -71 -61q-71 0 -209 137.5t-138 213.5q0 38 51 51q10 0 31 8h178v471h-489v123h902v-123zM619 273h-216v216h216v-216zM1504 1613h-255v-1419h-156v1419h-262v123h673v-123z"/>
            <glyph unicode="&#x95b;" horiz-adv-x="1855"
                   d="M1262 1613h-1262v123h1262v-123zM1501 1144h-436q20 -10 72 -96q61 -110 61 -189q0 -153 -82 -255q-97 -120 -270 -120q-199 0 -372 197q-122 143 -224 369q-76 181 -69 204l130 94q-41 -23 140 -374q186 -377 413 -378q82 0 130 74q54 76 54 179q0 115 -115 275 q-36 54 -115 140h683v-120zM925 97h-224v219h224v-219zM1907 1613h-253v-1419h-158v1419h-262v123h673v-123z"/>
            <glyph unicode="&#x95c;" horiz-adv-x="1608"
                   d="M1647 1613h-327v-346h-606q-18 -13 -18 -28q0 -23 18 -67q20 -41 71 -109q84 -122 173 -122q20 0 31 5q148 43 206 56q89 25 125 25q79 0 115 -69q41 -74 41 -170q0 -219 -130 -327q-115 -89 -332 -89q-209 0 -438 161q-163 112 -316 295q-61 76 -122 161l119 112 q-3 -18 113 -163q143 -174 288 -286q196 -155 356 -155q150 0 230 69q76 69 76 214q0 74 -15 92q-15 15 -59 15q-23 0 -122 -43q-105 -41 -171 -41q-143 0 -293 181q-135 161 -135 283q0 66 41 94q46 28 115 28h486v224h-1167v123h1647v-123zM1093 56h-221v199h221v-199z "/>
            <glyph unicode="&#x95d;" horiz-adv-x="1455"
                   d="M1514 1613h-364v-407h-518q-115 0 -194 -72q-84 -71 -84 -186q0 -293 248 -403q82 -33 252 -48q-38 36 -59 64q-59 84 -58 196q0 122 84 204q87 76 206 76q133 0 222 -79q89 -84 89 -216q0 -173 -140 -270q-133 -87 -314 -87q-275 0 -469 138q-212 158 -211 418 q0 166 110 267q110 107 272 107h408v298h-994v123h1514v-123zM981 66h-221v194h221v-194zM1188 737q0 176 -148 175q-71 0 -120 -45q-48 -43 -48 -125q0 -125 69 -189q23 -20 71 -41q61 20 87 41q89 62 89 184z"/>
            <glyph unicode="&#x95e;" horiz-adv-x="1873"
                   d="M1924 1613h-874v-443q43 46 77 71q97 71 203 72q163 0 281 -110q115 -110 115 -268q0 -148 -95 -300q-127 -214 -211 -240l-128 94q89 64 135 115q135 153 135 344q0 102 -58 171q-59 66 -171 66q-102 0 -206 -125q-31 -41 -77 -125v-744h-158v599q-61 -59 -130 -84 t-155 -25q-186 0 -286 107q-102 112 -102 283v542h-219v123h1924v-123zM535 214h-224v214h224v-214zM892 1032v581h-512v-568q0 -133 56 -191q59 -56 160 -56q125 0 212 79q84 76 84 155z"/>
            <glyph unicode="&#x95f;" horiz-adv-x="1475"
                   d="M454 194h-220v173h220v-173zM1147 655q-61 -43 -99 -64q-138 -71 -291 -71q-257 0 -403 171q-145 173 -145 385q25 -5 56 -13q28 -8 46 -8q117 0 186 54q79 69 79 204q0 94 -71 209q-25 36 -79 91h-426v123h915v-123h-298q41 -61 58 -102q61 -117 62 -206 q0 -206 -174 -306q-59 -33 -173 -61q31 -99 64 -150q105 -155 303 -156q163 0 293 115q38 41 97 115v-207zM1555 1613h-255v-1419h-153v1419h-265v123h673v-123z"/>
            <glyph unicode="&#x960;" horiz-adv-x="2242"
                   d="M2345 48q-48 -41 -84 -61q-110 -61 -235 -61q-163 0 -257 71.5t-94 165.5q0 74 40 130q43 56 100 79q-105 8 -156 26q-158 54 -158 198q0 120 95 192q102 74 219 74l-117 193l-408 -196v-668h-156v597l-645 -472l-96 133l662 430q-97 117 -150 171q-163 168 -224 168 q-64 0 -278 -97q-71 -33 -199 -101l-102 117q10 13 257 120q268 117 339 117q82 0 260 -191q168 -176 176 -207v637h-1134v123h2258v-123h-968v-627l359 174q-25 43 -25 86q0 69 43 120q48 54 130 54q153 0 153 -189q0 -51 -64 -102q-18 -18 -66 -46l160 -285 q-110 -5 -165 -18q-166 -41 -166 -166q0 -82 77 -117q59 -25 155 -25q61 0 117 28q18 10 46 30l51 -130q-89 -20 -130 -38q-135 -61 -135 -178q0 -74 41 -108q46 -33 153 -33q97 0 163 51q23 15 48 59z"/>
            <glyph unicode="&#x961;" horiz-adv-x="1751"
                   d="M1774 1552h-551v-262h51q97 0 184 -79q87 -89 71 -214q0 -84 -48 -158q-51 -74 -143 -123q-135 -61 -201 -132q-56 -51 -56 -102q0 -33 35 -72q20 -20 72 -20q82 0 204 61q48 8 112 41l66 -133q-36 -10 -64 -20q-145 -38 -237 -110q-20 -13 -35 -43q-18 -31 -18 -59 q0 -43 33 -66q36 -25 130 -25q74 0 163 53q33 15 74 51l56 -130q-54 -38 -92 -61q-79 -51 -158 -43q-92 -8 -165 38q-92 59 -130 173q-5 20 -6 59q0 48 16 99q10 13 20 41l-33 13q-84 43 -117 104q-28 61 -28 112q0 150 219 268q120 61 173 125q56 61 56 112t-46 84 q-43 33 -119 33q-64 0 -120 -23q-56 -25 -122 -84q-94 -89 -161 -188l-48 -84l-130 102q28 56 48 91q8 13 10 13l-43 51q-84 71 -156 105q-36 0 -58 -6q-20 -3 -59 -23q-125 -66 -125 -237q18 -166 156 -305q82 -94 239 -220l138 -94l-89 -94q-43 54 -97 81 q-224 181 -380 367q-122 148 -122 342q0 148 79 245q84 97 242 96q133 0 255 -107q38 -36 92 -107q20 20 30 33q41 46 79 74q38 33 92 51q13 8 51 18v288h-1063l-8 174l1785 2z"/>
            <glyph unicode="&#x962;" horiz-adv-x="12"
                   d="M-303 607q33 8 46 7q84 -10 130 -53q51 -54 51 -125q0 -46 -36 -84q-36 -36 -94 -64q-92 -56 -123 -82q-31 -28 -15 -53q5 -25 25 -31q13 -18 41 -30q48 -13 117 0q36 10 79 38l41 -84q-28 -13 -46 -18q-64 -25 -119 -25q-43 0 -85 15q-38 15 -71 46q-61 56 -61 120 q0 43 30 81q28 36 90 64q84 36 117 71q38 36 38 69q0 31 -33 51q-28 15 -79 15q-43 0 -82 -12q-41 -13 -81 -49q-66 -51 -112 -112q-10 -15 -41 -43l-82 56q20 33 36 53q5 8 13 3q-23 28 -41 43q-48 38 -97 56q-25 13 -38 13q-13 -5 -38 -8q-94 -13 -89 -165q0 -92 101 -186 q56 -61 164 -130l94 -54l-64 -41q-33 15 -69 46q-145 89 -252 209q-82 87 -82 201q0 89 57 148q56 56 160 56q92 0 176 -63q25 -20 61 -62q13 10 21 18q31 31 53 46q28 15 61 28q10 5 92 21h36z"/>
            <glyph unicode="&#x963;" horiz-adv-x="7"
                   d="M-372 523q20 3 30 0q84 10 169 -59q66 -54 53 -125q0 -46 -38 -89q-36 -43 -102 -72q-99 -33 -145 -73q-38 -31 -38 -62q0 -20 22 -38q18 -13 54 -13q56 0 148 36q31 5 81 20l49 -76q-31 -5 -49 -10q-107 -20 -173 -61q-10 -8 -23 -28q-18 -15 -18 -34q0 -25 31 -38 q23 -13 89 -13q56 0 122 28q20 13 51 31l39 -74q-33 -23 -67 -36q-56 -31 -112 -25q-69 -5 -122 23q-66 33 -92 99q-5 13 -5 36q0 25 15 54q3 10 10 25q-13 5 -22 8q-61 25 -85 61q-18 36 -17 64q0 87 158 155q82 36 125 69q38 36 38 66q0 28 -33 49q-31 20 -85 20 q-46 0 -89 -15q-41 -15 -86 -46q-71 -51 -118 -112q-13 -18 -33 -49l-97 59q18 33 36 56l5 5l-28 31q-61 41 -112 58q-28 0 -46 -2q-15 -3 -43 -13q-89 -38 -89 -135q10 -97 117 -176q54 -56 168 -130q41 -18 102 -51l-66 -51q-31 28 -69 41q-163 105 -275 211 q-89 89 -90 199q0 87 62 140q59 56 173 56q94 0 183 -61q28 -20 69 -61q13 13 21 18q31 28 56 46q28 15 63 25q20 15 92 28z"/>
            <glyph unicode="&#x964;" horiz-adv-x="621" d="M443 191h-158v1749h158v-1749z"/>
            <glyph unicode="&#x965;" horiz-adv-x="1075" d="M981 191h-158v1749h158v-1749zM428 191h-158v1749h158v-1749z"/>
            <glyph unicode="&#x966;" horiz-adv-x="1279"
                   d="M1134 958q0 -206 -145 -354q-143 -148 -352 -148q-204 0 -346 148q-145 145 -146 354q0 214 135 360q133 150 357 150q209 0 352 -150q145 -148 145 -360zM989 963q0 161 -99.5 281t-252.5 120t-250 -123q-97 -120 -96 -283q0 -161 96 -280q97 -117 250 -117t253 122 q99 119 99 280z"/>
            <glyph unicode="&#x967;" horiz-adv-x="1279"
                   d="M1055 191h-153v841q-112 -97 -265 -97q-171 0 -293 120q-120 117 -120 286q0 171 123 293q127 125 290 125q227 0 344 -197q38 -61 74 -196v-1175zM910 1333q0 140 -77 224q-74 79 -196 79q-112 0 -183.5 -84t-71.5 -214q0 -127 71.5 -214t183.5 -87q117 0 194 84 q79 82 79 212z"/>
            <glyph unicode="&#x968;" horiz-adv-x="1279"
                   d="M1147 1257q0 -293 -229 -492q-76 -69 -235 -148l349 -535l-114 -79l-357 581q-10 0 -51 -5q-43 -5 -59 -6q-99 0 -160 39q-82 46 -82 135q0 54 43 89q41 36 102 36q89 0 181 -72q25 -23 64 -71q120 0 270 186q120 148 120 342q0 155 -110 265q-110 112 -267 112 q-94 0 -250 -74q-51 -23 -143 -74l-99 110q51 51 232 112q133 46 255 46q224 0 382 -142.5t158 -354.5z"/>
            <glyph unicode="&#x969;" horiz-adv-x="1279"
                   d="M1114 716q0 -227 -186 -354q-135 -94 -245 -94l235 -324l-115 -94l-278 413q-99 15 -145 30q-145 56 -146 166q0 135 146 135q84 0 171 -110q28 -33 71 -107q110 23 163 51q168 92 168 278q0 181 -150 260q-105 56 -278 56q-51 0 -82 -2q-31 -5 -53 -11l-84 135h229 q125 0 225 72q97 71 96 186q0 120 -86 181q-87 64 -209 64q-84 0 -219 -62q-43 -15 -118 -61l-79 120q92 41 148 61q173 61 283 61q194 0 308 -97q117 -97 117.5 -260t-99.5 -254q-33 -25 -99 -56q138 -36 224 -141q87 -107 87 -242z"/>
            <glyph unicode="&#x96a;" horiz-adv-x="1279"
                   d="M1175 1468q0 -171 -222 -347q-69 -59 -216 -145q105 -66 155 -114q155 -145 156 -311q0 -186 -123 -283q-110 -87 -288 -87q-171 0 -285 99q-122 99 -123 276q0 148 148 293q46 51 140 117q-140 94 -211 155q-219 191 -219 352q0 84 51 163q48 82 109 112l107 -61 q-15 -28 -33 -43q-74 -112 -74 -184q0 -145 194 -293q64 -48 196 -119q125 74 191 122q191 148 192 298q0 61 -44 145q-13 31 -51 85l123 56q41 -48 63 -87q64 -107 64 -199zM902 563q0 133 -130 245q-102 92 -145 92q-82 -61 -122 -100q-125 -120 -125 -237q0 -122 69 -199 q66 -76 188 -76q110 0 186 76q79 74 79 199z"/>
            <glyph unicode="&#x96b;" horiz-adv-x="1279"
                   d="M1167 199q0 -135 -112 -237q-36 -36 -114 -82l-118 107q66 23 95 46q94 61 94 166q0 148 -79 374q-25 82 -79 207q-48 -15 -79 -28q-102 -33 -186 -33q-206 0 -339 145q-130 145 -130 390q0 145 74 339q23 61 74 161l125 -72q-38 -92 -54 -150q-59 -173 -59 -286 q0 -176 84 -288q87 -117 232 -117q99 0 174 38q23 13 53 41q-13 46 -15 74q-15 82 -15 138q0 115 38 196q36 82 122 82q74 0 112 -64q41 -61 41 -151q0 -120 -66 -234q-25 -36 -69 -89q66 -145 94 -237q102 -273 102 -436z"/>
            <glyph unicode="&#x96c;" horiz-adv-x="1279"
                   d="M1121 -28l-150 -71l-92 351q-23 -3 -38 -7q-117 -20 -153 -21q-191 0 -329 125q-140 125 -140 316q0 143 72 240q87 117 173 140q-94 43 -143 84q-148 122 -148 291q0 166 143 260q110 74 257 74q64 0 164 -13q36 -5 94 -15l41 -153q-56 25 -92 35q-110 36 -181 36 q-110 0 -194 -69q-84 -64 -84 -173q0 -125 105 -199q102 -74 242 -74h173l43 -127q-43 8 -94 10q-48 3 -92 2q-140 0 -234 -96q-92 -94 -92 -263q0 -133 92 -229.5t217 -96.5q51 0 130 38q13 8 35 20q-5 20 -5 28q-18 74 -18 128q0 69 28 122q31 51 90 51q71 0 104 -51 q31 -54 31 -122q0 -97 -49 -176q-13 -28 -48 -56z"/>
            <glyph unicode="&#x96d;" horiz-adv-x="1279"
                   d="M1218 1063q0 -428 -142 -653q-148 -234 -439 -234q-296 0 -431 280q-120 234 -119 643q0 133 23 351q5 74 23 197l160 94q-15 -145 -23 -230q-28 -288 -28 -428q0 -342 74 -532q97 -257 321 -258q148 0 260 117q115 112 115 271q-196 0 -326 137q-130 135 -130 344 q0 166 89 288.5t234 122.5q168 0 255 -146q84 -150 84 -364zM1065 1071q0 171 -28 247q-48 133 -168 132q-87 0 -127 -84q-43 -89 -44 -204q0 -140 97 -262q97 -120 237 -120q0 8 10 59q23 148 23 232z"/>
            <glyph unicode="&#x96e;" horiz-adv-x="1432"
                   d="M1246 426q-15 -25 -186 -128q-206 -122 -323 -122q-161 0 -316 125q-99 76 -179 196q-43 59 -43 133q0 76 46 168t107 150l627 793l114 -97l-629 -785q-51 -69 -74 -110q-38 -64 -38 -119q0 -59 41 -107q71 -76 124 -123q120 -94 220 -94q94 0 267 122q56 41 153 123z "/>
            <glyph unicode="&#x96f;" horiz-adv-x="1279"
                   d="M1121 89q0 -105 -94 -176q-25 -20 -89 -51l-130 100q69 0 115 35.5t46 99.5q0 31 -23 61q-20 33 -36 48l-642 808q-71 94 -95 136q-38 74 -38 163q0 178 120 306q117 127 301 127q176 0 303 -122q130 -125 130 -306q0 -186 -145 -296q-133 -99 -327 -99l538 -678 q31 -38 46 -77q20 -36 20 -79zM828 1333q0 117 -81 201q-79 87 -191 87q-117 0 -192 -87q-71 -84 -71 -209q0 -127 74 -216t189 -89q120 0 193 86q79 89 79 227z"/>
            <glyph unicode="&#x2000;" horiz-adv-x="1342"/>
            <glyph unicode="&#x2001;" horiz-adv-x="2684"/>
            <glyph unicode="&#x2002;" horiz-adv-x="1342"/>
            <glyph unicode="&#x2003;" horiz-adv-x="2684"/>
            <glyph unicode="&#x2004;" horiz-adv-x="894"/>
            <glyph unicode="&#x2005;" horiz-adv-x="671"/>
            <glyph unicode="&#x2006;" horiz-adv-x="447"/>
            <glyph unicode="&#x2007;" horiz-adv-x="447"/>
            <glyph unicode="&#x2008;" horiz-adv-x="335"/>
            <glyph unicode="&#x2009;" horiz-adv-x="536"/>
            <glyph unicode="&#x200a;" horiz-adv-x="149"/>
            <glyph unicode="&#x200c;" horiz-adv-x="0"/>
            <glyph unicode="&#x200d;" horiz-adv-x="0"/>
            <glyph unicode="&#x2010;" horiz-adv-x="757" d="M130 1060v222h681v-222h-681z"/>
            <glyph unicode="&#x2011;" horiz-adv-x="757" d="M107 915v186h571v-186h-571z"/>
            <glyph unicode="&#x2012;" horiz-adv-x="757" d="M107 915v186h571v-186h-571z"/>
            <glyph unicode="&#x2013;" horiz-adv-x="1491" d="M107 915v186h1305v-186h-1305z"/>
            <glyph unicode="&#x2014;" horiz-adv-x="2796" d="M107 915v186h2610v-186h-2610z"/>
            <glyph unicode="&#x202f;" horiz-adv-x="536"/>
            <glyph unicode="&#x205f;" horiz-adv-x="671"/>
            <glyph unicode="&#xe000;" horiz-adv-x="500" d="M0 0v0v0v0v0z"/>
            <glyph horiz-adv-x="1564"
                   d="M1025 1471l-39 -105q-94 41 -214 41q-112 0 -199 -43l-38 107q122 51 245 51q125 0 245 -51zM1422 958l-104 -23q-36 224 -214 355l79 89q97 -74 160 -184q64 -112 79 -237zM454 1295q-82 -56 -138 -151q-59 -97 -74 -206l-104 20q20 125 79 237q61 110 163 184z M1420 777q-28 -257 -237 -423l-79 82q186 138 214 362zM451 441l-71 -79q-212 161 -242 415l107 16q23 -105 71 -199q48 -92 135 -153zM1025 265q-120 -48 -243 -48q-64 0 -125 12.5t-122 35.5l41 107q87 -46 199 -46q105 0 211 46z"/>
            <glyph horiz-adv-x="1284"
                   d="M1517 1068q-23 15 -64 28q-38 10 -110 10q-105 0 -188 -99q-82 -102 -82 -199v-617h-155v451q-38 -38 -67 -58q-92 -61 -204 -61q-181 0 -305 122q-122 122 -123 301q0 171 120 285q122 117 298 117q46 0 97 -15q15 -5 41 -15v-133q-18 13 -31 21q-43 18 -94 17 q-112 0 -189 -79q-82 -82 -81 -196q0 -120 71 -209q74 -94 186 -94q99 0 179 71q102 87 102 156v741h-918v123h1320v-123h-247v-517q43 48 74 74q92 74 191 74q89 0 153 -28q10 -5 26 -18v-130z"/>
            <glyph horiz-adv-x="1284"
                   d="M1517 1068q-23 15 -64 28q-38 10 -110 10q-105 0 -188 -99q-82 -102 -82 -199v-617h-155v451q-38 -38 -67 -58q-92 -61 -204 -61q-181 0 -305 122q-122 122 -123 301q0 171 120 285q122 117 298 117q46 0 97 -15q15 -5 41 -15v-133q-18 13 -31 21q-43 18 -94 17 q-112 0 -189 -79q-82 -82 -81 -196q0 -120 71 -209q74 -94 186 -94q99 0 179 71q102 87 102 156v741h-918v123h1320v-123h-247v-517q43 48 74 74q92 74 191 74q89 0 153 -28q10 -5 26 -18v-130zM487 166h-219v219h219v-219z"/>
            <glyph horiz-adv-x="1896"
                   d="M1937 1613h-864v-451q20 46 130 115q82 48 166 48q176 0 290 -109q115 -115 115 -281q0 -148 -150 -362q-48 -64 -156 -175l-130 91q89 92 135 146q138 181 138 313q0 115 -56 181q-59 66 -171 66q-125 0 -219 -122q-92 -122 -92 -232v-650h-155v490l-658 -449l-97 122 l393 227q-69 13 -105 31q-232 97 -232 334q0 171 120 285q122 117 298 117q69 0 105 -15q13 -5 33 -15v-128q-20 13 -33 16q-48 18 -92 17q-112 0 -189 -79q-82 -82 -81 -196q0 -107 74 -186q71 -82 183 -81q43 0 61 5q28 5 56 23l164 109v795h-918v123h1937v-123z"/>
            <glyph horiz-adv-x="2123"
                   d="M2167 1613h-867v-397q54 41 84 56q105 54 217 53q176 0 290 -109q112 -115 112 -281q0 -194 -147 -425q-48 -76 -158 -199l-123 99q89 99 133 163q135 204 135 375q0 112 -69 184q-66 71 -184 71q-133 0 -221 -69q-28 -23 -69 -71v-872h-153v971h-375q-110 0 -193 -69 q-82 -71 -82 -181q0 -204 150 -430q46 -71 148 -189l-127 -79q-107 135 -156 224q-161 268 -160 474q0 97 69 184q23 28 68 66h-418v128h1076v323h-1147v123h2167v-123z"/>
            <glyph horiz-adv-x="1093"
                   d="M1102 1613h-112v123h112v-123zM1340 1083q-69 -36 -113 -51q-140 -51 -293 -51q-125 0 -278 46q-51 18 -130 49q-74 -41 -107 -74q-112 -102 -112 -225q0 -143 97 -204q71 -41 181 -40q31 0 51 2q15 0 31 8q-5 13 -5 30q-3 20 -3 31q0 84 36 117q36 36 97 36 q66 0 114.5 -38t48.5 -112q0 -71 -82 -123q-13 -3 -41 -23q15 -15 23 -28q28 -43 46 -58l87 -87l53 -48l-135 -95l-125 161q-23 33 -51 92q-3 10 -12 23q-48 -10 -90 -11q-41 -3 -56 -2q-191 0 -303 99q-120 99 -120 281q0 140 133 262q38 38 135 94q-25 10 -89 102 q-84 120 -84 227q0 125 91 199q94 74 219 74q143 0 240 -74q92 -74 92 -212q0 -133 -115 -231q-38 -33 -115 -74q41 -18 67 -23q102 -25 211 -26q196 0 349 77q25 13 57 35v-135zM733 1468q0 69 -46 110q-41 43 -135 43q-79 0 -120 -43.5t-41 -109.5q0 -112 72 -196 q25 -25 71 -61q66 31 102 56q97 79 97 201z"/>
            <glyph horiz-adv-x="1623"
                   d="M1057 1613h-112v123h112v-123zM1295 1083q-69 -36 -113 -51q-140 -51 -293 -51q-125 0 -278 46q-51 18 -130 49q-74 -41 -107 -74q-112 -102 -112 -225q0 -143 97 -204q71 -41 181 -40q31 0 51 2q15 0 31 8q-5 13 -5 30q-3 20 -3 31q0 84 36 117q36 36 97 36 q66 0 114.5 -38t48.5 -112q0 -71 -82 -123q-13 -3 -41 -23q15 -15 23 -28q28 -43 46 -58l87 -87l53 -48l-135 -95l-125 161q-23 33 -51 92q-3 10 -12 23q-48 -10 -90 -11q-41 -3 -56 -2q-191 0 -303 99q-120 99 -120 281q0 140 133 262q38 38 135 94q-25 10 -89 102 q-84 120 -84 227q0 125 91 199q94 74 219 74q143 0 240 -74q92 -74 92 -212q0 -133 -115 -231q-38 -33 -115 -74q41 -18 67 -23q102 -25 211 -26q196 0 349 77q25 13 57 35v-135zM688 1468q0 69 -46 110q-41 43 -135 43q-79 0 -120 -43.5t-41 -109.5q0 -112 72 -196 q25 -25 71 -61q66 31 102 56q97 79 97 201zM1702 1613h-252v-1419h-155v1419h-266v123h673v-123z"/>
            <glyph horiz-adv-x="1389"
                   d="M1672 859q-54 -41 -87 -59q-110 -59 -224 -58q-140 0 -234 86q-107 92 -107 235q0 148 104 237q99 89 245 89q31 0 66 -2q38 -8 71 -21l44 -125q-36 10 -56 13q-74 13 -110 13q-94 0 -153 -51q-56 -56 -56 -145q0 -94 51 -150.5t155 -56.5q97 0 204 74q33 23 87 76v-155z M1672 510q-115 -71 -191 -110q-232 -107 -433 -107q-293 0 -497 181q-145 133 -260 385q-41 82 -95 224q-15 51 -48 133l132 69l62 -166q20 -20 38 -26q54 -31 104 -30q71 0 102 35.5t31 96.5v418h-617v123h1440v-123h-673v-397q0 -97 -56 -174q-74 -105 -214 -104 q-33 0 -54 3q-23 5 -40 10q74 -181 142 -265q209 -270 510 -271q194 0 426 120q74 38 191 123v-148z"/>
            <glyph horiz-adv-x="1389"
                   d="M1672 859q-54 -41 -87 -59q-110 -59 -224 -58q-140 0 -234 86q-107 92 -107 235q0 148 104 237q99 89 245 89q31 0 66 -2q38 -8 71 -21l44 -125q-36 10 -56 13q-74 13 -110 13q-94 0 -153 -51q-56 -56 -56 -145q0 -94 51 -150.5t155 -56.5q97 0 204 74q33 23 87 76v-155z M1672 510q-115 -71 -191 -110q-232 -107 -433 -107q-293 0 -497 181q-145 133 -260 385q-41 82 -95 224q-15 51 -48 133l132 69l62 -166q20 -20 38 -26q54 -31 104 -30q71 0 102 35.5t31 96.5v418h-617v123h1440v-123h-673v-397q0 -97 -56 -174q-74 -105 -214 -104 q-33 0 -54 3q-23 5 -40 10q74 -181 142 -265q209 -270 510 -271q194 0 426 120q74 38 191 123v-148zM1160 -18h-219v217h219v-217z"/>
            <glyph horiz-adv-x="1386"
                   d="M1672 510q-107 -71 -331 -146q-219 -76 -378 -76q-316 0 -520 209q-127 135 -206 344q-28 82 -61 240q-8 48 -28 135l132 69l31 -169q28 -20 41 -28q51 -25 99 -25q84 0 125 40.5t41 102.5v407h-617v123h1430v-123h-663v-410q0 -87 -69 -161q-82 -92 -214 -91 q-115 0 -142 25q59 -189 112 -280q184 -285 509 -286q224 0 490 120q87 38 219 115v-135zM1672 839l-828 -319l-112 115l527 155q-82 28 -122 59q-122 92 -123 252q0 138 102 214q105 74 253 74q31 0 66 -2q38 -8 71 -21l44 -120q-36 10 -56 11q-64 15 -110 15 q-92 0 -150.5 -56t-58.5 -145q0 -94 51 -148q51 -56 155 -56q87 0 197 48q36 18 94 51v-127z"/>
            <glyph horiz-adv-x="2023"
                   d="M1672 510q-107 -71 -331 -146q-219 -76 -378 -76q-316 0 -520 209q-127 135 -206 344q-28 82 -61 240q-8 48 -28 135l132 69l31 -169q28 -20 41 -28q51 -25 99 -25q84 0 125 40.5t41 102.5v407h-617v123h1430v-123h-663v-410q0 -87 -69 -161q-82 -92 -214 -91 q-115 0 -142 25q59 -189 112 -280q184 -285 509 -286q224 0 490 120q87 38 219 115v-135zM1672 839l-828 -319l-112 115l527 155q-82 28 -122 59q-122 92 -123 252q0 138 102 214q105 74 253 74q31 0 66 -2q38 -8 71 -21l44 -120q-36 10 -56 11q-64 15 -110 15 q-92 0 -150.5 -56t-58.5 -145q0 -94 51 -148q51 -56 155 -56q87 0 197 48q36 18 94 51v-127zM2082 1613h-252v-1419h-155v1419h-265v123h672v-123z"/>
            <glyph horiz-adv-x="858"
                   d="M902 1613h-255v-774v-62q-15 -61 -71 -61q-71 0 -209 133q-138 138 -138 219q0 38 51 51q10 0 31 5h178v489h-489v123h902v-123z"/>
            <glyph horiz-adv-x="858"
                   d="M902 1613h-255v-759v-61q-15 -61 -71 -61q-71 0 -209 137.5t-138 213.5q0 38 51 51q10 0 31 8h178v471h-489v123h902v-123zM619 273h-216v216h216v-216z"/>
            <glyph horiz-adv-x="858"
                   d="M902 1613h-255v-734v-56q-15 -59 -71 -58q-71 0 -209 135t-138 216q0 33 51 46q10 0 31 8h178v443h-489v123h902v-123zM1147 709l-732 -510l-104 125l836 504v-119z"/>
            <glyph horiz-adv-x="1498"
                   d="M902 1613h-255v-734v-56q-15 -59 -71 -58q-71 0 -209 135t-138 216q0 33 51 46q10 0 31 8h178v443h-489v123h902v-123zM1147 709l-732 -510l-104 125l836 504v-119zM1534 1613h-252v-1419h-155v1419h-265v123h672v-123z"/>
            <glyph horiz-adv-x="968"
                   d="M1249 681q-102 -64 -163 -90q-196 -94 -354 -94q-161 0 -291 94q-127 89 -127 237q0 125 89 220q25 28 81 68q-82 28 -125 56q-122 84 -122 217q0 71 28 135q25 69 61 89h-323v123h1014v-123h-502q-41 -31 -61 -53q-61 -74 -61 -158q0 -89 71 -148t143 -59h257l56 -112 h-171q-92 0 -178 -61q-107 -76 -107 -183q0 -102 89 -164q84 -61 196 -61q140 0 329 112q158 92 171 125v-170z"/>
            <glyph horiz-adv-x="973"
                   d="M1249 747l-752 -548l-107 127l469 258q-28 -10 -56 -18q-31 -10 -71 -10q-171 0 -289 79q-133 92 -132 237q0 125 89 211q25 33 84 67q-82 28 -125 53q-125 76 -125 209q0 79 44 145q25 46 43 56h-321v123h1014v-123h-499q-41 -20 -61 -40q-64 -61 -64 -143 q0 -92 74 -153q64 -46 143 -46h257l54 -107h-171q-97 0 -181 -61q-102 -76 -102 -186q0 -97 86.5 -148t196.5 -51q145 0 329 110q158 87 173 117v-158z"/>
            <glyph horiz-adv-x="1598"
                   d="M1249 905q-15 -31 -173 -117q-184 -110 -329 -110q-110 0 -196.5 51t-86.5 148q0 110 102 186q84 61 181 61h171l-54 107h-257q-79 0 -143 46q-74 61 -74 153q0 82 64 143q20 20 61 40h499v123h-1014v-123h321q-18 -10 -43 -56q-43 -66 -44 -145q0 -133 125 -209 q43 -25 125 -53q-59 -33 -84 -67q-89 -87 -89 -211q0 -145 132 -237q117 -79 289 -79q41 0 71 10q28 8 56 18l-469 -258l107 -127l752 548v158zM1641 1613h-249v-1419h-158v1419h-265v123h672v-123z"/>
            <glyph horiz-adv-x="983"
                   d="M1025 1613h-1025v123h1025v-123zM1259 754q-74 -79 -132 -119q-176 -122 -367 -123q-143 0 -245 92q-102 84 -102 245q0 140 112 267q33 38 112 95h-489v122h907v-122h-191q-41 0 -115 -51q-176 -125 -176 -309q0 -105 54 -158q54 -51 140 -51q176 0 354 161 q148 138 138 173v-222z"/>
            <glyph horiz-adv-x="983"
                   d="M1025 1613h-1025v123h1025v-123zM1259 739l-731 -558l-105 130l421 240q-13 -8 -33 -8q-15 -8 -51 -8q-135 0 -235 89q-112 94 -112 250q0 148 112 258q33 36 112 79h-489v122h907v-122h-191q-43 0 -115 -41q-176 -107 -176 -291q0 -222 230 -221q135 0 308 130 q158 112 148 135v-184z"/>
            <glyph horiz-adv-x="1631"
                   d="M1025 1613h-1025v123h1025v-123zM1259 739l-731 -558l-105 130l421 240q-13 -8 -33 -8q-15 -8 -51 -8q-135 0 -235 89q-112 94 -112 250q0 148 112 258q33 36 112 79h-489v122h907v-122h-191q-43 0 -115 -41q-176 -107 -176 -291q0 -222 230 -221q135 0 308 130 q158 112 148 135v-184zM1662 1613h-252v-1419h-159v1419h-262v123h673v-123z"/>
            <glyph horiz-adv-x="1248"
                   d="M1262 1613h-1262v123h1262v-123zM1501 1144h-436q20 -10 72 -96q61 -110 61 -189q0 -153 -82 -255q-97 -120 -270 -120q-199 0 -372 197q-122 143 -224 369q-76 181 -69 204l130 94q-41 -23 140 -374q186 -377 413 -378q82 0 130 74q54 76 54 179q0 115 -115 275 q-36 54 -115 140h683v-120z"/>
            <glyph horiz-adv-x="1223"
                   d="M1262 1613h-1262v123h1262v-123zM1501 1144h-436q20 -10 72 -96q61 -110 61 -189q0 -153 -82 -255q-97 -120 -270 -120q-199 0 -372 197q-122 143 -224 369q-76 181 -69 204l130 94q-41 -23 140 -374q186 -377 413 -378q82 0 130 74q54 76 54 179q0 115 -115 275 q-36 54 -115 140h683v-120zM925 97h-224v219h224v-219z"/>
            <glyph horiz-adv-x="1223"
                   d="M1262 1613h-1262v123h1262v-123zM1491 1234l-426 -3q23 -15 62 -81q61 -92 61 -187q0 -140 -107 -224q-105 -84 -265 -84q-199 0 -362 176q-125 135 -209 329q-36 92 -64 178l130 97q-31 -46 117 -336q171 -329 403 -329q87 0 140 48q54 43 54 133q0 110 -100 265 q-33 51 -107 132l673 3v-117zM1491 670l-711 -486l-97 119l808 485v-118z"/>
            <glyph horiz-adv-x="1873"
                   d="M1262 1613h-1262v123h1262v-123zM1491 1234l-426 -3q23 -15 62 -81q61 -92 61 -187q0 -140 -107 -224q-105 -84 -265 -84q-199 0 -362 176q-125 135 -209 329q-36 92 -64 178l130 97q-31 -46 117 -336q171 -329 403 -329q87 0 140 48q54 43 54 133q0 110 -100 265 q-33 51 -107 132l673 3v-117zM1491 670l-711 -486l-97 119l808 485v-118zM1896 1613h-252v-1419h-155v1419h-266v123h673v-123z"/>
            <glyph horiz-adv-x="1144"
                   d="M1165 1613h-1165v123h1165v-123zM1392 1239h-951q-38 0 -38 -36q0 -31 25 -74q25 -46 56 -84q43 -61 74 -84q48 -38 110 -38q64 0 153 28q87 33 132 33q87 0 138 -74q51 -71 51 -163q0 -201 -204 -321q-69 -38 -209 -87l296 -232l-118 -89l-308 293h-94q-102 0 -186 43 q-84 46 -85 130q0 48 36 82q38 31 89 30q61 0 146 -73q82 -61 81 -82q135 28 204 56q204 87 204 250q0 54 -23 76q-20 25 -64 26q-25 0 -140 -38q-66 -20 -107 -21q-145 0 -280 156q-138 153 -138 285q0 64 43 99q46 36 115 36h992v-127z"/>
            <glyph horiz-adv-x="1743"
                   d="M1165 1613h-1165v123h1165v-123zM1392 1239h-951q-38 0 -38 -36q0 -31 25 -74q25 -46 56 -84q43 -61 74 -84q48 -38 110 -38q64 0 153 28q87 33 132 33q87 0 138 -74q51 -71 51 -163q0 -201 -204 -321q-69 -38 -209 -87l296 -232l-118 -89l-308 293h-94q-102 0 -186 43 q-84 46 -85 130q0 48 36 82q38 31 89 30q61 0 146 -73q82 -61 81 -82q135 28 204 56q204 87 204 250q0 54 -23 76q-20 25 -64 26q-25 0 -140 -38q-66 -20 -107 -21q-145 0 -280 156q-138 153 -138 285q0 64 43 99q46 36 115 36h992v-127zM1799 1613h-254v-1419h-153v1419 h-265v123h672v-123z"/>
            <glyph horiz-adv-x="1121"
                   d="M1394 811q-28 -13 -43 -21q-56 -20 -105 -20q-43 0 -94 18q-48 13 -79 25v-87q0 -145 -120 -252q-145 -127 -272 -127q31 -23 48 -33q54 -36 94 -54l156 -76l-95 -113q-25 18 -43 26l-143 87q-31 23 -102 81q-31 20 -71 59l-61 -8q-105 0 -173 31q-94 41 -95 135 q0 48 33 84q36 38 82 38q92 0 178 -81q28 -23 72 -74q120 13 176 40q181 82 181 263q0 71 -16 87q-20 13 -71 12q-25 0 -71 -12q-120 -36 -164 -36q-133 0 -262 158q-127 155 -128 257q0 79 62 115q38 23 91 23h449v257h-808v123h1165v-123h-202v-382h-570q-28 -8 -29 -25 q0 -23 23 -62q18 -38 77 -112q33 -46 81 -71q51 -23 92 -23q59 0 100 13q105 33 147 33q56 0 95 -26q69 -46 71 -46q38 -13 79 -22q43 -5 79 -6q84 0 158 41q13 8 28 21v-135z"/>
            <glyph horiz-adv-x="1320"
                   d="M1606 923q-61 -43 -102 -61q-135 -64 -258 -64q-48 0 -96 5q-46 5 -77 10v-87q0 -145 -120 -252q-145 -127 -272 -127q31 -23 48 -33q54 -36 94 -54l156 -76l-95 -113q-25 18 -43 26l-143 87q-31 23 -102 81q-31 20 -71 59l-61 -8q-105 0 -173 31q-94 41 -95 135 q0 48 33 84q36 38 82 38q92 0 178 -81q28 -23 72 -74q120 13 176 40q181 82 181 263q0 99 -87 99q-13 0 -133 -33q-61 -15 -102 -15q-133 0 -262 158q-127 155 -128 257q0 79 62 115q38 23 91 23h449v257h-808v123h1361v-123h-398v-382h-570q-13 -25 -13 -41q0 -41 23 -79 t61 -79q84 -94 173 -94q74 0 130 23q54 23 117 23q56 0 95 -26q69 -46 71 -46q54 -20 107 -20q102 0 235 56q153 66 214 128v-153zM1606 632l-360 -441l-153 102l513 495v-156z"/>
            <glyph horiz-adv-x="1932"
                   d="M1565 925q-61 -41 -102 -61q-138 -64 -260 -64q-48 0 -94 5.5t-79 10.5v-87q0 -145 -118 -252q-145 -127 -275 -128q33 -23 51 -33q54 -38 94 -53l156 -77l-94 -112q-25 18 -44 28q-61 33 -142 84q-31 20 -105 82q-28 20 -71 58l-59 -7q-105 0 -173 30q-94 41 -95 133 q0 51 33.5 86.5t81.5 35.5q89 0 179 -79q28 -23 68 -74q120 13 179 41q181 82 181 262q0 99 -87 100q-15 0 -132 -31q-61 -18 -102 -18q-133 0 -263 156q-130 158 -130 260q0 79 61 117q41 20 95 21h448v260h-808v122h1361v-122h-400v-385h-568q-13 -25 -13 -41 q0 -38 20 -79q23 -41 64 -79q82 -94 173 -94q74 0 128 22q56 23 120 23q54 0 94 -25q66 -46 69 -46q56 -18 109 -18q102 0 232 54q155 69 217 130v-156zM1565 635l-362 -441l-150 104l512 492v-155zM1973 1613h-250v-1419h-158v1419h-265v123h673v-123z"/>
            <glyph horiz-adv-x="1101"
                   d="M1142 1613h-1142v123h1142v-123zM1369 851q-23 -3 -49 -12q-28 -10 -61 -11q-51 0 -135 26q-31 8 -76 25q0 -171 -128 -313q-125 -145 -334 -145q-145 0 -336 102q-61 31 -163 101l99 118q82 -66 130 -97q158 -102 270 -102q155 0 235 115q71 110 71 265q0 153 -61 239 q-74 105 -232 105q-48 0 -122 -36q-54 -28 -72 -46l-99 120q59 33 97 43q110 46 183 46q234 0 367 -196q41 -64 87 -199q33 -15 48 -23q66 -25 100 -25q97 0 181 58v-158z"/>
            <glyph horiz-adv-x="1447"
                   d="M1496 1613h-354v-308h-627q-71 0 -107 -41t-36 -120q0 -125 140 -209q135 -84 291 -84q184 0 321 82q43 25 105 81l114 -91l-23 -18q-61 -46 -86 -56l-92 -51v-339h-604q-64 0 -107 -46q-41 -46 -41 -112q0 -148 161 -232q130 -64 280 -64q87 0 206 49q173 69 209 114 l107 -92q-94 -71 -137 -94q-173 -89 -375 -89q-265 0 -428 99q-178 112 -179 314q0 105 69 186q69 79 174 79h517v186q-56 -10 -87 -15q-28 -5 -76 -5q-206 0 -388 94q-224 120 -224 313q0 135 79 204q79 66 199 67h497v198h-994v123h1496v-123z"/>
            <glyph horiz-adv-x="1447"
                   d="M1496 1613h-354v-308h-627q-71 0 -112 -41q-43 -41 -44 -120q0 -135 130 -216q133 -79 314 -79q184 0 318 74q43 25 97 79l112 -97q-23 -15 -35 -21q-38 -31 -61 -35l-92 -51v-339h-678q-61 0 -107 -46t-46 -112q0 -155 163 -242q135 -71 321 -72q138 0 230 41 q117 51 117 153q0 79 -46 120q-10 13 -46 25l100 89q33 -8 79 -68q64 -82 63 -148q0 -176 -158 -255q-130 -64 -331 -64q-263 0 -441 105q-199 120 -199 321q0 105 69 186q71 79 171 79h591v186l-84 -20q-38 -8 -79 -8q-252 0 -418 89q-204 110 -204 326q0 135 82 204 q82 66 206 67h497v198h-994v123h1496v-123z"/>
            <glyph horiz-adv-x="1455"
                   d="M1496 1613h-354v-308h-627q-71 0 -112 -41q-43 -41 -44 -120q0 -135 130 -216q133 -79 314 -79q224 0 313 51q92 51 92 171q0 74 -53 107q-18 8 -56 17l109 72q51 -25 72 -51q71 -71 71 -168q0 -145 -102 -220q-33 -28 -107 -51v-318h-658q-71 0 -122 -44 q-51 -38 -51 -114q0 -155 163 -237q135 -69 321 -69q143 0 230 38q117 46 117 148q0 79 -46 120q-10 13 -46 25l100 89q33 -8 79 -68q64 -82 63 -148q0 -178 -158 -255q-127 -61 -331 -61q-268 0 -441 102q-199 120 -199 321q0 110 82 186q76 79 183 79h566v176 q-74 -18 -163 -18q-252 0 -418 89q-204 110 -204 326q0 135 82 204q82 66 206 67h497v198h-994v123h1496v-123z"/>
            <glyph horiz-adv-x="1598"
                   d="M1631 1613h-311v-341h-652q-8 -5 -16 -5q-5 -3 -5 -20.5t16 -48.5q20 -28 74 -79q43 -36 81 -59q38 -25 74 -25q115 20 212 33q94 15 155 15q110 0 153 -51q41 -48 41 -142q0 -173 -176 -271q-143 -76 -324 -76q-122 0 -232 28q-36 10 -84 25q48 -84 82 -122 q99 -120 173 -120q61 0 135 18q201 38 250 38q74 0 130 -51q56 -54 56 -122q0 -189 -163 -288q-135 -87 -337 -87q-301 0 -593 192q-99 61 -235 188l89 112q130 -122 219 -183q275 -186 520 -186q130 0 235 69q110 69 110 170q0 36 -16 51q-13 13 -63 13l-204 -41 q-94 -18 -161 -18q-105 0 -240 135.5t-135 229.5q0 10 16 58q-54 28 -128 80q-71 56 -112 81l-140 110l94 114q133 -125 222 -186q268 -186 500 -186q102 0 214 51q145 71 145 174q0 38 -28 51q-25 10 -74 10q-33 0 -194 -31q-79 -18 -140 -18q-89 0 -227 120 q-153 133 -153 235q0 71 38.5 101.5t99.5 30.5h545v224h-1167v123h1631v-123z"/>
            <glyph horiz-adv-x="1585"
                   d="M1631 1613h-311v-272h-652q-20 -8 -21 -23q0 -13 16 -38q20 -23 74 -64q10 -10 63 -36q54 -31 92 -30q115 18 214 28q102 13 153 12q110 0 153 -40q41 -38 41 -113q0 -105 -102 -173q-31 -23 -102 -48v-344h-663q-59 0 -102 -41t-43 -105q0 -171 181 -267q61 -31 186 -64 q-3 13 -8 48q-5 38 -5 62q0 97 49 155q66 79 229 79q125 0 214 -48q92 -48 92 -151q0 -145 -133 -216q-110 -54 -277 -54q-306 0 -492 125q-186 127 -186 344q0 110 68.5 181t175.5 71h558v166q-8 0 -38 -2.5t-64 -2.5q-161 0 -316 36q-232 51 -420 170q-36 23 -61.5 43.5 t-68.5 48.5l94 105q133 -97 222 -143q268 -140 500 -140q115 0 214 30q145 48 145 135q0 38 -56 39h-46q-51 0 -156 -18q-105 -20 -178 -21q-84 0 -242 107t-158 184q0 59 46 82q46 28 112 28h545v175h-1167v123h1631v-123zM1234 120q0 51 -46 81q-41 28 -112 28 q-166 0 -166 -135q0 -31 18 -84q0 -5 10 -23q99 0 148 8q148 26 148 125z"/>
            <glyph horiz-adv-x="1101"
                   d="M1142 1613h-153v-568q0 -166 -84 -257q-94 -112 -267.5 -112.5t-273.5 101.5q-99 99 -99 260v576h-265v123h1142v-123zM831 1045v568h-416v-576q0 -112 51 -180.5t158 -68.5q112 0 161 74q46 73 46 183z"/>
            <glyph horiz-adv-x="830"
                   d="M869 1613h-869v123h869v-123zM1121 1160h-586q-112 0 -160 -44q-54 -43 -54 -122q0 -217 214 -471q64 -82 209 -207l-97 -102q-161 135 -234 232q-240 280 -240 530q0 143 82 219q76 76 209 77h657v-112z"/>
            <glyph horiz-adv-x="973"
                   d="M1014 1613h-1014v123h1014v-123zM1249 767l-732 -438l-94 132l749 398q-112 112 -173 163q-189 171 -255 171q-97 0 -301 -105q-64 -31 -178 -102l-94 120q135 76 211 112q242 120 378 120q94 0 300 -201q66 -64 189 -202v-168z"/>
            <glyph horiz-adv-x="1618"
                   d="M1014 1613h-1014v123h1014v-123zM1249 767l-732 -438l-94 132l749 398q-112 112 -173 163q-189 171 -255 171q-97 0 -301 -105q-64 -31 -178 -102l-94 120q135 76 211 112q242 120 378 120q94 0 300 -201q66 -64 189 -202v-168zM1641 1613h-249v-1419h-158v1419h-265v123 h672v-123z"/>
            <glyph horiz-adv-x="1045"
                   d="M1086 1613h-1086v123h1086v-123zM1338 1178h-566q-115 0 -196 -77q-79 -74 -79 -189q0 -161 186 -389q61 -76 189 -199l-97 -118q-138 153 -212 243q-212 280 -211 463q0 110 69 197q23 28 68 69h-418v112h1267v-112z"/>
            <glyph horiz-adv-x="1712"
                   d="M1086 1613h-1086v123h1086v-123zM1338 1178h-566q-115 0 -196 -77q-79 -74 -79 -189q0 -161 186 -389q61 -76 189 -199l-97 -118q-138 153 -212 243q-212 280 -211 463q0 110 69 197q23 28 68 69h-418v112h1267v-112zM1738 1613h-255v-1419h-153v1419h-265v123h673v-123z "/>
            <glyph horiz-adv-x="1093"
                   d="M1269 765q-82 -89 -142 -130q-184 -133 -408 -133q-316 0 -520 263q-66 84 -140 257q48 -13 127 -28q82 -18 122 -18q158 0 288 105q122 102 123 257q0 122 -82 212q-82 87 -196 86q-89 0 -140 -46q-54 -46 -54 -122q0 -79 64 -120q66 -43 132 -30v-107q-66 -5 -104 5 q-245 38 -245 257q0 145 115 222q97 64 234 64q194 0 314 -120q115 -117 115 -301q0 -240 -174 -362q-219 -158 -392 -112q54 -76 97 -117q133 -122 308 -123q222 0 413 176q61 59 145 181v-216z"/>
            <glyph horiz-adv-x="983"
                   d="M1280 726l-887 -542l-100 145l487 214q-18 0 -33 -5q-15 -3 -36 -3q-74 0 -153 21q-115 28 -216 89q-122 74 -215 232q-31 51 -68 145q54 -3 132 -10q79 -3 112 -3q163 0 283 84q133 92 133 245q0 122 -82 212q-82 87 -196 86q-89 0 -140 -46q-54 -46 -54 -122 q0 -79 64 -120q66 -43 132 -30v-125q-115 5 -173 23q-184 64 -183 257q0 145 122 222q99 64 234 64q184 0 306.5 -122.5t122.5 -298.5q0 -240 -176 -354q-209 -135 -405 -100q74 -107 160 -165q122 -74 260 -74q214 0 413 132q64 46 156 135v-186z"/>
            <glyph horiz-adv-x="1651"
                   d="M1280 726l-887 -542l-100 145l487 214q-18 0 -33 -5q-15 -3 -36 -3q-74 0 -153 21q-115 28 -216 89q-122 74 -215 232q-31 51 -68 145q54 -3 132 -10q79 -3 112 -3q163 0 283 84q133 92 133 245q0 122 -82 212q-82 87 -196 86q-89 0 -140 -46q-54 -46 -54 -122 q0 -79 64 -120q66 -43 132 -30v-125q-115 5 -173 23q-184 64 -183 257q0 145 122 222q99 64 234 64q184 0 306.5 -122.5t122.5 -298.5q0 -240 -176 -354q-209 -135 -405 -100q74 -107 160 -165q122 -74 260 -74q214 0 413 132q64 46 156 135v-186zM1692 1613h-249v-1419 h-158v1419h-265v123h672v-123z"/>
            <glyph horiz-adv-x="1463"
                   d="M1514 1613h-331v-402h-587q-92 0 -155 -67q-61 -64 -61 -160q0 -184 114 -278q127 -112 365 -112h33t15 2l-5 31v38q0 76 31 125q46 69 153 69q87 0 122.5 -51t35.5 -127q0 -66 -66 -113q-20 -15 -64 -35l61 -153q23 -54 69 -128q13 -25 38 -68l-217 -39 q-87 -15 -148 -63.5t-61 -137.5q0 -94 82 -156q76 -59 189 -58q97 0 173 41q61 43 66 48l79 -117q-54 -36 -92 -49q-120 -48 -247 -48q-153 0 -275 87q-133 97 -133 252q0 189 186 275q61 25 189 49l-102 216h-30q-15 -3 -36 -2q-247 0 -411 74q-275 125 -275 428 q0 161 97 257.5t247 96.5h451v275h-1014v123h1514v-123z"/>
            <glyph horiz-adv-x="1447"
                   d="M1504 1613h-357v-382h-581q-201 0 -202 -232q0 -161 127.5 -262.5t301.5 -101.5q31 0 63 7q36 2 69 10q15 79 28 118q54 130 140 130q74 0 107 -44q33 -41 34 -104q0 -82 -84 -148q-23 -23 -85 -59l62 -209q33 -105 91 -203l28 -44h-165q-8 18 -16 38q-33 76 -61 164 q-28 89 -53 181q-5 23 -10 51l-620 -426l-92 130l556 306q-212 0 -382 112q-194 135 -194 354q0 161 82 255q79 94 214 94h489v265h-994v123h1504v-123z"/>
            <glyph horiz-adv-x="1205"
                   d="M1259 1613h-326v-308h-482q-59 -3 -81 -10q-79 -28 -79 -110q0 -87 89 -163q13 -13 41 -28q46 20 84 28q71 23 132 23l100 -8l74 -125q-18 3 -41 6q-25 3 -61 2q-133 0 -209 -36q-110 -54 -110 -175q0 -145 97 -209q71 -43 186 -44h69q13 3 18 5l-6 36v33q0 74 26 115 q38 64 130 64q138 0 138 -146q0 -92 -85 -135q-13 -8 -45 -18l155 -288l-135 -68l-130 308q-18 -3 -54 -8q-41 -5 -61 -5q-178 0 -293 61q-171 92 -171 306q0 87 51 156q18 20 51 51q-64 43 -97 74q-102 97 -101 196q0 153 127 206q43 13 133 21h382v193h-775v123h1259v-123 z"/>
            <glyph horiz-adv-x="1837"
                   d="M1899 1613h-337v-407h-576q-94 0 -145 -46q-56 -48 -56 -161q0 -161 125 -265q127 -102 298 -102q36 0 66 3q36 9 64 17q-8 25 31 125q54 122 145 123q71 0 102 -44q36 -41 36 -104q0 -82 -84 -148q-25 -23 -85 -59l26 -107q10 -51 43 -147q28 -97 72 -207 q38 -110 53 -140h-160l-77 262q-79 -61 -130 -89q-155 -89 -308 -89q-209 0 -309 156q-33 54 -56 163q-173 3 -257 30q-260 82 -260 304q0 120 66 198q64 79 173 79q107 0 189 -74q13 -13 31 -35l-74 -82q-25 25 -41 36q-51 38 -100 38q-115 0 -114 -125q0 -148 193 -216 q194 -66 217 -39q13 20 21 36q28 46 45 64q18 20 54 43q31 20 51 28q-69 56 -99 97q-105 130 -105 270q0 155 82 240q82 87 219 86h476v288h-1404v123h1899v-123zM1404 336l-43 197q-51 -10 -89 -13q-41 -8 -61 -8q-54 0 -135 21q-23 0 -74 18q-76 -18 -112 -39 q-117 -56 -118 -158q0 -89 69 -148q69 -54 163 -53q99 0 245 76q142 82 155 107z"/>
            <glyph horiz-adv-x="1743"
                   d="M1766 1613h-252v-1422h-158v354h-423v-158q5 -28 0 -40q-13 -46 -61 -46q-43 0 -171 130q-122 130 -122 176q0 48 33 61q28 13 58 13h102v224h-316q-117 0 -198.5 76.5t-81.5 198.5q0 87 61 145q61 54 145 54h327v234h-729v123h1786v-123zM1356 675v938h-492v-349h-441 q-51 -8 -76 -25q-25 -23 -26 -79q0 -64 38 -97q41 -31 97 -31h472v-357h428z"/>
            <glyph horiz-adv-x="1768"
                   d="M1810 1613h-253v-1422h-155v433q-120 -94 -199 -142q-245 -145 -471 -146q-206 0 -319 115q-92 92 -92 214q0 99 43 163q15 23 49 51q-71 33 -107 62q-110 92 -110 221q0 150 146 204q51 13 147 23h355v224h-844v123h1810v-123zM1402 780v833h-413v-349h-484 q-66 0 -114.5 -23t-48.5 -86q0 -84 81 -153q28 -20 82 -51q36 20 61 25q84 25 191 26h84q18 -3 31 -8l56 -122q-36 3 -105 5q-64 3 -102 2q-99 0 -170 -56q-74 -59 -74 -155q0 -99 81 -156q79 -54 186 -53q189 0 441 155q207 128 217 166z"/>
            <glyph horiz-adv-x="1437"
                   d="M1504 1613h-357v-407h-581q-92 0 -145 -46q-56 -48 -57 -161q0 -161 128 -265q127 -102 301 -102q31 0 63 3l69 17q-8 13 13 77q48 171 155 171q74 0 107 -44q33 -41 34 -104q0 -82 -84 -148q-23 -23 -85 -59l69 -252q13 -43 54 -160l71 -189h-160l-85 262 q-74 -64 -130 -91q-166 -94 -333 -95q-148 0 -268 95q-127 102 -128 247q0 107 74 181q76 71 176 92q-64 54 -94 94q-102 130 -102 270q0 161 82 242q79 84 214 84h484v288h-989v123h1504v-123zM989 336l-48 197q-48 -10 -90 -13q-41 -8 -56 -8q-107 0 -216 39q-38 5 -54 5 q-82 0 -148 -56q-66 -54 -66 -146q0 -89 71 -153q69 -61 163 -61q138 0 301 92q133 73 143 104z"/>
            <glyph horiz-adv-x="825"
                   d="M841 1613h-81v123h81v-123zM1076 706q-23 -71 -197 -155q-145 -69 -303 -69q-171 0 -291 91q-117 92 -117 238q0 115 74 203q23 31 77 69q-89 61 -130 107q-127 135 -128 273q0 150 82 229q82 74 229 74q112 0 194 -66q84 -66 84 -171v-91h-135v91q0 125 -135 125 q-69 0 -112 -51q-48 -51 -49 -135q0 -150 102 -252q31 -31 100 -72q33 15 56 23q79 23 181 23l79 -7l71 -123q-25 3 -71 8q-43 3 -56 3q-143 0 -248 -69q-105 -64 -104 -186q0 -99 71 -158q74 -61 179 -62q184 0 359 143q56 48 138 145v-178z"/>
            <glyph horiz-adv-x="823"
                   d="M841 1613h-81v123h81v-123zM1076 752l-834 -553l-104 112l489 262q-51 -5 -79 -5q-158 0 -270 92q-110 94 -110 230q0 117 74 193q23 28 77 61q-89 41 -130 72q-127 102 -128 247q0 150 82 229q82 74 229 74q112 0 194 -66q84 -66 84 -171v-91h-135v91q0 125 -135 125 q-69 0 -112 -51q-48 -51 -49 -135q0 -150 102 -217q31 -23 100 -45q33 13 56 23q87 23 181 22l79 -7l71 -120l-127 8q-145 0 -250 -59q-102 -54 -102 -173q0 -107 71 -163q66 -56 179 -56q184 0 359 122q56 38 138 125v-176z"/>
            <glyph horiz-adv-x="1437"
                   d="M841 1613h-81v123h81v-123zM1076 752l-834 -553l-104 112l489 262q-51 -5 -79 -5q-158 0 -270 92q-110 94 -110 230q0 117 74 193q23 28 77 61q-89 41 -130 72q-127 102 -128 247q0 150 82 229q82 74 229 74q112 0 194 -66q84 -66 84 -171v-91h-135v91q0 125 -135 125 q-69 0 -112 -51q-48 -51 -49 -135q0 -150 102 -217q31 -23 100 -45q33 13 56 23q87 23 181 22l79 -7l71 -120l-127 8q-145 0 -250 -59q-102 -54 -102 -173q0 -107 71 -163q66 -56 179 -56q184 0 359 122q56 38 138 125v-176zM1481 1613h-252v-1419h-156v1419h-265v123h673 v-123z"/>
            <glyph horiz-adv-x="805"
                   d="M846 1613h-846v123h846v-123zM1088 1093h-532v-234v-48q-10 -41 -67 -41q-46 0 -175 150q-133 150 -133 199q0 61 38 76q38 20 74 21h795v-123z"/>
            <glyph horiz-adv-x="805"
                   d="M586 189h-216v173h216v-173zM846 1613h-846v123h846v-123zM1088 1093h-532v-234v-48q-10 -41 -67 -41q-46 0 -175 150q-133 150 -133 199q0 61 38 76q38 20 74 21h795v-123z"/>
            <glyph horiz-adv-x="836"
                   d="M846 1613h-846v123h846v-123zM1093 1093h-588v-234v-48q-8 -41 -64 -41q-41 0 -176 150q-133 150 -132 199q0 61 35 76q41 20 79 21h846v-123zM1096 709l-754 -510l-97 127l851 502v-119z"/>
            <glyph horiz-adv-x="1455"
                   d="M846 1613h-846v123h846v-123zM1093 1093h-588v-234v-48q-8 -41 -64 -41q-41 0 -176 150q-133 150 -132 199q0 61 35 76q41 20 79 21h846v-123zM1096 709l-754 -510l-97 127l851 502v-119zM1509 1613h-250v-1419h-158v1419h-265v123h673v-123z"/>
            <glyph horiz-adv-x="861"
                   d="M907 1613h-907v123h907v-123zM1142 859l-556 -288l82 -161q8 -23 7 -35q0 -51 -66 -51q-36 0 -97 15q-61 20 -153 56q-112 46 -112 112q0 36 44 84q13 13 40 33l742 311q-61 76 -102 115q-117 127 -199 166q-36 15 -86 25q-54 10 -100 10q-87 0 -171 -17q-13 0 -33 -11 l11 -214q-10 -25 -11 -35q-18 -36 -51 -36q-28 0 -66 25q-41 25 -97 97l-71 84q-3 10 -13 18q-25 31 -25 61q0 79 150 120q150 43 347 44q166 0 237 -36q74 -33 219 -191q48 -51 130 -151v-150z"/>
            <glyph horiz-adv-x="1480"
                   d="M907 1613h-907v123h907v-123zM1142 859l-556 -288l82 -161q8 -23 7 -35q0 -51 -66 -51q-36 0 -97 15q-61 20 -153 56q-112 46 -112 112q0 36 44 84q13 13 40 33l742 311q-61 76 -102 115q-117 127 -199 166q-36 15 -86 25q-54 10 -100 10q-87 0 -171 -17q-13 0 -33 -11 l11 -214q-10 -25 -11 -35q-18 -36 -51 -36q-28 0 -66 25q-41 25 -97 97l-71 84q-3 10 -13 18q-25 31 -25 61q0 79 150 120q150 43 347 44q166 0 237 -36q74 -33 219 -191q48 -51 130 -151v-150zM1545 1613h-250v-1419h-158v1419h-265v123h673v-123z"/>
            <glyph horiz-adv-x="680"
                   d="M969 808q-51 -41 -87 -61q-115 -66 -222 -66q-199 0 -313 119q-112 120 -113 299v514h-234v123h721v-123h-328v-542q0 -135 76 -204t189 -69q110 0 221 104q36 36 90 107v-201z"/>
            <glyph horiz-adv-x="693"
                   d="M981 849l-757 -658l-114 110l530 408q-227 0 -334 163q-71 110 -72 244v497h-234v123h734v-123h-341v-530q0 -138 81 -206q66 -59 176 -59t232 97q38 33 99 99v-165z"/>
            <glyph horiz-adv-x="1345"
                   d="M981 849l-757 -658l-114 110l530 408q-227 0 -334 163q-71 110 -72 244v497h-234v123h734v-123h-341v-530q0 -138 81 -206q66 -59 176 -59t232 97q38 33 99 99v-165zM1384 1613h-250v-1419h-158v1419h-265v123h673v-123z"/>
            <glyph horiz-adv-x="1259"
                   d="M1483 1101q-31 8 -56 10q-84 13 -132 13q-92 0 -179 -87q-31 -28 -66 -86v-760h-158v599q-61 -59 -130 -84t-155 -25q-186 0 -286 107q-102 112 -102 283v542h-219v123h1300v-123h-250v-479q43 38 74 59q87 59 166 58.5t163 -22.5q10 -5 30 -13v-115zM892 1032v581h-512 v-568q0 -133 56 -191q59 -56 160 -56q125 0 212 79q84 76 84 155z"/>
            <glyph horiz-adv-x="1259"
                   d="M1483 1101q-31 8 -56 10q-84 13 -132 13q-92 0 -179 -87q-31 -28 -66 -86v-760h-158v599q-61 -59 -130 -84t-155 -25q-186 0 -286 107q-102 112 -102 283v542h-219v123h1300v-123h-250v-479q43 38 74 59q87 59 166 58.5t163 -22.5q10 -5 30 -13v-115zM535 214h-224v214 h224v-214zM892 1032v581h-512v-568q0 -133 56 -191q59 -56 160 -56q125 0 212 79q84 76 84 155z"/>
            <glyph horiz-adv-x="1896"
                   d="M752 191h-224v214h224v-214zM1924 1613h-874v-443q54 46 87 71q107 71 193 72q163 0 281 -110q115 -110 115 -268q0 -148 -95 -300q-127 -214 -211 -240l-128 94q89 64 135 115q135 153 135 344q0 102 -58 171q-59 66 -171 66q-102 0 -206 -125q-31 -41 -77 -125v-744 h-158v599l-627 -497l-117 117l464 299q-25 -3 -39 -3q-74 0 -130 20q-82 23 -135 82q-51 56 -68 117q-20 59 -21 146v542h-219v123h1924v-123zM892 1032v581h-512v-568q0 -133 61 -191q48 -46 155 -46q117 0 209 71q87 74 87 153z"/>
            <glyph horiz-adv-x="1896"
                   d="M1924 1613h-874v-443q54 46 87 71q107 71 193 72q163 0 281 -110q115 -110 115 -268q0 -148 -95 -300q-127 -214 -211 -240l-128 94q89 64 135 115q135 153 135 344q0 102 -58 171q-59 66 -171 66q-102 0 -206 -125q-31 -41 -77 -125v-744h-158v599l-627 -497l-117 117 l464 299q-25 -3 -39 -3q-74 0 -130 20q-82 23 -135 82q-51 56 -68 117q-20 59 -21 146v542h-219v123h1924v-123zM892 1032v581h-512v-568q0 -133 61 -191q48 -46 155 -46q117 0 209 71q87 74 87 153z"/>
            <glyph horiz-adv-x="713"
                   d="M734 1613h-734v123h734v-123zM979 655q-51 -48 -89 -71q-120 -71 -253 -72q-194 0 -334 123q-140 117 -140 303q0 194 130 308q133 120 324 120q56 0 137 -20q13 -5 41 -13l28 -130q-33 13 -56 13q-82 23 -130 23q-102 0 -173 -41q-23 -13 -51 -38l528 -357l38 56v-204z M879 732l-535 351q-13 -15 -13 -33q-20 -54 -20 -104q0 -143 97 -227t242 -84q82 0 161 46q25 15 68 51z"/>
            <glyph horiz-adv-x="693"
                   d="M734 1613h-734v123h734v-123zM991 655l-713 -438l-97 117l441 201q-189 0 -324 122.5t-135 293.5q0 191 130 303q133 112 324 112q56 0 137 -20q13 -5 41 -13l28 -130q-33 13 -56 15q-71 23 -130 23q-133 0 -196 -51q-13 -8 -28 -30l538 -360l40 51v-196zM890 729 l-546 354q-13 -20 -13 -33q-20 -54 -20 -104q0 -148 94.5 -229.5t244.5 -81.5q71 0 161 46q31 15 79 48z"/>
            <glyph horiz-adv-x="1350"
                   d="M734 1613h-734v123h734v-123zM991 655l-713 -438l-97 117l441 201q-189 0 -324 122.5t-135 293.5q0 191 130 303q133 112 324 112q56 0 137 -20q13 -5 41 -13l28 -130q-33 13 -56 15q-71 23 -130 23q-133 0 -196 -51q-13 -8 -28 -30l538 -360l40 51v-196zM890 729 l-546 354q-13 -20 -13 -33q-20 -54 -20 -104q0 -148 94.5 -229.5t244.5 -81.5q71 0 161 46q31 15 79 48zM1379 1613h-252v-1419h-158v1419h-263v123h673v-123z"/>
            <glyph horiz-adv-x="899"
                   d="M928 1613h-125v123h125v-123zM1183 900h-515v-225q3 -31 -5 -56q-5 -25 -56 -25q-48 0 -204 155q-153 155 -153 209q0 31 30 54q28 20 49 20h186v490q0 61 -36 102q-36 36 -120 35q-66 0 -102 -40q-38 -46 -38 -118q0 -64 31 -125q5 -10 18 -28h-141q-15 31 -20 51 q-25 61 -25 102q0 135 81 207q84 69 209 69t212 -77q84 -76 84 -189v-479h515v-132z"/>
            <glyph horiz-adv-x="884"
                   d="M928 1613h-125v123h125v-123zM515 1522q0 61 -38 99q-36 38 -118 38q-66 0 -102 -40q-38 -46 -38 -118q0 -51 26 -107q5 -15 23 -46h-141q-18 31 -25 51q-20 51 -20 102q0 143 89 214q76 61 201 61.5t212 -76.5q84 -76 84 -189v-410h-153v421zM668 1101h497v-135h-497 v-229q0 -18 -5 -49q-3 -33 -56 -33q-46 0 -201.5 163t-155.5 217q0 25 30 48q31 18 49 18h186h153zM1165 652l-737 -474l-97 138l834 464v-128z"/>
            <glyph horiz-adv-x="1529"
                   d="M928 1613h-125v123h125v-123zM515 1522q0 61 -38 99q-36 38 -118 38q-66 0 -102 -40q-38 -46 -38 -118q0 -51 26 -107q5 -15 23 -46h-141q-18 31 -25 51q-20 51 -20 102q0 143 89 214q76 61 201 61.5t212 -76.5q84 -76 84 -189v-410h-153v421zM668 1101h497v-135h-497 v-229q0 -18 -5 -49q-3 -33 -56 -33q-46 0 -201.5 163t-155.5 217q0 25 30 48q31 18 49 18h186h153zM1165 652l-737 -474l-97 138l834 464v-128zM1575 1613h-255v-1419h-155v1419h-263v123h673v-123z"/>
            <glyph horiz-adv-x="820"
                   d="M1104 948h-566v-216q3 -23 0 -29q-13 -38 -61 -38q-61 0 -194 138q-127 138 -128 196q0 51 34 64q36 13 53 13h138v537h-380v123h859v-123h-321v-537h566v-128z"/>
            <glyph horiz-adv-x="787"
                   d="M1076 994h-538v-206q8 -38 0 -51q-13 -28 -61 -28q-43 0 -186 150q-145 148 -146 186q0 43 28 61q31 18 56 18h151v489h-380v123h831v-123h-293v-489h538v-130zM1081 665l-750 -466l-97 117l847 464v-115z"/>
            <glyph horiz-adv-x="1450"
                   d="M1076 994h-538v-206q8 -38 0 -51q-13 -28 -61 -28q-43 0 -186 150q-145 148 -146 186q0 43 28 61q31 18 56 18h151v489h-380v123h831v-123h-293v-489h538v-130zM1081 665l-750 -466l-97 117l847 464v-115zM1489 1613h-253v-1419h-158v1419h-262v123h673v-123z"/>
            <glyph horiz-adv-x="871"
                   d="M1147 655q-61 -43 -99 -64q-138 -71 -291 -71q-257 0 -403 171q-145 173 -145 385q25 -5 56 -13q28 -8 46 -8q117 0 186 54q79 69 79 204q0 94 -71 209q-25 36 -79 91h-426v123h915v-123h-298q41 -61 58 -102q61 -117 62 -206q0 -206 -174 -306q-59 -33 -173 -61 q31 -99 64 -150q105 -155 303 -156q163 0 293 115q38 41 97 115v-207z"/>
            <glyph horiz-adv-x="899"
                   d="M772 84h-216v176h216v-176zM1147 655q-61 -43 -99 -64q-138 -71 -291 -71q-257 0 -403 171q-145 173 -145 385q25 -5 56 -13q28 -8 46 -8q117 0 186 54q79 69 79 204q0 94 -71 209q-25 36 -79 91h-426v123h915v-123h-298q41 -61 58 -102q61 -117 62 -206 q0 -206 -174 -306q-59 -33 -173 -61q31 -99 64 -150q105 -155 303 -156q163 0 293 115q38 41 97 115v-207z"/>
            <glyph horiz-adv-x="869"
                   d="M1150 719l-717 -520l-94 117l502 303q-31 -3 -81 -2q-245 0 -396 163q-161 181 -160 375q25 -10 56 -18q33 -5 51 -5q117 0 183 40q82 56 82 187q0 92 -71 183q-25 31 -79 71h-426v123h910v-123h-293q33 -23 81 -122q38 -79 39 -143q0 -204 -174 -285q-59 -25 -173 -43 q15 -59 36 -92q120 -199 331 -199q163 0 293 71q92 51 100 79v-160z"/>
            <glyph horiz-adv-x="1529"
                   d="M1150 719l-717 -520l-94 117l502 303q-31 -3 -81 -2q-245 0 -396 163q-161 181 -160 375q25 -10 56 -18q33 -5 51 -5q117 0 183 40q82 56 82 187q0 92 -71 183q-25 31 -79 71h-426v123h910v-123h-293q33 -23 81 -122q38 -79 39 -143q0 -204 -174 -285q-59 -25 -173 -43 q15 -59 36 -92q120 -199 331 -199q163 0 293 71q92 51 100 79v-160zM1562 1613h-252v-1419h-158v1419h-262v123h672v-123z"/>
            <glyph horiz-adv-x="1470"
                   d="M1514 1613h-255v-1422h-153v382q-59 -61 -173 -112q-115 -46 -235 -46q-278 0 -418 255q-46 84 -84 258q38 -8 194 -8q99 0 161 28q87 41 86 145q0 97 -91.5 138t-234.5 41q-163 0 -380 -56q-176 -43 -201 -61v130q107 33 183 53q219 51 406 51q196 0 318 -61 q155 -71 156 -219q0 -209 -207 -281q-71 -20 -214 -25q31 -87 66 -135q99 -135 276 -135q140 0 280 109q46 33 112 110v861h-1106v123h1514v-123z"/>
            <glyph horiz-adv-x="634"
                   d="M673 1613h-673v123h673v-123zM854 938q-46 -18 -79 -28q-94 -31 -186 -31q-166 0 -342 72q-59 23 -145 71v122q61 -38 209 -81q150 -43 250 -43q87 0 196 35q36 8 97 38v-155z"/>
            <glyph horiz-adv-x="1615"
                   d="M1649 1613h-780v-367q51 31 84 44q110 48 194 48q145 0 247 -102t102 -250q0 -163 -125 -341q-41 -54 -125 -143l-109 94q41 38 61 62q145 166 145 344q0 94 -63.5 157.5t-158.5 63.5q-71 0 -158 -48q-92 -46 -99 -66q-5 -20 -10 -33q-38 -76 -145 -123q-36 -13 -82 -12 q-41 -3 -82 -3q51 -71 74 -110q74 -112 138 -196q64 -89 245 -283l71 -74l-127 -94q-74 69 -192 209q-130 153 -265 357q-158 234 -244 387l-59 112l125 72l115 -194q13 -18 61 -43.5t99 -25.5q84 0 110 56q15 33 15 128v374h-711v123h1649v-123z"/>
            <glyph horiz-adv-x="1896"
                   d="M1937 1613h-1045v-374h367l64 38q38 20 117 20q150 0 258 -147q110 -148 109 -332q0 -201 -84 -392q-25 -64 -84 -151l-133 72q61 61 120 201q59 143 59 265q0 140 -74 232t-189 92q-92 0 -140 -51t-48 -135q0 -102 66 -163q33 -38 69 -51l-79 -123q-74 43 -128 138 q-56 97 -56 196q0 61 18 115q18 48 18 53h-273q-5 -28 -13 -40q-46 -89 -158 -125q-41 -13 -86.5 -13h-66.5q51 -71 74 -110q74 -112 138 -196q64 -89 245 -283l71 -74l-127 -94q-74 69 -192 209q-130 153 -265 357q-158 234 -244 387l-59 112l125 72l115 -194 q13 -18 61 -43.5t99 -25.5q89 0 125 54q25 41 26 130v374h-737v123h1937v-123z"/>
            <glyph horiz-adv-x="1152"
                   d="M1198 1613h-1198v123h1198v-123zM1440 1101q-59 -8 -89 -18q-102 -36 -176 -112q-76 -79 -122 -173q-38 -71 -41 -110l-133 69l46 115q8 28 38 74q0 5 16 20q-25 56 -133 117q-89 48 -178 49q-130 0 -207 -77q-82 -79 -81 -214q0 -209 252 -390q82 -56 252 -135l-73 -135 q-76 0 -296 173q-291 227 -291 497q0 196 120 304q120 110 324 109q115 0 229 -61q117 -61 166 -132q31 25 51 38q71 54 94 69q69 28 184 51l48 10v-138z"/>
            <glyph horiz-adv-x="1766"
                   d="M1807 1613h-1807v123h1807v-123zM1649 900q0 -191 -94 -316q-102 -138 -296 -138q-265 0 -349 260q-31 -125 -127.5 -201.5t-221.5 -76.5q-171 0 -281 140q-107 138 -107 324q0 176 112 303q117 133 288 133q115 0 207 -61q87 -61 138 -174q25 74 145 164q97 82 196 81 q140 0 242 -81q148 -115 148 -357zM1481 892q0 143 -49 224q-54 94 -183 95q-122 0 -201 -151q-66 -122 -59 -168q-20 -94 76 -227q82 -102 207 -102q120 0 171 107q38 82 38 222zM846 892q-25 107 -51 158q-82 155 -229 156q-105 0 -166 -87q-59 -92 -58 -229 q0 -158 51 -245q59 -92 173 -92q143 0 227 173q25 51 53 166z"/>
            <glyph horiz-adv-x="695"
                   d="M737 1613h-737v123h737v-123zM981 665q-51 -51 -145 -92q-92 -38 -186 -38q-186 0 -319 120q-127 112 -127 306q0 184 110 296q112 120 285 119q82 0 163 -28q13 -3 41 -15l28 -127q-33 18 -56 25q-74 23 -158 23q-257 0 -258 -306q0 -120 77 -204q79 -89 201 -89 q117 0 242 94q41 28 102 92v-176z"/>
            <glyph horiz-adv-x="695"
                   d="M737 1613h-737v123h737v-123zM981 665q5 -8 -362 -244l-372 -237l-99 119l479 248q-163 0 -285 104q-138 122 -138 305.5t110 296.5q112 120 285 119q82 0 163 -28q13 -3 41 -15l28 -127q-33 18 -56 25q-74 23 -158 23q-257 0 -258 -306q0 -120 77 -204q79 -89 201 -89 q117 0 242 84q41 28 102 89v-163z"/>
            <glyph horiz-adv-x="1353"
                   d="M737 1613h-737v123h737v-123zM981 665q5 -8 -362 -244l-372 -237l-99 119l479 248q-163 0 -285 104q-138 122 -138 305.5t110 296.5q112 120 285 119q82 0 163 -28q13 -3 41 -15l28 -127q-33 18 -56 25q-74 23 -158 23q-257 0 -258 -306q0 -120 77 -204q79 -89 201 -89 q117 0 242 84q41 28 102 89v-163zM1381 1611h-252v-1422h-155v1422h-265v122h672v-122z"/>
            </font>
</defs>
</svg>
