<?xml version="1.0" standalone="no"?>
<!DOCTYPE svg PUBLIC "-//W3C//DTD SVG 1.1//EN" "http://www.w3.org/Graphics/SVG/1.1/DTD/svg11.dtd" >
<svg xmlns="http://www.w3.org/2000/svg">
    <metadata>
        This is a custom SVG webfont generated by Font Squirrel.
        Copyright : National Centre for Software Technology Devanagari Full font Contains font Unicode set requirements
    </metadata>
    <defs>
        <font id="webfont0dguES9p" horiz-adv-x="1360">
            <font-face units-per-em="2048" ascent="1638" descent="-410"/>
            <missing-glyph horiz-adv-x="1024"/>
            <glyph unicode="&#xd;" horiz-adv-x="1024"/>
            <glyph unicode=" " horiz-adv-x="1024"/>
            <glyph unicode="&#x09;" horiz-adv-x="1024"/>
            <glyph unicode="&#xa0;" horiz-adv-x="1024"/>
            <glyph unicode="!" horiz-adv-x="640"
                   d="M423 1376l-63 -1033h-78l-66 1033q-3 50 25.5 85t78.5 35t78 -35t25 -85zM425 105q0 -43 -30.5 -74t-73.5 -31q-44 0 -74.5 31t-30.5 74t30.5 73.5t74.5 30.5q43 0 73.5 -30.5t30.5 -73.5z"/>
            <glyph unicode="&#x22;" horiz-adv-x="1014"
                   d="M725 1413l-30 -345h-78l-31 344q-3 34 16.5 59t52.5 25t53 -25t17 -58zM428 1413l-30 -345h-79l-30 344q-3 34 16.5 59t52.5 25t53 -25t17 -58z"/>
            <glyph unicode="#" horiz-adv-x="1602"
                   d="M1371 975l-30 -142h-241l-81 -327h245l-32 -142h-247l-90 -364h-143l89 364h-231l-91 -364h-134l88 364h-242l30 142h249l80 327h-251l31 142h255l88 365h134l-87 -365h230l89 365h144l-89 -365h237zM956 832h-232l-81 -327h232z"/>
            <glyph unicode="%" horiz-adv-x="1602"
                   d="M617 1086q0 -89 -63.5 -153.5t-152.5 -64.5t-153.5 64.5t-64.5 153.5t64.5 152.5t153.5 63.5t152.5 -63.5t63.5 -152.5zM1307 413q0 -90 -63.5 -153.5t-153.5 -63.5t-153.5 63.5t-63.5 153.5t63.5 153.5t153.5 63.5t153.5 -63.5t63.5 -153.5zM1183 1338l-812 -1338 l-99 91l811 1342zM524 1153q0 58 -57 58q-58 0 -125 -67t-67 -126q0 -57 57 -57q59 0 125.5 66.5t66.5 125.5zM1213 480q0 58 -57 58q-59 0 -125.5 -67t-66.5 -126q0 -57 57 -57q59 0 125.5 66.5t66.5 125.5z"/>
            <glyph unicode="&#x26;" horiz-adv-x="1496"
                   d="M1327 -33l-250 256q-196 -235 -428 -235q-200 0 -335 111q-144 119 -144 314q0 248 305 454q-209 229 -209 321v28q0 114 82.5 197t196.5 83q144 0 251 -119q104 -115 104 -261q0 -93 -97 -183q-45 -42 -175 -127l390 -430q100 142 100 338q0 54 -15 109l116 -136 q1 -38 1 -62q0 -196 -102 -340l194 -194zM805 1211q0 74 -51.5 122.5t-125.5 48.5q-96 0 -169 -41q-88 -49 -88 -138q0 -136 155 -294q131 88 175 126q104 92 104 176zM981 326l-408 447q-144 -94 -212 -183q-87 -116 -87 -266q0 -112 96 -174q83 -53 202 -53q221 0 409 229 z"/>
            <glyph unicode="'" horiz-adv-x="436"
                   d="M288 1413l-30 -345h-79l-30 344q-3 34 16.5 59t52.5 25q32 0 52 -25t18 -58z"/>
            <glyph unicode="(" horiz-adv-x="854"
                   d="M671 -163l-55 -67q-433 432 -433 861q0 430 433 862l55 -67q-346 -346 -346 -795t346 -794z"/>
            <glyph unicode=")" horiz-adv-x="854"
                   d="M671 631q0 -429 -433 -861l-55 67q346 345 346 794t-346 795l55 67q433 -432 433 -862z"/>
            <glyph unicode="*" horiz-adv-x="1076"
                   d="M889 510h-276l206 -206l-49 -49l-206 206v-274h-101v274l-206 -206l-49 49l206 206h-274v101h274l-206 206l49 49l206 -206v276h101v-276l206 206l49 -49l-206 -206h276v-101z"/>
            <glyph unicode="+" horiz-adv-x="1282" d="M1039 490h-344v-353h-137v353h-315v141h315v351h137v-351h344v-141z"/>
            <glyph unicode="," horiz-adv-x="560"
                   d="M404 7q0 -175 -178 -282l-43 66q142 83 142 216q0 25 -3 45q-29 -27 -67 -27q-99 0 -99 98q0 99 99 99q69 0 112 -76q37 -66 37 -139z"/>
            <glyph unicode="-" horiz-adv-x="840" d="M238 617l-100 128h464l100 -128h-464z"/>
            <glyph unicode="." horiz-adv-x="640"
                   d="M203 105q0 48 34.5 82.5t82.5 34.5t82.5 -34.5t34.5 -82.5t-34.5 -82.5t-82.5 -34.5t-82.5 34.5t-34.5 82.5z"/>
            <glyph unicode="/" horiz-adv-x="1282" d="M1097 1338l-812 -1338l-99 91l811 1342z"/>
            <glyph unicode="0" horiz-adv-x="1220"
                   d="M1124 692q0 -293 -142 -489q-148 -203 -372 -203t-372 203q-142 196 -142 489q0 294 142 490q148 202 372 202t372 -202q142 -196 142 -490zM977 692q0 245 -99 420q-106 191 -267 191q-160 0 -268 -191q-100 -175 -100 -420q0 -244 100 -420q108 -190 268 -190 q161 0 267 190q99 176 99 420z"/>
            <glyph unicode="1" horiz-adv-x="854" d="M628 0h-142v1183l-194 -164l-66 56l260 253h142v-1328z"/>
            <glyph unicode="2" horiz-adv-x="1174"
                   d="M983 0h-788q-4 46 -4 91q0 228 168 405q16 17 310 252q167 134 167 262q0 117 -65 193q-68 79 -184 79q-191 0 -320 -182l-71 56q167 228 391 228q171 0 281 -101q115 -104 115 -273q0 -138 -160 -262l-297 -228q-161 -159 -161 -373h618v-147z"/>
            <glyph unicode="3" horiz-adv-x="1174"
                   d="M1013 346q0 -189 -130 -292q-119 -94 -313 -94q-231 0 -409 126l50 83q160 -109 359 -109q126 0 213 83t87 210q0 124 -91.5 208t-216.5 84h-104v99h99q90 0 163 71.5t73 161.5q0 115 -62 189q-67 78 -179 78q-183 0 -311 -181l-69 55q66 92 166 155q111 71 214 71 q166 0 273 -96q111 -100 111 -264q0 -79 -48 -158q-50 -82 -121 -109q246 -117 246 -371z"/>
            <glyph unicode="4" horiz-adv-x="1174"
                   d="M1061 388h-230v-388h-151v388h-567v135l540 809h178v-809h230v-135zM680 523v669l-453 -669h453z"/>
            <glyph unicode="5" horiz-adv-x="1174"
                   d="M991 401q0 -421 -446 -421q-174 0 -362 83l36 88q113 -52 304 -52q138 0 229 82q95 85 95 221q0 180 -161 247q-104 44 -317 44q-5 0 -29 -1h-52h-76l56 638h675v-143h-588l-36 -404q267 0 400 -42q272 -84 272 -340z"/>
            <glyph unicode="6" horiz-adv-x="1174"
                   d="M1029 365q0 -126 -76 -240q-111 -165 -333 -165q-224 0 -356 206q-119 186 -119 458q0 287 136 493q150 227 394 227q142 0 291 -129l-54 -70q-107 99 -239 99q-194 0 -300 -211q-80 -161 -84 -364l-1 -47q129 189 332 189q181 0 298 -134q111 -128 111 -312zM886 367 q0 106 -56 207q-77 138 -210 138q-98 0 -185 -69q-80 -64 -120 -159q6 -142 74 -266q88 -158 231 -158q119 0 195 96q71 89 71 211z"/>
            <glyph unicode="7" horiz-adv-x="1174"
                   d="M992 1197q-279 -226 -384 -373q-218 -306 -218 -743q0 -46 6 -81h-143q-6 46 -6 81q0 377 192 687q119 193 373 429h-630v143h810v-143z"/>
            <glyph unicode="8" horiz-adv-x="1174"
                   d="M1005 332q0 -169 -127 -274q-119 -98 -291 -98q-175 0 -292 97q-126 103 -126 275q0 135 86 226q58 62 204 139q-102 34 -171 123q-72 92 -72 197q0 162 107 248q97 79 264 79t264 -79q106 -85 106 -248q0 -174 -243 -290q291 -152 291 -395zM814 1017q0 103 -62 165 t-165 62q-228 0 -228 -227q0 -157 257 -247q62 18 130 101t68 146zM862 332q0 95 -109 188q-86 74 -196 116q-93 -36 -166 -120q-79 -91 -79 -184q0 -113 81 -192.5t194 -79.5q119 0 197 76.5t78 195.5z"/>
            <glyph unicode="9" horiz-adv-x="1174"
                   d="M1029 680q0 -274 -126 -479q-148 -241 -404 -241q-142 0 -291 129l54 70q107 -99 239 -99q191 0 296 202q84 160 88 373l1 47q-129 -189 -332 -189q-181 0 -298 134q-111 128 -111 312q0 126 76 240q111 165 333 165q238 0 368 -224q107 -185 107 -440zM859 820 q-6 152 -79 276q-87 148 -226 148q-119 0 -195 -96q-71 -89 -71 -211q0 -126 69 -229q77 -116 197 -116q98 0 185 69q80 64 120 159z"/>
            <glyph unicode=":" horiz-adv-x="748"
                   d="M258 692q0 48 34.5 82.5t82.5 34.5t82.5 -34.5t34.5 -82.5t-34.5 -82.5t-82.5 -34.5t-82.5 34.5t-34.5 82.5zM258 105q0 48 34.5 82.5t82.5 34.5t82.5 -34.5t34.5 -82.5t-34.5 -82.5t-82.5 -34.5t-82.5 34.5t-34.5 82.5z"/>
            <glyph unicode=";" horiz-adv-x="748"
                   d="M258 692q0 48 34.5 82.5t82.5 34.5t82.5 -34.5t34.5 -82.5t-34.5 -82.5t-82.5 -34.5t-82.5 34.5t-34.5 82.5zM524 7q0 -175 -178 -282l-43 66q142 83 142 216q0 25 -3 45q-29 -27 -67 -27q-99 0 -99 98q0 99 99 99q69 0 112 -76q37 -66 37 -139z"/>
            <glyph unicode="&#x3c;" horiz-adv-x="1496" d="M1282 254l-38 -139l-1030 493v80l1030 490l38 -136l-838 -394z"/>
            <glyph unicode="=" horiz-adv-x="1282" d="M1111 729h-818l-122 149h819zM1111 410h-818l-122 150h819z"/>
            <glyph unicode="&#x3e;" horiz-adv-x="1496"
                   d="M1282 608l-1030 -493l-38 139l838 394l-838 394l38 136l1030 -490v-80z"/>
            <glyph unicode="?" horiz-adv-x="1174"
                   d="M969 968q0 -146 -110 -211l-205 -107q-110 -77 -110 -230q0 -18 1 -55.5t1 -56.5l-112 121v51q0 180 117 270l217 119q117 66 117 199q0 104 -88 175q-81 67 -188 67q-116 0 -212 -75q-103 -81 -103 -194q0 -21 4 -42q11 86 99 86q99 0 99 -99t-99 -99q-96 0 -148 80 q-44 69 -44 170q0 109 100 195q96 82 207 82q200 0 328 -122q129 -125 129 -324zM601 99q0 -99 -99 -99t-99 99q0 100 99 100t99 -100z"/>
            <glyph unicode="@" horiz-adv-x="2028"
                   d="M1828 589q0 -151 -52 -289q-68 -183 -191 -183q-176 0 -277 227q-120 -127 -294 -127q-140 0 -277 115q-168 142 -168 370q0 180 83 303q95 141 267 141q197 0 333 -134v117l123 -123v-381q0 -211 4 -232q27 -143 122 -143q119 0 182 171q47 128 47 273q0 325 -181 527 q-189 209 -511 209q-349 0 -553 -262q-187 -240 -187 -599q0 -321 207 -517q203 -192 526 -192q226 0 371 125l93 -110q-154 -130 -378 -130q-374 0 -634 237q-283 258 -283 682q0 388 235 642q221 238 517 238q410 0 649 -276q227 -263 227 -679zM1259 515q-7 54 -7 110 v297q-87 110 -247 110q-337 0 -337 -415q0 -119 70 -201q74 -85 192 -85q216 0 329 184z"/>
            <glyph unicode="[" horiz-adv-x="1116" d="M392 0l-102 127v1370h434l102 -127h-434v-1243h332l102 -127h-434z"/>
            <glyph unicode="\" horiz-adv-x="1282" d="M1084 45l-100 -93l-800 1286l100 96z"/>
            <glyph unicode="]" horiz-adv-x="1116"
                   d="M786 127v1243h-455l-103 127h558l102 -127v-1370h-557l-103 127h558z"/>
            <glyph unicode="^" horiz-adv-x="1176" d="M895 1260l-59 -66l-234 235l-244 -243l-77 93l299 296z"/>
            <glyph unicode="_" horiz-adv-x="1112" d="M1285 -304h-1308l-121 149h1309z"/>
            <glyph unicode="{" horiz-adv-x="1176"
                   d="M1040 -301h-127q-228 0 -312 131q-67 103 -67 344q0 377 -398 377v171q398 0 398 376q0 240 67 344q85 131 312 131h127v-87q-128 0 -165 -6q-96 -15 -142 -73q-57 -71 -57 -246q0 -232 -39 -322q-55 -129 -242 -203q187 -74 242 -203q39 -90 39 -322q0 -175 57 -246 q46 -58 142 -73q37 -6 165 -6v-87z"/>
            <glyph unicode="|" horiz-adv-x="992" d="M809 1500v-1618l-118 118v1618z"/>
            <glyph unicode="}" horiz-adv-x="1176"
                   d="M1040 551q-398 0 -398 -377q0 -242 -66 -345q-84 -130 -313 -130h-127v87q128 0 166 6q97 15 142 73q56 71 56 246q0 230 39 321q56 130 242 204q-186 74 -242 204q-39 91 -39 321q0 176 -56 246q-45 58 -142 73q-38 6 -166 6v87h127q228 0 313 -130q66 -103 66 -345 q0 -377 398 -376v-171z"/>
            <glyph unicode="~" horiz-adv-x="1496"
                   d="M1343 866q0 -462 -331 -462q-120 0 -218 95l-147 176q-82 95 -166 95q-124 0 -200 -131q-64 -110 -64 -245h-72v57q0 462 331 462q119 0 219 -95l150 -176q83 -95 162 -95q136 0 207 126q57 102 57 250h72v-57z"/>
            <glyph unicode="&#xad;" horiz-adv-x="840" d="M238 617l-100 128h464l100 -128h-464z"/>
            <glyph unicode="&#xd7;" horiz-adv-x="1282"
                   d="M1026 851l-293 -292l291 -290l-96 -97l-290 290l-288 -287l-97 96l289 288l-293 292l96 95l293 -292l292 292z"/>
            <glyph unicode="&#xf7;" horiz-adv-x="1282"
                   d="M739 962q0 -99 -99 -99t-99 99t99 99t99 -99zM1210 568h-992l-122 150h993zM739 302q0 -99 -99 -99t-99 99q0 100 99 100t99 -100z"/>
            <glyph unicode="&#x901;" horiz-adv-x="0"
                   d="M-703 1993l-84 102l124 62l83 -102zM-1165 2169l99 -127q0 -9 -1.5 -27.5t-1.5 -28.5q0 -125 130 -166q71 -23 233 -23q366 0 366 236q0 60 -23 136l103 -127q23 -77 23 -137q0 -235 -395 -235q-221 0 -368 101q-168 117 -168 328q0 1 3 70zM-364 1380h-14l7 12z"/>
            <glyph unicode="&#x902;" horiz-adv-x="0" d="M-308 1856l-103 127l124 124l103 -127z"/>
            <glyph unicode="&#x903;" horiz-adv-x="744"
                   d="M359 927l-102 127l124 124l102 -127zM359 245l-102 127l124 124l102 -127z"/>
            <glyph unicode="&#x905;" horiz-adv-x="1696"
                   d="M105 414l43 28l144 -180q143 -153 258 -153q144 0 269 113q128 117 128 261q0 110 -83 185q-73 67 -188 88q-144 -82 -254 -82q-25 0 -47 5l-102 127q84 81 222 81q38 0 76 -7q255 159 255 289q0 80 -81 149q-77 67 -159 67q-216 0 -273 -210l-102 127q56 205 253 205 q145 0 300 -130q161 -134 161 -276q0 -155 -156 -280q141 -94 314 -94q198 0 305 141v460h-370l-100 128h746l100 -128h-272v-1331l-104 127v527q-113 -51 -202 -51q-137 0 -278 76q83 -98 102 -128q50 -77 50 -153q0 -159 -132 -282t-293 -123q-155 0 -302 144 q-43 42 -228 280z"/>
            <glyph unicode="&#x906;" horiz-adv-x="2280"
                   d="M105 414l43 28l144 -180q143 -153 258 -153q144 0 269 113q128 117 128 261q0 110 -83 185q-73 67 -188 88q-144 -82 -254 -82q-25 0 -47 5l-102 127q84 81 222 81q38 0 76 -7q255 159 255 289q0 80 -81 149q-77 67 -159 67q-216 0 -273 -210l-102 127q56 205 253 205 q145 0 300 -130q161 -134 161 -276q0 -155 -156 -280q141 -94 314 -94q198 0 305 141v460h-370l-100 128h1334l100 -128h-392v-1331l-104 127v1204h-364v-1331l-104 127v527q-113 -51 -202 -51q-137 0 -278 76q83 -98 102 -128q50 -77 50 -153q0 -159 -132 -282t-293 -123 q-155 0 -302 144q-43 42 -228 280z"/>
            <glyph unicode="&#x907;" horiz-adv-x="1304"
                   d="M335 390q0 57 34 105q37 54 92 54q83 0 256 -217q88 41 150 101q78 75 78 151q0 49 -37.5 87.5t-86.5 38.5q-37 0 -111 -13t-111 -13q-111 0 -223.5 106.5t-112.5 216.5q0 165 317 165q30 0 162 -7v163h-694l-100 128h1324l100 -128h-526v-265q-29 0 -88 3.5t-88 3.5 q-315 0 -315 -150q0 -54 56 -96q52 -40 109 -40q37 0 109.5 13t109.5 13q108 0 201.5 -99t93.5 -208q0 -162 -230 -277l322 -392l-32 -29l-333 400q-141 -59 -219 -59q-94 0 -153 77q-54 70 -54 167zM416 313q0 -68 52 -68q80 0 206 63l-74 88q-60 68 -81 68q-46 0 -77 -54 q-26 -46 -26 -97z"/>
            <glyph unicode="&#x908;" horiz-adv-x="1304"
                   d="M416 313q0 -68 52 -68q80 0 206 63l-74 88q-60 68 -81 68q-46 0 -77 -54q-26 -46 -26 -97zM1234 1836l-22 -22q-189 235 -440 235q-118 0 -197 -62q-85 -67 -85 -182q0 -109 83 -212t190 -137h509l100 -128h-526v-265q-29 0 -88 3.5t-88 3.5q-315 0 -315 -150 q0 -54 56 -96q52 -40 109 -40q37 0 109.5 13t109.5 13q108 0 201.5 -99t93.5 -208q0 -162 -230 -277l322 -392l-32 -29l-333 400q-141 -59 -219 -59q-94 0 -153 77q-54 70 -54 167q0 57 34 105q37 54 92 54q83 0 256 -217q88 41 150 101q78 75 78 151q0 49 -37.5 87.5 t-86.5 38.5q-37 0 -111 -13t-111 -13q-111 0 -223.5 106.5t-112.5 216.5q0 165 317 165q30 0 162 -7v163h-694l-100 128h703q-285 232 -285 434q0 135 83 210q80 72 217 72q165 0 325 -97q156 -94 243 -239z"/>
            <glyph unicode="&#x909;"
                   d="M1176 373q0 -161 -170 -276q-154 -104 -327 -104q-167 0 -334 123q-154 114 -250 287l35 24q85 -132 130 -177q132 -132 304 -132q170 0 325 96q176 109 176 264q0 106 -120 209q-117 99 -224 99q-90 0 -183 -31q45 -53 45 -62q0 -33 -67 -50q-46 -12 -95 -12 q-31 0 -53 12l-103 124v19q29 50 140 86q102 33 200 33q44 0 73 -8q165 119 165 222q0 80 -81 146q-76 63 -159 63h-553l-102 128h1380l100 -128h-647q161 -135 161 -277q0 -122 -102 -224q137 -85 229 -198q107 -133 107 -256z"/>
            <glyph unicode="&#x90a;" horiz-adv-x="1736"
                   d="M731 1328q161 -135 161 -277q0 -53 -19 -101q95 45 169 45q210 0 388 -168q182 -171 182 -379q0 -145 -137 -201l-102 127q135 51 135 198q0 133 -116 220q-105 78 -237 78q-158 0 -303 -85q274 -199 274 -412q0 -161 -170 -276q-154 -104 -327 -104q-167 0 -334 123 q-154 114 -250 287l35 24q85 -132 130 -177q132 -132 304 -132q170 0 325 96q176 109 176 264q0 106 -120 209q-117 99 -224 99q-90 0 -183 -31q45 -53 45 -62q0 -33 -67 -50q-46 -12 -95 -12q-31 0 -53 12l-103 124v19q30 51 141 86q102 33 200 33q43 0 72 -8 q165 119 165 222q0 80 -81 146q-76 63 -159 63h-505l-100 128h1756l100 -128h-1073z"/>
            <glyph unicode="&#x90b;" horiz-adv-x="1984"
                   d="M1512 1328h-532v-544q127 -71 240 -71q170 0 292 110v505zM2052 1328h-436v-737q115 -133 115 -202q0 -77 -100 -135q-10 -5 -185 -80q-100 -43 -100 -85q0 -45 67 -77q57 -27 109 -27q122 0 161 139l102 -127q-34 -138 -165 -138q-127 0 -246 102q-124 107 -124 231 q0 62 99 109l182 71q99 43 99 96q0 57 -118 167q-89 -48 -197 -48q-173 0 -335 153v-743l-104 127v390l-517 -207l-102 127l619 248v97l-143 103q-79 47 -165 47q-98 0 -189 -52t-143 -136l-103 127q51 85 143 136.5t191 51.5q171 0 409 -220v492h-828l-100 128h2004z"/>
            <glyph unicode="&#x90c;" horiz-adv-x="1736"
                   d="M1413 102q-76 -145 -173 -145q-44 0 -151 80l-153 120q-71 53 -71 110q0 34 23 85q30 64 175 140q222 117 248 134q125 85 125 182q0 76 -50 120t-127 44q-96 0 -239 -138l-227 -236l-102 127q40 35 111 106q-161 143 -270 143q-120 0 -211 -93.5t-91 -212.5 q0 -133 193 -317q122 -115 274 -214l-28 -35q-180 101 -347 289q-198 221 -198 387q0 121 92.5 222t212.5 101q214 0 405 -239l103 119q60 62 125 91v256h-1014l-100 128h1756l100 -128h-638v-231h8q99 0 234 -158q131 -154 131 -257q0 -88 -135 -175l-252 -138 q-135 -81 -135 -157q0 -115 115 -115q70 0 118 31q56 36 61 101z"/>
            <glyph unicode="&#x90d;" horiz-adv-x="1304"
                   d="M988 1869q-36 -188 -160 -188q-184 0 -354 352l96 -73q76 -163 189 -163q112 0 146 174zM586 416q290 73 290 290v622h-580v-671q0 -43 105 -120q33 -25 185 -121zM1372 1328h-392v-623q0 -270 -278 -357q326 -179 343 -190q148 -94 148 -167q0 -77 -90 -118l-102 127 q59 25 59 53q0 24 -225 141q-297 155 -418 235q-225 149 -225 250v649h-144l-100 128h1324z"/>
            <glyph unicode="&#x90e;" horiz-adv-x="1304"
                   d="M1372 1328h-392v-623q0 -270 -278 -357q326 -179 343 -190q148 -94 148 -167q0 -77 -90 -118l-102 127q59 25 59 53q0 24 -225 141q-297 155 -418 235q-225 149 -225 250v649h-144l-100 128h952q7 28 7 55q0 117 -124 172q-92 42 -226 42q-122 0 -223 83 q-105 86 -113 205l109 -84q-5 -13 -5 -26q0 -42 60 -63q43 -15 94 -15q22 0 65.5 3t65.5 3q127 0 244 -122q111 -117 133 -253h285zM876 706v622h-580v-671q0 -43 105 -120q33 -25 185 -121q290 73 290 290z"/>
            <glyph unicode="&#x90f;" horiz-adv-x="1304"
                   d="M586 416q290 73 290 290v622h-580v-671q0 -43 105 -120q33 -25 185 -121zM1372 1328h-392v-623q0 -270 -278 -357q326 -179 343 -190q148 -94 148 -167q0 -77 -90 -118l-102 127q59 25 59 53q0 24 -225 141q-297 155 -418 235q-225 149 -225 250v649h-144l-100 128h1324z "/>
            <glyph unicode="&#x910;" horiz-adv-x="1304"
                   d="M1372 1328h-392v-623q0 -270 -278 -357q326 -179 343 -190q148 -94 148 -167q0 -77 -90 -118l-102 127q59 25 59 53q0 24 -225 141q-297 155 -418 235q-225 149 -225 250v649h-144l-100 128h943l-355 472q-39 52 -144 52h-210l-102 127h272q116 0 163 -54l99 -139 l337 -458h321zM876 706v622h-580v-671q0 -43 105 -120q33 -25 185 -121q290 73 290 290z"/>
            <glyph unicode="&#x911;" horiz-adv-x="2280"
                   d="M1210 2033l96 -73q76 -163 189 -163q112 0 146 174l83 -102q-36 -188 -160 -188q-184 0 -354 352zM105 414l43 28l144 -180q143 -153 258 -153q144 0 269 113q128 117 128 261q0 110 -83 185q-73 67 -188 88q-144 -82 -254 -82q-25 0 -47 5l-102 127q84 81 222 81 q38 0 76 -7q255 159 255 289q0 80 -81 149q-77 67 -159 67q-216 0 -273 -210l-102 127q56 205 253 205q145 0 300 -130q161 -134 161 -276q0 -155 -156 -280q141 -94 314 -94q198 0 305 141v460h-370l-100 128h1334l100 -128h-392v-1331l-104 127v1204h-364v-1331l-104 127 v527q-113 -51 -202 -51q-137 0 -278 76q83 -98 102 -128q50 -77 50 -153q0 -159 -132 -282t-293 -123q-155 0 -302 144q-43 42 -228 280z"/>
            <glyph unicode="&#x912;" horiz-adv-x="2280"
                   d="M105 414l43 28l144 -180q143 -153 258 -153q144 0 269 113q128 117 128 261q0 110 -83 185q-73 67 -188 88q-144 -82 -254 -82q-25 0 -47 5l-102 127q84 81 222 81q38 0 76 -7q255 159 255 289q0 80 -81 149q-77 67 -159 67q-216 0 -273 -210l-102 127q56 205 253 205 q145 0 300 -130q161 -134 161 -276q0 -155 -156 -280q141 -94 314 -94q198 0 305 141v460h-370l-100 128h898q7 27 7 55q0 117 -124 172q-92 42 -226 42q-122 0 -223 83q-105 86 -113 205l109 -84q-5 -13 -5 -26q0 -42 60 -63q43 -15 94 -15q22 0 65.5 3t65.5 3 q127 0 244 -122q112 -117 133 -253h349l100 -128h-392v-1331l-104 127v1204h-364v-1331l-104 127v527q-113 -51 -202 -51q-137 0 -278 76q83 -98 102 -128q50 -77 50 -153q0 -159 -132 -282t-293 -123q-155 0 -302 144q-43 42 -228 280z"/>
            <glyph unicode="&#x913;" horiz-adv-x="2280"
                   d="M105 414l43 28l144 -180q143 -153 258 -153q144 0 269 113q128 117 128 261q0 110 -83 185q-73 67 -188 88q-144 -82 -254 -82q-25 0 -47 5l-102 127q84 81 222 81q38 0 76 -7q255 159 255 289q0 80 -81 149q-77 67 -159 67q-216 0 -273 -210l-102 127q56 205 253 205 q145 0 300 -130q161 -134 161 -276q0 -155 -156 -280q141 -94 314 -94q198 0 305 141v460h-370l-100 128h887l-355 472q-39 52 -144 52h-210l-102 127h272q107 0 162 -54l100 -139l337 -458h387l100 -128h-392v-1331l-104 127v1204h-364v-1331l-104 127v527 q-113 -51 -202 -51q-137 0 -278 76q83 -98 102 -128q50 -77 50 -153q0 -159 -132 -282t-293 -123q-155 0 -302 144q-43 42 -228 280z"/>
            <glyph unicode="&#x914;" horiz-adv-x="2280"
                   d="M1370 2031l-102 127h175q105 0 165 -45.5t97 -147.5l185 -509h362l100 -128h-392v-1331l-104 127v1204h-364v-1331l-104 127v527q-113 -51 -202 -51q-137 0 -278 76q83 -98 102 -128q50 -77 50 -153q0 -159 -132 -282t-293 -123q-155 0 -302 144q-43 42 -228 280l43 28 l144 -180q143 -153 258 -153q144 0 269 113q128 117 128 261q0 110 -83 185q-73 67 -188 88q-144 -82 -254 -82q-25 0 -47 5l-102 127q84 81 222 81q38 0 76 -7q255 159 255 289q0 80 -81 149q-77 67 -159 67q-216 0 -273 -210l-102 127q56 205 253 205q145 0 300 -130 q161 -134 161 -276q0 -155 -156 -280q141 -94 314 -94q198 0 305 141v460h-370l-100 128h735l-210 276q-40 52 -144 52h-138l-102 127h200q82 0 145 -54q39 -33 117 -139l193 -262h123l-198 491q-34 84 -156 84h-113z"/>
            <glyph unicode="&#x915;" horiz-adv-x="1856"
                   d="M876 919q-129 89 -315 89q-109 0 -208 -76q-106 -81 -106 -186q0 -110 93 -172q80 -53 192 -53q94 0 186 58q111 69 158 196v144zM1924 1328h-944v-446q83 126 213 126q173 0 309.5 -150t136.5 -333q0 -171 -164 -279l-102 127q161 107 161 266q0 108 -73 176.5 t-183 68.5q-91 0 -177 -65q-80 -61 -121 -147v-674l-104 127v408q-27 -49 -113 -93q-82 -42 -138 -42q-156 0 -317 121q-175 133 -175 297q0 124 114 222q109 94 235 94q230 0 394 -129v325h-828l-100 128h1876z"/>
            <glyph unicode="&#x916;" horiz-adv-x="1856"
                   d="M1924 1328h-388v-1332l-104 127v285q-94 -155 -249 -245t-334 -90q-167 0 -392 184q-187 153 -304 328q-83 126 -83 197q0 73 73 116q60 35 139 35q93 0 183 -96q40 112 40 319v172h-457l-100 128h1876zM1160 1027q-115 0 -210 -69q-105 -75 -105 -186q0 -76 85 -126 q72 -42 154 -42q202 0 348 162v172q-100 89 -272 89zM1432 1044v284h-825l4 -308q0 -172 -53 -320q-73 -202 -212 -202q-18 0 -36 4q251 -347 525 -347q168 0 341 113q160 104 256 257v59q-135 -113 -300 -113q-141 0 -269.5 126.5t-128.5 267.5q0 121 121 211 q112 83 237 83q199 0 340 -115zM440 800q-36 6 -60 6q-67 0 -128 -30q-74 -36 -74 -96q0 -65 63 -65q51 0 116 69q51 55 83 116z"/>
            <glyph unicode="&#x917;" horiz-adv-x="1616"
                   d="M521 649q-54 39 -84 39q-69 0 -148 -58q-85 -63 -85 -129q0 -78 146 -78q171 0 171 183v43zM1296 1328v-1331l-104 127v1204h-567v-835q0 -197 -174 -197q-107 0 -233 108q-130 111 -130 216q0 73 84 135q79 58 155 58q103 0 194 -109v624h-473l-100 128h1617l100 -128 h-369z"/>
            <glyph unicode="&#x918;" horiz-adv-x="1616"
                   d="M1192 734v594h-699q-82 0 -159 -41q-90 -48 -90 -119q0 -77 96 -142q88 -59 169 -59q118 0 192 87l102 -127q-73 -74 -166 -95q-53 -11 -193 -11q-128 0 -128 -60q0 -108 150 -191q139 -77 291 -77q134 0 251 62q126 66 184 179zM1296 1328v-1331l-104 127v359 q-140 -116 -339 -116q-213 0 -423 137q-222 145 -222 316q0 99 211 113q-109 27 -194 125q-88 101 -88 210q0 22 25 60h-114l-100 128h1636l100 -128h-388z"/>
            <glyph unicode="&#x919;"
                   d="M1191 930l-97 -115l-84 102l103 115zM57 327l24 33q299 -197 484 -197q151 0 291 91q156 102 156 245q0 77 -51 136q-54 62 -129 62q-57 0 -164.5 -36.5t-164.5 -36.5q-117 0 -210 121q-87 113 -87 234q0 86 50 136t136 50h424v163h-768l-100 128h1380l100 -128h-508 v-265h-444q-77 0 -129 -40q-58 -44 -58 -119q0 -67 42 -121q46 -58 111 -58q52 0 150.5 34t150.5 34q134 0 243 -125q105 -120 105 -256q0 -154 -149 -258q-134 -93 -295 -93q-152 0 -307 78q-108 55 -283 188z"/>
            <glyph unicode="&#x91a;" horiz-adv-x="1616"
                   d="M1296 1328v-1331l-104 127v406q-221 -178 -391 -178q-158 0 -309 99q-168 110 -168 259q0 82 116 166q5 4 188 113h-437l-103 127h744l102 -127l-278 -165q-205 -122 -205 -197q0 -65 91 -111q77 -39 151 -39q222 0 499 263v588h-1144l-100 128h1636l100 -128h-388z"/>
            <glyph unicode="&#x91b;" horiz-adv-x="1616"
                   d="M873 24q-214 0 -411 150q-211 161 -211 368q0 140 170 217q-92 45 -188 166q-103 130 -103 222q0 56 41 104q16 18 86 77h-209l-100 128h1636l100 -128h-394v-237l6 -22q186 -187 186 -395q0 -284 -161 -463q-168 -187 -448 -187zM879 1008q0 78 48.5 127t126.5 49 q75 0 132 -28v172h-579q-112 0 -230 -84q-129 -91 -129 -198q0 -109 126 -184q111 -66 227 -66q48 0 90 10l102 -127q-39 -7 -81 -7q-33 0 -67 4q-289 -71 -289 -257q0 -129 149 -206q122 -63 264 -63q202 0 358 108q163 112 215 303q-168 77 -290 177q-173 140 -173 270z M1373 831q0 96 -60 162.5t-154 66.5q-63 0 -115 -40q-57 -43 -57 -104q0 -87 146 -176q19 -11 224 -111q16 98 16 202z"/>
            <glyph unicode="&#x91c;" horiz-adv-x="1616"
                   d="M1296 1328v-1331l-104 127v679h-479q113 -55 183.5 -165.5t70.5 -235.5q0 -126 -74 -202t-200 -76q-119 0 -242 135q-91 98 -196 287l-143 265q27 18 54 22l87 -171q215 -414 378 -414q236 0 236 200q0 110 -74 217q-76 111 -180 138l-102 127h681v398h-1144l-100 128 h1636l100 -128h-388zM1251 1380h-14l7 12z"/>
            <glyph unicode="&#x91d;" horiz-adv-x="1856"
                   d="M406 316q0 -72 69 -72q28 0 98 22q63 20 93 36l-71 95q-53 68 -76 68q-48 0 -82 -52q-31 -46 -31 -97zM1432 793v535h-578v-265q-28 0 -91.5 3.5t-92.5 3.5q-326 0 -326 -150q0 -55 60 -97q54 -39 112 -39q37 0 111.5 12.5t111.5 12.5q47 0 83 -16h610zM1536 1328v-1331 l-104 127v567h-504q102 -115 102 -194q0 -160 -239 -276l302 -399q-16 -16 -32 -30l-318 408q-114 -57 -203 -57q-79 0 -148 77.5t-69 157.5q0 63 28 118q34 68 90 68q70 0 157 -94q34 -37 115 -149q85 40 148 100q79 77 79 152q0 114 -245 114q-24 0 -58 -1t-41 -1 q-112 0 -222 100q-113 102 -113 213q0 175 308 175q32 0 91 -4t90 -4v163h-702l-100 128h1876l100 -128h-388z"/>
            <glyph unicode="&#x91e;" horiz-adv-x="1616"
                   d="M1296 1328v-1331l-104 127v506q-43 -17 -64 -17q-55 0 -250 128q0 -152 -65 -246q-75 -109 -221 -109q-103 0 -346 131q-34 20 -106 54v38q271 -95 393 -95q252 0 252 304q0 108 -76 173q-72 61 -182 61q-184 0 -271 -125l-103 127q90 124 262 124q160 0 295 -110.5 t159 -267.5q92 -56 157 -56q46 0 166 61v523h-1144l-100 128h1636l100 -128h-388zM1251 1380h-14l7 12z"/>
            <glyph unicode="&#x91f;"
                   d="M252 540q0 -157 174 -269q156 -101 322 -101q295 0 377 307l102 -127q-79 -302 -374 -302q-231 0 -468 158q-264 176 -264 391q0 197 253 353q204 127 442 166v212h-768l-100 128h1380l100 -128h-508v-339q-199 -28 -411 -146q-257 -144 -257 -303zM875 1380h-14l7 12z "/>
            <glyph unicode="&#x920;"
                   d="M137 587q0 187 253 350q197 127 426 179v212h-768l-100 128h1380l100 -128h-508v-318q153 -72 270 -244q120 -176 120 -341q0 -186 -173 -290q-145 -87 -344 -87q-239 0 -439 147q-217 161 -217 392zM838 944q-159 0 -370 -149q-225 -159 -225 -308q0 -152 156 -240 q130 -74 295 -74q200 0 343 87q170 104 170 292q0 135 -116 262q-119 130 -253 130zM875 1380h-14l7 12z"/>
            <glyph unicode="&#x921;"
                   d="M57 327l24 33q299 -197 484 -197q151 0 291 91q156 102 156 245q0 77 -51 136q-54 62 -129 62q-57 0 -164.5 -36.5t-164.5 -36.5q-117 0 -210 121q-87 113 -87 234q0 86 50 136t136 50h424v163h-768l-100 128h1380l100 -128h-508v-265h-444q-77 0 -129 -40 q-58 -44 -58 -119q0 -67 42 -121q46 -58 111 -58q52 0 150.5 34t150.5 34q134 0 243 -125q105 -120 105 -256q0 -154 -149 -258q-134 -93 -295 -93q-271 0 -590 266z"/>
            <glyph unicode="&#x922;"
                   d="M946 611q108 0 201 -117q87 -111 87 -222q0 -122 -158 -181q-114 -43 -262 -43q-247 0 -450 133q-232 150 -232 384q0 194 252 364q204 138 432 187v212h-768l-100 128h1380l100 -128h-508v-339q-205 -40 -419 -178q-257 -167 -257 -338q0 -143 166 -229q136 -71 295 -71 q81 0 162 14q-115 136 -115 208q0 78 58.5 147t135.5 69zM849 310q0 -25 71 -111q210 53 210 197q0 90 -83 90q-66 0 -132 -56t-66 -120z"/>
            <glyph unicode="&#x923;" horiz-adv-x="1616"
                   d="M838 868v460h-520v-562q0 -219 208 -219q138 0 225 88.5t87 232.5zM1684 1328h-388v-1331l-104 127v1204h-252v-587q0 -140 -104 -233q-97 -87 -226 -87q-148 0 -271.5 121t-123.5 264v522h-167l-100 128h1636z"/>
            <glyph unicode="&#x924;"
                   d="M1040 1328v-1331l-104 127v679h-352q-363 0 -363 -256q0 -136 103 -292q92 -140 217 -227l-43 -28q-147 104 -263 301q-122 208 -122 377q0 252 378 252h445v398h-888l-100 128h1386l100 -128h-394z"/>
            <glyph unicode="&#x925;" horiz-adv-x="1616"
                   d="M307 1314q0 -54 80 -85q62 -24 127 -24q53 0 92 21q49 26 49 74q0 57 -60 97q-53 35 -113 35q-56 0 -111 -31q-64 -35 -64 -87zM1296 1328v-1331l-104 127v450q-187 -151 -388 -151q-297 0 -611 417q-32 43 -54 81q4 5 11 5q33 0 98 -11t98 -11q155 0 274 178 q-124 0 -266 81q-161 91 -161 206q0 82 64 133q59 48 143 48q159 0 272 -137q107 -129 107 -291q0 -131 -101 -236.5t-231 -105.5q-18 0 -55 3t-55 3q-10 0 -9 -10q10 -80 151 -156q129 -71 225 -71q294 0 488 241v538h-144l-100 128h626l100 -128h-378z"/>
            <glyph unicode="&#x926;"
                   d="M569 635q0 49 38.5 85.5t87.5 36.5q94 0 188 -106t94 -201q0 -99 -141 -149l217 -307l-41 -37l-238 334q-24 -3 -57 -3q-206 0 -383 125q-196 139 -196 336q0 137 116 252t253 115h309v212h-768l-100 128h1380l100 -128h-508v-339q-25 0 -75 1h-74q-208 0 -312 -43 q-145 -60 -203 -228q-14 -40 -14 -74q0 -121 125 -182q98 -48 233 -48q53 0 81 10l-72 98q-40 62 -40 112zM886 550q0 36 -27.5 62t-63.5 26q-38 0 -73 -35t-35 -73q0 -23 56 -99q143 38 143 119z"/>
            <glyph unicode="&#x927;" horiz-adv-x="1616"
                   d="M687 1432q0 69 -88 69q-112 0 -205 -116q87 -117 124 -117q49 0 109 58t60 106zM1296 1328v-1331l-104 127v299q-139 -118 -323 -118q-430 0 -610 369q-45 92 -45 135q0 111 152 124q-226 166 -226 317q0 118 126.5 246t244.5 128t203 -59q96 -67 96 -180 q0 -79 -73 -152.5t-152 -73.5q-55 0 -130 72q-63 61 -95 123q-110 -126 -110 -195q0 -103 131 -165q105 -50 222 -50q102 0 157 48l102 -127q-48 -44 -152 -44q-34 0 -101.5 9.5t-101.5 9.5q-70 0 -120 -26q-64 -33 -64 -96q0 -126 155 -212q132 -74 270 -74q139 0 258 62 q128 66 186 184v650h-144l-100 128h636l100 -128h-388z"/>
            <glyph unicode="&#x928;" horiz-adv-x="1616"
                   d="M577 680q0 30 -36 71l-52 52h-13q-169 0 -169 -163q0 -40 31 -88q34 -54 74 -54q58 0 112 63q53 60 53 119zM1296 1328v-1331l-104 127v679h-633q77 -85 82 -92q44 -59 44 -110q0 -80 -55 -153q-60 -79 -137 -79q-87 0 -191 150q-97 142 -97 236q0 175 186 175h801v398 h-1144l-100 128h1636l100 -128h-388z"/>
            <glyph unicode="&#x929;" horiz-adv-x="1616"
                   d="M577 680q0 30 -36 71l-52 52h-13q-169 0 -169 -163q0 -40 31 -88q34 -54 74 -54q58 0 112 63q53 60 53 119zM1296 1328v-1331l-104 127v679h-633q77 -85 82 -92q44 -59 44 -110q0 -80 -55 -153q-60 -79 -137 -79q-87 0 -191 150q-97 142 -97 236q0 175 186 175h801v398 h-1144l-100 128h1636l100 -128h-388zM28 199l154 154l154 -154l-154 -154z"/>
            <glyph unicode="&#x92a;"
                   d="M936 806v522h-580v-588q0 -185 182 -185q113 0 229.5 74.5t168.5 176.5zM1040 1328v-1331l-104 127v428q-137 -121 -295 -121q-146 0 -267.5 125.5t-121.5 270.5v501h-204l-100 128h1380l100 -128h-388zM995 1380h-14l7 12z"/>
            <glyph unicode="&#x92b;" horiz-adv-x="1856"
                   d="M194 1328h-146l-100 128h1876l100 -128h-944v-333q79 59 185 59q206 0 366 -225q146 -206 146 -422q0 -134 -78 -224l-102 127q78 90 78 224q0 144 -88 265q-97 134 -235 134q-165 0 -272 -192v-744l-104 127v344q-90 -90 -222 -90q-186 0 -326 161q-134 154 -134 341 v448zM298 883q0 -381 260 -381q204 0 318 242v584h-578v-445z"/>
            <glyph unicode="&#x92c;"
                   d="M739 585q120 64 126 167q6 100 -109 185.5t-242 75.5q-44 -3 -90 -29zM373 948q-35 2 -74.5 -68t-39.5 -132q0 -101 105 -162q87 -50 170 -44q37 2 74.5 4.5t69.5 15.5zM1040 1328v-1331l-104 127l1 430q-40 -63 -140 -99q-82 -29 -170 -30q-163 -2 -317 112 q-162 120 -166 269q-2 99 86 197q92 102 207 110q20 1 40 1q154 0 280 -79q123 -77 180 -204v497h-889l-100 128h1380l100 -128h-388z"/>
            <glyph unicode="&#x92d;" horiz-adv-x="1616"
                   d="M404 366q-112 0 -213 108.5t-101 221.5q0 118 257 118q40 0 175 -8v581q0 71 -6 86t-40 15q-91 0 -156 -59q-68 -60 -68 -150q0 -65 44 -87q29 -14 102 -14l65 -115q-135 8 -225 79q-100 80 -100 212q0 94 72.5 177.5t165.5 83.5q118 0 188 -111q60 -95 60 -221v-477h568 v522h-144l-100 128h636l100 -128h-388v-1331l-104 127v555h-568q0 -146 -37 -216q-51 -97 -183 -97zM190 585q0 -42 58 -71q49 -24 97 -24q180 0 180 189h-149q-186 0 -186 -94z"/>
            <glyph unicode="&#x92e;" horiz-adv-x="1616"
                   d="M1192 1328h-566v-522h566v522zM92 611q0 72 54 133.5t129 61.5h247v522h-474l-100 128h1636l100 -128h-388v-1331l-104 127v555h-566q0 -21 1.5 -64.5t1.5 -65.5q0 -253 -175 -253q-111 0 -234 101q-128 106 -128 214zM199 520q0 -49 48 -76q40 -23 92 -23q186 0 186 196 v62h-149q-61 0 -119 -49.5t-58 -109.5zM1251 1380h-14l7 12z"/>
            <glyph unicode="&#x92f;" horiz-adv-x="1616"
                   d="M1192 799v529h-702q128 -102 128 -244q0 -121 -66 -219q-74 -112 -189 -112q-37 0 -62 12l-8 -6q9 -29 76 -93q139 -133 298 -133q142 0 291 75.5t234 190.5zM1296 1328v-1331l-104 127v442q-190 -158 -428 -158q-190 0 -376 160q-166 143 -251 335q69 -35 116 -35 q108 0 188 91q78 87 78 196q0 174 -251 174q-10 0 -220 -1l-100 128h1636l100 -128h-388z"/>
            <glyph unicode="&#x930;" horiz-adv-x="1112"
                   d="M878 -25l-39 -34l-596 600q-111 112 -111 183q0 68 78 110q65 36 139 36q61 0 111 -36q23 -16 87 -81q21 65 21 208v367h-520l-100 128h1132l100 -128h-506l2 -418q1 -251 -67 -355q-82 -126 -190 -121zM250 626q0 -28 22.5 -47t51.5 -19q120 0 196 146q-31 44 -88 44 q-71 0 -120 -27q-62 -33 -62 -97zM628 1380h-14l7 12z"/>
            <glyph unicode="&#x931;" horiz-adv-x="1112"
                   d="M878 -25l-39 -34l-596 600q-111 112 -111 183q0 68 78 110q65 36 139 36q61 0 111 -36q23 -16 87 -81q21 65 21 208v367h-520l-100 128h1132l100 -128h-506l2 -418q1 -251 -67 -355q-82 -126 -190 -121zM250 626q0 -28 22.5 -47t51.5 -19q120 0 196 146q-31 44 -88 44 q-71 0 -120 -27q-62 -33 -62 -97zM628 1380h-14l7 12zM5 151l154 154l154 -154l-154 -154z"/>
            <glyph unicode="&#x932;" horiz-adv-x="1616"
                   d="M1296 1328v-1330l-104 127v627l-478 -301l-102 127q97 54 97 130q0 94 -159 94q-111 0 -208 -73q-106 -78 -106 -185q0 -130 295 -435q37 -35 108 -109l-37 -24q-475 448 -475 666q0 124 102 208q97 80 223 80q127 0 218 -72q98 -77 101 -201l421 265v406h-1144l-100 128 h1636l100 -128h-388z"/>
            <glyph unicode="&#x933;" horiz-adv-x="1856"
                   d="M1661 474q0 -150 -168 -264q-151 -102 -310 -102q-116 0 -207 71q-67 52 -145 168q-144 -226 -286 -226q-146 0 -301.5 177t-155.5 340q0 151 159 264q145 102 302 102q117 0 207 -70q66 -52 146 -169q142 226 284 227v336h-1138l-100 128h1876l100 -128h-634v-360 q136 -57 252 -208q119 -155 119 -286zM1538 588q0 110 -79.5 186t-190.5 76q-138 0 -249 -186l-162 -271q113 -158 217 -158q165 0 305 93q159 104 159 260zM876 717q-115 161 -218 161q-162 0 -305 -96q-159 -108 -159 -262q0 -93 83.5 -179.5t165.5 -86.5q145 0 270 194 q13 20 163 269z"/>
            <glyph unicode="&#x934;" horiz-adv-x="1856"
                   d="M1661 474q0 -150 -168 -264q-151 -102 -310 -102q-116 0 -207 71q-67 52 -145 168q-144 -226 -286 -226q-146 0 -301.5 177t-155.5 340q0 151 159 264q145 102 302 102q117 0 207 -70q66 -52 146 -169q142 226 284 227v336h-1138l-100 128h1876l100 -128h-634v-360 q136 -57 252 -208q119 -155 119 -286zM1538 588q0 110 -79.5 186t-190.5 76q-138 0 -249 -186l-162 -271q113 -158 217 -158q165 0 305 93q159 104 159 260zM876 717q-115 161 -218 161q-162 0 -305 -96q-159 -108 -159 -262q0 -93 83.5 -179.5t165.5 -86.5q145 0 270 194 q13 20 163 269zM-38 -10l154 154l154 -154l-154 -154z"/>
            <glyph unicode="&#x935;"
                   d="M863 766q0 92 -118 165q-106 64 -205 64t-191.5 -88.5t-92.5 -187.5q0 -88 78 -135q64 -39 159 -39q119 0 231 52q139 65 139 169zM1040 1328v-1331l-104 127v435q-45 -67 -154 -106q-92 -33 -184 -33q-166 0 -306 116q-148 121 -148 284q0 116 100.5 210t217.5 94 q141 0 280 -100t194 -240v544h-888l-100 128h1380l100 -128h-388zM995 1380h-14l7 12z"/>
            <glyph unicode="&#x936;" horiz-adv-x="1616"
                   d="M423 415q-112 0 -207.5 99t-95.5 211q0 95 116 95q68 0 181 -136l72 -84q196 142 196 413q0 145 -39 252q-54 152 -170 152q-61 0 -120 -48q-62 -51 -62 -110q0 -45 47 -70q39 -21 88 -21q83 0 127 72l102 -127q-40 -69 -124 -69q-121 0 -234 99q-116 103 -116 222 q0 66 66 125.5t133 59.5q35 0 77 -19q166 -76 253 -271q74 -167 74 -372q0 -265 -198 -405l371 -425l-41 -30l-366 424q-65 -37 -130 -37zM223 624q0 -35 35 -61q32 -24 69 -24q55 0 118 34l-75 89q-26 30 -53 30q-94 0 -94 -68zM1296 1328v-1331l-104 127v1204h-286 l-100 128h778l100 -128h-388z"/>
            <glyph unicode="&#x937;"
                   d="M298 719q0 -164 176 -164q189 0 344 142l-520 594v-572zM937 866v462h-609l524 -594q43 44 85 132zM1040 1328v-1331l-103 127v473q-170 -166 -362 -166q-142 0 -263 136q-118 133 -118 276v485h-146l-100 128h1380l100 -128h-388z"/>
            <glyph unicode="&#x938;" horiz-adv-x="1616"
                   d="M353 818q-173 0 -173 -103q0 -40 36.5 -70.5t83.5 -30.5q63 0 117.5 38.5t78.5 97.5q-44 40 -64 51q-31 17 -79 17zM1192 715v613h-579v-572q0 -77 99 -123q80 -38 165 -38q194 0 315 120zM1296 1328v-1331l-104 127v396q-82 -56 -208 -56q-110 0 -211 61l-183 130 q-116 -171 -218 -171q-16 0 -33 3l416 -504l-39 -33l-353 424q-150 181 -188 231q-91 124 -91 181q0 71 68 112q58 35 134 35q121 0 219 -142q12 82 12 145q0 71 -3 196t-3 196h-463l-100 128h1636l100 -128h-388z"/>
            <glyph unicode="&#x939;"
                   d="M313 502q0 -74 171 -251l228 -236l-34 -27l-271 280q-194 215 -194 296q0 119 121 183q-117 118 -117 250q0 152 185 152h414v179h-768l-100 128h1380l100 -128h-508v-281h-403q-94 0 -146 -51q-44 -43 -44 -106q0 -46 25.5 -79t67.5 -33q11 0 23 3l257 60q20 5 41 5 q111 0 212 -111.5t101 -229.5q0 -148 -196 -202l-84 102q199 48 199 183q0 152 -183 152q-37 0 -195.5 -37t-195.5 -53q-86 -38 -86 -148z"/>
            <glyph unicode="&#x93c;" horiz-adv-x="0" d="M-1093 61l154 154l154 -154l-154 -154z"/>
            <glyph unicode="&#x93d;" horiz-adv-x="1302"
                   d="M984 361q0 172 -209 280l-233 107q-162 75 -212 120q-87 78 -114 134q-36 72 -36 204q0 149 157 225q120 58 285 58q191 0 404 -79l15 -112q-95 64 -311 64q-447 0 -447 -273q0 -160 215 -257l274 -120q167 -73 237 -140q104 -99 104 -253q0 -149 -157 -227 q-124 -61 -290 -61q-199 0 -430 152l-31 105q220 -147 445 -147q122 0 217 49q117 60 117 171z"/>
            <glyph unicode="&#x93e;" horiz-adv-x="624"
                   d="M298 1328v-1331l-104 127v1204h-196l-100 128h686l100 -128h-386z"/>
            <glyph unicode="&#x93f;" horiz-adv-x="744"
                   d="M130 1847q0 167 120 251q104 72 279 72q154 0 342 -84q31 -14 316 -165q259 -138 561 -253q356 -136 586 -165l102 -127q-553 96 -1147 418q-271 147 -315 166q-185 83 -342 83q-160 0 -268 -66q-128 -79 -128 -230q0 -157 171 -291h309l101 -128h-396v-1331l-102 127 v1204h-301l-100 128h412q-200 170 -200 391z"/>
            <glyph unicode="&#x940;" horiz-adv-x="624"
                   d="M-244 2003q-125 0 -196 -61q-78 -67 -69 -188q15 -202 160 -362l-33 -32q-239 264 -229 510q6 143 85 204q69 53 211 53q130 0 264 -134q108 -108 174 -248l135 -289h326l100 -128h-386v-1331l-104 127v1204h-196l-100 128h304l-180 344q-45 79 -109 135q-79 68 -157 68z "/>
            <glyph unicode="&#x941;" horiz-adv-x="0"
                   d="M-1118 -390l30 30q158 -128 230 -174q154 -98 264 -98q190 0 301 79q129 91 129 276q0 65 -47 105t-113 40q-54 0 -100 -27q-53 -31 -53 -82q0 -79 121 -78l34 -118q-251 133 -251 291q0 70 60 111q53 36 126 36q138 0 237 -138q91 -126 91 -269q0 -169 -122 -259 q-109 -80 -284 -80q-324 0 -653 355zM-358 110h-14l7 12z"/>
            <glyph unicode="&#x942;" horiz-adv-x="0"
                   d="M465 -777l-39 -23l-506 553q-108 121 -258 121q-65 0 -115 -37q-56 -41 -56 -105q0 -66 43 -116q45 -53 110 -53q137 0 185 152l92 -94q-28 -181 -188 -181q-127 0 -239 128q-106 122 -106 243q0 85 59 139q56 51 135 51q176 0 353.5 -193.5z"/>
            <glyph unicode="&#x943;" horiz-adv-x="0"
                   d="M-707 -251q0 98 75 168.5t174 70.5l84 -105q-113 0 -181 -59q-73 -62 -73 -173q0 -94 72 -155q69 -59 164 -59q110 0 194.5 68.5t111.5 175.5l83 -106q-28 -100 -127 -158q-89 -52 -199 -52q-179 0 -278.5 102.5t-99.5 281.5z"/>
            <glyph unicode="&#x944;" horiz-adv-x="0"
                   d="M-418 -372q-60 44 -115 111q-69 82 -69 136q0 88 187 113l83 -103q-164 -18 -164 -90q0 -19 16 -42q77 -111 208 -111q67 0 105 36l83 -103q-54 -40 -172 -40q-105 0 -105 -46q0 -11 8 -25q51 -96 193 -96q84 0 117 62l83 -102q-33 -59 -118 -59q-112 0 -215 70 q-94 64 -156 168q-18 31 -18 58q0 54 49 63z"/>
            <glyph unicode="&#x945;" horiz-adv-x="0"
                   d="M-846 2033l96 -73q76 -163 189 -163q112 0 146 174l83 -102q-36 -188 -160 -188q-184 0 -354 352zM-364 1380h-14l7 12z"/>
            <glyph unicode="&#x946;" horiz-adv-x="0"
                   d="M-364 1380h-14l7 12zM-386 1430q0 -29 -8 -57l-83 102q7 27 7 56q0 117 -124 172q-92 42 -226 42q-122 0 -223 83q-105 86 -113 205l109 -84q-5 -13 -5 -26q0 -42 60 -63q43 -15 94 -15q22 0 65.5 3t65.5 3q139 0 262 -142q119 -138 119 -279z"/>
            <glyph unicode="&#x947;" horiz-adv-x="0"
                   d="M-961 1980l-102 127h272q121 0 163 -54l99 -139l351 -477l-42 -24l-387 515q-39 52 -144 52h-210zM-364 1380h-14l7 12z"/>
            <glyph unicode="&#x948;" horiz-adv-x="0"
                   d="M-939 1783l-102 127h200q82 0 145 -54q39 -33 117 -139l214 -290l-42 -24l-250 328q-40 52 -144 52h-138zM-730 2030l-102 127h175q105 0 165 -45.5t97 -147.5l203 -558l-42 -24q-1 2 -227 564q-34 84 -156 84h-113zM-364 1380h-14l7 12z"/>
            <glyph unicode="&#x949;" horiz-adv-x="534"
                   d="M298 1328v-1331l-104 127v1204h-196l-100 128h686l100 -128h-386zM-12 2033l96 -73q76 -163 189 -163q112 0 146 174l83 -102q-36 -188 -160 -188q-184 0 -354 352zM470 1380h-14l7 12z"/>
            <glyph unicode="&#x94a;" horiz-adv-x="696"
                   d="M764 1328h-387q-1 -2 -1 -1331l-104 127v1204h-274l-100 128h393q7 27 7 55q0 117 -124 172q-92 42 -226 42q-122 0 -223 83q-105 86 -113 205l109 -84q-5 -13 -5 -26q0 -42 60 -63q43 -15 94 -15q22 0 65.5 3t65.5 3q127 0 244 -122q112 -117 133 -253h286z"/>
            <glyph unicode="&#x94b;" horiz-adv-x="696"
                   d="M764 1328h-420v-1331l-104 127v1204h-242l-100 128h350l-355 472q-39 52 -144 52h-210l-102 127h272q116 0 163 -54l99 -139l337 -458h356z"/>
            <glyph unicode="&#x94c;" horiz-adv-x="696"
                   d="M764 1328h-426v-1331l-104 127v1204h-236l-100 128h207l-210 276q-40 52 -144 52h-138l-102 127h200q82 0 145 -54q39 -33 117 -139l193 -262h123l-198 491q-34 84 -156 84h-113l-102 127h175q105 0 165 -45.5t97 -147.5l185 -509h322z"/>
            <glyph unicode="&#x94d;" horiz-adv-x="0"
                   d="M-170 -643l-34 -35q-221 167 -266 197q-244 168 -339 168h-195l-102 127h173q120 0 188 -42q114 -71 290 -202z"/>
            <glyph unicode="&#x950;" horiz-adv-x="2355"
                   d="M970 618q0 117 -103 190q-93 66 -214 66q-106 0 -170 -71l-102 127q80 66 195 66q26 0 53 -4q178 121 178 258q0 119 -70.5 188t-189.5 69q-129 0 -215 -70q-92 -74 -96 -200l-103 127q13 121 111 191q89 64 216 64q176 0 322 -134q149 -137 149 -312q0 -156 -119 -256 q305 -217 305 -422q0 -163 -145 -274q-134 -103 -302 -103q-299 0 -596 297l-28 158q192 -332 545 -332q160 0 269.5 108.5t109.5 268.5zM1943 843q91 0 141 78q43 66 43 163q0 106 -46 184q-55 94 -154 94q-116 0 -204 -125q-42 -59 -76 -224q-38 -183 -66 -243 q-54 -114 -162 -114q-140 0 -421 134l-35 62q249 -106 336 -106q128 0 176 114q13 30 49 251q28 173 97 253q105 123 245 123q152 0 261 -169q97 -151 97 -312q0 -115 -70 -208q-75 -101 -186 -101q-125 0 -220 152l-28 158q11 -22 40 -65h3q71 -99 180 -99zM1296 1519 q-152 0 -299 70q-151 71 -241 190l-28 158q89 -128 225 -203q140 -78 292 -78q272 0 376 265l102 -127q-43 -137 -165 -209q-111 -66 -262 -66zM1082 1959l124 124l127 -140l-124 -124z"/>
            <glyph unicode="&#x951;" horiz-adv-x="0" d="M-282 1400l-104 80v688l104 -80v-688z"/>
            <glyph unicode="&#x952;" horiz-adv-x="0" d="M10 -448h-960v88h960v-88z"/>
            <glyph unicode="&#x953;" horiz-adv-x="0"
                   d="M-458 1668l-85 -9q-177 243 -379 243q-82 0 -156 -40q38 85 97 148q28 4 57 4q283 0 466 -346z"/>
            <glyph unicode="&#x954;" horiz-adv-x="0"
                   d="M-1051 1618l85 -9q177 243 379 243q82 0 156 -40q-38 85 -97 148q-28 4 -57 4q-283 0 -466 -346z"/>
            <glyph unicode="&#x958;" horiz-adv-x="1856"
                   d="M876 919q-129 89 -315 89q-109 0 -208 -76q-106 -81 -106 -186q0 -110 93 -172q80 -53 192 -53q94 0 186 58q111 69 158 196v144zM1924 1328h-944v-446q83 126 213 126q173 0 309.5 -150t136.5 -333q0 -171 -164 -279l-102 127q161 107 161 266q0 108 -73 176.5 t-183 68.5q-91 0 -177 -65q-80 -61 -121 -147v-674l-104 127v408q-27 -49 -113 -93q-82 -42 -138 -42q-156 0 -317 121q-175 133 -175 297q0 124 114 222q109 94 235 94q230 0 394 -129v325h-828l-100 128h1876zM-3 147l154 154l154 -154l-154 -154z"/>
            <glyph unicode="&#x959;" horiz-adv-x="1856"
                   d="M1924 1328h-388v-1332l-104 127v285q-94 -155 -249 -245t-334 -90q-167 0 -392 184q-187 153 -304 328q-83 126 -83 197q0 73 73 116q60 35 139 35q93 0 183 -96q40 112 40 319v172h-457l-100 128h1876zM1160 1027q-115 0 -210 -69q-105 -75 -105 -186q0 -76 85 -126 q72 -42 154 -42q202 0 348 162v172q-100 89 -272 89zM1432 1044v284h-825l4 -308q0 -172 -53 -320q-73 -202 -212 -202q-18 0 -36 4q251 -347 525 -347q168 0 341 113q160 104 256 257v59q-135 -113 -300 -113q-141 0 -269.5 126.5t-128.5 267.5q0 121 121 211 q112 83 237 83q199 0 340 -115zM440 800q-36 6 -60 6q-67 0 -128 -30q-74 -36 -74 -96q0 -65 63 -65q51 0 116 69q51 55 83 116zM5 155l154 154l154 -154l-154 -154z"/>
            <glyph unicode="&#x95a;" horiz-adv-x="1616"
                   d="M521 649q-54 39 -84 39q-69 0 -148 -58q-85 -63 -85 -129q0 -78 146 -78q171 0 171 183v43zM1296 1328v-1331l-104 127v1204h-567v-835q0 -197 -174 -197q-107 0 -233 108q-130 111 -130 216q0 73 84 135q79 58 155 58q103 0 194 -109v624h-473l-100 128h1617l100 -128 h-369zM4 134l154 154l154 -154l-154 -154z"/>
            <glyph unicode="&#x95b;" horiz-adv-x="1616"
                   d="M1296 1328v-1331l-104 127v679h-479q113 -55 183.5 -165.5t70.5 -235.5q0 -126 -74 -202t-200 -76q-119 0 -242 135q-91 98 -196 287l-143 265q27 18 54 22l87 -171q215 -414 378 -414q236 0 236 200q0 110 -74 217q-76 111 -180 138l-102 127h681v398h-1144l-100 128 h1636l100 -128h-388zM1251 1380h-14l7 12zM29 199l154 154l154 -154l-154 -154z"/>
            <glyph unicode="&#x95c;"
                   d="M57 327l24 33q299 -197 484 -197q151 0 291 91q156 102 156 245q0 77 -51 136q-54 62 -129 62q-57 0 -164.5 -36.5t-164.5 -36.5q-117 0 -210 121q-87 113 -87 234q0 86 50 136t136 50h424v163h-768l-100 128h1380l100 -128h-508v-265h-444q-77 0 -129 -40 q-58 -44 -58 -119q0 -67 42 -121q46 -58 111 -58q52 0 150.5 34t150.5 34q134 0 243 -125q105 -120 105 -256q0 -154 -149 -258q-134 -93 -295 -93q-271 0 -590 266zM-39 -11l154 154l154 -154l-154 -154z"/>
            <glyph unicode="&#x95d;"
                   d="M946 611q108 0 201 -117q87 -111 87 -222q0 -122 -158 -181q-114 -43 -262 -43q-247 0 -450 133q-232 150 -232 384q0 194 252 364q204 138 432 187v212h-768l-100 128h1380l100 -128h-508v-339q-205 -40 -419 -178q-257 -167 -257 -338q0 -143 166 -229q136 -71 295 -71 q81 0 162 14q-115 136 -115 208q0 78 58.5 147t135.5 69zM849 310q0 -25 71 -111q210 53 210 197q0 90 -83 90q-66 0 -132 -56t-66 -120zM-36 -9l154 154l154 -154l-154 -154z"/>
            <glyph unicode="&#x95e;" horiz-adv-x="1856"
                   d="M194 1328h-146l-100 128h1876l100 -128h-944v-333q79 59 185 59q206 0 366 -225q146 -206 146 -422q0 -134 -78 -224l-102 127q78 90 78 224q0 144 -88 265q-97 134 -235 134q-165 0 -272 -192v-744l-104 127v344q-90 -90 -222 -90q-186 0 -326 161q-134 154 -134 341 v448zM298 883q0 -381 260 -381q204 0 318 242v584h-578v-445zM28 200l154 154l154 -154l-154 -154z"/>
            <glyph unicode="&#x95f;" horiz-adv-x="1616"
                   d="M1192 799v529h-702q128 -102 128 -244q0 -121 -66 -219q-74 -112 -189 -112q-37 0 -62 12l-8 -6q9 -29 76 -93q139 -133 298 -133q142 0 291 75.5t234 190.5zM1296 1328v-1331l-104 127v442q-190 -158 -428 -158q-190 0 -376 160q-166 143 -251 335q69 -35 116 -35 q108 0 188 91q78 87 78 196q0 174 -251 174q-10 0 -220 -1l-100 128h1636l100 -128h-388zM29 199l154 154l154 -154l-154 -154z"/>
            <glyph unicode="&#x960;" horiz-adv-x="1984"
                   d="M1512 1328h-532v-544q127 -71 240 -71q163 0 292 113v502zM2052 1328h-436v-735q120 -137 120 -224q0 -103 -79 -169q-54 -46 -171 -89q-32 -11 -77 -37q-4 -5 -4 -9q0 -13 8 -29q28 -58 96 -96q65 -36 131 -36q67 0 105 36l83 -103q-36 -27 -86 -34q-45 -6 -86 -6 q-105 0 -105 -45q0 -47 80 -87q69 -35 121 -35q84 0 117 62l83 -102q-33 -59 -118 -59q-186 0 -371 238q-31 40 -31 62q0 42 62 59q-54 40 -113 112q-71 87 -71 135q0 58 84 101q150 76 155 80q84 61 84 165q0 32 -121 152q-89 -48 -197 -48q-172 0 -335 154v-744l-104 127 v390l-517 -207l-102 127l619 248v96q-139 101 -142 103q-81 48 -166 48q-99 0 -189.5 -51.5t-142.5 -136.5l-103 127q52 85 143.5 136.5t190.5 51.5q180 0 409 -229v501h-828l-100 128h2004z"/>
            <glyph unicode="&#x961;" horiz-adv-x="1736"
                   d="M930 236q0 -54 85 -98q74 -38 135 -38q66 0 105 36l83 -103q-54 -40 -172 -40q-110 0 -110 -47q0 -48 82 -87q70 -33 124 -33q84 0 117 62l83 -102q-33 -59 -118 -59q-187 0 -371 238q-31 40 -31 62q0 43 62 59q-53 39 -113 112q-71 87 -71 135q0 52 220 161l280 138 q97 66 97 150q0 76 -51 119q-48 39 -126 39q-102 0 -241 -139l-206 -218l-102 126q61 51 110 106q-161 143 -269 143q-121 0 -211.5 -92.5t-90.5 -213.5q0 -202 465 -532l-26 -34q-191 115 -349 291q-196 218 -196 391q0 121 92 219t213 98q214 0 405 -239l102 119 q62 64 126 92v271h-1014l-100 128h1756l100 -128h-638v-246h7q101 0 235 -155q131 -152 131 -255q0 -90 -117 -167q-1 -1 -276 -122q-216 -96 -216 -147z"/>
            <glyph unicode="&#x962;" horiz-adv-x="0"
                   d="M-322 -561q-133 0 -216 89q-77 83 -77 195q0 98 81 166l150 101q81 61 81 141q0 185 -249 185q-116 0 -188 -72t-72 -179l-84 103q4 29 22 80q-65 65 -187 65q-92 0 -167 -53q-88 -63 -88 -162q0 -78 66 -131q61 -50 137 -50q103 0 155 65l84 -103q-54 -62 -149 -62 q-127 0 -245 97q-124 103 -124 230q0 126 99 205q88 70 199 70q131 0 232 -137q65 134 230 134q162 0 290 -107.5t128 -238.5q0 -82 -88 -147l-164 -104q-88 -65 -88 -148q0 -141 185 -141q78 0 172 58q101 62 134 145l72 -84q-46 -105 -164 -165q-90 -45 -167 -45z"/>
            <glyph unicode="&#x963;" horiz-adv-x="0"
                   d="M-163 48q0 -96 -102 -155q-46 -28 -189 -74q-102 -33 -102 -64q0 -77 79 -115q61 -30 147 -30q67 0 105 36l83 -103q-40 -29 -86 -34q-55 -4 -111 -7q-79 -11 -79 -45q0 -57 66 -92q54 -29 114 -29q84 0 117 62l83 -102q-33 -59 -118 -59q-97 0 -230 97 q-142 104 -142 196q0 57 52 66q-70 12 -127 68t-57 119q0 80 106 130l198 80q106 54 106 146q0 96 -81 145q-67 40 -168 40q-114 0 -187 -70.5t-73 -180.5l-84 103q5 31 22 80q-67 67 -160 67q-104 0 -192 -56q-100 -63 -100 -161q0 -76 69 -130q65 -51 144 -51 q103 0 155 65l84 -103q-54 -62 -149 -62q-128 0 -250 96q-129 101 -129 225q0 120 95 202q92 79 213 79q136 0 232 -137q65 134 230 134q152 0 281 -110q135 -115 135 -266z"/>
            <glyph unicode="&#x964;" horiz-adv-x="858" d="M536 1432v-1488l-120 118v1488z"/>
            <glyph unicode="&#x965;" horiz-adv-x="1254"
                   d="M536 1432v-1488l-120 118v1488zM934 1432v-1488l-120 118v1488z"/>
            <glyph unicode="&#x966;" horiz-adv-x="1320"
                   d="M149 1015q0 184 107 317q114 143 292 143q252 0 437 -191.5t185 -450.5q0 -168 -105 -296q-112 -136 -281 -136q-251 0 -438 169q-197 178 -197 445zM679 535q151 0 254 119q99 114 99 267q0 185 -104 297t-281 112q-154 0 -258 -117q-101 -112 -101 -266 q0 -180 106 -294q108 -118 285 -118z"/>
            <glyph unicode="&#x967;" horiz-adv-x="992"
                   d="M325 797q0 62 102 142q64 46 189 144q94 81 94 207q0 87 -52 166q-59 90 -143 90q-74 0 -121 -57q-43 -53 -43 -131q0 -64 25 -111q32 -58 91 -58q17 0 35 5l43 -133q-122 33 -214 148q-95 117 -95 241q0 88 61 155.5t149 67.5q145 0 266 -184q109 -167 109 -320 q0 -109 -97 -204q-33 -32 -182 -138q-97 -69 -97 -115q0 -50 92 -148q151 -161 171 -188q92 -119 92 -221q0 -104 -131 -158l-102 127q125 48 125 134q0 46 -183.5 264.5t-183.5 274.5z"/>
            <glyph unicode="&#x968;" horiz-adv-x="1488"
                   d="M744 814q207 157 207 407q0 92 -92 179q-97 91 -210 91q-216 0 -475 -193l-103 128q264 191 458 191q199 0 365 -170q157 -161 157 -331q0 -151 -45 -247q-42 -90 -148 -181q121 -141 597 -657l-45 -34l-590 662q-68 -36 -162 -36q-138 0 -260 72q-142 84 -142 213 q0 108 163 108q136 0 193 -58zM373 811q0 -36 71 -57q51 -14 100 -14q103 0 163 47q-78 100 -158 100q-48 0 -103 -17q-73 -22 -73 -59z"/>
            <glyph unicode="&#x969;" horiz-adv-x="1116"
                   d="M679 1339q0 88 -85 166t-174 78q-184 0 -246 -161l-103 128q58 151 255 151q157 0 299.5 -135t142.5 -292q0 -195 -188 -230q100 -49 183 -144q94 -109 94 -207q0 -150 -169 -262q-50 -34 -79 -43l350 -413l-42 -40l-375 434q-39 -11 -81 -11q-120 0 -250 82 q-146 91 -146 203q0 67 123 67q159 0 309 -187q83 36 149 93q88 74 88 141q0 79 -98 169t-177 90q-38 0 -112 -13.5t-111 -13.5l-103 127q43 35 124 35q20 0 60 -6t60 -6q107 0 195 46q107 57 107 154zM180 542q0 -25 74 -44q59 -16 96 -16q52 0 93 14q-57 75 -166 75 q-97 0 -97 -29z"/>
            <glyph unicode="&#x96a;" horiz-adv-x="1488"
                   d="M254 473q0 110 110 171q10 6 192 85q-426 345 -426 471q0 134 251 226l102 -128q-200 -69 -200 -181q0 -125 324 -364q167 76 285 171q169 135 169 264q0 95 -124 236q-120 136 -215 164l-31 85q175 -89 313 -241q164 -181 164 -347q0 -144 -154 -273q-88 -73 -280 -174 q109 -98 148 -149q75 -96 75 -192q0 -107 -88 -177q-81 -65 -191 -65q-143 0 -283.5 137.5t-140.5 280.5zM835 383q0 105 -152 232l-204 -89q-102 -49 -102 -164q0 -75 48 -127q52 -58 139 -58q101 0 180 52q91 59 91 154z"/>
            <glyph unicode="&#x96b;" horiz-adv-x="1488"
                   d="M360 1483q-143 -118 -143 -307q0 -178 159 -278q135 -85 324 -85q138 0 238 60q120 71 120 200q0 103 -128 103q-119 0 -119 -97v-827q0 -219 -110 -219q-47 0 -87.5 43.5t-40.5 95.5q0 59 39.5 104.5t85.5 45.5q119 0 339 -119t320 -120q39 0 54 23l107 -107 q-27 -39 -80 -39q-92 0 -257 102q-95 59 -235 108q-152 54 -245 54q-89 0 -89 -54q0 -23 16.5 -41.5t38.5 -18.5q80 0 80 210q0 13 -1 39v39l-1 510q0 134 -7 232q-1 17 -1 31q0 128 114 128q97 0 207.5 -109t110.5 -206q0 -130 -136 -218q-121 -78 -258 -78 q-270 0 -463 173q-200 180 -200 447q0 181 145 303z"/>
            <glyph unicode="&#x96c;" horiz-adv-x="1240"
                   d="M575 590q0 92 116 92q95 0 193 -87.5t98 -181.5q0 -51 -65 -86q-49 -27 -111 -36l272 -436l-45 -25q-180 278 -283 452q-30 -4 -79 -4q-201 0 -367 132q-177 141 -177 337q0 167 226 269q-81 48 -158 140q-90 106 -90 183q0 149 219 253q183 88 352 88q43 0 77 -7 l102 -127q-30 7 -69 7q-142 0 -325 -72q-221 -87 -221 -203q0 -71 67 -140q63 -64 136 -84q186 62 372 62l102 -127q-30 1 -53 1q-175 0 -376 -82q-246 -101 -246 -248q0 -120 103 -192q92 -65 216 -65q56 0 107 7q-93 120 -93 180zM867 515q0 60 -80 60q-88 0 -88 -75 q0 -38 28 -75q140 25 140 90z"/>
            <glyph unicode="&#x96d;" horiz-adv-x="1859"
                   d="M1209 655q-135 0 -223 153q-75 131 -75 277q0 233 225 233q189 0 303 -176q99 -153 99 -353q0 -251 -110 -427q-129 -208 -365 -208q-374 0 -678 470q-159 245 -376 802l77 29q174 -461 322 -705q270 -443 561 -443q233 0 356 165q110 147 110 387q0 134 -53 227 q-65 114 -190 114q-80 0 -138 -50q-61 -53 -61 -131q0 -88 56 -156q60 -73 146 -73q35 0 70 20l51 -114q-48 -41 -107 -41z"/>
            <glyph unicode="&#x96e;" horiz-adv-x="1488"
                   d="M1330 1298h-1q-294 0 -531 -84q-286 -103 -426 -312q-94 -139 -94 -258q0 -208 119.5 -336.5t311.5 -128.5q125 0 246 54q137 60 189 160l102 -127q-51 -97 -192 -158q-124 -53 -248 -53q-251 0 -435 164q-196 175 -196 445q0 417 457 634h-463l-100 128h1161z"/>
            <glyph unicode="&#x96f;" horiz-adv-x="1240"
                   d="M352 1128q15 51 21 45q88 -88 150 -88q92 0 156.5 71t64.5 164q0 73 -62 119q-56 42 -131 42q-160 0 -253 -113q-86 -105 -86 -268q0 -160 216 -338l401 -292q216 -168 216 -303q0 -106 -128 -170l-102 127q62 26 85 47q36 33 36 88q0 51 -147 162l-193 134 q-117 81 -189 140q-136 111 -203 208q-96 140 -96 310q0 159 88 275q96 127 250 127q152 0 282 -124.5t130 -275.5q0 -96 -62 -171q-65 -81 -159 -81q-174 0 -285 165z"/>
            <glyph unicode="&#x970;" horiz-adv-x="640"
                   d="M304 501q73 0 152.5 -76.5t79.5 -148.5q0 -59 -46.5 -107.5t-105.5 -48.5q-70 0 -142 78.5t-72 149.5q0 59 38 106t96 47zM326 190q52 0 100 42.5t48 93.5q0 44 -28.5 75.5t-72.5 31.5q-58 0 -101 -42.5t-43 -100.5q0 -40 28.5 -70t68.5 -30z"/>
            <glyph unicode="&#x2000;" horiz-adv-x="1371"/>
            <glyph unicode="&#x2001;" horiz-adv-x="2743"/>
            <glyph unicode="&#x2002;" horiz-adv-x="1371"/>
            <glyph unicode="&#x2003;" horiz-adv-x="2743"/>
            <glyph unicode="&#x2004;" horiz-adv-x="914"/>
            <glyph unicode="&#x2005;" horiz-adv-x="685"/>
            <glyph unicode="&#x2006;" horiz-adv-x="457"/>
            <glyph unicode="&#x2007;" horiz-adv-x="457"/>
            <glyph unicode="&#x2008;" horiz-adv-x="342"/>
            <glyph unicode="&#x2009;" horiz-adv-x="548"/>
            <glyph unicode="&#x200a;" horiz-adv-x="152"/>
            <glyph unicode="&#x200c;" horiz-adv-x="0" d="M36 -275h-72v1859h72v-1859z"/>
            <glyph unicode="&#x200d;" horiz-adv-x="0"
                   d="M219 1369l-49 -49l-134 136v-1731h-72v1731l-134 -136l-49 49l171 169l-171 168l49 49l170 -171l170 171l49 -49l-171 -168z"/>
            <glyph unicode="&#x2010;" horiz-adv-x="840" d="M238 617l-100 128h464l100 -128h-464z"/>
            <glyph unicode="&#x2011;" horiz-adv-x="840" d="M238 617l-100 128h464l100 -128h-464z"/>
            <glyph unicode="&#x2012;" horiz-adv-x="840" d="M238 617l-100 128h464l100 -128h-464z"/>
            <glyph unicode="&#x2013;" horiz-adv-x="1112" d="M1310 726h-1310l-121 149h1311z"/>
            <glyph unicode="&#x2014;" horiz-adv-x="1816" d="M1979 726h-1979l-121 149h1980z"/>
            <glyph unicode="&#x2018;" horiz-adv-x="640"
                   d="M497 1349q0 -60 -41.5 -101.5t-101.5 -41.5q-94 0 -157 112q-54 97 -54 199q0 231 227 315l32 -73q-179 -79 -179 -237q0 -39 19 -91q24 61 112 61q60 0 101.5 -41.5t41.5 -101.5z"/>
            <glyph unicode="&#x2019;" horiz-adv-x="638"
                   d="M513 1185q0 -231 -228 -315l-32 73q179 80 179 237q0 40 -19 91q-24 -61 -112 -61q-60 0 -101.5 41.5t-41.5 101.5t41.5 101.5t101.5 41.5q94 0 157 -112q55 -97 55 -199z"/>
            <glyph unicode="&#x2026;" horiz-adv-x="1812"
                   d="M1508 120q0 -120 -120 -120q-121 0 -121 120q0 121 121 121q120 0 120 -121zM1026 120q0 -120 -120 -120t-120 120q0 121 120 121t120 -121zM545 120q0 -120 -121 -120q-120 0 -120 120q0 121 120 121q121 0 121 -121z"/>
            <glyph unicode="&#x202f;" horiz-adv-x="548"/>
            <glyph unicode="&#x205f;" horiz-adv-x="685"/>
            <glyph unicode="&#x2212;" horiz-adv-x="1282" d="M1110 553h-818l-121 149h819z"/>
            <glyph unicode="&#x25cc;" horiz-adv-x="1287"
                   d="M1113 1109l-78 -46q-52 86 -137 138l45 76q105 -66 170 -168zM762 1357l-22 -99q-47 11 -96 11q-51 0 -98 -11l-22 99q61 14 119 14q59 0 119 -14zM1187 827q0 -58 -14 -119l-98 22q11 47 11 96q0 51 -11 98l98 22q14 -61 14 -119zM1113 545q-66 -103 -170 -169l-55 87 q85 52 137 138zM399 1191q-85 -52 -137 -138l-88 56q65 102 170 168zM212 730l-99 -22q-13 57 -13 119t13 119l99 -22q-11 -47 -11 -98q0 -49 11 -96zM762 297q-60 -14 -119 -14q-58 0 -119 14l22 88q47 -11 98 -11q49 0 96 11zM399 453l-55 -77q-104 66 -170 169l88 46 q52 -86 137 -138z"/>
            <glyph unicode="&#xe000;" horiz-adv-x="500" d="M0 0v0v0v0v0z"/>
            <glyph horiz-adv-x="1024" d="M512 2743l20 -20h-40zM512 -1016l-20 20h40z"/>
            <glyph horiz-adv-x="1424"
                   d="M306 1328h-258l-100 128h1446l100 -128h-388v-436q-324 -70 -421 -102q-304 -99 -304 -229q0 -49 87 -73q59 -16 131 -16q135 0 261 46q139 51 220 144l102 -127q-215 -188 -487 -188q-239 0 -379 172q-56 69 -56 132q0 83 89 139l160 76q-153 124 -181 193 q-22 53 -22 269zM451 1328h-41v-233q0 -70 27 -104q23 -29 91 -61q40 -19 67 -19q53 0 322 82zM979 1009l23 10v309h-479z"/>
            <glyph horiz-adv-x="1424"
                   d="M1492 1328h-386v-408l-59 -18q248 -97 248 -236q0 -173 -186 -259q-142 -67 -337 -67q-137 0 -257 33q-153 42 -218 126q-59 77 -59 142q0 79 101 143q7 4 170 82q-51 38 -143 124q-48 55 -58 161q-3 28 -2 177h-258l-100 128h1444zM1002 1012v316h-479l454 -324z M915 990l-464 338h-41v-233q0 -74 67 -139q63 -61 121 -61q49 13 317 95zM1191 651q0 141 -224 230q-297 -88 -359 -112q-257 -100 -257 -198q0 -60 141 -86q86 -16 190 -16q171 0 297 27q212 45 212 155z"/>
            <glyph d="M1339 1019l-124 -124l-102 127l118 117zM936 1328v-242h-268q-132 0 -190 -14q-121 -27 -121 -115q0 -51 137 -51q28 0 54 3q71 5 213 18q16 2 30 2q102 0 189 -53q101 -62 101 -157q0 -108 -125 -167q-99 -47 -220 -47q-386 0 -658 297l20 24q180 -121 262 -159 q143 -66 297 -66q97 0 214 26q161 36 161 97q0 52 -70 83q-56 25 -115 25q-14 0 -27 -2q-176 -25 -258 -25q-97 0 -185 48q-103 57 -103 146q0 52 19 85q53 90 326 90h213v154h-784l-100 128h1380l100 -128h-492z"/>
            <glyph horiz-adv-x="1616"
                   d="M1684 1328h-395v-167q47 -11 88 -66q44 -60 55 -141q91 -25 163 -149q67 -115 65 -211q-2 -75 -132 -151l-84 70q128 40 132 184q1 54 -39.5 114t-72.5 62q-27 2 -45 -9q-26 -210 -207 -335q-166 -114 -386 -114q-356 0 -594 306q-43 55 -43 95q0 77 115 128 q-68 35 -140 110q-84 88 -84 149t66 125h-98l-100 128h1636zM1337 1018q0 104 -117 115q-65 6 -116 -25q-55 -32 -57 -85q-1 -32 44.5 -65t86.5 -33q85 0 158 38q1 31 1 55zM1302 830q-192 35 -269 112q-44 44 -53 56q-28 37 -32 81q-6 69 56 114q56 40 130 40q69 0 107 -38 l-54 75v58h-806q-60 0 -133.5 -72t-73.5 -131q0 -42 92 -85q82 -38 130 -38q66 0 154 24l150 45l84 -102q-146 -19 -274 -69q-186 -73 -186 -172q0 -70 108 -127q80 -42 171 -59q76 -14 157 -14q180 0 318 71q153 78 224 231z"/>
            <glyph d="M154 871q0 109 166 214q140 89 268 110q49 8 108 8q60 0 136 -8v133h-784l-100 128h1380l100 -128h-494v-235q-70 10 -146 10q-145 0 -317 -82q-201 -97 -201 -225q0 -78 196 -136q158 -48 265 -48q218 0 291 149l84 -102q-64 -150 -314 -150q-385 0 -603 286 q-35 46 -35 76z"/>
            <glyph d="M1107 885q0 -146 -145 -254q-134 -100 -285 -100q-289 0 -485 261q-37 49 -37 93q0 159 240 247q181 66 376 66q32 0 61 -3v133h-784l-100 128h1380l100 -128h-494v-204q62 -24 117 -97q56 -76 56 -142zM848 1097q-179 5 -352 -63q-221 -86 -221 -239q0 -72 129 -122 q105 -40 193 -40q155 0 288 103q106 82 106 207q0 65 -37 108.5t-106 45.5z"/>
            <glyph d="M936 1328v-242h-268q-132 0 -190 -14q-121 -27 -121 -115q0 -51 137 -51q28 0 54 3q71 5 213 18q16 2 30 2q102 0 189 -53q101 -62 101 -157q0 -108 -125 -167q-99 -47 -220 -47q-386 0 -658 297l20 24q180 -121 262 -159q143 -66 297 -66q97 0 214 26q161 36 161 97 q0 52 -70 83q-56 25 -115 25q-14 0 -27 -2q-176 -25 -258 -25q-97 0 -185 48q-103 57 -103 146q0 52 19 85q53 90 326 90h213v154h-784l-100 128h1380l100 -128h-492z"/>
            <glyph d="M896 664q-60 69 -60 149q0 70 70 70q62 0 140 -74t78 -135q0 -67 -173 -111q-132 -34 -231 -34q-352 0 -528 251q-38 54 -38 93q-1 136 206 239q181 90 357 90q30 0 54 -4q20 0 61 -3v133h-784l-100 128h1380l100 -128h-494v-235q-45 6 -107 6q-191 0 -350 -65 q-211 -85 -209 -247q1 -60 154 -112q131 -44 218 -44q143 0 256 33zM950 688q23 0 51 24.5t28 43.5q0 5 -4 9q-18 17 -42 17t-43 -17t-19 -41q0 -13 7.5 -24.5t21.5 -11.5z"/>
            <glyph horiz-adv-x="1856"
                   d="M876 968q-108 61 -325 61q-102 0 -183 -32q-108 -44 -108 -130q0 -176 216 -165q103 5 214 69l186 127v70zM1924 1328h-944v-309q88 69 195 69q170 0 301 -141.5t131 -312.5q0 -129 -132 -173l-102 127q118 35 118 167q0 208 -212 208q-162 0 -234 -88q-65 -80 -65 -245 v-261l-104 95v238q-176 -118 -290 -118q-132 0 -282 108q-160 115 -160 242q0 112 143 173q110 46 241 46q196 0 348 -131v306h-828l-100 128h1876z"/>
            <glyph d="M555 585q-358 12 -358 453v290h-149l-100 128h1380l96 -128h-504v-1177l-104 127v384q-109 -82 -261 -77zM301 979q0 -183 43 -244q50 -71 207 -67q265 7 265 320v340h-515v-349z"/>
            <glyph horiz-adv-x="372" d="M50 1328v-1331l-104 127v1204h-64l-100 128h558l100 -128h-390z"/>
            <glyph horiz-adv-x="1112" d="M947 0h-817v1456h817v-1456zM853 125v1203h-641v-1203h641z"/>
            <glyph horiz-adv-x="0" d="M-353 96l-496 -372l-40 53l495 372z"/>
            <glyph horiz-adv-x="1112" d="M947 0h-817v1456h817v-1456zM853 125v1203h-641v-1203h641z"/>
            <glyph horiz-adv-x="1112" d="M947 0h-817v1456h817v-1456zM853 125v1203h-641v-1203h641z"/>
            <glyph horiz-adv-x="0"
                   d="M-524 1951l-83 102l124 62l83 -102zM-738 2053l96 -73q76 -163 189 -163q112 0 146 174l83 -102q-36 -188 -160 -188q-184 0 -354 352z"/>
            <glyph horiz-adv-x="0"
                   d="M-208 1621l-83 102l77 78l84 -103zM-301 1390l-46 -23q-261 453 -261 545q0 110 70 184t179 74t208 -107q28 -30 140 -194l-38 -34q-106 139 -124 157q-73 75 -152 75q-85 0 -139 -62.5t-54 -149.5q0 -105 217 -465z"/>
            <glyph horiz-adv-x="0" d="M-589 84l-65 77l620 496l65 -77z"/>
            <glyph horiz-adv-x="0" d="M-353 96l-496 -372l-40 53l495 372z"/>
            <glyph horiz-adv-x="0" d="M-655 -186l-420 -301l-84 103l434 310l546 -382l-29 -31z"/>
            <glyph horiz-adv-x="0"
                   d="M-301 1390l-46 -23q-261 453 -261 545q0 110 70 184t179 74t208 -107q28 -30 140 -194l-38 -34q-106 139 -124 157q-73 75 -152 75q-85 0 -139 -62.5t-54 -149.5q0 -105 217 -465z"/>
            <glyph horiz-adv-x="0"
                   d="M22 1866l-22 -22q-189 235 -440 235q-118 0 -197 -62q-85 -67 -85 -182q0 -102 91 -214.5t200 -139.5l65 -121q-162 73 -308 225q-172 179 -172 335q0 135 83 210q80 72 217 72q165 0 325 -97q156 -94 243 -239z"/>
            <glyph horiz-adv-x="1816"
                   d="M1512 1328h-532v-544q127 -71 240 -71q170 0 292 110v505zM2052 1328h-436v-737q115 -133 115 -202q0 -77 -100 -135q-10 -5 -185 -80q-100 -43 -100 -85q0 -45 67 -77q57 -27 109 -27q122 0 161 139l102 -127q-34 -138 -165 -138q-127 0 -246 102q-124 107 -124 231 q0 62 99 109l182 71q99 43 99 96q0 57 -118 167q-89 -48 -197 -48q-173 0 -335 153v-743l-104 127v390l-517 -207l-102 127l619 248v97l-143 103q-79 47 -165 47q-98 0 -189 -52t-143 -136l-103 127q51 85 143 136.5t191 51.5q171 0 409 -220v492h-828l-100 128h2004z M1369 1835l-22 -22q-189 235 -440 235q-118 0 -197 -62q-85 -67 -85 -182q0 -102 91 -214.5t200 -139.5l65 -121q-162 73 -308 225q-172 179 -172 335q0 135 83 210q80 72 217 72q165 0 325 -97q156 -94 243 -239z"/>
            <glyph horiz-adv-x="1816"
                   d="M1512 1328h-532v-544q127 -71 240 -71q163 0 292 113v502zM2052 1328h-436v-735q120 -137 120 -224q0 -103 -79 -169q-54 -46 -171 -89q-32 -11 -77 -37q-4 -5 -4 -9q0 -13 8 -29q28 -58 96 -96q65 -36 131 -36q67 0 105 36l83 -103q-36 -27 -86 -34q-45 -6 -86 -6 q-105 0 -105 -45q0 -47 80 -87q69 -35 121 -35q84 0 117 62l83 -102q-33 -59 -118 -59q-186 0 -371 238q-31 40 -31 62q0 42 62 59q-54 40 -113 112q-71 87 -71 135q0 58 84 101q150 76 155 80q84 61 84 165q0 32 -121 152q-89 -48 -197 -48q-172 0 -335 154v-744l-104 127 v390l-517 -207l-102 127l619 248v96q-139 101 -142 103q-81 48 -166 48q-99 0 -189.5 -51.5t-142.5 -136.5l-103 127q52 85 143.5 136.5t190.5 51.5q180 0 409 -229v501h-828l-100 128h2004zM1370 1836l-22 -22q-189 235 -440 235q-118 0 -197 -62q-85 -67 -85 -182 q0 -102 91 -214.5t200 -139.5l65 -121q-162 73 -308 225q-172 179 -172 335q0 135 83 210q80 72 217 72q165 0 325 -97q156 -94 243 -239z"/>
            <glyph horiz-adv-x="1696"
                   d="M105 414l43 28l144 -180q143 -153 258 -153q144 0 269 113q128 117 128 261q0 110 -83 185q-73 67 -188 88q-144 -82 -254 -82q-25 0 -47 5l-102 127q84 81 222 81q38 0 76 -7q255 159 255 289q0 80 -81 149q-77 67 -159 67q-216 0 -273 -210l-102 127q56 205 253 205 q145 0 300 -130q161 -134 161 -276q0 -155 -156 -280q141 -94 314 -94q198 0 305 141v460h-370l-100 128h746l100 -128h-272v-1331l-104 127v527q-113 -51 -202 -51q-137 0 -278 76q83 -98 102 -128q50 -77 50 -153q0 -159 -132 -282t-293 -123q-155 0 -302 144 q-43 42 -228 280zM-39 -11l154 154l154 -154l-154 -154z"/>
            <glyph horiz-adv-x="2280"
                   d="M105 414l43 28l144 -180q143 -153 258 -153q144 0 269 113q128 117 128 261q0 110 -83 185q-73 67 -188 88q-144 -82 -254 -82q-25 0 -47 5l-102 127q84 81 222 81q38 0 76 -7q255 159 255 289q0 80 -81 149q-77 67 -159 67q-216 0 -273 -210l-102 127q56 205 253 205 q145 0 300 -130q161 -134 161 -276q0 -155 -156 -280q141 -94 314 -94q198 0 305 141v460h-370l-100 128h1334l100 -128h-392v-1331l-104 127v1204h-364v-1331l-104 127v527q-113 -51 -202 -51q-137 0 -278 76q83 -98 102 -128q50 -77 50 -153q0 -159 -132 -282t-293 -123 q-155 0 -302 144q-43 42 -228 280zM-39 -10l154 154l154 -154l-154 -154z"/>
            <glyph horiz-adv-x="1304"
                   d="M335 390q0 57 34 105q37 54 92 54q83 0 256 -217q88 41 150 101q78 75 78 151q0 49 -37.5 87.5t-86.5 38.5q-37 0 -111 -13t-111 -13q-111 0 -223.5 106.5t-112.5 216.5q0 165 317 165q30 0 162 -7v163h-694l-100 128h1324l100 -128h-526v-265q-29 0 -88 3.5t-88 3.5 q-315 0 -315 -150q0 -54 56 -96q52 -40 109 -40q37 0 109.5 13t109.5 13q108 0 201.5 -99t93.5 -208q0 -162 -230 -277l322 -392l-32 -29l-333 400q-141 -59 -219 -59q-94 0 -153 77q-54 70 -54 167zM416 313q0 -68 52 -68q80 0 206 63l-74 88q-60 68 -81 68q-46 0 -77 -54 q-26 -46 -26 -97zM-37 -12l154 154l154 -154l-154 -154z"/>
            <glyph horiz-adv-x="1304"
                   d="M416 313q0 -68 52 -68q80 0 206 63l-74 88q-60 68 -81 68q-46 0 -77 -54q-26 -46 -26 -97zM1234 1836l-22 -22q-189 235 -440 235q-118 0 -197 -62q-85 -67 -85 -182q0 -109 83 -212t190 -137h509l100 -128h-526v-265q-29 0 -88 3.5t-88 3.5q-315 0 -315 -150 q0 -54 56 -96q52 -40 109 -40q37 0 109.5 13t109.5 13q108 0 201.5 -99t93.5 -208q0 -162 -230 -277l322 -392l-32 -29l-333 400q-141 -59 -219 -59q-94 0 -153 77q-54 70 -54 167q0 57 34 105q37 54 92 54q83 0 256 -217q88 41 150 101q78 75 78 151q0 49 -37.5 87.5 t-86.5 38.5q-37 0 -111 -13t-111 -13q-111 0 -223.5 106.5t-112.5 216.5q0 165 317 165q30 0 162 -7v163h-694l-100 128h703q-285 232 -285 434q0 135 83 210q80 72 217 72q165 0 325 -97q156 -94 243 -239zM-38 -11l154 154l154 -154l-154 -154z"/>
            <glyph d="M1176 373q0 -161 -170 -276q-154 -104 -327 -104q-167 0 -334 123q-154 114 -250 287l35 24q85 -132 130 -177q132 -132 304 -132q170 0 325 96q176 109 176 264q0 106 -120 209q-117 99 -224 99q-90 0 -183 -31q45 -53 45 -62q0 -33 -67 -50q-46 -12 -95 -12 q-31 0 -53 12l-103 124v19q29 50 140 86q102 33 200 33q44 0 73 -8q165 119 165 222q0 80 -81 146q-76 63 -159 63h-553l-102 128h1380l100 -128h-647q161 -135 161 -277q0 -122 -102 -224q137 -85 229 -198q107 -133 107 -256zM-39 -10l154 154l154 -154l-154 -154z"/>
            <glyph horiz-adv-x="1736"
                   d="M731 1328q161 -135 161 -277q0 -53 -19 -101q95 45 169 45q210 0 388 -168q182 -171 182 -379q0 -145 -137 -201l-102 127q135 51 135 198q0 133 -116 220q-105 78 -237 78q-158 0 -303 -85q274 -199 274 -412q0 -161 -170 -276q-154 -104 -327 -104q-167 0 -334 123 q-154 114 -250 287l35 24q85 -132 130 -177q132 -132 304 -132q170 0 325 96q176 109 176 264q0 106 -120 209q-117 99 -224 99q-90 0 -183 -31q45 -53 45 -62q0 -33 -67 -50q-46 -12 -95 -12q-31 0 -53 12l-103 124v19q30 51 141 86q102 33 200 33q43 0 72 -8 q165 119 165 222q0 80 -81 146q-76 63 -159 63h-505l-100 128h1756l100 -128h-1073zM-38 -10l154 154l154 -154l-154 -154z"/>
            <glyph horiz-adv-x="1304"
                   d="M586 416q290 73 290 290v622h-580v-671q0 -43 105 -120q33 -25 185 -121zM1372 1328h-392v-623q0 -270 -278 -357q326 -179 343 -190q148 -94 148 -167q0 -77 -90 -118l-102 127q59 25 59 53q0 24 -225 141q-297 155 -418 235q-225 149 -225 250v649h-144l-100 128h1324z M338 2033l96 -73q76 -163 189 -163q112 0 146 174l83 -102q-36 -188 -160 -188q-184 0 -354 352zM820 1380h-14l7 12zM32 197l146 152l146 -152l-146 -151z"/>
            <glyph horiz-adv-x="1304"
                   d="M1372 1328h-392v-623q0 -270 -278 -357q326 -179 343 -190q148 -94 148 -167q0 -77 -90 -118l-102 127q59 25 59 53q0 24 -225 141q-297 155 -418 235q-225 149 -225 250v649h-144l-100 128h952q7 28 7 55q0 117 -124 172q-92 42 -226 42q-122 0 -223 83 q-105 86 -113 205l109 -84q-5 -13 -5 -26q0 -42 60 -63q43 -15 94 -15q22 0 65.5 3t65.5 3q127 0 244 -122q111 -117 133 -253h285zM876 706v622h-580v-671q0 -43 105 -120q33 -25 185 -121q290 73 290 290zM-38 -11l154 154l154 -154l-154 -154z"/>
            <glyph horiz-adv-x="1304"
                   d="M586 416q290 73 290 290v622h-580v-671q0 -43 105 -120q33 -25 185 -121zM1372 1328h-392v-623q0 -270 -278 -357q326 -179 343 -190q148 -94 148 -167q0 -77 -90 -118l-102 127q59 25 59 53q0 24 -225 141q-297 155 -418 235q-225 149 -225 250v649h-144l-100 128h1324z M-38 -11l154 154l154 -154l-154 -154z"/>
            <glyph horiz-adv-x="1304"
                   d="M1372 1328h-392v-623q0 -270 -278 -357q326 -179 343 -190q148 -94 148 -167q0 -77 -90 -118l-102 127q59 25 59 53q0 24 -225 141q-297 155 -418 235q-225 149 -225 250v649h-144l-100 128h943l-355 472q-39 52 -144 52h-210l-102 127h272q116 0 163 -54l99 -139 l337 -458h321zM876 706v622h-580v-671q0 -43 105 -120q33 -25 185 -121q290 73 290 290zM-38 -11l154 154l154 -154l-154 -154z"/>
            <glyph horiz-adv-x="2280"
                   d="M105 414l43 28l144 -180q143 -153 258 -153q144 0 269 113q128 117 128 261q0 110 -83 185q-73 67 -188 88q-144 -82 -254 -82q-25 0 -47 5l-102 127q84 81 222 81q38 0 76 -7q255 159 255 289q0 80 -81 149q-77 67 -159 67q-216 0 -273 -210l-102 127q56 205 253 205 q145 0 300 -130q161 -134 161 -276q0 -155 -156 -280q141 -94 314 -94q198 0 305 141v460h-370l-100 128h1334l100 -128h-392v-1331l-104 127v1204h-364v-1331l-104 127v527q-113 -51 -202 -51q-137 0 -278 76q83 -98 102 -128q50 -77 50 -153q0 -159 -132 -282t-293 -123 q-155 0 -302 144q-43 42 -228 280zM1038 2033l96 -73q76 -163 189 -163q112 0 146 174l83 -102q-36 -188 -160 -188q-184 0 -354 352zM1520 1380h-14l7 12zM-42 -11l154 154l154 -154l-154 -154z"/>
            <glyph horiz-adv-x="2280"
                   d="M105 414l43 28l144 -180q143 -153 258 -153q144 0 269 113q128 117 128 261q0 110 -83 185q-73 67 -188 88q-144 -82 -254 -82q-25 0 -47 5l-102 127q84 81 222 81q38 0 76 -7q255 159 255 289q0 80 -81 149q-77 67 -159 67q-216 0 -273 -210l-102 127q56 205 253 205 q145 0 300 -130q161 -134 161 -276q0 -155 -156 -280q141 -94 314 -94q198 0 305 141v460h-370l-100 128h898q7 27 7 55q0 117 -124 172q-92 42 -226 42q-122 0 -223 83q-105 86 -113 205l109 -84q-5 -13 -5 -26q0 -42 60 -63q43 -15 94 -15q22 0 65.5 3t65.5 3 q127 0 244 -122q112 -117 133 -253h349l100 -128h-392v-1331l-104 127v1204h-364v-1331l-104 127v527q-113 -51 -202 -51q-137 0 -278 76q83 -98 102 -128q50 -77 50 -153q0 -159 -132 -282t-293 -123q-155 0 -302 144q-43 42 -228 280zM-38 -11l154 154l154 -154l-154 -154 z"/>
            <glyph horiz-adv-x="2280"
                   d="M105 414l43 28l144 -180q143 -153 258 -153q144 0 269 113q128 117 128 261q0 110 -83 185q-73 67 -188 88q-144 -82 -254 -82q-25 0 -47 5l-102 127q84 81 222 81q38 0 76 -7q255 159 255 289q0 80 -81 149q-77 67 -159 67q-216 0 -273 -210l-102 127q56 205 253 205 q145 0 300 -130q161 -134 161 -276q0 -155 -156 -280q141 -94 314 -94q198 0 305 141v460h-370l-100 128h887l-355 472q-39 52 -144 52h-210l-102 127h272q107 0 162 -54l100 -139l337 -458h387l100 -128h-392v-1331l-104 127v1204h-364v-1331l-104 127v527 q-113 -51 -202 -51q-137 0 -278 76q83 -98 102 -128q50 -77 50 -153q0 -159 -132 -282t-293 -123q-155 0 -302 144q-43 42 -228 280zM-38 -10l154 154l154 -154l-154 -154z"/>
            <glyph horiz-adv-x="2280"
                   d="M1370 2031l-102 127h175q105 0 165 -45.5t97 -147.5l185 -509h362l100 -128h-392v-1331l-104 127v1204h-364v-1331l-104 127v527q-113 -51 -202 -51q-137 0 -278 76q83 -98 102 -128q50 -77 50 -153q0 -159 -132 -282t-293 -123q-155 0 -302 144q-43 42 -228 280l43 28 l144 -180q143 -153 258 -153q144 0 269 113q128 117 128 261q0 110 -83 185q-73 67 -188 88q-144 -82 -254 -82q-25 0 -47 5l-102 127q84 81 222 81q38 0 76 -7q255 159 255 289q0 80 -81 149q-77 67 -159 67q-216 0 -273 -210l-102 127q56 205 253 205q145 0 300 -130 q161 -134 161 -276q0 -155 -156 -280q141 -94 314 -94q198 0 305 141v460h-370l-100 128h735l-210 276q-40 52 -144 52h-138l-102 127h200q82 0 145 -54q39 -33 117 -139l193 -262h123l-198 491q-34 84 -156 84h-113zM-38 -10l154 154l154 -154l-154 -154z"/>
            <glyph horiz-adv-x="1112" d="M947 0h-817v1456h817v-1456zM853 125v1203h-641v-1203h641z"/>
            <glyph horiz-adv-x="1112" d="M947 0h-817v1456h817v-1456zM853 125v1203h-641v-1203h641z"/>
            <glyph horiz-adv-x="1856"
                   d="M48 1328l-100 128h188l100 -128h-188zM509 453q0 58 63 100q56 38 117 38q72 0 154 -84.5t82 -156.5q0 -98 -169 -154l260 -304l-40 -28l-276 319q-37 -7 -76 -7q-162 0 -324 134q-170 140 -170 298q0 164 163 266l303 157q164 87 164 192q0 79 -59 140.5t-137 61.5 q-65 0 -132 -62.5t-67 -127.5q0 -56 78 -57l102 -127q-108 11 -197 88q-97 84 -97 187q0 81 70.5 153.5t150.5 72.5q135 0 266 -153q127 -148 127 -286q0 -120 -161 -206l-299 -154q-162 -90 -162 -236q0 -104 95 -165q82 -52 192 -52q32 0 62 7q-83 94 -83 146zM778 477 q-49 0 -100 -37q-55 -41 -55 -87q0 -27 34 -27q46 0 101 37q60 39 60 82q0 32 -40 32zM1536 -3l-104 127v580q-248 -88 -369 -88q-103 0 -220 79q-62 42 -183 154l42 32q143 -138 258 -138q103 0 240 42l232 82v461h-427l-101 128h920l100 -128h-388v-1331z"/>
            <glyph horiz-adv-x="1856"
                   d="M525 400q-49 0 -101 -22q-64 -26 -64 -67q0 -40 70 -69q58 -24 107 -24q66 0 115 39q-78 143 -127 143zM1536 1328v-1331l-104 127v617h-625q86 -63 149 -151q74 -104 74 -193q0 -88 -71 -164q-61 -66 -152 -100q149 -300 149 -311t-13 -11q-22 0 -93 141l-86 172 q-39 -10 -88 -10q-138 0 -251 65q-133 78 -133 206q0 65 69 106q59 36 128 36q94 0 168 -110q63 -93 88 -144q88 64 112 89q59 59 59 124q0 55 -41 125q-25 42 -89 92q-19 16 -69 38l-102 127h817v460h-1384l-100 128h1876l100 -128h-388z"/>
            <glyph horiz-adv-x="1616"
                   d="M1192 734v594h-699q-82 0 -159 -41q-90 -48 -90 -119q0 -77 96 -142q88 -59 169 -59q118 0 192 87l102 -127q-73 -74 -166 -95q-53 -11 -193 -11q-128 0 -128 -60q0 -108 150 -191q139 -77 291 -77q134 0 251 62q126 66 184 179zM1296 1328v-1331l-104 127v359 q-140 -116 -339 -116q-213 0 -423 137q-222 145 -222 316q0 99 211 113q-109 27 -194 125q-88 101 -88 210q0 22 25 60h-114l-100 128h1636l100 -128h-388zM29 197l154 154l154 -154l-154 -154z"/>
            <glyph d="M1191 930l-97 -115l-84 102l103 115zM57 327l24 33q299 -197 484 -197q151 0 291 91q156 102 156 245q0 77 -51 136q-54 62 -129 62q-57 0 -164.5 -36.5t-164.5 -36.5q-117 0 -210 121q-87 113 -87 234q0 86 50 136t136 50h424v163h-768l-100 128h1380l100 -128h-508 v-265h-444q-77 0 -129 -40q-58 -44 -58 -119q0 -67 42 -121q46 -58 111 -58q52 0 150.5 34t150.5 34q134 0 243 -125q105 -120 105 -256q0 -154 -149 -258q-134 -93 -295 -93q-152 0 -307 78q-108 55 -283 188zM-39 -11l154 154l154 -154l-154 -154z"/>
            <glyph horiz-adv-x="1616"
                   d="M1296 1328v-1331l-104 127v406q-221 -178 -391 -178q-158 0 -309 99q-168 110 -168 259q0 82 116 166q5 4 188 113h-437l-103 127h744l102 -127l-278 -165q-205 -122 -205 -197q0 -65 91 -111q77 -39 151 -39q222 0 499 263v588h-1144l-100 128h1636l100 -128h-388z M28 198l154 154l154 -154l-154 -154z"/>
            <glyph horiz-adv-x="1616"
                   d="M873 24q-214 0 -411 150q-211 161 -211 368q0 140 170 217q-92 45 -188 166q-103 130 -103 222q0 56 41 104q16 18 86 77h-209l-100 128h1636l100 -128h-394v-237l6 -22q186 -187 186 -395q0 -284 -161 -463q-168 -187 -448 -187zM879 1008q0 78 48.5 127t126.5 49 q75 0 132 -28v172h-579q-112 0 -230 -84q-129 -91 -129 -198q0 -109 126 -184q111 -66 227 -66q48 0 90 10l102 -127q-39 -7 -81 -7q-33 0 -67 4q-289 -71 -289 -257q0 -129 149 -206q122 -63 264 -63q202 0 358 108q163 112 215 303q-168 77 -290 177q-173 140 -173 270z M1373 831q0 96 -60 162.5t-154 66.5q-63 0 -115 -40q-57 -43 -57 -104q0 -87 146 -176q19 -11 224 -111q16 98 16 202zM28 198l154 154l154 -154l-154 -154z"/>
            <glyph horiz-adv-x="1856"
                   d="M406 316q0 -72 69 -72q28 0 98 22q63 20 93 36l-71 95q-53 68 -76 68q-48 0 -82 -52q-31 -46 -31 -97zM1432 793v535h-578v-265q-28 0 -91.5 3.5t-92.5 3.5q-326 0 -326 -150q0 -55 60 -97q54 -39 112 -39q37 0 111.5 12.5t111.5 12.5q47 0 83 -16h610zM1536 1328v-1331 l-104 127v567h-504q102 -115 102 -194q0 -160 -239 -276l302 -399q-16 -16 -32 -30l-318 408q-114 -57 -203 -57q-79 0 -148 77.5t-69 157.5q0 63 28 118q34 68 90 68q70 0 157 -94q34 -37 115 -149q85 40 148 100q79 77 79 152q0 114 -245 114q-24 0 -58 -1t-41 -1 q-112 0 -222 100q-113 102 -113 213q0 175 308 175q32 0 91 -4t90 -4v163h-702l-100 128h1876l100 -128h-388zM28 199l154 154l154 -154l-154 -154z"/>
            <glyph horiz-adv-x="1616"
                   d="M1296 1328v-1331l-104 127v506q-43 -17 -64 -17q-55 0 -250 128q0 -152 -65 -246q-75 -109 -221 -109q-103 0 -346 131q-34 20 -106 54v38q271 -95 393 -95q252 0 252 304q0 108 -76 173q-72 61 -182 61q-184 0 -271 -125l-103 127q90 124 262 124q160 0 295 -110.5 t159 -267.5q92 -56 157 -56q46 0 166 61v523h-1144l-100 128h1636l100 -128h-388zM1251 1380h-14l7 12zM28 198l154 154l154 -154l-154 -154z"/>
            <glyph d="M252 540q0 -157 174 -269q156 -101 322 -101q295 0 377 307l102 -127q-79 -302 -374 -302q-231 0 -468 158q-264 176 -264 391q0 197 253 353q204 127 442 166v212h-768l-100 128h1380l100 -128h-508v-339q-199 -28 -411 -146q-257 -144 -257 -303zM875 1380h-14l7 12z M-38 -10l154 154l154 -154l-154 -154z"/>
            <glyph d="M137 587q0 187 253 350q197 127 426 179v212h-768l-100 128h1380l100 -128h-508v-318q153 -72 270 -244q120 -176 120 -341q0 -186 -173 -290q-145 -87 -344 -87q-239 0 -439 147q-217 161 -217 392zM838 944q-159 0 -370 -149q-225 -159 -225 -308q0 -152 156 -240 q130 -74 295 -74q200 0 343 87q170 104 170 292q0 135 -116 262q-119 130 -253 130zM875 1380h-14l7 12zM-38 -13l154 154l154 -154l-154 -154z"/>
            <glyph horiz-adv-x="1616"
                   d="M838 868v460h-520v-562q0 -219 208 -219q138 0 225 88.5t87 232.5zM1684 1328h-388v-1331l-104 127v1204h-252v-587q0 -140 -104 -233q-97 -87 -226 -87q-148 0 -271.5 121t-123.5 264v522h-167l-100 128h1636zM28 198l154 154l154 -154l-154 -154z"/>
            <glyph d="M1040 1328v-1331l-104 127v679h-352q-363 0 -363 -256q0 -136 103 -292q92 -140 217 -227l-43 -28q-147 104 -263 301q-122 208 -122 377q0 252 378 252h445v398h-888l-100 128h1386l100 -128h-394zM-62 118l154 154l154 -154l-154 -154z"/>
            <glyph horiz-adv-x="1616"
                   d="M307 1314q0 -54 80 -85q62 -24 127 -24q53 0 92 21q49 26 49 74q0 57 -60 97q-53 35 -113 35q-56 0 -111 -31q-64 -35 -64 -87zM1296 1328v-1331l-104 127v450q-187 -151 -388 -151q-297 0 -611 417q-32 43 -54 81q4 5 11 5q33 0 98 -11t98 -11q155 0 274 178 q-124 0 -266 81q-161 91 -161 206q0 82 64 133q59 48 143 48q159 0 272 -137q107 -129 107 -291q0 -131 -101 -236.5t-231 -105.5q-18 0 -55 3t-55 3q-10 0 -9 -10q10 -80 151 -156q129 -71 225 -71q294 0 488 241v538h-144l-100 128h626l100 -128h-378zM28 197l154 154 l154 -154l-154 -154z"/>
            <glyph d="M569 635q0 49 38.5 85.5t87.5 36.5q94 0 188 -106t94 -201q0 -99 -141 -149l217 -307l-41 -37l-238 334q-24 -3 -57 -3q-206 0 -383 125q-196 139 -196 336q0 137 116 252t253 115h309v212h-768l-100 128h1380l100 -128h-508v-339q-25 0 -75 1h-74q-208 0 -312 -43 q-145 -60 -203 -228q-14 -40 -14 -74q0 -121 125 -182q98 -48 233 -48q53 0 81 10l-72 98q-40 62 -40 112zM886 550q0 36 -27.5 62t-63.5 26q-38 0 -73 -35t-35 -73q0 -23 56 -99q143 38 143 119zM29 199l154 154l154 -154l-154 -154z"/>
            <glyph horiz-adv-x="1616"
                   d="M687 1432q0 69 -88 69q-112 0 -205 -116q87 -117 124 -117q49 0 109 58t60 106zM1296 1328v-1331l-104 127v299q-139 -118 -323 -118q-430 0 -610 369q-45 92 -45 135q0 111 152 124q-226 166 -226 317q0 118 126.5 246t244.5 128t203 -59q96 -67 96 -180 q0 -79 -73 -152.5t-152 -73.5q-55 0 -130 72q-63 61 -95 123q-110 -126 -110 -195q0 -103 131 -165q105 -50 222 -50q102 0 157 48l102 -127q-48 -44 -152 -44q-34 0 -101.5 9.5t-101.5 9.5q-70 0 -120 -26q-64 -33 -64 -96q0 -126 155 -212q132 -74 270 -74q139 0 258 62 q128 66 186 184v650h-144l-100 128h636l100 -128h-388zM27 199l154 154l154 -154l-154 -154z"/>
            <glyph d="M936 806v522h-580v-588q0 -185 182 -185q113 0 229.5 74.5t168.5 176.5zM1040 1328v-1331l-104 127v428q-137 -121 -295 -121q-146 0 -267.5 125.5t-121.5 270.5v501h-204l-100 128h1380l100 -128h-388zM995 1380h-14l7 12zM29 199l154 154l154 -154l-154 -154z"/>
            <glyph d="M739 585q120 64 126 167q6 100 -109 185.5t-242 75.5q-44 -3 -90 -29zM373 948q-35 2 -74.5 -68t-39.5 -132q0 -101 105 -162q87 -50 170 -44q37 2 74.5 4.5t69.5 15.5zM1040 1328v-1331l-104 127l1 430q-40 -63 -140 -99q-82 -29 -170 -30q-163 -2 -317 112 q-162 120 -166 269q-2 99 86 197q92 102 207 110q20 1 40 1q154 0 280 -79q123 -77 180 -204v497h-889l-100 128h1380l100 -128h-388zM29 199l154 154l154 -154l-154 -154z"/>
            <glyph horiz-adv-x="1616"
                   d="M404 366q-112 0 -213 108.5t-101 221.5q0 118 257 118q40 0 175 -8v581q0 71 -6 86t-40 15q-91 0 -156 -59q-68 -60 -68 -150q0 -65 44 -87q29 -14 102 -14l65 -115q-135 8 -225 79q-100 80 -100 212q0 94 72.5 177.5t165.5 83.5q118 0 188 -111q60 -95 60 -221v-477h568 v522h-144l-100 128h636l100 -128h-388v-1331l-104 127v555h-568q0 -146 -37 -216q-51 -97 -183 -97zM190 585q0 -42 58 -71q49 -24 97 -24q180 0 180 189h-149q-186 0 -186 -94zM29 199l154 154l154 -154l-154 -154z"/>
            <glyph horiz-adv-x="1616"
                   d="M1192 1328h-566v-522h566v522zM92 611q0 72 54 133.5t129 61.5h247v522h-474l-100 128h1636l100 -128h-388v-1331l-104 127v555h-566q0 -21 1.5 -64.5t1.5 -65.5q0 -253 -175 -253q-111 0 -234 101q-128 106 -128 214zM199 520q0 -49 48 -76q40 -23 92 -23q186 0 186 196 v62h-149q-61 0 -119 -49.5t-58 -109.5zM1251 1380h-14l7 12zM-40 162l154 154l154 -154l-154 -154z"/>
            <glyph horiz-adv-x="1616"
                   d="M1296 1328v-1330l-104 127v627l-478 -301l-102 127q97 54 97 130q0 94 -159 94q-111 0 -208 -73q-106 -78 -106 -185q0 -130 295 -435q37 -35 108 -109l-37 -24q-475 448 -475 666q0 124 102 208q97 80 223 80q127 0 218 -72q98 -77 101 -201l421 265v406h-1144l-100 128 h1636l100 -128h-388zM-17 136l154 154l154 -154l-154 -154z"/>
            <glyph d="M863 766q0 92 -118 165q-106 64 -205 64t-191.5 -88.5t-92.5 -187.5q0 -88 78 -135q64 -39 159 -39q119 0 231 52q139 65 139 169zM1040 1328v-1331l-104 127v435q-45 -67 -154 -106q-92 -33 -184 -33q-166 0 -306 116q-148 121 -148 284q0 116 100.5 210t217.5 94 q141 0 280 -100t194 -240v544h-888l-100 128h1380l100 -128h-388zM995 1380h-14l7 12zM27 200l154 154l154 -154l-154 -154z"/>
            <glyph horiz-adv-x="1616"
                   d="M423 415q-112 0 -207.5 99t-95.5 211q0 95 116 95q68 0 181 -136l72 -84q196 142 196 413q0 145 -39 252q-54 152 -170 152q-61 0 -120 -48q-62 -51 -62 -110q0 -45 47 -70q39 -21 88 -21q83 0 127 72l102 -127q-40 -69 -124 -69q-121 0 -234 99q-116 103 -116 222 q0 66 66 125.5t133 59.5q35 0 77 -19q166 -76 253 -271q74 -167 74 -372q0 -265 -198 -405l371 -425l-41 -30l-366 424q-65 -37 -130 -37zM223 624q0 -35 35 -61q32 -24 69 -24q55 0 118 34l-75 89q-26 30 -53 30q-94 0 -94 -68zM1296 1328v-1331l-104 127v1204h-286 l-100 128h778l100 -128h-388zM28 200l154 154l154 -154l-154 -154z"/>
            <glyph d="M298 719q0 -164 176 -164q189 0 344 142l-520 594v-572zM937 866v462h-609l524 -594q43 44 85 132zM1040 1328v-1331l-103 127v473q-170 -166 -362 -166q-142 0 -263 136q-118 133 -118 276v485h-146l-100 128h1380l100 -128h-388zM29 199l154 154l154 -154l-154 -154z "/>
            <glyph horiz-adv-x="1616"
                   d="M353 818q-173 0 -173 -103q0 -40 36.5 -70.5t83.5 -30.5q63 0 117.5 38.5t78.5 97.5q-44 40 -64 51q-31 17 -79 17zM1192 715v613h-579v-572q0 -77 99 -123q80 -38 165 -38q194 0 315 120zM1296 1328v-1331l-104 127v396q-82 -56 -208 -56q-110 0 -211 61l-183 130 q-116 -171 -218 -171q-16 0 -33 3l416 -504l-39 -33l-353 424q-150 181 -188 231q-91 124 -91 181q0 71 68 112q58 35 134 35q121 0 219 -142q12 82 12 145q0 71 -3 196t-3 196h-463l-100 128h1636l100 -128h-388zM-14 135l154 154l154 -154l-154 -154z"/>
            <glyph d="M313 502q0 -74 171 -251l228 -236l-34 -27l-271 280q-194 215 -194 296q0 119 121 183q-117 118 -117 250q0 152 185 152h414v179h-768l-100 128h1380l100 -128h-508v-281h-403q-94 0 -146 -51q-44 -43 -44 -106q0 -46 25.5 -79t67.5 -33q11 0 23 3l257 60q20 5 41 5 q111 0 212 -111.5t101 -229.5q0 -148 -196 -202l-84 102q199 48 199 183q0 152 -183 152q-37 0 -195.5 -37t-195.5 -53q-86 -38 -86 -148zM-30 148l154 154l154 -154l-154 -154z"/>
            <glyph horiz-adv-x="1856"
                   d="M48 1328l-100 128h188l100 -128h-188zM509 453q0 58 63 100q56 38 117 38q72 0 154 -84.5t82 -156.5q0 -98 -169 -154l260 -304l-40 -28l-276 319q-37 -7 -76 -7q-162 0 -324 134q-170 140 -170 298q0 164 163 266l303 157q164 87 164 192q0 79 -59 140.5t-137 61.5 q-65 0 -132 -62.5t-67 -127.5q0 -56 78 -57l102 -127q-108 11 -197 88q-97 84 -97 187q0 81 70.5 153.5t150.5 72.5q135 0 266 -153q127 -148 127 -286q0 -120 -161 -206l-299 -154q-162 -90 -162 -236q0 -104 95 -165q82 -52 192 -52q32 0 62 7q-83 94 -83 146zM778 477 q-49 0 -100 -37q-55 -41 -55 -87q0 -27 34 -27q46 0 101 37q60 39 60 82q0 32 -40 32zM1536 -3l-104 127v580q-248 -88 -369 -88q-103 0 -220 79q-62 42 -183 154l42 32q143 -138 258 -138q103 0 240 42l232 82v461h-427l-101 128h920l100 -128h-388v-1331zM-38 91l154 154 l154 -154l-154 -154z"/>
            <glyph horiz-adv-x="1856"
                   d="M525 400q-49 0 -101 -22q-64 -26 -64 -67q0 -40 70 -69q58 -24 107 -24q66 0 115 39q-78 143 -127 143zM1536 1328v-1331l-104 127v617h-625q86 -63 149 -151q74 -104 74 -193q0 -88 -71 -164q-61 -66 -152 -100q149 -300 149 -311t-13 -11q-22 0 -93 141l-86 172 q-39 -10 -88 -10q-138 0 -251 65q-133 78 -133 206q0 65 69 106q59 36 128 36q94 0 168 -110q63 -93 88 -144q88 64 112 89q59 59 59 124q0 55 -41 125q-25 42 -89 92q-19 16 -69 38l-102 127h817v460h-1384l-100 128h1876l100 -128h-388zM-33 1l154 154l154 -154l-154 -154 z"/>
            <glyph horiz-adv-x="1488"
                   d="M876 918q-119 89 -315 89q-109 0 -208 -76q-106 -81 -106 -186q0 -113 97 -172q87 -53 228 -53q110 0 200 56q104 65 104 168v174zM1626 1328h-646v-460h455l102 -127h-557v-744l-104 127v328q-79 -55 -201 -55q-198 0 -365 121q-177 128 -177 297q0 124 114 222 q109 94 235 94q218 0 394 -128v325h-828l-100 127h1576z"/>
            <glyph horiz-adv-x="1488"
                   d="M178 680q0 -65 63 -65q51 0 116 69q51 55 83 116q-36 6 -60 6q-67 0 -128 -30q-74 -36 -74 -96zM849 73q-167 0 -392 184q-187 153 -304 328q-83 126 -83 197q0 73 73 116q60 35 139 35q93 0 183 -96q40 112 40 319v172h-457l-100 128h1526l100 -128h-967l4 -308 q0 -172 -53 -320q-73 -202 -212 -202q-18 0 -36 4q251 -347 525 -347q168 0 341 113q160 104 256 257l42 -61q-74 -164 -250 -276q-180 -115 -375 -115zM1132 471q-141 0 -269.5 126.5t-128.5 267.5q0 121 121 211q112 83 237 83q189 0 326 -149l-25 -83q-94 100 -233 100 q-115 0 -210 -69q-105 -75 -105 -186q0 -76 85 -126q72 -42 154 -42q202 0 348 162l56 -142q-104 -78 -146 -100q-99 -53 -210 -53z"/>
            <glyph horiz-adv-x="928"
                   d="M451 296q-107 0 -233 108q-130 111 -130 216q0 73 84 135q79 58 155 58q103 0 194 -109v624h-473l-100 128h1001l102 -128h-426v-835q0 -197 -174 -197zM521 649q-54 39 -84 39q-69 0 -148 -58q-85 -63 -85 -129q0 -78 146 -78q171 0 171 183v43z"/>
            <glyph horiz-adv-x="1240"
                   d="M316 761q0 -103 173 -191q152 -77 268 -77q137 0 256 65q128 69 184 186l102 -127q-59 -119 -187 -187q-119 -63 -259 -63q-178 0 -400 137q-245 151 -245 316q0 99 211 113q-109 27 -194 125q-88 101 -88 210q0 22 25 60h-114l-100 128h1249l102 -128h-806 q-82 0 -159 -41q-90 -48 -90 -119q0 -77 96 -142q88 -59 169 -59q118 0 192 87l102 -127q-73 -74 -166 -95q-53 -11 -193 -11q-128 0 -128 -60z"/>
            <glyph d="M1191 930l-97 -115l-84 102l103 115zM57 327l24 33q299 -197 484 -197q151 0 291 91q156 102 156 245q0 77 -51 136q-54 62 -129 62q-57 0 -164.5 -36.5t-164.5 -36.5q-117 0 -210 121q-87 113 -87 234q0 86 50 136t136 50h424v163h-768l-100 128h1380l100 -128h-508 v-265h-444q-77 0 -129 -40q-58 -44 -58 -119q0 -67 42 -121q46 -58 111 -58q52 0 150.5 34t150.5 34q134 0 243 -125q105 -120 105 -256q0 -154 -149 -258q-134 -93 -295 -93q-152 0 -307 78q-108 55 -283 188zM1090 -677l-34 -35q-221 167 -266 197q-244 168 -339 168h-195 l-102 127h173q120 0 188 -42q114 -71 290 -202z"/>
            <glyph horiz-adv-x="1240"
                   d="M48 1328l-100 128h1275l75 -128h-1250zM324 710q0 82 116 166q5 4 188 113h-437l-103 127h744l102 -127l-278 -165q-205 -122 -205 -197q0 -65 91 -111q77 -39 151 -39q223 0 503 267l102 -127q-190 -152 -228 -177q-139 -88 -269 -88q-158 0 -309 99q-168 110 -168 259z "/>
            <glyph horiz-adv-x="1616"
                   d="M873 24q-214 0 -411 150q-211 161 -211 368q0 139 170 217q-90 44 -187 165q-104 131 -104 223q0 56 40 103q12 14 87 78h-209l-100 128h1636l100 -128h-1077q-113 0 -232 -85q-127 -92 -127 -197q0 -109 127 -185q111 -65 226 -65q49 0 90 10l102 -127q-39 -7 -81 -7 q-33 0 -67 4q-289 -71 -289 -257q0 -127 147 -205q122 -64 266 -64q203 0 358 108q163 112 215 303q-168 78 -291 177q-172 140 -172 270q0 78 48.5 127t126.5 49q165 0 301 -175q127 -165 127 -335q0 -255 -173 -449q-181 -201 -436 -201zM1373 831q0 96 -60 162.5 t-154 66.5q-63 0 -115 -40q-57 -43 -57 -104q0 -94 146 -176q25 -14 224 -111q16 98 16 202z"/>
            <glyph d="M48 1328l-100 128h1389l100 -128h-1389zM693 124q-149 0 -348 270q-162 220 -233 417l54 22q66 -174 198 -357q165 -228 287 -228q105 0 170 46q74 53 74 154q0 108 -88 217.5t-194 137.5l-102 127h801l102 -127h-701q117 -57 196 -164q86 -115 86 -237 q0 -125 -87.5 -201.5t-214.5 -76.5z"/>
            <glyph d="M1093 -178q-16 -16 -32 -30l-318 408q-114 -57 -203 -57q-79 0 -148 77.5t-69 157.5q0 63 28 118q34 68 90 68q70 0 157 -94q34 -37 115 -149q85 40 148 100q79 77 79 152q0 114 -245 114q-24 0 -58 -1t-41 -1q-112 0 -222 100q-113 102 -113 213q0 175 308 175 q32 0 91 -4t90 -4v163h-702l-100 128h1380l100 -128h-574v-265q-28 0 -91.5 3.5t-92.5 3.5q-326 0 -326 -150q0 -55 60 -97q54 -39 112 -39q37 0 111.5 12.5t111.5 12.5q47 0 83 -16h616l84 -102h-594q102 -115 102 -194q0 -160 -239 -276zM406 316q0 -72 69 -72q28 0 98 22 q63 20 93 36l-71 95q-53 68 -76 68q-48 0 -82 -52q-31 -46 -31 -97z"/>
            <glyph horiz-adv-x="1240"
                   d="M48 1328l-100 128h1256l100 -128h-1256zM779 818q0 108 -76 173q-72 61 -182 61q-181 0 -277 -138l-103 127q99 137 268 137q160 0 295 -110.5t159 -267.5q92 -56 157 -56q45 0 168 62l102 -127q-140 -66 -168 -66q-55 0 -250 128q0 -152 -65 -246q-75 -109 -221 -109 q-103 0 -346 131q-34 20 -106 54v38q271 -95 393 -95q252 0 252 304z"/>
            <glyph d="M252 540q0 -157 174 -269q156 -101 322 -101q295 0 377 307l102 -127q-79 -302 -374 -302q-231 0 -468 158q-264 176 -264 391q0 197 253 353q204 127 442 166v212h-768l-100 128h1380l100 -128h-508v-339q-199 -28 -411 -146q-257 -144 -257 -303zM875 1380h-14l7 12z M1360 -587l-34 -35q-221 167 -266 197q-244 168 -339 168h-195l-102 127h173q120 0 188 -42q114 -71 290 -202z"/>
            <glyph d="M137 587q0 187 253 350q197 127 426 179v212h-768l-100 128h1380l100 -128h-508v-318q153 -72 270 -244q120 -176 120 -341q0 -186 -173 -290q-145 -87 -344 -87q-239 0 -439 147q-217 161 -217 392zM838 944q-159 0 -370 -149q-225 -159 -225 -308q0 -152 156 -240 q130 -74 295 -74q200 0 343 87q170 104 170 292q0 135 -116 262q-119 130 -253 130zM875 1380h-14l7 12zM1360 -587l-34 -35q-221 167 -266 197q-244 168 -339 168h-195l-102 127h173q120 0 188 -42q114 -71 290 -202z"/>
            <glyph d="M57 327l24 33q299 -197 484 -197q151 0 291 91q156 102 156 245q0 77 -51 136q-54 62 -129 62q-57 0 -164.5 -36.5t-164.5 -36.5q-117 0 -210 121q-87 113 -87 234q0 86 50 136t136 50h424v163h-768l-100 128h1380l100 -128h-508v-265h-444q-77 0 -129 -40 q-58 -44 -58 -119q0 -67 42 -121q46 -58 111 -58q52 0 150.5 34t150.5 34q134 0 243 -125q105 -120 105 -256q0 -154 -149 -258q-134 -93 -295 -93q-271 0 -590 266zM1370 -587l-34 -35q-221 167 -266 197q-244 168 -339 168h-195l-102 127h173q120 0 188 -42 q114 -71 290 -202z"/>
            <glyph d="M946 611q108 0 201 -117q87 -111 87 -222q0 -122 -158 -181q-114 -43 -262 -43q-247 0 -450 133q-232 150 -232 384q0 194 252 364q204 138 432 187v212h-768l-100 128h1380l100 -128h-508v-339q-205 -40 -419 -178q-257 -167 -257 -338q0 -143 166 -229q136 -71 295 -71 q81 0 162 14q-115 136 -115 208q0 78 58.5 147t135.5 69zM849 310q0 -25 71 -111q210 53 210 197q0 90 -83 90q-66 0 -132 -56t-66 -120zM1360 -587l-34 -35q-221 167 -266 197q-244 168 -339 168h-195l-102 127h173q120 0 188 -42q114 -71 290 -202z"/>
            <glyph horiz-adv-x="1240"
                   d="M838 868v460h-520v-562q0 -219 208 -219q138 0 225 88.5t87 232.5zM1289 1328h-349v-587q0 -140 -104 -233q-97 -87 -226 -87q-148 0 -271.5 121t-123.5 264v522h-167l-100 128h1265z"/>
            <glyph horiz-adv-x="1012"
                   d="M48 1328l-100 128h1028l100 -128h-1028zM491 930h446l103 -127h-456q-363 0 -363 -256q0 -136 103 -292q92 -140 217 -227l-43 -28q-147 104 -263 301q-122 208 -122 377q0 252 378 252z"/>
            <glyph horiz-adv-x="1240"
                   d="M704 549q301 0 495 250l97 -127q-231 -249 -492 -249q-297 0 -611 417q-32 43 -54 81q4 5 11 5q33 0 98 -11t98 -11q155 0 274 178q-124 0 -266 81q-161 91 -161 206q0 82 64 133q59 48 143 48q159 0 272 -137q107 -129 107 -291q0 -131 -101 -236.5t-231 -105.5 q-18 0 -55 3t-55 3q-10 0 -9 -10q10 -80 151 -156q129 -71 225 -71zM307 1314q0 -54 80 -85q62 -24 127 -24q53 0 92 21q49 26 49 74q0 57 -60 97q-53 35 -113 35q-56 0 -111 -31q-64 -35 -64 -87z"/>
            <glyph d="M1360 -627l-34 -35q-221 167 -266 197q-244 168 -339 168h-195l-102 127h173q120 0 188 -42q114 -71 290 -202zM569 635q0 49 38.5 85.5t87.5 36.5q94 0 188 -106t94 -201q0 -99 -141 -149l217 -307l-41 -37l-238 334q-24 -3 -57 -3q-206 0 -383 125q-196 139 -196 336 q0 137 116 252t253 115h309v212h-768l-100 128h1380l100 -128h-508v-339q-25 0 -75 1h-74q-208 0 -312 -43q-145 -60 -203 -228q-14 -40 -14 -74q0 -121 125 -182q98 -48 233 -48q53 0 81 10l-72 98q-40 62 -40 112zM886 550q0 36 -27.5 62t-63.5 26q-38 0 -73 -35t-35 -73 q0 -23 56 -99q143 38 143 119z"/>
            <glyph horiz-adv-x="1240"
                   d="M214 809q0 111 152 124q-226 166 -226 317q0 118 126.5 246t244.5 128t203 -59q96 -67 96 -180q0 -79 -73 -152.5t-152 -73.5q-55 0 -130 72q-63 61 -95 123q-110 -126 -110 -195q0 -103 131 -165q105 -50 222 -50q102 0 157 48l102 -127q-48 -44 -152 -44 q-34 0 -101.5 9.5t-101.5 9.5q-70 0 -120 -26q-64 -33 -64 -96q0 -126 155 -212q132 -74 270 -74q141 0 260 63q129 67 186 187l102 -127q-57 -114 -178 -183q-117 -67 -249 -67q-430 0 -610 369q-45 92 -45 135zM687 1432q0 69 -88 69q-112 0 -205 -116q87 -117 124 -117 q49 0 109 58t60 106z"/>
            <glyph horiz-adv-x="1240"
                   d="M48 1328l-100 128h1268l100 -128h-1268zM524 803q77 -85 82 -92q44 -59 44 -110q0 -80 -55 -153q-60 -79 -137 -79q-87 0 -191 150q-97 142 -97 236q0 175 186 175h858l102 -127h-792zM542 680q0 30 -36 71l-52 52h-13q-169 0 -169 -163q0 -40 31 -88q34 -54 74 -54 q58 0 112 63q53 60 53 119z"/>
            <glyph horiz-adv-x="928"
                   d="M583 431q-146 0 -267 125t-121 271v501h-147l-100 128h955l100 -128h-705v-597q0 -176 182 -176q113 0 229 74.5t168 176.5l102 -127q-54 -105 -167 -176.5t-229 -71.5z"/>
            <glyph horiz-adv-x="1488"
                   d="M876 744q-114 -242 -318 -242q-260 0 -260 381v445h578v-584zM979 741h558l-102 127h-455v460h581l-100 128h-1513l100 -128h146v-448q0 -187 134 -341q140 -161 326 -161q132 0 222 90v-344l104 -127v744h-1z"/>
            <glyph horiz-adv-x="928"
                   d="M48 1328l-100 128h955l76 -128h-931zM961 639q0 -105 -120 -166q-97 -48 -214 -48q-152 0 -311 113q-172 123 -172 268q0 117 91.5 216t207.5 99q141 0 328 -170q190 -173 190 -312zM739 604q101 54 101 148q0 97 -119 169q-105 62 -209 62q-52 0 -86 -19zM383 942 q-124 -87 -124 -194q0 -187 275 -187q98 0 159 25z"/>
            <glyph horiz-adv-x="1240"
                   d="M436 366q-112 0 -213 108.5t-101 221.5q0 118 257 118q40 0 175 -8v581q0 71 -6 86t-40 15q-91 0 -156 -59q-68 -60 -68 -150q0 -65 44 -87q29 -14 102 -14l65 -115q-135 8 -225 79q-100 80 -100 212q0 94 72.5 177.5t165.5 83.5q118 0 188 -111q60 -95 60 -221v-477h580 l102 -127h-682q0 -146 -37 -216q-51 -97 -183 -97zM222 585q0 -42 58 -71q49 -24 97 -24q180 0 180 189h-149q-186 0 -186 -94z"/>
            </font>
</defs>
</svg>
