<?xml version="1.0" standalone="no"?>
<!DOCTYPE svg PUBLIC "-//W3C//DTD SVG 1.1//EN" "http://www.w3.org/Graphics/SVG/1.1/DTD/svg11.dtd" >
<svg xmlns="http://www.w3.org/2000/svg">
<metadata>
This is a custom SVG webfont generated by Font Squirrel.
Copyright   : Copyright C 20042008 dot colon All rights reserved
Designer    : arro
</metadata>
<defs>
<font id="webfontMOpf8Q4V" horiz-adv-x="1609" >
<font-face units-per-em="2048" ascent="1489" descent="-559" />
<missing-glyph horiz-adv-x="495" />
<glyph unicode=" "  horiz-adv-x="495" />
<glyph unicode="&#x09;" horiz-adv-x="495" />
<glyph unicode="&#xa0;" horiz-adv-x="495" />
<glyph unicode="!" horiz-adv-x="417" d="M96 92q0 47 34 80t79 33t79 -33t34 -80t-34 -79.5t-79 -32.5t-79 32.5t-34 79.5zM106 1190q-14 80 15 122t88 42t88 -42t14 -122q-35 -209 -47 -354q-23 -274 -22 -490h-66q0 215 -22 490q-13 145 -48 354z" />
<glyph unicode="&#x22;" horiz-adv-x="829" d="M74 1323q0 59 41 96t94 37q76 0 119 -48t43 -130q0 -158 -158 -283q-6 2 -17.5 13.5t-11.5 17.5q125 102 125 229q0 53 -35 54q-18 0 -38 -31q-29 -47 -74 -47q-37 0 -62.5 24.5t-25.5 67.5zM442 1323q0 59 41 96t95 37q76 0 118.5 -48t42.5 -130q0 -158 -157 -283 q-6 2 -17.5 13.5t-11.5 17.5q125 102 125 229q0 53 -35 54q-18 0 -39 -31q-29 -47 -74 -47q-37 0 -62.5 24.5t-25.5 67.5z" />
<glyph unicode="#" horiz-adv-x="931" d="M59 424l17 82q4 10 12 10h170q8 0 12 10l45 217q0 10 -8 11h-170q-12 0 -8 10l16 82q4 10 13 10h170q12 0 12 10l78 375q8 2 30.5 -3t26.5 -9l-76 -363q0 -10 9 -10h204q8 0 13 10l77 375q8 2 31 -3t27 -9l-76 -363q0 -10 8 -10h170q12 0 8 -10l-16 -82q-2 -10 -12 -10 h-170q-8 0 -13 -11l-45 -217q-4 -10 9 -10h170q10 0 8 -10l-17 -82q-4 -10 -12 -10h-170q-8 0 -12 -11l-78 -374q-8 -2 -30.5 3t-26.5 9l75 362q4 10 -8 11h-205q-10 0 -12 -11l-78 -374q-8 -2 -30.5 3t-26.5 9l76 362q0 10 -8 11h-170q-9 0 -9 10zM330 526q-4 -10 8 -10 h205q10 0 12 10l45 217q0 10 -8 11h-205q-10 0 -12 -11z" />
<glyph unicode="$" horiz-adv-x="976" d="M127 463q20 16 51 4q0 -35 4 -84q16 -168 75.5 -245t186.5 -85q10 0 11 10v486q-2 12 -11 16q-154 92 -230.5 182.5t-76.5 210.5q0 125 87 210t222 98q8 0 9 10v147q16 4 30 4q10 0 31 -4v-143q0 -10 10 -10q125 -4 236 -53q4 -2 12 -17q0 -139 12 -326q-20 -16 -49 -4 q0 41 -6 97q-23 227 -205 243q-6 0 -10 -10v-452q0 -8 8 -15q199 -106 272.5 -192t73.5 -213t-95 -220.5t-249 -109.5q-10 0 -10 -10v-150q-20 -4 -31 -4q-14 0 -30 4v146q0 6 -11 10q-143 0 -290 55q-12 4 -13 17q0 204 -14 397zM289 1022q0 -156 155 -262q4 -2 7.5 2 t3.5 8v428q0 10 -11 10q-155 -30 -155 -186zM516 66q0 -10 10 -11q184 33 185 211q0 154 -185 269q-10 6 -10 -9v-460z" />
<glyph unicode="%" horiz-adv-x="1638" d="M94 929.5q0 145.5 87 244t232.5 98.5t232.5 -98.5t87 -244t-87 -243.5t-232.5 -98t-232.5 98t-87 243.5zM250 930q0 -135 43 -210t121 -75t121 75t43 210t-43 209.5t-121 74.5t-121 -74.5t-43 -209.5zM358 -45l873 1393q8 2 27.5 -11.5t21.5 -19.5l-872 -1393 q-8 -2 -28 11.5t-22 19.5zM905 315.5q0 145.5 87 243.5t232.5 98t232.5 -98t87 -243.5t-87 -244t-232.5 -98.5t-232.5 98.5t-87 244zM1061 315.5q0 -135.5 43 -210t121 -74.5t121 74.5t43 210t-43 210t-121 74.5t-121 -74.5t-43 -210z" />
<glyph unicode="&#x26;" horiz-adv-x="1339" d="M88 367q0 145 93 232t237 110q4 2 3 6t-5 6q-115 20 -188.5 99t-73.5 194q0 152 120.5 246t321.5 94q166 0 291 -58q8 -2 12 -12q0 -121 14 -371q-20 -16 -49 -4q0 41 -6 97q-18 145 -88 213.5t-203 68.5q-104 0 -166.5 -72.5t-62.5 -175.5q0 -281 244 -280h12 q10 -6 10 -30.5t-10 -27.5h-23q-127 0 -206.5 -79.5t-79.5 -227.5q0 -162 89 -259t247 -97q190 0 273 113.5t83 353.5q0 80 -6 127q-10 49 -66 55q-57 4 -100 4q-6 2 -6 25.5t8 25.5q119 -6 256 -6q221 0 270 4q8 -2 9 -25.5t-7 -25.5q-49 0 -114 -4q-63 -4 -64 -68 q0 -340 -141.5 -492.5t-419.5 -152.5q-223 0 -365.5 107t-142.5 287z" />
<glyph unicode="'" horiz-adv-x="460" d="M74 1323q0 59 41 96t94 37q76 0 119 -48t43 -130q0 -158 -158 -283q-6 2 -17.5 13.5t-11.5 17.5q125 102 125 229q0 53 -35 54q-18 0 -38 -31q-29 -47 -74 -47q-37 0 -62.5 24.5t-25.5 67.5z" />
<glyph unicode="(" horiz-adv-x="675" d="M139 629q0 504 426 823q8 0 20.5 -12.5t12.5 -20.5q-147 -147 -225 -357t-78 -433t78 -433t225 -358q0 -8 -12.5 -20.5t-20.5 -12.5q-426 320 -426 824z" />
<glyph unicode=")" horiz-adv-x="675" d="M78 -162q147 147 225 357.5t78 433.5t-78 433t-225 357q0 8 12 20.5t21 12.5q426 -319 426 -823t-426 -824q-8 0 -20.5 12.5t-12.5 20.5z" />
<glyph unicode="*" horiz-adv-x="684" d="M61.5 1024q10.5 23 44.5 33q61 18 203 73q6 4 6 8.5t-6 8.5q-141 55 -203 74q-35 10 -45 32.5t5 44.5q35 57 88 5q63 -61 163 -140q6 -2 10.5 0t4.5 11q-14 119 -37 210q-8 35 6 54.5t41 19.5t41 -19.5t6 -54.5q-23 -92 -37 -210q0 -8 4 -10.5t11 -0.5q113 88 163 140 q53 53 88 -5q14 -23 4 -45t-44 -32q-61 -18 -203 -74q-6 -4 -6 -8t6 -9q141 -55 203 -73q35 -10 45 -33t-5 -45q-35 -57 -88 -4q-57 57 -163 137q-4 4 -11 2q-4 -2 -4 -10q16 -127 37 -211q8 -35 -6 -54.5t-41 -19.5t-41 19.5t-6 54.5q20 84 37 211q0 8 -4 10q-6 2 -11 -2 q-98 -72 -163 -137q-53 -53 -88 4q-15 22 -4.5 45z" />
<glyph unicode="+" horiz-adv-x="1081" d="M109 409.5q0 14.5 4 26.5h389q8 0 8 8v390q20 4 30.5 4t30.5 -4v-390q0 -8 9 -8h389q4 -12 4 -26.5t-4 -26.5h-389q-8 0 -9 -8v-389q-20 -4 -30.5 -4t-30.5 4v389q0 8 -8 8h-389q-4 12 -4 26.5z" />
<glyph unicode="," horiz-adv-x="419" d="M63 66q0 59 41 96t95 37q76 0 118.5 -48.5t42.5 -130.5q0 -158 -157 -282q-6 2 -17.5 13t-11.5 18q125 102 125 229q0 53 -35 53q-18 0 -39 -31q-29 -47 -73 -47q-37 0 -63 25t-26 68z" />
<glyph unicode="-" horiz-adv-x="649" d="M111 381q14 16 49 45q33 27 73 27h226q10 0 26 4q4 2 23 10q23 -10 31 -29q-14 -16 -50 -45q-33 -27 -73 -26h-226q-10 0 -26 -5q-4 -2 -23 -10q-22 11 -30 29z" />
<glyph unicode="." horiz-adv-x="450" d="M113 86q0 45 33.5 79t78.5 34t79 -34t34 -79t-34 -79t-79 -34t-78.5 34t-33.5 79z" />
<glyph unicode="/" horiz-adv-x="733" d="M8 -115l658 1467q8 0 31.5 -10.5t27.5 -16.5l-657 -1466q-8 0 -32 10t-28 16z" />
<glyph unicode="0" horiz-adv-x="1196" d="M109 635q0 287 135 475t354 188t354 -187t135 -474t-135 -475.5t-354 -188.5t-354 187.5t-135 474.5zM293 637q0 -293 83 -448.5t222 -155.5t222 154.5t83 447.5t-83 448.5t-222 155.5t-222 -154.5t-83 -447.5z" />
<glyph unicode="1" horiz-adv-x="882" d="M179 1183.5q-1 14.5 9 18.5q102 6 209 31q80 18 127 78q4 2 10.5 0t6.5 -6q-6 -47 -6 -107v-1100q0 -25 9 -34t34 -13q49 -4 75 -4q8 -2 7 -25.5t-9 -25.5q-74 6 -198.5 6t-198.5 -6q-8 2 -9 25.5t7 25.5q23 0 76 4q25 4 34 13.5t9 33.5v1024q0 35 -43 39q-45 4 -138 4 q-10 4 -11 18.5z" />
<glyph unicode="2" horiz-adv-x="1019" d="M30 4q-1 4 1 6q82 76 225 236q240 260 339 415.5t99 296.5q0 281 -229 281q-240 0 -270 -266q-6 -63 -7 -115q-29 -12 -53 2q8 158 8 338q0 8 13 16q168 84 340 84q174 0 278.5 -81.5t104.5 -219.5q0 -102 -53.5 -196t-174.5 -228l-381 -423q-6 -10 6 -15h310 q139 0 202.5 34t75.5 118q8 57 8 104q29 12 54 -2q-8 -158 -8 -379q0 -10 -9 -10h-874q-4 0 -5 4z" />
<glyph unicode="3" horiz-adv-x="1030" d="M94 461q25 14 53 2q0 -57 9 -115q23 -162 98.5 -235.5t232.5 -73.5q113 0 185.5 79t72.5 206q0 145 -83.5 230t-223.5 85h-22q-10 4 -10 28.5t10 28.5h33q90 0 167.5 80t77.5 203q0 260 -229 260q-233 0 -262 -246q-6 -63 -6 -114q-29 -12 -54 2q8 158 9 317q0 8 12 16 q158 84 332 84t278.5 -79.5t104.5 -210.5q0 -113 -77 -194t-206 -118q-8 -8 0 -12q158 -20 246 -108.5t88 -221.5q0 -162 -127 -271.5t-330 -109.5q-215 0 -358 97q-8 6 -13 18q0 215 -8 373z" />
<glyph unicode="4" horiz-adv-x="1038" d="M20.5 339q-2.5 5 -0.5 9l725 955q6 6 15.5 6t11.5 -6v-895q0 -12 12 -13h211q8 -10 6 -32.5t-12 -28.5h-205q-12 0 -12 -12v-224q0 -25 9.5 -34t33.5 -13q49 -4 76 -4q8 -2 7 -25.5t-9 -25.5q-74 6 -199 6t-198 -6q-8 2 -9.5 25.5t6.5 25.5q23 0 76 4q25 4 34 13.5 t9 33.5v224q0 12 -12 12h-571q-2 0 -4.5 5zM162 408q-4 -12 8 -13h426q12 0 12 13v573q0 2 -5 2t-7 -2z" />
<glyph unicode="5" horiz-adv-x="997" d="M86 420q25 14 53 2q0 -57 8 -115q39 -268 302 -268q121 0 194.5 84t73.5 233q0 164 -85 256.5t-253 92.5q-96 0 -211 -19q-10 0 -10 12q55 406 69 562q2 8 13 12h415q72 0 88 20q10 14 15 39q27 8 45 -2q-8 -82 -8 -182q0 -10 -9 -10h-485q-10 -2 -12 -13 q-27 -152 -43 -346q0 -12 10 -12q80 6 178 6q205 0 336 -99.5t131 -275.5q0 -178 -135 -301t-322 -123q-195 0 -338 97q-8 6 -12 18q0 174 -8 332z" />
<glyph unicode="6" horiz-adv-x="1064" d="M104 489q0 313 220.5 545t500.5 266q12 0 15.5 -25.5t-4.5 -27.5q-219 -51 -361.5 -204.5t-175.5 -376.5q0 -14 12 -11q131 59 209 84q45 12 76 13q166 0 271.5 -103.5t105.5 -251.5q0 -195 -126 -309.5t-319 -114.5q-190 0 -307 144.5t-117 371.5zM291 541 q0 -233 72.5 -370.5t205.5 -137.5q102 0 160.5 85t58.5 230.5t-70.5 227t-195.5 81.5q-35 0 -65 -10q-74 -23 -144 -65q-22 -14 -22 -41z" />
<glyph unicode="7" horiz-adv-x="937" d="M98 909q8 158 8 353q0 8 9 10h794q10 -2 11 -12l-537 -1293q-8 -8 -41 5.5t-35 23.5q285 657 471 1128q2 8 -8 13h-332q-137 0 -203.5 -30t-76.5 -101q-6 -35 -6 -99q-29 -12 -54 2z" />
<glyph unicode="8" horiz-adv-x="1064" d="M100 319q0 113 79 203t200 144q6 6 0 12q-90 53 -153.5 137t-63.5 178q0 127 111.5 216t279.5 89q150 0 254 -81.5t104 -200.5q0 -102 -63.5 -174t-175.5 -135q-4 -6 0 -11q147 -76 220 -157.5t73 -196.5q0 -152 -127 -257t-306 -105q-184 0 -308 90.5t-124 248.5z M264 356q0 -147 82 -231t207 -84q100 0 163.5 68.5t63.5 177.5q0 100 -73.5 180t-243.5 160q-6 4 -12 0q-98 -53 -142.5 -116t-44.5 -155zM346 1040q0 -178 234 -299q8 -2 14 0q80 47 117 102.5t37 149.5q0 111 -60.5 177.5t-159.5 66.5q-78 0 -130 -54.5t-52 -142.5z" />
<glyph unicode="9" horiz-adv-x="1064" d="M92 872q0 195 126 309.5t319 114.5q190 0 307 -144t117 -372q0 -313 -220.5 -544.5t-500.5 -266.5q-12 0 -15.5 25.5t4.5 28.5q219 51 361.5 204.5t175.5 376.5q-4 12 -12 10q-131 -59 -209 -84q-33 -12 -76 -12q-166 0 -271.5 103.5t-105.5 250.5zM276 921.5 q0 -145.5 71 -227.5t196 -82q35 0 65 11q74 23 144 65q23 16 22 41q0 233 -72.5 370.5t-205.5 137.5q-102 0 -161 -85t-59 -230.5z" />
<glyph unicode=":" horiz-adv-x="450" d="M113 86q0 45 33.5 79t78.5 34t79 -34t34 -79t-34 -79t-79 -34t-78.5 34t-33.5 79zM113 733q0 45 33.5 79t78.5 34t79 -34t34 -79t-34 -78.5t-79 -33.5t-78.5 33.5t-33.5 78.5z" />
<glyph unicode=";" horiz-adv-x="419" d="M63 66q0 59 41 96t95 37q76 0 118.5 -48.5t42.5 -130.5q0 -158 -157 -282q-6 2 -17.5 13t-11.5 18q125 102 125 229q0 53 -35 53q-18 0 -39 -31q-29 -47 -73 -47q-37 0 -63 25t-26 68zM92 733q0 45 34 79t79 34t78.5 -34t33.5 -79t-33.5 -78.5t-78.5 -33.5t-79 33.5 t-34 78.5z" />
<glyph unicode="&#x3c;" horiz-adv-x="1087" d="M92 428q0 27 4 35l848 422q8 -4 16.5 -21.5t8.5 -27.5l-801 -398q-4 -4 -4 -8t4 -6l803 -395q0 -8 -11.5 -30t-17.5 -26l-846 422q-4 6 -4 33z" />
<glyph unicode="=" horiz-adv-x="1118" d="M127 282.5q0 14.5 4 26.5h856q4 -12 4 -26.5t-4 -26.5h-856q-4 12 -4 26.5zM127 577.5q0 14.5 4 26.5h856q4 -12 4 -26.5t-4 -26.5h-856q-4 12 -4 26.5z" />
<glyph unicode="&#x3e;" horiz-adv-x="1087" d="M117 829q0 8 11 30t17 26l846 -422q4 -6 4 -33t-4 -35l-848 -422q-8 4 -16 21.5t-8 28.5l801 397q4 4 0 14z" />
<glyph unicode="?" horiz-adv-x="851" d="M66 985q6 125 6 272q0 12 12 21q145 76 305 76q152 0 258.5 -90t106.5 -236q0 -104 -51.5 -181t-167.5 -183q-57 -51 -86 -82t-55.5 -74t-35.5 -88q-6 -37 -6 -74h-65q-8 51 -8 143q0 109 51 188t170 187q66 57 89 102.5t23 108.5q0 92 -62.5 152.5t-164.5 60.5 q-117 0 -184.5 -47t-79.5 -162q-6 -55 -6 -96q-31 -12 -49 2zM207 92q0 47 33.5 80t79 33t79 -33t33.5 -80t-33.5 -79.5t-79 -32.5t-79 32.5t-33.5 79.5z" />
<glyph unicode="@" horiz-adv-x="1513" d="M90 391q0 313 222.5 524t539.5 211q246 0 407.5 -157.5t161.5 -382.5q0 -211 -119.5 -341t-300.5 -130q-184 0 -141 172q-4 4 -6 0q-129 -182 -262 -183q-70 0 -117 55.5t-47 143.5q0 203 174 377q104 104 223 104q84 0 125 -79q4 -6 6 0l17 77q2 8 12 9h105q10 0 10 -13 l-101 -420q-27 -102 -15.5 -146t69.5 -44q127 0 217 117.5t90 287.5q0 225 -145.5 362.5t-376.5 137.5q-279 0 -479.5 -196.5t-200.5 -473.5q0 -297 171 -457.5t447 -160.5q338 0 617 278q8 2 21 -12t11 -20q-305 -297 -659 -297q-297 0 -486.5 178t-189.5 479zM571 328 q0 -133 88 -133q109 0 203 172q25 43 51 159l19 74q10 47 -15.5 89t-80.5 42q-109 0 -187 -129t-78 -274z" />
<glyph unicode="A" horiz-adv-x="1353" d="M-23 21.5q0 23.5 7 25.5q51 0 108 4q41 2 62 51l508 1256q4 8 14 8t14 -8l506 -1252q23 -53 66 -55q57 -4 100 -4q5 -2 5 -19q0 -29 -7 -32q-123 6 -256 6q-137 0 -256 -6q-8 2 -8 25.5t6 25.5q59 0 117 4q41 3 41 27q0 6 -3 12q-39 109 -139 354q-6 14 -24 15h-435 q-14 0 -20 -15q-111 -268 -139 -354q-12 -37 32 -39q57 -4 117 -4q6 -2 5 -25.5t-7 -25.5q-123 6 -203 6q-82 0 -202 -6q-9 2 -9 25.5zM418 539q-2 -4 -2 -7q0 -8 14 -8h385q18 0 14 15l-198 501q-2 4 -6 4t-7 -4z" />
<glyph unicode="B" horiz-adv-x="1097" d="M33 21.5q0 23.5 6 25.5q59 0 117 4q25 2 34 11.5t9 35.5v1131q0 27 -9.5 35t-33.5 12q-57 4 -117 4q-6 2 -6 25.5t8 25.5q80 -4 246 -4h260q190 0 300.5 -78t110.5 -229q0 -125 -88 -211t-211 -102q-4 -2 -4 -5.5t4 -5.5q170 -14 262.5 -97t92.5 -220 q0 -176 -144.5 -277.5t-373.5 -101.5h-209q-166 0 -246 -4q-8 2 -8 25.5zM375 104q0 -39 43 -38h117q129 0 205.5 77.5t76.5 221.5q0 127 -80 208.5t-202 81.5h-144q-12 0 -16 -10v-541zM375 731q0 -10 16 -10h137q109 0 171.5 71.5t62.5 198.5q0 270 -240 271h-104 q-43 0 -43 -33v-498z" />
<glyph unicode="C" horiz-adv-x="1382" d="M104 645q0 319 196 514t521 195q252 0 404 -58q8 -2 12 -12q0 -121 14 -371q-20 -16 -49 -4q0 41 -6 97q-18 139 -121.5 210.5t-265.5 71.5q-229 0 -368.5 -157.5t-139.5 -442.5q0 -303 144.5 -476t381.5 -173q168 0 265.5 91t115.5 257q4 49 4 84q31 12 52 -4 q-14 -193 -15 -422q-4 -10 -12 -12q-188 -59 -436 -60q-311 0 -504 185.5t-193 486.5z" />
<glyph unicode="D" horiz-adv-x="1404" d="M33 21.5q0 23.5 6 25.5q59 0 117 4q25 2 34 11.5t9 35.5v1131q0 27 -9.5 35t-33.5 12q-57 4 -117 4q-6 2 -6 25.5t8 25.5q80 -4 246 -4h342q326 0 498.5 -175t172.5 -458q0 -317 -190 -505.5t-532 -188.5h-291q-166 0 -246 -4q-8 2 -8 25.5zM375 104q0 -39 43 -38h198 q225 0 356.5 155.5t131.5 450.5q0 264 -128 427t-372 163h-186q-43 0 -43 -33v-1125z" />
<glyph unicode="E" horiz-adv-x="1120" d="M33 21.5q0 23.5 6 25.5q59 0 117 4q25 2 34 11.5t9 35.5v1131q0 27 -9.5 35t-33.5 12q-57 4 -117 4q-6 2 -6 25.5t8 25.5q80 -4 246 -4h620q8 0 13 -10q0 -221 8 -379q-25 -14 -54 -2q0 51 -6 115q-12 109 -85.5 160t-227.5 51h-137q-43 0 -43 -45v-494q0 -16 16 -16h70 q125 0 174 46t59 148q2 20 2 45q8 4 28.5 4t25.5 -6q-6 -109 -6.5 -266.5t6.5 -265.5q-4 -6 -24.5 -6t-29.5 4q0 25 -2 45q-10 102 -59 148t-174 46h-70q-16 0 -16 -16v-522q0 -45 43 -45h211q156 0 239.5 69.5t100.5 181.5q8 57 8 115q29 12 53 -2q-8 -158 -8 -420 q-4 -10 -12 -10h-723q-166 0 -246 -4q-8 2 -8 25.5z" />
<glyph unicode="F" horiz-adv-x="892" d="M33 21.5q0 23.5 6 25.5q59 0 117 4q25 2 34 11.5t9 35.5v1131q0 27 -9.5 35t-33.5 12q-57 4 -117 4q-6 2 -6 25.5t8 25.5q80 -4 246 -4h620q8 0 13 -10q0 -221 8 -379q-25 -14 -54 -2q0 51 -6 115q-12 109 -85.5 160t-227.5 51h-137q-43 0 -43 -45v-494q0 -16 16 -16h70 q125 0 174 46t59 148q2 20 2 45q8 4 28.5 4t25.5 -6q-6 -109 -6.5 -266.5t6.5 -265.5q-4 -6 -24.5 -6t-29.5 4q0 25 -2 45q-10 102 -59 148t-174 46h-70q-16 0 -16 -16v-535q0 -27 9 -36t34 -11q57 -4 117 -4q6 -2 5 -25.5t-8 -25.5q-123 6 -245 6q-127 0 -246 -6 q-8 2 -8 25.5z" />
<glyph unicode="G" horiz-adv-x="1458" d="M104 645q0 319 196 514t521 195q252 0 404 -58q8 -2 12 -12q0 -121 14 -371q-20 -16 -49 -4q0 41 -6 97q-18 139 -121.5 210.5t-265.5 71.5q-229 0 -368.5 -157.5t-139.5 -442.5q0 -301 140.5 -475t365.5 -174q145 0 264 59q16 8 16 43v402q0 27 -9 35t-34 12 q-57 4 -116 4q-6 2 -6 25.5t8 25.5q119 -6 246 -6q135 0 200 6q7 -2 8 -32q0 -18 -6 -19q-23 0 -71 -4q-25 -4 -34 -13.5t-9 -33.5v-449q0 -23 -11 -24q-240 -96 -493 -97q-293 0 -474.5 185.5t-181.5 486.5z" />
<glyph unicode="H" horiz-adv-x="1503" d="M33 21.5q0 23.5 6 25.5q59 0 117 4q25 2 34 11.5t9 35.5v1131q0 27 -9.5 35t-33.5 12q-57 4 -117 4q-6 2 -6 25.5t8 25.5q119 -6 246 -6q123 0 245 6q6 -2 7.5 -25.5t-4.5 -25.5q-59 0 -117 -4q-25 -4 -34 -12.5t-9 -34.5v-502q0 -12 28 -12h697q29 0 28 12v502 q0 27 -9 35t-34 12q-57 4 -116 4q-6 2 -6 25.5t8 25.5q119 -6 246 -6q123 0 245 6q7 -2 8 -32q0 -18 -6 -19q-59 0 -116 -4q-25 -4 -34 -12.5t-9 -34.5v-1131q0 -27 9 -36t34 -11q57 -4 116 -4q5 -2 6 -19q0 -29 -8 -32q-123 6 -245 6q-127 0 -246 -6q-8 2 -8 25.5t6 25.5 q59 0 116 4q25 2 34 11.5t9 35.5v539q0 12 -28 12h-697q-29 0 -28 -12v-539q0 -27 9 -36t34 -11q57 -4 117 -4q6 -2 5 -25.5t-8 -25.5q-123 6 -245 6q-127 0 -246 -6q-8 2 -8 25.5z" />
<glyph unicode="I" horiz-adv-x="573" d="M33 21.5q0 23.5 6 25.5q59 0 117 4q25 2 34 11.5t9 35.5v1131q0 27 -9.5 35t-33.5 12q-57 4 -117 4q-6 2 -6 25.5t8 25.5q119 -6 246 -6q123 0 245 6q7 -2 8 -32q0 -18 -5 -19q-59 0 -117 -4q-25 -4 -34 -12.5t-9 -34.5v-1131q0 -27 9 -36t34 -11q57 -4 117 -4 q5 -2 5 -19q0 -29 -8 -32q-123 6 -245 6q-127 0 -246 -6q-8 2 -8 25.5z" />
<glyph unicode="J" horiz-adv-x="929" d="M35 442q20 16 51 4q0 -35 4 -84q18 -170 87 -246.5t200 -76.5q219 0 219 264v926q0 25 -9 34t-34 13q-53 4 -76 4q-8 2 -7 25.5t9 25.5q74 -6 205 -6t205 6q9 -2 9 -30q0 -19 -7 -21q-27 0 -76 -4q-25 -4 -34 -13.5t-9 -33.5v-893q0 -174 -111.5 -268.5t-289.5 -94.5 q-162 0 -310 56q-12 4 -12 16q0 204 -14 397z" />
<glyph unicode="K" horiz-adv-x="1263" d="M33 21.5q0 23.5 6 25.5q59 0 117 4q25 2 34 11.5t9 35.5v1131q0 27 -9.5 35t-33.5 12q-57 4 -117 4q-6 2 -6 25.5t8 25.5q119 -6 246 -6q123 0 245 6q6 -2 7.5 -25.5t-4.5 -25.5q-59 0 -117 -4q-25 -4 -34 -12.5t-9 -34.5v-524q0 -18 26 -19q45 0 76 37l451 514 q29 33 -15 39q-57 4 -116 4q-6 2 -6 25.5t8 25.5q119 -6 202.5 -6t206.5 6q6 -2 7.5 -25.5t-5.5 -25.5q-45 0 -102 -4q-41 -6 -84 -51q-225 -236 -457 -510q-4 -6 0 -15l541 -583q59 -63 104 -66q57 -4 105 -4q5 -2 5 -19q0 -29 -7 -32q-123 6 -283 6q-143 0 -262 -6 q-8 2 -8 25.5t6 25.5q51 0 109 4q41 2 16 31l-455 518q-18 23 -40.5 23t-22.5 -17v-508q0 -27 9 -36t34 -11q57 -4 117 -4q6 -2 5 -25.5t-8 -25.5q-123 6 -245 6q-127 0 -246 -6q-8 2 -8 25.5z" />
<glyph unicode="L" horiz-adv-x="1099" d="M33 21.5q0 23.5 6 25.5q59 0 117 4q25 2 34 11.5t9 35.5v1131q0 27 -9.5 35t-33.5 12q-57 4 -117 4q-6 2 -6 25.5t8 25.5q119 -6 246 -6q123 0 245 6q6 -2 7.5 -25.5t-4.5 -25.5q-59 0 -117 -4q-25 -4 -34 -12.5t-9 -34.5v-1118q0 -45 43 -45h211q156 0 239.5 69.5 t100.5 181.5q8 57 8 115q29 12 53 -2q-8 -158 -8 -420q-4 -10 -12 -10h-723q-166 0 -246 -4q-8 2 -8 25.5z" />
<glyph unicode="M" horiz-adv-x="1761" d="M14 21.5q0 23.5 6 25.5q59 0 117 4q23 2 31 11.5t10 35.5q25 664 35 1106q0 70 -41 72q-57 4 -117 4q-6 2 -6 25.5t8 25.5q80 -4 308 -4q14 0 16 -10q4 -16 8 -25q182 -401 469 -977q6 -4 10 0q268 537 469 979q4 12 4 22.5t11 10.5q250 0 331 4q6 -2 7.5 -25.5 t-4.5 -25.5q-59 0 -117 -4q-35 -4 -35 -47q4 -475 35 -1131q2 -43 49 -47q57 -4 108 -4q5 -2 6 -19q0 -29 -8 -32q-123 6 -247 6q-129 0 -248 -6q-8 2 -8 25.5t6 25.5q53 0 110 4q45 2 45 47q0 174 -26 1012q-4 10 -13 2q-375 -766 -514 -1081q-20 -20 -41 0 q-121 270 -485 1022q-2 2 -7 1t-5 -3q-20 -467 -29 -953q0 -43 47 -47q57 -4 109 -4q6 -2 5 -25.5t-7 -25.5q-123 6 -197 6q-76 0 -196 -6q-9 2 -9 25.5z" />
<glyph unicode="N" horiz-adv-x="1433" d="M31 1305.5q0 23.5 8 25.5q80 -4 246 -4h59q29 0 43 -20l793 -975q12 -8 12 6v891q0 27 -9 35t-34 12q-57 4 -117 4q-6 2 -6 25.5t8 25.5q121 -6 197 -6q74 0 196 6q7 -2 8 -32q0 -18 -5 -19q-59 0 -117 -4q-25 -4 -34 -12.5t-9 -34.5v-1256q0 -6 -12 -8q-3 -1 -5 0 q-7 0 -12 4l-930 1143q-8 8 -12 -4v-1010q0 -27 9 -36t34 -11q57 -4 117 -4q6 -2 5 -25.5t-7 -25.5q-123 6 -197 6q-76 0 -197 -6q-8 2 -8 25.5t6 25.5q59 0 117 4q25 2 34 11.5t9 35.5v1096q0 33 -19.5 55.5t-47.5 26.5q-57 4 -117 4q-6 2 -6 25.5z" />
<glyph unicode="O" d="M104 645q0 313 206 511t507 198q313 0 500.5 -189.5t187.5 -482.5q0 -313 -205.5 -511t-506.5 -198q-313 0 -501 189.5t-188 482.5zM301 688q0 -291 151.5 -470t385.5 -179q197 0 334 160.5t137 439.5q0 291 -151.5 470t-385.5 179q-197 0 -334 -160.5t-137 -439.5z" />
<glyph unicode="P" horiz-adv-x="968" d="M33 21.5q0 23.5 6 25.5q59 0 117 4q25 2 34 11.5t9 35.5v1131q0 27 -9.5 35t-33.5 12q-57 4 -117 4q-6 2 -6 25.5t8 25.5q80 -4 246 -4h260q193 0 302 -79t109 -228q0 -170 -120.5 -267.5t-302.5 -97.5h-144q-12 0 -16 -10v-547q0 -27 9 -36t34 -11q57 -4 117 -4 q6 -2 5 -25.5t-8 -25.5q-123 6 -245 6q-127 0 -246 -6q-8 2 -8 25.5zM375 731q0 -10 16 -10h137q109 0 171.5 71.5t62.5 198.5q0 270 -240 271h-104q-43 0 -43 -33v-498z" />
<glyph unicode="Q" d="M104 645q0 313 206 511t507 198q313 0 500.5 -189.5t187.5 -482.5q0 -283 -172 -475.5t-430 -224.5q-10 -2 -10 -15v-41q0 -170 75.5 -259t241.5 -124q8 -4 4 -21.5t-12 -17.5q-242 18 -363.5 107.5t-121.5 275.5v74q0 16 -15 19q-274 27 -436 210t-162 455zM301 688 q0 -291 151.5 -470t385.5 -179q197 0 334 160.5t137 439.5q0 291 -151.5 470t-385.5 179q-197 0 -334 -160.5t-137 -439.5z" />
<glyph unicode="R" horiz-adv-x="1222" d="M33 21.5q0 23.5 6 25.5q59 0 117 4q25 2 34 11.5t9 35.5v1131q0 27 -9.5 35t-33.5 12q-57 4 -117 4q-6 2 -6 25.5t8 25.5q80 -4 246 -4h260q190 0 300.5 -78t110.5 -229q0 -125 -88 -211t-211 -102q-4 -2 -4 -5.5t4 -5.5q90 -12 142.5 -74.5t122.5 -222.5 q92 -215 129 -280.5t77 -67.5q66 -4 115 -4q7 -2 7 -21q0 -28 -9 -30q-49 4 -317 4q-41 0 -49 27q-63 174 -156 391q-59 139 -99 188t-118 49h-113q-12 0 -16 -10v-547q0 -27 9 -36t34 -11q57 -4 117 -4q6 -2 5 -25.5t-8 -25.5q-123 6 -245 6q-127 0 -246 -6q-8 2 -8 25.5z M375 731q0 -10 16 -10h137q109 0 171.5 71.5t62.5 198.5q0 270 -240 271h-104q-43 0 -43 -33v-498z" />
<glyph unicode="S" horiz-adv-x="985" d="M109 442q20 16 51 4q0 -35 4 -84q18 -168 98 -245.5t221 -77.5q109 0 176.5 58.5t67.5 170.5q0 88 -61.5 160t-221.5 160q-164 90 -241.5 193.5t-77.5 240.5q0 141 110.5 236.5t280.5 95.5q152 0 268 -54q4 -2 13 -16q0 -137 12 -326q-20 -16 -49 -4q0 41 -6 97 q-23 238 -244 237q-109 0 -171.5 -58.5t-62.5 -152.5q0 -106 58.5 -179t200.5 -148q197 -106 274.5 -201.5t77.5 -222.5q0 -162 -118 -257.5t-304 -95.5q-182 0 -330 56q-12 4 -12 16q0 204 -14 397z" />
<glyph unicode="T" horiz-adv-x="1118" d="M33 946q8 158 8 371q4 10 12 10h1012q8 0 12 -10q0 -213 8 -371q-25 -14 -53 -2q0 51 -6 115q-12 109 -75.5 160t-196.5 51h-64q-43 0 -43 -45v-1127q0 -27 9.5 -36t33.5 -11q57 -4 117 -4q6 -2 5 -25.5t-7 -25.5q-123 6 -246 6q-125 0 -246 -6q-8 2 -8 25.5t6 25.5 q59 0 117 4q25 2 34 11.5t9 35.5v1127q0 45 -43 45h-63q-133 0 -197 -51.5t-76 -159.5q-6 -63 -6 -115q-28 -12 -53 2z" />
<glyph unicode="U" horiz-adv-x="1284" d="M16 1305.5q0 23.5 9 25.5q119 -6 245 -6q123 0 246 6q6 -2 7 -25.5t-5 -25.5q-59 0 -117 -4q-25 -4 -34 -12.5t-9 -34.5v-758q0 -233 89.5 -332.5t271.5 -99.5q147 0 243.5 103.5t96.5 287.5v799q0 27 -9.5 35t-33.5 12q-57 4 -117 4q-6 2 -6 25.5t8 25.5q119 -6 197 -6 q74 0 196 6q7 -2 8 -32q0 -18 -6 -19q-59 0 -116 -4q-25 -4 -34 -12.5t-9 -34.5v-778q0 -223 -122 -350.5t-353 -127.5q-223 0 -351.5 121t-128.5 342v793q0 27 -9 35t-34 12q-57 4 -116 4q-7 2 -7 25.5z" />
<glyph unicode="V" horiz-adv-x="1347" d="M-18 1305.5q0 23.5 8 25.5q121 -6 256 -6q133 0 256 6q6 -2 7 -25.5t-5 -25.5q-59 0 -117 -4q-41 -5 -41 -27q0 -5 2 -12q125 -334 373 -938q2 -4 6 -4t6 4l373 938q8 20 0 27.5t-33 11.5q-57 4 -117 4q-6 2 -6 25.5t8 25.5q119 -6 203 -6q80 0 203 6q7 -2 7 -32 q0 -18 -5 -19q-51 0 -109 -4q-41 -6 -61 -51l-508 -1256q-8 -10 -15 -10t-14 10l-505 1252q-20 49 -66 55q-57 4 -100 4q-6 2 -6 25.5z" />
<glyph unicode="W" horiz-adv-x="1921" d="M-18 1305.5q0 23.5 8 25.5q283 -6 686 -6q397 0 688 6q6 -2 7 -25.5t-5 -25.5q-51 0 -109 -4q-41 -6 -61 -51l-137 -328q-4 -10 0 -16l235 -582q2 -4 6.5 -4t6.5 4l372 938q8 20 0 27.5t-32 11.5q-57 4 -117 4q-6 2 -6 25.5t8 25.5q119 -6 203 -6q80 0 202 6q7 -2 8 -32 q0 -18 -6 -19q-51 0 -108 -4q-41 -6 -62 -51l-507 -1256q-8 -10 -15.5 -10t-13.5 10q-59 158 -268 678q-6 6 -11 0l-266 -678q-8 -10 -15 -10t-14 10l-505 1252q-20 49 -66 55q-57 4 -100 4q-6 2 -6 25.5zM348 1237q125 -334 373 -938q2 -4 6 -4t6 4l182 451q4 8 0 14 l-188 457q-20 49 -65 55q-57 4 -137.5 4t-137.5 -4q-41 -5 -41 -27q0 -6 2 -12zM922 1237l86 -231q2 -4 5 -4.5t7 4.5l86 231q3 7 3 14q0 23 -36 27q-14 2 -57 2q-41 0 -55 -2q-41 -5 -42 -29q1 -5 3 -12z" />
<glyph unicode="X" horiz-adv-x="1271" d="M-16 21.5q0 23.5 6 25.5q63 0 121 4q43 2 75 51l363 549q4 6 0 13l-344 546q-41 61 -86 66q-57 4 -92 4q-6 2 -6.5 25.5t8.5 25.5q119 -6 258 -6q119 0 241 6q6 -2 7.5 -25.5t-5.5 -25.5q-45 0 -102 -4q-45 -6 -31 -31l254 -403q10 -10 21 0l258 395q23 35 -17 39 q-57 4 -116 4q-6 2 -6 25.5t8 25.5q119 -6 202 -6q72 0 195 6q6 -2 7 -25.5t-5 -25.5q-39 0 -96 -4q-43 -6 -76 -51l-311 -469q-4 -6 0 -15q203 -340 399 -635q37 -53 74 -55q57 -4 117 -4q5 -2 5 -19q0 -29 -7 -32q-123 6 -279 6q-127 0 -248 -6q-8 2 -8 25.5t6 25.5 q51 0 109 4q45 2 24 39q-139 233 -301 479q-6 6 -12 0q-180 -264 -313 -479q-25 -35 22 -39q57 -4 107 -4q6 -2 5 -25.5t-7 -25.5q-123 6 -197 6q-100 0 -219 -6q-8 2 -8 25.5z" />
<glyph unicode="Y" horiz-adv-x="1271" d="M-14 1305.5q0 23.5 8 25.5q121 -6 258 -6q119 0 242 6q6 -2 7 -25.5t-5 -25.5q-45 0 -103 -4q-45 -6 -31 -31l328 -522q10 -10 21 0l323 514q20 33 -18 39q-57 4 -117 4q-6 2 -6 25.5t8 25.5q119 -6 203 -6q72 0 194 6q7 -2 8 -32q0 -18 -6 -19q-39 0 -96 -4 q-47 -6 -78 -51q-166 -246 -381 -607q-14 -25 -14 -43v-477q0 -27 9.5 -36t33.5 -11q57 -4 117 -4q6 -2 5 -25.5t-7 -25.5q-123 6 -246 6q-127 0 -246 -6q-8 2 -8 25.5t6 25.5q59 0 117 4q25 2 34 11.5t9 35.5v477q0 18 -14 46l-371 589q-41 61 -86 66q-57 4 -92 4 q-6 2 -6 25.5z" />
<glyph unicode="Z" horiz-adv-x="1282" d="M61 10l793 1237q2 12 -8 15h-357q-131 0 -195.5 -48.5t-76.5 -154.5q-6 -63 -6 -115q-29 -12 -53 2q8 158 8 371q4 10 12 10h920q12 -2 8 -14l-791 -1233q-4 -14 13 -14h479q281 0 303 233q6 66 6 115q29 12 53 -2q-8 -158 -8 -402q-4 -10 -12 -10h-1079q-13 0 -9 10z " />
<glyph unicode="[" horiz-adv-x="659" d="M201 -150v1557q0 14 12 14q123 -4 344 -4q4 -2 4 -19.5t-4 -19.5q-59 0 -149 -14q-72 -12 -72 -84v-1303q0 -72 72 -83q90 -14 149 -15q4 -2 4 -19.5t-4 -19.5q-98 0 -344 -4q-12 0 -12 14z" />
<glyph unicode="\" horiz-adv-x="733" d="M8 1325q4 6 27.5 16.5t32.5 10.5l657 -1467q-4 -6 -27.5 -16t-31.5 -10z" />
<glyph unicode="]" horiz-adv-x="659" d="M98 -140.5q0 17.5 4 19.5q59 0 150 15q72 14 72 83v1303q0 70 -72 84q-90 14 -150 14q-4 2 -4 19.5t4 19.5q219 0 344 4q8 0 13 -14v-1557q-4 -14 -13 -14q-250 4 -344 4q-4 2 -4 19.5z" />
<glyph unicode="^" horiz-adv-x="1191" d="M139 463l430 840q6 2 32 2t34 -2l418 -838q-2 -4 -24.5 -15.5t-29.5 -13.5l-395 797q-4 4 -8 0l-406 -797q-6 0 -27.5 11.5t-23.5 15.5z" />
<glyph unicode="_" horiz-adv-x="917" d="M-2 -143.5q0 14.5 4 26.5h913q4 -12 4.5 -26.5t-4.5 -26.5h-913q-4 12 -4 26.5z" />
<glyph unicode="`" horiz-adv-x="808" d="M195 1389q0 31 19 49t48 18q66 0 129 -102q84 -137 129 -191q-2 -8 -13 -18t-20 -12q-96 76 -188 129q-104 59 -104 127z" />
<glyph unicode="a" horiz-adv-x="933" d="M80 231q0 72 51 114t182 93q109 41 250 84q14 4 15 15v69q0 78 -39 126t-119 48q-168 0 -180 -100q-4 -29 -4 -105q-12 -14 -32 -14t-30 14q0 131 -4 170q0 8 4 13q135 88 309 88q133 0 195.5 -53.5t62.5 -171.5v-482q0 -68 52 -67q39 0 102 43q8 -2 15 -15q5 -8 5 -15 q0 -4 -2 -9q-57 -47 -141 -88q-29 -14 -67 -15q-100 0 -127 97q-4 8 -13 6q-117 -66 -147 -78q-68 -25 -117 -25q-92 0 -156.5 76t-64.5 182zM276 266q0 -84 34 -136t96 -52q59 0 120 37q35 20 43.5 50t8.5 91v174q0 8 -6 17q-4 8 -10 8h-3q-70 -14 -176.5 -57.5 t-106.5 -131.5z" />
<glyph unicode="b" horiz-adv-x="1101" d="M42 1390q0 19 9 23q182 10 293 25q8 0 12 -8v-680q0 -10 13 -7q88 43 174 78q68 25 127 25q152 0 255 -126t103 -286q0 -199 -144.5 -330t-328.5 -131q-82 0 -168 17q-63 12 -113 12q-125 0 -198 -6q-8 2 -9 25.5t7 25.5q23 0 76 4q25 4 34 13.5t9 33.5v1229q0 39 -43 39 q-47 0 -97 -6q-11 4 -11 30zM356 119q0 -45 43 -60q72 -23 146 -22q129 0 214 91t85 261q0 156 -79 254t-200 98q-39 0 -69 -10q-53 -16 -105 -47q-35 -20 -35 -104v-461z" />
<glyph unicode="c" horiz-adv-x="880" d="M74 397q0 203 137 326t338 123q150 0 242 -88q6 -6 6 -23q-4 -43 -4 -166q-10 -14 -32 -13t-30 13q0 72 -4 103q-12 109 -203 108q-121 0 -193.5 -93t-72.5 -261q0 -164 92 -266.5t209 -102.5q102 0 250 88q10 -2 18 -18q5 -11 6 -18q0 -4 -2 -7q-113 -70 -243 -112 q-49 -16 -99 -17q-166 0 -290.5 118t-124.5 306z" />
<glyph unicode="d" horiz-adv-x="1069" d="M74 385q0 199 144 330t329 131q88 0 184 -19q12 0 14 4v496q0 39 -43 39q-47 0 -96 -6q-10 4 -11 26.5t9 26.5q182 10 293 25q8 0 12 -8v-1332q0 -25 9.5 -34t33.5 -13q49 -4 76 -4q7 -2 7 -21q0 -28 -9 -30q-74 6 -199 6q-49 0 -75 -2q-6 0 -7 4v66q0 10 -12 6 q-88 -43 -174 -78q-59 -25 -127 -25q-152 0 -255 126t-103 286zM258 430q0 -156 79 -254t200 -98q39 0 69 10q53 16 105 47q35 20 34 105v460q0 45 -43 60q-72 23 -145 22q-129 0 -214 -91t-85 -261z" />
<glyph unicode="e" horiz-adv-x="899" d="M74 397q0 197 131 323t317 126q135 0 222 -84t87 -209q0 -25 -76.5 -33t-310.5 -8h-145q-25 0 -33 -14.5t-8 -65.5q0 -166 93 -270.5t208 -104.5q102 0 250 88q10 -2 18 -18q5 -11 6 -18q0 -4 -2 -7q-113 -70 -243 -112q-49 -16 -99 -17q-166 0 -290.5 118t-124.5 306z M276 579q0 -4 5 -6q6 -2 20 -2h164q197 0 197 17q0 88 -41 140t-117 52q-86 0 -147 -52q-31 -26 -56 -67.5t-25 -81.5z" />
<glyph unicode="f" horiz-adv-x="677" d="M76 805q68 0 117 6q25 2 24 29v188q0 113 25.5 180.5t89.5 137.5q117 123 268 122q109 0 170 -57q6 -6 6 -22q-4 -61 -4 -246q-10 -10 -30.5 -10t-30.5 10q0 123 -4 155q-10 109 -136 109q-86 0 -138 -53.5t-52 -145.5v-368q0 -20 25 -21h241q8 -10 6 -32.5t-12 -28.5 h-223q-37 0 -37 -31v-629q0 -25 9 -34t34 -13q49 -4 76 -4q8 -2 7 -25.5t-9 -25.5q-74 6 -199 6t-199 -6q-8 2 -9 25.5t7 25.5q23 0 76 4q25 4 34 13.5t9 33.5v633q0 20 -29 21q-55 0 -116 -4q-7 7 -8 25q1 25 12 32z" />
<glyph unicode="g" horiz-adv-x="935" d="M33 -254q0 16 16 29q90 72 191 176q14 8 29.5 -3t11.5 -26q-61 -68 -86 -115q-11 -24 -12 -54q0 -9 1 -18q4 -42 23 -77q72 -131 221 -131q88 0 197 82q115 88 114 205q0 80 -51 115.5t-168 35.5h-112q-115 0 -197 50.5t-82 138.5q0 18 14 24q57 29 121 78q4 4 0 8 q-68 37 -108.5 105.5t-40.5 154.5q0 139 99 230.5t249 91.5q98 0 184 -49q14 -10 37 -11h195q8 -10 6 -32.5t-13 -28.5h-120q-10 0 -14.5 -3t-0.5 -9q57 -72 58 -176q0 -139 -99.5 -230.5t-249.5 -91.5q-59 0 -114 18q-14 6 -19 -8q-6 -16 -6 -32q0 -29 38 -51.5t93 -22.5 h160q147 0 226 -60.5t79 -167.5q0 -131 -158 -268q-104 -92 -178.5 -127t-173.5 -35q-162 0 -261 79t-99 206zM279 543q0 -115 49 -188.5t133 -73.5q170 0 170 237q0 115 -49.5 188.5t-132.5 73.5q-170 1 -170 -237z" />
<glyph unicode="h" horiz-adv-x="1071" d="M42 1390q0 19 9 23q182 10 293 25q8 0 12 -8v-711q0 -14 13 -6q139 82 202 106q70 27 127 27q215 0 215 -289v-459q0 -41 43 -47q49 -4 76 -4q7 -2 7 -21v-4q-1 -24 -9 -26q-74 6 -198.5 6t-198.5 -6q-8 2 -9 25.5t7 25.5q23 0 76 4q25 4 34 13.5t9 33.5v381 q0 147 -33 204.5t-123 57.5q-37 0 -70 -12q-59 -25 -125 -70q-43 -31 -43 -110v-451q0 -25 9.5 -34t33.5 -13q49 -4 76 -4q8 -2 7 -25.5t-9 -25.5q-74 6 -198.5 6t-198.5 -6q-8 2 -9 25.5t7 25.5q23 0 76 4q25 4 34 13.5t9 33.5v1229q0 39 -43 39q-47 0 -97 -6q-11 4 -11 30 z" />
<glyph unicode="i" horiz-adv-x="538" d="M64 784q0 19 10 23q182 10 293 24q8 0 12 -8v-725q0 -25 9 -34t34 -13q49 -4 76 -4q7 -2 7 -21v-4q-1 -24 -9 -26q-74 6 -199 6t-199 -6q-8 2 -9 25.5t7 25.5q23 0 76 4q25 4 34 13.5t9 33.5v623q-2 39 -43 39q-47 0 -96 -6q-12 4 -12 30zM195 1094q0 43 29.5 72.5 t72.5 29.5t72.5 -29.5t29.5 -72.5t-29.5 -73t-72.5 -30t-72.5 30t-29.5 73z" />
<glyph unicode="j" horiz-adv-x="512" d="M-139 -438q4 70 4 219q14 14 33.5 14t27.5 -14q0 -113 4 -162q2 -41 40 -68.5t91 -27.5q72 0 112 50t40 148v1000q0 39 -43 39q-47 0 -96 -6q-10 4 -11.5 26.5t9.5 26.5q182 10 293 24q8 0 12 -8v-911q0 -209 -117 -334q-111 -117 -207 -117q-119 0 -186 78q-6 7 -6 23z M193 1094q0 43 29.5 72.5t72.5 29.5t72.5 -29.5t29.5 -72.5t-29.5 -73t-72.5 -30t-72.5 30t-29.5 73z" />
<glyph unicode="k" horiz-adv-x="1005" d="M42 1390q0 19 9 23q182 10 293 25q8 0 12 -8v-955q0 -12 31 -12q53 0 96 45q88 96 164 213q14 23 8 34t-39 13q-53 4 -67 4q-8 2 -7 25.5t9 25.5q74 -6 158 -6q121 0 194 6q8 -2 9 -25.5t-7 -25.5q-23 0 -67 -4q-63 -8 -97 -47q-90 -100 -174 -225q-6 -10 0 -21 q145 -190 320 -373q41 -45 78 -51q20 -4 77 -4q7 -2 8 -21v-4q-1 -24 -10 -26q-74 6 -211 6q-150 0 -223 -6q-8 2 -9 25.5t7 25.5q47 0 76 4q10 0 10 15q0 10 -16 32l-195 232q-59 68 -98 67q-25 0 -25 -10v-289q0 -25 9.5 -34t33.5 -13q49 -4 76 -4q8 -2 7 -25.5t-9 -25.5 q-74 6 -198.5 6t-198.5 -6q-8 2 -9 25.5t7 25.5q23 0 76 4q25 4 34 13.5t9 33.5v1229q0 39 -43 39q-47 0 -97 -6q-11 4 -11 30z" />
<glyph unicode="l" horiz-adv-x="516" d="M42 1390q0 19 9 23q182 10 293 25q8 0 12 -8v-1332q0 -25 9.5 -34t33.5 -13q49 -4 76 -4q7 -2 7 -21v-4q-1 -24 -9 -26q-74 6 -198.5 6t-198.5 -6q-8 2 -9 25.5t7 25.5q23 0 76 4q25 4 34 13.5t9 33.5v1229q0 39 -43 39q-47 0 -97 -6q-11 4 -11 30z" />
<glyph unicode="m" horiz-adv-x="1654" d="M64 784q0 19 10 23q182 10 293 24q8 0 12 -8v-104q0 -14 12 -6q139 82 203 106q70 27 127 27q158 0 197 -148q0 -4 8 0q143 90 225 121q70 27 127 27q215 0 215 -289v-459q0 -25 9 -34t34 -13q49 -4 76 -4q7 -2 7 -21v-4q-1 -24 -9 -26q-74 6 -199 6t-199 -6 q-8 2 -9 25.5t7 25.5q23 0 76 4q25 4 34 13.5t9 33.5v381q0 147 -32.5 204.5t-122.5 57.5q-35 0 -70 -12q-59 -25 -125 -70q-43 -31 -43 -110v-451q0 -25 9 -34t34 -13q49 -4 76 -4q8 -2 7 -25.5t-9 -25.5q-74 6 -199 6t-199 -6q-8 2 -9 25.5t7 25.5q23 0 76 4q25 4 34 13.5 t9 33.5v381q0 147 -32.5 204.5t-123.5 57.5q-35 0 -69 -12q-59 -25 -125 -70q-43 -31 -43 -110v-451q0 -25 9 -34t34 -13q49 -4 76 -4q8 -2 7 -25.5t-9 -25.5q-74 6 -199 6t-199 -6q-8 2 -9 25.5t7 25.5q23 0 76 4q25 4 34 13.5t9 33.5v623q-2 39 -43 39q-47 0 -96 -6 q-12 4 -12 30z" />
<glyph unicode="n" horiz-adv-x="1093" d="M64 784q0 19 10 23q182 10 293 24q8 0 12 -8v-104q0 -14 12 -6q139 82 203 106q70 27 127 27q215 0 215 -289v-459q0 -25 9 -34t34 -13q49 -4 76 -4q7 -2 7 -21v-4q-1 -24 -9 -26q-74 6 -199 6t-199 -6q-8 2 -9 25.5t7 25.5q23 0 76 4q25 4 34 13.5t9 33.5v381 q0 147 -32.5 204.5t-123.5 57.5q-35 0 -69 -12q-59 -25 -125 -70q-43 -31 -43 -110v-451q0 -25 9 -34t34 -13q49 -4 76 -4q8 -2 7 -25.5t-9 -25.5q-74 6 -199 6t-199 -6q-8 2 -9 25.5t7 25.5q23 0 76 4q25 4 34 13.5t9 33.5v623q0 39 -43 39q-47 0 -96 -6q-12 4 -12 30z" />
<glyph unicode="o" horiz-adv-x="1032" d="M74 397q0 203 129 326t321.5 123t313 -120t120.5 -304q0 -203 -129 -326t-321.5 -123t-313 120t-120.5 304zM258 426q0 -170 75 -278.5t199 -108.5q117 0 179.5 92t62.5 262t-74.5 278.5t-199.5 108.5q-117 0 -179.5 -92t-62.5 -262z" />
<glyph unicode="p" horiz-adv-x="1105" d="M46 784q0 19 9 23q182 10 293 24q8 0 12 -8v-73q0 -10 13 -7q88 43 174 78q68 25 127 25q152 0 255 -126t103 -286q0 -199 -144.5 -330t-328.5 -131q-88 0 -184 19q-12 0 -15 -4v-387q0 -25 9.5 -34t33.5 -13q49 -4 76 -5q8 -2 7 -25.5t-9 -25.5q-74 6 -198.5 6 t-198.5 -6q-8 2 -9 25.5t7 25.5q23 0 76 5q25 4 34 13t9 34v1120q0 39 -43 39q-47 0 -97 -6q-11 4 -11 30zM360 119q0 -45 43 -60q72 -23 146 -22q129 0 214 91t85 261q0 156 -79 254t-200 98q-39 0 -69 -10q-53 -16 -105 -47q-35 -20 -35 -104v-461z" />
<glyph unicode="q" horiz-adv-x="1085" d="M74 385q0 199 144 330t329 131q82 0 168 -17q63 -12 112 -12q125 0 199 6q9 -2 9 -30q0 -19 -7 -21q-27 0 -76 -4q-25 -4 -34 -13.5t-9 -33.5v-1120q0 -25 9.5 -34t33.5 -13q49 -4 76 -5q7 -2 7 -20q0 -28 -9 -31q-74 6 -199 6t-198 -6q-8 2 -9.5 25.5t7.5 25.5 q23 0 75 5q25 4 34 13t9 34v469q0 10 -12 6q-88 -43 -174 -78q-59 -25 -127 -25q-152 0 -255 126t-103 286zM258 430q0 -156 79 -254t200 -98q39 0 69 10q53 16 105 47q35 20 34 105v460q0 45 -43 60q-72 23 -145 22q-129 0 -214 -91t-85 -261z" />
<glyph unicode="r" horiz-adv-x="741" d="M64 784q0 19 10 23q182 10 293 24q8 0 12 -8v-71q2 -4 10 -4q49 45 92 71q41 27 105 27q68 0 116 -43q10 -10 11 -23q-4 -106 -4 -194q-10 -16 -33 -15.5t-29 15.5q0 45 -4 119q-6 72 -92 71q-55 0 -111 -49q-61 -53 -61 -125v-504q0 -25 9 -34t34 -13q49 -4 76 -4 q8 -2 7 -25.5t-9 -25.5q-74 6 -199 6t-199 -6q-8 2 -9 25.5t7 25.5q23 0 76 4q25 4 34 13.5t9 33.5v623q0 39 -43 39q-47 0 -96 -6q-12 4 -12 30z" />
<glyph unicode="s" horiz-adv-x="722" d="M94 74q4 78 4 168q14 14 33 14t29 -14q0 -63 4 -99q10 -98 180 -98q66 0 102.5 38t36.5 101q0 106 -141 170q-131 59 -181 116.5t-50 143.5q0 92 81.5 162t219.5 70q109 0 184 -51q6 -4 6 -23q-4 -66 -4 -154q-10 -14 -31.5 -14t-29.5 14q0 39 -5 97q-4 66 -122 65 q-57 0 -90 -37.5t-33 -95.5q0 -49 27.5 -80.5t95.5 -62.5q137 -61 192 -123t55 -156q0 -111 -87 -178t-230 -67q-154 0 -238 71q-8 9 -8 23z" />
<glyph unicode="t" horiz-adv-x="692" d="M55 807q68 0 117 6q25 2 25 29v184q4 8 12 10q12 2 139 25q8 0 12 -8v-211q0 -20 25 -21h242q8 -10 6 -32.5t-12 -28.5h-224q-37 0 -37 -31v-485q0 -104 31 -144.5t90 -40.5q53 0 146 39q10 -2 17 -19q5 -11 5 -19q0 -4 -2 -7q-61 -31 -141 -61q-39 -16 -98 -17 q-102 0 -156.5 62.5t-54.5 177.5v518q0 20 -29 21q-55 0 -117 -4q-7 7 -7 25q0 25 11 32z" />
<glyph unicode="u" horiz-adv-x="1060" d="M30 784q0 19 9 23q182 10 293 24q8 0 12 -8v-483q0 -147 33 -204.5t123 -57.5q37 0 69 12q51 20 125 70q43 31 43 110v451q0 39 -43 39q-47 0 -96 -6q-10 4 -11 26.5t9 26.5q182 10 293 24q8 0 12 -8v-725q0 -25 9.5 -34t33.5 -13q49 -4 76 -4q7 -2 7 -21v-4 q-1 -24 -9 -26q-74 6 -199 6q-49 0 -76 -2q-6 0 -6 4v96q0 12 -12 6q-119 -74 -203 -106q-70 -27 -127 -27q-215 0 -215 289v459q0 39 -43 39q-47 0 -96 -6q-11 4 -11 30z" />
<glyph unicode="v" horiz-adv-x="905" d="M-4 823q74 -6 198.5 -6t198.5 6q8 -2 9 -25.5t-7 -25.5q-33 0 -82 -4q-35 -2 -14 -47q55 -135 207 -475q4 -8 12 0q68 145 205 475q10 20 3 31.5t-38 15.5q-53 4 -76 4q-8 2 -7 25.5t9 25.5q74 -6 154 -6t154 6q8 -2 9 -25v-5q0 -19 -7 -21q-41 0 -66 -4q-37 -6 -55 -47 q-143 -307 -328 -752q-4 -4 -14 -4t-15 4q-133 328 -331 752q-12 27 -22.5 35t-31.5 12q-23 4 -67 4q-7 2 -7 21q0 28 9 30z" />
<glyph unicode="w" horiz-adv-x="1413" d="M-4 823q74 -6 198.5 -6t198.5 6q8 -2 9 -25.5t-7 -25.5q-33 0 -82 -4q-31 -2 -12 -47q88 -227 195 -467q8 -10 14 0q72 154 162 379q4 18 2 24q-12 33 -29 64q-20 39 -37 45q-4 2 -10 2q-23 4 -55 4q-8 2 -7 25.5t9 25.5q74 -6 176 -6q117 0 190 6q8 -2 9.5 -25.5 t-7.5 -25.5q-25 0 -73 -4q-31 -2 -13 -47q68 -174 195 -467q8 -8 12 0q127 285 197 467q3 9 3 17q0 26 -38 30q-41 4 -76 4q-8 2 -7 25.5t9 25.5q74 -6 154 -6t154 6q8 -2 9 -25v-5q0 -19 -7 -21q-41 0 -66 -4q-37 -6 -55 -47q-152 -334 -320 -752q-7 -7 -14 -7l-14 7 l-240 568q-10 10 -16 0q-92 -203 -242 -568q-6 -7 -13 -7t-14 7q-156 389 -319 752q-18 41 -58 47q-23 4 -67 4q-7 2 -7 21q0 28 9 30z" />
<glyph unicode="x" horiz-adv-x="923" d="M3 26q0 19 7 21q37 0 78 4q27 2 53 35l238 307q2 6 0 13q-100 150 -223 315q-31 41 -70 47q-23 4 -61 4q-8 2 -7.5 25.5t9.5 25.5q74 -6 206 -6q125 0 199 6q8 -2 9 -25.5t-7 -25.5q-31 0 -67 -4q-16 -1 -16 -14q0 -14 18 -41q61 -92 118 -168q4 -4 11 0l147 188 q25 33 -24 37q-20 2 -64 2q-8 2 -7 25.5t9 25.5q74 -6 154 -6t153 6q8 -2 9.5 -25.5t-7.5 -25.5q-20 0 -77 -4q-27 -2 -54 -35l-194 -250q-8 -8 0 -18l260 -367q31 -41 69 -47q23 -4 62 -4q7 -2 7 -21v-4q-1 -24 -9 -26q-74 6 -207 6q-125 0 -199 -6q-8 2 -9 25.5t7 25.5 q31 0 68 4q16 1 16 14q0 14 -18 41q-51 78 -156 220q-10 4 -14 0l-195 -250q-6 -6 -1 -15.5t24 -11.5q25 -2 74 -2q8 -2 7 -25.5t-10 -25.5q-74 6 -153.5 6t-153.5 -6q-9 2 -9 30z" />
<glyph unicode="y" horiz-adv-x="905" d="M-4 823q74 -6 198.5 -6t198.5 6q8 -2 9 -25.5t-7 -25.5q-33 0 -82 -4q-35 -2 -14 -47q55 -135 207 -475q4 -8 12 0q68 145 205 475q10 20 3 31.5t-38 15.5q-53 4 -76 4q-8 2 -7 25.5t9 25.5q74 -6 154 -6t154 6q8 -2 9 -25v-5q0 -19 -7 -21q-41 0 -66 -4q-37 -6 -55 -47 l-484 -1102q-70 -158 -194 -158q-68 0 -123 33q-6 6 -6 23q4 70 4 293q14 14 33.5 14t27.5 -14q0 -104 5 -154q4 -45 26.5 -75t61.5 -30q63 0 98 82q96 213 164 385q4 6 0 15q-168 403 -301 688q-12 27 -22.5 35t-31.5 12q-23 4 -67 4q-7 2 -7 21q0 28 9 30z" />
<glyph unicode="z" horiz-adv-x="882" d="M80 8q348 530 473 737q0 10 -8 13h-195q-129 0 -135 -51q-4 -33 -4 -156q-10 -10 -31.5 -10t-29.5 10q0 197 -5 258q0 14 13 14q55 -4 331 -4q209 0 291 4q10 0 6 -8l-475 -741q-4 -12 8 -13h271q150 0 155 52q4 66 5 155q10 10 30.5 10.5t30.5 -10.5q0 -197 4 -258 q0 -14 -12 -14q-94 4 -322 4q-309 0 -395 -4q-8 4 -6 12z" />
<glyph unicode="{" horiz-adv-x="653" d="M150 627.5q0 23.5 2 29.5q86 4 124.5 36t32.5 104q-18 231 -41 397q-14 100 65 177t206 81q4 -2 7 -23.5t-1 -27.5q-70 -12 -107 -59.5t-32 -102.5q25 -264 43 -379q29 -199 -162 -219q-4 -2 -4 -6t4 -6q94 -10 133 -71.5t24 -160.5q-18 -121 -43 -379q-4 -55 34 -102 t110 -59q4 -6 1 -28t-7 -24q-131 6 -208 81t-63 177q23 166 41 398q6 72 -32.5 102.5t-124.5 36.5q-2 4 -2 27.5z" />
<glyph unicode="|" horiz-adv-x="462" d="M201 -559v2048q16 4 30 4q10 0 31 -4v-2048q-20 -4 -31 -4q-14 0 -30 4z" />
<glyph unicode="}" horiz-adv-x="653" d="M107.5 -171.5q-3.5 21.5 1.5 28.5q70 12 106.5 59t32.5 102q-25 258 -43 379q-29 199 162 219q2 2 2 6.5t-2 6.5q-94 10 -133 71.5t-25 159.5q18 115 43 379q4 55 -34 102.5t-109 59.5q-4 6 -1 27.5t7 23.5q131 -6 207.5 -81t62.5 -177q-23 -166 -41 -397 q-6 -72 33 -102.5t125 -37.5q2 -4 2 -27.5t-2 -29.5q-86 -4 -125 -36t-33 -103q18 -231 41 -398q14 -100 -64.5 -176.5t-205.5 -81.5q-4 2 -7.5 23.5z" />
<glyph unicode="~" horiz-adv-x="1126" d="M106 426q102 143 259 143q115 0 233 -73q160 -98 240 -99q82 0 141 82q6 2 23.5 -10t17.5 -18q-102 -143 -258 -144q-115 0 -234 74q-94 57 -143 77.5t-96 20.5q-82 0 -142 -82q-6 -2 -23.5 10.5t-17.5 18.5z" />
<glyph unicode="&#xaa;" horiz-adv-x="933" d="M80 231q0 72 51 114t182 93q109 41 250 84q14 4 15 15v69q0 78 -39 126t-119 48q-168 0 -180 -100q-4 -29 -4 -105q-12 -14 -32 -14t-30 14q0 131 -4 170q0 8 4 13q135 88 309 88q133 0 195.5 -53.5t62.5 -171.5v-482q0 -68 52 -67q39 0 102 43q8 -2 15 -15q5 -8 5 -15 q0 -4 -2 -9q-57 -47 -141 -88q-29 -14 -67 -15q-100 0 -127 97q-4 8 -13 6q-117 -66 -147 -78q-68 -25 -117 -25q-92 0 -156.5 76t-64.5 182zM276 266q0 -84 34 -136t96 -52q59 0 120 37q35 20 43.5 50t8.5 91v174q0 8 -6 17q-4 8 -10 8h-3q-70 -14 -176.5 -57.5 t-106.5 -131.5z" />
<glyph unicode="&#xad;" horiz-adv-x="649" d="M111 381q14 16 49 45q33 27 73 27h226q10 0 26 4q4 2 23 10q23 -10 31 -29q-14 -16 -50 -45q-33 -27 -73 -26h-226q-10 0 -26 -5q-4 -2 -23 -10q-22 11 -30 29z" />
<glyph unicode="&#xb2;" horiz-adv-x="1019" d="M30 4q-1 4 1 6q82 76 225 236q240 260 339 415.5t99 296.5q0 281 -229 281q-240 0 -270 -266q-6 -63 -7 -115q-29 -12 -53 2q8 158 8 338q0 8 13 16q168 84 340 84q174 0 278.5 -81.5t104.5 -219.5q0 -102 -53.5 -196t-174.5 -228l-381 -423q-6 -10 6 -15h310 q139 0 202.5 34t75.5 118q8 57 8 104q29 12 54 -2q-8 -158 -8 -379q0 -10 -9 -10h-874q-4 0 -5 4z" />
<glyph unicode="&#xb3;" horiz-adv-x="1030" d="M94 461q25 14 53 2q0 -57 9 -115q23 -162 98.5 -235.5t232.5 -73.5q113 0 185.5 79t72.5 206q0 145 -83.5 230t-223.5 85h-22q-10 4 -10 28.5t10 28.5h33q90 0 167.5 80t77.5 203q0 260 -229 260q-233 0 -262 -246q-6 -63 -6 -114q-29 -12 -54 2q8 158 9 317q0 8 12 16 q158 84 332 84t278.5 -79.5t104.5 -210.5q0 -113 -77 -194t-206 -118q-8 -8 0 -12q158 -20 246 -108.5t88 -221.5q0 -162 -127 -271.5t-330 -109.5q-215 0 -358 97q-8 6 -13 18q0 215 -8 373z" />
<glyph unicode="&#xb9;" horiz-adv-x="882" d="M179 1183.5q-1 14.5 9 18.5q102 6 209 31q80 18 127 78q4 2 10.5 0t6.5 -6q-6 -47 -6 -107v-1100q0 -25 9 -34t34 -13q49 -4 75 -4q8 -2 7 -25.5t-9 -25.5q-74 6 -198.5 6t-198.5 -6q-8 2 -9 25.5t7 25.5q23 0 76 4q25 4 34 13.5t9 33.5v1024q0 35 -43 39q-45 4 -138 4 q-10 4 -11 18.5z" />
<glyph unicode="&#xba;" horiz-adv-x="1032" d="M74 397q0 203 129 326t321.5 123t313 -120t120.5 -304q0 -203 -129 -326t-321.5 -123t-313 120t-120.5 304zM258 426q0 -170 75 -278.5t199 -108.5q117 0 179.5 92t62.5 262t-74.5 278.5t-199.5 108.5q-117 0 -179.5 -92t-62.5 -262z" />
<glyph unicode="&#xc0;" horiz-adv-x="1353" d="M373 1745q0 31 19 49t48 18q66 0 129 -102q84 -137 129 -191q-2 -8 -13 -18t-20 -12q-96 76 -188 129q-104 59 -104 127zM-23 21.5q0 23.5 7 25.5q51 0 108 4q41 2 62 51l508 1256q4 8 14 8t14 -8l506 -1252q23 -53 66 -55q57 -4 100 -4q5 -2 5 -19q0 -29 -7 -32 q-123 6 -256 6q-137 0 -256 -6q-8 2 -8 25.5t6 25.5q59 0 117 4q41 3 41 27q0 6 -3 12q-39 109 -139 354q-6 14 -24 15h-435q-14 0 -20 -15q-111 -268 -139 -354q-12 -37 32 -39q57 -4 117 -4q6 -2 5 -25.5t-7 -25.5q-123 6 -203 6q-82 0 -202 -6q-9 2 -9 25.5zM418 539 q-2 -4 -2 -7q0 -8 14 -8h385q18 0 14 15l-198 501q-2 4 -6 4t-7 -4z" />
<glyph unicode="&#xc2;" horiz-adv-x="1353" d="M219 1516l430 840q6 2 32 2t34 -2l418 -838q-2 -4 -24.5 -15.5t-29.5 -13.5l-395 797q-4 4 -8 0l-406 -797q-6 0 -27.5 11.5t-23.5 15.5zM-23 21.5q0 23.5 7 25.5q51 0 108 4q41 2 62 51l508 1256q4 8 14 8t14 -8l506 -1252q23 -53 66 -55q57 -4 100 -4q5 -2 5 -19 q0 -29 -7 -32q-123 6 -256 6q-137 0 -256 -6q-8 2 -8 25.5t6 25.5q59 0 117 4q41 3 41 27q0 6 -3 12q-39 109 -139 354q-6 14 -24 15h-435q-14 0 -20 -15q-111 -268 -139 -354q-12 -37 32 -39q57 -4 117 -4q6 -2 5 -25.5t-7 -25.5q-123 6 -203 6q-82 0 -202 -6q-9 2 -9 25.5 zM418 539q-2 -4 -2 -7q0 -8 14 -8h385q18 0 14 15l-198 501q-2 4 -6 4t-7 -4z" />
<glyph unicode="&#xc3;" horiz-adv-x="1353" d="M219 1608q102 143 259 143q115 0 233 -73q160 -98 240 -99q82 0 141 82q6 2 23.5 -10t17.5 -18q-102 -143 -258 -144q-115 0 -234 74q-94 57 -143 77.5t-96 20.5q-82 0 -142 -82q-6 -2 -23.5 10.5t-17.5 18.5zM-23 21.5q0 23.5 7 25.5q51 0 108 4q41 2 62 51l508 1256 q4 8 14 8t14 -8l506 -1252q23 -53 66 -55q57 -4 100 -4q5 -2 5 -19q0 -29 -7 -32q-123 6 -256 6q-137 0 -256 -6q-8 2 -8 25.5t6 25.5q59 0 117 4q41 3 41 27q0 6 -3 12q-39 109 -139 354q-6 14 -24 15h-435q-14 0 -20 -15q-111 -268 -139 -354q-12 -37 32 -39q57 -4 117 -4 q6 -2 5 -25.5t-7 -25.5q-123 6 -203 6q-82 0 -202 -6q-9 2 -9 25.5zM418 539q-2 -4 -2 -7q0 -8 14 -8h385q18 0 14 15l-198 501q-2 4 -6 4t-7 -4z" />
<glyph unicode="&#xc8;" horiz-adv-x="1120" d="M-262 1733q0 31 19 49t48 18q66 0 129 -102q84 -137 129 -191q-2 -8 -13 -18t-20 -12q-96 76 -188 129q-104 59 -104 127zM33 21.5q0 23.5 6 25.5q59 0 117 4q25 2 34 11.5t9 35.5v1131q0 27 -9.5 35t-33.5 12q-57 4 -117 4q-6 2 -6 25.5t8 25.5q80 -4 246 -4h620 q8 0 13 -10q0 -221 8 -379q-25 -14 -54 -2q0 51 -6 115q-12 109 -85.5 160t-227.5 51h-137q-43 0 -43 -45v-494q0 -16 16 -16h70q125 0 174 46t59 148q2 20 2 45q8 4 28.5 4t25.5 -6q-6 -109 -6.5 -266.5t6.5 -265.5q-4 -6 -24.5 -6t-29.5 4q0 25 -2 45q-10 102 -59 148 t-174 46h-70q-16 0 -16 -16v-522q0 -45 43 -45h211q156 0 239.5 69.5t100.5 181.5q8 57 8 115q29 12 53 -2q-8 -158 -8 -420q-4 -10 -12 -10h-723q-166 0 -246 -4q-8 2 -8 25.5z" />
<glyph unicode="&#xca;" horiz-adv-x="1120" d="M-416 1503l430 840q6 2 32 2t34 -2l418 -838q-2 -4 -24.5 -15.5t-29.5 -13.5l-395 797q-4 4 -8 0l-406 -797q-6 0 -27.5 11.5t-23.5 15.5zM33 21.5q0 23.5 6 25.5q59 0 117 4q25 2 34 11.5t9 35.5v1131q0 27 -9.5 35t-33.5 12q-57 4 -117 4q-6 2 -6 25.5t8 25.5 q80 -4 246 -4h620q8 0 13 -10q0 -221 8 -379q-25 -14 -54 -2q0 51 -6 115q-12 109 -85.5 160t-227.5 51h-137q-43 0 -43 -45v-494q0 -16 16 -16h70q125 0 174 46t59 148q2 20 2 45q8 4 28.5 4t25.5 -6q-6 -109 -6.5 -266.5t6.5 -265.5q-4 -6 -24.5 -6t-29.5 4q0 25 -2 45 q-10 102 -59 148t-174 46h-70q-16 0 -16 -16v-522q0 -45 43 -45h211q156 0 239.5 69.5t100.5 181.5q8 57 8 115q29 12 53 -2q-8 -158 -8 -420q-4 -10 -12 -10h-723q-166 0 -246 -4q-8 2 -8 25.5z" />
<glyph unicode="&#xcc;" horiz-adv-x="573" d="M-16 1733q0 31 19 49t48 18q66 0 129 -102q84 -137 129 -191q-2 -8 -13 -18t-20 -12q-96 76 -188 129q-104 59 -104 127zM33 21.5q0 23.5 6 25.5q59 0 117 4q25 2 34 11.5t9 35.5v1131q0 27 -9.5 35t-33.5 12q-57 4 -117 4q-6 2 -6 25.5t8 25.5q119 -6 246 -6 q123 0 245 6q7 -2 8 -32q0 -18 -5 -19q-59 0 -117 -4q-25 -4 -34 -12.5t-9 -34.5v-1131q0 -27 9 -36t34 -11q57 -4 117 -4q5 -2 5 -19q0 -29 -8 -32q-123 6 -245 6q-127 0 -246 -6q-8 2 -8 25.5z" />
<glyph unicode="&#xce;" horiz-adv-x="573" d="M-170 1503l430 840q6 2 32 2t34 -2l418 -838q-2 -4 -24.5 -15.5t-29.5 -13.5l-395 797q-4 4 -8 0l-406 -797q-6 0 -27.5 11.5t-23.5 15.5zM33 21.5q0 23.5 6 25.5q59 0 117 4q25 2 34 11.5t9 35.5v1131q0 27 -9.5 35t-33.5 12q-57 4 -117 4q-6 2 -6 25.5t8 25.5 q119 -6 246 -6q123 0 245 6q7 -2 8 -32q0 -18 -5 -19q-59 0 -117 -4q-25 -4 -34 -12.5t-9 -34.5v-1131q0 -27 9 -36t34 -11q57 -4 117 -4q5 -2 5 -19q0 -29 -8 -32q-123 6 -245 6q-127 0 -246 -6q-8 2 -8 25.5z" />
<glyph unicode="&#xd1;" horiz-adv-x="1433" d="M276 1595q102 143 259 143q115 0 233 -73q160 -98 240 -99q82 0 141 82q6 2 23.5 -10t17.5 -18q-102 -143 -258 -144q-115 0 -234 74q-94 57 -143 77.5t-96 20.5q-82 0 -142 -82q-6 -2 -23.5 10.5t-17.5 18.5zM31 1305.5q0 23.5 8 25.5q80 -4 246 -4h59q29 0 43 -20 l793 -975q12 -8 12 6v891q0 27 -9 35t-34 12q-57 4 -117 4q-6 2 -6 25.5t8 25.5q121 -6 197 -6q74 0 196 6q7 -2 8 -32q0 -18 -5 -19q-59 0 -117 -4q-25 -4 -34 -12.5t-9 -34.5v-1256q0 -6 -12 -8q-3 -1 -5 0q-7 0 -12 4l-930 1143q-8 8 -12 -4v-1010q0 -27 9 -36t34 -11 q57 -4 117 -4q6 -2 5 -25.5t-7 -25.5q-123 6 -197 6q-76 0 -197 -6q-8 2 -8 25.5t6 25.5q59 0 117 4q25 2 34 11.5t9 35.5v1096q0 33 -19.5 55.5t-47.5 26.5q-57 4 -117 4q-6 2 -6 25.5z" />
<glyph unicode="&#xd2;" d="M514 1733q0 31 19 49t48 18q66 0 129 -102q84 -137 129 -191q-2 -8 -13 -18t-20 -12q-96 76 -188 129q-104 59 -104 127zM104 645q0 313 206 511t507 198q313 0 500.5 -189.5t187.5 -482.5q0 -313 -205.5 -511t-506.5 -198q-313 0 -501 189.5t-188 482.5zM301 688 q0 -291 151.5 -470t385.5 -179q197 0 334 160.5t137 439.5q0 291 -151.5 470t-385.5 179q-197 0 -334 -160.5t-137 -439.5z" />
<glyph unicode="&#xd4;" d="M360 1503l430 840q6 2 32 2t34 -2l418 -838q-2 -4 -24.5 -15.5t-29.5 -13.5l-395 797q-4 4 -8 0l-406 -797q-6 0 -27.5 11.5t-23.5 15.5zM104 645q0 313 206 511t507 198q313 0 500.5 -189.5t187.5 -482.5q0 -313 -205.5 -511t-506.5 -198q-313 0 -501 189.5t-188 482.5z M301 688q0 -291 151.5 -470t385.5 -179q197 0 334 160.5t137 439.5q0 291 -151.5 470t-385.5 179q-197 0 -334 -160.5t-137 -439.5z" />
<glyph unicode="&#xd5;" d="M360 1595q102 143 259 143q115 0 233 -73q160 -98 240 -99q82 0 141 82q6 2 23.5 -10t17.5 -18q-102 -143 -258 -144q-115 0 -234 74q-94 57 -143 77.5t-96 20.5q-82 0 -142 -82q-6 -2 -23.5 10.5t-17.5 18.5zM104 645q0 313 206 511t507 198q313 0 500.5 -189.5 t187.5 -482.5q0 -313 -205.5 -511t-506.5 -198q-313 0 -501 189.5t-188 482.5zM301 688q0 -291 151.5 -470t385.5 -179q197 0 334 160.5t137 439.5q0 291 -151.5 470t-385.5 179q-197 0 -334 -160.5t-137 -439.5z" />
<glyph unicode="&#xd9;" horiz-adv-x="1284" d="M357 1733q0 31 19 49t48 18q66 0 129 -102q84 -137 129 -191q-2 -8 -13 -18t-20 -12q-96 76 -188 129q-104 59 -104 127zM16 1305.5q0 23.5 9 25.5q119 -6 245 -6q123 0 246 6q6 -2 7 -25.5t-5 -25.5q-59 0 -117 -4q-25 -4 -34 -12.5t-9 -34.5v-758q0 -233 89.5 -332.5 t271.5 -99.5q147 0 243.5 103.5t96.5 287.5v799q0 27 -9.5 35t-33.5 12q-57 4 -117 4q-6 2 -6 25.5t8 25.5q119 -6 197 -6q74 0 196 6q7 -2 8 -32q0 -18 -6 -19q-59 0 -116 -4q-25 -4 -34 -12.5t-9 -34.5v-778q0 -223 -122 -350.5t-353 -127.5q-223 0 -351.5 121t-128.5 342 v793q0 27 -9 35t-34 12q-57 4 -116 4q-7 2 -7 25.5z" />
<glyph unicode="&#xdb;" horiz-adv-x="1284" d="M202 1503l430 840q6 2 32 2t34 -2l418 -838q-2 -4 -24.5 -15.5t-29.5 -13.5l-395 797q-4 4 -8 0l-406 -797q-6 0 -27.5 11.5t-23.5 15.5zM16 1305.5q0 23.5 9 25.5q119 -6 245 -6q123 0 246 6q6 -2 7 -25.5t-5 -25.5q-59 0 -117 -4q-25 -4 -34 -12.5t-9 -34.5v-758 q0 -233 89.5 -332.5t271.5 -99.5q147 0 243.5 103.5t96.5 287.5v799q0 27 -9.5 35t-33.5 12q-57 4 -117 4q-6 2 -6 25.5t8 25.5q119 -6 197 -6q74 0 196 6q7 -2 8 -32q0 -18 -6 -19q-59 0 -116 -4q-25 -4 -34 -12.5t-9 -34.5v-778q0 -223 -122 -350.5t-353 -127.5 q-223 0 -351.5 121t-128.5 342v793q0 27 -9 35t-34 12q-57 4 -116 4q-7 2 -7 25.5z" />
<glyph unicode="&#xe0;" horiz-adv-x="933" d="M181 1225q0 31 19 49t48 18q66 0 129 -102q84 -137 129 -191q-2 -8 -13 -18t-20 -12q-96 76 -188 129q-104 59 -104 127zM80 231q0 72 51 114t182 93q109 41 250 84q14 4 15 15v69q0 78 -39 126t-119 48q-168 0 -180 -100q-4 -29 -4 -105q-12 -14 -32 -14t-30 14 q0 131 -4 170q0 8 4 13q135 88 309 88q133 0 195.5 -53.5t62.5 -171.5v-482q0 -68 52 -67q39 0 102 43q8 -2 15 -15q5 -8 5 -15q0 -4 -2 -9q-57 -47 -141 -88q-29 -14 -67 -15q-100 0 -127 97q-4 8 -13 6q-117 -66 -147 -78q-68 -25 -117 -25q-92 0 -156.5 76t-64.5 182z M276 266q0 -84 34 -136t96 -52q59 0 120 37q35 20 43.5 50t8.5 91v174q0 8 -6 17q-4 8 -10 8h-3q-70 -14 -176.5 -57.5t-106.5 -131.5z" />
<glyph unicode="&#xe2;" horiz-adv-x="933" d="M26 995l430 840q6 2 32 2t34 -2l418 -838q-2 -4 -24.5 -15.5t-29.5 -13.5l-395 797q-4 4 -8 0l-406 -797q-6 0 -27.5 11.5t-23.5 15.5zM80 231q0 72 51 114t182 93q109 41 250 84q14 4 15 15v69q0 78 -39 126t-119 48q-168 0 -180 -100q-4 -29 -4 -105q-12 -14 -32 -14 t-30 14q0 131 -4 170q0 8 4 13q135 88 309 88q133 0 195.5 -53.5t62.5 -171.5v-482q0 -68 52 -67q39 0 102 43q8 -2 15 -15q5 -8 5 -15q0 -4 -2 -9q-57 -47 -141 -88q-29 -14 -67 -15q-100 0 -127 97q-4 8 -13 6q-117 -66 -147 -78q-68 -25 -117 -25q-92 0 -156.5 76 t-64.5 182zM276 266q0 -84 34 -136t96 -52q59 0 120 37q35 20 43.5 50t8.5 91v174q0 8 -6 17q-4 8 -10 8h-3q-70 -14 -176.5 -57.5t-106.5 -131.5z" />
<glyph unicode="&#xe3;" horiz-adv-x="933" d="M26 1088q102 143 259 143q115 0 233 -73q160 -98 240 -99q82 0 141 82q6 2 23.5 -10t17.5 -18q-102 -143 -258 -144q-115 0 -234 74q-94 57 -143 77.5t-96 20.5q-82 0 -142 -82q-6 -2 -23.5 10.5t-17.5 18.5zM80 231q0 72 51 114t182 93q109 41 250 84q14 4 15 15v69 q0 78 -39 126t-119 48q-168 0 -180 -100q-4 -29 -4 -105q-12 -14 -32 -14t-30 14q0 131 -4 170q0 8 4 13q135 88 309 88q133 0 195.5 -53.5t62.5 -171.5v-482q0 -68 52 -67q39 0 102 43q8 -2 15 -15q5 -8 5 -15q0 -4 -2 -9q-57 -47 -141 -88q-29 -14 -67 -15q-100 0 -127 97 q-4 8 -13 6q-117 -66 -147 -78q-68 -25 -117 -25q-92 0 -156.5 76t-64.5 182zM276 266q0 -84 34 -136t96 -52q59 0 120 37q35 20 43.5 50t8.5 91v174q0 8 -6 17q-4 8 -10 8h-3q-70 -14 -176.5 -57.5t-106.5 -131.5z" />
<glyph unicode="&#xe8;" horiz-adv-x="899" d="M220 1225q0 31 19 49t48 18q66 0 129 -102q84 -137 129 -191q-2 -8 -13 -18t-20 -12q-96 76 -188 129q-104 59 -104 127zM74 397q0 197 131 323t317 126q135 0 222 -84t87 -209q0 -25 -76.5 -33t-310.5 -8h-145q-25 0 -33 -14.5t-8 -65.5q0 -166 93 -270.5t208 -104.5 q102 0 250 88q10 -2 18 -18q5 -11 6 -18q0 -4 -2 -7q-113 -70 -243 -112q-49 -16 -99 -17q-166 0 -290.5 118t-124.5 306zM276 579q0 -4 5 -6q6 -2 20 -2h164q197 0 197 17q0 88 -41 140t-117 52q-86 0 -147 -52q-31 -26 -56 -67.5t-25 -81.5z" />
<glyph unicode="&#xea;" horiz-adv-x="899" d="M65 995l430 840q6 2 32 2t34 -2l418 -838q-2 -4 -24.5 -15.5t-29.5 -13.5l-395 797q-4 4 -8 0l-406 -797q-6 0 -27.5 11.5t-23.5 15.5zM74 397q0 197 131 323t317 126q135 0 222 -84t87 -209q0 -25 -76.5 -33t-310.5 -8h-145q-25 0 -33 -14.5t-8 -65.5q0 -166 93 -270.5 t208 -104.5q102 0 250 88q10 -2 18 -18q5 -11 6 -18q0 -4 -2 -7q-113 -70 -243 -112q-49 -16 -99 -17q-166 0 -290.5 118t-124.5 306zM276 579q0 -4 5 -6q6 -2 20 -2h164q197 0 197 17q0 88 -41 140t-117 52q-86 0 -147 -52q-31 -26 -56 -67.5t-25 -81.5z" />
<glyph unicode="&#xec;" horiz-adv-x="538" d="M-6 1575q0 31 19 49t48 18q66 0 129 -102q84 -137 129 -191q-2 -8 -13 -18t-20 -12q-96 76 -188 129q-104 59 -104 127zM64 784q0 19 10 23q182 10 293 24q8 0 12 -8v-725q0 -25 9 -34t34 -13q49 -4 76 -4q7 -2 7 -21v-4q-1 -24 -9 -26q-74 6 -199 6t-199 -6 q-8 2 -9 25.5t7 25.5q23 0 76 4q25 4 34 13.5t9 33.5v623q-2 39 -43 39q-47 0 -96 -6q-12 4 -12 30zM195 1094q0 43 29.5 72.5t72.5 29.5t72.5 -29.5t29.5 -72.5t-29.5 -73t-72.5 -30t-72.5 30t-29.5 73z" />
<glyph unicode="&#xee;" horiz-adv-x="538" d="M-160 1346l430 840q6 2 32 2t34 -2l418 -838q-2 -4 -24.5 -15.5t-29.5 -13.5l-395 797q-4 4 -8 0l-406 -797q-6 0 -27.5 11.5t-23.5 15.5zM64 784q0 19 10 23q182 10 293 24q8 0 12 -8v-725q0 -25 9 -34t34 -13q49 -4 76 -4q7 -2 7 -21v-4q-1 -24 -9 -26q-74 6 -199 6 t-199 -6q-8 2 -9 25.5t7 25.5q23 0 76 4q25 4 34 13.5t9 33.5v623q-2 39 -43 39q-47 0 -96 -6q-12 4 -12 30zM195 1094q0 43 29.5 72.5t72.5 29.5t72.5 -29.5t29.5 -72.5t-29.5 -73t-72.5 -30t-72.5 30t-29.5 73z" />
<glyph unicode="&#xf1;" horiz-adv-x="1093" d="M106 1088q102 143 259 143q115 0 233 -73q160 -98 240 -99q82 0 141 82q6 2 23.5 -10t17.5 -18q-102 -143 -258 -144q-115 0 -234 74q-94 57 -143 77.5t-96 20.5q-82 0 -142 -82q-6 -2 -23.5 10.5t-17.5 18.5zM64 784q0 19 10 23q182 10 293 24q8 0 12 -8v-104 q0 -14 12 -6q139 82 203 106q70 27 127 27q215 0 215 -289v-459q0 -25 9 -34t34 -13q49 -4 76 -4q7 -2 7 -21v-4q-1 -24 -9 -26q-74 6 -199 6t-199 -6q-8 2 -9 25.5t7 25.5q23 0 76 4q25 4 34 13.5t9 33.5v381q0 147 -32.5 204.5t-123.5 57.5q-35 0 -69 -12 q-59 -25 -125 -70q-43 -31 -43 -110v-451q0 -25 9 -34t34 -13q49 -4 76 -4q8 -2 7 -25.5t-9 -25.5q-74 6 -199 6t-199 -6q-8 2 -9 25.5t7 25.5q23 0 76 4q25 4 34 13.5t9 33.5v623q0 39 -43 39q-47 0 -96 -6q-12 4 -12 30z" />
<glyph unicode="&#xf2;" horiz-adv-x="1032" d="M222 1225q0 31 19 49t48 18q66 0 129 -102q84 -137 129 -191q-2 -8 -13 -18t-20 -12q-96 76 -188 129q-104 59 -104 127zM74 397q0 203 129 326t321.5 123t313 -120t120.5 -304q0 -203 -129 -326t-321.5 -123t-313 120t-120.5 304zM258 426q0 -170 75 -278.5t199 -108.5 q117 0 179.5 92t62.5 262t-74.5 278.5t-199.5 108.5q-117 0 -179.5 -92t-62.5 -262z" />
<glyph unicode="&#xf4;" horiz-adv-x="1032" d="M67 995l430 840q6 2 32 2t34 -2l418 -838q-2 -4 -24.5 -15.5t-29.5 -13.5l-395 797q-4 4 -8 0l-406 -797q-6 0 -27.5 11.5t-23.5 15.5zM74 397q0 203 129 326t321.5 123t313 -120t120.5 -304q0 -203 -129 -326t-321.5 -123t-313 120t-120.5 304zM258 426 q0 -170 75 -278.5t199 -108.5q117 0 179.5 92t62.5 262t-74.5 278.5t-199.5 108.5q-117 0 -179.5 -92t-62.5 -262z" />
<glyph unicode="&#xf5;" horiz-adv-x="1032" d="M67 1088q102 143 259 143q115 0 233 -73q160 -98 240 -99q82 0 141 82q6 2 23.5 -10t17.5 -18q-102 -143 -258 -144q-115 0 -234 74q-94 57 -143 77.5t-96 20.5q-82 0 -142 -82q-6 -2 -23.5 10.5t-17.5 18.5zM74 397q0 203 129 326t321.5 123t313 -120t120.5 -304 q0 -203 -129 -326t-321.5 -123t-313 120t-120.5 304zM258 426q0 -170 75 -278.5t199 -108.5q117 0 179.5 92t62.5 262t-74.5 278.5t-199.5 108.5q-117 0 -179.5 -92t-62.5 -262z" />
<glyph unicode="&#xf9;" horiz-adv-x="1060" d="M308 1225q0 31 19 49t48 18q66 0 129 -102q84 -137 129 -191q-2 -8 -13 -18t-20 -12q-96 76 -188 129q-104 59 -104 127zM30 784q0 19 9 23q182 10 293 24q8 0 12 -8v-483q0 -147 33 -204.5t123 -57.5q37 0 69 12q51 20 125 70q43 31 43 110v451q0 39 -43 39 q-47 0 -96 -6q-10 4 -11 26.5t9 26.5q182 10 293 24q8 0 12 -8v-725q0 -25 9.5 -34t33.5 -13q49 -4 76 -4q7 -2 7 -21v-4q-1 -24 -9 -26q-74 6 -199 6q-49 0 -76 -2q-6 0 -6 4v96q0 12 -12 6q-119 -74 -203 -106q-70 -27 -127 -27q-215 0 -215 289v459q0 39 -43 39 q-47 0 -96 -6q-11 4 -11 30z" />
<glyph unicode="&#xfb;" horiz-adv-x="1060" d="M153 995l430 840q6 2 32 2t34 -2l418 -838q-2 -4 -24.5 -15.5t-29.5 -13.5l-395 797q-4 4 -8 0l-406 -797q-6 0 -27.5 11.5t-23.5 15.5zM30 784q0 19 9 23q182 10 293 24q8 0 12 -8v-483q0 -147 33 -204.5t123 -57.5q37 0 69 12q51 20 125 70q43 31 43 110v451 q0 39 -43 39q-47 0 -96 -6q-10 4 -11 26.5t9 26.5q182 10 293 24q8 0 12 -8v-725q0 -25 9.5 -34t33.5 -13q49 -4 76 -4q7 -2 7 -21v-4q-1 -24 -9 -26q-74 6 -199 6q-49 0 -76 -2q-6 0 -6 4v96q0 12 -12 6q-119 -74 -203 -106q-70 -27 -127 -27q-215 0 -215 289v459 q0 39 -43 39q-47 0 -96 -6q-11 4 -11 30z" />
<glyph unicode="&#x152;" horiz-adv-x="2729" d="M1643 21.5q0 23.5 6 25.5q59 0 117 4q25 2 34 11.5t9 35.5v1131q0 27 -9.5 35t-33.5 12q-57 4 -117 4q-6 2 -6 25.5t8 25.5q80 -4 246 -4h620q8 0 13 -10q0 -221 8 -379q-25 -14 -54 -2q0 51 -6 115q-12 109 -85.5 160t-227.5 51h-137q-43 0 -43 -45v-494q0 -16 16 -16 h70q125 0 174 46t59 148q2 20 2 45q8 4 28.5 4t25.5 -6q-6 -109 -6.5 -266.5t6.5 -265.5q-4 -6 -24.5 -6t-29.5 4q0 25 -2 45q-10 102 -59 148t-174 46h-70q-16 0 -16 -16v-522q0 -45 43 -45h211q156 0 239.5 69.5t100.5 181.5q8 57 8 115q29 12 53 -2q-8 -158 -8 -420 q-4 -10 -12 -10h-723q-166 0 -246 -4q-8 2 -8 25.5zM104 645q0 313 206 511t507 198q313 0 500.5 -189.5t187.5 -482.5q0 -313 -205.5 -511t-506.5 -198q-313 0 -501 189.5t-188 482.5zM301 688q0 -291 151.5 -470t385.5 -179q197 0 334 160.5t137 439.5q0 291 -151.5 470 t-385.5 179q-197 0 -334 -160.5t-137 -439.5z" />
<glyph unicode="&#x153;" horiz-adv-x="1931" d="M1106 397q0 197 131 323t317 126q135 0 222 -84t87 -209q0 -25 -76.5 -33t-310.5 -8h-145q-25 0 -33 -14.5t-8 -65.5q0 -166 93 -270.5t208 -104.5q102 0 250 88q10 -2 18 -18q5 -11 6 -18q0 -4 -2 -7q-113 -70 -243 -112q-49 -16 -99 -17q-166 0 -290.5 118t-124.5 306z M1308 579q0 -4 5 -6q6 -2 20 -2h164q197 0 197 17q0 88 -41 140t-117 52q-86 0 -147 -52q-31 -26 -56 -67.5t-25 -81.5zM74 397q0 203 129 326t321.5 123t313 -120t120.5 -304q0 -203 -129 -326t-321.5 -123t-313 120t-120.5 304zM258 426q0 -170 75 -278.5t199 -108.5 q117 0 179.5 92t62.5 262t-74.5 278.5t-199.5 108.5q-117 0 -179.5 -92t-62.5 -262z" />
<glyph unicode="&#x2c6;" horiz-adv-x="1191" d="M139 463l430 840q6 2 32 2t34 -2l418 -838q-2 -4 -24.5 -15.5t-29.5 -13.5l-395 797q-4 4 -8 0l-406 -797q-6 0 -27.5 11.5t-23.5 15.5z" />
<glyph unicode="&#x2dc;" horiz-adv-x="495" d="M-457 242q102 143 259 143q115 0 233 -73q160 -98 240 -99q82 0 141 82q6 2 23.5 -10t17.5 -18q-102 -143 -258 -144q-115 0 -234 74q-94 57 -143 77.5t-96 20.5q-82 0 -142 -82q-6 -2 -23.5 10.5t-17.5 18.5z" />
<glyph unicode="&#x2000;" horiz-adv-x="1177" />
<glyph unicode="&#x2001;" horiz-adv-x="2357" />
<glyph unicode="&#x2002;" horiz-adv-x="1177" />
<glyph unicode="&#x2003;" horiz-adv-x="2357" />
<glyph unicode="&#x2004;" horiz-adv-x="784" />
<glyph unicode="&#x2005;" horiz-adv-x="587" />
<glyph unicode="&#x2006;" horiz-adv-x="391" />
<glyph unicode="&#x2007;" horiz-adv-x="391" />
<glyph unicode="&#x2008;" horiz-adv-x="292" />
<glyph unicode="&#x2009;" horiz-adv-x="471" />
<glyph unicode="&#x200a;" horiz-adv-x="129" />
<glyph unicode="&#x2010;" horiz-adv-x="649" d="M111 381q14 16 49 45q33 27 73 27h226q10 0 26 4q4 2 23 10q23 -10 31 -29q-14 -16 -50 -45q-33 -27 -73 -26h-226q-10 0 -26 -5q-4 -2 -23 -10q-22 11 -30 29z" />
<glyph unicode="&#x2011;" horiz-adv-x="649" d="M111 381q14 16 49 45q33 27 73 27h226q10 0 26 4q4 2 23 10q23 -10 31 -29q-14 -16 -50 -45q-33 -27 -73 -26h-226q-10 0 -26 -5q-4 -2 -23 -10q-22 11 -30 29z" />
<glyph unicode="&#x2012;" horiz-adv-x="649" d="M111 381q14 16 49 45q33 27 73 27h226q10 0 26 4q4 2 23 10q23 -10 31 -29q-14 -16 -50 -45q-33 -27 -73 -26h-226q-10 0 -26 -5q-4 -2 -23 -10q-22 11 -30 29z" />
<glyph unicode="&#x2013;" horiz-adv-x="1024" d="M111 352v115h802v-115h-802z" />
<glyph unicode="&#x2014;" horiz-adv-x="2048" d="M111 352v115h1826v-115h-1826z" />
<glyph unicode="&#x2018;" horiz-adv-x="460" d="M90 1174q0 158 158 282q6 -2 17 -12t11 -19q-125 -102 -124 -229q0 -53 34 -53q18 0 39 31q29 47 74 47q37 0 62.5 -25t25.5 -68q0 -59 -41 -96t-94 -37q-76 0 -119 48.5t-43 130.5z" />
<glyph unicode="&#x2019;" horiz-adv-x="460" d="M74 1323q0 59 41 96t94 37q76 0 119 -48t43 -130q0 -158 -158 -283q-6 2 -17.5 13.5t-11.5 17.5q125 102 125 229q0 53 -35 54q-18 0 -38 -31q-29 -47 -74 -47q-37 0 -62.5 24.5t-25.5 67.5z" />
<glyph unicode="&#x201c;" horiz-adv-x="829" d="M90 1174q0 158 158 282q6 -2 17 -12t11 -19q-125 -102 -124 -229q0 -53 34 -53q18 0 39 31q29 47 74 47q37 0 62.5 -25t25.5 -68q0 -59 -41 -96t-94 -37q-76 0 -119 48.5t-43 130.5zM459 1174q0 158 157 282q6 -2 17.5 -12t11.5 -19q-125 -102 -125 -229q0 -53 35 -53 q18 0 39 31q29 47 74 47q37 0 62.5 -25t25.5 -68q0 -59 -41 -96t-94 -37q-76 0 -119 48.5t-43 130.5z" />
<glyph unicode="&#x201d;" horiz-adv-x="829" d="M74 1323q0 59 41 96t94 37q76 0 119 -48t43 -130q0 -158 -158 -283q-6 2 -17.5 13.5t-11.5 17.5q125 102 125 229q0 53 -35 54q-18 0 -38 -31q-29 -47 -74 -47q-37 0 -62.5 24.5t-25.5 67.5zM442 1323q0 59 41 96t95 37q76 0 118.5 -48t42.5 -130q0 -158 -157 -283 q-6 2 -17.5 13.5t-11.5 17.5q125 102 125 229q0 53 -35 54q-18 0 -39 -31q-29 -47 -74 -47q-37 0 -62.5 24.5t-25.5 67.5z" />
<glyph unicode="&#x2026;" horiz-adv-x="1351" d="M1014 86q0 45 33.5 79t78.5 34t79 -34t34 -79t-34 -79t-79 -34t-78.5 34t-33.5 79zM564 86q0 45 33.5 79t78.5 34t79 -34t34 -79t-34 -79t-79 -34t-78.5 34t-33.5 79zM113 86q0 45 33.5 79t78.5 34t79 -34t34 -79t-34 -79t-79 -34t-78.5 34t-33.5 79z" />
<glyph unicode="&#x202f;" horiz-adv-x="471" />
<glyph unicode="&#x2039;" horiz-adv-x="1087" d="M92 428q0 27 4 35l848 422q8 -4 16.5 -21.5t8.5 -27.5l-801 -398q-4 -4 -4 -8t4 -6l803 -395q0 -8 -11.5 -30t-17.5 -26l-846 422q-4 6 -4 33z" />
<glyph unicode="&#x203a;" horiz-adv-x="1087" d="M117 829q0 8 11 30t17 26l846 -422q4 -6 4 -33t-4 -35l-848 -422q-8 4 -16 21.5t-8 28.5l801 397q4 4 0 14z" />
<glyph unicode="&#x205f;" horiz-adv-x="587" />
<glyph unicode="&#x2122;" horiz-adv-x="2879" d="M1132 21.5q0 23.5 6 25.5q59 0 117 4q23 2 31 11.5t10 35.5q25 664 35 1106q0 70 -41 72q-57 4 -117 4q-6 2 -6 25.5t8 25.5q80 -4 308 -4q14 0 16 -10q4 -16 8 -25q182 -401 469 -977q6 -4 10 0q268 537 469 979q4 12 4 22.5t11 10.5q250 0 331 4q6 -2 7.5 -25.5 t-4.5 -25.5q-59 0 -117 -4q-35 -4 -35 -47q4 -475 35 -1131q2 -43 49 -47q57 -4 108 -4q5 -2 6 -19q0 -29 -8 -32q-123 6 -247 6q-129 0 -248 -6q-8 2 -8 25.5t6 25.5q53 0 110 4q45 2 45 47q0 174 -26 1012q-4 10 -13 2q-375 -766 -514 -1081q-20 -20 -41 0 q-121 270 -485 1022q-2 2 -7 1t-5 -3q-20 -467 -29 -953q0 -43 47 -47q57 -4 109 -4q6 -2 5 -25.5t-7 -25.5q-123 6 -197 6q-76 0 -196 -6q-9 2 -9 25.5zM33 946q8 158 8 371q4 10 12 10h1012q8 0 12 -10q0 -213 8 -371q-25 -14 -53 -2q0 51 -6 115q-12 109 -75.5 160 t-196.5 51h-64q-43 0 -43 -45v-1127q0 -27 9.5 -36t33.5 -11q57 -4 117 -4q6 -2 5 -25.5t-7 -25.5q-123 6 -246 6q-125 0 -246 -6q-8 2 -8 25.5t6 25.5q59 0 117 4q25 2 34 11.5t9 35.5v1127q0 45 -43 45h-63q-133 0 -197 -51.5t-76 -159.5q-6 -63 -6 -115q-28 -12 -53 2z " />
<glyph unicode="&#xe000;" horiz-adv-x="825" d="M0 825h825v-825h-825v825z" />
<glyph unicode="&#xfb01;" horiz-adv-x="1216" d="M742 784q0 19 10 23q182 10 293 24q8 0 12 -8v-725q0 -25 9 -34t34 -13q49 -4 76 -4q7 -2 7 -21v-4q-1 -24 -9 -26q-74 6 -199 6t-199 -6q-8 2 -9 25.5t7 25.5q23 0 76 4q25 4 34 13.5t9 33.5v623q-2 39 -43 39q-47 0 -96 -6q-12 4 -12 30zM873 1094q0 43 29.5 72.5 t72.5 29.5t72.5 -29.5t29.5 -72.5t-29.5 -73t-72.5 -30t-72.5 30t-29.5 73zM76 805q68 0 117 6q25 2 24 29v188q0 113 25.5 180.5t89.5 137.5q117 123 268 122q109 0 170 -57q6 -6 6 -22q-4 -61 -4 -246q-10 -10 -30.5 -10t-30.5 10q0 123 -4 155q-10 109 -136 109 q-86 0 -138 -53.5t-52 -145.5v-368q0 -20 25 -21h241q8 -10 6 -32.5t-12 -28.5h-223q-37 0 -37 -31v-629q0 -25 9 -34t34 -13q49 -4 76 -4q8 -2 7 -25.5t-9 -25.5q-74 6 -199 6t-199 -6q-8 2 -9 25.5t7 25.5q23 0 76 4q25 4 34 13.5t9 33.5v633q0 20 -29 21q-55 0 -116 -4 q-7 7 -8 25q1 25 12 32z" />
<glyph unicode="&#xfb02;" horiz-adv-x="1193" d="M720 1390q0 19 9 23q182 10 293 25q8 0 12 -8v-1332q0 -25 9.5 -34t33.5 -13q49 -4 76 -4q7 -2 7 -21v-4q-1 -24 -9 -26q-74 6 -198.5 6t-198.5 -6q-8 2 -9 25.5t7 25.5q23 0 76 4q25 4 34 13.5t9 33.5v1229q0 39 -43 39q-47 0 -97 -6q-11 4 -11 30zM76 805q68 0 117 6 q25 2 24 29v188q0 113 25.5 180.5t89.5 137.5q117 123 268 122q109 0 170 -57q6 -6 6 -22q-4 -61 -4 -246q-10 -10 -30.5 -10t-30.5 10q0 123 -4 155q-10 109 -136 109q-86 0 -138 -53.5t-52 -145.5v-368q0 -20 25 -21h241q8 -10 6 -32.5t-12 -28.5h-223q-37 0 -37 -31v-629 q0 -25 9 -34t34 -13q49 -4 76 -4q8 -2 7 -25.5t-9 -25.5q-74 6 -199 6t-199 -6q-8 2 -9 25.5t7 25.5q23 0 76 4q25 4 34 13.5t9 33.5v633q0 20 -29 21q-55 0 -116 -4q-7 7 -8 25q1 25 12 32z" />
<glyph unicode="&#xfb03;" horiz-adv-x="1894" d="M1420 784q0 19 10 23q182 10 293 24q8 0 12 -8v-725q0 -25 9 -34t34 -13q49 -4 76 -4q7 -2 7 -21v-4q-1 -24 -9 -26q-74 6 -199 6t-199 -6q-8 2 -9 25.5t7 25.5q23 0 76 4q25 4 34 13.5t9 33.5v623q-2 39 -43 39q-47 0 -96 -6q-12 4 -12 30zM1551 1094q0 43 29.5 72.5 t72.5 29.5t72.5 -29.5t29.5 -72.5t-29.5 -73t-72.5 -30t-72.5 30t-29.5 73zM754 805q68 0 117 6q25 2 24 29v188q0 113 25.5 180.5t89.5 137.5q117 123 268 122q109 0 170 -57q6 -6 6 -22q-4 -61 -4 -246q-10 -10 -30.5 -10t-30.5 10q0 123 -4 155q-10 109 -136 109 q-86 0 -138 -53.5t-52 -145.5v-368q0 -20 25 -21h241q8 -10 6 -32.5t-12 -28.5h-223q-37 0 -37 -31v-629q0 -25 9 -34t34 -13q49 -4 76 -4q8 -2 7 -25.5t-9 -25.5q-74 6 -199 6t-199 -6q-8 2 -9 25.5t7 25.5q23 0 76 4q25 4 34 13.5t9 33.5v633q0 20 -29 21q-55 0 -116 -4 q-7 7 -8 25q1 25 12 32zM76 805q68 0 117 6q25 2 24 29v188q0 113 25.5 180.5t89.5 137.5q117 123 268 122q109 0 170 -57q6 -6 6 -22q-4 -61 -4 -246q-10 -10 -30.5 -10t-30.5 10q0 123 -4 155q-10 109 -136 109q-86 0 -138 -53.5t-52 -145.5v-368q0 -20 25 -21h241 q8 -10 6 -32.5t-12 -28.5h-223q-37 0 -37 -31v-629q0 -25 9 -34t34 -13q49 -4 76 -4q8 -2 7 -25.5t-9 -25.5q-74 6 -199 6t-199 -6q-8 2 -9 25.5t7 25.5q23 0 76 4q25 4 34 13.5t9 33.5v633q0 20 -29 21q-55 0 -116 -4q-7 7 -8 25q1 25 12 32z" />
<glyph unicode="&#xfb04;" horiz-adv-x="1871" d="M1398 1390q0 19 9 23q182 10 293 25q8 0 12 -8v-1332q0 -25 9.5 -34t33.5 -13q49 -4 76 -4q7 -2 7 -21v-4q-1 -24 -9 -26q-74 6 -198.5 6t-198.5 -6q-8 2 -9 25.5t7 25.5q23 0 76 4q25 4 34 13.5t9 33.5v1229q0 39 -43 39q-47 0 -97 -6q-11 4 -11 30zM754 805q68 0 117 6 q25 2 24 29v188q0 113 25.5 180.5t89.5 137.5q117 123 268 122q109 0 170 -57q6 -6 6 -22q-4 -61 -4 -246q-10 -10 -30.5 -10t-30.5 10q0 123 -4 155q-10 109 -136 109q-86 0 -138 -53.5t-52 -145.5v-368q0 -20 25 -21h241q8 -10 6 -32.5t-12 -28.5h-223q-37 0 -37 -31v-629 q0 -25 9 -34t34 -13q49 -4 76 -4q8 -2 7 -25.5t-9 -25.5q-74 6 -199 6t-199 -6q-8 2 -9 25.5t7 25.5q23 0 76 4q25 4 34 13.5t9 33.5v633q0 20 -29 21q-55 0 -116 -4q-7 7 -8 25q1 25 12 32zM76 805q68 0 117 6q25 2 24 29v188q0 113 25.5 180.5t89.5 137.5q117 123 268 122 q109 0 170 -57q6 -6 6 -22q-4 -61 -4 -246q-10 -10 -30.5 -10t-30.5 10q0 123 -4 155q-10 109 -136 109q-86 0 -138 -53.5t-52 -145.5v-368q0 -20 25 -21h241q8 -10 6 -32.5t-12 -28.5h-223q-37 0 -37 -31v-629q0 -25 9 -34t34 -13q49 -4 76 -4q8 -2 7 -25.5t-9 -25.5 q-74 6 -199 6t-199 -6q-8 2 -9 25.5t7 25.5q23 0 76 4q25 4 34 13.5t9 33.5v633q0 20 -29 21q-55 0 -116 -4q-7 7 -8 25q1 25 12 32z" />
</font>
</defs>
</svg>
