<?xml version="1.0" standalone="no"?>
<!DOCTYPE svg PUBLIC "-//W3C//DTD SVG 1.1//EN" "http://www.w3.org/Graphics/SVG/1.1/DTD/svg11.dtd" >
<svg xmlns="http://www.w3.org/2000/svg">
<metadata>
This is a custom SVG webfont generated by Font Squirrel.
Copyright   : Copyright c 2002 Nick Curtis All Rights Reserved
</metadata>
<defs>
<font id="webfont3XHJnRnk" horiz-adv-x="1923" >
<font-face units-per-em="2048" ascent="1638" descent="-410" />
<missing-glyph horiz-adv-x="704" />
<glyph unicode=" "  horiz-adv-x="704" />
<glyph unicode="&#x09;" horiz-adv-x="704" />
<glyph unicode="&#xa0;" horiz-adv-x="704" />
<glyph unicode="!" horiz-adv-x="415" d="M49 1536q0 66 47 113t113 47t112 -47t48 -113q0 -135 -56 -588q-29 -199 -63 -581q-2 -31 -41 -31q-41 0 -41 31q-6 117 -62 546q-59 457 -57 623zM72 135q0 55 40 95t97 40q55 0 96 -40t41 -95q0 -57 -41 -97t-96 -40q-57 0 -97 40t-40 97z" />
<glyph unicode="&#x22;" horiz-adv-x="667" d="M72 1505q-18 90 16.5 145.5t104.5 55.5t103.5 -53.5t12.5 -147.5q-33 -90 -71 -241q-2 -35 -48 -35q-45 0 -47 35.5t-30 117.5q-35 94 -41 123zM358 1505q-18 90 17 145.5t104 55.5q70 0 103.5 -53.5t13.5 -147.5q-33 -90 -72 -241q-2 -35 -47 -35t-47 35.5t-31 117.5 q-35 94 -41 123z" />
<glyph unicode="$" horiz-adv-x="1320" d="M-10 1118q0 43 6 90q31 203 233 348q172 123 398 160v125q0 41 41 41q39 0 39 -41v-115q25 2 75 3q391 0 547 -256l-227 -347l-35 15q10 43 10 84q0 139 -89 239.5t-236 128.5l-45 6v-651q244 -66 350 -143q162 -119 149 -330q-12 -223 -186 -350q-133 -98 -313 -125 v-125q0 -41 -39 -41q-41 0 -41 41v117q-172 -6 -320 51l-82 -84l-205 483l111 11q27 -152 158 -250q117 -92 278 -113q33 -4 60 -4v539q-2 0 -76 20q-276 74 -381 143q-180 115 -180 330zM223 1292q-8 -135 117 -217q82 -51 287 -106v633q-154 -4 -267 -82 q-127 -87 -137 -228zM707 88q121 14 199.5 71.5t88.5 141.5q25 199 -288 301v-514z" />
<glyph unicode="&#x26;" horiz-adv-x="1648" d="M55 526q0 190 138 353q121 147 311 227l-154 334q-57 121 -106 165t-162 44q-20 0 -21 18q0 18 21 19h1247q61 0 117 -31q8 -6 8 -17q0 -12 -10 -16q-90 -43 -117 -174q-20 -96 -90 -161.5t-166 -65.5q-61 0 -117 30q-10 6 -10 19q2 12 12 16q96 45 97 158 q0 80 -57.5 128t-153.5 48h-121q-61 0 -84 -43q-29 -51 6 -123l574 -1204q135 90 135 303q0 119 -52.5 230.5t-142.5 177.5q-82 59 -174 59q-33 0 -65 -8q-39 -10 -48 32q-12 41 35 54q82 23 166 22q172 0 309 -86q145 -94 195 -252q18 -66 18 -131q0 -154 -95 -284.5 t-243 -198.5q61 -131 181 -131h73q20 0 21 -19q0 -20 -21 -20h-479q-18 0 -33 45q-143 -51 -292 -51q-182 0 -336 74q-248 117 -301 352q-13 53 -13 108zM360 698q0 -174 97.5 -333.5t251.5 -231.5q84 -39 163 -39q49 0 95 15l-430 929q-177 -96 -177 -340z" />
<glyph unicode="'" horiz-adv-x="374" d="M68 1505q-18 90 16.5 145.5t103.5 55.5q70 0 104 -53.5t13 -147.5q-33 -90 -72 -241q-2 -35 -47 -35t-46 35.5t-31 117.5q-35 94 -41 123z" />
<glyph unicode="(" horiz-adv-x="700" d="M18 743q0 336 178.5 605.5t460.5 363.5q25 8 25 -20q0 -8 -6 -13q-180 -152 -279 -428q-86 -242 -86 -508q0 -268 86 -510q98 -272 279 -428q6 -4 6 -12q0 -29 -25 -20q-285 96 -462 366t-177 604z" />
<glyph unicode=")" horiz-adv-x="651" d="M8 -207q0 -29 25 -20q285 96 463 366.5t178 603.5q0 336 -178.5 605.5t-462.5 363.5q-25 8 -25 -20q0 -8 6 -13q182 -152 279 -428q86 -242 86 -508q0 -268 -86 -510q-96 -272 -279 -428q-6 -4 -6 -12z" />
<glyph unicode="*" horiz-adv-x="768" d="M78 1245q0 20 10 37q31 59 188 86q-82 16 -104 25q-61 23 -82 61q-10 16 -10 37q0 35 23.5 61.5t60.5 28.5q66 2 164 -117q-35 104 -35 144q0 35 16 59q23 39 74 39q49 0 74 -39q14 -25 14 -61q0 -45 -35 -146q59 68 74 78q51 45 96 43q33 -2 57.5 -28.5t24.5 -61.5 q0 -68 -90 -98q-41 -12 -104 -25q82 -16 102 -25q63 -23 86 -61q8 -16 8 -37q0 -33 -24.5 -60.5t-57.5 -29.5q-47 -2 -94 41q-33 29 -78 82q35 -102 35 -145q0 -37 -14 -64q-25 -39 -76 -39q-49 0 -72 39q-16 25 -16 61q0 41 37 144q-106 -121 -168 -119q-35 2 -59.5 28.5 t-24.5 61.5z" />
<glyph unicode="," horiz-adv-x="358" d="M37 135q0 57 40 97t97 40q63 0 105.5 -50t42.5 -120q0 -80 -44.5 -147.5t-117.5 -101.5q-14 -6 -25 4q-8 14 2 24q41 53 47 117q-59 -4 -103 37t-44 100z" />
<glyph unicode="-" horiz-adv-x="413" d="M14 674v188q0 18 21 19h344q20 0 20 -19v-188q0 -18 -20 -19h-344q-21 1 -21 19z" />
<glyph unicode="." horiz-adv-x="358" d="M41 133q0 55 40 95t97 40t97 -40t40 -95q0 -57 -39.5 -97t-97.5 -40q-57 0 -97 40t-40 97z" />
<glyph unicode="0" horiz-adv-x="1388" d="M-2 848q0 352 205 602t491 250q289 0 494 -251t205 -601q0 -324 -185 -576q-203 -279 -514 -278q-311 0 -514 278q-182 254 -182 576zM311 950q0 -127 23 -254q35 -205 125 -374q125 -236 289 -236q111 0 194 121q63 88 98 219q37 143 37 315q0 129 -20 258 q-35 201 -127 375q-125 233 -289 234q-111 0 -195 -119q-63 -90 -96 -219q-39 -148 -39 -320z" />
<glyph unicode="1" horiz-adv-x="913" d="M78 18q0 18 20 19h39q72 0 122 63.5t50 137.5v1097q0 125 -121 125q-33 0 -63 -10q-8 -2 -21 -8q-20 -10 -26 8q-8 18 12 27l490 217q27 12 26 -17v-1439q0 -74 50.5 -137.5t121.5 -63.5h39q20 0 21 -19q0 -20 -21 -20h-719q-20 0 -20 20z" />
<glyph unicode="2" horiz-adv-x="1447" d="M68 1440q0 4 2 10q84 121 274 188q164 57 338 58q260 0 461 -125q238 -147 237 -391q0 -266 -178 -412q-119 -98 -418 -197q-137 -45 -153 -51q-90 -33 -146 -69q-88 -57 -88 -168q0 -90 68 -138q59 -41 156 -41q150 0 206 15q119 33 119 139q0 70 -46 114l-46 44 q0 20 55 35q43 12 74 12q96 0 162 -68q59 -61 76 -159q18 -121 100 -173q10 -6 10 -16q0 -23 -57 -37q-45 -12 -76 -12h-1104q-20 0 -20 20q0 10 10 109q25 246 283 424l460 270q244 164 244 377q0 145 -82 254q-88 119 -227 119q-190 0 -326 -113q-143 -121 -143 -307 q0 -8 2 -23.5t2 -23.5q0 -20 -21 -21q-10 0 -14 9q-2 0 -82 143q-112 197 -112 205z" />
<glyph unicode="3" horiz-adv-x="1308" d="M-4 20q31 215 215 345q4 2 10 2q20 0 21 -21q0 -2 -15.5 -31.5t-15.5 -58.5q0 -86 55.5 -131t141.5 -45q90 0 190 47q141 66 229 188q100 139 101 314q0 164 -117 305q-106 129 -270 196q-84 -20 -176 -26q-57 -4 -58 45q0 45 96 63q147 27 181 41q94 45 94 152 q0 94 -78 151q-72 51 -170 52q-90 0 -149 -43q-70 -49 -70 -138q0 -29 15.5 -58.5t15.5 -31.5q0 -20 -21 -20q-6 0 -10 4q-184 129 -215 344q-2 20 18 21h418q221 0 320 -25q197 -51 196 -205q0 -147 -182 -246q221 -63 373 -206q172 -164 172 -375q0 -285 -283 -469 q-250 -162 -551 -162h-463q-20 -1 -18 22z" />
<glyph unicode="4" horiz-adv-x="1331" d="M23 549q0 25 22 55l842 1094q8 10 22 6q12 -4 13 -16v-1078h143q84 0 127 27q37 25 80 98q8 12 22 8t15 -16v-328q0 -14 -15 -16q-14 -4 -22 6q-43 74 -80 98q-45 29 -127 29h-143v-307q0 -72 50 -122t122 -50h36q20 0 21 -19q0 -20 -21 -20h-716q-20 0 -21 20 q0 18 21 19h39q72 0 125 65q47 61 47 136v278h-566q-36 0 -36 33zM168 610h457v588z" />
<glyph unicode="5" horiz-adv-x="1292" d="M33 1667q0 18 20 19h1123q20 0 20 -21q-27 -211 -215 -344q-20 -14 -31 -4q-8 8 1 22l18 27q12 27 12 61q0 104 -113 156q-82 35 -202 37q-84 2 -120 -33t-36 -84v-264q268 -16 491 -176q252 -180 259 -434q8 -289 -228 -469q-211 -162 -510 -162h-463q-18 0 -18 18 q-6 219 162 349q4 4 10 4q10 0 16.5 -9.5t1.5 -19.5q-20 -41 -14 -80q29 -178 223 -178q115 0 219 68q221 141 222 405q0 127 -50 248q-53 129 -145 209q-152 135 -393 129q-8 0 -31 -2h-29q-20 0 -20 18v375q0 51 -36 84t-89 33h-35q-20 0 -20 18z" />
<glyph unicode="6" horiz-adv-x="1433" d="M6 836q0 250 113 456q172 311 485 383q137 31 297 -2q137 -29 221 -98q45 43 97 43q12 0 23 -2t15 -14q2 -12 -8 -21q-47 -35 -55 -129q-20 -258 -207 -258q-84 0 -104 53q-12 31 13.5 58.5t72.5 19.5q12 -2 16 -12t-4 -19q-18 -18 2 -26q39 -10 64 73q10 31 10 64 q0 131 -107 178q-78 35 -211 21q-197 -20 -317 -252q-76 -147 -96 -359q172 203 442 203q266 0 461 -174q199 -182 198 -444q0 -252 -215 -431q-205 -166 -460 -165q-231 0 -428 153q-154 121 -238 314q-80 180 -80 387zM330 795q14 -305 149 -521q121 -190 289 -190 q190 0 293 158q86 135 86 336q0 205 -84 348q-104 174 -295 174q-135 0 -255 -86t-183 -219z" />
<glyph unicode="7" horiz-adv-x="1458" d="M33 1638q0 23 55 37q43 10 76 11h1241q20 0 20 -19q0 -18 -20 -18q-117 0 -166 -41q-55 -45 -100 -168l-301 -809l-166 -445q-8 -23 -8 -43q0 -72 75 -98q23 -8 80 -8q20 0 21 -19q0 -20 -21 -20h-706q-20 0 -21 20q0 18 41 21q-39 -2 55 -2q53 0 104.5 36t72.5 87 l231 624l248 670q14 41 14 78q0 88 -92 88h-121q-88 0 -145 -43q-66 -47 -66 -131q0 -100 98 -160q10 -6 11 -18q0 -20 -54 -35q-43 -12 -73 -12q-96 0 -166 67q-66 61 -88 160q-29 119 -119 174q-10 6 -10 16z" />
<glyph unicode="8" horiz-adv-x="1423" d="M-14 561q0 213 170 373q154 143 374 190q-125 27 -215 90q-115 82 -114 191q0 127 151.5 214t360.5 87q211 0 361.5 -88t150.5 -213q0 -109 -115 -191q-90 -63 -215 -90q221 -47 373 -190q170 -160 170 -373q0 -262 -240 -430q-213 -152 -485 -151q-299 0 -513 170.5 t-214 410.5zM322 631q0 -139 57 -273q63 -139 169.5 -222t221.5 -83q158 0 252 146q82 125 82 293q0 139 -60.5 275t-166 218t-220.5 82q-160 0 -254 -143q-81 -125 -81 -293zM473 1442q0 -111 83 -196t194 -85q88 0 145 60.5t57 148.5q0 111 -84 195t-192 84 q-88 0 -145.5 -59.5t-57.5 -147.5z" />
<glyph unicode="9" horiz-adv-x="1404" d="M-8 1094q0 252 217 430q203 166 461 166q231 0 426 -154q156 -121 239 -313q78 -180 78 -387q0 -250 -113 -457q-172 -311 -485 -383q-137 -31 -297 2q-137 29 -221 98q-43 -43 -96 -43q-12 0 -23.5 2t-13.5 15q-4 12 6 20q47 35 55 129q20 258 207 258q84 0 105 -53 q12 -31 -13.5 -58.5t-72.5 -19.5q-12 2 -17 12q-4 10 4 19q18 18 -2 26q-37 10 -63 -73q-10 -31 -11 -64q0 -131 107 -178q80 -35 211 -20q197 20 317 251q78 147 97 359q-172 -203 -443 -203q-266 0 -458 174q-201 183 -201 445zM272 1094q0 -205 86 -349 q102 -174 293 -174q135 0 258 88q117 84 181 218q-14 305 -150 520q-121 190 -289 190q-190 0 -293 -157q-86 -135 -86 -336z" />
<glyph unicode=":" horiz-adv-x="405" d="M66 133q0 55 39.5 95t97.5 40q57 0 97 -40t40 -95q0 -57 -40 -97t-97 -40t-97 40t-40 97zM66 809q0 55 39.5 95t97.5 40q57 0 97 -40t40 -95q0 -57 -40 -97t-97 -40t-97 40t-40 97z" />
<glyph unicode=";" horiz-adv-x="401" d="M57 135q0 57 41 97t97 40q63 0 105 -50t42 -120q0 -80 -44 -147.5t-118 -101.5q-12 -6 -24 4q-8 14 2 24q41 53 47 117q-59 -4 -103.5 37t-44.5 100zM61 809q0 55 41 95t97 40q57 0 97 -40t40 -95q0 -57 -40 -97t-97 -40q-55 0 -96.5 40t-41.5 97z" />
<glyph unicode="?" horiz-adv-x="1472" d="M57 1427q-4 12 0 21q70 113 233 181.5t361 68.5q215 0 424 -80q156 -59 250 -189.5t94 -277.5q0 -188 -153 -320q-78 -63 -260 -124q-199 -68 -261 -111q-119 -80 -118 -225q0 -20 -21 -21h-78q-20 0 -20 21q0 154 76 266q66 96 209 188q119 76 198 195q90 131 90 260 q0 33 -6 66q-23 113 -119 172q-86 53 -206 53q-225 0 -351 -135q-94 -100 -94 -244q0 -43 10 -88q2 -12 -14 -19q-14 -6 -20 5zM438 135q0 57 39 97t96 40q55 0 96.5 -39.5t41.5 -97.5q0 -57 -41 -97t-97 -40q-57 0 -96 40t-39 97z" />
<glyph unicode="@" horiz-adv-x="1642" d="M-6 887q0 356 252 581q242 217 600 218q266 0 483 -166t291 -420q29 -92 29 -182q0 -311 -279 -441q-100 -47 -186 -47q-63 0 -109 29q-115 -39 -248 -39q-186 0 -324 74.5t-138 187.5q0 111 138 185.5t324 74.5q90 0 177 -18q0 117 -43 198q-51 100 -158 107 q-59 4 -97 -32t-38 -85q0 -92 106 -111q14 -2 14 -18q-2 -16 -16 -18q-86 -10 -158 20q-88 37 -88 119q0 94 105 145q82 41 188 41q160 0 273 -86q125 -94 125 -254v-372q0 -78 61 -78q92 0 135 129q31 90 31 207q0 147 -45 294q-63 207 -195 332q-154 145 -366 146 q-199 0 -344 -119q-135 -111 -201 -303q-47 -145 -47 -312q0 -401 241 -626q203 -186 467 -187q152 0 289 66q6 2 10 2q18 0 19 -27q0 -14 -10 -20q-168 -86 -359 -86q-299 0 -552 193.5t-331 488.5q-26 103 -26 209zM582 680q0 -76 71.5 -132t190.5 -56q86 0 176 28 q-18 37 -19 94v234q-82 20 -153 20q-121 0 -193.5 -56t-72.5 -132z" />
<glyph unicode="A" d="M29 18q0 18 20 19q72 0 144 63q63 55 96 129l522 1186q133 303 346 395q6 3 11 3q11 0 14 -13q8 -16 -11 -24q-78 -35 -77 -160q0 -102 41 -201l501 -1186q31 -72 86 -127q66 -66 131 -65h21q18 0 18 -19q0 -18 -18 -18h-700q-20 0 -21 18q0 16 21 19q104 6 104 96 q0 43 -31 86q-27 37 -104 96q-133 102 -322 103q-125 0 -233 -49q-117 -53 -180 -150q14 -84 75.5 -133t145.5 -49h51q20 0 20 -19q0 -18 -20 -18h-631q-20 0 -20 18zM465 422q158 102 356 102q229 0 393 -129q23 -16 35 -33l-397 943z" />
<glyph unicode="B" horiz-adv-x="1640" d="M18 20q0 18 21 19h39q72 0 122 63.5t50 137.5v1294q0 51 -37 84t-90 33h-33q-20 0 -20 18t20 19h176q145 8 432 20q37 1 71 1q490 0 491 -249q0 -147 -183 -248q221 -63 371 -206q174 -164 174 -375q0 -264 -257 -447.5t-615 -183.5h-711q-21 0 -21 20zM545 231 q0 -61 44 -103t107 -42h6q218 0 376 160q161 162 161 385q0 164 -117 305q-106 129 -270 197q-126 -30 -238 -30q-35 0 -69 3v-875zM545 1202q24 -1 46 0q398 0 398 205q0 94 -104 154q-90 49 -193 49q-147 0 -147 -86v-322z" />
<glyph unicode="C" horiz-adv-x="1447" d="M33 840q0 342 213 596q225 268 559 268q152 0 282 -62q27 55 77 95.5t106 40.5q20 0 20 -21q0 -6 -4 -10q-63 -88 -63 -197q0 -41 12 -120.5t12 -120.5q0 -127 -49 -213q-96 -168 -254 -168q-51 0 -90 22q-45 27 -45 76q0 41 40 74t81 33q23 0 22 -19q0 -6 -4 -16.5 t-4 -16.5q0 -43 37 -43q47 0 74 74q18 55 18 113q0 137 -90 254q-96 129 -231 129q-199 0 -314 -230q-92 -182 -92 -403q0 -109 21 -219q59 -311 237 -506q152 -164 322 -164q98 0 204 51q98 49 168 127q6 6 56 72q16 20 32 20q29 0 29 -32q0 -10 -8 -23 q-102 -147 -264 -235.5t-338 -88.5q-334 0 -559 269q-213 254 -213 594z" />
<glyph unicode="D" horiz-adv-x="1507" d="M25 20q0 18 20 19h37q72 0 122 63.5t50 137.5v1294q0 53 -36 85t-89 32h-35q-20 0 -20 18q0 20 20 21h518q354 0 612.5 -246t258.5 -600q0 -352 -258 -598t-613 -246h-567q-20 0 -20 20zM551 240q0 -135 74 -136h4q219 0 373 214q157 216 157 528q0 313 -159 532 q-157 217 -375 217h-4q-45 0 -60 -28q-10 -20 -10 -72v-1255z" />
<glyph unicode="E" horiz-adv-x="1306" d="M8 20q0 18 21 19h39q72 0 122 63.5t50 137.5v1294q0 53 -36 85t-89 32h-35q-20 0 -21 18q0 20 21 21h1200q19 0 19 -17q0 -102 -61 -194.5t-155 -155.5q-4 -4 -8 -4q-20 0 -20 20q0 2 14 32t14 61q0 100 -133 153q-100 37 -219 37h-67q-53 0 -90 -33t-37 -84v-893h200 q94 0 140 35q33 25 69 90q6 12 21 8q14 -4 14 -16v-328q0 -12 -14 -16q-12 -6 -21 6q-41 74 -84 100.5t-125 26.5h-200v-278q0 -86 61 -134q55 -41 145 -40q115 0 215 61q119 70 119 174q0 63 -47 117q-8 10 0 22t21 9q225 -94 225 -261q0 -41 -29 -100q-35 -68 -78 -88 h-1140q-21 0 -21 20z" />
<glyph unicode="F" horiz-adv-x="1318" d="M14 20q0 18 21 19h39q72 0 122 63.5t50 137.5v1294q0 53 -36 85t-89 32h-35q-20 0 -20 18q0 20 20 21h1200q19 0 19 -19q0 -100 -61.5 -192.5t-153.5 -155.5q-4 -4 -11 -4q-18 0 -18 20q0 2 14.5 32t14.5 61q0 100 -136 153q-98 37 -217 37h-67q-53 0 -90 -33t-37 -84 v-893h172q94 0 139 35q33 25 70 90q6 12 20 8t14 -16v-328q0 -12 -14 -16q-12 -6 -20 6q-41 74 -84 100.5t-125 26.5h-172v-278q0 -74 50 -137.5t124 -63.5h37q20 0 20 -19q0 -20 -20 -20h-719q-21 0 -21 20z" />
<glyph unicode="G" horiz-adv-x="1564" d="M31 819q0 414 291 678q219 199 503 199q184 0 340 -92q69 117 180 117q7 0 15 -1q12 0 16 -12q6 -12 -4 -20q-86 -86 -86 -220q0 -43 13.5 -127t13.5 -127q0 -104 -41 -174q-94 -166 -250 -168q-53 0 -92 23q-49 27 -53 76q-1 6 -1 10q0 78 115 96q10 2 19 -8 q6 -10 0 -20t-6 -23q0 -39 43 -43h3q33 0 56 41q35 59 35 139q0 127 -74 254q-107 186 -260 186q-14 0 -29 -1q-211 -23 -327 -269q-96 -197 -97 -436q0 -356 176 -604q152 -213 332 -217h7q78 0 146 47q71 49 70 129q0 117 -143 162q-14 4 -14 28q4 25 20 25h568 q18 0 18 -25q4 -20 -14 -26q-88 -25 -119 -64q-16 -25 -31 -96q-96 -129 -255 -202.5t-329 -73.5q-360 0 -587 311q-168 231 -168 528z" />
<glyph unicode="H" horiz-adv-x="1742" d="M51 20q0 18 21 19h39q72 0 122 63.5t50 137.5v1294q0 51 -37 84t-88 33h-37q-18 0 -19 18q0 20 19 21h618q20 0 21 -21q0 -18 -21 -18h-34q-53 0 -89 -32t-36 -85v-950h585v950q0 51 -36.5 84t-88.5 33h-34q-20 0 -21 18q0 20 21 21h616q20 0 20 -21q0 -18 -20 -18h-35 q-51 0 -88 -33t-37 -84v-1294q0 -74 50.5 -137.5t121.5 -63.5h39q20 0 21 -19q0 -20 -21 -20h-719q-20 0 -20 20q0 18 20 19h39q72 0 122 63.5t50 137.5v266h-585v-266q0 -74 50 -137.5t122 -63.5h39q20 0 20 -19q0 -20 -20 -20h-719q-21 0 -21 20z" />
<glyph unicode="I" horiz-adv-x="872" d="M57 20q0 18 19 19h39q72 0 122 63.5t50 137.5v1294q0 53 -36 85t-89 32h-35q-20 0 -21 18q0 20 21 21h618q20 0 21 -21q0 -18 -21 -18h-34q-53 0 -90 -33t-37 -84v-1294q0 -74 50 -137.5t124 -63.5h37q20 0 20 -19q0 -20 -20 -20h-719q-19 0 -19 20z" />
<glyph unicode="J" horiz-adv-x="1499" d="M25 506q0 205 142 354.5t345 149.5q152 0 256 -92q109 -98 109 -248q0 -129 -97.5 -219.5t-228.5 -90.5q-84 0 -137 48q-59 49 -60 131q0 94 113 151v-26q0 -104 76 -105q92 0 92 127q0 72 -39 123q-45 57 -115 57q-121 0 -186 -106q-57 -88 -57 -217q0 -158 116.5 -284 t272.5 -126t262 114.5t106 270.5v1014q0 51 -36.5 84t-88.5 33h-34q-20 0 -21 18q0 18 21 19h618q20 0 21 -19q0 -18 -21 -18h-35q-51 0 -89 -33t-38 -84v-1012q0 -78 56 -112q-94 -190 -293 -302q-190 -106 -410 -106q-258 0 -426 127q-194 148 -194 379z" />
<glyph unicode="K" horiz-adv-x="1656" d="M25 20q0 18 20 19h37q74 0 124 63.5t50 137.5v1294q0 51 -37 84t-90 33h-33q-20 0 -20 18t20 19h617q20 0 20 -19q0 -18 -20 -18h-31q-55 0 -92 -32t-37 -85v-1055q330 344 596 842q37 70 37 121q0 82 -88 82q-20 0 -43 -4q92 164 252 168h8q115 0 115 -115 q0 -106 -111 -285q-188 -305 -545 -700h23q119 0 284 -232l76 -106q51 -68 88 -90q78 -49 164 -49q80 0 117 53q20 29 20 56q0 17 -8 34q-18 41 -72 53q18 84 80 84q39 0 62.5 -34.5t23.5 -75.5q0 -23 -6 -48q-16 -70 -91 -142.5t-141.5 -88.5t-129.5 -16q-150 0 -277 102 q-59 47 -209 219q-88 100 -139 101q-53 0 -86 -64v-104q0 -74 50 -137.5t124 -63.5h37q20 0 20 -19q0 -20 -20 -20h-719q-20 0 -20 20z" />
<glyph unicode="L" horiz-adv-x="1413" d="M18 20q0 18 21 19h35q72 0 122 63.5t50 137.5v1294q0 51 -37 84t-90 33h-33q-20 0 -20 18t20 19h657q20 0 21 -19q0 -18 -21 -18h-75q-53 0 -89 -32t-36 -85v-1294q0 -72 49 -121t123 -51q7 0 14 -1q82 0 150 44q86 51 86 137q0 96 -125 170q84 47 157 47q84 0 154 -61.5 t92 -163.5q29 -131 152 -191q-90 -49 -150 -49h-1206q-21 0 -21 20z" />
<glyph unicode="M" horiz-adv-x="2025" d="M47 20q0 18 47 19q74 0 131 65q51 61 56 138q29 408 69 1222v11q2 86 -65 133q-59 43 -150 43q-29 0 -29 18t21 19h436l451 -467l389 467h426q20 0 20 -19q0 -18 -30 -18q-88 0 -145.5 -47.5t-57.5 -135.5v-20l113 -1206q8 -76 63 -139.5t129 -63.5q57 0 57 -19 q0 -20 -20 -20h-717q-20 0 -20 20q0 18 53 19q72 0 116 55.5t44 128.5q0 8 -2 17l-105 1181l-403 -487l-465 455q-27 -383 -64 -1149v-11q-2 -70 44 -130t116 -60q78 0 78 -19q0 -20 -21 -20h-544q-21 0 -21 20zM772 530q0 133 76 221.5t207 88.5q-37 -51 -37 -109 q0 -49 49 -168t49 -203q0 -133 -69.5 -236.5t-190.5 -156.5q37 94 37 168q0 68 -60.5 189.5t-60.5 205.5z" />
<glyph unicode="N" horiz-adv-x="1558" d="M37 1669q0 18 20 19h488l682 -1133v979q0 51 -36 83t-89 32h-35q-20 0 -20 20q0 18 20 19h426q20 0 20 -19q0 -20 -20 -20h-35q-51 0 -89 -32t-38 -83v-1190q0 -121 47 -260q51 -164 131 -225q13 -10 13 -20q0 -4 -2 -9q-5 -9 -14 -9q-5 0 -11 3q-104 39 -178 110 q-53 55 -125 168l-733 1186v-1048q0 -74 49 -136q51 -68 123 -67h39q20 0 20 -19q0 -18 -20 -18h-527q-18 0 -18 18t18 19h39q72 0 125 67q47 61 47 136v1218q-61 102 -116 141q-70 49 -181 50q-20 0 -20 20z" />
<glyph unicode="O" horiz-adv-x="1837" d="M31 831q0 356 266 609q262 246 621 246q360 0 624 -248t264 -607q0 -350 -262 -602t-626 -252q-362 0 -624.5 252t-262.5 602zM319 934q0 -127 33 -254q63 -240 232 -414q188 -195 417 -194q59 0 117 14q195 51 305 250q96 174 97 393q0 127 -35 254q-63 240 -232 414 q-188 195 -417 194q-59 0 -117 -14q-195 -51 -305 -250q-95 -174 -95 -393z" />
<glyph unicode="P" horiz-adv-x="1497" d="M18 20q0 18 23 19h37q72 0 122 63.5t50 137.5v1294q0 51 -37 84t-88 33h-35q-20 0 -20 18t20 19h662q324 0 520 -107q207 -113 207 -278q0 -190 -248 -307t-592 -117q-61 0 -92 2v-641q0 -74 50 -137.5t124 -63.5h37q18 0 18 -19q0 -20 -18 -20h-717q-23 0 -23 20z M547 961q45 -6 92 -7q199 0 338 99q133 96 133 231t-133 231.5t-328 96.5q-102 0 -102 -107v-544z" />
<glyph unicode="Q" horiz-adv-x="1830" d="M29 831q0 356 266 609q260 246 620 246t621 -246q268 -250 268 -609q0 -350 -262 -602q-150 -141 -336 -204q66 -66 117 -96.5t102 -30.5q57 0 104.5 38.5t47.5 92.5q0 57 -57 67q-16 0 -21 4q-10 6 -6 19q14 63 76 63q41 0 63.5 -32.5t22.5 -75.5q0 -20 -4 -45 q-27 -109 -101.5 -174.5t-183.5 -65.5q-195 0 -352 195q-49 -6 -99 -7q-362 0 -624 252t-262 602zM315 934q0 -127 35 -254q59 -227 211 -393q170 -186 385 -213q-162 215 -266 215q-29 0 -49 -17q-16 -12 -29 4q-14 12 4 27q94 76 180 76q100 0 205 -100l154 -183 q182 61 282 254q88 170 89 379q0 127 -33 254q-66 240 -232 414q-188 195 -420 194q-59 0 -114 -14q-197 -51 -305 -250q-97 -174 -97 -393z" />
<glyph unicode="R" horiz-adv-x="1896" d="M14 18q0 20 19 21h39q72 0 122 63.5t50 137.5v1294q0 117 -160 117q-20 0 -21 18q0 18 21 19h661q262 0 461 -86q268 -115 269 -345q0 -182 -244 -303q-178 -88 -400 -114q123 -63 211 -183q61 -86 136 -247q88 -197 155 -273q109 -123 281 -127h6q84 0 145 51 q27 23 27 62q0 27 -20 27q-6 0 -60 -27q0 123 98 125h4q62 0 68 -76q1 -8 1 -16q0 -105 -101 -160q-88 -49 -232 -49q-109 0 -188 26q-242 78 -395 273q-74 94 -162 239l-150 246l-34 53q-23 29 -48 43q-4 2 -32 2v-589q0 -74 50 -137.5t122 -63.5h39q20 0 20 -19 q0 -20 -20 -20h-719q-19 0 -19 18zM541 928q43 -6 88 -6q184 0 315 84q152 96 152 264q0 164 -148 260q-129 82 -305 82q-102 0 -102 -107v-577z" />
<glyph unicode="S" horiz-adv-x="1378" d="M16 1092q0 45 7 92q35 240 301 389q229 133 489 133q395 0 549 -258l-114 -173l-115 -175l-35 14q10 45 10 86q0 174 -133 281q-121 98 -295 98q-164 0 -285 -78q-133 -88 -145 -233q-1 -10 -1 -19q0 -130 134 -209q82 -47 313 -108q272 -72 377 -141q165 -112 165 -312 q0 -16 -1 -33q-12 -225 -184 -352q-180 -135 -432 -135q-152 0 -287 53l-82 -86l-203 488l109 10q33 -172 190 -274q145 -94 328 -95q143 0 241.5 60.5t108.5 154.5q2 15 2 30q0 131 -149 214q-82 45 -297 102q-276 74 -385 144q-181 117 -181 332z" />
<glyph unicode="T" horiz-adv-x="1517" d="M8 1339q0 25 189 416q6 12 16 12q18 0 18 -18q0 -6 -20 -49h1239q31 59 41 59q18 0 18 -20q0 -2 -28 -64l-156 -340q-6 -14 -16 -14q-20 0 -21 16q0 4 2 11q12 35 13 82q0 86 -49.5 139t-135.5 53h-217v-1384q0 -74 47 -134q51 -66 123 -65q59 0 59 -21q0 -18 -20 -18 h-715q-18 0 -18 18q0 20 57 21q74 0 123 62.5t49 136.5v1384h-137q-147 0 -239.5 -58.5t-186.5 -230.5q-6 -12 -16 -12q-19 0 -19 18z" />
<glyph unicode="U" horiz-adv-x="1597" d="M18 1667q0 18 21 19h618q18 0 19 -19q0 -16 -29 -20h-43q-47 -6 -81 -37q-29 -26 -28 -63q0 -7 1 -13q14 -156 26 -311q25 -281 58 -478q104 -625 309 -624q113 0 203 153q121 205 159 611q5 72 17 206.5t19.5 244.5t7.5 207q0 43 -37 73q-40 33 -91 33h-34q-14 0 -19 18 q0 18 19 19h426q20 0 20 -19q0 -18 -20 -18q-150 0 -160 -119q-20 -350 -43 -701q-45 -449 -189.5 -649t-349.5 -200q-197 0 -336 190q-147 201 -211 653l-71 707q-14 119 -160 119q-21 0 -21 18z" />
<glyph unicode="V" horiz-adv-x="1439" d="M29 1667q0 18 20 19h617q20 0 20 -19q0 -18 -20 -18q-88 0 -111 -32q-14 -19 -14 -45q0 -16 6 -34l371 -1176q106 178 194 447q89 273 89 444q0 18 -1 35q-14 201 -184 201q-86 0 -142 -103q-10 -18 -26 -10q-14 6 -8 25q55 170 182 252q74 49 156 49q115 0 178 -88 q55 -76 55 -193q0 -252 -223 -739q-160 -350 -367 -692h-43l-526 1536q-18 53 -66.5 88t-101.5 35h-35q-20 0 -20 18z" />
<glyph unicode="W" horiz-adv-x="1865" d="M25 1667q0 18 20 19h1145q20 0 20 -19q0 -18 -20 -18q-88 0 -112 -32q-15 -20 -14 -46q0 -16 5 -33l369 -1176q86 158 149 392q66 244 66 420q0 244 -123 299q-37 16 -88 16q-82 0 -144 -103q-8 -18 -24 -10t-8 25q39 123 123 205q96 96 213 96q80 0 141 -48t84 -134 q14 -51 14 -121q0 -258 -180 -729q-152 -403 -318 -680h-43l-208 604l-275 -604h-41l-526 1536q-18 53 -66.5 88t-103.5 35h-35q-20 0 -20 18zM551 1520l356 -1104l142 307l-283 827q-29 84 -111 99q-66 0 -88 -23q-25 -23 -24 -60q0 -20 8 -46z" />
<glyph unicode="X" horiz-adv-x="1589" d="M31 1667q0 18 20 19h619q23 0 22 -19q0 -18 -22 -18q-59 0 -78 -35q-10 -20 -10 -49q0 -39 18 -78l211 -420q172 176 227 297q31 63 31 111q0 74 -78 110q-16 8 -37 8q-43 0 -88 -32q-16 -12 -28 -2q-12 12 2 28q86 104 211 119q16 2 30 2q73 0 128 -42q67 -50 67 -138 q0 -123 -168 -311q-98 -111 -252 -240l354 -713q37 -76 119 -145q94 -82 172 -82h37q20 0 21 -21q0 -18 -21 -18h-719q-20 0 -20 18q0 20 20 21q127 0 127 100q0 49 -28 107l-263 522l-28 -29q-104 -111 -168 -200q-129 -180 -129 -279q0 -76 73 -104q12 -4 27 -4 q41 0 82 34q12 10 25 11q35 0 34 -37q0 -25 -59 -78q-102 -92 -215 -92q-121 0 -180 96q-27 45 -27 100q0 135 150 326q115 145 356 375l-305 608q-78 156 -205 156h-35q-20 0 -20 18z" />
<glyph unicode="Y" horiz-adv-x="1783" d="M16 1669q0 18 21 19h702q20 0 21 -19q0 -16 -49 -19t-49 -44q0 -47 65 -109l330 -311l225 258q37 43 37 92q0 51 -37 83t-90 32h-35q-20 0 -20 18t20 19h590q20 0 20 -19q0 -18 -20 -18q-74 0 -132.5 -30t-113.5 -91l-371 -422v-868q0 -74 50.5 -137.5t122.5 -63.5 q59 0 59 -19q0 -20 -21 -20h-718q-20 0 -21 20q0 18 60 19q72 0 122 63.5t50 137.5v794l-515 482q-76 76 -131 105.5t-151 29.5q-21 0 -21 18z" />
<glyph unicode="Z" horiz-adv-x="1904" d="M33 18q0 20 37 21q90 0 213 98q109 84 163 176l719 1190q-74 -23 -202 -24h3h-208q-227 0 -291 -99q-16 -29 -16 -53q0 -90 149 -90q31 0 31 -16q0 -45 -76 -72q-61 -23 -117 -23q-94 0 -150.5 56.5t-56.5 150.5q0 123 88 226q84 96 205 129q106 29 246 28q86 0 262 -16 q223 -20 428 -21q4 0 256 9h4q31 0 31 -17q0 -16 -33 -22q-16 -4 -49 -15q-152 -63 -291 -291l-751 -1237h344q160 0 276 56q147 72 148 215q0 68 -45 130t-111 62q-104 0 -104 -71q0 -51 59 -52q14 0 29.5 7.5t21.5 7.5h6q8 -6 9 -21q0 -55 -48.5 -94t-105.5 -39 q-59 0 -100 40t-41 99q0 115 104 187q90 63 209 63q162 0 276 -94q125 -100 121 -258v-27v-12q0 -179 119 -244q8 -4 61 -20q16 -6 17 -23q0 -18 -21 -18h-1798q-20 0 -20 18z" />
<glyph unicode="_" horiz-adv-x="956" d="M0 -20h956v-123h-956v123z" />
<glyph unicode="`" horiz-adv-x="608" d="M43 1927h256l266 -336h-151z" />
<glyph unicode="a" horiz-adv-x="1693" d="M27 16q0 16 18 17q61 0 125 55q57 49 86 115l459 1042q117 268 305 348q6 3 10 3q9 0 10 -11q8 -14 -8 -22q-70 -31 -69 -142q0 -90 36 -176l443 -1042q27 -63 74 -113q57 -57 116 -57h19q16 0 16 -17q0 -16 -16 -16h-617q-18 0 -18 16t18 17q90 4 90 84q0 39 -24.5 73.5 t-93.5 88.5q-117 88 -283 88q-250 0 -363 -174q10 -72 64.5 -116t130.5 -44h45q16 0 16 -17q0 -16 -16 -16h-555q-18 0 -18 16zM410 373q139 88 315 88q201 0 344 -113q20 -14 31 -29l-348 830z" />
<glyph unicode="b" horiz-adv-x="1460" d="M25 18q0 16 18 17h35q61 0 108 57q41 53 41 119v1139q0 47 -32.5 74.5t-77.5 27.5h-29q-18 0 -18 16t18 17h154q129 8 381 18q32 1 62 1q431 0 431 -220q0 -129 -160 -217q195 -57 326 -182q154 -145 154 -330q0 -233 -226.5 -394t-541.5 -161h-625q-18 0 -18 18z M487 205q0 -55 39 -92t95 -37h5q193 0 331 140q140 142 141 339q0 143 -103 268q-94 115 -237 174q-112 -27 -213 -27q-29 0 -58 3v-768zM487 1059q23 -1 46 -1q346 0 346 181q0 82 -93 133q-78 45 -170 45q-129 0 -129 -76v-282z" />
<glyph unicode="c" horiz-adv-x="1273" d="M29 743q0 299 188 523q197 238 492 237q133 0 247 -55q55 119 162 119q16 0 17 -17q0 -6 -2 -10q-55 -78 -56 -174q0 -35 10.5 -105.5t10.5 -105.5q0 -113 -43 -188q-84 -147 -224 -148q-47 0 -79 21q-39 23 -39 65q0 37 33.5 65.5t72.5 28.5q18 0 19 -16q0 -4 -4.5 -13 t-4.5 -16q0 -39 35 -39q39 0 64 66q16 49 16 98q0 121 -78 226q-86 113 -204 112q-176 0 -277 -200q-80 -162 -80 -357q0 -96 19 -192q51 -274 208 -445q133 -145 283 -145q86 0 176 45t152 113q4 4 49 63q12 18 27 18q27 0 26 -28q0 -10 -6 -21q-90 -131 -232.5 -207.5 t-297.5 -76.5q-295 0 -492 235q-188 223 -188 524z" />
<glyph unicode="d" horiz-adv-x="1345" d="M82 16q0 16 18 17h33q61 0 109 57q41 55 41 119v1141q0 45 -32 73.5t-77 28.5h-31q-18 0 -18 16t18 17h455q313 0 539 -213q227 -219 227 -531q0 -309 -227.5 -525t-538.5 -216h-498q-18 0 -18 16zM545 209q0 -117 65 -119h4q190 0 328 189q139 190 139 464t-141 471 q-138 188 -330 189h-4q-61 0 -61 -88v-1106z" />
<glyph unicode="e" horiz-adv-x="1171" d="M18 16q0 16 19 17h35q61 0 108 57q41 55 41 119v1141q0 45 -31.5 73.5t-76.5 28.5h-31q-18 0 -19 16q0 16 19 17h1055q17 0 17 -13q0 -89 -53.5 -170.5t-135.5 -138.5q-4 -4 -9 -4q-18 0 -18 19q0 2 13.5 28.5t13.5 53.5q0 88 -119 133q-86 33 -191 32h-59 q-47 0 -80 -27.5t-33 -74.5v-784h176q82 0 123 30q29 20 62 78q6 10 18 8q12 -4 12 -14v-289q0 -12 -12 -14q-12 -6 -18 6q-37 63 -74 87t-111 24h-176v-246q0 -152 183 -152q100 0 190 54q102 61 102 153q0 55 -40 103q-8 8 0 20q6 10 18 6q199 -82 199 -229q0 -35 -27 -88 q-29 -59 -68 -76h-1003q-19 0 -19 16z" />
<glyph unicode="f" horiz-adv-x="1157" d="M14 16q0 16 17 17h35q63 0 107 56t44 120v1141q0 45 -31.5 73.5t-79.5 28.5h-30q-16 0 -17 16q0 16 17 17h1057q17 0 16 -15q0 -87 -54 -169t-134 -138q-4 -4 -9 -4q-18 0 -18 19q0 2 13.5 28.5t13.5 53.5q0 88 -119 133q-86 33 -193 32h-59q-45 0 -78 -27.5t-33 -74.5 v-784h152q82 0 121 30q29 20 61 78q6 10 18 8q12 -4 13 -14v-289q0 -12 -13 -14q-12 -6 -18 6q-37 63 -74 87t-108 24h-152v-246q0 -63 44 -119.5t108 -56.5h33q18 0 18 -17q0 -16 -18 -16h-633q-17 0 -17 16z" />
<glyph unicode="g" horiz-adv-x="1380" d="M29 721q0 362 256 596q193 176 444 176q162 0 299 -82q60 103 159 103q6 0 11 -1q12 0 16 -12q2 -10 -4 -16q-78 -78 -78 -185q0 -19 3 -38q23 -158 22 -195q0 -90 -37 -152q-84 -145 -219 -147h-8q-42 0 -74 18q-43 25 -45 68q-1 5 0 11q0 68 100 83q8 0 14.5 -8 t2.5 -18q-6 -8 -6 -19q0 -35 39 -39h2q27 0 49 37q31 51 31 123q0 113 -66 223q-94 163 -229 163q-12 0 -25 -1q-186 -20 -289 -235q-84 -174 -84 -386q0 -313 156 -530q133 -186 291 -192q3 0 6 -1q68 0 128 43q62 44 62 113q0 102 -125 144q-12 4 -12 24q2 20 17 21h499 q16 0 17 -21q4 -18 -13 -24q-78 -20 -104 -56q-16 -20 -27 -84q-86 -115 -229 -180q-135 -63 -285 -63q-319 0 -518 274q-147 203 -147 465z" />
<glyph unicode="h" horiz-adv-x="1499" d="M27 16q0 16 18 17h35q61 0 106 56t45 120v1141q0 45 -32.5 73.5t-77.5 28.5h-33q-16 0 -16 16t16 17h545q18 0 18 -17q0 -16 -18 -16h-31q-47 0 -78.5 -28.5t-31.5 -73.5v-838h516v838q0 45 -33 73.5t-78 28.5h-31q-18 0 -18 16t18 17h543q18 0 18 -17q0 -16 -18 -16h-31 q-45 0 -77.5 -28.5t-32.5 -73.5v-1141q0 -63 45 -119.5t106 -56.5h35q18 0 19 -17q0 -16 -19 -16h-633q-18 0 -18 16t18 17h35q63 0 107.5 56t44.5 120v235h-516v-235q0 -63 44 -119.5t107 -56.5h35q18 0 18 -17q0 -16 -18 -16h-633q-18 0 -18 16z" />
<glyph unicode="i" horiz-adv-x="737" d="M35 16q0 16 16 17h35q63 0 107.5 56t44.5 120v1141q0 45 -32 73.5t-79 28.5h-31q-18 0 -18 16t18 17h545q18 0 18 -17q0 -16 -18 -16h-31q-47 0 -79.5 -28.5t-32.5 -73.5v-1141q0 -63 45 -119.5t108 -56.5h33q18 0 18 -17q0 -16 -18 -16h-633q-16 0 -16 16z" />
<glyph unicode="j" horiz-adv-x="1335" d="M70 444q0 180 126 312.5t304 132.5q133 0 227 -84t94 -217q0 -113 -86 -193t-200 -80q-74 0 -124.5 43t-50.5 115q0 82 101 133v-22q-2 -92 65 -92q82 0 82 110q0 63 -36.5 111.5t-98.5 48.5q-106 0 -166 -94q-49 -78 -49 -191q0 -139 102.5 -249.5t239.5 -110.5 t231.5 100t94.5 238v893q0 45 -33 73.5t-78 28.5h-31q-18 0 -18 16t18 17h545q18 0 19 -17q0 -16 -19 -16h-31q-47 0 -79.5 -28.5t-32.5 -73.5v-891q0 -68 49 -101q-82 -166 -258 -264q-166 -94 -361 -94q-227 0 -374 113q-172 130 -172 333z" />
<glyph unicode="k" horiz-adv-x="1454" d="M45 16q0 16 18 17h33q63 0 111 57q41 53 41 119v1139q0 47 -33 74.5t-78 27.5h-28q-18 0 -19 16q0 16 19 17h542q16 0 17 -17q0 -16 -17 -16h-28q-47 0 -80 -27.5t-33 -74.5v-928q291 303 524 741q33 60 33 104q0 16 -4 29q-14 45 -74 45q-18 0 -37 -4q80 143 222 148h7 q99 0 99 -101q0 -94 -96 -249q-166 -270 -479 -617h20q104 0 250 -205l67 -94q45 -57 76 -78q70 -45 146 -45q70 0 100 45q19 28 19 53q0 15 -7 29q-16 35 -63 47q18 74 71 74q35 0 55.5 -30.5t20.5 -67.5q0 -82 -86 -166q-66 -63 -125 -77.5t-112 -14.5q-133 0 -246 90 q-51 41 -182 192q-78 88 -123 88q-47 0 -76 -55v-92q0 -66 44 -121t110 -55h32q16 0 17 -19q0 -16 -17 -16h-633q-18 0 -18 18z" />
<glyph unicode="l" horiz-adv-x="1245" d="M27 16q0 16 16 17h31q63 0 107 56t44 120v1141q0 45 -32.5 73.5t-77.5 28.5h-29q-18 0 -18 16t18 17h578q18 0 18 -17q0 -16 -18 -16h-68q-45 0 -77 -28.5t-32 -73.5v-1141q0 -61 43 -104.5t109 -47.5h7q74 0 141 41q71 43 71 119q0 86 -110 150q74 41 139 41 q74 0 135 -53.5t82 -145.5q25 -115 133 -166q-80 -45 -131 -45h-1063q-16 0 -16 18z" />
<glyph unicode="m" horiz-adv-x="1728" d="M14 14q0 16 41 17q66 0 113 55t53 123q25 358 60 1077l2 8q2 76 -60 119q-53 37 -131 37q-25 0 -24 16q0 16 18 17h383l397 -412l342 412h375q18 0 19 -17q0 -16 -29 -16q-78 0 -128 -42t-50 -118v-18l100 -1063q6 -66 55 -122t113 -56q51 0 51 -17q0 -18 -18 -18h-631 q-18 0 -18 18q0 16 47 17q63 0 104 51q35 47 35 111v14l-92 1040l-355 -428l-409 400q-23 -336 -55 -1012v-8q-2 -61 38.5 -114.5t100.5 -53.5q70 0 69 -17q0 -18 -18 -18h-479q-19 0 -19 18zM653 463q0 119 66.5 195.5t181.5 76.5q-33 -45 -33 -94q0 -45 43 -148.5 t43 -179.5q0 -244 -227 -346q33 84 33 150q0 57 -53.5 165.5t-53.5 180.5z" />
<glyph unicode="n" horiz-adv-x="1347" d="M20 1470q0 16 19 17h430l600 -998v863q0 45 -32.5 72.5t-78.5 27.5h-30q-18 0 -19 18q0 16 19 17h375q18 0 18 -17q0 -18 -18 -18h-31q-45 0 -78 -27.5t-33 -72.5v-1047q0 -106 39 -231q47 -141 117 -197q12 -9 12 -18q0 -3 -2 -6q-5 -8 -14 -9q-4 0 -8 2q-92 33 -158 99 q-47 47 -109 147l-645 1043v-922q0 -66 44 -122t108 -56h33q18 0 18 -17q0 -16 -18 -16h-463q-16 0 -17 16q0 16 17 17h35q63 0 107 56t44 122v1071q-55 90 -104 125q-59 43 -158 43q-19 0 -19 18z" />
<glyph unicode="o" horiz-adv-x="1615" d="M27 729q0 315 232.5 533.5t547.5 218.5q317 0 549.5 -218.5t232.5 -533.5q0 -307 -230.5 -529.5t-551.5 -222.5q-315 0 -545 218q-235 221 -235 534zM281 819q0 -113 28 -223q57 -211 203 -365q166 -172 369 -172q53 0 102 15q172 45 268 219q84 154 84 346 q0 113 -28 223q-57 211 -203 365q-166 172 -371 172q-51 0 -100 -15q-172 -45 -268 -219q-84 -153 -84 -346z" />
<glyph unicode="p" horiz-adv-x="1312" d="M31 16q0 16 20 17h31q63 0 111 57q41 55 40 119v1141q0 45 -31.5 73.5t-76.5 28.5h-31q-18 0 -18 16t18 17h582q287 0 457 -94q184 -100 184 -246q0 -168 -218 -270.5t-521 -102.5q-55 0 -82 2v-565q0 -63 44 -119.5t109 -56.5h33q16 0 16 -17q0 -18 -16 -18h-631 q-20 0 -20 18zM496 844q41 -4 82 -4q174 0 294.5 85t120.5 205q0 119 -117.5 203t-289.5 84q-90 0 -90 -94v-479z" />
<glyph unicode="q" horiz-adv-x="1605" d="M20 717q0 315 234 536q231 215 547 215q317 0 547 -215q236 -221 235 -536q0 -307 -231 -529q-129 -125 -295 -180q57 -57 103 -84.5t91 -27.5q49 0 91 33.5t42 82.5t-51 60q-14 0 -20 4t-4 14q12 55 67 55q76 0 76 -94q0 -18 -4 -39q-23 -96 -88.5 -153.5t-161.5 -57.5 q-172 0 -311 170q-43 -4 -86 -4q-315 0 -545 217q-236 222 -236 533zM274 807q0 -111 29 -223q53 -199 186 -346q150 -164 338 -187q-141 188 -233 189q-25 0 -43 -15q-14 -10 -27 4q-10 12 4 23q84 68 160 67q88 0 180 -90q10 -10 136 -157q160 53 247 223q78 147 78 334 q0 111 -29 223q-57 211 -202 362q-166 172 -371 172q-51 0 -100 -12q-172 -45 -269 -221q-84 -153 -84 -346z" />
<glyph unicode="r" horiz-adv-x="1685" d="M37 18q0 16 16 17h35q63 0 109 59q43 53 43 119v1139q0 102 -142 102q-18 0 -18 16t18 17h582q231 0 407 -76q236 -102 236 -303q0 -160 -215 -266q-156 -78 -352 -101q109 -55 186 -161q55 -76 119 -218q78 -172 137 -239q96 -109 248 -113h6q72 0 127 45q23 20 23 56 q0 31 -31 18q-14 -6 -39 -18q0 106 86 108h3q54 0 60 -65q1 -8 1 -16q0 -92 -89 -140q-78 -43 -204 -43q-94 0 -166 22q-213 70 -349 240q-63 82 -141 211l-131 217q-23 37 -33 47q-18 25 -39 37q-4 2 -30 2v-518q0 -66 43 -119q45 -59 108 -59h35q18 0 19 -15 q0 -18 -19 -18h-633q-16 0 -16 16zM500 817q39 -4 78 -4q162 0 278 74q133 84 133 231q0 145 -131 230q-113 72 -268 71q-90 0 -90 -92v-510z" />
<glyph unicode="s" horiz-adv-x="1222" d="M18 956q0 39 7 80q31 211 264 344q203 117 432 117q346 0 483 -227l-102 -154l-101 -153l-30 14q8 37 8 76q0 152 -117 245q-106 86 -260 86q-143 0 -250 -67q-119 -78 -127 -205q-1 -9 0 -19q0 -114 117 -182q72 -41 276 -96q238 -63 330 -125q146 -98 146 -277v-24 q-12 -199 -162 -311q-160 -119 -383 -119q-133 0 -250 47l-72 -76l-180 430l96 9q29 -152 168 -242q127 -84 289 -84q125 0 211 53.5t96 136.5q2 13 2 27q0 115 -131 189q-74 39 -262 90q-244 66 -340 127q-158 102 -158 290z" />
<glyph unicode="t" horiz-adv-x="1349" d="M14 1182q0 23 166 366q6 10 15 11q16 0 16 -17q0 -4 -18 -43h1091q25 51 35 51q16 0 16 -16q0 -2 -24 -55l-137 -299q-6 -14 -15 -15q-18 0 -18 17q0 4 6 32.5t6 47.5q0 76 -43 123t-119 47h-190v-1219q0 -66 43 -120t106 -54q51 0 51 -19q0 -16 -16 -16h-629 q-16 0 -16 16q0 18 49 19q66 0 109 54t43 120v1219h-121q-129 0 -211 -51.5t-164 -202.5q-6 -12 -14 -13q-17 1 -17 17z" />
<glyph unicode="u" horiz-adv-x="1411" d="M18 1464q0 16 19 17h545q14 0 14 -17q0 -14 -21.5 -16t-39.5 -2q-41 -4 -71 -32q-26 -24 -26 -57q0 -41 3 -89.5t12 -130.5l14 -127t22 -176t23 -181q92 -549 272 -549q98 0 179 136q106 178 141 536q4 64 14.5 182.5t16.5 215.5t6 182q0 37 -31 63q-35 29 -80 29h-31 q-14 0 -16 16q0 16 16 17h375q18 0 19 -17q0 -16 -19 -16q-133 0 -141 -105l-37 -616q-41 -395 -168 -571t-307 -176q-172 0 -295 167q-131 176 -186 576l-64 620q-12 104 -139 105q-19 0 -19 16z" />
<glyph unicode="v" horiz-adv-x="1253" d="M18 1466q0 16 19 17h543q16 0 16 -17q0 -16 -16 -16q-78 0 -99 -29q-12 -17 -12 -38q0 -15 6 -31l326 -1035q94 158 172 394q77 232 77 381q0 21 -1 41q-10 176 -162 176q-74 0 -125 -90q-8 -16 -23 -9q-12 6 -8 21q51 152 162 223q66 41 137 41q100 0 156 -76 q49 -68 49 -170q0 -221 -197 -651q-139 -307 -321 -608h-39l-463 1351q-16 47 -58 78t-89 31h-31q-19 0 -19 16z" />
<glyph unicode="w" horiz-adv-x="1632" d="M16 1466q0 16 19 17h1007q18 0 19 -17q0 -16 -19 -16q-78 0 -98 -28q-13 -17 -13 -40q0 -14 5 -30l326 -1035q84 154 141 383q47 192 47 331q0 42 -4 79q-16 145 -105 184q-33 14 -77 15q-72 0 -125 -90q-8 -16 -23 -9q-14 6 -6 21q35 109 107 182q84 82 188 82 q158 0 199 -160q11 -39 10 -89v-17q0 -227 -156 -641q-135 -354 -280 -598h-37l-185 532l-241 -532h-37l-463 1351q-16 47 -58 78t-91 31h-31q-19 0 -19 16zM481 1335l314 -970l123 270l-248 729q-25 74 -99 86q-55 0 -75 -20q-22 -21 -22 -53q-1 -19 7 -42z" />
<glyph unicode="x" horiz-adv-x="1386" d="M20 1466q0 16 19 17h545q20 0 20 -17q0 -16 -20 -16q-53 0 -70 -31q-11 -20 -10 -43q0 -31 18 -67l187 -371q150 154 198 262q27 55 27 98q0 63 -68 97q-14 6 -32 6q-37 0 -78 -29q-14 -10 -25 -2q-10 10 2 27q76 90 185 104q13 1 25 1q66 0 115 -37q58 -44 58 -122 q0 -109 -147 -274q-86 -96 -221 -211l311 -627q33 -66 104 -127q82 -74 152 -73h33q18 0 18 -17q0 -16 -18 -16h-633q-18 0 -19 16q0 16 19 17q86 0 106 55q6 16 6 35q0 40 -26 92l-230 461q-12 -14 -26 -27q-90 -96 -148 -176q-113 -158 -112 -246q0 -37 24.5 -65.5 t61.5 -28.5q29 0 57.5 19.5t36.5 19.5q31 0 31 -33q0 -20 -52 -67q-90 -82 -190 -82q-106 0 -158 86q-23 39 -22 88q0 119 131 287q100 127 313 329l-268 535q-68 137 -180 137h-31q-19 0 -19 16z" />
<glyph unicode="y" horiz-adv-x="1581" d="M33 1468q0 16 16 17h619q18 0 18 -17q0 -14 -43 -17t-43 -38q0 -43 57 -96l291 -275l197 228q33 37 33 80q0 47 -33 74.5t-78 27.5h-31q-18 0 -18 16t18 17h518q18 0 19 -17q0 -16 -19 -16q-63 0 -115.5 -25.5t-99.5 -80.5l-327 -371v-766q0 -63 44 -119.5t107 -56.5 q53 0 54 -17q0 -18 -19 -18h-633q-18 0 -18 18q0 16 53 17q63 0 107.5 56t44.5 120v700l-453 424q-68 66 -116 92.5t-134 26.5q-16 0 -16 16z" />
<glyph unicode="z" horiz-adv-x="1669" d="M25 16q0 18 32 19q80 0 187 86q96 76 145 155l633 1047q-74 -20 -360 -20q-199 0 -254 -89q-16 -25 -17 -47q0 -78 133 -77q27 0 27 -15q0 -39 -68 -63q-53 -20 -102 -21q-82 0 -132 49.5t-50 133.5q0 109 75.5 196.5t182.5 114.5q94 25 215 24q78 0 231 -12 q197 -18 379 -18q2 0 223 6h4q27 2 27 -15q0 -12 -29 -18l-43 -12q-133 -55 -256 -256l-661 -1090h303q141 0 242 49q131 63 131 189q0 61 -39 115.5t-99 54.5q-92 0 -92 -64q0 -45 54 -45q12 0 25 7.5t20 7.5l6 -4q6 -3 6 -15q0 -49 -42 -84t-93 -35q-53 0 -89 35t-36 88 q0 100 92 164q80 57 184 57q141 0 244 -84q109 -90 106 -227v-24v-12q0 -154 105 -212q6 -4 53 -18q14 -4 14 -21q0 -16 -18 -16h-1581q-18 0 -18 16z" />
<glyph unicode="{" horiz-adv-x="704" />
<glyph unicode="&#xa1;" horiz-adv-x="415" d="M49 -78q-2 135 55 588q27 199 64 582q0 31 41 30q39 0 41 -30q6 -117 61 -547q57 -457 58 -623q-2 -66 -48.5 -113t-111.5 -47q-66 0 -113 47t-47 113zM72 1323q0 57 40 97t97 40q55 0 96 -40t41 -97q0 -55 -41 -95t-96 -40q-57 0 -97 40t-40 95z" />
<glyph unicode="&#xa2;" horiz-adv-x="1081" d="M23 848q0 209 134 373.5t339 201.5v244q0 41 39 41q41 0 40 -41v-233q137 0 238 -41q47 90 137 90q12 0 13 -13q0 8 -25 -43t-25 -100q0 -27 9.5 -82t9.5 -86q0 -82 -35 -139q-72 -115 -190 -115q-102 0 -103 64q0 31 29 53t61 22q16 0 17 -14q0 -2 -3 -9t-3 -13 q0 -27 28 -27q35 0 53 47q16 39 17 78q0 94 -67.5 174t-160.5 86v-1010q55 -25 115 -24q176 0 322 170q12 14 22 14q25 0 25 -20q0 -8 -6 -17q-168 -221 -478 -221v-240q0 -41 -40 -41q-39 0 -39 41v250q-207 39 -340 204t-133 376zM256 936q0 -332 240 -533v953 q-121 -39 -185 -170q-55 -111 -55 -250z" />
<glyph unicode="&#xa3;" horiz-adv-x="1890" d="M63 844q0 39 43 39h213q-104 244 -104 374q0 215 197 340q170 109 395 109q233 0 395 -104q176 -115 176 -293q0 -154 -147 -238q-121 -70 -287 -70q-68 0 -67 21q0 20 16 20q109 0 172 78q57 72 57 183q0 129 -78.5 223t-205.5 94q-137 0 -222.5 -101.5t-85.5 -240.5 q0 -131 107 -395h321q35 0 35 -41q0 -39 -35 -39h-290q78 -199 77 -309q0 -217 -260 -390h443q160 0 274 56q147 72 148 215q0 72 -46.5 132t-115.5 60q-35 0 -64 -18q-35 -23 -34 -55q0 -49 61 -50q10 0 26.5 8.5t20.5 8.5q6 0 13.5 -2t7.5 -17q0 -6 -2 -10 q-8 -57 -51.5 -91t-102.5 -34q-61 0 -102 38t-41 101q0 113 102 189q92 68 211 67q162 0 278 -98q125 -102 121 -262v-29q-4 -182 115 -252q14 -8 63 -22q16 -4 17 -21q0 -20 -19 -20h-1654q-20 0 -21 16q0 18 33 21.5t98 19.5q94 37 155.5 130.5t61.5 195.5q0 117 -129 422 h-246q-43 0 -43 41z" />
<glyph unicode="&#xa4;" horiz-adv-x="1509" d="M-16 733l59 80h121v55h-180l59 80h125q18 141 55 246q84 229 256 362q190 150 455 150q352 0 582 -295q8 -10 8 -20q0 -35 -33 -35q-12 0 -23 12q-131 190 -364 227q-41 6 -80 7q-236 0 -381 -218q-117 -178 -143 -436h717l-62 -80h-659v-55h608l-62 -80h-542 q23 -260 137 -436q139 -215 379 -215q141 0 266 68q8 4 16 4q29 0 29 -33q0 -25 -27 -39q-176 -102 -366 -102q-326 0 -535 221q-197 207 -229 532h-186z" />
<glyph unicode="&#xa5;" horiz-adv-x="2000" d="M37 1667q0 18 20 19h703q20 0 20 -19q0 -18 -20 -18h-21q-45 0 -55 -31q-12 -49 66 -123l249 -238l252 238q78 74 64 123q-8 31 -53 31h-23q-20 0 -20 18t20 19h705q20 0 20 -19q0 -18 -20 -18q-98 0 -156 -31q-45 -25 -129 -105v-2l-514 -479v-84h610v-80h-604v-55h604 v-80h-604v-495q0 -74 50 -137.5t124 -63.5h37q20 0 20 -19q0 -20 -20 -20h-719q-20 0 -20 20q0 18 20 19h39q72 0 122 63.5t50 137.5v495h-590v80h590v55h-590v80h590v84l-514 481q-78 78 -127 105q-57 31 -156 31q-20 0 -20 18z" />
<glyph unicode="&#xa8;" horiz-adv-x="667" d="M37 1708q0 53 39 92t94 39q53 0 92 -39t39 -92t-39 -92t-92 -39q-55 0 -94 39t-39 92zM367 1708q0 53 38.5 92t92.5 39q55 0 94 -39t39 -92t-39 -92t-94 -39q-53 0 -92 39t-39 92z" />
<glyph unicode="&#xaa;" horiz-adv-x="987" d="M33 801q0 10 10 10q78 0 119 96l262 592q66 152 172 199q10 4 12 -6q4 -8 -4 -13q-39 -16 -39 -80q0 -51 21 -100l250 -592q41 -96 108 -96h10q10 0 11 -10q0 -8 -11 -8h-350q-10 0 -10 8t10 10q53 2 53 47q0 41 -67.5 91t-161.5 50q-141 0 -207 -98q16 -90 111 -90h26 q10 0 11 -10q0 -8 -11 -8h-315q-10 0 -10 8zM250 1004q80 51 178 51q147 0 215 -82l-199 471z" />
<glyph unicode="&#xad;" horiz-adv-x="413" d="M14 674v188q0 18 21 19h344q20 0 20 -19v-188q0 -18 -20 -19h-344q-21 1 -21 19z" />
<glyph unicode="&#xb2;" horiz-adv-x="1447" d="M68 1440q0 4 2 10q84 121 274 188q164 57 338 58q260 0 461 -125q238 -147 237 -391q0 -266 -178 -412q-119 -98 -418 -197q-137 -45 -153 -51q-90 -33 -146 -69q-88 -57 -88 -168q0 -90 68 -138q59 -41 156 -41q150 0 206 15q119 33 119 139q0 70 -46 114l-46 44 q0 20 55 35q43 12 74 12q96 0 162 -68q59 -61 76 -159q18 -121 100 -173q10 -6 10 -16q0 -23 -57 -37q-45 -12 -76 -12h-1104q-20 0 -20 20q0 10 10 109q25 246 283 424l460 270q244 164 244 377q0 145 -82 254q-88 119 -227 119q-190 0 -326 -113q-143 -121 -143 -307 q0 -8 2 -23.5t2 -23.5q0 -20 -21 -21q-10 0 -14 9q-2 0 -82 143q-112 197 -112 205z" />
<glyph unicode="&#xb3;" horiz-adv-x="1308" d="M-4 20q31 215 215 345q4 2 10 2q20 0 21 -21q0 -2 -15.5 -31.5t-15.5 -58.5q0 -86 55.5 -131t141.5 -45q90 0 190 47q141 66 229 188q100 139 101 314q0 164 -117 305q-106 129 -270 196q-84 -20 -176 -26q-57 -4 -58 45q0 45 96 63q147 27 181 41q94 45 94 152 q0 94 -78 151q-72 51 -170 52q-90 0 -149 -43q-70 -49 -70 -138q0 -29 15.5 -58.5t15.5 -31.5q0 -20 -21 -20q-6 0 -10 4q-184 129 -215 344q-2 20 18 21h418q221 0 320 -25q197 -51 196 -205q0 -147 -182 -246q221 -63 373 -206q172 -164 172 -375q0 -285 -283 -469 q-250 -162 -551 -162h-463q-20 -1 -18 22z" />
<glyph unicode="&#xb4;" horiz-adv-x="608" d="M43 1591l266 336h256l-370 -336h-152z" />
<glyph unicode="&#xb8;" horiz-adv-x="661" d="M84 -434l37 74q94 -39 151 -39q63 0 109 24q57 31 57 88q0 94 -129 94q-49 0 -104 -18l-31 33l145 198h91l-113 -143q25 4 86 17q193 -12 192 -177q0 -51 -28 -94q-63 -98 -238 -98q-90 0 -225 41z" />
<glyph unicode="&#xb9;" horiz-adv-x="913" d="M78 18q0 18 20 19h39q72 0 122 63.5t50 137.5v1097q0 125 -121 125q-33 0 -63 -10q-8 -2 -21 -8q-20 -10 -26 8q-8 18 12 27l490 217q27 12 26 -17v-1439q0 -74 50.5 -137.5t121.5 -63.5h39q20 0 21 -19q0 -20 -21 -20h-719q-20 0 -20 20z" />
<glyph unicode="&#xba;" horiz-adv-x="966" d="M33 1270q0 178 132 303t310 125q180 0 312.5 -124t132.5 -304q0 -178 -132.5 -302t-312.5 -124q-178 0 -310 124t-132 302zM176 1321q0 -63 17 -127q33 -119 116 -207q94 -98 209 -98q123 0 195 108q63 94 63 222q0 63 -16 127q-33 121 -117 206q-94 98 -209 99 q-123 0 -194 -109q-64 -94 -64 -221z" />
<glyph unicode="&#xbf;" horiz-adv-x="1472" d="M55 309q0 188 154 320q76 63 260 125q197 66 260 108q119 82 119 228q0 20 20 20h78q20 0 21 -20q0 -156 -78 -269q-66 -96 -207 -186q-119 -78 -199 -195q-90 -131 -90 -260q0 -35 6 -65q23 -115 117 -174q86 -53 209 -54q225 0 350 138q92 100 92 243q0 43 -8 88 q-2 12 12 19q14 6 23 -4l223 -338q4 -12 0 -21q-70 -113 -233.5 -181.5t-362.5 -68.5q-215 0 -422 80q-156 59 -250 189.5t-94 277.5zM764 1325q0 55 40 96t97 41q55 0 95 -41t40 -96q0 -57 -40 -97t-95 -40q-57 0 -97 40t-40 97z" />
<glyph unicode="&#xc0;" d="M39 18q0 18 20 19q72 0 144 63q63 55 96 129l522 1186q133 303 346 395q6 3 11 3q11 0 14 -13q8 -16 -11 -24q-78 -35 -77 -160q0 -102 41 -201l501 -1186q31 -72 86 -127q66 -66 131 -65h21q18 0 18 -19q0 -18 -18 -18h-700q-20 0 -21 18q0 16 21 19q104 6 104 96 q0 43 -31 86q-27 37 -104 96q-133 102 -322 103q-125 0 -233 -49q-117 -53 -180 -150q14 -84 75.5 -133t145.5 -49h51q20 0 20 -19q0 -18 -20 -18h-631q-20 0 -20 18zM475 422q158 102 356 102q229 0 393 -129q23 -16 35 -33l-397 943zM610 2160h256l266 -336h-151z" />
<glyph unicode="&#xc1;" d="M39 18q0 18 20 19q72 0 144 63q63 55 96 129l522 1186q133 303 346 395q6 3 11 3q11 0 14 -13q8 -16 -11 -24q-78 -35 -77 -160q0 -102 41 -201l501 -1186q31 -72 86 -127q66 -66 131 -65h21q18 0 18 -19q0 -18 -18 -18h-700q-20 0 -21 18q0 16 21 19q104 6 104 96 q0 43 -31 86q-27 37 -104 96q-133 102 -322 103q-125 0 -233 -49q-117 -53 -180 -150q14 -84 75.5 -133t145.5 -49h51q20 0 20 -19q0 -18 -20 -18h-631q-20 0 -20 18zM475 422q158 102 356 102q229 0 393 -129q23 -16 35 -33l-397 943zM1067 1839l266 336h256l-370 -336 h-152z" />
<glyph unicode="&#xc2;" d="M39 18q0 18 20 19q72 0 144 63q63 55 96 129l522 1186q133 303 346 395q6 3 11 3q11 0 14 -13q8 -16 -11 -24q-78 -35 -77 -160q0 -102 41 -201l501 -1186q31 -72 86 -127q66 -66 131 -65h21q18 0 18 -19q0 -18 -18 -18h-700q-20 0 -21 18q0 16 21 19q104 6 104 96 q0 43 -31 86q-27 37 -104 96q-133 102 -322 103q-125 0 -233 -49q-117 -53 -180 -150q14 -84 75.5 -133t145.5 -49h51q20 0 20 -19q0 -18 -20 -18h-631q-20 0 -20 18zM475 422q158 102 356 102q229 0 393 -129q23 -16 35 -33l-397 943zM768 1753l274 338h160l279 -338h-156 l-199 162l-203 -162h-155z" />
<glyph unicode="&#xc3;" d="M39 18q0 18 20 19q72 0 144 63q63 55 96 129l522 1186q133 303 346 395q6 3 11 3q11 0 14 -13q8 -16 -11 -24q-78 -35 -77 -160q0 -102 41 -201l501 -1186q31 -72 86 -127q66 -66 131 -65h21q18 0 18 -19q0 -18 -18 -18h-700q-20 0 -21 18q0 16 21 19q104 6 104 96 q0 43 -31 86q-27 37 -104 96q-133 102 -322 103q-125 0 -233 -49q-117 -53 -180 -150q14 -84 75.5 -133t145.5 -49h51q20 0 20 -19q0 -18 -20 -18h-631q-20 0 -20 18zM475 422q158 102 356 102q229 0 393 -129q23 -16 35 -33l-397 943zM735 1812q23 123 59 182q53 90 158 90 q57 0 188 -57q55 -25 88 -37q43 -16 80 -16q82 0 97 86h90q-14 -98 -66 -164q-59 -76 -149 -76q-33 0 -70 10q-63 27 -197 78q-35 12 -63 13q-90 0 -127 -109h-88z" />
<glyph unicode="&#xc4;" d="M39 18q0 18 20 19q72 0 144 63q63 55 96 129l522 1186q133 303 346 395q6 3 11 3q11 0 14 -13q8 -16 -11 -24q-78 -35 -77 -160q0 -102 41 -201l501 -1186q31 -72 86 -127q66 -66 131 -65h21q18 0 18 -19q0 -18 -18 -18h-700q-20 0 -21 18q0 16 21 19q104 6 104 96 q0 43 -31 86q-27 37 -104 96q-133 102 -322 103q-125 0 -233 -49q-117 -53 -180 -150q14 -84 75.5 -133t145.5 -49h51q20 0 20 -19q0 -18 -20 -18h-631q-20 0 -20 18zM475 422q158 102 356 102q229 0 393 -129q23 -16 35 -33l-397 943zM819 1958q0 53 39 92t94 39 q53 0 92 -39t39 -92t-39 -92t-92 -39q-55 0 -94 39t-39 92zM1149 1958q0 53 38.5 92t92.5 39q55 0 94 -39t39 -92t-39 -92t-94 -39q-53 0 -92 39t-39 92z" />
<glyph unicode="&#xc5;" d="M39 18q0 18 20 19q72 0 144 63q63 55 96 129l522 1186q133 303 346 395q6 3 11 3q11 0 14 -13q8 -16 -11 -24q-78 -35 -77 -160q0 -102 41 -201l501 -1186q31 -72 86 -127q66 -66 131 -65h21q18 0 18 -19q0 -18 -18 -18h-700q-20 0 -21 18q0 16 21 19q104 6 104 96 q0 43 -31 86q-27 37 -104 96q-133 102 -322 103q-125 0 -233 -49q-117 -53 -180 -150q14 -84 75.5 -133t145.5 -49h51q20 0 20 -19q0 -18 -20 -18h-631q-20 0 -20 18zM475 422q158 102 356 102q229 0 393 -129q23 -16 35 -33l-397 943zM1358 2007q0 -113 -80 -191.5 t-191 -78.5q-113 0 -191.5 78.5t-78.5 191.5t79 192.5t191 79.5q111 0 191 -79.5t80 -192.5zM1235 2007q0 61 -44 104t-104 43q-61 0 -104 -43t-43 -104q0 -59 43 -102t104 -43q59 0 103.5 43t44.5 102z" />
<glyph unicode="&#xc6;" horiz-adv-x="2248" d="M12 18q0 18 21 19q121 0 241 190l879 1377q-35 45 -100 45h-35q-20 0 -21 18q0 20 21 21h1200q20 0 18 -23q-29 -215 -213 -344q-4 -4 -10 -4q-20 0 -20 20q0 2 14 33t14 60q0 100 -135 153q-98 37 -217 37h-67q-53 0 -90 -33t-37 -84v-893h200q94 0 140 35q33 25 69 90 q6 12 21 8q14 -4 14 -16v-328q0 -12 -14 -16q-14 -6 -21 6q-41 74 -84 100.5t-125 26.5h-200v-278q0 -86 61 -134q55 -41 145 -41q113 0 215 62q119 70 119 174q0 63 -47 117q-8 10 0 22q8 10 23 8q223 -94 223 -260q0 -41 -29 -100q-35 -68 -78 -88h-1138q-20 0 -21 20 q0 18 21 19h37q72 0 122 63.5t50 137.5v36q-14 14 -50 41q-133 102 -321 103q-121 0 -234 -49q-123 -55 -180 -150q12 -82 74.5 -132t146.5 -50h52q20 0 20 -19q0 -20 -20 -20h-633q-21 0 -21 20zM535 469q10 2 8 2q123 53 264 53q213 0 371 -114v1056z" />
<glyph unicode="&#xc7;" horiz-adv-x="1437" d="M88 840q0 342 213 596q225 268 559 268q152 0 282 -62q27 55 77 95.5t106 40.5q20 0 20 -21q0 -6 -4 -10q-63 -88 -63 -197q0 -41 12 -120.5t12 -120.5q0 -127 -49 -213q-96 -168 -254 -168q-51 0 -90 22q-45 27 -45 76q0 41 40 74t81 33q23 0 22 -19q0 -6 -4 -16.5 t-4 -16.5q0 -43 37 -43q47 0 74 74q18 55 18 113q0 137 -90 254q-96 129 -231 129q-199 0 -314 -230q-92 -182 -92 -403q0 -109 21 -219q59 -311 237 -506q152 -164 322 -164q98 0 204 51q98 49 168 127q6 6 56 72q16 20 32 20q29 0 29 -32q0 -10 -8 -23 q-102 -147 -264 -235.5t-338 -88.5q-334 0 -559 269q-213 254 -213 594zM453 -434l37 74q94 -39 151 -39q63 0 109 24q57 31 57 88q0 94 -129 94q-49 0 -104 -18l-31 33l145 198h91l-113 -143q25 4 86 17q193 -12 192 -177q0 -51 -28 -94q-63 -98 -238 -98q-90 0 -225 41z " />
<glyph unicode="&#xc8;" horiz-adv-x="1306" d="M-6 20q0 18 21 19h39q72 0 122 63.5t50 137.5v1294q0 53 -36 85t-89 32h-35q-20 0 -21 18q0 20 21 21h1200q19 0 19 -17q0 -102 -61 -194.5t-155 -155.5q-4 -4 -8 -4q-20 0 -20 20q0 2 14 32t14 61q0 100 -133 153q-100 37 -219 37h-67q-53 0 -90 -33t-37 -84v-893h200 q94 0 140 35q33 25 69 90q6 12 21 8q14 -4 14 -16v-328q0 -12 -14 -16q-12 -6 -21 6q-41 74 -84 100.5t-125 26.5h-200v-278q0 -86 61 -134q55 -41 145 -40q115 0 215 61q119 70 119 174q0 63 -47 117q-8 10 0 22t21 9q225 -94 225 -261q0 -41 -29 -100q-35 -68 -78 -88 h-1140q-21 0 -21 20zM231 2077h256l266 -336h-151z" />
<glyph unicode="&#xc9;" horiz-adv-x="1306" d="M-6 20q0 18 21 19h39q72 0 122 63.5t50 137.5v1294q0 53 -36 85t-89 32h-35q-20 0 -21 18q0 20 21 21h1200q19 0 19 -17q0 -102 -61 -194.5t-155 -155.5q-4 -4 -8 -4q-20 0 -20 20q0 2 14 32t14 61q0 100 -133 153q-100 37 -219 37h-67q-53 0 -90 -33t-37 -84v-893h200 q94 0 140 35q33 25 69 90q6 12 21 8q14 -4 14 -16v-328q0 -12 -14 -16q-12 -6 -21 6q-41 74 -84 100.5t-125 26.5h-200v-278q0 -86 61 -134q55 -41 145 -40q115 0 215 61q119 70 119 174q0 63 -47 117q-8 10 0 22t21 9q225 -94 225 -261q0 -41 -29 -100q-35 -68 -78 -88 h-1140q-21 0 -21 20zM584 1741l266 336h256l-370 -336h-152z" />
<glyph unicode="&#xca;" horiz-adv-x="1306" d="M-6 20q0 18 21 19h39q72 0 122 63.5t50 137.5v1294q0 53 -36 85t-89 32h-35q-20 0 -21 18q0 20 21 21h1200q19 0 19 -17q0 -102 -61 -194.5t-155 -155.5q-4 -4 -8 -4q-20 0 -20 20q0 2 14 32t14 61q0 100 -133 153q-100 37 -219 37h-67q-53 0 -90 -33t-37 -84v-893h200 q94 0 140 35q33 25 69 90q6 12 21 8q14 -4 14 -16v-328q0 -12 -14 -16q-12 -6 -21 6q-41 74 -84 100.5t-125 26.5h-200v-278q0 -86 61 -134q55 -41 145 -40q115 0 215 61q119 70 119 174q0 63 -47 117q-8 10 0 22t21 9q225 -94 225 -261q0 -41 -29 -100q-35 -68 -78 -88 h-1140q-21 0 -21 20zM318 1737l274 338h160l279 -338h-156l-199 162l-203 -162h-155z" />
<glyph unicode="&#xcb;" horiz-adv-x="1306" d="M-6 20q0 18 21 19h39q72 0 122 63.5t50 137.5v1294q0 53 -36 85t-89 32h-35q-20 0 -21 18q0 20 21 21h1200q19 0 19 -17q0 -102 -61 -194.5t-155 -155.5q-4 -4 -8 -4q-20 0 -20 20q0 2 14 32t14 61q0 100 -133 153q-100 37 -219 37h-67q-53 0 -90 -33t-37 -84v-893h200 q94 0 140 35q33 25 69 90q6 12 21 8q14 -4 14 -16v-328q0 -12 -14 -16q-12 -6 -21 6q-41 74 -84 100.5t-125 26.5h-200v-278q0 -86 61 -134q55 -41 145 -40q115 0 215 61q119 70 119 174q0 63 -47 117q-8 10 0 22t21 9q225 -94 225 -261q0 -41 -29 -100q-35 -68 -78 -88 h-1140q-21 0 -21 20zM375 1872q0 53 39 92t94 39q53 0 92 -39t39 -92t-39 -92t-92 -39q-55 0 -94 39t-39 92zM705 1872q0 53 38.5 92t92.5 39q55 0 94 -39t39 -92t-39 -92t-94 -39q-53 0 -92 39t-39 92z" />
<glyph unicode="&#xcc;" horiz-adv-x="872" d="M67 20q0 18 19 19h39q72 0 122 63.5t50 137.5v1294q0 53 -36 85t-89 32h-35q-20 0 -21 18q0 20 21 21h618q20 0 21 -21q0 -18 -21 -18h-34q-53 0 -90 -33t-37 -84v-1294q0 -74 50 -137.5t124 -63.5h37q20 0 20 -19q0 -20 -20 -20h-719q-19 0 -19 20zM47 2070h256 l266 -336h-151z" />
<glyph unicode="&#xcd;" horiz-adv-x="872" d="M53 20q0 18 19 19h39q72 0 122 63.5t50 137.5v1294q0 53 -36 85t-89 32h-35q-20 0 -21 18q0 20 21 21h618q20 0 21 -21q0 -18 -21 -18h-34q-53 0 -90 -33t-37 -84v-1294q0 -74 50 -137.5t124 -63.5h37q20 0 20 -19q0 -20 -20 -20h-719q-19 0 -19 20zM338 1728l266 336 h256l-370 -336h-152z" />
<glyph unicode="&#xce;" horiz-adv-x="872" d="M57 20q0 18 19 19h39q72 0 122 63.5t50 137.5v1294q0 53 -36 85t-89 32h-35q-20 0 -21 18q0 20 21 21h618q20 0 21 -21q0 -18 -21 -18h-34q-53 0 -90 -33t-37 -84v-1294q0 -74 50 -137.5t124 -63.5h37q20 0 20 -19q0 -20 -20 -20h-719q-19 0 -19 20zM76 1737l274 338h160 l279 -338h-156l-199 162l-203 -162h-155z" />
<glyph unicode="&#xcf;" horiz-adv-x="872" d="M57 20q0 18 19 19h39q72 0 122 63.5t50 137.5v1294q0 53 -36 85t-89 32h-35q-20 0 -21 18q0 20 21 21h618q20 0 21 -21q0 -18 -21 -18h-34q-53 0 -90 -33t-37 -84v-1294q0 -74 50 -137.5t124 -63.5h37q20 0 20 -19q0 -20 -20 -20h-719q-19 0 -19 20zM150 1872q0 53 39 92 t94 39q53 0 92 -39t39 -92t-39 -92t-92 -39q-55 0 -94 39t-39 92zM480 1872q0 53 38.5 92t92.5 39q55 0 94 -39t39 -92t-39 -92t-94 -39q-53 0 -92 39t-39 92z" />
<glyph unicode="&#xd0;" horiz-adv-x="1482" d="M12 18q0 18 21 19h37q72 0 122 63.5t50 137.5v387h-138q-61 0 -61 57t61 57h138v793q0 53 -36 85t-89 32h-35q-20 0 -21 18q0 20 21 21h518q354 0 612 -246t258 -600q0 -352 -258 -598t-612 -246h-567q-21 0 -21 20zM539 238q0 -135 73 -136q221 -2 378 214t157 528 q0 313 -159 532t-380 217q-45 0 -59 -28q-10 -20 -10 -72v-754h131q61 0 61 -57t-61 -57h-131v-387z" />
<glyph unicode="&#xd1;" horiz-adv-x="1558" d="M51 1669q0 18 20 19h488l682 -1133v979q0 51 -36 83t-89 32h-35q-20 0 -20 20q0 18 20 19h426q20 0 20 -19q0 -20 -20 -20h-35q-51 0 -89 -32t-38 -83v-1190q0 -121 47 -260q51 -164 131 -225q13 -10 13 -20q0 -4 -2 -9q-5 -9 -14 -9q-5 0 -11 3q-104 39 -178 110 q-53 55 -125 168l-733 1186v-1048q0 -74 49 -136q51 -68 123 -67h39q20 0 20 -19q0 -18 -20 -18h-527q-18 0 -18 18t18 19h39q72 0 125 67q47 61 47 136v1218q-61 102 -116 141q-70 49 -181 50q-20 0 -20 20zM498 1739q23 123 59 182q53 90 158 90q57 0 188 -57 q55 -25 88 -37q43 -16 80 -16q82 0 97 86h90q-14 -98 -66 -164q-59 -76 -149 -76q-33 0 -70 10q-63 27 -197 78q-35 12 -63 13q-90 0 -127 -109h-88z" />
<glyph unicode="&#xd2;" horiz-adv-x="1843" d="M86 831q0 356 266 609q262 246 621 246q360 0 624 -248t264 -607q0 -350 -262 -602t-626 -252q-362 0 -624.5 252t-262.5 602zM374 934q0 -127 33 -254q63 -240 232 -414q188 -195 417 -194q59 0 117 14q195 51 305 250q96 174 97 393q0 127 -35 254q-63 240 -232 414 q-188 195 -417 194q-59 0 -117 -14q-195 -51 -305 -250q-95 -174 -95 -393zM483 2072h256l266 -336h-151z" />
<glyph unicode="&#xd3;" horiz-adv-x="1843" d="M86 831q0 356 266 609q262 246 621 246q360 0 624 -248t264 -607q0 -350 -262 -602t-626 -252q-362 0 -624.5 252t-262.5 602zM374 934q0 -127 33 -254q63 -240 232 -414q188 -195 417 -194q59 0 117 14q195 51 305 250q96 174 97 393q0 127 -35 254q-63 240 -232 414 q-188 195 -417 194q-59 0 -117 -14q-195 -51 -305 -250q-95 -174 -95 -393zM836 1728l266 336h256l-370 -336h-152z" />
<glyph unicode="&#xd4;" horiz-adv-x="1843" d="M86 831q0 356 266 609q262 246 621 246q360 0 624 -248t264 -607q0 -350 -262 -602t-626 -252q-362 0 -624.5 252t-262.5 602zM374 934q0 -127 33 -254q63 -240 232 -414q188 -195 417 -194q59 0 117 14q195 51 305 250q96 174 97 393q0 127 -35 254q-63 240 -232 414 q-188 195 -417 194q-59 0 -117 -14q-195 -51 -305 -250q-95 -174 -95 -393zM543 1731l274 338h160l279 -338h-156l-199 162l-203 -162h-155z" />
<glyph unicode="&#xd5;" horiz-adv-x="1843" d="M86 831q0 356 266 609q262 246 621 246q360 0 624 -248t264 -607q0 -350 -262 -602t-626 -252q-362 0 -624.5 252t-262.5 602zM374 934q0 -127 33 -254q63 -240 232 -414q188 -195 417 -194q59 0 117 14q195 51 305 250q96 174 97 393q0 127 -35 254q-63 240 -232 414 q-188 195 -417 194q-59 0 -117 -14q-195 -51 -305 -250q-95 -174 -95 -393zM539 1702q23 123 59 182q53 90 158 90q57 0 188 -57q55 -25 88 -37q43 -16 80 -16q82 0 97 86h90q-14 -98 -66 -164q-59 -76 -149 -76q-33 0 -70 10q-63 27 -197 78q-35 12 -63 13q-90 0 -127 -109 h-88z" />
<glyph unicode="&#xd6;" horiz-adv-x="1843" d="M86 831q0 356 266 609q262 246 621 246q360 0 624 -248t264 -607q0 -350 -262 -602t-626 -252q-362 0 -624.5 252t-262.5 602zM374 934q0 -127 33 -254q63 -240 232 -414q188 -195 417 -194q59 0 117 14q195 51 305 250q96 174 97 393q0 127 -35 254q-63 240 -232 414 q-188 195 -417 194q-59 0 -117 -14q-195 -51 -305 -250q-95 -174 -95 -393zM612 1870q0 53 39 92t94 39q53 0 92 -39t39 -92t-39 -92t-92 -39q-55 0 -94 39t-39 92zM942 1870q0 53 38.5 92t92.5 39q55 0 94 -39t39 -92t-39 -92t-94 -39q-53 0 -92 39t-39 92z" />
<glyph unicode="&#xd8;" horiz-adv-x="1761" d="M-6 831q0 356 266 609q260 246 621 246q281 0 514 -158l110 129q18 23 43 22q23 0 41.5 -16t18.5 -39q0 -20 -17 -41l-106 -127q4 -4 22 -20q262 -252 262 -605q0 -350 -262 -602t-626 -252q-283 0 -514 160l-109 -129q-20 -25 -47 -24q-57 0 -57 57q0 23 16 41l109 125 l-23 22q-262 250 -262 602zM281 934q0 -291 159 -535l813 959q-211 233 -454 233q-59 0 -117 -14q-197 -51 -305 -250q-96 -176 -96 -393zM510 305q211 -233 455 -233q59 0 116 14q195 51 305 250q94 176 95 393q0 291 -158 535z" />
<glyph unicode="&#xd9;" horiz-adv-x="1613" d="M96 1667q0 18 21 19h618q18 0 19 -19q0 -16 -29 -20h-43q-47 -6 -81 -37q-29 -26 -28 -63q0 -7 1 -13q14 -156 26 -311q25 -281 58 -478q104 -625 309 -624q113 0 203 153q121 205 159 611q5 72 17 206.5t19.5 244.5t7.5 207q0 43 -37 73q-40 33 -91 33h-34q-14 0 -19 18 q0 18 19 19h426q20 0 20 -19q0 -18 -20 -18q-150 0 -160 -119q-20 -350 -43 -701q-45 -449 -189.5 -649t-349.5 -200q-197 0 -336 190q-147 201 -211 653l-71 707q-14 119 -160 119q-21 0 -21 18zM524 2072h256l266 -336h-151z" />
<glyph unicode="&#xda;" horiz-adv-x="1617" d="M96 1667q0 18 21 19h618q18 0 19 -19q0 -16 -29 -20h-43q-47 -6 -81 -37q-29 -26 -28 -63q0 -7 1 -13q14 -156 26 -311q25 -281 58 -478q104 -625 309 -624q113 0 203 153q121 205 159 611q5 72 17 206.5t19.5 244.5t7.5 207q0 43 -37 73q-40 33 -91 33h-34q-14 0 -19 18 q0 18 19 19h426q20 0 20 -19q0 -18 -20 -18q-150 0 -160 -119q-20 -350 -43 -701q-45 -449 -189.5 -649t-349.5 -200q-197 0 -336 190q-147 201 -211 653l-71 707q-14 119 -160 119q-21 0 -21 18zM809 1730l266 336h256l-370 -336h-152z" />
<glyph unicode="&#xdb;" horiz-adv-x="1613" d="M96 1667q0 18 21 19h618q18 0 19 -19q0 -16 -29 -20h-43q-47 -6 -81 -37q-29 -26 -28 -63q0 -7 1 -13q14 -156 26 -311q25 -281 58 -478q104 -625 309 -624q113 0 203 153q121 205 159 611q5 72 17 206.5t19.5 244.5t7.5 207q0 43 -37 73q-40 33 -91 33h-34q-14 0 -19 18 q0 18 19 19h426q20 0 20 -19q0 -18 -20 -18q-150 0 -160 -119q-20 -350 -43 -701q-45 -449 -189.5 -649t-349.5 -200q-197 0 -336 190q-147 201 -211 653l-71 707q-14 119 -160 119q-21 0 -21 18zM531 1741l274 338h160l279 -338h-156l-199 162l-203 -162h-155z" />
<glyph unicode="&#xdc;" horiz-adv-x="1617" d="M96 1667q0 18 21 19h618q18 0 19 -19q0 -16 -29 -20h-43q-47 -6 -81 -37q-29 -26 -28 -63q0 -7 1 -13q14 -156 26 -311q25 -281 58 -478q104 -625 309 -624q113 0 203 153q121 205 159 611q5 72 17 206.5t19.5 244.5t7.5 207q0 43 -37 73q-40 33 -91 33h-34q-14 0 -19 18 q0 18 19 19h426q20 0 20 -19q0 -18 -20 -18q-150 0 -160 -119q-20 -350 -43 -701q-45 -449 -189.5 -649t-349.5 -200q-197 0 -336 190q-147 201 -211 653l-71 707q-14 119 -160 119q-21 0 -21 18zM617 1872q0 53 39 92t94 39q53 0 92 -39t39 -92t-39 -92t-92 -39 q-55 0 -94 39t-39 92zM947 1872q0 53 38.5 92t92.5 39q55 0 94 -39t39 -92t-39 -92t-94 -39q-53 0 -92 39t-39 92z" />
<glyph unicode="&#xdd;" horiz-adv-x="1794" d="M41 1669q0 18 21 19h702q20 0 21 -19q0 -16 -49 -19t-49 -44q0 -47 65 -109l330 -311l225 258q37 43 37 92q0 51 -37 83t-90 32h-35q-20 0 -20 18t20 19h590q20 0 20 -19q0 -18 -20 -18q-74 0 -132.5 -30t-113.5 -91l-371 -422v-868q0 -74 50.5 -137.5t122.5 -63.5 q59 0 59 -19q0 -20 -21 -20h-718q-20 0 -21 20q0 18 60 19q72 0 122 63.5t50 137.5v794l-515 482q-76 76 -131 105.5t-151 29.5q-21 0 -21 18zM907 1730l266 336h256l-370 -336h-152z" />
<glyph unicode="&#xde;" horiz-adv-x="1390" d="M-35 18q0 18 23 19h37q72 0 122 63.5t50 137.5v1208q0 76 -50.5 139.5t-121.5 63.5h-37q-23 0 -23 18t23 19h717q20 0 20 -19q0 -18 -20 -18h-37q-74 0 -124 -63.5t-50 -139.5v-80h204q319 0 523 -110.5t204 -276.5q0 -190 -246.5 -307t-592.5 -117q-61 0 -92 2v-319 q0 -74 50 -137.5t124 -63.5h37q20 0 20 -19q0 -20 -20 -20h-717q-23 0 -23 20zM494 637q45 -6 92 -6q199 0 336 97t137 233q0 135 -135.5 232t-327.5 97q-102 0 -102 -108v-545z" />
<glyph unicode="&#xdf;" horiz-adv-x="1732" d="M47 958q0 37 4 78q29 190 233.5 325.5t460.5 135.5q119 0 224 -33q125 33 235 33q346 0 484 -227l-103 -154l-100 -153l-31 14q8 37 8 76q0 139 -100 231q-92 84 -234 98q61 -47 101 -112l-201 -307l-31 14q8 37 9 74q0 178 -154 274q-135 -80 -143 -213 q-8 -127 116 -201q72 -41 277 -96q238 -63 330 -125q156 -104 145 -301q-12 -199 -162 -311q-160 -119 -383 -119q-119 0 -227 39q-106 -37 -227 -37q-133 0 -252 45l-72 -76l-180 430l98 9q27 -158 182 -252q143 -88 310 -72l-132 315l97 9q31 -178 213 -269q84 51 94 133 q16 133 -131 216q-72 39 -262 90q-244 66 -338 127q-158 102 -158 292zM252 1112q-12 -178 266 -260q-25 82 -10 184q27 188 233 326q2 2 11 6q-94 16 -123 16q-141 0 -248 -67q-119 -78 -129 -205zM938 63q70 -20 143 -20q125 0 212 53.5t98 136.5q23 186 -281 275 q14 -53 10 -119q-8 -197 -164 -311q-8 -9 -18 -15z" />
<glyph unicode="&#xe0;" horiz-adv-x="1773" d="M74 23q0 16 18 16q63 0 127 55q55 49 84 115l459 1042q119 266 305 348q18 8 23 -8q6 -14 -11 -22q-68 -31 -67 -142q0 -90 37 -176l440 -1042q27 -63 76 -113q57 -57 114 -57h19q16 0 16 -16t-16 -17h-617q-18 0 -18 17q0 14 18 16q92 4 93 84q0 39 -25 73.5t-94 88.5 q-117 88 -283 88q-252 0 -364 -174q12 -74 66 -117t128 -43h45q18 0 19 -16q0 -16 -19 -17h-555q-18 1 -18 17zM459 377q139 90 313 90q203 0 346 -113l31 -28l-350 829zM537 1966h256l266 -336h-152z" />
<glyph unicode="&#xe1;" horiz-adv-x="1773" d="M74 23q0 16 18 16q63 0 127 55q55 49 84 115l459 1042q119 266 305 348q18 8 23 -8q6 -14 -11 -22q-68 -31 -67 -142q0 -90 37 -176l440 -1042q27 -63 76 -113q57 -57 114 -57h19q16 0 16 -16t-16 -17h-617q-18 0 -18 17q0 14 18 16q92 4 93 84q0 39 -25 73.5t-94 88.5 q-117 88 -283 88q-252 0 -364 -174q12 -74 66 -117t128 -43h45q18 0 19 -16q0 -16 -19 -17h-555q-18 1 -18 17zM459 377q139 90 313 90q203 0 346 -113l31 -28l-350 829zM899 1622l266 336h256l-370 -336h-152z" />
<glyph unicode="&#xe2;" horiz-adv-x="1773" d="M74 23q0 16 18 16q63 0 127 55q55 49 84 115l459 1042q119 266 305 348q18 8 23 -8q6 -14 -11 -22q-68 -31 -67 -142q0 -90 37 -176l440 -1042q27 -63 76 -113q57 -57 114 -57h19q16 0 16 -16t-16 -17h-617q-18 0 -18 17q0 14 18 16q92 4 93 84q0 39 -25 73.5t-94 88.5 q-117 88 -283 88q-252 0 -364 -174q12 -74 66 -117t128 -43h45q18 0 19 -16q0 -16 -19 -17h-555q-18 1 -18 17zM459 377q139 90 313 90q203 0 346 -113l31 -28l-350 829zM621 1593l274 338h160l278 -338h-155l-199 162l-203 -162h-155z" />
<glyph unicode="&#xe3;" horiz-adv-x="1773" d="M74 23q0 16 18 16q63 0 127 55q55 49 84 115l459 1042q119 266 305 348q18 8 23 -8q6 -14 -11 -22q-68 -31 -67 -142q0 -90 37 -176l440 -1042q27 -63 76 -113q57 -57 114 -57h19q16 0 16 -16t-16 -17h-617q-18 0 -18 17q0 14 18 16q92 4 93 84q0 39 -25 73.5t-94 88.5 q-117 88 -283 88q-252 0 -364 -174q12 -74 66 -117t128 -43h45q18 0 19 -16q0 -16 -19 -17h-555q-18 1 -18 17zM459 377q139 90 313 90q203 0 346 -113l31 -28l-350 829zM588 1638q23 123 57 183q55 90 160 90q57 0 188 -58q53 -25 88 -36q43 -16 78 -17q84 0 98 86h91 q-16 -98 -66 -164q-59 -78 -149 -77q-35 0 -70 12l-197 78q-35 12 -65 12q-90 0 -125 -109h-88z" />
<glyph unicode="&#xe4;" horiz-adv-x="1773" d="M74 23q0 16 18 16q63 0 127 55q55 49 84 115l459 1042q119 266 305 348q18 8 23 -8q6 -14 -11 -22q-68 -31 -67 -142q0 -90 37 -176l440 -1042q27 -63 76 -113q57 -57 114 -57h19q16 0 16 -16t-16 -17h-617q-18 0 -18 17q0 14 18 16q92 4 93 84q0 39 -25 73.5t-94 88.5 q-117 88 -283 88q-252 0 -364 -174q12 -74 66 -117t128 -43h45q18 0 19 -16q0 -16 -19 -17h-555q-18 1 -18 17zM459 377q139 90 313 90q203 0 346 -113l31 -28l-350 829zM756 1726q0 55 39 93.5t94 38.5q53 0 92 -38t39 -94q0 -53 -39 -92t-92 -39q-55 0 -94 39t-39 92z M1085 1726q0 55 39 93.5t93 38.5q55 0 94 -38t39 -94q0 -53 -39 -92t-94 -39q-53 0 -92.5 39t-39.5 92z" />
<glyph unicode="&#xe5;" horiz-adv-x="1773" d="M74 23q0 16 18 16q63 0 127 55q55 49 84 115l459 1042q119 266 305 348q18 8 23 -8q6 -14 -11 -22q-68 -31 -67 -142q0 -90 37 -176l440 -1042q27 -63 76 -113q57 -57 114 -57h19q16 0 16 -16t-16 -17h-617q-18 0 -18 17q0 14 18 16q92 4 93 84q0 39 -25 73.5t-94 88.5 q-117 88 -283 88q-252 0 -364 -174q12 -74 66 -117t128 -43h45q18 0 19 -16q0 -16 -19 -17h-555q-18 1 -18 17zM459 377q139 90 313 90q203 0 346 -113l31 -28l-350 829zM711 1776q0 113 79.5 192.5t190.5 79.5q113 0 191.5 -80t78.5 -192q0 -113 -78.5 -192t-191.5 -79 q-111 0 -190.5 79t-79.5 192zM834 1776q0 -59 44 -102.5t103 -43.5q61 0 104 43t43 103q0 61 -43 104t-104 43q-59 0 -103 -43t-44 -104z" />
<glyph unicode="&#xe6;" horiz-adv-x="2031" d="M18 14q0 16 19 17q104 0 211 168l774 1210q-31 41 -88 41h-31q-18 0 -18 16t18 17h1055q20 0 16 -19q-25 -188 -186 -303q-4 -2 -8 -2q-10 0 -17 8q-6 8 0 17q23 37 23 73q0 88 -119 134q-86 33 -190 32h-60q-47 0 -79.5 -27.5t-32.5 -74.5v-784h176q82 0 123 30 q29 20 61 78q6 10 18 8q12 -4 13 -14v-289q0 -12 -13 -14q-12 -6 -18 6q-37 63 -74 87t-110 24h-176v-246q0 -152 182 -152q100 0 190 54q102 61 103 153q0 55 -41 103q-8 8 0 20q6 10 20 6q197 -82 197 -229q0 -35 -27 -88q-29 -59 -67 -76h-1002q-18 0 -18 16t18 17h31 q63 0 110 57q41 55 41 119v33q-125 127 -325 127q-106 0 -205 -43q-109 -49 -160 -131q12 -74 66.5 -118t128.5 -44h45q18 0 18 -17q0 -16 -18 -16h-555q-19 0 -19 16zM477 412l8 2q106 45 232 45q188 0 325 -101v930z" />
<glyph unicode="&#xe7;" horiz-adv-x="1271" d="M84 743q0 299 186 523q199 238 494 237q131 0 248 -55q55 119 159 119q18 0 19 -17q0 -6 -4 -10q-55 -78 -56 -174q0 -35 11.5 -105.5t11.5 -105.5q0 -113 -43 -188q-86 -147 -225 -148q-45 0 -78 21q-41 23 -41 65q0 37 35 65.5t71 28.5q18 0 19 -16q0 -4 -3 -13t-3 -16 q0 -39 33 -39q41 0 63 66q18 49 18 98q0 121 -79 226q-86 113 -203 112q-176 0 -277 -200q-82 -162 -82 -357q0 -96 19 -192q51 -274 209 -445q133 -145 282 -145q88 0 178.5 45t151.5 113q4 4 47 63q14 18 29 18q27 0 26 -28q0 -10 -8 -21q-90 -131 -232 -207.5t-296 -76.5 q-295 0 -494 235q-186 223 -186 524zM348 -430l37 74q92 -39 152 -39q63 0 108 24q57 31 57 88q0 94 -129 95q-49 0 -104 -19l-31 33l146 199h90l-113 -144q25 4 86 17q193 -12 193 -177q0 -51 -29 -94q-63 -98 -238 -98q-90 0 -225 41z" />
<glyph unicode="&#xe8;" horiz-adv-x="1202" d="M20 16q0 16 17 17h35q63 0 107 56t44 120v1141q0 45 -31.5 73.5t-78.5 28.5h-31q-16 0 -16 16t16 17h1057q18 0 16 -19q-27 -190 -188 -303q-4 -4 -9 -4q-18 0 -18 19q0 2 13.5 28.5t13.5 53.5q0 88 -119 133q-86 33 -193 32h-59q-45 0 -78 -27.5t-33 -74.5v-784h177 q82 0 122 30q27 20 62 78q4 10 16 8q14 -4 15 -14v-289q0 -12 -15 -14q-10 -6 -16 6q-37 63 -75 87t-109 24h-177v-246q0 -152 183 -152q98 0 188 54q104 61 105 153q0 55 -41 103q-8 8 0 20q6 10 16 6q199 -82 199 -229q0 -35 -25 -88q-31 -59 -70 -76h-1003q-17 0 -17 16z M164 1880h256l266 -336h-151z" />
<glyph unicode="&#xe9;" horiz-adv-x="1202" d="M20 16q0 16 17 17h35q63 0 107 56t44 120v1141q0 45 -31.5 73.5t-78.5 28.5h-31q-16 0 -16 16t16 17h1057q18 0 16 -19q-27 -190 -188 -303q-4 -4 -9 -4q-18 0 -18 19q0 2 13.5 28.5t13.5 53.5q0 88 -119 133q-86 33 -193 32h-59q-45 0 -78 -27.5t-33 -74.5v-784h177 q82 0 122 30q27 20 62 78q4 10 16 8q14 -4 15 -14v-289q0 -12 -15 -14q-10 -6 -16 6q-37 63 -75 87t-109 24h-177v-246q0 -152 183 -152q98 0 188 54q104 61 105 153q0 55 -41 103q-8 8 0 20q6 10 16 6q199 -82 199 -229q0 -35 -25 -88q-31 -59 -70 -76h-1003q-17 0 -17 16z M537 1534l266 336h256l-371 -336h-151z" />
<glyph unicode="&#xea;" horiz-adv-x="1202" d="M20 16q0 16 17 17h35q63 0 107 56t44 120v1141q0 45 -31.5 73.5t-78.5 28.5h-31q-16 0 -16 16t16 17h1057q18 0 16 -19q-27 -190 -188 -303q-4 -4 -9 -4q-18 0 -18 19q0 2 13.5 28.5t13.5 53.5q0 88 -119 133q-86 33 -193 32h-59q-45 0 -78 -27.5t-33 -74.5v-784h177 q82 0 122 30q27 20 62 78q4 10 16 8q14 -4 15 -14v-289q0 -12 -15 -14q-10 -6 -16 6q-37 63 -75 87t-109 24h-177v-246q0 -152 183 -152q98 0 188 54q104 61 105 153q0 55 -41 103q-8 8 0 20q6 10 16 6q199 -82 199 -229q0 -35 -25 -88q-31 -59 -70 -76h-1003q-17 0 -17 16z M252 1538l274 338h160l279 -338h-156l-199 162l-202 -162h-156z" />
<glyph unicode="&#xeb;" horiz-adv-x="1202" d="M20 16q0 16 17 17h35q63 0 107 56t44 120v1141q0 45 -31.5 73.5t-78.5 28.5h-31q-16 0 -16 16t16 17h1057q18 0 16 -19q-27 -190 -188 -303q-4 -4 -9 -4q-18 0 -18 19q0 2 13.5 28.5t13.5 53.5q0 88 -119 133q-86 33 -193 32h-59q-45 0 -78 -27.5t-33 -74.5v-784h177 q82 0 122 30q27 20 62 78q4 10 16 8q14 -4 15 -14v-289q0 -12 -15 -14q-10 -6 -16 6q-37 63 -75 87t-109 24h-177v-246q0 -152 183 -152q98 0 188 54q104 61 105 153q0 55 -41 103q-8 8 0 20q6 10 16 6q199 -82 199 -229q0 -35 -25 -88q-31 -59 -70 -76h-1003q-17 0 -17 16z M324 1669q0 53 38.5 92t94.5 39q53 0 92 -39t39 -92t-39 -92t-92 -39q-55 0 -94 39t-39 92zM653 1669q0 53 39 92t92 39q55 0 94.5 -39t39.5 -92t-39 -92t-95 -39q-53 0 -92 39t-39 92z" />
<glyph unicode="&#xec;" horiz-adv-x="751" d="M0 1886h256l266 -336h-151zM43 16q0 16 16 17h35q63 0 107.5 56t44.5 120v1141q0 45 -32 73.5t-79 28.5h-31q-18 0 -18 16t18 17h545q18 0 19 -17q0 -16 -19 -16h-31q-47 0 -79.5 -28.5t-32.5 -73.5v-1141q0 -63 45 -119.5t108 -56.5h33q18 0 19 -17q0 -16 -19 -16h-633 q-16 0 -16 16z" />
<glyph unicode="&#xed;" horiz-adv-x="751" d="M33 16q0 16 16 17h35q63 0 107.5 56t44.5 120v1141q0 45 -32 73.5t-79 28.5h-31q-18 0 -18 16t18 17h545q18 0 18 -17q0 -16 -18 -16h-31q-47 0 -79.5 -28.5t-32.5 -73.5v-1141q0 -63 45 -119.5t108 -56.5h33q18 0 18 -17q0 -16 -18 -16h-633q-16 0 -16 16zM258 1532 l266 336h256l-370 -336h-152z" />
<glyph unicode="&#xee;" horiz-adv-x="751" d="M20 1536l275 338h160l278 -338h-155l-199 162l-203 -162h-156zM31 16q0 16 16 17h35q63 0 107 56t44 120v1141q0 45 -31.5 73.5t-78.5 28.5h-31q-18 0 -18 16t18 17h545q18 0 18 -17q0 -16 -18 -16h-31q-47 0 -79.5 -28.5t-32.5 -73.5v-1141q0 -63 45 -119.5t108 -56.5 h33q18 0 18 -17q0 -16 -18 -16h-633q-16 0 -16 16z" />
<glyph unicode="&#xef;" horiz-adv-x="751" d="M43 16q0 16 16 17h33q63 0 107.5 56t44.5 120v1141q0 45 -32 73.5t-77 28.5h-31q-18 0 -18 16t18 17h543q18 0 19 -17q0 -16 -19 -16h-31q-45 0 -77.5 -28.5t-32.5 -73.5v-1141q0 -63 44 -119.5t109 -56.5h31q18 0 19 -17q0 -16 -19 -16h-631q-16 0 -16 16zM68 1673 q0 53 38.5 92t94.5 39q55 0 93 -39t38 -92q0 -55 -38 -93t-93 -38t-94 38t-39 93zM397 1673q0 53 39 92t92 39q55 0 94.5 -39t39.5 -92q0 -55 -39 -93t-95 -38q-53 0 -92 38t-39 93z" />
<glyph unicode="&#xf0;" horiz-adv-x="1333" d="M25 14q0 16 18 17h33q63 0 107 56t44 120v342h-121q-55 0 -55 49q0 51 55 51h121v699q0 45 -31.5 73.5t-78.5 28.5h-31q-18 0 -18 16t18 17h457q311 0 536 -213q229 -219 230 -531q0 -309 -227.5 -525t-538.5 -216h-500q-18 0 -18 16zM487 207q0 -117 66 -119 q195 -2 333 188.5t138 464.5t-141 471q-137 190 -334 189q-61 0 -62 -88v-664h117q53 0 53 -51q0 -49 -53 -49h-117v-342z" />
<glyph unicode="&#xf1;" horiz-adv-x="1359" d="M33 1468q0 16 18 17h428l600 -996v861q0 45 -31.5 73.5t-76.5 28.5h-31q-18 0 -18 16t18 17h375q16 0 16 -17q0 -16 -16 -16h-31q-47 0 -80 -28.5t-33 -73.5v-1047q0 -106 41 -229q45 -143 117 -199q14 -10 8 -25q-8 -12 -20 -4q-94 33 -158 97q-49 49 -110 147 l-646 1045v-924q0 -66 43 -119q45 -59 109 -59h35q16 0 16 -17q0 -16 -16 -16h-463q-18 0 -18 16t18 17h33q63 0 110 59q41 53 41 119v1073q-55 90 -102 123q-61 45 -158 45q-18 0 -18 16zM373 1552q20 123 57 183q55 90 160 90q57 0 188 -58l91 -37q38 -15 75 -16 q84 0 98 86h91q-16 -98 -66 -162q-59 -78 -152 -77q-33 0 -67 10l-197 78q-35 12 -65 12q-90 0 -125 -109h-88z" />
<glyph unicode="&#xf2;" horiz-adv-x="1626" d="M78 729q0 315 235 535q229 217 545 217q317 0 549.5 -218.5t232.5 -533.5q0 -307 -230 -529.5t-552 -222.5q-313 0 -546.5 219.5t-233.5 532.5zM332 819q0 -113 28 -223q57 -211 205 -365q166 -172 367 -172q53 0 104 15q172 45 269 219q84 154 84 346q0 113 -31 223 q-57 211 -203 365q-166 172 -369 172q-53 0 -102 -15q-172 -45 -268 -219q-84 -153 -84 -346zM381 1878h256l266 -336h-151z" />
<glyph unicode="&#xf3;" horiz-adv-x="1626" d="M78 729q0 315 235 535q229 217 545 217q317 0 549.5 -218.5t232.5 -533.5q0 -307 -230 -529.5t-552 -222.5q-313 0 -546.5 219.5t-233.5 532.5zM332 819q0 -113 28 -223q57 -211 205 -365q166 -172 367 -172q53 0 104 15q172 45 269 219q84 154 84 346q0 113 -31 223 q-57 211 -203 365q-166 172 -369 172q-53 0 -102 -15q-172 -45 -268 -219q-84 -153 -84 -346zM711 1532l266 336h256l-371 -336h-151z" />
<glyph unicode="&#xf4;" horiz-adv-x="1626" d="M78 729q0 315 235 535q229 217 545 217q317 0 549.5 -218.5t232.5 -533.5q0 -307 -230 -529.5t-552 -222.5q-313 0 -546.5 219.5t-233.5 532.5zM332 819q0 -113 28 -223q57 -211 205 -365q166 -172 367 -172q53 0 104 15q172 45 269 219q84 154 84 346q0 113 -31 223 q-57 211 -203 365q-166 172 -369 172q-53 0 -102 -15q-172 -45 -268 -219q-84 -153 -84 -346zM416 1530l274 338h160l278 -338h-155l-199 162l-203 -162h-155z" />
<glyph unicode="&#xf5;" horiz-adv-x="1626" d="M78 729q0 315 235 535q229 217 545 217q317 0 549.5 -218.5t232.5 -533.5q0 -307 -230 -529.5t-552 -222.5q-313 0 -546.5 219.5t-233.5 532.5zM332 819q0 -113 28 -223q57 -211 205 -365q166 -172 367 -172q53 0 104 15q172 45 269 219q84 154 84 346q0 113 -31 223 q-57 211 -203 365q-166 172 -369 172q-53 0 -102 -15q-172 -45 -268 -219q-84 -153 -84 -346zM424 1526q23 125 59 184q55 88 158 88q59 0 188 -57l89 -37q43 -16 79 -16q82 0 97 86h90q-14 -98 -64 -162q-59 -78 -151 -78q-33 0 -70 10q-63 29 -197 78q-35 12 -63 12 q-90 0 -127 -108h-88z" />
<glyph unicode="&#xf6;" horiz-adv-x="1626" d="M78 729q0 315 235 535q229 217 545 217q317 0 549.5 -218.5t232.5 -533.5q0 -307 -230 -529.5t-552 -222.5q-313 0 -546.5 219.5t-233.5 532.5zM332 819q0 -113 28 -223q57 -211 205 -365q166 -172 367 -172q53 0 104 15q172 45 269 219q84 154 84 346q0 113 -31 223 q-57 211 -203 365q-166 172 -369 172q-53 0 -102 -15q-172 -45 -268 -219q-84 -153 -84 -346zM506 1657q0 53 39 92t94 39q53 0 92 -39t39 -92t-39 -92t-92 -39q-55 0 -94 39t-39 92zM836 1657q0 53 37.5 92t93.5 39q55 0 94 -39t39 -92t-39 -92t-94 -39t-93 39t-38 92z" />
<glyph unicode="&#xf7;" horiz-adv-x="704" />
<glyph unicode="&#xf8;" horiz-adv-x="1632" d="M41 729q0 315 235 535q229 217 547 217q246 0 451 -140l98 115q35 39 72 6q18 -14 18 -37q0 -18 -14 -34l-94 -113q113 -84 184 -248q66 -154 66 -301q0 -307 -230.5 -529.5t-550.5 -222.5q-250 0 -452 142l-97 -115q-18 -20 -41 -20q-51 0 -51 51q0 18 15 35l96 110 q-8 6 -21 19q-231 219 -231 530zM295 819q0 -256 139 -471l717 844q-186 207 -401 207q-51 0 -103 -15q-172 -45 -268 -219q-84 -153 -84 -346zM496 266q186 -207 401 -207q51 0 102 15q172 45 269 219q84 154 84 346q0 256 -140 471z" />
<glyph unicode="&#xf9;" horiz-adv-x="1429" d="M80 1464q0 16 18 17h543q16 0 16 -17q0 -14 -21.5 -16t-39.5 -2q-43 -4 -70 -31q-33 -29 -26 -67q12 -203 73 -695q92 -549 273 -549q98 0 178 136q106 178 141 536l37 572q4 43 -30.5 71.5t-79.5 28.5h-31q-14 0 -17 16q0 16 17 17h375q16 0 16 -17q0 -16 -16 -16 q-133 0 -142 -105l-37 -616q-41 -395 -167.5 -571t-307.5 -176q-172 0 -295 167q-131 176 -186 576l-63 620q-12 104 -140 105q-18 0 -18 16zM346 1876h256l266 -336h-151z" />
<glyph unicode="&#xfa;" horiz-adv-x="1429" d="M80 1464q0 16 18 17h543q16 0 16 -17q0 -14 -21.5 -16t-39.5 -2q-43 -4 -70 -31q-33 -29 -26 -67q12 -203 73 -695q92 -549 273 -549q98 0 178 136q106 178 141 536l37 572q4 43 -30.5 71.5t-79.5 28.5h-31q-14 0 -17 16q0 16 17 17h375q16 0 16 -17q0 -16 -16 -16 q-133 0 -142 -105l-37 -616q-41 -395 -167.5 -571t-307.5 -176q-172 0 -295 167q-131 176 -186 576l-63 620q-12 104 -140 105q-18 0 -18 16zM696 1540l267 336h256l-371 -336h-152z" />
<glyph unicode="&#xfb;" horiz-adv-x="1429" d="M80 1464q0 16 18 17h543q16 0 16 -17q0 -14 -21.5 -16t-39.5 -2q-43 -4 -70 -31q-33 -29 -26 -67q12 -203 73 -695q92 -549 273 -549q98 0 178 136q106 178 141 536l37 572q4 43 -30.5 71.5t-79.5 28.5h-31q-14 0 -17 16q0 16 17 17h375q16 0 16 -17q0 -16 -16 -16 q-133 0 -142 -105l-37 -616q-41 -395 -167.5 -571t-307.5 -176q-172 0 -295 167q-131 176 -186 576l-63 620q-12 104 -140 105q-18 0 -18 16zM434 1538l275 338h159l279 -338h-156l-198 162l-203 -162h-156z" />
<glyph unicode="&#xfc;" horiz-adv-x="1429" d="M80 1464q0 16 18 17h543q16 0 16 -17q0 -14 -21.5 -16t-39.5 -2q-43 -4 -70 -31q-33 -29 -26 -67q12 -203 73 -695q92 -549 273 -549q98 0 178 136q106 178 141 536l37 572q4 43 -30.5 71.5t-79.5 28.5h-31q-14 0 -17 16q0 16 17 17h375q16 0 16 -17q0 -16 -16 -16 q-133 0 -142 -105l-37 -616q-41 -395 -167.5 -571t-307.5 -176q-172 0 -295 167q-131 176 -186 576l-63 620q-12 104 -140 105q-18 0 -18 16zM424 1669q0 53 39 92t94 39q53 0 92 -39t39 -92t-39 -92t-92 -39q-55 0 -94 39t-39 92zM754 1669q0 53 38.5 92t92.5 39 q55 0 94 -39t39 -92t-39 -92t-94 -39q-53 0 -92 39t-39 92z" />
<glyph unicode="&#xfd;" horiz-adv-x="1574" d="M29 1468q0 16 18 17h617q18 0 18 -17q0 -14 -43 -17t-43 -38q0 -43 57 -96l291 -275l199 228q33 37 33 80q0 47 -33 74.5t-80 27.5h-31q-18 0 -18 16t18 17h518q18 0 19 -17q0 -16 -19 -16q-63 0 -115.5 -25.5t-99.5 -80.5l-325 -371v-766q0 -63 44 -119.5t105 -56.5 q53 0 53 -17q0 -18 -18 -18h-633q-16 0 -16 18q0 16 51 17q63 0 107.5 56t44.5 120v700l-453 424q-66 66 -115 92.5t-133 26.5q-18 0 -18 16zM788 1536l267 336h256l-371 -336h-152z" />
<glyph unicode="&#xfe;" horiz-adv-x="1339" d="M29 14q0 16 18 17h33q63 0 107 56t44 120v1065q0 66 -44 122t-107 56h-33q-18 0 -18 16t18 17h631q18 0 18 -17q0 -16 -18 -16h-33q-63 0 -107 -56.5t-44 -121.5v-72h180q281 0 456 -94q182 -100 183 -246q0 -168 -217 -270.5t-523 -102.5q-53 0 -79 2v-282 q0 -63 44 -119.5t107 -56.5h33q18 0 18 -17q0 -18 -18 -18h-631q-18 0 -18 18zM494 559q39 -6 79 -6q176 0 296 86t120 205t-118.5 205t-286.5 86q-90 0 -90 -97v-479z" />
<glyph unicode="&#xff;" horiz-adv-x="1574" d="M29 1468q0 16 18 17h617q18 0 18 -17q0 -14 -43 -17t-43 -38q0 -43 57 -96l291 -275l199 228q33 37 33 80q0 47 -33 74.5t-80 27.5h-31q-18 0 -18 16t18 17h518q18 0 19 -17q0 -16 -19 -16q-63 0 -115.5 -25.5t-99.5 -80.5l-325 -371v-766q0 -63 44 -119.5t105 -56.5 q53 0 53 -17q0 -18 -18 -18h-633q-16 0 -16 18q0 16 51 17q63 0 107.5 56t44.5 120v700l-453 424q-66 66 -115 92.5t-133 26.5q-18 0 -18 16zM559 1659q0 53 39 92t94 39q53 0 92 -39t39 -92t-39 -92t-92 -39q-55 0 -94 39t-39 92zM889 1659q0 53 38 92t93 39t94 -39t39 -92 t-39 -92t-94 -39t-93 39t-38 92z" />
<glyph unicode="&#x152;" horiz-adv-x="2594" d="M16 831q0 354 260.5 604.5t626.5 250.5q356 0 619 -242v88q0 51 -37 84t-90 33h-35q-20 0 -21 18q0 20 21 21h1200q23 0 18 -23q-25 -213 -213 -344q-4 -4 -10 -4q-18 0 -18 20l13 31q13 31 13 62q0 100 -133 153q-98 37 -219 37h-67q-51 0 -89 -33t-38 -84v-893h202 q84 0 125 26t82 99q8 12 21 8q14 -4 14 -16v-328q0 -12 -14 -16q-12 -8 -21 6q-41 72 -80 98q-45 29 -127 29h-202v-278q0 -86 61 -134q55 -41 145 -41q115 0 218 62q117 70 116 174q0 63 -47 117q-8 10 0 22q12 10 23 8q223 -94 223 -260q0 -41 -29 -100q-35 -68 -78 -88 h-1138q-20 0 -21 20q0 18 21 19h37q68 0 116.5 56.5t55.5 125.5q-258 -242 -617 -242q-358 0 -622.5 249t-264.5 605zM303 940q0 -129 35 -260q82 -307 309 -483q162 -125 340 -125q59 0 115 14q197 51 305 250q96 174 96 393q0 127 -35 254q-63 240 -231 414 q-188 195 -418 194q-59 0 -117 -14q-193 -51 -303 -248q-96 -174 -96 -389z" />
<glyph unicode="&#x153;" horiz-adv-x="2445" d="M72 729q0 311 229 531.5t551 220.5q315 0 545 -213v78q0 45 -33 73.5t-78 28.5h-31q-18 0 -18 16q0 18 18 19h1055q18 0 17 -21q-23 -186 -187 -303q-4 -2 -10 -2q-8 0 -14 8q-4 8 0 17q23 31 22 73q0 88 -119 136q-86 33 -192 32h-60q-45 0 -77.5 -28.5t-32.5 -73.5 v-786h178q74 0 109.5 22.5t72.5 87.5q6 10 19 6q12 -4 12 -14v-289q0 -10 -12 -14q-12 -6 -19 6q-37 63 -73.5 88t-108.5 25h-178v-246q0 -154 182 -154q100 0 191 53q102 61 102 154q0 57 -41 102q-8 10 0 21q10 10 20 8q197 -84 197 -229q0 -37 -27 -88q-31 -61 -67 -78 h-1002q-18 0 -18 18q0 16 18 17h31q59 0 102.5 49t49.5 110q-227 -213 -543 -213q-315 0 -545 218q-235 221 -235 534zM326 825q0 -115 30 -229q55 -211 203 -365q166 -172 369 -172q135 0 243 86q100 78 156 213q53 129 53 281q0 113 -30 223q-55 211 -203 365 q-166 172 -369 172q-51 0 -102 -15q-170 -45 -266 -217q-84 -154 -84 -342z" />
<glyph unicode="&#x178;" horiz-adv-x="1757" d="M0 1669q0 18 21 19h702q20 0 21 -19q0 -16 -49 -19t-49 -44q0 -47 65 -109l330 -311l225 258q37 43 37 92q0 51 -37 83t-90 32h-35q-20 0 -20 18t20 19h590q20 0 20 -19q0 -18 -20 -18q-74 0 -132.5 -30t-113.5 -91l-371 -422v-868q0 -74 50.5 -137.5t122.5 -63.5 q59 0 59 -19q0 -20 -21 -20h-718q-20 0 -21 20q0 18 60 19q72 0 122 63.5t50 137.5v794l-515 482q-76 76 -131 105.5t-151 29.5q-21 0 -21 18zM664 1872q0 53 39 92t94 39q53 0 92 -39t39 -92t-39 -92t-92 -39q-55 0 -94 39t-39 92zM994 1872q0 53 38.5 92t92.5 39 q55 0 94 -39t39 -92t-39 -92t-94 -39q-53 0 -92 39t-39 92z" />
<glyph unicode="&#x2c6;" horiz-adv-x="698" d="M-8 1577l274 338h160l279 -338h-156l-199 162l-203 -162h-155z" />
<glyph unicode="&#x2da;" horiz-adv-x="616" d="M580 2007q0 -113 -80 -191.5t-191 -78.5q-113 0 -191.5 78.5t-78.5 191.5t79 192.5t191 79.5q111 0 191 -79.5t80 -192.5zM457 2007q0 61 -44 104t-104 43q-61 0 -104 -43t-43 -104q0 -59 43 -102t104 -43q59 0 103.5 43t44.5 102z" />
<glyph unicode="&#x2dc;" horiz-adv-x="745" d="M-8 1579q23 123 59 182q53 90 158 90q57 0 188 -57q55 -25 88 -37q43 -16 80 -16q82 0 97 86h90q-14 -98 -66 -164q-59 -76 -149 -76q-33 0 -70 10q-63 27 -197 78q-35 12 -63 13q-90 0 -127 -109h-88z" />
<glyph unicode="&#x2000;" horiz-adv-x="1138" />
<glyph unicode="&#x2001;" horiz-adv-x="2279" />
<glyph unicode="&#x2002;" horiz-adv-x="1138" />
<glyph unicode="&#x2003;" horiz-adv-x="2279" />
<glyph unicode="&#x2004;" horiz-adv-x="759" />
<glyph unicode="&#x2005;" horiz-adv-x="569" />
<glyph unicode="&#x2006;" horiz-adv-x="378" />
<glyph unicode="&#x2007;" horiz-adv-x="378" />
<glyph unicode="&#x2008;" horiz-adv-x="284" />
<glyph unicode="&#x2009;" horiz-adv-x="454" />
<glyph unicode="&#x200a;" horiz-adv-x="124" />
<glyph unicode="&#x2010;" horiz-adv-x="413" d="M14 674v188q0 18 21 19h344q20 0 20 -19v-188q0 -18 -20 -19h-344q-21 1 -21 19z" />
<glyph unicode="&#x2011;" horiz-adv-x="413" d="M14 674v188q0 18 21 19h344q20 0 20 -19v-188q0 -18 -20 -19h-344q-21 1 -21 19z" />
<glyph unicode="&#x2012;" horiz-adv-x="413" d="M14 674v188q0 18 21 19h344q20 0 20 -19v-188q0 -18 -20 -19h-344q-21 1 -21 19z" />
<glyph unicode="&#x2013;" horiz-adv-x="966" d="M-6 674v188q0 18 20 19h938q20 0 21 -19v-188q0 -18 -21 -19h-938q-20 1 -20 19z" />
<glyph unicode="&#x2014;" horiz-adv-x="1990" d="M-6 674v188q0 18 20 19h1962q20 0 21 -19v-188q0 -18 -21 -19h-1962q-20 1 -20 19z" />
<glyph unicode="&#x2018;" horiz-adv-x="417" d="M39 1501q0 156 141 221q12 4 23 -4q8 -12 -2 -22q-37 -47 -41 -103q51 4 90 -31.5t39 -88.5q0 -49 -35 -85t-86 -36q-55 0 -92 44t-37 105z" />
<glyph unicode="&#x2019;" horiz-adv-x="401" d="M76 1602q0 49 34.5 84.5t86.5 35.5q55 0 92 -44t37 -105q0 -156 -142 -221q-12 -4 -22 4q-8 12 2 22q35 47 41 103q-51 -4 -90 32t-39 89z" />
<glyph unicode="&#x201a;" horiz-adv-x="434" d="M76 135q0 57 40 97t97 40q61 0 104 -50t43 -120q0 -80 -44 -147.5t-117 -101.5q-14 -6 -25 4q-10 14 2 24q39 53 47 117q-59 -4 -103 37t-44 100z" />
<glyph unicode="&#x201c;" horiz-adv-x="690" d="M41 1501q0 156 143 221q12 4 21 -4q8 -12 0 -22q-37 -47 -43 -103q53 4 92 -31.5t39 -88.5q0 -49 -36 -85t-85 -36q-55 0 -93 44t-38 105zM311 1501q0 156 144 221q12 4 20 -4q8 -12 0 -22q-37 -47 -43 -103q53 4 92 -31.5t39 -88.5q0 -49 -35.5 -85t-85.5 -36 q-57 0 -94 44t-37 105z" />
<glyph unicode="&#x201d;" horiz-adv-x="673" d="M78 1602q0 49 34.5 84.5t84.5 35.5q57 0 94 -44t37 -105q0 -156 -144 -221q-12 -4 -20 4q-8 12 2 22q35 47 41 103q-53 -4 -91 32t-38 89zM348 1602q0 49 35 84.5t84 35.5q57 0 94 -44t37 -105q0 -156 -143 -221q-12 -4 -21 4q-8 12 2 22q35 47 41 103q-53 -4 -91 32 t-38 89z" />
<glyph unicode="&#x201e;" horiz-adv-x="747" d="M78 135q0 57 40 97t97 40q63 0 105 -50t42 -120q0 -80 -44 -147.5t-117 -101.5q-14 -6 -25 4q-10 14 2 24q41 53 47 117q-59 -4 -103 37t-44 100zM385 135q0 57 40 97t97 40q63 0 105.5 -50t42.5 -120q0 -80 -44 -147.5t-118 -101.5q-14 -6 -25 4q-10 14 2 24 q41 53 47 117q-59 -4 -103 37t-44 100z" />
<glyph unicode="&#x2022;" horiz-adv-x="495" d="M2 825q0 100 71.5 172t174.5 72q100 0 172 -71.5t72 -172.5q0 -102 -72 -173.5t-172 -71.5q-102 0 -174 71.5t-72 173.5z" />
<glyph unicode="&#x2026;" horiz-adv-x="1234" d="M113 133q0 55 40 95t97 40q55 0 96 -40t41 -95q0 -57 -41 -97t-96 -40q-57 0 -97 40t-40 97zM481 133q0 55 40 95t97 40q55 0 96.5 -40t41.5 -95q0 -57 -41 -97t-97 -40q-57 0 -97 40t-40 97zM850 133q0 55 40 95t97 40q55 0 96 -40t41 -95q0 -57 -41 -97t-96 -40 q-57 0 -97 40t-40 97z" />
<glyph unicode="&#x202f;" horiz-adv-x="454" />
<glyph unicode="&#x2039;" horiz-adv-x="299" d="M-4 748v184l305 321v-178l-145 -229l145 -236v-180z" />
<glyph unicode="&#x205f;" horiz-adv-x="569" />
<glyph unicode="&#x20ac;" horiz-adv-x="1509" d="M-16 733l59 80h121v55h-180l59 80h125q18 141 55 246q84 229 256 362q190 150 455 150q352 0 582 -295q8 -10 8 -20q0 -35 -33 -35q-12 0 -23 12q-131 190 -364 227q-41 6 -80 7q-236 0 -381 -218q-117 -178 -143 -436h717l-62 -80h-659v-55h608l-62 -80h-542 q23 -260 137 -436q139 -215 379 -215q141 0 266 68q8 4 16 4q29 0 29 -33q0 -25 -27 -39q-176 -102 -366 -102q-326 0 -535 221q-197 207 -229 532h-186z" />
<glyph unicode="&#x2122;" horiz-adv-x="3543" d="M1565 20q0 18 47 19q74 0 131 65q51 61 56 138q29 408 69 1222v11q2 86 -65 133q-59 43 -150 43q-29 0 -29 18t21 19h436l451 -467l389 467h426q20 0 20 -19q0 -18 -30 -18q-88 0 -145.5 -47.5t-57.5 -135.5v-20l113 -1206q8 -76 63 -139.5t129 -63.5q57 0 57 -19 q0 -20 -20 -20h-717q-20 0 -20 20q0 18 53 19q72 0 116 55.5t44 128.5q0 8 -2 17l-105 1181l-403 -487l-465 455q-27 -383 -64 -1149v-11q-2 -70 44 -130t116 -60q78 0 78 -19q0 -20 -21 -20h-544q-21 0 -21 20zM2290 530q0 133 76 221.5t207 88.5q-37 -51 -37 -109 q0 -49 49 -168t49 -203q0 -133 -69.5 -236.5t-190.5 -156.5q37 94 37 168q0 68 -60.5 189.5t-60.5 205.5zM8 1339q0 25 189 416q6 12 16 12q18 0 18 -18q0 -6 -20 -49h1239q31 59 41 59q18 0 18 -20q0 -2 -28 -64l-156 -340q-6 -14 -16 -14q-20 0 -21 16q0 4 2 11 q12 35 13 82q0 86 -49.5 139t-135.5 53h-217v-1384q0 -74 47 -134q51 -66 123 -65q59 0 59 -21q0 -18 -20 -18h-715q-18 0 -18 18q0 20 57 21q74 0 123 62.5t49 136.5v1384h-137q-147 0 -239.5 -58.5t-186.5 -230.5q-6 -12 -16 -12q-19 0 -19 18z" />
<glyph unicode="&#xe000;" horiz-adv-x="1500" d="M0 1500h1500v-1500h-1500v1500z" />
<glyph unicode="&#xfb01;" horiz-adv-x="1894" d="M1192 16q0 16 16 17h35q63 0 107.5 56t44.5 120v1141q0 45 -32 73.5t-79 28.5h-31q-18 0 -18 16t18 17h545q18 0 18 -17q0 -16 -18 -16h-31q-47 0 -79.5 -28.5t-32.5 -73.5v-1141q0 -63 45 -119.5t108 -56.5h33q18 0 18 -17q0 -16 -18 -16h-633q-16 0 -16 16zM14 16 q0 16 17 17h35q63 0 107 56t44 120v1141q0 45 -31.5 73.5t-79.5 28.5h-30q-16 0 -17 16q0 16 17 17h1057q17 0 16 -15q0 -87 -54 -169t-134 -138q-4 -4 -9 -4q-18 0 -18 19q0 2 13.5 28.5t13.5 53.5q0 88 -119 133q-86 33 -193 32h-59q-45 0 -78 -27.5t-33 -74.5v-784h152 q82 0 121 30q29 20 61 78q6 10 18 8q12 -4 13 -14v-289q0 -12 -13 -14q-12 -6 -18 6q-37 63 -74 87t-108 24h-152v-246q0 -63 44 -119.5t108 -56.5h33q18 0 18 -17q0 -16 -18 -16h-633q-17 0 -17 16z" />
<glyph unicode="&#xfb02;" horiz-adv-x="2402" d="M1184 16q0 16 16 17h31q63 0 107 56t44 120v1141q0 45 -32.5 73.5t-77.5 28.5h-29q-18 0 -18 16t18 17h578q18 0 18 -17q0 -16 -18 -16h-68q-45 0 -77 -28.5t-32 -73.5v-1141q0 -61 43 -104.5t109 -47.5h7q74 0 141 41q71 43 71 119q0 86 -110 150q74 41 139 41 q74 0 135 -53.5t82 -145.5q25 -115 133 -166q-80 -45 -131 -45h-1063q-16 0 -16 18zM14 16q0 16 17 17h35q63 0 107 56t44 120v1141q0 45 -31.5 73.5t-79.5 28.5h-30q-16 0 -17 16q0 16 17 17h1057q17 0 16 -15q0 -87 -54 -169t-134 -138q-4 -4 -9 -4q-18 0 -18 19 q0 2 13.5 28.5t13.5 53.5q0 88 -119 133q-86 33 -193 32h-59q-45 0 -78 -27.5t-33 -74.5v-784h152q82 0 121 30q29 20 61 78q6 10 18 8q12 -4 13 -14v-289q0 -12 -13 -14q-12 -6 -18 6q-37 63 -74 87t-108 24h-152v-246q0 -63 44 -119.5t108 -56.5h33q18 0 18 -17 q0 -16 -18 -16h-633q-17 0 -17 16z" />
<glyph unicode="&#xfb03;" horiz-adv-x="3051" d="M2349 16q0 16 16 17h35q63 0 107.5 56t44.5 120v1141q0 45 -32 73.5t-79 28.5h-31q-18 0 -18 16t18 17h545q18 0 18 -17q0 -16 -18 -16h-31q-47 0 -79.5 -28.5t-32.5 -73.5v-1141q0 -63 45 -119.5t108 -56.5h33q18 0 18 -17q0 -16 -18 -16h-633q-16 0 -16 16zM1171 16 q0 16 17 17h35q63 0 107 56t44 120v1141q0 45 -31.5 73.5t-79.5 28.5h-30q-16 0 -17 16q0 16 17 17h1057q17 0 16 -15q0 -87 -54 -169t-134 -138q-4 -4 -9 -4q-18 0 -18 19q0 2 13.5 28.5t13.5 53.5q0 88 -119 133q-86 33 -193 32h-59q-45 0 -78 -27.5t-33 -74.5v-784h152 q82 0 121 30q29 20 61 78q6 10 18 8q12 -4 13 -14v-289q0 -12 -13 -14q-12 -6 -18 6q-37 63 -74 87t-108 24h-152v-246q0 -63 44 -119.5t108 -56.5h33q18 0 18 -17q0 -16 -18 -16h-633q-17 0 -17 16zM14 16q0 16 17 17h35q63 0 107 56t44 120v1141q0 45 -31.5 73.5 t-79.5 28.5h-30q-16 0 -17 16q0 16 17 17h1057q17 0 16 -15q0 -87 -54 -169t-134 -138q-4 -4 -9 -4q-18 0 -18 19q0 2 13.5 28.5t13.5 53.5q0 88 -119 133q-86 33 -193 32h-59q-45 0 -78 -27.5t-33 -74.5v-784h152q82 0 121 30q29 20 61 78q6 10 18 8q12 -4 13 -14v-289 q0 -12 -13 -14q-12 -6 -18 6q-37 63 -74 87t-108 24h-152v-246q0 -63 44 -119.5t108 -56.5h33q18 0 18 -17q0 -16 -18 -16h-633q-17 0 -17 16z" />
<glyph unicode="&#xfb04;" horiz-adv-x="3559" d="M2341 16q0 16 16 17h31q63 0 107 56t44 120v1141q0 45 -32.5 73.5t-77.5 28.5h-29q-18 0 -18 16t18 17h578q18 0 18 -17q0 -16 -18 -16h-68q-45 0 -77 -28.5t-32 -73.5v-1141q0 -61 43 -104.5t109 -47.5h7q74 0 141 41q71 43 71 119q0 86 -110 150q74 41 139 41 q74 0 135 -53.5t82 -145.5q25 -115 133 -166q-80 -45 -131 -45h-1063q-16 0 -16 18zM1171 16q0 16 17 17h35q63 0 107 56t44 120v1141q0 45 -31.5 73.5t-79.5 28.5h-30q-16 0 -17 16q0 16 17 17h1057q17 0 16 -15q0 -87 -54 -169t-134 -138q-4 -4 -9 -4q-18 0 -18 19 q0 2 13.5 28.5t13.5 53.5q0 88 -119 133q-86 33 -193 32h-59q-45 0 -78 -27.5t-33 -74.5v-784h152q82 0 121 30q29 20 61 78q6 10 18 8q12 -4 13 -14v-289q0 -12 -13 -14q-12 -6 -18 6q-37 63 -74 87t-108 24h-152v-246q0 -63 44 -119.5t108 -56.5h33q18 0 18 -17 q0 -16 -18 -16h-633q-17 0 -17 16zM14 16q0 16 17 17h35q63 0 107 56t44 120v1141q0 45 -31.5 73.5t-79.5 28.5h-30q-16 0 -17 16q0 16 17 17h1057q17 0 16 -15q0 -87 -54 -169t-134 -138q-4 -4 -9 -4q-18 0 -18 19q0 2 13.5 28.5t13.5 53.5q0 88 -119 133q-86 33 -193 32 h-59q-45 0 -78 -27.5t-33 -74.5v-784h152q82 0 121 30q29 20 61 78q6 10 18 8q12 -4 13 -14v-289q0 -12 -13 -14q-12 -6 -18 6q-37 63 -74 87t-108 24h-152v-246q0 -63 44 -119.5t108 -56.5h33q18 0 18 -17q0 -16 -18 -16h-633q-17 0 -17 16z" />
</font>
</defs>
</svg>
