<?xml version="1.0" standalone="no"?>
<!DOCTYPE svg PUBLIC "-//W3C//DTD SVG 1.1//EN" "http://www.w3.org/Graphics/SVG/1.1/DTD/svg11.dtd" >
<svg xmlns="http://www.w3.org/2000/svg">
<metadata>
This is a custom SVG webfont generated by Font Squirrel.
Copyright   : Copyright c 2002 Nick Curtis All Rights Reserved
</metadata>
<defs>
<font id="webfontAqzDoduz" horiz-adv-x="1699" >
<font-face units-per-em="2048" ascent="1638" descent="-410" />
<missing-glyph horiz-adv-x="516" />
<glyph unicode=" "  horiz-adv-x="516" />
<glyph unicode="&#x09;" horiz-adv-x="516" />
<glyph unicode="&#xa0;" horiz-adv-x="516" />
<glyph unicode="!" horiz-adv-x="278" d="M43 924q0 41 27.5 68.5t68.5 27.5q39 0 68 -27.5t29 -68.5q0 -96 -33 -357q-16 -121 -39 -352q-2 -18 -25 -18q-25 0 -24 18q-6 78 -39 332q-35 271 -33 377zM55 74q0 35 24.5 59.5t59.5 24.5q33 0 57.5 -24.5t24.5 -59.5t-24.5 -58.5t-57.5 -23.5q-35 0 -59.5 23.5 t-24.5 58.5z" />
<glyph unicode="&#x22;" horiz-adv-x="446" d="M63 1188q-10 55 10.5 88t63.5 33q41 0 64 -31q18 -39 6 -90t-25 -90q-10 -23 -20 -58q0 -20 -27 -20t-28 18.5t-17 59.5q-11 29 -27 90zM238 1188q-12 55 9 88t64 33q41 0 61.5 -32t10.5 -89q-6 -31 -29 -90q-6 -25 -15 -51.5t-30 -26.5q-27 0 -28 20q0 14 -20.5 73 t-22.5 75z" />
<glyph unicode="#" />
<glyph unicode="$" horiz-adv-x="882" d="M35 674q0 25 4 53q18 131 160 223q100 63 223 84v76q0 27 24 27q25 0 25 -27v-70q12 2 45 2q236 0 332 -155l-137 -209l-23 8q6 27 6 53q0 84 -54 143.5t-142 75.5q-10 2 -27 5v-394q145 -41 211 -88q98 -72 90 -198q-6 -133 -113 -213q-82 -59 -188 -76v-76 q0 -25 -25 -24q-25 0 -24 24v72q-106 -4 -193 30l-51 -51l-125 293l68 6q16 -92 94 -151q72 -55 170 -68q31 -2 37 -2v326q-14 4 -47 12q-168 45 -232 88q-108 70 -108 201zM176 778q-4 -82 72 -131q51 -33 174 -65v383q-94 -2 -164 -50q-76 -53 -82 -137zM471 49 q160 16 174 127q16 121 -174 184v-311z" />
<glyph unicode="%" />
<glyph unicode="&#x26;" horiz-adv-x="1101" d="M84 311q0 115 84 213q74 86 188 138l-92 202q-35 74 -64.5 100.5t-99.5 26.5q-12 0 -12 13q0 10 12 10h756q41 0 72 -19q18 -10 -2 -20q-53 -25 -70 -105q-33 -139 -156 -139q-37 0 -69 19q-6 4 -6 12q0 6 6 8q59 29 59 98q0 47 -34.5 77t-94.5 30h-74q-37 0 -51 -29 q-14 -31 6 -74l346 -729q82 57 82 183q0 162 -116 247q-51 37 -107 37q-20 0 -41 -6q-23 -4 -26 21q-10 25 20 32q49 14 98 15q104 0 190.5 -54.5t117.5 -152.5q12 -39 12 -80q0 -92 -57.5 -172t-147.5 -119q35 -80 109 -80h45q12 0 12 -12t-12 -12h-291q-12 0 -19 26 q-86 -31 -176 -30q-135 0 -241 65q-119 72 -148 195q-8 32 -8 65zM270 416q0 -106 59.5 -202.5t151.5 -139.5q86 -41 156 -17l-260 564q-107 -60 -107 -205z" />
<glyph unicode="'" horiz-adv-x="251" d="M53 1188q-12 53 10 90q20 31 64 31q41 0 61.5 -32t10.5 -89q-4 -16 -29 -90q-14 -47 -14 -58q-2 -20 -29 -20q-29 0 -30 20.5t-17 57.5q-11 29 -27 90z" />
<glyph unicode="(" horiz-adv-x="468" d="M35 430q0 203 108.5 368t278.5 220q8 2 14 -6q4 -8 -2 -15q-111 -92 -170 -260q-51 -145 -51 -307q0 -164 51 -309q57 -164 170 -260q6 -6 0 -15q-4 -8 -12 -4q-174 61 -280.5 223t-106.5 365z" />
<glyph unicode=")" horiz-adv-x="436" d="M18 -139q102 86 163 241.5t61 327.5t-61.5 328.5t-162.5 238.5q-6 6 0 15q4 8 11 6q172 -55 280.5 -220t108.5 -368t-105.5 -365.5t-283.5 -222.5q-6 -4 -11 4q-6 9 0 15z" />
<glyph unicode="*" horiz-adv-x="514" d="M72 813q0 51 118 74q-45 8 -61 14q-37 12 -49 37q-6 10 -6 25q0 51 47 53q41 2 100 -72q-20 66 -20 88q0 20 11 39t42 19t47 -21q8 -16 8 -39q0 -29 -20 -88q66 76 102 74q51 -2 51 -55q0 -12 -6 -23q-20 -27 -51 -37q-14 -6 -63 -14l63 -15q39 -14 51 -36q6 -10 6 -23 q0 -53 -51 -55q-27 -2 -57 24q-20 18 -45 49q20 -61 20 -88q0 -61 -55 -61q-53 0 -53 59q0 31 22 88q-63 -74 -102 -71q-49 2 -49 55z" />
<glyph unicode="+" />
<glyph unicode="," horiz-adv-x="239" d="M35 80q0 33 23.5 57.5t58.5 24.5q41 0 64.5 -29t23.5 -74q0 -109 -96 -151q-10 -4 -15 2q-4 8 0 16q25 33 31 70q-37 -2 -63.5 22.5t-26.5 61.5z" />
<glyph unicode="-" horiz-adv-x="276" d="M20 391v113q0 12 13 12h211q12 0 12 -12v-113q0 -10 -12 -10h-211q-13 0 -13 10z" />
<glyph unicode="." horiz-adv-x="239" d="M37 80q0 33 24.5 57.5t57.5 24.5q35 0 59.5 -24.5t24.5 -57.5q0 -35 -24.5 -59.5t-59.5 -24.5t-58.5 24.5t-23.5 59.5z" />
<glyph unicode="/" />
<glyph unicode="0" horiz-adv-x="927" d="M41 508q0 213 124 363.5t298 150.5q176 0 300 -151.5t124 -362.5q0 -215 -124 -366.5t-300 -151.5q-172 0 -297 150.5t-125 367.5zM231 567q0 -76 15 -153q20 -123 76 -226q76 -143 174 -143q125 0 178 207q23 88 22 192q0 78 -12 154q-20 121 -76 227q-78 141 -176 142 q-123 0 -176 -205q-25 -91 -25 -195z" />
<glyph unicode="1" horiz-adv-x="610" d="M76 2q0 12 12 12h25q41 0 71.5 39t30.5 82v666q0 78 -72 78q-20 0 -39 -9q2 0 -12 -4q-16 -8 -16 4q-4 10 8 17l297 133q14 6 14 -10v-875q0 -43 31 -82t74 -39h22q12 0 13 -12q0 -12 -13 -12h-434q-12 0 -12 12z" />
<glyph unicode="2" horiz-adv-x="968" d="M86 864q0 6 2 6q51 76 168 117q96 33 203 33q158 0 280 -76q143 -88 144 -235q0 -162 -109 -250q-72 -59 -252 -119q-66 -20 -182 -74q-53 -33 -53 -102q0 -109 135 -109q90 0 125 11q72 18 71 84q0 43 -27 68l-28 26q0 12 33 22q27 6 45 6q123 0 145 -137 q12 -74 60 -104q8 -6 8 -11q0 -29 -80 -28h-672q-12 0 -12 10q0 4 6 68q16 150 172 258l281 164q145 98 145 229q0 86 -49 151q-53 74 -137 74q-115 0 -197 -69q-88 -74 -88 -187q0 -4 2 -12v-16q0 -12 -10 -13q-8 0 -10 4q-41 68 -117 207q-2 0 -2 4z" />
<glyph unicode="3" horiz-adv-x="872" d="M39 4q20 129 129 209q8 6 16 -2q6 -6 0 -14q-16 -27 -16 -50q0 -106 117 -106q57 0 118 27q86 41 140 114q61 84 61 191q0 98 -72 184q-66 78 -163 119q-45 -10 -107 -17q-35 0 -35 29t60 39q88 16 108 25q57 27 58 92q0 57 -46.5 89t-105.5 32q-53 0 -90 -25 q-43 -31 -43 -82q0 -27 16 -51q4 -6 -3 -13.5t-13 -0.5q-109 78 -129 208q0 12 10 13h254q147 0 215 -21q98 -31 98 -119q0 -90 -110 -147q135 -41 225 -125q104 -100 105 -229q0 -158 -152 -270.5t-354 -112.5h-281q-10 0 -10 14z" />
<glyph unicode="4" horiz-adv-x="888" d="M55 326q0 14 15 34l510 660q6 8 14 6t8 -10v-656h86q51 0 74.5 16.5t50.5 61.5q6 6 14 4t9 -8v-198q0 -8 -9 -11q-8 -2 -14 4q-27 45 -50.5 60.5t-74.5 15.5h-86v-184q0 -45 30 -76t73 -31h22q12 0 12 -12q0 -10 -12 -10h-432q-14 0 -14 10q0 12 14 12h20q45 0 76 39 t31 82v170h-344q-23 1 -23 21zM145 360h277v361z" />
<glyph unicode="5" horiz-adv-x="864" d="M59 1004q0 10 15 10h680q12 0 12 -13q-16 -129 -131 -208q-10 -12 -19 -2q-4 4 6 20l9 16q4 12 4 31q0 113 -191 117q-49 0 -71.5 -21.5t-22.5 -50.5v-160q164 -12 297 -106q154 -109 158 -264q4 -176 -137 -285q-127 -98 -310 -98h-282q-8 0 -10 12q-4 131 98 211 q6 4 13 -2t5 -14q-14 -23 -10 -50q16 -104 133 -104q70 0 135 41q133 84 133 244q0 176 -116 278q-90 80 -238 78q-6 0 -18 -2h-17q-14 0 -14 12v226q0 31 -22.5 51t-51.5 20h-22q-15 1 -15 13z" />
<glyph unicode="6" horiz-adv-x="958" d="M47 498q0 152 68 276q104 190 297 234q76 16 163 0q94 -16 150 -64q33 37 72 25q8 0 10 -8q2 -6 -6 -13q-27 -23 -33 -80q-12 -127 -94 -151q-76 -18 -94 28q-8 16 9 35t44 15q20 -4 6 -19q-10 -14 0 -18q20 -6 39 47q6 18 6 39q0 80 -63 106q-47 20 -127 13 q-94 -10 -160 -97q-53 -72 -78 -176q-8 -43 -14 -96q106 123 268 123t281.5 -108.5t119.5 -268.5q0 -131 -96 -229q-102 -102 -258 -127q-29 -4 -59 -4q-139 0 -258 92q-193 152 -193 426zM244 471q8 -182 90 -313q74 -117 176 -117q100 0 164.5 81t64.5 218q0 123 -51 211 q-63 106 -178 106q-82 0 -154.5 -52t-111.5 -134z" />
<glyph unicode="7" horiz-adv-x="974" d="M63 985q0 29 80 29h754q14 0 14 -10q0 -12 -14 -13q-72 0 -102.5 -25.5t-59.5 -101.5l-184 -489l-100 -269q-2 -18 -2 -28q0 -41 45 -60q12 -4 47 -4q12 0 12 -12t-12 -12h-428q-12 0 -13 12q0 12 60 12q78 0 106 74l142 379l149 405q8 23 8 48q0 55 -55 55h-74 q-127 0 -127 -107q0 -59 60 -98q6 0 6 -10q0 -27 -78 -27q-119 0 -154 137q-16 68 -71 105q-7 6 -9 10z" />
<glyph unicode="8" horiz-adv-x="952" d="M35 332q0 129 104 225q92 88 226 117q-74 16 -129 55q-70 49 -70 115q0 76 94 131q88 51 215 51q131 0 220 -52t89 -130q0 -66 -67 -115q-55 -39 -131 -55q135 -29 227 -117q102 -96 102 -225q0 -158 -145 -260q-129 -92 -295 -92q-182 0 -311 104.5t-129 247.5zM238 375 q0 -84 36.5 -168t102 -133t135.5 -49q94 0 152 88q49 76 49 176q0 125 -72 231q-80 117 -199 117q-98 0 -155 -84q-49 -76 -49 -178zM332 866q0 -68 50 -119t118 -51q53 0 88 36t35 89q0 68 -51.5 119t-116.5 51q-53 0 -88 -36t-35 -89z" />
<glyph unicode="9" horiz-adv-x="937" d="M39 655q0 152 131 260q125 100 281 101q139 0 258 -92q193 -152 192 -424q0 -152 -70 -277q-104 -193 -294 -235q-76 -16 -164 0q-92 16 -150 61q-35 -33 -73 -24q-18 8 -3 22q27 16 33 78q12 129 94 151q76 23 95 -28q8 -20 -9 -33q-14 -18 -43 -14q-8 2 -10 8 q-4 8 2 12q12 12 0 17q-12 2 -39 -45q-8 -18 -8 -39q0 -80 66 -107q49 -23 129 -14q121 12 192 153q43 86 58 217q-104 -123 -269 -122q-162 0 -280.5 107t-118.5 267zM209 655q0 -141 63.5 -229t165.5 -88q82 0 155 52t112 132q-10 186 -93 316q-72 117 -174 116 q-100 0 -164.5 -81t-64.5 -218z" />
<glyph unicode=":" horiz-adv-x="270" d="M53 88q0 35 23.5 58.5t58.5 23.5q33 0 57.5 -23.5t24.5 -58.5t-24.5 -59.5t-57.5 -24.5q-35 0 -58.5 24.5t-23.5 59.5zM53 498q0 35 23.5 58.5t58.5 23.5q33 0 57.5 -24t24.5 -58q0 -35 -24.5 -59.5t-57.5 -24.5q-35 0 -58.5 24.5t-23.5 59.5z" />
<glyph unicode=";" horiz-adv-x="268" d="M47 80q0 35 24.5 59.5t61.5 24.5q39 0 60 -31q29 -29 28 -72q0 -109 -98 -153q-8 -4 -17 4q-4 6 3 14q23 29 28 70q-35 -2 -62.5 23.5t-27.5 60.5zM51 489q0 33 24.5 57.5t57.5 24.5q35 0 59.5 -24.5t24.5 -57.5q0 -35 -24.5 -59t-59.5 -24q-33 0 -57.5 24t-24.5 59z" />
<glyph unicode="&#x3c;" />
<glyph unicode="=" />
<glyph unicode="&#x3e;" />
<glyph unicode="?" horiz-adv-x="983" d="M80 860q-4 4 0 10q47 78 162 117q92 35 198 35q133 0 258 -49q94 -35 150.5 -114t56.5 -167q0 -117 -92 -194q-45 -37 -156 -76q-119 -39 -157 -66q-74 -51 -74 -139q0 -12 -12 -12h-49q-10 0 -11 12q0 96 54 172q39 51 114.5 101.5t124.5 119.5q55 80 55 158 q0 86 -56 131t-144 45q-137 0 -213 -82q-57 -61 -58 -145q0 -29 7 -55q2 -8 -9 -11q-10 -4 -14 2zM313 74q0 35 23.5 59.5t56.5 24.5t57.5 -24.5t24.5 -59.5t-24.5 -58.5t-57.5 -23.5t-56.5 24.5t-23.5 57.5z" />
<glyph unicode="@" horiz-adv-x="1097" d="M47 528q0 242 186 381q137 104 332 105q160 0 292 -100.5t177 -256.5q16 -55 17 -108q0 -190 -170 -268q-59 -29 -111 -29q-39 0 -65 18q-74 -25 -154 -24q-113 0 -193 45q-86 47 -86 115t86 112q80 43 193 43q55 0 108 -10q0 178 -120 186q-37 2 -60.5 -20.5 t-23.5 -50.5q0 -55 65 -68q8 0 8 -10t-10 -13q-51 -4 -94 13q-55 23 -55 71q0 57 63 91q51 25 117 24q96 0 166 -51q74 -57 73 -156v-225q0 -45 39 -45q55 0 82 76q18 55 19 125q0 90 -29 178q-37 127 -119 203q-92 88 -221 88q-174 0 -272 -142q-86 -125 -86 -303 q0 -246 147 -381q121 -113 283 -112q90 0 176 39q10 6 16 -9q4 -12 -6 -18q-102 -51 -217 -51q-182 0 -335.5 116.5t-201.5 296.5q-16 62 -16 125zM403 403q0 -47 43 -79.5t115 -32.5q53 0 107 16q-8 25 -9 58v141q-53 12 -96 12q-72 0 -116 -33t-44 -82z" />
<glyph unicode="A" horiz-adv-x="1286" d="M78 10q0 12 12 13q43 0 84 35.5t62 80.5l317 719q82 186 209 240q4 2 7 2q6 0 7 -8q4 -12 -6 -15q-47 -23 -47 -98q0 -61 25 -121l303 -719q18 -43 55 -79.5t78 -36.5h12q10 0 10 -13q0 -10 -10 -10h-424q-14 0 -14 10t14 13q63 2 64 55q0 27 -21 55q-14 20 -63 60 q-80 59 -193 59q-168 0 -252 -119q18 -111 133 -110h33q12 0 12 -13q0 -10 -12 -10h-383q-12 0 -12 10zM340 254q98 63 217 63q139 0 240 -77l20 -21l-242 574z" />
<glyph unicode="B" horiz-adv-x="1095" d="M61 6q0 10 15 10h22q43 0 74 39t31 82v787q0 72 -76 71h-18q-14 0 -15 11q0 10 15 10h104q88 6 262 12q17 0 33 1q303 0 307 -146q0 -20 -4 -33q-16 -70 -104 -123q125 -35 215 -117q113 -102 112 -233q0 -164 -154.5 -273.5t-371.5 -109.5h-432q-15 0 -15 12zM381 135 q0 -39 27.5 -63.5t64.5 -24.5h6q132 0 227 95q97 97 97 235q0 98 -72 184q-63 78 -162 119q-77 -18 -149 -18q-20 0 -39 2v-529zM381 723h24q246 0 246 123q0 57 -63 92q-55 31 -117 31q-90 0 -90 -51v-195z" />
<glyph unicode="C" horiz-adv-x="968" d="M63 504q0 209 132 362q135 164 340 164q86 0 170 -37q37 80 110 80q12 0 12 -10l-4 -8q-37 -57 -37 -119q0 -25 5 -37q10 -53 10 -111q0 -80 -27 -126q-57 -102 -156 -103q-82 0 -81 59q0 25 23.5 45.5t49.5 20.5q14 0 15 -10q0 -6 -3.5 -12.5t-3.5 -10.5q0 -27 23 -26 q27 0 43 45q12 35 12 67q0 84 -55 156q-59 80 -139 80q-16 0 -29 -6q-111 -23 -170 -150q-49 -104 -49 -229q0 -57 14 -135q33 -186 146 -306q92 -98 192 -98q6 0 31 4q113 14 197 103l32 45q12 12 21 12q16 0 16 -20q0 -6 -4 -15q-63 -88 -161.5 -141t-202.5 -53 q-205 0 -340 161q-132 154 -132 359z" />
<glyph unicode="D" horiz-adv-x="1007" d="M61 4q0 12 13 12h22q43 0 74 39t31 82v785q0 72 -76 71h-23q-12 0 -12 11q0 14 12 14h316q215 0 371.5 -149.5t156.5 -364.5q0 -213 -156.5 -362.5t-371.5 -149.5h-344q-13 0 -13 12zM381 137q0 -82 45 -82q133 0 228.5 131t95.5 320q0 188 -96.5 321.5t-231.5 133.5 q-41 0 -41 -62v-762z" />
<glyph unicode="E" horiz-adv-x="872" d="M45 4q0 12 14 12h23q43 0 72.5 38t29.5 83v785q0 72 -75 71h-21q-12 0 -12 11q0 14 12 14h729q14 0 10 -14q-14 -129 -131 -209q-6 -6 -12 0q-8 6 -2 14q14 20 14 51q0 63 -80 92q-57 23 -133 23h-39q-80 0 -79 -70v-543h122q55 0 84 23q16 10 43 55q4 6 13 4q8 -2 8 -10 v-198q0 -8 -8 -11q-8 -2 -13 4q-43 78 -127 78h-122v-170q0 -104 124 -104q70 0 134 37q72 41 71 104q0 39 -30 72q-4 4 0 14q8 6 14 4q135 -55 135 -158q0 -25 -16 -59q-20 -43 -47 -55h-691q-14 0 -14 12z" />
<glyph unicode="F" horiz-adv-x="882" d="M49 4q0 12 12 12h25q43 0 73.5 39t30.5 82v785q0 72 -75 71h-21q-12 0 -12 11q0 14 12 14h725q14 0 15 -14q-20 -131 -132 -209q-6 -6 -14 0q-6 6 -2 14q16 27 16 51q0 61 -81 92q-59 23 -134 23h-41q-76 0 -75 -70v-543h104q55 0 82 23q16 10 43 55q4 6 14 4q6 -2 7 -10 v-198q0 -8 -7 -11q-8 -2 -26 23q-23 33 -31 37q-29 23 -82 22h-104v-170q0 -45 30.5 -83t73.5 -38h21q14 0 14 -12t-14 -12h-435q-12 0 -12 12z" />
<glyph unicode="G" horiz-adv-x="1046" d="M68 492q0 250 174 409q133 121 305 121q113 0 207 -57q42 70 108 70q5 0 10 -1q8 0 11 -8q4 -6 -2 -10q-54 -52 -54 -122q0 -15 2 -32q14 -104 15 -131q0 -63 -25 -108q-57 -100 -151 -101q-88 0 -89 65q0 47 70 60q23 0 13.5 -16.5t-2 -28.5t21.5 -14q20 0 37 24 q20 37 20 84q0 76 -45 156q-63 112 -155 112q-9 0 -19 -1q-127 -12 -198 -162q-57 -119 -58 -262q0 -217 107 -367q90 -131 198 -133h7q47 0 88 28q43 30 43 78q0 74 -86 99q-10 4 -11 18q4 12 13 12h344q13 0 12 -16q0 -11 -8 -14q-55 -12 -74 -37q-10 -14 -18 -57 q-125 -170 -351 -170q-223 0 -358 190q-102 142 -102 322z" />
<glyph unicode="H" horiz-adv-x="1163" d="M84 4q0 12 14 12h23q43 0 73.5 39t30.5 82v785q0 72 -75 71h-23q-10 0 -10 11q0 14 10 14h375q12 0 12 -14q0 -10 -12 -11h-21q-76 0 -75 -71v-574h352v574q0 72 -74 71h-20q-14 0 -15 11q0 14 15 14h372q12 0 13 -14q0 -10 -13 -11h-20q-76 0 -76 -71v-785 q0 -45 30.5 -83t73.5 -38h25q10 0 10 -12t-10 -12h-436q-14 0 -15 12q0 12 15 12h24q41 0 71 39t30 82v162h-352v-162q0 -45 29.5 -83t72.5 -38h24q14 0 15 -12q0 -12 -15 -12h-434q-14 0 -14 12z" />
<glyph unicode="I" horiz-adv-x="583" d="M63 4q0 12 11 12h22q45 0 76 38t31 83v785q0 72 -76 71h-23q-10 0 -10 11q0 14 10 14h377q12 0 13 -14q0 -10 -13 -11h-22q-76 0 -76 -71v-785q0 -45 30.5 -83t73.5 -38h23q12 0 12 -12t-12 -12h-436q-11 0 -11 12z" />
<glyph unicode="J" horiz-adv-x="1003" d="M61 297q0 125 86 216t211 91q90 0 155 -57.5t65 -149.5q0 -80 -59.5 -134t-139.5 -54q-49 0 -83 29.5t-34 78.5q0 57 68 93v-15q0 -63 47 -63q53 0 53 76q0 45 -24.5 77.5t-67.5 32.5q-72 0 -113 -65q-37 -53 -37 -131q0 -96 72 -172t168 -76q92 0 156.5 69.5t64.5 163.5 v613q0 31 -21.5 51t-52.5 20h-22q-14 0 -14 13q0 10 14 10h375q12 0 12 -10q0 -12 -12 -13h-21q-78 0 -78 -71v-613q0 -45 33 -69q-55 -115 -173 -180.5t-251 -65.5q-160 0 -260 76q-117 90 -117 229z" />
<glyph unicode="K" horiz-adv-x="1105" d="M68 4q0 12 12 12h22q43 0 75 38t32 83v785q0 72 -78 71h-20q-12 0 -13 11q0 12 13 12h372q12 0 13 -12q0 -10 -13 -11h-18q-78 0 -78 -71v-639q203 213 363 510q23 45 23 74q0 10 -3 18q-11 32 -51 31q-12 0 -27 -3q55 98 152 103h4q70 0 70 -70q0 -68 -67 -176 t-202 -272l-127 -150h13q72 0 172 -139q33 -49 100 -121q49 -29 100 -29q47 0 68.5 31t7.5 57q-8 20 -41 31q10 51 47 51q33 0 44 -31q7 -21 8 -41q0 -11 -3 -22q-10 -41 -56 -86t-87 -55q-39 -9 -76 -9q-76 0 -139 40q-53 35 -158 153q-51 61 -84 62q-33 0 -51 -41v-62 q0 -45 31 -83t76 -38h22q12 0 12 -12t-12 -12h-436q-12 0 -12 12z" />
<glyph unicode="L" horiz-adv-x="944" d="M55 4q0 12 13 12h20q45 0 76 38t31 83v785q0 72 -78 71h-19q-12 0 -12 11q0 12 12 12h398q12 0 12 -12q0 -10 -12 -11h-47q-74 0 -74 -71v-785q0 -43 29.5 -72.5t72.5 -31.5h7q51 0 97 27q48 30 48 81q0 59 -76 105q51 29 96 28q55 0 96 -40.5t54 -96.5q18 -80 90 -114 q-51 -31 -90 -31h-731q-13 0 -13 12z" />
<glyph unicode="M" horiz-adv-x="1353" d="M90 2q0 12 29 12q45 0 77.5 38t34.5 85q43 633 43 740v8q0 51 -37.5 78.5t-93.5 27.5q-16 0 -16 10q0 12 12 13h264l275 -283l235 283h256q12 0 13 -13q0 -10 -17 -10q-125 0 -125 -110v-13l70 -731q6 -45 40 -84t79 -39q33 0 33 -12t-13 -12h-434q-12 0 -12 12t31 12 q43 0 69.5 34t26.5 77q0 -2 0 10l-64 717l-245 -295l-281 274q-2 -39 -23 -348q-16 -211 -16 -348v-6q0 -43 27.5 -79t71.5 -36t44 -12t-12 -12h-330q-12 0 -12 12zM530 311q0 82 46.5 134.5t123.5 52.5q-20 -29 -20 -66q0 -29 29.5 -99.5t29.5 -125.5q0 -168 -159 -236 q25 61 24 101q0 41 -37 114.5t-37 124.5z" />
<glyph unicode="N" horiz-adv-x="1042" d="M72 993q0 12 12 13h295l414 -689v594q0 70 -76 70h-23q-10 0 -10 12t10 13h260q10 0 11 -13q0 -12 -11 -12h-20q-78 0 -78 -70v-723q0 -74 27 -157q33 -96 82 -135q7 -9 7 -15q0 -2 -1 -4q-7 -3 -12 -3q-3 0 -5 1q-100 37 -182 170l-444 717v-637q0 -43 30.5 -82 t73.5 -39h23q12 0 12 -12q0 -10 -12 -10h-320q-12 0 -12 10q0 12 12 12h25q43 0 73.5 39t30.5 82v739q-39 63 -71 86q-41 31 -109 31q-12 0 -12 12z" />
<glyph unicode="O" horiz-adv-x="1228" d="M76 496q0 215 160.5 365.5t377.5 150.5t378 -149.5t161 -366.5t-161 -368t-378 -151q-219 0 -378.5 154t-159.5 365zM252 555q0 -76 20 -152q39 -145 140 -249q113 -119 254 -119q147 0 235 129q78 115 78 270q0 76 -21 152q-39 145 -139 250q-115 119 -254 118 q-150 0 -237 -131q-76 -112 -76 -268z" />
<glyph unicode="P" horiz-adv-x="1001" d="M53 7q0 9 13 9h20q43 0 75 39t32 82v785q0 72 -76 71h-21q-14 0 -14 11q0 12 14 12h400q197 0 315 -66q127 -68 127 -168q0 -115 -152.5 -186.5t-357.5 -71.5q-37 0 -57 2v-389q0 -45 30.5 -83t73.5 -38h23q14 0 14 -12t-12 -12h-434q-13 0 -13 15zM371 573q18 -2 55 -2 q123 0 206 58.5t83 140.5t-84 140.5t-197 58.5q-63 0 -63 -64v-332z" />
<glyph unicode="Q" horiz-adv-x="1224" d="M76 483q0 217 158.5 367.5t375.5 150.5q219 0 379 -150.5t160 -367.5q0 -166 -102.5 -302t-260.5 -187l72 -60q31 -18 62 -18q35 0 64.5 23.5t29.5 58.5q0 33 -37 39q-10 0 -13 2t-3 12q10 37 47 37q33 0 45 -29.5t4 -60.5q-35 -147 -172 -148q-119 0 -213 119 q-41 -4 -62 -4q-217 0 -375.5 151.5t-158.5 366.5zM248 545q0 -76 20 -154q37 -137 127 -237q102 -113 234 -131q-96 131 -160 131q-16 0 -31 -11q-10 -6 -16 4q-8 8 2 15q55 47 108 47q80 0 201 -148q6 -8 17 -24q111 37 172 153q53 102 53 230q0 78 -21 153 q-47 188 -186 295q-98 76 -205 76q-150 0 -237 -131q-78 -112 -78 -268z" />
<glyph unicode="R" horiz-adv-x="1267" d="M68 0q0 12 10 12h26q43 0 73 39t30 82v787q0 70 -96 69q-12 0 -13 10q0 12 13 13h401q158 0 279 -51q164 -72 163 -209q0 -111 -147 -185q-109 -53 -242 -69q119 -59 209 -260q51 -119 94 -166q66 -74 170 -76h6q48 0 84 31q16 14 17 36q0 23 -25 13l-22 -13q0 76 59 76 q39 0 43 -45q0 -6 1 -12q0 -125 -204 -125q-66 0 -112 14q-145 47 -240 168q-16 23 -188 291q-14 25 -51 59q-2 2 -19 3v-359q0 -43 31 -82t74 -39h22q12 0 12 -12q0 -10 -12 -10h-436q-10 0 -10 10zM387 551q27 -4 55 -4q111 0 191 51q90 59 92 162q0 98 -90 155 q-78 51 -184 52q-63 0 -64 -66v-350z" />
<glyph unicode="S" horiz-adv-x="921" d="M53 651q0 27 4 56q20 145 181 235q139 80 299 80q236 0 331 -154l-139 -213l-20 11q6 25 6 51q0 104 -80 170q-74 59 -180 59q-98 0 -172 -47q-82 -53 -88 -141q0 -6 -1 -12q0 -80 80 -125q49 -29 191 -66q164 -45 227 -88q101 -67 101 -190v-19q-6 -137 -111 -213 q-111 -82 -262 -82q-92 0 -174 33l-49 -51l-123 295l65 6q18 -104 115 -168q88 -57 199 -58q86 0 145 37t68 97q1 9 1 16q0 81 -92 131q-51 29 -178 61q-170 45 -235 89q-109 69 -109 200z" />
<glyph unicode="T" horiz-adv-x="1013" d="M51 809q0 25 115 252q2 6 10 6q12 0 12 -10q0 -2 -14 -29h752q14 35 24 35q12 0 13 -12q0 -12 -19 -37l-94 -207q-6 -10 -12 -10q-10 0 -11 10q0 -2 0 6q10 18 11 51q0 115 -113 115h-133v-840q0 -43 29.5 -81t74.5 -38q35 0 35 -12q0 -10 -12 -10h-432q-10 0 -11 10 q0 12 33 12q45 0 75 38t30 81v840h-84q-88 0 -146 -35q-49 -31 -112 -139q-4 -8 -9 -8q-12 0 -12 12z" />
<glyph unicode="U" horiz-adv-x="1067" d="M59 1001q0 10 15 11h372q12 0 13 -11q0 -10 -17 -12h-26q-27 -4 -48.5 -22.5t-17.5 -46.5l39 -396q31 -256 98 -379q45 -82 101 -82q70 0 123 95q74 125 98 370q12 197 27 392q2 31 -23 51t-57 20h-21q-8 0 -8 10t8 11h260q10 0 11 -11q0 -10 -11 -10q-92 0 -98 -71 q-12 -213 -27 -426q-29 -274 -115.5 -394t-209.5 -120q-119 0 -205 117.5t-125 391.5l-45 431q-8 72 -96 71q-15 0 -15 10z" />
<glyph unicode="V" horiz-adv-x="962" d="M61 1004q0 10 13 10h375q10 0 10 -10q0 -12 -10 -13q-53 0 -67.5 -19.5t-6.5 -47.5l223 -713q96 162 147 360q26 99 26 173q0 15 -1 28q-6 123 -111 123q-53 0 -86 -61q-8 -14 -14 -7q-10 2 -8 15q41 109 111 153q45 29 94 29q72 0 110 -51q33 -47 33 -119 q0 -152 -135 -448q-96 -209 -223 -420h-27l-317 932q-27 74 -103 73h-20q-13 1 -13 13z" />
<glyph unicode="W" horiz-adv-x="1245" d="M74 1004q0 10 12 10h692q14 0 15 -10q0 -12 -15 -13q-53 0 -67.5 -19.5t-3.5 -47.5l223 -713q57 106 96 266q34 132 34 225q0 30 -3 56q-16 137 -125 137q-49 0 -86 -61q-4 -12 -17 -7q-8 2 -4 15q63 182 203 182q145 0 146 -186q0 -158 -109 -441q-92 -244 -193 -411 h-26l-127 366l-166 -366h-25l-319 932q-25 74 -103 73h-20q-12 1 -12 13zM391 913l217 -669l86 186l-172 502q-18 51 -65 59q-41 0 -56 -12q-16 -14 -15 -37q0 -13 5 -29z" />
<glyph unicode="X" horiz-adv-x="1062" d="M68 1004q0 10 12 10h375q14 0 14 -10q0 -12 -14 -13q-33 0 -47 -20q-6 -14 -7 -30q0 -21 12 -45q19 -42 130 -257q102 109 135 182q18 39 18 66q0 43 -45 65q-12 7 -25 7q-23 0 -51 -21q-6 -2 -10 -2q-6 0 -10 2q-2 8 2 16q53 61 129 72q10 1 19 1q45 0 77 -25 q39 -30 39 -82q0 -78 -100 -189q-63 -72 -154 -147l217 -432q23 -45 72 -89q55 -49 102 -49h23q14 0 14 -12t-14 -12h-436q-10 0 -10 12t10 12q59 0 73 37q5 12 6 27q0 27 -18 63l-160 316q-8 -10 -16 -17q-59 -63 -102 -123q-78 -111 -78 -170q0 -45 45 -61q23 -8 49.5 8.5 t30.5 16.5q20 0 20 -23q0 -8 -6 -14q-12 -18 -35 -39q-59 -51 -127 -51q-51 0 -88 34.5t-37 85.5q0 80 93 197q59 78 217 229l-187 367q-47 94 -123 94h-22q-12 1 -12 13z" />
<glyph unicode="Y" horiz-adv-x="1191" d="M66 1004q0 12 12 12h426q12 0 12 -12q0 -10 -29.5 -11.5t-29.5 -25.5q0 -29 41 -68l198 -188l138 157q23 25 22 56q0 70 -78 69h-20q-12 0 -13 11q0 12 13 12h356q12 0 12 -12q0 -10 -12 -11q-86 0 -149 -73l-224 -256v-527q0 -45 31 -83t74 -38q35 0 35 -12t-11 -12 h-438q-12 0 -12 12t40 12t70.5 38t30.5 83v481l-311 291q-49 49 -81 66.5t-91 17.5q-12 1 -12 11z" />
<glyph unicode="Z" horiz-adv-x="1271" d="M78 4q0 14 24 14q53 0 127 60q66 51 101 106l434 721q-51 -16 -246 -16q-139 0 -176 -60q-10 -12 -10 -30q0 -55 90 -56q20 0 20 -8q0 -29 -47 -45q-37 -12 -69 -12q-125 0 -125 123v16q6 72 55 127t121 74q66 16 149 16q39 0 158 -10q139 -12 260 -12q27 0 79 3t77 3h2 q20 0 20 -10t-22 -15q-10 -2 -29 -8q-92 -39 -176 -176l-455 -750h207q96 0 166 33q90 45 90 131q0 41 -26.5 79t-65.5 38q-63 0 -63 -43q0 -33 34 -33q10 0 18.5 5t12.5 5h4q6 -4 6 -14q0 -33 -29.5 -56.5t-64.5 -23.5q-37 0 -61.5 24.5t-24.5 59.5q0 70 64 113 q55 39 127 39q98 0 169.5 -59.5t71.5 -155.5v-13q0 -117 72 -157q4 -2 37 -13q10 -6 10 -14q0 -10 -12 -10h-1090q-14 0 -14 10z" />
<glyph unicode="_" horiz-adv-x="698" d="M0 -14h698v-90h-698v90z" />
<glyph unicode="`" horiz-adv-x="444" d="M55 1366h156l145 -203h-57z" />
<glyph unicode="a" horiz-adv-x="788" d="M31 156q0 78 96 123q74 35 162 34q141 0 243 -57q-4 84 -18 250q-6 72 -59.5 118t-124.5 46q-59 0 -108.5 -37t-49.5 -94q0 -78 109 -97q10 -2 11 -6t1 -6q0 -4 -9.5 -9t-146.5 -50q-66 59 -65 131q0 92 94 151q80 49 178 49q264 0 289 -245q4 -39 24 -264q2 -35 9 -107 q6 -47 47 -47q14 0 22 6t13 6q4 0 7 -2t3 -6q0 -16 -37 -30.5t-57 -14.5q-47 0 -81 26.5t-38 73.5q-78 -100 -256 -100q-86 0 -162 37q-96 45 -96 121zM186 162q0 -111 172 -111q86 0 134.5 32t48.5 69q0 119 -183 118q-172 1 -172 -108z" />
<glyph unicode="b" horiz-adv-x="694" d="M31 8q0 10 10 10q37 0 62.5 33t25.5 70v807q0 164 74 301q84 158 229 194h4q10 0 10 -10q0 -2 -6 -8q-16 -12 -49 -43q-117 -117 -119 -309q-2 -158 -2 -455q86 72 179 72q100 0 161 -84q53 -76 54 -180q0 -143 -95 -271q-100 -137 -239 -137h-289q-10 0 -10 10zM270 51 q33 -20 92 -20q86 0 136 106q39 82 39 180t-39 183q-49 106 -136 106q-51 0 -92 -45v-510z" />
<glyph unicode="c" horiz-adv-x="657" d="M31 334q0 137 89 235.5t214 98.5q82 0 151 -35q80 -43 80 -115q0 -59 -46 -96t-107 -37q-47 0 -90 23q-8 6 -9 14q0 4 2 6q4 12 25 6q25 -10 47 -10q41 0 64 31q16 20 16 53q0 76 -61 117q-25 16 -58 16q-43 0 -84 -25q-102 -63 -102 -223q0 -178 106 -274 q66 -59 142 -60q88 0 147 78q37 47 49 111q4 10 15 6q7 0 7 -6q0 -3 -1 -6q-25 -102 -103 -170q-82 -74 -190 -74q-123 0 -213 98.5t-90 237.5z" />
<glyph unicode="d" horiz-adv-x="686" d="M-4 260q0 143 92 270q102 137 242 138q31 0 47 -4v264q0 186 84 323q74 121 186 162q27 10 33 10q8 0 10 -6v-4q0 -4 -4 -8q-84 -70 -123 -150q-45 -92 -45 -202v-932q0 -39 25.5 -71t62.5 -32q8 0 8 -10t-8 -10h-229v61q-84 -61 -164 -61q-104 0 -164 82q-53 74 -53 180 zM123 348q0 -96 39 -182q49 -106 133 -107q43 0 82 33v510q-39 35 -82 35q-68 0 -120 -83t-52 -206z" />
<glyph unicode="e" horiz-adv-x="724" d="M33 326q0 139 100 240.5t240 101.5q178 0 256 -150h-414q-33 -68 -33 -149q0 -125 76 -228q82 -111 203 -110q123 0 213 162q4 6 8 6q10 0 10 -9l-2 -4q-39 -92 -126 -147t-187 -55q-141 0 -242.5 99.5t-101.5 242.5zM225 539h240q0 43 -27.5 71.5t-70.5 28.5 q-79 0 -142 -100z" />
<glyph unicode="f" horiz-adv-x="419" d="M23 641q0 10 12 10q57 0 98 40t41 97v140q0 164 74 301q86 162 231 194q2 0 5 1q8 0 8 -7q2 -6 -5 -12q-170 -117 -170 -352v-402h64q10 0 10 -10t-10 -10h-64v-510q0 -41 25 -72t64 -31q8 0 8 -10t-8 -10h-320q-8 0 -8 10t8 10q39 0 63.5 31t24.5 72v510h-139 q-12 0 -12 10z" />
<glyph unicode="g" horiz-adv-x="784" d="M-76 -305q0 166 248 250q-106 39 -106 131q0 55 39.5 93t97.5 48q-61 27 -104.5 84t-43.5 121q0 113 109 184q96 61 215 62q119 0 215 -62q111 -72 111 -184q0 -113 -111 -184q-94 -61 -213 -62q-29 0 -79 11.5t-58 11.5q-98 0 -99 -72q0 -76 105 -82q293 -18 395 -49 q236 -70 236 -264q0 -164 -172 -254q-137 -70 -318 -70q-166 0 -297 62q-170 80 -170 225zM41 -305q0 -119 127 -195q109 -63 238 -63q127 0 229 63q119 76 119 195q0 154 -197 207q-78 20 -319 32q-197 -75 -197 -239zM199 436q0 -86 53 -153q55 -74 139 -74q76 0 125 63 q43 59 43 136q0 86 -53 156.5t-135 70.5q-78 0 -125 -60.5t-47 -138.5zM508 680l59 450l138 29l-177 -485z" />
<glyph unicode="h" horiz-adv-x="786" d="M37 8q0 10 12 10q35 0 61.5 33t26.5 70v807q0 166 72 303q84 158 231 192l6 -18q-82 -55 -124.5 -152.5t-42.5 -199.5v-547q63 166 198 166q82 0 133 -72q45 -66 45 -151v-328q0 -39 25 -71t63 -32q8 0 9 -10q0 -10 -11 -10h-315q-10 0 -10 10q0 8 8 8l2 2q35 0 61.5 33 t26.5 70v336q0 51 -27 90q-29 47 -77 47q-63 0 -101 -62q-31 -51 -30 -120v-291q0 -37 24.5 -70t61.5 -33l2 -2q8 0 8 -8q0 -10 -10 -10h-316q-12 0 -12 10z" />
<glyph unicode="i" horiz-adv-x="370" d="M16 8q0 6 28 13.5t42 25.5q29 35 29 74v328q0 205 180 223q-39 -55 -39 -131v-420q0 -39 25.5 -71t62.5 -32q10 0 10 -10t-10 -10h-317q-11 0 -11 10zM106 846q0 43 31 72.5t74 29.5q41 0 71.5 -30.5t30.5 -71.5q0 -43 -29.5 -74t-72.5 -31t-74 31t-31 74z" />
<glyph unicode="j" horiz-adv-x="346" d="M-348 -295q0 80 64.5 133t146.5 53q92 0 164 -67q0 -45 -29 -82q-41 -51 -76 -51q-12 0 -12 6t6 23.5t6 29.5q0 41 -28.5 73t-69.5 32q-94 0 -94 -93q0 -82 57 -139t139 -57q184 0 185 254v629q0 90 46 152.5t134 70.5q-37 -57 -37 -131v-252q2 -174 2 -252 q0 -131 -25 -217q-37 -127 -135 -213q-104 -88 -233 -88q-82 0 -146.5 53t-64.5 133zM76 846q0 41 30.5 71.5t71.5 30.5q43 0 74 -29.5t31 -72.5t-31 -74t-74 -31t-72.5 31t-29.5 74z" />
<glyph unicode="k" horiz-adv-x="780" d="M37 8q0 10 10 10q37 0 62.5 33t25.5 70v807q0 139 55 264q63 143 172 203q53 29 76 28q10 0 11.5 -4t1.5 -6q-2 -6 -5 -8q-20 -16 -59 -51q-111 -121 -111 -301v-777q88 88 179 218q25 37 24 71q0 35 -35 35q-2 0 -32 -4q68 80 123 80q72 0 71 -74q0 -121 -264 -321 q72 0 137 -91q84 -117 105 -129q37 -23 82 -22q72 0 71 55q0 33 -41 43q-2 41 41 41t43 -55q0 -41 -41 -86t-82 -55q-29 -8 -61 -9q-80 0 -147 56q-29 25 -97 104q-47 55 -76 55v-67q0 -37 26 -70t63 -33q10 0 10 -10t-10 -10h-320q-8 0 -8 10z" />
<glyph unicode="l" horiz-adv-x="356" d="M20 8q0 10 11 10q37 0 62.5 33t25.5 70v807q0 162 74 301q84 162 229 194q13 0 13 -9q0 -5 -5 -9q-170 -117 -170 -352v-932q0 -37 25.5 -70t62.5 -33q10 0 10 -10t-10 -10h-317q-11 0 -11 10z" />
<glyph unicode="m" horiz-adv-x="1069" d="M39 8q0 10 12 10q35 0 61.5 33t26.5 70v426l-67 35l104 54l105 54v-164q8 31 26 64q45 82 135 82q63 0 105.5 -48.5t54.5 -115.5q43 164 168 164q80 0 125 -74q41 -66 41 -149l-2 -328q-2 -37 24.5 -70t63.5 -33q10 0 10 -10t-10 -10h-307q-10 0 -10 10q4 10 10 10 q80 0 80 103v336q0 135 -76 135h-2q-45 -2 -77 -58.5t-32 -101.5v-311q0 -102 68 -103q10 0 10 -10t-10 -10h-279q-10 0 -10 10t10 10q70 0 70 103v336q0 135 -76 135h-2q-45 -2 -76.5 -58.5t-31.5 -101.5v-321q0 -92 75 -93q12 0 13 -10q0 -10 -13 -10h-307q-10 0 -10 10z " />
<glyph unicode="n" horiz-adv-x="786" d="M37 8q0 10 12 10q35 0 61.5 33t26.5 70v426l-67 35l104 54l105 54v-182q63 164 200 164q82 0 131 -74q45 -63 45 -149v-328q0 -37 26 -70t62 -33q8 0 9 -10q0 -10 -9 -10h-317q-10 0 -10 10t10 10q35 0 61.5 33t26.5 70v336q0 51 -27.5 93t-72.5 42q-57 0 -96 -53.5 t-39 -112.5v-305q0 -37 24.5 -70t61.5 -33q6 0 12 -10q0 -10 -12 -10h-316q-12 0 -12 10z" />
<glyph unicode="o" horiz-adv-x="843" d="M39 322q0 150 119 249q113 96 264 97q152 0 267.5 -98.5t115.5 -247.5q0 -150 -116 -249.5t-267 -99.5q-152 0 -264 97q-119 102 -119 252zM201 360q0 -182 108 -290q68 -66 137 -66q96 0 150 96q45 78 45 181q0 188 -106 297q-66 66 -138 65q-96 0 -151 -96 q-45 -83 -45 -187z" />
<glyph unicode="p" horiz-adv-x="813" d="M-8 -606q0 8 6 12q168 123 168 350v774q0 39 -24.5 71t-61.5 32q-12 0 -12 10q0 8 12 8h229v-82q94 102 207 103q100 0 162 -86q53 -76 53 -180q0 -143 -94 -269q-102 -137 -240 -137q-49 0 -88 20v-137q0 -139 -55 -264q-63 -143 -174 -203q-53 -29 -76 -28q-10 0 -12 6 zM309 117q53 -86 123 -86q84 0 133 108q41 86 41 180t-41 181q-49 109 -133 108q-74 0 -123 -86v-405z" />
<glyph unicode="q" horiz-adv-x="729" d="M47 211q0 143 94 268q102 137 240 137q45 0 90 -22v57h227q12 0 13 -8q0 -10 -13 -10q-37 0 -62.5 -33t-25.5 -70v-774q0 -186 121 -307q16 -14 33 -27q23 -18 22 -28q-2 -6 -12 -6q-23 0 -76 28q-111 59 -172 203q-55 125 -55 264v164q-100 -100 -209 -100 q-100 0 -162 84q-53 76 -53 180zM174 295q0 -96 39 -180q49 -106 135 -107q61 0 123 78v414q-41 49 -51 57q-31 27 -72 27q-86 0 -135 -107q-39 -84 -39 -182z" />
<glyph unicode="r" horiz-adv-x="491" d="M23 10q0 8 10 8q37 0 62.5 33t25.5 70v426l-66 35l207 110v-571q0 -37 25.5 -70t62.5 -33q10 0 10 -8q0 -10 -10 -10h-317q-10 0 -10 10zM297 594q0 37 24.5 65.5t61.5 28.5t61.5 -28.5t24.5 -65.5q0 -39 -24.5 -67.5t-61.5 -28.5t-61.5 28.5t-24.5 67.5z" />
<glyph unicode="s" horiz-adv-x="575" d="M25 432q0 109 106 178q90 59 205 60q152 0 215 -103l-90 -135q-8 -10 -15 -2q-10 4 -2 12q6 10 7 31q0 61 -33 96q-47 47 -123 47q-63 0 -108 -32q-46 -35 -46 -90q0 -47 45 -74q29 -18 117 -41q98 -27 135 -51q63 -41 64 -117q0 -113 -90 -174q-78 -53 -195 -53 q-72 0 -131 26l-47 -28v151l45 55q12 -72 56 -107.5t114 -45.5h-2q16 -2 32 -2q44 0 78 17q54 27 54 74q0 51 -60 85q-29 14 -110 37q-109 29 -150 55q-71 45 -71 131z" />
<glyph unicode="t" horiz-adv-x="432" d="M20 643q0 8 11 8h41v6q0 178 78 330q92 174 249 211q10 0 15 -6q0 -8 -6 -12q-184 -131 -185 -383v-146h123q10 0 10 -8q0 -10 -10 -10h-121v-483q0 -96 70 -97q47 0 80 60q2 8 12 4t4 -15q-61 -119 -168 -118q-80 0 -121 63q-31 47 -30 125v461h-41q-11 0 -11 10z" />
<glyph unicode="u" horiz-adv-x="759" d="M35 582l207 110v-499q0 -66 39 -107q27 -29 61 -29q59 0 100 60q35 51 35 116v314l-65 35l209 108v-584q0 -45 45 -45q31 0 41 31q4 10 12 6q7 0 7 -6q0 -3 -1 -6q-31 -86 -119 -86q-53 0 -91 37t-38 90v16q-25 -70 -76 -114q-57 -49 -125 -49t-112 47q-63 66 -64 176 v344z" />
<glyph unicode="v" horiz-adv-x="667" d="M31 643q0 8 10 8h281q10 0 10 -8q0 -10 -10 -10q-29 0 -40.5 -5t-13.5 -18q0 -6 4 -16l154 -442q118 203 117 330v20q-8 80 -80 80q-37 0 -60 -41q-8 -8 -14 -4q-8 4 -4 14q41 115 145 119h7q100 0 100 -115q0 -76 -49 -193q-72 -164 -221 -389l-234 613q-18 47 -92 47 q-10 0 -10 10z" />
<glyph unicode="w" horiz-adv-x="888" d="M41 643q0 8 10 8h203l192 -524l-69 -158l-234 617q-18 47 -92 47q-10 0 -10 10zM317 651h213q12 0 13 -8q0 -8 -31 -12t-31 -29q0 -8 156 -450q117 201 117 335q0 94 -80 95q-25 0 -47 -23l-23 -22q-10 0 -10 8q0 43 52 84t95 41q106 0 107 -113q0 -176 -270 -584z" />
<glyph unicode="x" horiz-adv-x="581" d="M26 555q0 43 30 70q32 29 77 28q94 0 137 -98l62 -147q90 102 90 161q0 61 -57 62q-23 0 -46 -17q-2 -2 -8 -2q-4 0 -6 2q-8 4 2 15q47 51 107 59q9 1 17 1q36 0 64 -20q34 -26 33 -71q0 -57 -65 -135q-43 -53 -109 -111l99 -229q12 -29 43 -33q29 0 41 35q4 10 12 6 q7 0 7 -6q0 -3 -1 -6q-6 -43 -48 -80t-87 -37q-55 0 -80 55l-100 240q-66 -72 -93 -129q-16 -33 -16 -55q0 -25 17.5 -43.5t41.5 -18.5q20 0 46 19q8 4 11 0t5 -9l-4 -8q-53 -59 -125 -59q-23 0 -43 8q-54 24 -54 79q0 12 3 25q8 49 63 115q66 78 125 129l-78 178 q-16 37 -49 47q-35 10 -43 -22q-4 -12 -10 -12q-7 -3 -9 1t-2 13z" />
<glyph unicode="y" horiz-adv-x="757" d="M-492 -528q31 35 97 102q68 -68 151 -68q86 0 195 76q242 170 450 641l-270 307q-27 31 -55 31q-12 0 -25.5 -7t-15.5 -7q-10 0 -10 8q0 6 159 121l273 -320q82 205 82 242q0 45 -56.5 52t-56.5 14q0 8 10 8h279q12 0 12 -8q0 -10 -12 -11q-80 0 -125 -88 q-14 -27 -72 -155q-66 -154 -211 -453q-166 -297 -383 -444q-137 -94 -260 -95q-90 1 -156 54z" />
<glyph unicode="z" horiz-adv-x="610" d="M29 -45q0 84 66.5 146.5t152.5 62.5q47 0 88 -30t41 -77q0 -61 -74 -90q-10 -2 -14 2t4 15q19 22 19 44q0 14 -7 27q-29 53 -94 54q-115 0 -115 -132q0 -68 42 -115.5t112 -47.5q78 0 137 71q66 80 66 187q0 70 -33 121q-49 76 -129 75q-41 0 -76 -24q-16 -8 -22 8 q-6 14 8 22q59 37 125 43q51 4 82 54q29 43 28 102q0 53 -28.5 96t-79.5 43q-47 0 -84 -20q-43 -25 -43 -66q0 -25 16 -42t39 -17q14 0 25.5 10t19.5 10q6 -6 4 -16q-12 -72 -82 -72q-37 0 -62.5 27t-25.5 63q0 68 59.5 115t141.5 47q78 0 141 -41q72 -47 72 -121 q0 -125 -158 -178q94 -18 152 -104q39 -61 39 -137q0 -133 -108 -238q-95 -92 -207 -92q-15 0 -31 2q-86 8 -146.5 68.5t-60.5 144.5z" />
<glyph unicode="&#xa1;" horiz-adv-x="278" d="M43 -25q0 96 33 357q16 121 39 352q0 18 22 18q25 0 27 -18q4 -78 37 -332q35 -270 35 -377q-2 -41 -30 -68.5t-69 -27.5q-39 0 -66.5 27.5t-27.5 68.5zM55 825q0 35 24.5 58.5t57.5 23.5q35 0 59.5 -23.5t24.5 -58.5t-24.5 -59.5t-59.5 -24.5q-33 0 -57.5 24.5 t-24.5 59.5z" />
<glyph unicode="&#xa2;" horiz-adv-x="720" d="M47 508q0 125 81 225.5t206 122.5v148q0 25 24 24q23 0 23 -24v-144q86 0 145 -24q27 55 82 55q8 0 8 -8q-29 -45 -28 -86q0 -16 5 -49t5 -52q0 -53 -20 -88q-45 -68 -117 -67q-61 0 -62 39q0 45 54 45q10 0 10 -9v-6q-2 -4 -2 -8q0 -14 16 -14q41 0 41 74q0 57 -40 106 t-97 53v-614q31 -14 70 -14q115 0 196 104q6 8 12 8q16 0 17 -12q0 2 -4 -10q-102 -135 -291 -136v-145q0 -25 -23 -25q-25 0 -24 25v154q-125 23 -206 122t-81 230zM188 559q0 -201 146 -321v575q-74 -23 -113 -102q-33 -66 -33 -152z" />
<glyph unicode="&#xa3;" horiz-adv-x="1263" d="M98 504q0 25 25 24h129q-61 152 -62 228q0 131 119 205q100 66 240 65q145 0 239 -61q106 -72 107 -181q0 -92 -90 -141q-74 -43 -174 -43q-41 0 -41 12t10 13q66 0 102.5 45t36.5 114q0 78 -48 134.5t-126 56.5q-82 0 -133 -61.5t-51 -145.5q0 -82 63 -240h195 q23 0 23 -24q0 -25 -23 -25h-176q47 -115 47 -186q0 -133 -158 -238h269q98 0 165 35q90 43 91 131q0 43 -29 79t-70 36q-57 0 -57 -43q0 -31 35 -31q8 0 17 6t13 6l7 -2q6 -2 6 -10q0 -4 -2 -8q-14 -74 -95 -74q-86 0 -86 84q0 68 59.5 112t131.5 44q96 0 170 -61.5 t74 -157.5v-17q0 -113 67 -153q10 -6 39 -15q8 -6 8 -12q0 -12 -10 -12h-1003q-12 0 -13 10q0 10 20.5 12t59.5 11q57 25 94 81t37 117q0 72 -78 256h-149q-25 0 -25 25z" />
<glyph unicode="&#xa4;" horiz-adv-x="1009" d="M39 436l35 49h73v33h-108l35 49h76q20 199 139 324q127 135 325 135q217 0 353 -178q6 -8 6 -14q0 -20 -21 -21q-8 0 -14 8q-96 141 -270 142q-143 0 -230 -132q-72 -109 -86 -264h434l-38 -49h-400v-33h369l-39 -49h-326q8 -123 54 -215q86 -178 256 -178q92 0 165 41 q25 14 25 -18q0 -16 -14 -25q-106 -61 -224 -61q-197 0 -323.5 131t-138.5 325h-113z" />
<glyph unicode="&#xa5;" horiz-adv-x="1337" d="M86 1004q0 10 10 10h428q10 0 11 -10q0 -12 -11 -13h-12q-29 0 -35 -18q-8 -29 41 -76l150 -141l153 141q47 45 39 76q-6 18 -33 18h-12q-12 0 -12 13q0 10 12 10h426q12 0 12 -10q0 -12 -12 -13q-57 0 -94 -18q-25 -12 -80 -66l-311 -291v-49h370v-49h-366v-33h366v-49 h-366v-301q0 -45 30.5 -83t75.5 -38h23q12 0 12 -12t-12 -12h-434q-14 0 -15 12q0 12 15 12h20q45 0 75 38t30 83v301h-357v49h357v33h-357v49h357v49l-312 291q-45 49 -75 66q-37 18 -97 18q-10 1 -10 13z" />
<glyph unicode="&#xa6;" />
<glyph unicode="&#xa7;" />
<glyph unicode="&#xa8;" horiz-adv-x="446" d="M43 1135q0 33 23.5 56t58.5 23q31 0 54.5 -23.5t23.5 -55.5q0 -33 -23.5 -56.5t-54.5 -23.5q-35 0 -58.5 23.5t-23.5 56.5zM244 1135q0 33 23.5 56t56.5 23t56 -23.5t23 -55.5q0 -33 -23.5 -56.5t-55.5 -23.5q-33 0 -56.5 23.5t-23.5 56.5z" />
<glyph unicode="&#xa9;" />
<glyph unicode="&#xaa;" horiz-adv-x="659" d="M47 733q0 6 6 6q49 0 74 58l158 358q41 92 106 121q4 2 6 -2q0 -8 -2 -8q-25 -10 -24 -49q0 -31 12 -62l152 -358q25 -57 67 -58h6q4 -2 4 -6q0 -6 -4 -8h-213q-6 0 -6 8q0 6 6 6q31 0 31 27t-41 57.5t-98 30.5q-86 0 -125 -61q12 -53 67 -54h17q6 0 6 -6q0 -8 -6 -8 h-193q-6 0 -6 8zM180 856l29 14q37 14 78 15q72 0 121 -39q6 -6 12 -10l-123 286z" />
<glyph unicode="&#xab;" />
<glyph unicode="&#xac;" />
<glyph unicode="&#xad;" />
<glyph unicode="&#x2212;" />
<glyph unicode="&#xae;" />
<glyph unicode="&#xaf;" />
<glyph unicode="&#x2c9;" />
<glyph unicode="&#xb0;" />
<glyph unicode="&#xb1;" />
<glyph unicode="&#xb2;" />
<glyph unicode="&#xb3;" />
<glyph unicode="&#xb4;" horiz-adv-x="407" d="M53 1071l146 203h155l-241 -203h-60z" />
<glyph unicode="&#xb5;" />
<glyph unicode="&#x3bc;" />
<glyph unicode="&#xb6;" />
<glyph unicode="&#xb7;" />
<glyph unicode="&#x2219;" />
<glyph unicode="&#xb8;" horiz-adv-x="442" d="M72 -262l22 47q59 -27 92 -27q37 0 66 17q37 20 37 53q0 25 -19.5 41t-60.5 16q-31 0 -64 -10l-18 21l88 118h55l-69 -86l51 11q59 -6 89 -33t30 -76q0 -31 -19 -57q-47 -59 -143 -60q-55 0 -137 25z" />
<glyph unicode="&#xb9;" />
<glyph unicode="&#xba;" horiz-adv-x="645" d="M53 1020q0 109 80 183.5t191 74.5t189.5 -75t78.5 -183q0 -109 -80 -183.5t-188 -74.5q-109 0 -190 76t-81 182zM152 975q20 -74 69 -125q57 -61 127 -62q94 0 135 99q39 88 13 178q-23 74 -72 127q-55 59 -125 59q-96 0 -137 -98q-35 -88 -10 -178z" />
<glyph unicode="&#xbf;" horiz-adv-x="983" d="M78 209q0 115 94 194q43 37 158.5 76t154.5 66q72 49 72 139q0 10 14 10h47q12 0 13 -10q0 -98 -56 -172q-37 -53 -113.5 -102.5t-125.5 -120.5q-55 -80 -55 -158q0 -84 57 -130t145 -46q135 0 211 82q57 61 58 147q0 27 -7 56q0 6 9 10q10 2 14 -4l135 -205q4 -4 0 -12 q-47 -76 -160 -117q-94 -33 -200 -33q-131 0 -258 47q-94 37 -150.5 116t-56.5 167zM508 825q0 35 24.5 59.5t59.5 24.5q31 0 55.5 -24.5t24.5 -59.5q0 -33 -24.5 -57.5t-55.5 -24.5q-35 0 -59.5 23.5t-24.5 58.5z" />
<glyph unicode="&#xc0;" horiz-adv-x="1286" d="M78 10q0 12 12 13q43 0 84 35.5t62 80.5l317 719q82 186 209 240q4 2 7 2q6 0 7 -8q4 -12 -6 -15q-47 -23 -47 -98q0 -61 25 -121l303 -719q18 -43 55 -79.5t78 -36.5h12q10 0 10 -13q0 -10 -10 -10h-424q-14 0 -14 10t14 13q63 2 64 55q0 27 -21 55q-14 20 -63 60 q-80 59 -193 59q-168 0 -252 -119q18 -111 133 -110h33q12 0 12 -13q0 -10 -12 -10h-383q-12 0 -12 10zM340 254q98 63 217 63q139 0 240 -77l20 -21l-242 574zM444 1366h156l145 -203h-57z" />
<glyph unicode="&#xc1;" horiz-adv-x="1286" d="M78 10q0 12 12 13q43 0 84 35.5t62 80.5l317 719q82 186 209 240q4 2 7 2q6 0 7 -8q4 -12 -6 -15q-47 -23 -47 -98q0 -61 25 -121l303 -719q18 -43 55 -79.5t78 -36.5h12q10 0 10 -13q0 -10 -10 -10h-424q-14 0 -14 10t14 13q63 2 64 55q0 27 -21 55q-14 20 -63 60 q-80 59 -193 59q-168 0 -252 -119q18 -111 133 -110h33q12 0 12 -13q0 -10 -12 -10h-383q-12 0 -12 10zM340 254q98 63 217 63q139 0 240 -77l20 -21l-242 574zM710 1132l146 203h155l-241 -203h-60z" />
<glyph unicode="&#xc2;" horiz-adv-x="1286" d="M78 10q0 12 12 13q43 0 84 35.5t62 80.5l317 719q82 186 209 240q4 2 7 2q6 0 7 -8q4 -12 -6 -15q-47 -23 -47 -98q0 -61 25 -121l303 -719q18 -43 55 -79.5t78 -36.5h12q10 0 10 -13q0 -10 -10 -10h-424q-14 0 -14 10t14 13q63 2 64 55q0 27 -21 55q-14 20 -63 60 q-80 59 -193 59q-168 0 -252 -119q18 -111 133 -110h33q12 0 12 -13q0 -10 -12 -10h-383q-12 0 -12 10zM340 254q98 63 217 63q139 0 240 -77l20 -21l-242 574zM501 1102l166 207h99l170 -207h-99l-119 98l-120 -98h-97z" />
<glyph unicode="&#xc3;" horiz-adv-x="1286" d="M78 10q0 12 12 13q43 0 84 35.5t62 80.5l317 719q82 186 209 240q4 2 7 2q6 0 7 -8q4 -12 -6 -15q-47 -23 -47 -98q0 -61 25 -121l303 -719q18 -43 55 -79.5t78 -36.5h12q10 0 10 -13q0 -10 -10 -10h-424q-14 0 -14 10t14 13q63 2 64 55q0 27 -21 55q-14 20 -63 60 q-80 59 -193 59q-168 0 -252 -119q18 -111 133 -110h33q12 0 12 -13q0 -10 -12 -10h-383q-12 0 -12 10zM340 254q98 63 217 63q139 0 240 -77l20 -21l-242 574zM462 1123q31 166 134 166q25 0 51 -9l114 -49q27 -8 50 -8q49 0 59 49h53q-20 -145 -133 -145 q-37 0 -101.5 31.5t-94.5 31.5q-53 0 -78 -67h-54z" />
<glyph unicode="&#xc4;" horiz-adv-x="1286" d="M78 10q0 12 12 13q43 0 84 35.5t62 80.5l317 719q82 186 209 240q4 2 7 2q6 0 7 -8q4 -12 -6 -15q-47 -23 -47 -98q0 -61 25 -121l303 -719q18 -43 55 -79.5t78 -36.5h12q10 0 10 -13q0 -10 -10 -10h-424q-14 0 -14 10t14 13q63 2 64 55q0 27 -21 55q-14 20 -63 60 q-80 59 -193 59q-168 0 -252 -119q18 -111 133 -110h33q12 0 12 -13q0 -10 -12 -10h-383q-12 0 -12 10zM340 254q98 63 217 63q139 0 240 -77l20 -21l-242 574zM543 1186q0 33 23.5 56t58.5 23q31 0 54.5 -23.5t23.5 -55.5q0 -33 -23.5 -56.5t-54.5 -23.5q-35 0 -58.5 23.5 t-23.5 56.5zM744 1186q0 33 23.5 56t56.5 23t56 -23.5t23 -55.5q0 -33 -23.5 -56.5t-55.5 -23.5q-33 0 -56.5 23.5t-23.5 56.5z" />
<glyph unicode="&#xc5;" horiz-adv-x="1286" d="M78 10q0 12 12 13q43 0 84 35.5t62 80.5l317 719q82 186 209 240q4 2 7 2q6 0 7 -8q4 -12 -6 -15q-47 -23 -47 -98q0 -61 25 -121l303 -719q18 -43 55 -79.5t78 -36.5h12q10 0 10 -13q0 -10 -10 -10h-424q-14 0 -14 10t14 13q63 2 64 55q0 27 -21 55q-14 20 -63 60 q-80 59 -193 59q-168 0 -252 -119q18 -111 133 -110h33q12 0 12 -13q0 -10 -12 -10h-383q-12 0 -12 10zM340 254q98 63 217 63q139 0 240 -77l20 -21l-242 574zM856 1264q0 -66 -48 -114t-118 -48q-68 0 -116 48t-48 114q0 70 48.5 119t115.5 49q70 0 118 -49t48 -119z M780 1264q0 39 -26.5 64.5t-63.5 25.5t-62.5 -25.5t-25.5 -64.5q0 -35 26.5 -60.5t61.5 -25.5q37 0 63.5 25.5t26.5 60.5z" />
<glyph unicode="&#xc6;" horiz-adv-x="1503" d="M78 2q0 12 12 12q74 0 148 115l532 836q-20 27 -59 26h-23q-12 0 -12 13q0 12 12 12h727q14 0 10 -15q-16 -129 -127 -208q-8 -6 -15 1t-3 13q16 25 16 51q0 49 -57 80q-63 37 -158 37h-41q-76 0 -75 -72v-543h122q51 0 76 19q18 12 49 59q4 8 13 4q10 -4 10 -8v-198 q0 -8 -10 -13q-10 0 -13 4q-31 47 -49 60q-25 18 -76 18h-122v-170q0 -104 125 -104q70 0 131 37q72 41 71 104q0 37 -28 72q-2 2 -2 6q0 6 4 11t12 1q133 -55 133 -156q0 -27 -16 -61q-20 -41 -45 -55h-691q-14 0 -14 12t14 12h21q43 0 73.5 39t30.5 82v23q-104 88 -221 88 q-109 0 -190 -58q-41 -29 -64 -63q6 -51 44 -81t89 -30h33q12 0 12 -12t-12 -12h-385q-12 0 -12 12zM395 276q2 2 4 3q74 31 160 30q129 0 225 -69v641z" />
<glyph unicode="&#xc7;" horiz-adv-x="968" d="M63 504q0 209 132 362q135 164 340 164q86 0 170 -37q37 80 110 80q12 0 12 -10l-4 -8q-37 -57 -37 -119q0 -25 5 -37q10 -53 10 -111q0 -80 -27 -126q-57 -102 -156 -103q-82 0 -81 59q0 25 23.5 45.5t49.5 20.5q14 0 15 -10q0 -6 -3.5 -12.5t-3.5 -10.5q0 -27 23 -26 q27 0 43 45q12 35 12 67q0 84 -55 156q-59 80 -139 80q-16 0 -29 -6q-111 -23 -170 -150q-49 -104 -49 -229q0 -57 14 -135q33 -186 146 -306q92 -98 192 -98q6 0 31 4q113 14 197 103l32 45q12 12 21 12q16 0 16 -20q0 -6 -4 -15q-63 -88 -161.5 -141t-202.5 -53 q-205 0 -340 161q-132 154 -132 359zM287 -254l22 47q59 -27 92 -27q37 0 66 17q37 20 37 53q0 25 -19.5 41t-60.5 16q-31 0 -64 -10l-18 21l88 118h55l-69 -86l51 11q59 -6 89 -33t30 -76q0 -31 -19 -57q-47 -59 -143 -60q-55 0 -137 25z" />
<glyph unicode="&#xc8;" horiz-adv-x="872" d="M45 4q0 12 14 12h23q43 0 72.5 38t29.5 83v785q0 72 -75 71h-21q-12 0 -12 11q0 14 12 14h729q14 0 10 -14q-14 -129 -131 -209q-6 -6 -12 0q-8 6 -2 14q14 20 14 51q0 63 -80 92q-57 23 -133 23h-39q-80 0 -79 -70v-543h122q55 0 84 23q16 10 43 55q4 6 13 4q8 -2 8 -10 v-198q0 -8 -8 -11q-8 -2 -13 4q-43 78 -127 78h-122v-170q0 -104 124 -104q70 0 134 37q72 41 71 104q0 39 -30 72q-4 4 0 14q8 6 14 4q135 -55 135 -158q0 -25 -16 -59q-20 -43 -47 -55h-691q-14 0 -14 12zM258 1266h156l145 -203h-57z" />
<glyph unicode="&#xc9;" horiz-adv-x="872" d="M45 4q0 12 14 12h23q43 0 72.5 38t29.5 83v785q0 72 -75 71h-21q-12 0 -12 11q0 14 12 14h729q14 0 10 -14q-14 -129 -131 -209q-6 -6 -12 0q-8 6 -2 14q14 20 14 51q0 63 -80 92q-57 23 -133 23h-39q-80 0 -79 -70v-543h122q55 0 84 23q16 10 43 55q4 6 13 4q8 -2 8 -10 v-198q0 -8 -8 -11q-8 -2 -13 4q-43 78 -127 78h-122v-170q0 -104 124 -104q70 0 134 37q72 41 71 104q0 39 -30 72q-4 4 0 14q8 6 14 4q135 -55 135 -158q0 -25 -16 -59q-20 -43 -47 -55h-691q-14 0 -14 12zM442 1071l146 203h155l-241 -203h-60z" />
<glyph unicode="&#xca;" horiz-adv-x="872" d="M45 4q0 12 14 12h23q43 0 72.5 38t29.5 83v785q0 72 -75 71h-21q-12 0 -12 11q0 14 12 14h729q14 0 10 -14q-14 -129 -131 -209q-6 -6 -12 0q-8 6 -2 14q14 20 14 51q0 63 -80 92q-57 23 -133 23h-39q-80 0 -79 -70v-543h122q55 0 84 23q16 10 43 55q4 6 13 4q8 -2 8 -10 v-198q0 -8 -8 -11q-8 -2 -13 4q-43 78 -127 78h-122v-170q0 -104 124 -104q70 0 134 37q72 41 71 104q0 39 -30 72q-4 4 0 14q8 6 14 4q135 -55 135 -158q0 -25 -16 -59q-20 -43 -47 -55h-691q-14 0 -14 12zM227 1061l166 207h99l170 -207h-99l-119 98l-120 -98h-97z" />
<glyph unicode="&#xcb;" horiz-adv-x="872" d="M45 4q0 12 14 12h23q43 0 72.5 38t29.5 83v785q0 72 -75 71h-21q-12 0 -12 11q0 14 12 14h729q14 0 10 -14q-14 -129 -131 -209q-6 -6 -12 0q-8 6 -2 14q14 20 14 51q0 63 -80 92q-57 23 -133 23h-39q-80 0 -79 -70v-543h122q55 0 84 23q16 10 43 55q4 6 13 4q8 -2 8 -10 v-198q0 -8 -8 -11q-8 -2 -13 4q-43 78 -127 78h-122v-170q0 -104 124 -104q70 0 134 37q72 41 71 104q0 39 -30 72q-4 4 0 14q8 6 14 4q135 -55 135 -158q0 -25 -16 -59q-20 -43 -47 -55h-691q-14 0 -14 12zM270 1133q0 33 23.5 56t58.5 23q31 0 54.5 -23.5t23.5 -55.5 q0 -33 -23.5 -56.5t-54.5 -23.5q-35 0 -58.5 23.5t-23.5 56.5zM471 1133q0 33 23.5 56t56.5 23t56 -23.5t23 -55.5q0 -33 -23.5 -56.5t-55.5 -23.5q-33 0 -56.5 23.5t-23.5 56.5z" />
<glyph unicode="&#xcc;" horiz-adv-x="583" d="M63 4q0 12 11 12h22q45 0 76 38t31 83v785q0 72 -76 71h-23q-10 0 -10 11q0 14 10 14h377q12 0 13 -14q0 -10 -13 -11h-22q-76 0 -76 -71v-785q0 -45 30.5 -83t73.5 -38h23q12 0 12 -12t-12 -12h-436q-11 0 -11 12zM4 1274h156l145 -203h-57z" />
<glyph unicode="&#xcd;" horiz-adv-x="583" d="M63 4q0 12 11 12h22q45 0 76 38t31 83v785q0 72 -76 71h-23q-10 0 -10 11q0 14 10 14h377q12 0 13 -14q0 -10 -13 -11h-22q-76 0 -76 -71v-785q0 -45 30.5 -83t73.5 -38h23q12 0 12 -12t-12 -12h-436q-11 0 -11 12zM278 1071l146 203h155l-241 -203h-60z" />
<glyph unicode="&#xce;" horiz-adv-x="583" d="M63 4q0 12 11 12h22q45 0 76 38t31 83v785q0 72 -76 71h-23q-10 0 -10 11q0 14 10 14h377q12 0 13 -14q0 -10 -13 -11h-22q-76 0 -76 -71v-785q0 -45 30.5 -83t73.5 -38h23q12 0 12 -12t-12 -12h-436q-11 0 -11 12zM75 1082l166 207h99l170 -207h-99l-119 98l-120 -98 h-97z" />
<glyph unicode="&#xcf;" horiz-adv-x="583" d="M63 4q0 12 11 12h22q45 0 76 38t31 83v785q0 72 -76 71h-23q-10 0 -10 11q0 14 10 14h377q12 0 13 -14q0 -10 -13 -11h-22q-76 0 -76 -71v-785q0 -45 30.5 -83t73.5 -38h23q12 0 12 -12t-12 -12h-436q-11 0 -11 12zM111 1180q0 33 23.5 56t58.5 23q31 0 54.5 -23.5 t23.5 -55.5q0 -33 -23.5 -56.5t-54.5 -23.5q-35 0 -58.5 23.5t-23.5 56.5zM312 1180q0 33 23.5 56t56.5 23t56 -23.5t23 -55.5q0 -33 -23.5 -56.5t-55.5 -23.5q-33 0 -56.5 23.5t-23.5 56.5z" />
<glyph unicode="&#xd0;" horiz-adv-x="991" d="M98 2q0 12 13 12h24q43 0 73 38t30 83v236h-82q-39 0 -39 35t39 34h82v480q0 72 -76 71h-21q-12 0 -12 13q0 12 12 12h316q213 0 369.5 -149.5t156.5 -364.5q0 -213 -156.5 -362.5t-369.5 -149.5h-346q-13 0 -13 12zM418 135q0 -80 45 -80q133 -2 229 130t96 319 q0 190 -97 322t-230 132q-43 -2 -43 -61v-457h78q39 0 39 -34q0 -35 -39 -35h-78v-236z" />
<glyph unicode="&#xd1;" horiz-adv-x="1042" d="M72 993q0 12 12 13h295l414 -689v594q0 70 -76 70h-23q-10 0 -10 12t10 13h260q10 0 11 -13q0 -12 -11 -12h-20q-78 0 -78 -70v-723q0 -74 27 -157q33 -96 82 -135q7 -9 7 -15q0 -2 -1 -4q-7 -3 -12 -3q-3 0 -5 1q-100 37 -182 170l-444 717v-637q0 -43 30.5 -82 t73.5 -39h23q12 0 12 -12q0 -10 -12 -10h-320q-12 0 -12 10q0 12 12 12h25q43 0 73.5 39t30.5 82v739q-39 63 -71 86q-41 31 -109 31q-12 0 -12 12zM340 1051q31 166 134 166q25 0 51 -9l114 -49q27 -8 50 -8q49 0 59 49h53q-20 -145 -133 -145q-37 0 -101.5 31.5 t-94.5 31.5q-53 0 -78 -67h-54z" />
<glyph unicode="&#xd2;" horiz-adv-x="1228" d="M76 496q0 215 160.5 365.5t377.5 150.5t378 -149.5t161 -366.5t-161 -368t-378 -151q-219 0 -378.5 154t-159.5 365zM252 555q0 -76 20 -152q39 -145 140 -249q113 -119 254 -119q147 0 235 129q78 115 78 270q0 76 -21 152q-39 145 -139 250q-115 119 -254 118 q-150 0 -237 -131q-76 -112 -76 -268zM315 1266h156l145 -203h-57z" />
<glyph unicode="&#xd3;" horiz-adv-x="1228" d="M76 496q0 215 160.5 365.5t377.5 150.5t378 -149.5t161 -366.5t-161 -368t-378 -151q-219 0 -378.5 154t-159.5 365zM252 555q0 -76 20 -152q39 -145 140 -249q113 -119 254 -119q147 0 235 129q78 115 78 270q0 76 -21 152q-39 145 -139 250q-115 119 -254 118 q-150 0 -237 -131q-76 -112 -76 -268zM577 1057l146 203h155l-241 -203h-60z" />
<glyph unicode="&#xd4;" horiz-adv-x="1228" d="M76 496q0 215 160.5 365.5t377.5 150.5t378 -149.5t161 -366.5t-161 -368t-378 -151q-219 0 -378.5 154t-159.5 365zM252 555q0 -76 20 -152q39 -145 140 -249q113 -119 254 -119q147 0 235 129q78 115 78 270q0 76 -21 152q-39 145 -139 250q-115 119 -254 118 q-150 0 -237 -131q-76 -112 -76 -268zM391 1041l166 207h99l170 -207h-99l-119 98l-120 -98h-97z" />
<glyph unicode="&#xd5;" horiz-adv-x="1228" d="M76 496q0 215 160.5 365.5t377.5 150.5t378 -149.5t161 -366.5t-161 -368t-378 -151q-219 0 -378.5 154t-159.5 365zM252 555q0 -76 20 -152q39 -145 140 -249q113 -119 254 -119q147 0 235 129q78 115 78 270q0 76 -21 152q-39 145 -139 250q-115 119 -254 118 q-150 0 -237 -131q-76 -112 -76 -268zM399 1055q31 166 134 166q25 0 51 -9l114 -49q27 -8 50 -8q49 0 59 49h53q-20 -145 -133 -145q-37 0 -101.5 31.5t-94.5 31.5q-53 0 -78 -67h-54z" />
<glyph unicode="&#xd6;" horiz-adv-x="1228" d="M76 496q0 215 160.5 365.5t377.5 150.5t378 -149.5t161 -366.5t-161 -368t-378 -151q-219 0 -378.5 154t-159.5 365zM252 555q0 -76 20 -152q39 -145 140 -249q113 -119 254 -119q147 0 235 129q78 115 78 270q0 76 -21 152q-39 145 -139 250q-115 119 -254 118 q-150 0 -237 -131q-76 -112 -76 -268zM424 1149q0 33 23.5 56t58.5 23q31 0 54.5 -23.5t23.5 -55.5q0 -33 -23.5 -56.5t-54.5 -23.5q-35 0 -58.5 23.5t-23.5 56.5zM625 1149q0 33 23.5 56t56.5 23t56 -23.5t23 -55.5q0 -33 -23.5 -56.5t-55.5 -23.5q-33 0 -56.5 23.5 t-23.5 56.5z" />
<glyph unicode="&#xd8;" horiz-adv-x="1177" d="M106 496q0 215 160 365.5t377 150.5q170 0 311 -94l68 75q25 27 49 6q27 -20 4 -49l-65 -78q4 -4 14 -12q158 -152 158 -364q0 -217 -160 -368t-379 -151q-170 0 -311 97l-66 -78q-25 -29 -51 -6q-27 20 -2 49l66 78q-6 4 -13 12q-160 148 -160 367zM281 557 q0 -178 96 -324l491 580q-121 141 -274 141q-150 0 -238 -129q-75 -112 -75 -268zM420 176q121 -141 274 -141q150 0 238 131q76 115 76 268q0 176 -97 324z" />
<glyph unicode="&#xd9;" horiz-adv-x="1067" d="M59 1001q0 10 15 11h372q12 0 13 -11q0 -10 -17 -12h-26q-27 -4 -48.5 -22.5t-17.5 -46.5l39 -396q31 -256 98 -379q45 -82 101 -82q70 0 123 95q74 125 98 370q12 197 27 392q2 31 -23 51t-57 20h-21q-8 0 -8 10t8 11h260q10 0 11 -11q0 -10 -11 -10q-92 0 -98 -71 q-12 -213 -27 -426q-29 -274 -115.5 -394t-209.5 -120q-119 0 -205 117.5t-125 391.5l-45 431q-8 72 -96 71q-15 0 -15 10zM284 1262h156l145 -203h-57z" />
<glyph unicode="&#xda;" horiz-adv-x="1067" d="M59 1001q0 10 15 11h372q12 0 13 -11q0 -10 -17 -12h-26q-27 -4 -48.5 -22.5t-17.5 -46.5l39 -396q31 -256 98 -379q45 -82 101 -82q70 0 123 95q74 125 98 370q12 197 27 392q2 31 -23 51t-57 20h-21q-8 0 -8 10t8 11h260q10 0 11 -11q0 -10 -11 -10q-92 0 -98 -71 q-12 -213 -27 -426q-29 -274 -115.5 -394t-209.5 -120q-119 0 -205 117.5t-125 391.5l-45 431q-8 72 -96 71q-15 0 -15 10zM493 1057l146 203h155l-241 -203h-60z" />
<glyph unicode="&#xdb;" horiz-adv-x="1067" d="M59 1001q0 10 15 11h372q12 0 13 -11q0 -10 -17 -12h-26q-27 -4 -48.5 -22.5t-17.5 -46.5l39 -396q31 -256 98 -379q45 -82 101 -82q70 0 123 95q74 125 98 370q12 197 27 392q2 31 -23 51t-57 20h-21q-8 0 -8 10t8 11h260q10 0 11 -11q0 -10 -11 -10q-92 0 -98 -71 q-12 -213 -27 -426q-29 -274 -115.5 -394t-209.5 -120q-119 0 -205 117.5t-125 391.5l-45 431q-8 72 -96 71q-15 0 -15 10zM350 1057l166 207h99l170 -207h-99l-119 98l-120 -98h-97z" />
<glyph unicode="&#xdc;" horiz-adv-x="1067" d="M59 1001q0 10 15 11h372q12 0 13 -11q0 -10 -17 -12h-26q-27 -4 -48.5 -22.5t-17.5 -46.5l39 -396q31 -256 98 -379q45 -82 101 -82q70 0 123 95q74 125 98 370q12 197 27 392q2 31 -23 51t-57 20h-21q-8 0 -8 10t8 11h260q10 0 11 -11q0 -10 -11 -10q-92 0 -98 -71 q-12 -213 -27 -426q-29 -274 -115.5 -394t-209.5 -120q-119 0 -205 117.5t-125 391.5l-45 431q-8 72 -96 71q-15 0 -15 10zM403 1131q0 33 23.5 56t58.5 23q31 0 54.5 -23.5t23.5 -55.5q0 -33 -23.5 -56.5t-54.5 -23.5q-35 0 -58.5 23.5t-23.5 56.5zM604 1131q0 33 23.5 56 t56.5 23t56 -23.5t23 -55.5q0 -33 -23.5 -56.5t-55.5 -23.5q-33 0 -56.5 23.5t-23.5 56.5z" />
<glyph unicode="&#xdd;" horiz-adv-x="1191" d="M66 1004q0 12 12 12h426q12 0 12 -12q0 -10 -29.5 -11.5t-29.5 -25.5q0 -29 41 -68l198 -188l138 157q23 25 22 56q0 70 -78 69h-20q-12 0 -13 11q0 12 13 12h356q12 0 12 -12q0 -10 -12 -11q-86 0 -149 -73l-224 -256v-527q0 -45 31 -83t74 -38q35 0 35 -12t-11 -12 h-438q-12 0 -12 12t40 12t70.5 38t30.5 83v481l-311 291q-49 49 -81 66.5t-91 17.5q-12 1 -12 11zM590 1055l146 203h155l-241 -203h-60z" />
<glyph unicode="&#xde;" horiz-adv-x="929" d="M66 2q0 12 14 12h22q43 0 73 38t30 83v733q0 45 -30 84t-73 39h-22q-14 0 -14 10q0 12 14 13h434q10 0 10 -13q0 -10 -10 -10h-22q-45 0 -76 -39t-31 -84v-47h125q193 0 316.5 -66.5t123.5 -168.5q0 -117 -151 -189q-143 -70 -357 -69q-39 0 -57 2v-195q0 -45 30.5 -83 t76.5 -38h22q10 0 10 -12t-10 -12h-434q-14 0 -14 12zM385 377q18 -2 57 -2q119 0 202 58.5t83 139.5q0 94 -96 152q-82 49 -182 49q-63 0 -64 -65v-332z" />
<glyph unicode="&#xdf;" horiz-adv-x="950" d="M29 643q0 10 10 10q57 0 99 42t42 100v174q0 150 109.5 255t259.5 105t259.5 -105.5t109.5 -254.5q0 -133 -86.5 -229.5t-219.5 -125.5q-53 -12 -82 -39q-35 -35 -34 -77q0 -68 94 -99l172 -53q94 -43 94 -133q0 -113 -88 -174q-78 -53 -195 -53q-74 0 -133 26l-47 -28 v151l45 53q12 -72 66.5 -112.5t128.5 -40.5q139 0 139 90q0 66 -102 100l-189 60q-100 49 -100 147q0 164 213 227q90 27 139 129q43 86 43 191q0 117 -55 211q-66 115 -172 115q-109 0 -184 -111q-68 -100 -68 -215v-979h-205q-10 0 -10 10t10 10q37 0 62.5 33t25.5 70v510 h-139q-12 0 -12 10z" />
<glyph unicode="&#xe0;" horiz-adv-x="788" d="M31 156q0 78 96 123q74 35 162 34q141 0 243 -57q-4 84 -18 250q-6 72 -59.5 118t-124.5 46q-59 0 -108.5 -37t-49.5 -94q0 -78 109 -97q10 -2 11 -6t1 -6q0 -4 -9.5 -9t-146.5 -50q-66 59 -65 131q0 92 94 151q80 49 178 49q264 0 289 -245q4 -39 24 -264q2 -35 9 -107 q6 -47 47 -47q14 0 22 6t13 6q4 0 7 -2t3 -6q0 -16 -37 -30.5t-57 -14.5q-47 0 -81 26.5t-38 73.5q-78 -100 -256 -100q-86 0 -162 37q-96 45 -96 121zM186 162q0 -111 172 -111q86 0 134.5 32t48.5 69q0 119 -183 118q-172 1 -172 -108zM88 952h156l145 -203h-57z" />
<glyph unicode="&#xe1;" horiz-adv-x="788" d="M31 156q0 78 96 123q74 35 162 34q141 0 243 -57q-4 84 -18 250q-6 72 -59.5 118t-124.5 46q-59 0 -108.5 -37t-49.5 -94q0 -78 109 -97q10 -2 11 -6t1 -6q0 -4 -9.5 -9t-146.5 -50q-66 59 -65 131q0 92 94 151q80 49 178 49q264 0 289 -245q4 -39 24 -264q2 -35 9 -107 q6 -47 47 -47q14 0 22 6t13 6q4 0 7 -2t3 -6q0 -16 -37 -30.5t-57 -14.5q-47 0 -81 26.5t-38 73.5q-78 -100 -256 -100q-86 0 -162 37q-96 45 -96 121zM186 162q0 -111 172 -111q86 0 134.5 32t48.5 69q0 119 -183 118q-172 1 -172 -108zM317 741l146 203h155l-241 -203h-60 z" />
<glyph unicode="&#xe2;" horiz-adv-x="788" d="M31 156q0 78 96 123q74 35 162 34q141 0 243 -57q-4 84 -18 250q-6 72 -59.5 118t-124.5 46q-59 0 -108.5 -37t-49.5 -94q0 -78 109 -97q10 -2 11 -6t1 -6q0 -4 -9.5 -9t-146.5 -50q-66 59 -65 131q0 92 94 151q80 49 178 49q264 0 289 -245q4 -39 24 -264q2 -35 9 -107 q6 -47 47 -47q14 0 22 6t13 6q4 0 7 -2t3 -6q0 -16 -37 -30.5t-57 -14.5q-47 0 -81 26.5t-38 73.5q-78 -100 -256 -100q-86 0 -162 37q-96 45 -96 121zM186 162q0 -111 172 -111q86 0 134.5 32t48.5 69q0 119 -183 118q-172 1 -172 -108zM141 731l166 207h99l170 -207h-99 l-119 98l-120 -98h-97z" />
<glyph unicode="&#xe3;" horiz-adv-x="788" d="M31 156q0 78 96 123q74 35 162 34q141 0 243 -57q-4 84 -18 250q-6 72 -59.5 118t-124.5 46q-59 0 -108.5 -37t-49.5 -94q0 -78 109 -97q10 -2 11 -6t1 -6q0 -4 -9.5 -9t-146.5 -50q-66 59 -65 131q0 92 94 151q80 49 178 49q264 0 289 -245q4 -39 24 -264q2 -35 9 -107 q6 -47 47 -47q14 0 22 6t13 6q4 0 7 -2t3 -6q0 -16 -37 -30.5t-57 -14.5q-47 0 -81 26.5t-38 73.5q-78 -100 -256 -100q-86 0 -162 37q-96 45 -96 121zM186 162q0 -111 172 -111q86 0 134.5 32t48.5 69q0 119 -183 118q-172 1 -172 -108zM137 746q31 166 134 166q25 0 51 -9 l114 -49q27 -8 50 -8q49 0 59 49h53q-20 -145 -133 -145q-37 0 -101.5 31.5t-94.5 31.5q-53 0 -78 -67h-54z" />
<glyph unicode="&#xe4;" horiz-adv-x="788" d="M31 156q0 78 96 123q74 35 162 34q141 0 243 -57q-4 84 -18 250q-6 72 -59.5 118t-124.5 46q-59 0 -108.5 -37t-49.5 -94q0 -78 109 -97q10 -2 11 -6t1 -6q0 -4 -9.5 -9t-146.5 -50q-66 59 -65 131q0 92 94 151q80 49 178 49q264 0 289 -245q4 -39 24 -264q2 -35 9 -107 q6 -47 47 -47q14 0 22 6t13 6q4 0 7 -2t3 -6q0 -16 -37 -30.5t-57 -14.5q-47 0 -81 26.5t-38 73.5q-78 -100 -256 -100q-86 0 -162 37q-96 45 -96 121zM186 162q0 -111 172 -111q86 0 134.5 32t48.5 69q0 119 -183 118q-172 1 -172 -108zM180 813q0 33 23.5 56t58.5 23 q31 0 54.5 -23.5t23.5 -55.5q0 -33 -23.5 -56.5t-54.5 -23.5q-35 0 -58.5 23.5t-23.5 56.5zM381 813q0 33 23.5 56t56.5 23t56 -23.5t23 -55.5q0 -33 -23.5 -56.5t-55.5 -23.5q-33 0 -56.5 23.5t-23.5 56.5z" />
<glyph unicode="&#xe5;" horiz-adv-x="788" d="M31 156q0 78 96 123q74 35 162 34q141 0 243 -57q-4 84 -18 250q-6 72 -59.5 118t-124.5 46q-59 0 -108.5 -37t-49.5 -94q0 -78 109 -97q10 -2 11 -6t1 -6q0 -4 -9.5 -9t-146.5 -50q-66 59 -65 131q0 92 94 151q80 49 178 49q264 0 289 -245q4 -39 24 -264q2 -35 9 -107 q6 -47 47 -47q14 0 22 6t13 6q4 0 7 -2t3 -6q0 -16 -37 -30.5t-57 -14.5q-47 0 -81 26.5t-38 73.5q-78 -100 -256 -100q-86 0 -162 37q-96 45 -96 121zM186 162q0 -111 172 -111q86 0 134.5 32t48.5 69q0 119 -183 118q-172 1 -172 -108zM543 887q0 -66 -48 -114t-118 -48 q-68 0 -116 48t-48 114q0 70 48.5 119t115.5 49q70 0 118 -49t48 -119zM467 887q0 39 -26.5 64.5t-63.5 25.5t-62.5 -25.5t-25.5 -64.5q0 -35 26.5 -60.5t61.5 -25.5q37 0 63.5 25.5t26.5 60.5z" />
<glyph unicode="&#xe6;" horiz-adv-x="1247" d="M37 156q0 78 96 123q76 35 164 34q141 0 244 -57q-12 166 -21 250q-6 70 -58 117t-124 47q-59 0 -107 -35q-53 -39 -53 -96q0 -78 111 -97q10 -2 10 -8v-4q0 -4 -6 -8q-12 -6 -148 -51q-68 59 -67 131q0 94 94 151q80 49 180 49q211 0 271 -159q104 125 262 125 q176 0 254 -150h-412q-35 -68 -35 -149q0 -125 74 -228q82 -113 203 -112q121 0 196 131q4 12 17 33q4 6 10 6q10 0 10 -6q0 -16 -33 -62q-102 -147 -282 -147q-199 0 -297 170q-82 -156 -293 -156q-88 0 -164 37q-96 43 -96 121zM195 162q0 -111 172 -111q84 0 133 33 t49 68q0 119 -182 118q-172 1 -172 -108zM735 539h238v8q2 39 -26.5 65.5t-67.5 26.5q-81 0 -144 -100z" />
<glyph unicode="&#xe7;" horiz-adv-x="657" d="M31 334q0 137 89 235.5t214 98.5q82 0 151 -35q80 -43 80 -115q0 -59 -46 -96t-107 -37q-47 0 -90 23q-8 6 -9 14q0 4 2 6q4 12 25 6q25 -10 47 -10q41 0 64 31q16 20 16 53q0 76 -61 117q-25 16 -58 16q-43 0 -84 -25q-102 -63 -102 -223q0 -178 106 -274 q66 -59 142 -60q88 0 147 78q37 47 49 111q4 10 15 6q7 0 7 -6q0 -3 -1 -6q-25 -102 -103 -170q-82 -74 -190 -74q-123 0 -213 98.5t-90 237.5zM133 -246l22 47q59 -27 92 -27q37 0 66 17q37 20 37 53q0 25 -19.5 41t-60.5 16q-31 0 -64 -10l-18 21l88 118h55l-69 -86l51 11 q59 -6 89 -33t30 -76q0 -31 -19 -57q-47 -59 -143 -60q-55 0 -137 25z" />
<glyph unicode="&#xe8;" horiz-adv-x="724" d="M33 326q0 139 100 240.5t240 101.5q178 0 256 -150h-414q-33 -68 -33 -149q0 -125 76 -228q82 -111 203 -110q123 0 213 162q4 6 8 6q10 0 10 -9l-2 -4q-39 -92 -126 -147t-187 -55q-141 0 -242.5 99.5t-101.5 242.5zM225 539h240q0 43 -27.5 71.5t-70.5 28.5 q-79 0 -142 -100zM82 926h156l145 -203h-57z" />
<glyph unicode="&#xe9;" horiz-adv-x="724" d="M33 326q0 139 100 240.5t240 101.5q178 0 256 -150h-414q-33 -68 -33 -149q0 -125 76 -228q82 -111 203 -110q123 0 213 162q4 6 8 6q10 0 10 -9l-2 -4q-39 -92 -126 -147t-187 -55q-141 0 -242.5 99.5t-101.5 242.5zM225 539h240q0 43 -27.5 71.5t-70.5 28.5 q-79 0 -142 -100zM352 711l146 203h155l-241 -203h-60z" />
<glyph unicode="&#xea;" horiz-adv-x="724" d="M33 326q0 139 100 240.5t240 101.5q178 0 256 -150h-414q-33 -68 -33 -149q0 -125 76 -228q82 -111 203 -110q123 0 213 162q4 6 8 6q10 0 10 -9l-2 -4q-39 -92 -126 -147t-187 -55q-141 0 -242.5 99.5t-101.5 242.5zM225 539h240q0 43 -27.5 71.5t-70.5 28.5 q-79 0 -142 -100zM166 692l166 207h99l170 -207h-99l-119 98l-120 -98h-97z" />
<glyph unicode="&#xeb;" horiz-adv-x="724" d="M33 326q0 139 100 240.5t240 101.5q178 0 256 -150h-414q-33 -68 -33 -149q0 -125 76 -228q82 -111 203 -110q123 0 213 162q4 6 8 6q10 0 10 -9l-2 -4q-39 -92 -126 -147t-187 -55q-141 0 -242.5 99.5t-101.5 242.5zM225 539h240q0 43 -27.5 71.5t-70.5 28.5 q-79 0 -142 -100zM186 787q0 33 23.5 56t58.5 23q31 0 54.5 -23.5t23.5 -55.5q0 -33 -23.5 -56.5t-54.5 -23.5q-35 0 -58.5 23.5t-23.5 56.5zM387 787q0 33 23.5 56t56.5 23t56 -23.5t23 -55.5q0 -33 -23.5 -56.5t-55.5 -23.5q-33 0 -56.5 23.5t-23.5 56.5z" />
<glyph unicode="&#xec;" horiz-adv-x="370" d="M354 8q0 -10 -10 -10h-317q-10 0 -11 10q0 6 28 13.5t42 25.5q29 35 29 74v328q0 205 180 223q-39 -55 -39 -131v-420q0 -39 25.5 -71t62.5 -32q10 0 10 -10zM-64 936h156l145 -203h-57z" />
<glyph unicode="&#xed;" horiz-adv-x="370" d="M354 8q0 -10 -10 -10h-317q-10 0 -11 10q0 6 28 13.5t42 25.5q29 35 29 74v328q0 205 180 223q-39 -55 -39 -131v-420q0 -39 25.5 -71t62.5 -32q10 0 10 -10zM198 715l146 203h155l-241 -203h-60z" />
<glyph unicode="&#xee;" horiz-adv-x="370" d="M354 8q0 -10 -10 -10h-317q-10 0 -11 10q0 6 28 13.5t42 25.5q29 35 29 74v328q0 205 180 223q-39 -55 -39 -131v-420q0 -39 25.5 -71t62.5 -32q10 0 10 -10zM-4 688l166 207h99l170 -207h-99l-119 98l-120 -98h-97z" />
<glyph unicode="&#xef;" horiz-adv-x="370" d="M354 8q0 -10 -10 -10h-317q-10 0 -11 10q0 6 28 13.5t42 25.5q29 35 29 74v328q0 205 180 223q-39 -55 -39 -131v-420q0 -39 25.5 -71t62.5 -32q10 0 10 -10zM37 791q0 33 23.5 56t58.5 23q31 0 54.5 -23.5t23.5 -55.5q0 -33 -23.5 -56.5t-54.5 -23.5q-35 0 -58.5 23.5 t-23.5 56.5zM238 791q0 33 23.5 56t56.5 23t56 -23.5t23 -55.5q0 -33 -23.5 -56.5t-55.5 -23.5q-33 0 -56.5 23.5t-23.5 56.5z" />
<glyph unicode="&#xf0;" horiz-adv-x="702" d="M33 330q0 137 89 242.5t224 105.5q86 0 164 -51q-47 352 -191 555q-123 -57 -129 -58q-29 0 -28 29q0 18 18 27l103 47q-100 106 -215 96q-12 -2 -15 6q0 8 10 12q45 18 97 19q106 0 209 -94q119 55 125 55q27 0 26 -29q0 -18 -18 -26l-92 -43q117 -141 190 -383 q70 -223 70 -420q0 -154 -47 -252q-88 -184 -277 -184q-135 0 -224 104.5t-89 241.5zM174 356q0 -104 45 -211q57 -131 148 -131q92 0 133 156q25 100 24 231q0 78 -8 160q-49 80 -154 80q-102 0 -151 -96q-37 -74 -37 -189z" />
<glyph unicode="&#xf1;" horiz-adv-x="786" d="M37 8q0 10 12 10q35 0 61.5 33t26.5 70v426l-67 35l104 54l105 54v-182q63 164 200 164q82 0 131 -74q45 -63 45 -149v-328q0 -37 26 -70t62 -33q8 0 9 -10q0 -10 -9 -10h-317q-10 0 -10 10t10 10q35 0 61.5 33t26.5 70v336q0 51 -27.5 93t-72.5 42q-57 0 -96 -53.5 t-39 -112.5v-305q0 -37 24.5 -70t61.5 -33q6 0 12 -10q0 -10 -12 -10h-316q-12 0 -12 10zM163 703q31 166 134 166q25 0 51 -9l114 -49q27 -8 50 -8q49 0 59 49h53q-20 -145 -133 -145q-37 0 -101.5 31.5t-94.5 31.5q-53 0 -78 -67h-54z" />
<glyph unicode="&#xf2;" horiz-adv-x="843" d="M39 322q0 150 119 249q113 96 264 97q152 0 267.5 -98.5t115.5 -247.5q0 -150 -116 -249.5t-267 -99.5q-152 0 -264 97q-119 102 -119 252zM201 360q0 -182 108 -290q68 -66 137 -66q96 0 150 96q45 78 45 181q0 188 -106 297q-66 66 -138 65q-96 0 -151 -96 q-45 -83 -45 -187zM94 932h156l145 -203h-57z" />
<glyph unicode="&#xf3;" horiz-adv-x="843" d="M39 322q0 150 119 249q113 96 264 97q152 0 267.5 -98.5t115.5 -247.5q0 -150 -116 -249.5t-267 -99.5q-152 0 -264 97q-119 102 -119 252zM201 360q0 -182 108 -290q68 -66 137 -66q96 0 150 96q45 78 45 181q0 188 -106 297q-66 66 -138 65q-96 0 -151 -96 q-45 -83 -45 -187zM391 715l146 203h155l-241 -203h-60z" />
<glyph unicode="&#xf4;" horiz-adv-x="843" d="M39 322q0 150 119 249q113 96 264 97q152 0 267.5 -98.5t115.5 -247.5q0 -150 -116 -249.5t-267 -99.5q-152 0 -264 97q-119 102 -119 252zM201 360q0 -182 108 -290q68 -66 137 -66q96 0 150 96q45 78 45 181q0 188 -106 297q-66 66 -138 65q-96 0 -151 -96 q-45 -83 -45 -187zM194 699l166 207h99l170 -207h-99l-119 98l-120 -98h-97z" />
<glyph unicode="&#xf5;" horiz-adv-x="843" d="M39 322q0 150 119 249q113 96 264 97q152 0 267.5 -98.5t115.5 -247.5q0 -150 -116 -249.5t-267 -99.5q-152 0 -264 97q-119 102 -119 252zM201 360q0 -182 108 -290q68 -66 137 -66q96 0 150 96q45 78 45 181q0 188 -106 297q-66 66 -138 65q-96 0 -151 -96 q-45 -83 -45 -187zM190 699q31 166 134 166q25 0 51 -9l114 -49q27 -8 50 -8q49 0 59 49h53q-20 -145 -133 -145q-37 0 -101.5 31.5t-94.5 31.5q-53 0 -78 -67h-54z" />
<glyph unicode="&#xf6;" horiz-adv-x="843" d="M39 322q0 150 119 249q113 96 264 97q152 0 267.5 -98.5t115.5 -247.5q0 -150 -116 -249.5t-267 -99.5q-152 0 -264 97q-119 102 -119 252zM201 360q0 -182 108 -290q68 -66 137 -66q96 0 150 96q45 78 45 181q0 188 -106 297q-66 66 -138 65q-96 0 -151 -96 q-45 -83 -45 -187zM215 785q0 33 23.5 56t58.5 23q31 0 54.5 -23.5t23.5 -55.5q0 -33 -23.5 -56.5t-54.5 -23.5q-35 0 -58.5 23.5t-23.5 56.5zM416 785q0 33 23.5 56t56.5 23t56 -23.5t23 -55.5q0 -33 -23.5 -56.5t-55.5 -23.5q-33 0 -56.5 23.5t-23.5 56.5z" />
<glyph unicode="&#xf8;" horiz-adv-x="843" d="M39 322q0 150 119 249q113 96 264 97q133 0 233 -72q84 84 97 84q29 0 28 -29q0 -12 -80 -92q104 -98 105 -237q0 -150 -116 -249.5t-267 -99.5q-133 0 -234 74q-82 -86 -94 -86q-31 0 -31 31q0 12 80 92q-104 99 -104 238zM201 367q0 -92 37 -189l342 342 q-86 123 -183 123q-94 0 -149 -94q-47 -80 -47 -182zM266 125q74 -121 183 -121q96 0 149 98q45 80 45 187q0 96 -37 176z" />
<glyph unicode="&#xf9;" horiz-adv-x="759" d="M35 582l207 110v-499q0 -66 39 -107q27 -29 61 -29q59 0 100 60q35 51 35 116v314l-65 35l209 108v-584q0 -45 45 -45q31 0 41 31q4 10 12 6q7 0 7 -6q0 -3 -1 -6q-31 -86 -119 -86q-53 0 -91 37t-38 90v16q-25 -70 -76 -114q-57 -49 -125 -49t-112 47q-63 66 -64 176 v344zM78 932h156l145 -203h-57z" />
<glyph unicode="&#xfa;" horiz-adv-x="759" d="M35 582l207 110v-499q0 -66 39 -107q27 -29 61 -29q59 0 100 60q35 51 35 116v314l-65 35l209 108v-584q0 -45 45 -45q31 0 41 31q4 10 12 6q7 0 7 -6q0 -3 -1 -6q-31 -86 -119 -86q-53 0 -91 37t-38 90v16q-25 -70 -76 -114q-57 -49 -125 -49t-112 47q-63 66 -64 176 v344zM340 711l146 203h155l-241 -203h-60z" />
<glyph unicode="&#xfb;" horiz-adv-x="759" d="M35 582l207 110v-499q0 -66 39 -107q27 -29 61 -29q59 0 100 60q35 51 35 116v314l-65 35l209 108v-584q0 -45 45 -45q31 0 41 31q4 10 12 6q7 0 7 -6q0 -3 -1 -6q-31 -86 -119 -86q-53 0 -91 37t-38 90v16q-25 -70 -76 -114q-57 -49 -125 -49t-112 47q-63 66 -64 176 v344zM137 711l166 207h99l170 -207h-99l-119 98l-120 -98h-97z" />
<glyph unicode="&#xfc;" horiz-adv-x="759" d="M35 582l207 110v-499q0 -66 39 -107q27 -29 61 -29q59 0 100 60q35 51 35 116v314l-65 35l209 108v-584q0 -45 45 -45q31 0 41 31q4 10 12 6q7 0 7 -6q0 -3 -1 -6q-31 -86 -119 -86q-53 0 -91 37t-38 90v16q-25 -70 -76 -114q-57 -49 -125 -49t-112 47q-63 66 -64 176 v344zM160 809q0 33 23.5 56t58.5 23q31 0 54.5 -23.5t23.5 -55.5q0 -33 -23.5 -56.5t-54.5 -23.5q-35 0 -58.5 23.5t-23.5 56.5zM361 809q0 33 23.5 56t56.5 23t56 -23.5t23 -55.5q0 -33 -23.5 -56.5t-55.5 -23.5q-33 0 -56.5 23.5t-23.5 56.5z" />
<glyph unicode="&#xfd;" horiz-adv-x="757" d="M-492 -528q31 35 97 102q68 -68 151 -68q86 0 195 76q242 170 450 641l-270 307q-27 31 -55 31q-12 0 -25.5 -7t-15.5 -7q-10 0 -10 8q0 6 159 121l273 -320q82 205 82 242q0 45 -56.5 52t-56.5 14q0 8 10 8h279q12 0 12 -8q0 -10 -12 -11q-80 0 -125 -88 q-14 -27 -72 -155q-66 -154 -211 -453q-166 -297 -383 -444q-137 -94 -260 -95q-90 1 -156 54zM317 706l146 203h155l-241 -203h-60z" />
<glyph unicode="&#xfe;" horiz-adv-x="813" d="M37 -606q0 8 6 12q168 131 168 350v1538q0 39 -24.5 71t-61.5 32q-12 0 -12 10t12 10h227v-848q98 102 209 103q102 0 162 -84q53 -74 53 -180q0 -143 -92 -271q-102 -137 -242 -137q-49 0 -90 20v-137q0 -139 -55 -264q-61 -143 -172 -203q-53 -29 -76 -28q-10 0 -12 6z M352 117q53 -86 125 -86q84 0 133 108q41 86 41 180t-41 181q-49 109 -133 108q-72 0 -125 -86v-405z" />
<glyph unicode="&#xff;" horiz-adv-x="757" d="M-492 -528q31 35 97 102q68 -68 151 -68q86 0 195 76q242 170 450 641l-270 307q-27 31 -55 31q-12 0 -25.5 -7t-15.5 -7q-10 0 -10 8q0 6 159 121l273 -320q82 205 82 242q0 45 -56.5 52t-56.5 14q0 8 10 8h279q12 0 12 -8q0 -10 -12 -11q-80 0 -125 -88 q-14 -27 -72 -155q-66 -154 -211 -453q-166 -297 -383 -444q-137 -94 -260 -95q-90 1 -156 54zM209 791q0 33 23.5 56t58.5 23q31 0 54.5 -23.5t23.5 -55.5q0 -33 -23.5 -56.5t-54.5 -23.5q-35 0 -58.5 23.5t-23.5 56.5zM410 791q0 33 23.5 56t56.5 23t56 -23.5t23 -55.5 q0 -33 -23.5 -56.5t-55.5 -23.5q-33 0 -56.5 23.5t-23.5 56.5z" />
<glyph unicode="&#x131;" horiz-adv-x="370" d="M354 8q0 -10 -10 -10h-317q-10 0 -11 10q0 6 28 13.5t42 25.5q29 35 29 74v328q0 205 180 223q-39 -55 -39 -131v-420q0 -39 25.5 -71t62.5 -32q10 0 10 -10z" />
<glyph unicode="&#x152;" horiz-adv-x="1734" d="M90 496q0 217 160 366.5t379 149.5q215 0 375 -146v54q0 72 -78 71h-21q-12 0 -12 10q0 12 12 13h727q12 0 13 -13q-18 -127 -129 -210q-8 -4 -14.5 3t-2.5 13q14 20 14 51q0 59 -81 92q-61 23 -134 23h-38q-78 0 -78 -72v-541h123q49 0 73.5 15.5t51.5 60.5q6 8 14 4 q6 -2 6 -8v-199q0 -8 -6 -12q-10 0 -27 25q-23 31 -28 35q-31 23 -84 22h-123v-170q0 -102 125 -102q70 0 131 35q72 43 71 104q0 39 -28 72q-4 4 0 16q10 4 14 2q135 -55 135 -156q0 -25 -19.5 -63.5t-43.5 -50.5h-693q-12 0 -12 10q0 12 12 12h23q41 0 70.5 35t33.5 76 q-158 -145 -372 -146q-219 0 -379 151t-160 368zM266 563q0 -80 21 -160q39 -147 139 -249q113 -119 254 -119q147 0 235 131q76 115 76 268q0 76 -20 152q-39 147 -140 252q-113 117 -253 116q-147 0 -236 -127q-76 -110 -76 -264z" />
<glyph unicode="&#x153;" horiz-adv-x="1351" d="M37 322q0 150 114.5 248t268.5 98q172 0 307 -138q100 137 270 138q176 0 256 -150h-413q-35 -68 -35 -149q0 -125 76 -228q82 -113 202 -112q125 0 215 164q2 6 7 6q10 0 10 -9v-4q-41 -92 -128 -147t-186 -55q-166 0 -272 133q-123 -143 -309 -144q-152 0 -267.5 99.5 t-115.5 249.5zM199 367q0 -188 110 -297q66 -66 137 -66q94 0 150 98q45 80 45 185q0 119 -63 229q-72 127 -183 127q-96 0 -151 -94q-45 -80 -45 -182zM850 539h240q0 43 -29 71.5t-70 28.5q-84 0 -141 -100z" />
<glyph unicode="&#x178;" horiz-adv-x="1191" d="M66 1004q0 12 12 12h426q12 0 12 -12q0 -10 -29.5 -11.5t-29.5 -25.5q0 -29 41 -68l198 -188l138 157q23 25 22 56q0 70 -78 69h-20q-12 0 -13 11q0 12 13 12h356q12 0 12 -12q0 -10 -12 -11q-86 0 -149 -73l-224 -256v-527q0 -45 31 -83t74 -38q35 0 35 -12t-11 -12 h-438q-12 0 -12 12t40 12t70.5 38t30.5 83v481l-311 291q-49 49 -81 66.5t-91 17.5q-12 1 -12 11zM473 1135q0 33 23.5 56t58.5 23q31 0 54.5 -23.5t23.5 -55.5q0 -33 -23.5 -56.5t-54.5 -23.5q-35 0 -58.5 23.5t-23.5 56.5zM674 1135q0 33 23.5 56t56.5 23t56 -23.5 t23 -55.5q0 -33 -23.5 -56.5t-55.5 -23.5q-33 0 -56.5 23.5t-23.5 56.5z" />
<glyph unicode="&#x2c6;" horiz-adv-x="466" d="M16 1059l166 207h99l170 -207h-99l-119 98l-120 -98h-97z" />
<glyph unicode="&#x2da;" horiz-adv-x="411" d="M391 1352q0 -66 -48 -114t-118 -48q-68 0 -116 48t-48 114q0 70 48.5 119t115.5 49q70 0 118 -49t48 -119zM315 1352q0 39 -26.5 64.5t-63.5 25.5t-62.5 -25.5t-25.5 -64.5q0 -35 26.5 -60.5t61.5 -25.5q37 0 63.5 25.5t26.5 60.5z" />
<glyph unicode="&#x2dc;" horiz-adv-x="497" d="M18 1057q31 166 134 166q25 0 51 -9l114 -49q27 -8 50 -8q49 0 59 49h53q-20 -145 -133 -145q-37 0 -101.5 31.5t-94.5 31.5q-53 0 -78 -67h-54z" />
<glyph unicode="&#x2000;" horiz-adv-x="759" />
<glyph unicode="&#x2001;" horiz-adv-x="1519" />
<glyph unicode="&#x2002;" horiz-adv-x="759" />
<glyph unicode="&#x2003;" horiz-adv-x="1519" />
<glyph unicode="&#x2004;" horiz-adv-x="505" />
<glyph unicode="&#x2005;" horiz-adv-x="378" />
<glyph unicode="&#x2006;" horiz-adv-x="251" />
<glyph unicode="&#x2007;" horiz-adv-x="251" />
<glyph unicode="&#x2008;" horiz-adv-x="188" />
<glyph unicode="&#x2009;" horiz-adv-x="303" />
<glyph unicode="&#x200a;" horiz-adv-x="83" />
<glyph unicode="&#x2010;" horiz-adv-x="276" d="M20 391v113q0 12 13 12h211q12 0 12 -12v-113q0 -10 -12 -10h-211q-13 0 -13 10z" />
<glyph unicode="&#x2011;" horiz-adv-x="276" d="M20 391v113q0 12 13 12h211q12 0 12 -12v-113q0 -10 -12 -10h-211q-13 0 -13 10z" />
<glyph unicode="&#x2012;" horiz-adv-x="276" d="M20 391v113q0 12 13 12h211q12 0 12 -12v-113q0 -10 -12 -10h-211q-13 0 -13 10z" />
<glyph unicode="&#x2013;" horiz-adv-x="647" d="M27 391v113q0 12 12 12h569q12 0 13 -12v-113q0 -10 -13 -10h-569q-12 0 -12 10z" />
<glyph unicode="&#x2014;" horiz-adv-x="1331" d="M59 391v113q0 12 11 12h1190q12 0 12 -12v-113q0 -10 -12 -10h-1190q-11 0 -11 10z" />
<glyph unicode="&#x2018;" horiz-adv-x="274" d="M61 987q0 94 84 135q10 2 15 -4q10 -4 -2 -12q-20 -29 -23 -62q31 2 54.5 -19t23.5 -54q0 -31 -21.5 -52.5t-52.5 -21.5t-54.5 28.5t-23.5 61.5z" />
<glyph unicode="&#x2019;" horiz-adv-x="268" d="M57 1049q0 31 21.5 52t52.5 21t57 -26q20 -27 21 -64q0 -96 -84 -135q-10 -2 -13 2t-3 8t2 8q20 20 26 60q-33 -2 -56.5 19.5t-23.5 54.5z" />
<glyph unicode="&#x201a;" horiz-adv-x="290" d="M59 80q0 33 25 57.5t59 24.5q41 0 64.5 -31t23.5 -72q0 -109 -96 -151q-12 -4 -16 2q-2 6 0 16q27 31 28 70q-35 -2 -61.5 22.5t-26.5 61.5z" />
<glyph unicode="&#x201c;" horiz-adv-x="456" d="M70 987q0 92 86 135q8 4 11 -1t3 -7q0 -6 -2 -8q-23 -27 -25 -62q33 2 56.5 -19t23.5 -54q0 -29 -22.5 -51.5t-50.5 -22.5q-33 0 -56.5 26.5t-23.5 63.5zM233 987q0 92 86 135q10 2 15 -4q4 -4 0 -12q-23 -27 -29 -62q35 2 57.5 -19t22.5 -54q0 -29 -21.5 -51.5 t-50.5 -22.5q-35 0 -57.5 27.5t-22.5 62.5z" />
<glyph unicode="&#x201d;" horiz-adv-x="450" d="M68 1049q0 31 21.5 52t49.5 21q35 0 57.5 -27.5t22.5 -62.5q0 -96 -86 -135q-10 -2 -14 2q-2 6 11 36t15 40q-31 -2 -54 19.5t-23 54.5zM231 1049q0 31 20.5 52t51.5 21q33 0 56.5 -24.5t23.5 -65.5q0 -96 -88 -135q-6 -2 -12 2q-4 8 2 16q23 25 24 60q-33 -2 -55.5 19.5 t-22.5 54.5z" />
<glyph unicode="&#x201e;" horiz-adv-x="499" d="M72 80q0 35 23.5 58.5t60.5 23.5q39 0 63.5 -32t24.5 -71q0 -106 -99 -151q-8 -4 -16 2q0 10 2 16q27 31 29 70q-35 -2 -61.5 22.5t-26.5 61.5zM256 80q0 33 25.5 57.5t60.5 24.5q37 0 61.5 -30t24.5 -73q0 -109 -96 -151q-10 -4 -17 2q-2 8 2 16q23 27 29 70 q-37 -2 -63.5 22.5t-26.5 61.5z" />
<glyph unicode="&#x2022;" horiz-adv-x="331" d="M18 489q0 59 43 103.5t105 44.5q61 0 104 -44t43 -104q0 -61 -43 -104t-104 -43t-104.5 43t-43.5 104z" />
<glyph unicode="&#x2026;" horiz-adv-x="825" d="M106 88q0 33 24 57.5t58 24.5q35 0 59.5 -24.5t24.5 -57.5q0 -37 -24.5 -61.5t-59.5 -24.5t-58.5 24.5t-23.5 61.5zM330 88q0 33 24.5 57.5t59.5 24.5q33 0 57.5 -24.5t24.5 -57.5q0 -35 -25 -60.5t-57 -25.5q-35 0 -59.5 24.5t-24.5 61.5zM553 88q0 33 24.5 57.5 t57.5 24.5q35 0 59.5 -24.5t24.5 -57.5q0 -37 -24.5 -61.5t-59.5 -24.5q-33 0 -57.5 24.5t-24.5 61.5z" />
<glyph unicode="&#x202f;" horiz-adv-x="303" />
<glyph unicode="&#x2039;" horiz-adv-x="198" d="M6 446v111l187 195v-107l-89 -139l89 -146v-108z" />
<glyph unicode="&#x205f;" horiz-adv-x="378" />
<glyph unicode="&#x20ac;" horiz-adv-x="1009" d="M39 436l35 49h73v33h-108l35 49h76q20 199 139 324q127 135 325 135q217 0 353 -178q6 -8 6 -14q0 -20 -21 -21q-8 0 -14 8q-96 141 -270 142q-143 0 -230 -132q-72 -109 -86 -264h434l-38 -49h-400v-33h369l-39 -49h-326q8 -123 54 -215q86 -178 256 -178q92 0 165 41 q25 14 25 -18q0 -16 -14 -25q-106 -61 -224 -61q-197 0 -323.5 131t-138.5 325h-113z" />
<glyph unicode="&#x2122;" />
<glyph unicode="&#xe000;" horiz-adv-x="690" d="M0 690h690v-690h-690v690z" />
<glyph unicode="&#xfb01;" horiz-adv-x="790" d="M436 8q0 6 28 13.5t42 25.5q29 35 29 74v328q0 205 180 223q-39 -55 -39 -131v-420q0 -39 25.5 -71t62.5 -32q10 0 10 -10t-10 -10h-317q-11 0 -11 10zM526 846q0 43 31 72.5t74 29.5q41 0 71.5 -30.5t30.5 -71.5q0 -43 -29.5 -74t-72.5 -31t-74 31t-31 74zM23 641 q0 10 12 10q57 0 98 40t41 97v140q0 164 74 301q86 162 231 194q2 0 5 1q8 0 8 -7q2 -6 -5 -12q-170 -117 -170 -352v-402h64q10 0 10 -10t-10 -10h-64v-510q0 -41 25 -72t64 -31q8 0 8 -10t-8 -10h-320q-8 0 -8 10t8 10q39 0 63.5 31t24.5 72v510h-139q-12 0 -12 10z" />
<glyph unicode="&#xfb02;" horiz-adv-x="776" d="M440 8q0 10 11 10q37 0 62.5 33t25.5 70v807q0 162 74 301q84 162 229 194q13 0 13 -9q0 -5 -5 -9q-170 -117 -170 -352v-932q0 -37 25.5 -70t62.5 -33q10 0 10 -10t-10 -10h-317q-11 0 -11 10zM23 641q0 10 12 10q57 0 98 40t41 97v140q0 164 74 301q86 162 231 194 q2 0 5 1q8 0 8 -7q2 -6 -5 -12q-170 -117 -170 -352v-402h64q10 0 10 -10t-10 -10h-64v-510q0 -41 25 -72t64 -31q8 0 8 -10t-8 -10h-320q-8 0 -8 10t8 10q39 0 63.5 31t24.5 72v510h-139q-12 0 -12 10z" />
<glyph unicode="&#xfb03;" horiz-adv-x="1210" d="M856 8q0 6 28 13.5t42 25.5q29 35 29 74v328q0 205 180 223q-39 -55 -39 -131v-420q0 -39 25.5 -71t62.5 -32q10 0 10 -10t-10 -10h-317q-11 0 -11 10zM946 846q0 43 31 72.5t74 29.5q41 0 71.5 -30.5t30.5 -71.5q0 -43 -29.5 -74t-72.5 -31t-74 31t-31 74zM443 641 q0 10 12 10q57 0 98 40t41 97v140q0 164 74 301q86 162 231 194q2 0 5 1q8 0 8 -7q2 -6 -5 -12q-170 -117 -170 -352v-402h64q10 0 10 -10t-10 -10h-64v-510q0 -41 25 -72t64 -31q8 0 8 -10t-8 -10h-320q-8 0 -8 10t8 10q39 0 63.5 31t24.5 72v510h-139q-12 0 -12 10z M23 641q0 10 12 10q57 0 98 40t41 97v140q0 164 74 301q86 162 231 194q2 0 5 1q8 0 8 -7q2 -6 -5 -12q-170 -117 -170 -352v-402h64q10 0 10 -10t-10 -10h-64v-510q0 -41 25 -72t64 -31q8 0 8 -10t-8 -10h-320q-8 0 -8 10t8 10q39 0 63.5 31t24.5 72v510h-139q-12 0 -12 10 z" />
<glyph unicode="&#xfb04;" horiz-adv-x="1196" d="M860 8q0 10 11 10q37 0 62.5 33t25.5 70v807q0 162 74 301q84 162 229 194q13 0 13 -9q0 -5 -5 -9q-170 -117 -170 -352v-932q0 -37 25.5 -70t62.5 -33q10 0 10 -10t-10 -10h-317q-11 0 -11 10zM443 641q0 10 12 10q57 0 98 40t41 97v140q0 164 74 301q86 162 231 194 q2 0 5 1q8 0 8 -7q2 -6 -5 -12q-170 -117 -170 -352v-402h64q10 0 10 -10t-10 -10h-64v-510q0 -41 25 -72t64 -31q8 0 8 -10t-8 -10h-320q-8 0 -8 10t8 10q39 0 63.5 31t24.5 72v510h-139q-12 0 -12 10zM23 641q0 10 12 10q57 0 98 40t41 97v140q0 164 74 301 q86 162 231 194q2 0 5 1q8 0 8 -7q2 -6 -5 -12q-170 -117 -170 -352v-402h64q10 0 10 -10t-10 -10h-64v-510q0 -41 25 -72t64 -31q8 0 8 -10t-8 -10h-320q-8 0 -8 10t8 10q39 0 63.5 31t24.5 72v510h-139q-12 0 -12 10z" />
</font>
</defs>
</svg>
