<?xml version="1.0" standalone="no"?>
<!DOCTYPE svg PUBLIC "-//W3C//DTD SVG 1.1//EN" "http://www.w3.org/Graphics/SVG/1.1/DTD/svg11.dtd" >
<svg xmlns="http://www.w3.org/2000/svg">
    <metadata>
        This is a custom SVG webfont generated by Font Squirrel.
        Copyright : Copyright Copyright 2004 Punjabonline All rights reserved
        Designer : Kulbir Singh Thind MD
        Foundry : Punjabonline
        Foundry URL : httpwwwpunjabonlinecom
    </metadata>
    <defs>
        <font id="AnmolUniBaniHeavyRegular" horiz-adv-x="649">
            <font-face units-per-em="2048" ascent="1638" descent="-410"/>
            <missing-glyph horiz-adv-x="500"/>
            <glyph unicode=" "/>
            <glyph unicode="!" horiz-adv-x="845"
                   d="M388 114q0 59 42 101.5t102 42.5t102.5 -42.5t42.5 -101.5q0 -61 -42.5 -103.5t-102.5 -42.5t-102 42.5t-42 103.5zM414 1246q0 108 9 137q22 66 110 66q90 0 114 -67q8 -27 8 -136q0 -210 -66 -925h-111l-24 263q-40 429 -40 662z"/>
            <glyph unicode="&#x22;" horiz-adv-x="882"
                   d="M105 1430q0 114 129 114q123 0 123 -114q0 -70 -84 -498h-85l-7 36q-76 402 -76 462zM531 1430q0 114 128 114q124 0 124 -114q0 -70 -82 -498h-87l-6 36q-77 402 -77 462z"/>
            <glyph unicode="#" horiz-adv-x="1513"
                   d="M20 305v194h376l66 264h-284v195h332l76 303h201l-81 -303h265l79 303h197l-76 -303h320v-195h-372l-65 -264h283v-194h-337l-77 -299h-195l75 299h-262l-75 -299h-199l76 299h-323zM592 499h267l64 264h-266z"/>
            <glyph unicode="$" horiz-adv-x="977"
                   d="M6 1016v6q0 133 125 220q103 71 251 89v132h134v-138q161 -42 314 -231l-145 -116q-91 113 -169 151v-368q171 -86 245 -147q129 -105 135 -234v-14q0 -156 -109 -253q-101 -91 -271 -110v-144h-134v144q-139 19 -228 93q-81 66 -144 202l179 64q34 -78 73 -115 q43 -41 120 -58v427q-190 85 -257 141q-116 100 -119 259zM208 1007q0 -87 122 -151l52 -27v313q-174 -26 -174 -135zM516 182q91 12 135 45q53 43 53 142q0 87 -188 183v-370z"/>
            <glyph unicode="%" horiz-adv-x="1684"
                   d="M88 1228q0 146 103 249t250 103q144 0 248 -103t104 -249t-104 -249t-248 -103q-147 0 -250 103t-103 249zM246 -30l898 1572h195l-879 -1572h-214zM278 1228q0 -66 47.5 -113.5t115.5 -47.5q66 0 113.5 47.5t47.5 113.5q0 67 -47.5 114.5t-113.5 47.5 q-68 0 -115.5 -47.5t-47.5 -114.5zM881 433q0 146 103 249t250 103q146 0 249 -103t103 -249q0 -144 -103 -247.5t-249 -103.5q-147 0 -250 103.5t-103 247.5zM1071 433q0 -67 47.5 -114.5t115.5 -47.5q66 0 114 47.5t48 114.5t-48 115t-114 48q-68 0 -115.5 -48t-47.5 -115 z"/>
            <glyph unicode="&#x26;" horiz-adv-x="1751"
                   d="M83 295q0 291 446 534q-86 190 -86 321q0 188 137 287q55 39 117 57.5t130 18.5q126 0 207 -69q88 -77 88 -199q0 -137 -115 -243q-73 -66 -238 -153q67 -119 137 -227.5t143 -207.5q184 222 184 375q0 106 -100 116v52h464v-52q-97 -6 -140 -39q-36 -29 -167 -243 q-148 -237 -183 -281q84 -99 163.5 -149t155.5 -50q152 0 197 166l49 -37q-81 -306 -342 -306q-186 0 -382 210q-237 -210 -472 -210q-159 0 -271 81q-122 93 -122 248zM317 393q0 -122 74 -201q39 -41 87.5 -63t110.5 -22q125 0 296 139q-103 142 -181.5 266.5 t-133.5 234.5q-253 -149 -253 -354zM640 1236q0 -99 87 -304q258 126 258 317q0 38 -11 69.5t-32.5 55t-51 37t-65.5 13.5q-40 0 -74 -15t-58.5 -40t-38.5 -59t-14 -74z"/>
            <glyph unicode="'" horiz-adv-x="495"
                   d="M126 1430q0 114 127 114q124 0 124 -114q0 -70 -82 -497h-87l-6 35q-76 403 -76 462z"/>
            <glyph unicode="(" horiz-adv-x="904"
                   d="M76 668q0 607 689 968l14 -100q-262 -179 -358 -350q-104 -184 -104 -501q0 -324 98 -541q111 -249 365 -400l-27 -94q-307 147 -488 411q-189 276 -189 607z"/>
            <glyph unicode=")" horiz-adv-x="864"
                   d="M58 -256q255 151 365 400q97 217 97 541q0 317 -103 501q-96 171 -356 350l12 100q691 -361 691 -968q0 -331 -190 -607q-181 -264 -489 -411z"/>
            <glyph unicode="*" horiz-adv-x="1072"
                   d="M138 919q0 68 91 109q16 6 48 15t84 21q31 6 61 15t58 22q-51 22 -127 38q-133 29 -166 52q-49 37 -49 90q0 16 7 31t18.5 26.5t27.5 18t32 6.5q79 0 179 -114q50 -63 111 -99q-3 33 -9.5 67t-19.5 68q-37 105 -37 148q0 117 96 117q89 0 89 -115q0 -47 -27 -139 q-15 -52 -24 -88.5t-11 -57.5q29 18 52.5 39.5t43.5 43.5q109 128 186 128q34 0 61.5 -24.5t27.5 -62.5q0 -63 -83 -101q-19 -8 -52 -17t-82 -21l-71 -17q-32 -8 -56 -17q26 -15 57.5 -25t67.5 -16q214 -38 214 -141q0 -17 -7 -33t-18 -27.5t-27 -18.5t-32 -7 q-78 0 -182 127q-21 24 -46 46.5t-54 44.5q2 -28 7 -58.5t15 -62.5q40 -125 40 -177q0 -19 -5 -36.5t-17 -34.5q-24 -36 -65 -36q-100 0 -100 109q0 51 21 115l25 79q9 27 12 32q2 12 4 30t4 40q-59 -44 -100 -87q-41 -46 -70.5 -74.5t-47.5 -40.5q-30 -16 -61 -16 q-38 0 -66 25.5t-28 60.5z"/>
            <glyph unicode="+" horiz-adv-x="1244" d="M71 565v213h440v439h212v-439h440v-213h-440v-439h-212v439h-440z"/>
            <glyph unicode="," horiz-adv-x="694"
                   d="M137 97q-1 9 -1 17q0 65 50 107q51 44 129 44q112 0 178 -73.5t66 -187.5q0 -218 -339 -375l-50 81q99 64 138 113q48 61 57 159q12 -8 12 -9q-13 5 -43 9q-90 1 -127 15q-64 25 -70 100z"/>
            <glyph unicode="-" horiz-adv-x="1114" d="M98 565v213h916v-213h-916z"/>
            <glyph unicode="." horiz-adv-x="606"
                   d="M105 96q0 79 55.5 135t134.5 56q78 0 133 -56t55 -135t-55 -134t-133 -55q-79 0 -134.5 55t-55.5 134z"/>
            <glyph unicode="/" horiz-adv-x="799" d="M-30 -32l605 1598h218l-606 -1598h-217z"/>
            <glyph unicode="0" horiz-adv-x="1147"
                   d="M72 789q0 807 467 807q268 0 385 -276q87 -202 87 -531q0 -305 -74 -495q-115 -307 -398 -307q-467 0 -467 802zM315 789q0 -275 20 -393q49 -272 204 -272q240 0 240 665q0 667 -240 667q-153 0 -201 -273q-23 -124 -23 -394z"/>
            <glyph unicode="1" horiz-adv-x="804"
                   d="M113 -2v106q134 5 146 10q61 22 61 123v999q0 75 -49 75q-10 0 -153 -62v135l405 247v-1437q0 -56 20 -70q30 -19 187 -21v-105h-617z"/>
            <glyph unicode="2" horiz-adv-x="1133"
                   d="M38 0v70l255 285q191 218 298 384q142 226 142 375q0 134 -90 218q-84 75 -211 75q-55 0 -88 -60l-62 -164q-50 -99 -115 -99q-119 0 -119 108q0 125 184 270q174 137 291 137q175 0 295 -119q124 -123 124 -313q0 -173 -99 -358q-77 -140 -226 -313l-242 -269h418 q73 0 111 38q20 21 76 111h81l-100 -376h-923z"/>
            <glyph unicode="3" horiz-adv-x="1066"
                   d="M20 1253q10 92 131 208q148 139 360 139q191 0 299 -131q74 -91 74 -202q0 -185 -227 -369q138 -59 205 -127q92 -95 96 -240v-15q0 -236 -179 -383q-175 -146 -448 -146q-270 0 -270 126q0 58 44 97q41 35 96 35q59 0 165.5 -42t162.5 -42q105 0 166 87q55 78 55 197 q0 79 -44 157t-108 113q-86 46 -213 46q-13 0 -57 1q-34 2 -56 0v74q411 144 411 366q0 98 -115 165q-96 55 -196 55q-59 0 -77 -45q-10 -23 -44 -130q-44 -93 -138 -93q-83 0 -93 99z"/>
            <glyph unicode="4" horiz-adv-x="1061"
                   d="M-2 417v183l687 1016h129v-1001h231v-198h-231v-421h-209v421h-607zM199 615h406v599z"/>
            <glyph unicode="5" horiz-adv-x="1101"
                   d="M36 122q0 54 47 89q41 31 93 31t145.5 -32.5t139.5 -34.5q12 -1 23 -1q259 0 259 326q0 277 -222 378q-124 57 -433 73l30 68l242 549h514q32 0 186 63l-127 -257q-33 -36 -69 -36h-456l-68 -171q256 -37 417 -171q190 -158 190 -416q0 -21 -1 -46q-17 -248 -200 -402 q-172 -145 -405 -145q-305 0 -305 135z"/>
            <glyph unicode="6" horiz-adv-x="1127"
                   d="M57 621q0 238 90 454q97 229 263 360q85 63 211 114q80 33 226 59q18 3 36 3q41 0 83 -17q30 -12 30 -36q0 -42 -47 -60q-140 -53 -265 -114q-92 -46 -141 -95q-129 -128 -186 -309q106 56 215 56q180 0 304 -137q128 -143 128 -364q0 -188 -80 -332q-120 -216 -385 -216 q-233 0 -364 189q-118 176 -118 445zM290 599q0 -186 52 -303q70 -152 222 -152q217 0 217 307q0 409 -271 409q-85 0 -106 -7q-42 -15 -79 -77q-28 -46 -33 -80q-2 -18 -2 -97z"/>
            <glyph unicode="7" horiz-adv-x="1035"
                   d="M19 1193l149 434l73 -10l24 -49h759v-72l-464 -1498h-229l427 1344h-419q-92 0 -155 -56q-10 -9 -116 -136z"/>
            <glyph unicode="8" horiz-adv-x="1103"
                   d="M74 376q0 150 80 252q46 59 193 171q-133 111 -179 175q-77 106 -77 247q0 179 147 285q127 90 296 90q174 0 289 -74q140 -94 140 -273q0 -231 -295 -393q167 -123 230 -193q113 -131 113 -283q0 -141 -87 -244q-125 -149 -393 -149q-178 0 -309 94q-148 108 -148 295z M288 397q0 -132 75.5 -212.5t197.5 -80.5q100 0 166 56q70 62 70 169q0 103 -71 179q-56 57 -273 207q-165 -132 -165 -318zM296 1281q0 -185 251 -352q217 150 217 331q0 89 -56 150q-64 67 -185 67q-93 0 -155 -47q-72 -53 -72 -149z"/>
            <glyph unicode="9" horiz-adv-x="1106"
                   d="M75 131q0 42 24.5 76.5t66.5 34.5q39 0 134 -47t148 -47q97 0 173 181q30 68 88 276q-102 -48 -200 -51h-11q-209 0 -312 147q-92 131 -92 369v29q5 222 114 359q118 148 318 148q241 0 362 -187q105 -163 105 -442q0 -260 -64 -482q-82 -284 -246 -393 q-110 -71 -201 -94q-59 -12 -190 -12q-217 0 -217 135zM299 1086q0 -367 279 -367q49 0 101 29t73 77q31 69 31 219q0 389 -240 413q-16 1 -28 1q-216 0 -216 -372z"/>
            <glyph unicode=":" horiz-adv-x="784"
                   d="M278 106q0 63 45 108t109 45q63 0 107.5 -45t44.5 -108t-44.5 -107.5t-107.5 -44.5q-64 0 -109 44.5t-45 107.5zM278 930q0 64 45 109t109 45q63 0 107.5 -45t44.5 -109q0 -62 -44.5 -107t-107.5 -45q-64 0 -109 45t-45 107z"/>
            <glyph unicode=";" horiz-adv-x="702"
                   d="M127 91q-1 7 -1 15q0 62 47 101q48 41 122 41q104 0 165.5 -68.5t61.5 -175.5q0 -205 -316 -351l-47 77q93 58 130 104q45 58 53 149q10 -6 10 -7q-11 4 -41 7q-84 1 -118 14q-59 23 -66 94zM181 930q0 64 44.5 109t109.5 45q62 0 107 -45t45 -109q0 -62 -45 -107 t-107 -45q-65 0 -109.5 45t-44.5 107z"/>
            <glyph unicode="&#x3c;" horiz-adv-x="1222" d="M41 658v61l1173 510v-184l-851 -362l851 -350v-187z"/>
            <glyph unicode="=" horiz-adv-x="1440" d="M134 250v234h1185v-234h-1185zM134 854v234h1185v-234h-1185z"/>
            <glyph unicode="&#x3e;" horiz-adv-x="1192" d="M0 146v181l864 356l-864 357v189l1173 -514v-61z"/>
            <glyph unicode="?" horiz-adv-x="1329"
                   d="M335 1210q0 177 118 272q109 90 300 90q93 0 192 -44t161 -112q85 -96 85 -258q0 -77 -84 -186l-143 -160q-79 -85 -108 -216l-29 -227h-122v25q0 92 -12 233q-2 21 -2 38q0 111 68 220q19 32 125 165q68 83 68 133q0 286 -213 286q-55 0 -142 -51q-96 -55 -96 -105 q0 -3 66 -71t66 -122q0 -51 -51.5 -86t-105.5 -35q-141 0 -141 211zM596 84q0 76 54.5 131t131.5 55t132 -55t55 -131q0 -78 -55 -132.5t-132 -54.5t-131.5 54.5t-54.5 132.5z"/>
            <glyph unicode="@" horiz-adv-x="2028"
                   d="M92 673q0 138 36.5 265t102.5 238t164.5 213t216 164t247 95t269.5 33q177 0 324 -54t253.5 -156.5t165.5 -237.5t59 -298q0 -80 -19.5 -159.5t-55 -153t-87 -136.5t-117 -109t-143 -72t-165.5 -26q-52 0 -85 12t-55 34t-36 54t-28 74q-28 -58 -63.5 -92t-73.5 -50.5 t-77 -21.5t-73 -5q-54 0 -105.5 16t-92.5 54q-44 53 -63.5 114.5t-19.5 130.5q0 71 19.5 144t55 142t85 129.5t110 106t127.5 71.5t141 26q75 0 118 -39.5t43 -114.5q5 38 14 74t22 67h225l-95 -276l-66 -193q-27 -79 -41 -126l-23 -75q-8 -27 -9.5 -39.5t-1.5 -18.5 q0 -45 19.5 -65t51.5 -20q65 0 117 23.5t93 63.5t69.5 94.5t48 116.5t28 128t8.5 130q0 133 -44 241.5t-123.5 185.5t-192 119.5t-250.5 42.5q-106 0 -204.5 -31t-184.5 -87.5t-157.5 -135t-122 -174t-79 -204t-28.5 -224.5q0 -102 22.5 -197.5t64 -180.5t103 -156 t139.5 -122.5t171.5 -79.5t200.5 -28q169 0 305.5 51.5t257.5 150.5l60 -100l-16 -13q-56 -49 -122.5 -88.5t-144 -68t-164.5 -44.5t-183 -16q-128 0 -246 29t-231.5 84t-198 133t-145 176.5t-93 215t-32.5 246.5zM818 579q0 -31 3 -60t10.5 -51t20 -35.5t31.5 -13.5 q64 0 114 46t99 137l124 358q-14 78 -40 114t-76 36q-54 0 -96.5 -36.5t-75 -90t-55.5 -114t-37 -109.5q-9 -32 -15.5 -81.5t-6.5 -99.5z"/>
            <glyph unicode="[" horiz-adv-x="935" d="M213 -301v2034h413v-50h-252v-1933h252v-51h-413z"/>
            <glyph unicode="\" horiz-adv-x="785" d="M-9 1566h216l606 -1598h-217z"/>
            <glyph unicode="]" horiz-adv-x="1051" d="M308 -250h253v1933h-253v50h414v-2034h-414v51z"/>
            <glyph unicode="^" horiz-adv-x="1086" d="M212 1378l195 328h290l195 -328h-80l-260 210l-260 -210h-80z"/>
            <glyph unicode="_" horiz-adv-x="1225" d="M2 -199h1223v-138h-1223v138z"/>
            <glyph unicode="`" horiz-adv-x="999"
                   d="M222 1640q0 25 16 44.5t61 19.5q46 0 75.5 -20t46.5 -44.5t23.5 -45t6.5 -19.5l55 -410l-57 -1l-213 410q-14 34 -14 60v6z"/>
            <glyph unicode="{" horiz-adv-x="850"
                   d="M20 674q155 49 186 71q70 52 70 181v398q0 194 142 271q96 51 315 61l-20 -99q-249 -85 -249 -222v-378q0 -136 -11 -173q-27 -73 -131 -113q104 -41 131 -114q11 -39 11 -176v-375q0 -141 249 -223l20 -100q-218 12 -314 63q-143 75 -143 270v399q0 128 -67 179 q-28 22 -189 80z"/>
            <glyph unicode="|" horiz-adv-x="791" d="M360 -322v2035h128v-2035h-128z"/>
            <glyph unicode="}" horiz-adv-x="870"
                   d="M150 -317l21 100q246 82 246 223v375q0 136 14 176q25 74 129 115q-104 39 -129 112q-14 38 -14 173v378q0 140 -246 221l-21 100q116 -5 175 -14q102 -19 162 -59q120 -81 120 -259v-398q0 -130 66 -180q28 -20 189 -73q-161 -57 -189 -78q-66 -51 -66 -180v-399 q0 -195 -141 -270q-98 -51 -316 -63z"/>
            <glyph unicode="~" horiz-adv-x="1616"
                   d="M145 462q12 120 45.5 208t86.5 146q25 30 48.5 49t48.5 30t51.5 15.5t58.5 4.5q46 0 80 -5.5t63.5 -16.5t57 -26.5t59.5 -36.5l74 -45q40 -24 96 -53q75 -49 137 -70.5t112 -21.5q20 0 42.5 6.5t43.5 16.5t40 24.5t32 29.5q71 76 87 207h65q-12 -120 -55 -208.5 t-95 -147.5q-53 -58 -110 -77.5t-126 -19.5q-56 0 -103 13t-92.5 35.5t-95.5 54.5l-111 71q-171 109 -266 109q-86 0 -140 -77t-68 -215h-66z"/>
            <glyph unicode="&#xa0;"/>
            <glyph unicode="&#xa3;" horiz-adv-x="1147"
                   d="M66 119q0 39 14 71t38 54.5t57 35.5t73 13q36 0 87 -7q3 19 3 38v40q0 94 -21 349h-210v116h208q-6 76 -10 147.5t-4 136.5q0 289 204 414q94 58 201 58q109 0 190 -58q89 -62 89 -168q0 -18 -7.5 -35t-19 -31t-28 -22t-34.5 -8q-44 0 -71 45q-7 12 -11.5 33.5t-6.5 52.5 q-10 122 -125 122q-192 0 -192 -300q0 -151 13 -276q2 -11 4 -38t5 -73h280v-116h-278v-67q0 -185 -64 -384q19 -6 42 -21.5t57 -29.5t85 -22q27 -4 61 -4q30 0 65 3q23 2 43.5 6t43 11t48.5 19t62 31q9 5 22 14.5t26 21t23.5 23.5t12.5 21l28 5q-10 -75 -33.5 -136 t-58.5 -110q-91 -122 -226 -122q-95 0 -188 58q-32 16 -162 113q-86 -171 -202 -171q-30 0 -54.5 11.5t-42 31t-27 46.5t-9.5 58zM139 127q0 -80 64 -80q81 0 119 141q-45 29 -87 29q-96 0 -96 -90z"/>
            <glyph unicode="&#xa4;" horiz-adv-x="1152"
                   d="M11 1229l67 69l194 -182q65 55 142.5 82t166.5 27t163.5 -27t138.5 -82l188 176l69 -70l-188 -173q55 -73 82 -148.5t27 -155.5q0 -83 -27 -159.5t-82 -147.5l179 -178l-62 -61q13 -13 11 -15q-6 0 -21 6q-30 28 -73 72l-103 107q-73 -56 -145 -82.5t-146 -26.5 q-106 0 -185 26.5t-135 82.5l-178 -177l-70 68l180 178q-57 62 -83.5 138.5t-26.5 166.5q0 171 110 306zM194 739q0 -159 112 -272q111 -111 273 -111q158 0 272 111q115 115 115 276v9q0 70 -31 137q-32 71 -86.5 124.5t-125.5 84.5q-65 28 -131 28h-13q-164 0 -275 -113 q-110 -110 -110 -274z"/>
            <glyph unicode="&#xa5;" horiz-adv-x="1158"
                   d="M0 1450l2 30h482v-11q-18 -2 -39.5 -14t-43.5 -36l-10 -9q-31 -31 -31 -44q0 -7 4.5 -22.5t12.5 -39.5l229 -551l225 535q21 49 21 80q0 8 -6.5 18.5t-18.5 26.5q-13 17 -58 31l-7 2q-2 2 -6.5 2t-10.5 2l-18 30h384v-11q-25 0 -74 -47l-9 -9q-2 -3 -3 -5t-3 -4 q-49 -36 -92 -141l-230 -518l360 -2v-90l-399 2l-6 -11v-173l405 -4v-90l-405 2v-109q0 -62 2.5 -100.5t8.5 -54.5q16 -33 53 -43q11 -3 26 -8t35 -15l41 -38h15v-11h-566l12 28l27 24q9 8 13 10q8 7 21.5 10.5t29.5 3.5q20 0 49 7q25 21 34 58q2 6 3.5 38.5t1.5 90.5v109 l-408 -2v90l408 4v150l-15 34l-393 -2v90l354 2l-229 529q-51 117 -122 161q-24 15 -56 15z"/>
            <glyph unicode="&#xad;" horiz-adv-x="1114" d="M98 565v213h916v-213h-916z"/>
            <glyph unicode="&#xb2;" horiz-adv-x="1133"
                   d="M38 0v70l255 285q191 218 298 384q142 226 142 375q0 134 -90 218q-84 75 -211 75q-55 0 -88 -60l-62 -164q-50 -99 -115 -99q-119 0 -119 108q0 125 184 270q174 137 291 137q175 0 295 -119q124 -123 124 -313q0 -173 -99 -358q-77 -140 -226 -313l-242 -269h418 q73 0 111 38q20 21 76 111h81l-100 -376h-923z"/>
            <glyph unicode="&#xb3;" horiz-adv-x="1066"
                   d="M20 1253q10 92 131 208q148 139 360 139q191 0 299 -131q74 -91 74 -202q0 -185 -227 -369q138 -59 205 -127q92 -95 96 -240v-15q0 -236 -179 -383q-175 -146 -448 -146q-270 0 -270 126q0 58 44 97q41 35 96 35q59 0 165.5 -42t162.5 -42q105 0 166 87q55 78 55 197 q0 79 -44 157t-108 113q-86 46 -213 46q-13 0 -57 1q-34 2 -56 0v74q411 144 411 366q0 98 -115 165q-96 55 -196 55q-59 0 -77 -45q-10 -23 -44 -130q-44 -93 -138 -93q-83 0 -93 99z"/>
            <glyph unicode="&#xb9;" horiz-adv-x="804"
                   d="M113 -2v106q134 5 146 10q61 22 61 123v999q0 75 -49 75q-10 0 -153 -62v135l405 247v-1437q0 -56 20 -70q30 -19 187 -21v-105h-617z"/>
            <glyph unicode="&#xd7;" horiz-adv-x="1364"
                   d="M241 342l345 342l-345 344l121 122l342 -345l345 345l120 -122l-344 -342l344 -344l-120 -121l-343 344l-342 -344z"/>
            <glyph unicode="&#xf7;" horiz-adv-x="1239"
                   d="M51 599v181h1161v-181h-1161zM505 258q0 53 35.5 91t89.5 38t93 -38t39 -91q0 -55 -39 -89t-93 -34q-56 0 -90.5 33t-34.5 90zM505 1113q0 54 35.5 92t89.5 38t93 -38t39 -92q0 -55 -38 -90.5t-94 -35.5q-54 0 -89.5 36.5t-35.5 89.5z"/>
            <glyph unicode="&#x2c6;" horiz-adv-x="1086" d="M212 1378l195 328h290l195 -328h-80l-260 210l-260 -210h-80z"/>
            <glyph unicode="&#x2dc;" horiz-adv-x="919"
                   d="M88 1078q6 68 26 116.5t48 82.5q14 16 27 27t27 17t28.5 8t32.5 2q26 0 45 -3t35.5 -9t32.5 -15t34 -20.5l40 -24.5l53 -30q43 -27 77 -39t61 -12q12 0 24.5 3t25 9t22.5 14.5t18 16.5q39 42 48 115h37q-7 -67 -31 -116t-53 -82q-29 -32 -61 -43t-70 -11q-32 0 -58 7 t-51.5 20t-53.5 30t-61 40q-97 60 -150 60q-48 0 -77 -43t-40 -120h-36z"/>
            <glyph unicode="&#x2013;" horiz-adv-x="1012" d="M46 571v205h937v-205h-937z"/>
            <glyph unicode="&#x2014;" horiz-adv-x="1723" d="M-7 569v209h1764v-209h-1764z"/>
            <glyph unicode="&#x2018;" horiz-adv-x="582"
                   d="M119 1165q0 245 278 348l4 -10q-51 -33 -145 -166q-27 -42 -27 -96q0 -61 35 -61q11 0 28 6q30 12 47 12q23 0 44 -9.5t36.5 -26.5t24 -37.5t8.5 -45.5q0 -61 -41 -96t-102 -35q-82 0 -139 69q-24 32 -37.5 69t-13.5 79z"/>
            <glyph unicode="&#x2019;" horiz-adv-x="614"
                   d="M170 1384q0 60 41.5 94.5t103.5 34.5q81 0 137 -69q24 -31 37.5 -67.5t13.5 -78.5q0 -130 -94 -234q-32 -35 -80.5 -64.5t-111.5 -53.5l4 35q38 22 74 58.5t71 88.5q27 38 27 94q0 61 -33 61q-11 0 -30 -7q-13 -6 -25 -8.5t-21 -2.5q-24 0 -44.5 9.5t-36 26t-24.5 38 t-9 45.5z"/>
            <glyph unicode="&#x201c;" horiz-adv-x="1068"
                   d="M74 1171q0 125 84 219q40 42 90 73.5t112 52.5l15 -25q-41 -22 -78 -54t-72 -78q-39 -50 -39 -114q0 -61 29 -61q6 0 17.5 2.5t22.5 5.5l22 6q11 3 18 3q23 0 45 -9.5t37.5 -25.5t24.5 -38t9 -47q0 -29 -11 -52.5t-31 -41t-45.5 -26.5t-55.5 -9q-83 0 -141 70 q-53 63 -53 149zM591 1169q0 259 324 354q-43 -25 -74.5 -50t-54.5 -51l-25 -31q-15 -18 -29 -41t-23 -50.5t-9 -61.5q0 -56 31 -56q5 0 16.5 2.5t23 6.5t23.5 7t19 3q24 0 45 -9.5t37 -24.5t25.5 -36t9.5 -45q0 -29 -12 -54t-33 -43.5t-48 -28.5t-57 -10q-81 0 -138 69 q-51 65 -51 150z"/>
            <glyph unicode="&#x201d;" horiz-adv-x="1030"
                   d="M135 1394q0 31 11 55t31 41.5t46 26t56 8.5q83 0 141 -68q53 -64 53 -149q0 -126 -98 -233q-62 -68 -193 -118l4 35q76 43 147 147q29 40 29 94q0 61 -36 61q-5 0 -29 -6q-13 -6 -24.5 -9t-22.5 -3q-25 0 -45.5 9.5t-36 26t-24.5 38.5t-9 44zM586 1394q0 58 44 97 q41 34 103 34q81 0 139 -68q53 -66 53 -149q0 -129 -96 -233q-62 -68 -194 -118l5 35q76 43 146 147q27 37 27 94q0 61 -33 61q-9 0 -31 -6q-13 -6 -24 -9t-23 -3q-25 0 -46 9.5t-36 26t-24.5 38.5t-9.5 44z"/>
            <glyph unicode="&#x2022;" horiz-adv-x="946" d="M105 666l379 379l382 -379l-382 -380z"/>
            <glyph unicode="&#x2026;" horiz-adv-x="2232"
                   d="M260 -130q0 134 127 134q56 0 90.5 -39t34.5 -95q0 -54 -36 -89t-89 -35q-54 0 -90.5 35t-36.5 89zM1030 -130q0 134 128 134q54 0 92 -40.5t38 -93.5q0 -52 -39 -88t-91 -36q-53 0 -90.5 35t-37.5 89zM1802 -130q0 56 36.5 95t92.5 39t91.5 -38t35.5 -96 q0 -52 -37.5 -88t-89.5 -36q-54 0 -91.5 35t-37.5 89z"/>
            <glyph unicode="&#x2039;" horiz-adv-x="1222" d="M41 658v61l1173 510v-184l-851 -362l851 -350v-187z"/>
            <glyph unicode="&#x203a;" horiz-adv-x="1192" d="M0 146v181l864 356l-864 357v189l1173 -514v-61z"/>
            <glyph unicode="&#x20ac;" horiz-adv-x="1324"
                   d="M109 552l26 121h103v154h-129l26 122h115q19 128 80.5 230t151 172.5t202 108t235.5 37.5q91 0 163 -11t144 -34l-33 -109q-23 15 -55 25t-69.5 17t-76.5 10.5t-76 3.5q-90 0 -167.5 -37.5t-138 -100.5t-102 -144.5t-57.5 -167.5h672l-29 -122h-658v-154h634l-29 -121 h-590v-3q16 -87 57.5 -168.5t102 -144.5t138 -100.5t167.5 -37.5q37 0 76 3.5t76.5 10.5t69.5 17.5t55 24.5l33 -109q-72 -23 -144 -34t-163 -11q-123 0 -235.5 36t-202 105.5t-151 169.5t-80.5 230l-1 11h-140z"/>
            <glyph unicode="&#xe000;" horiz-adv-x="500" d="M0 0v0v0v0v0z"/>
        </font>
</defs>
</svg>
