<?xml version="1.0" standalone="no"?>
<!DOCTYPE svg PUBLIC "-//W3C//DTD SVG 1.1//EN" "http://www.w3.org/Graphics/SVG/1.1/DTD/svg11.dtd" >
<svg xmlns="http://www.w3.org/2000/svg">
    <metadata>
        This is a custom SVG webfont generated by Font Squirrel.
        Copyright : Copyright Copyright 2008 Paul Alan Grosse All rights reserved Released under the GPL
        Designer : Paul Alan Grosse
        Foundry : Paul Alan Grosse
    </metadata>
    <defs>
        <font id="webfont0hRui4VC" horiz-adv-x="1200">
            <font-face units-per-em="2048" ascent="1638" descent="-410"/>
            <missing-glyph horiz-adv-x="1024"/>
            <glyph horiz-adv-x="0"/>
            <glyph horiz-adv-x="0"/>
            <glyph horiz-adv-x="1024"/>
            <glyph unicode=" " horiz-adv-x="1024"/>
            <glyph unicode="&#x09;" horiz-adv-x="1024"/>
            <glyph unicode="&#xa0;" horiz-adv-x="1024"/>
            <glyph unicode="!"
                   d="M1205 1280q33 0 56.5 -23.5t23.5 -56.5t-23.5 -56.5t-56.5 -23.5h-509q19 -144 13 -241q171 -14 263 -106q122 -121 108 -342q-28 -447 -273 -509q-32 -8 -60.5 9t-36.5 49.5t9 61t50 36.5q131 32 151 363q9 149 -58 216.5t-229 63.5q4 1 -32 -1q-125 -7 -195 -77 q-91 -91 -102 -284.5t31 -255.5l8 -9q18 -18 52 -14.5t59.5 -17.5t29 -54t-17.5 -58.5t-54 -29.5q-137 -13 -209.5 94t-58 358t148.5 384q100 100 256 120q8 86 -14 244h-535q-33 0 -56.5 23.5t-23.5 56.5t23.5 56.5t56.5 23.5h1205zM331 1338q-123 287 17 426q89 89 275 96 q82 3 143 -28q203 -105 116 -474q-8 -33 -36 -50t-60.5 -9.5t-49.5 35.5t-10 60q59 248 -27 292q-39 20 -122 9t-119 -47q-62 -61 19 -246q14 -30 1.5 -61t-42.5 -44.5t-61 -1t-44 42.5zM1152 -701q-42 -64 -124 -97q-172 -70 -516 -67.5t-455 118.5q-66 70 -48 123 q10 32 40 46.5t61.5 4t45.5 -40.5q44 -89 310 -91q490 -4 551 91q18 28 50.5 35t60.5 -11t35 -50.5t-11 -60.5zM1168 -325q-42 -64 -124 -97q-172 -70 -516 -67.5t-455 118.5q-66 70 -48 123q10 32 40 46.5t61.5 4t45.5 -40.5q44 -89 310 -91q490 -4 551 91q18 28 50.5 35 t60.5 -11t35 -50.5t-11 -60.5z"/>
            <glyph unicode="&#x22;"
                   d="M880 1000q0 -33 -23.5 -56.5t-56.5 -23.5t-56.5 23.5t-23.5 56.5v400q0 33 23.5 56.5t56.5 23.5t56.5 -23.5t23.5 -56.5v-400zM480 1000q0 -33 -23.5 -56.5t-56.5 -23.5t-56.5 23.5t-23.5 56.5v400q0 33 23.5 56.5t56.5 23.5t56.5 -23.5t23.5 -56.5v-400z"/>
            <glyph unicode="#"
                   d="M734 341q-122 8 -238 10q-4 -190 -16 -357q-3 -33 -28 -54.5t-58 -19t-54.5 27.5t-19.5 58q12 160 16 342q-72 -7 -103 -21t-62 -2t-44.5 42.5t-1.5 61.5t55 50t158 27q1 108 -1 224q-70 -4 -116 -8.5t-71.5 16.5t-29 54t17.5 58.5t70 30.5t125 9q-4 147 -12 306 q-2 33 20 57.5t55 26.5t58 -20.5t26 -55.5q9 -160 13 -310q110 1 238 -3q-3 147 -10 305q-2 34 20.5 58t55.5 25.5t57.5 -20.5t25.5 -55q8 -166 12 -319q55 -2 100 -4.5t67.5 -27t20.5 -57.5t-26.5 -55.5t-67 -20t-91.5 4.5q2 -122 1 -235l99.5 -9.5t66.5 -30t17.5 -58.5 t-29 -54t-67 -17t-89.5 8q-4 -180 -14 -334q-2 -33 -27 -55t-58 -20t-55 27t-20 58q11 155 14 336zM498 512q101 0 238 -10q1 110 -1 229q-129 4 -238 3q2 -115 1 -222z"/>
            <glyph unicode="$"
                   d="M605 131q-3 -71 -6 -120t-28 -71t-58 -20t-55 27t-19.5 67.5t5.5 98.5q-53 1 -129.5 10t-120.5 53t-51 88t12.5 71t52.5 32t59.5 -14.5t31.5 -50t151 -28.5q6 202 5 449q-262 61 -325 221q-45 115 24 273q61 139 290 178l-6 202q-1 33 21.5 57.5t55.5 25.5t57.5 -21.5 t25.5 -55.5l6 -196q163 -4 264 -84q26 -21 30 -53.5t-16.5 -58.5t-53 -30t-58.5 16q-57 45 -162 49q5 -206 6 -389q129 -17 207 -95q105 -105 105 -308q0 -174 -224 -287q-45 -22 -97 -36zM615 695q0 -214 -4 -393q68 26 111.5 69.5t43.5 82.5q0 137 -58 195q-34 34 -93 46z M454 888q-2 164 -6 345q-122 -23 -150 -86q-53 -122 8 -184q47 -47 148 -75z"/>
            <glyph unicode="%"
                   d="M1088 1107v-22q-8 -130 -188 -309l-446 -420q-155 -146 -181 -227q-4 -13 -3 -21l10 -100q3 -33 -18 -58.5t-54 -29t-58.5 17.5t-29.5 54l-10 100q-9 98 82 216l45 55q23 27 39 42l511 484q140 140 141 206l-7 99q-3 33 18.5 58t54.5 27.5t58.5 -19t27.5 -54.5zM198 778 q-78 79 -78 208t91.5 221t252.5 69q81 -12 135 -66q83 -82 83 -208t-86 -196q-109 -88 -191.5 -86t-129 15t-77.5 43zM316 1085q-36 -36 -36 -97.5t32 -96.5l-1 1q104 -41 178 33q33 33 33 85t-29 80.5t-85 29.5t-92 -35zM602 398q82 82 203.5 82t200.5 -79t79 -195.5 t-85.5 -201.5t-199.5 -84q-160 2 -220 84.5t-60 197t82 196.5zM715 285q-35 -35 -35 -91q0 -89 49 -105q25 -8 72.5 -9t85.5 37t38 88.5t-32 82.5t-87.5 32t-90.5 -35z"/>
            <glyph unicode="&#x26;"
                   d="M141 -78q34 -48 37.5 -68t1.5 -40q-4 -44 -13 -59q-12 -22 -23 -34q-52 -34 -67 -37l-35 -5q-54 5 -72 16q-37 22 -61 70q-11 22 -11 56q8 65 34 96q39 46 108 46q57 -8 80 -23zM1205 1280q33 0 56.5 -23.5t23.5 -56.5t-23.5 -56.5t-56.5 -23.5h-134q51 -227 -8 -317 q-14 -21 -46 -43q-70 -47 -370 -60q-323 -14 -367 -358q-27 -207 19 -252q10 -10 88 -12q30 229 137 336q78 78 227 93t248 -76q81 -74 71 -218q-2 -27 -8.5 -75.5t-57.5 -99.5q-138 -138 -683 -118q-126 5 -179 121q-35 77 -32.5 164t11.5 154q30 230 160.5 360.5 t362 140.5t286.5 35q17 68 -23 225h-907q-33 0 -56.5 23.5t-23.5 56.5t23.5 56.5t56.5 23.5h1205zM549 79q110 4 193 19q156 27 163 75q17 125 -29 153t-123.5 20.5t-115.5 -45.5q-65 -65 -88 -222z"/>
            <glyph unicode="'" horiz-adv-x="1000"
                   d="M480 1000q0 -33 -23.5 -56.5t-56.5 -23.5t-56.5 23.5t-23.5 56.5v400q0 33 23.5 56.5t56.5 23.5t56.5 -23.5t23.5 -56.5v-400z"/>
            <glyph unicode="(" horiz-adv-x="1000"
                   d="M638 -352q-488 217 -461 1154q11 412 211 611q125 125 316 164q33 6 60.5 -12t34 -50.5t-12 -60t-50.5 -34.5q-144 -29 -235 -120q-155 -155 -165 -502q-23 -830 367 -1004q30 -13 42 -44t-1.5 -61.5t-44.5 -42.5t-61 2z"/>
            <glyph unicode=")" horiz-adv-x="1000"
                   d="M464 1555q128 -89 178 -363.5t38 -752.5q-16 -587 -272 -711q-29 -14 -60.5 -3.5t-46 40.5t-3.5 61t37 44q172 84 185 587q16 615 -77 859q-31 80 -64.5 103.5t-39 56t13.5 60t51.5 33t59.5 -13.5z"/>
            <glyph unicode="*"
                   d="M591 222q-7 -32 -34.5 -50.5t-60 -11.5t-50.5 35t-11 60q25 117 41 217l-174 -134q-26 -21 -59 -17.5t-53.5 29.5t-17 59t29.5 53q118 95 219 167q-114 46 -262 95q-31 10 -46 40t-4.5 61.5t40 46t61.5 4.5q167 -56 298 -111q4 145 -29 195q-15 24 -8 56.5t34.5 50.5 t60.5 11q80 -17 99 -194q4 -43 4 -98q145 75 246 60q25 -4 45 -30.5t15 -59.5t-32 -52.5t-45 -16.5q-56 8 -151 -40q154 -92 201 -182q16 -30 6 -61.5t-39.5 -47t-61 -5.5t-44.5 34q-34 65 -163 139q-19 -135 -55 -302z"/>
            <glyph unicode="+" horiz-adv-x="0"
                   d="M-1023 1368q-123 287 17 426q89 89 275 96q82 3 143 -28q203 -105 116 -474q-8 -33 -36 -50t-60.5 -9.5t-49.5 35.5t-10 60q59 248 -27 292q-39 20 -122 9t-119 -47q-62 -61 19 -246q14 -30 1.5 -61t-42.5 -44.5t-61 -1t-44 42.5z"/>
            <glyph unicode="," horiz-adv-x="700"
                   d="M101 -99q-34 46 -37.5 65.5t-0.5 43.5q6 57 38 89q46 34 65.5 37.5t43.5 0.5q57 -6 89 -38q34 -46 37.5 -65.5t3.5 -33.5v-56q-4 -138 -92 -204q-26 -20 -59 -15t-53 31q-41 55 16 112q-18 4 -29.5 13.5t-21.5 19.5z"/>
            <glyph unicode="-" horiz-adv-x="0"
                   d="M-133 -292q-41 -63 -123 -97q-173 -70 -516.5 -67t-454.5 119q-67 69 -49 123q11 31 40.5 45.5t61 4t46.5 -40.5q44 -89 309 -91q490 -4 552 92q18 27 50.5 34t60 -11t34.5 -50.5t-11 -60.5z"/>
            <glyph unicode="." horiz-adv-x="400"
                   d="M299 100q34 -48 37.5 -68t1.5 -40q-4 -44 -13 -59q-13 -22 -23 -33q-52 -35 -67 -38l-35 -5q-54 5 -73 16q-36 22 -60 70q-11 22 -11 56q8 65 34 96q39 46 108 46q57 -8 79 -23z"/>
            <glyph unicode="/"
                   d="M1088 1107q1 0 0 -22q-4 -125 -188 -309l-446 -420q-155 -146 -181 -227q-4 -13 -3 -21l10 -100q3 -33 -18 -58.5t-54 -29t-58.5 17.5t-29.5 54l-10 100q-9 98 82 216l45 55q23 27 38.5 42l28 27.5l40.5 39.5l443 417q140 140 141 206l-7 99q-3 33 18.5 58t54.5 27.5 t58.5 -19t27.5 -54.5z"/>
            <glyph unicode="0" horiz-adv-x="1600"
                   d="M322 89q-202 202 -202 499q0 197 91 354t247 247.5t338 90.5q259 0 353 -55q190 -112 256.5 -267t66.5 -348t-95 -330q-148 -214 -241 -268q-155 -92 -362 -92t-315 63q-76 45 -137 106zM435 202q47 -47 111 -84.5t227 -37.5q219 0 328 108q57 58 134 168.5t77 262 t-58 286.5q-41 97 -184 181q-58 34 -273 34t-366 -151t-151 -381.5t155 -385.5z"/>
            <glyph unicode="1" horiz-adv-x="1600"
                   d="M1115 830q3 94 8 160t-19 90q-58 59 -262.5 41t-289.5 -104q-62 -61 -72 -159.5t29 -137.5q53 -53 213 -40q349 27 393 150zM1279 917q10 -58 -5 -115q-6 -244 10 -558q9 -170 43 -188q34 0 57.5 -23.5t23.5 -56.5t-23.5 -56.5t-60 -23.5t-54 9t-57.5 39 q-78 78 -88.5 286.5t-11.5 380.5q-134 -71 -373 -90t-338 80t-82 263q39 375 516 417q271 25 382 -88q75 -77 66 -199q-3 -37 -5 -77z"/>
            <glyph unicode="2" horiz-adv-x="1600"
                   d="M322 1082q10 29 21.5 56t65.5 62q124 80 455 80q206 0 313 -107q136 -135 103.5 -406.5t-332.5 -403.5q308 -140 332 -354q3 -33 -17.5 -59t-53.5 -29.5t-59 17t-31 67t-60 100.5q-99 100 -349 176q-207 -61 -270.5 -59t-90.5 29q-7 7 -18 32t-11 35q7 50 13 70.5 t27 40.5t34 27q87 53 278 2l38 -10l92 30q294 97 318.5 299t-55.5 282q-61 61 -201 61q-332 0 -383 -67q-2 -3 -3 -5q-7 -32 -34.5 -50t-60 -11t-50.5 34.5t-11 60.5z"/>
            <glyph unicode="3" horiz-adv-x="1600"
                   d="M1016 246q189 -83 238 -149q28 -38 25 -59.5t-1 -37.5q-6 -32 -34 -50.5t-60 -12t-47 29t-17 41.5q-57 61 -382 174q-331 -56 -399 24q-6 7 -14 24q-26 57 14 115q81 115 364 19l50 -17q131 23 231 56.5t115 60.5q61 113 32.5 141.5t-164.5 48.5q-50 -13 -106 -18 q-206 -21 -379 1q-31 3 -50 24.5t-20 52t17 53t48 28.5q252 47 475 22q70 22 109 60q67 68 71 149q1 30 -23.5 54.5t-104.5 41.5q-271 55 -573 -72q-31 -13 -61.5 -0.5t-43.5 43.5t-0.5 61.5t43.5 43.5q348 146 667 80q127 -26 193 -92q93 -93 47 -250q-28 -98 -100 -170 q40 -19 68 -46q115 -115 -7 -336q-43 -79 -189 -128z"/>
            <glyph unicode="4" horiz-adv-x="1600"
                   d="M1180 1186q140 -140 82 -408q-24 -112 -104 -187q142 -85 122 -286q-36 -370 -489 -389q-271 -12 -387.5 104.5t-82.5 325.5q24 146 140 217q-95 102 -100 269q-7 240 112 359q60 60 146 86q32 9 61 -6.5t38.5 -47.5t-6 -61t-55.5 -41q-143 -43 -136 -285q3 -110 58 -165 t197 -48q292 13 331 192q53 245 -115 306q-42 15 -56 45t-3 61t41 45t61 3q87 -31 145 -89zM906 474q-81 -13 -130 -13l-57 1q-143 2 -200 -55q-31 -31 -40 -87q-21 -128 34 -183q70 -70 266.5 -61.5t277.5 89.5q54 54 63 147t-32.5 134.5t-181.5 27.5z"/>
            <glyph unicode="5" horiz-adv-x="1600"
                   d="M1240 3q-8 -32 -37 -48.5t-61 -8t-48.5 37.5t-7.5 61q35 131 42 381q-68 -37 -167 -70q-269 -90 -533 9q-98 37 -119 164q-7 41 -9 110q-5 146 110 227q21 14 52 14t47 14t11 89q-9 127 -105 137q-33 4 -53.5 30t-17 59t29.5 53.5t59 17.5q97 -11 167 -81.5t79.5 -212 t-51 -199.5t-142.5 -66q-28 -30 -26 -80q-2 -3 2 -61t22 -65q211 -79 427 -7q153 51 201 99q10 9 11.5 16t5.5 15q-3 239 -25 557q-2 33 19.5 58t55 27t58.5 -19.5t27 -55.5q61 -889 -24 -1202z"/>
            <glyph unicode="6" horiz-adv-x="1600"
                   d="M728 -92q-273 46 -342 119q-96 102 -69 256t110 247q-123 92 -98 280q31 241 150.5 360.5t290.5 128.5l71 4q-1 48 3 103q15 66 35.5 92.5t54.5 60.5t93.5 70.5t90.5 43.5q86 20 145 -56q20 -26 16 -58.5t-30 -53t-56.5 -17t-49.5 23.5h-1q-95 -58 -128 -101 q-10 -13 -10 -17q-4 -51 -3 -93q153 -8 198 -72q52 -76 63 -107q28 -80 -23 -132q-2 -1 -12 -9q-53 -44 -178 -20q-138 27 -185 183q-35 -1 -75 -4q-121 -7 -199 -85.5t-103 -264.5q-11 -87 28 -126q18 -19 55 -30q185 83 500 41q121 -16 150 -45q2 -2 5.5 -54.5t-3.5 -63.5 q-3 -1 -20.5 -12.5t-35.5 -17.5t-220.5 -26t-353.5 7q-91 -61 -110.5 -172t17.5 -151q17 -19 101 -41q207 -57 338.5 -48.5t180.5 58.5q24 23 57 23t56.5 -23.5t23.5 -56.5t-23 -57q-109 -108 -312 -104q-98 1 -193 17zM1082 1118q-12 26 -38 20q12 -26 38 -20z"/>
            <glyph unicode="7" horiz-adv-x="1700"
                   d="M598 1194q70 70 188 85q284 37 430 -108q89 -90 119 -244q92 -486 -359 -827q-171 -129 -351 -140.5t-353 91.5q-29 16 -37.5 48t8 61t48.5 37.5t75 -16.5q99 -57 221 -63q190 -8 403 205q249 249 187 574q-20 106 -74 161q-90 90 -297 63q-63 -9 -94 -39 q-64 -65 -14 -262q8 -33 -9 -61t-49.5 -36.5t-60.5 8.5t-37 49q-72 286 56 414z"/>
            <glyph unicode="8" horiz-adv-x="1600"
                   d="M398 921q-168 31 -233.5 116.5t-45.5 186.5q51 256 373 256q81 0 122 -42.5t61.5 -105.5t4.5 -218q-27 -438 -60 -797q-22 -232 109 -237q555 -8 594 33q9 32 37.5 48.5t60.5 7.5t48.5 -37.5t7.5 -61.5q-17 -62 -91 -97q-158 -75 -667 -53q-103 5 -174 75 q-106 106 -85 336q55 594 60 791q0 4 1 9q20 149 -12 185q-4 4 -17 4q-209 0 -216 -136q-2 -26 5 -35q35 -50 145 -70q369 -68 961 0q33 4 59 -16.5t29.5 -53.5t-17 -59t-53.5 -29q-615 -72 -1007 0z"/>
            <glyph unicode="9" horiz-adv-x="1600"
                   d="M1319 1473q-98 16 -147.5 -34t-60.5 -173t27 -161t117 -39q64 6 114.5 11.5t75.5 -13t30 -52t-13 -59.5q-32 -45 -189 -47q-339 -32 -608 -16q-21 -308 -45 -573q-22 -232 109 -237q499 -20 597 42q10 26 36.5 41t58.5 6t48.5 -37.5t7.5 -61.5q-17 -62 -91 -97 q-158 -75 -667 -53q-103 5 -174 75q-106 106 -85 336q33 359 48 573q-57 7 -110 17q-168 31 -233.5 116.5t-45.5 186.5q51 256 373 256q81 0 122 -42.5t61.5 -105.5t4.5 -218l-4 -64q143 -9 309 -2q-47 87 -34 224q17 189 116 288.5t278 70.5q33 -5 52 -32t14 -60t-32 -52 t-60 -14zM518 1064l3 67q20 149 -12 185q-4 4 -17 4q-209 0 -216 -136q-2 -26 5 -35q35 -50 145 -70q45 -8 92 -15z"/>
            <glyph unicode=":" horiz-adv-x="600"
                   d="M299 693q34 -48 37.5 -68t1.5 -41q-4 -44 -13 -59q-13 -21 -23 -33q-52 -35 -67 -38l-35 -4q-54 5 -73 16q-36 22 -60 70q-11 21 -11 55q8 66 34 96q39 47 108 47q57 -9 79 -24zM299 100q34 -48 37.5 -68t1.5 -40q-4 -44 -13 -59q-13 -22 -23 -33q-52 -35 -67 -38l-35 -5 q-54 5 -73 16q-36 22 -60 70q-11 22 -11 56q8 65 34 96q39 46 108 46q57 -8 79 -23z"/>
            <glyph unicode=";" horiz-adv-x="600"
                   d="M101 -99q-34 46 -37.5 65.5t-0.5 43.5q6 57 38 89q46 34 65.5 37.5t43.5 0.5q57 -6 89 -38q34 -46 37.5 -65.5t3.5 -33.5v-56q-4 -138 -92 -204q-26 -20 -59 -15t-53 31q-41 55 16 112q-18 4 -29.5 13.5t-21.5 19.5zM299 692q34 -48 37.5 -68t1.5 -41q-4 -44 -13 -59 q-12 -21 -23 -33q-52 -35 -67 -38l-35 -4q-54 5 -72 16q-37 22 -61 70q-11 21 -11 55q8 66 34 96q39 47 108 47q57 -9 80 -24z"/>
            <glyph unicode="&#x3c;" horiz-adv-x="3900"
                   d="M1795 1206q69 -22 101 -55q62 -64 77 -134q45 -213 -159 -350q71 -38 121.5 -106.5t54 -168.5t-85.5 -236q-117 -179 -468 -81q-439 122 -457 778q-14 464 192 669q127 128 322.5 157.5t295.5 20.5q203 779 793 1013t909 -85q261 -261 307 -912q3 -33 -19 -58t-55 -27.5 t-58 19t-27 54.5q-57 797 -444 926q-212 70 -549 -63q-548 -217 -721 -985q8 -27 -6 -52.5t-42 -33.5t-52.5 5.5t-32.5 37.5q-57 15 -275 -18q-288 -44 -357 -363q435 114 635 48zM703 946q-25 138 -105.5 179.5t-149.5 24.5t-143.5 -98t-89 -126t-12.5 -56q6 -26 48 -49 q212 -116 434 106zM712 737q-266 -207 -538 -57q-44 25 -57.5 40t-20.5 21t-15 18l-16 25q-44 72 -9.5 172t136.5 210l18 18q215 215 458 87q273 -145 184 -723q-55 -356 -12 -499l143 -109q26 -20 30.5 -53t-15.5 -59t-53 -30.5t-59 15.5l-162 123q-17 14 -25 34 q-71 175 -7 591q15 96 20 176zM1139 986q-7 -158 15 -305l258 3q84 15 170 47q268 97 234 252q-12 56 -85 76q-172 46 -592 -73zM1196 510q40 -113 109 -181q104 -104 319 -127q111 -12 149 46t49.5 107.5t0.5 77.5q-18 52 -88 95l-307 -4q-118 -21 -232 -14z"/>
            <glyph unicode="=" horiz-adv-x="0"
                   d="M-149 -668q-41 -63 -123 -97q-173 -70 -516.5 -67t-454.5 119q-67 69 -49 123q11 31 40.5 45.5t61 4t46.5 -40.5q44 -89 309 -91q490 -4 552 92q18 27 50.5 34t60 -11t34.5 -50.5t-11 -60.5zM-133 -292q-41 -63 -123 -97q-173 -70 -516.5 -67t-454.5 119q-67 69 -49 123 q11 31 40.5 45.5t61 4t46.5 -40.5q44 -89 309 -91q490 -4 552 92q18 27 50.5 34t60 -11t34.5 -50.5t-11 -60.5z"/>
            <glyph unicode="&#x3e;" horiz-adv-x="3600"
                   d="M2430 1310q344 -38 451 -237q149 -290 -183 -471q190 -141 168 -297q-18 -113 -115 -202q-435 -408 -685 -157q-52 51 -93 145q-429 975 -56 1552q183 285 429 263q160 -14 333 -169l14 99q6 37 40 58q63 38 153.5 80.5t181.5 37.5q129 -9 192 -120 q191 -338 171.5 -1108.5t-475.5 -1292.5q-332 -380 -1109 -388q-633 -7 -1051 312q-68 52 -102 83l-72 69q-573 573 -466 1641q56 552 604 1100l30 30q339 330 1055 336q936 8 1174 -231q80 -79 90 -184q3 -33 -18.5 -58.5t-54.5 -28.5t-58.5 18t-29 61t-42.5 79 q-86 87 -343.5 137.5t-715.5 46.5q-652 -5 -945 -291l-29 -28q-508 -508 -557 -1003q-100 -992 420 -1513q137 -137 289.5 -224.5t290.5 -123.5q267 -71 529 -68q706 7 991 334q418 478 436 1197.5t-151 1018.5q-52 92 -275 -38l-32 -219q-8 -51 -57 -65.5t-80 21.5 q-114 128 -210 186q-234 141 -416 -141q-74 -115 -111 -251q282 26 490 4zM1342 846q-4 123 -72 191t-234.5 85.5t-238 -54t-71.5 -223.5q0 -83 39 -122q72 -72 263.5 -47t262.5 96q32 32 51 74zM1465 1028q64 -15 60 -101q-2 -52 -23 -112q0 -20 -2 -41q-23 -351 20 -619 l108 -95q25 -22 27 -55t-19.5 -58t-54.5 -27t-58 20l-130 114q-21 18 -26 46q-40 225 -34 504q-102 -63 -260 -83q-294 -39 -421 89q-86 86 -86 235q0 219 113 332q131 130 392 103q301 -33 394 -252zM1910 1143q-22 -209 32 -459q394 65 578 15q48 16 89 37q166 86 156 188 q-17 175 -328 223q-196 31 -527 -4zM1986 511q51 -169 133 -355q46 -105 111 -135q144 -58 422 208q94 94 24 176l-22 25q-49 49 -140 101q-220 -57 -528 -20z"/>
            <glyph unicode="?"
                   d="M699 100q34 -48 37.5 -68t1.5 -41q-4 -44 -13 -59q-12 -21 -23 -33q-52 -35 -67 -38l-35 -4q-54 5 -72 16q-37 22 -61 70q-11 21 -11 55q8 66 34 96q39 47 108 47q57 -9 80 -24zM876 1462q90 -90 95 -260q11 -371 -260 -477q-38 -14 -60 -36q-64 -65 -33 -223 q6 -32 -12.5 -59.5t-51 -34t-60 12t-34.5 51.5q-46 242 78 366q46 46 104 68.5t91 55.5q84 83 78 272q-4 145 -90 176q-111 41 -352 -49q-31 -12 -61 2t-42 45t2 61t45 42q401 149 563 -13z"/>
            <glyph unicode="@" horiz-adv-x="0"
                   d="M38 -485q8 -32 -9 -60.5t-49.5 -36.5t-61 9t-35.5 47q-38 152 -467 64q-32 -7 -60 11t-34.5 50.5t11.5 60.5t51 34q579 120 654 -179z"/>
            <glyph unicode="A" horiz-adv-x="1800"
                   d="M347 1280q162 -3 265 -105q81 -81 99 -238q393 37 558 -128q84 -84 105 -214h146v566q0 11 11.5 38.5t19.5 35.5l33 23q32 21 130 22h86q33 1 56.5 -22.5t23.5 -56.5t-23 -56.5t-57 -24.5h-85q-21 0 -35 -1v-573q6 -14 6 -31t-6 -31v-484q0 -33 -23.5 -56.5t-56.5 -23.5 t-56.5 23.5t-23.5 56.5v435h-141q-15 -276 -137 -398q-81 -81 -195 -92q-165 -15 -225 122q-41 96 -19 267q13 107 79 172q89 89 258 89h71q-16 62 -55 101q-113 113 -441 80q-12 -489 -253 -558q-182 -53 -276 43.5t-50 353.5q38 227 416 299q-12 106 -61 155t-145 51h-346 q-33 0 -56.5 23.5t-23.5 56.5t23.5 56.5t56.5 23.5h347zM555 753q-242 -50 -261 -163q-30 -177 11 -222q22 -23 105 1t121 184q20 83 24 200zM1218 435h-78q-103 0 -137.5 -34.5t-41.5 -86.5q-20 -158 19 -200q15 -17 65 -7q156 30 173 328z"/>
            <glyph unicode="B"
                   d="M1205 1280q33 0 56.5 -23.5t23.5 -56.5t-23.5 -56.5t-56.5 -23.5h-124q-15 -244 -114 -435q153 -190 28 -532q-79 -218 -399 -233q-355 -17 -433 62q-43 43 -43 85t23.5 65.5t56.5 23.5t52.5 -19.5t25.5 -40.5q68 -29 329 -16q195 10 238 127q76 209 26 329 q-76 -96 -178 -175q-145 -112 -399 -38q-89 26 -132 79l-17 21q-22 30 -35.5 94t9.5 149q67 249 387 216q211 -23 334 -91q67 146 81 329h-921q-33 0 -56.5 23.5t-23.5 56.5t23.5 56.5t56.5 23.5h1003h1h1h200zM759 653q-93 51 -249 67.5t-208 -35.5q-17 -17 -34 -81 q-27 -99 70 -127q176 -52 264.5 16t156.5 160z"/>
            <glyph unicode="C"
                   d="M1205 1280q33 0 56.5 -23.5t23.5 -56.5t-23.5 -56.5t-56.5 -23.5h-116q9 -128 -10 -271q-6 -47 -28.5 -68t-28.5 -26q-79 -65 -367 -32.5t-340 13.5q-27 -30 -39 -144q-4 -33 7 -43q75 -70 361 -41q232 23 330.5 -75.5t85.5 -255.5t-135 -213q-52 -23 -110 -26l-425 -17 q-149 -4 -219.5 71t-55 207.5t94.5 202.5q-108 72 -93.5 206.5t52 195.5t79.5 78q94 37 354.5 7.5t319.5 -7.5q16 126 7 238h-929q-33 0 -56.5 23.5t-23.5 56.5t23.5 56.5t56.5 23.5h997h4h4h200zM521 86q10 87 -19 203q-4 17 -11 24t-28 7q-108 1 -144.5 -35.5t-43.5 -99 t13 -85t79.5 -20.5t132.5 5zM682 93l116 5q56 2 77.5 22t24.5 65q7 88 -31 127q-57 54 -217 36l6 -21q32 -128 24 -234z"/>
            <glyph unicode="D" horiz-adv-x="1199"
                   d="M1285 1200q0 -33 -23.5 -56.5t-56.5 -23.5h-114q-8 -30 -11 -97q-23 -450 -10 -816q19 -34 3 -71q3 -67 6.5 -115.5t-18 -73.5t-55 -27t-58.5 19.5t-27 55.5l-2 28q-180 -87 -466 -103q-206 -12 -322 158q-85 125 -33 341q7 30 34 48q124 82 167 169q20 40 21 332 q0 65 -35.5 100.5t-130.5 51.5t-126.5 4.5t-61.5 2.5t-41.5 45.5t2.5 61.5q37 78 251 46q167 -14 478.5 0.5t409.5 -0.5h139q33 0 56.5 -23.5t23.5 -56.5zM911 202q-14 370 9 829q3 55 11 98q-95 0 -241.5 -7t-241.5 -8q32 -62 32 -146q-1 -330 -36 -400q-58 -118 -197 -216 q-24 -124 16 -183q65 -96 181 -89q311 17 467 122z"/>
            <glyph unicode="E" horiz-adv-x="1400"
                   d="M919 1284q90 2 251.5 9.5t253.5 -15.5q33 -8 50 -36.5t9 -61t-36.5 -49.5t-61 -9t-131.5 10q32 -61 22 -141q-36 -321 -147 -424q83 -91 57 -233q-33 -181 -136 -284q-130 -130 -357 -130q-152 0 -335 114q-18 11 -32 31q-52 73 -156 496q-69 280 -50 559h-120 q-33 0 -56.5 23.5t-23.5 56.5t23.5 56.5t56.5 23.5h138q10 61 24 121q84 362 412 475q241 83 522 1q212 -62 207 -210q-1 -33 -25 -55.5t-57.5 -21.5t-56 25t-21.5 58q0 3 -14 17t-79 33q-231 68 -424 1q-107 -37 -196 -125.5t-129 -318.5h380q40 0 103 3.5t135 0.5z M947 1123q-96 -3 -266 -3h-401q-16 -218 27 -438q214 7 392 7t307 -9q33 -3 64 91.5t40 171.5t8 95q-2 54 -121 78q-23 4 -50 7zM1007 463q-60 62 -246.5 64.5t-416.5 -4.5q81 -322 112 -365q84 -78 241 -78t232 75.5t99 206.5q12 66 -21 101z"/>
            <glyph unicode="F" horiz-adv-x="1600"
                   d="M1685 1200q0 -33 -23.5 -56.5t-56.5 -23.5h-364q14 -107 16 -176q5 -153 -50 -202q-17 -16 -24 -20q-111 -81 -517 -155q-9 -53 -22 -113q-65 -289 4 -357q16 -16 47 -17l60 -2q30 229 137 337q78 77 227 92t245 -73.5t67 -286.5q-9 -58 -59 -109q-138 -138 -683 -118 q-174 6 -221 188q-35 136 25 406l7 31q-216 -15 -298 67q-53 53 -49.5 141.5t73.5 158t229 87.5q102 12 166.5 -53.5t61.5 -212.5q338 63 408 119q19 54 -12 268h-1079q-33 0 -56.5 23.5t-23.5 56.5t23.5 56.5t56.5 23.5h1605q33 0 56.5 -23.5t23.5 -56.5zM525 708 q8 98 -20 128q-7 7 -32 5q-158 -18 -161 -90q-1 -22 4.5 -27.5t20.5 -10.5q59 -20 188 -5zM1273 173q17 125 -29 153t-123.5 20.5t-115.5 -45.5q-65 -65 -88 -222q110 4 193 19q156 27 163 75z"/>
            <glyph unicode="G" horiz-adv-x="1600"
                   d="M188 1280q144 0 206 -123q31 -61 37 -152q27 -440 -158 -579q-19 -111 0 -153q78 -176 144 -193q199 1 267 70q35 34 35 78t5 59q23 360 -4 839q-2 34 20 58.5t55.5 26.5t58 -20t26.5 -55q29 -510 2 -890q19 -177 130 -179q288 -5 309 158q29 227 -14 970q-2 35 21.5 60 t57.5 25h214q33 0 56.5 -23.5t23.5 -56.5t-23.5 -56.5t-56.5 -23.5h-129q36 -661 10 -898q1 -5 1 -11l-5 -213q0 -33 -24 -56t-57 -22t-50.5 19t-22.5 32q-119 -68 -316 -64q-140 3 -219 121q-118 -108 -378 -108q-71 0 -145 71t-138 217q-42 96 -5 282q7 37 31.5 50.5 t37.5 26.5q100 100 80 428q-5 79 -26.5 102t-56.5 23h-188q-33 0 -56.5 23.5t-23.5 56.5t23.5 56.5t56.5 23.5h188z"/>
            <glyph unicode="H" horiz-adv-x="0"
                   d="M-97 -587q-2 -95 -64 -157q-87 -87 -270.5 -103t-253.5 117q-49 92 -36 213t65 169.5t106 55.5t92 3t58.5 -30t17 -59t-29.5 -53.5t-68.5 -16t-58.5 -9.5t-25 -92t32 -122q19 -21 58 -19q215 14 217 101l-23 586q-1 33 21.5 57.5t55.5 25.5t57.5 -21.5t25.5 -55.5z"/>
            <glyph unicode="I" horiz-adv-x="400"
                   d="M405 1280q33 0 56.5 -23.5t23.5 -56.5t-23.5 -56.5t-56.5 -23.5h-97q-1 -441 -30 -1123q-2 -34 -26 -56t-57.5 -20.5t-55.5 25.5t-21 57q31 710 32 1117h-150q-33 0 -56.5 23.5t-23.5 56.5t23.5 56.5t56.5 23.5h149q-4 276 -28 358t-55 82q-112 0 -162 -105 q-24 -52 -24 -151q0 -33 -23.5 -56.5t-56.5 -23.5t-56.5 23.5t-23.5 56.5q0 135 34 208q98 208 312 208q78 0 135 -56q91 -92 101 -345q4 -90 5 -199h98z"/>
            <glyph unicode="J"
                   d="M1285 1200q0 -33 -23.5 -56.5t-56.5 -23.5h-182q-79 -175 -274 -275q112 -25 178 -91q132 -131 58 -388q-12 -42 -55 -112q87 -98 140 -223q13 -30 0.5 -61t-43 -44t-61.5 -0.5t-44 43.5q-34 80 -86 148l-28 -37q-95 -125 -377 -148q-162 -13 -245 67t-66 225 q9 76 67 134t135 94q199 95 391 -19q52 -31 98 -67q15 27 20 44q48 166 -17 231q-34 34 -118 52t-177 71q-141 -34 -318 -44q-34 -2 -58.5 20t-26.5 55.5t20 58t55 26.5q82 5 154 14q-98 93 -188 226h-157q-33 0 -56.5 23.5t-23.5 56.5t23.5 56.5t56.5 23.5h1205 q33 0 56.5 -23.5t23.5 -56.5zM839 1120h-484q93 -115 191 -184q202 61 293 184zM722 232q-42 34 -91 63q-119 71 -241 13q-51 -25 -90.5 -64t-18.5 -100.5t136 -51.5q212 17 263 84z"/>
            <glyph unicode="K"
                   d="M1091 1120q-15 -58 -18.5 -249t-6.5 -318.5t4 -345.5q19 -34 3 -71q3 -67 6.5 -115.5t-18 -73.5t-55 -27t-58.5 19.5t-27 55.5l-2 28q-180 -87 -466 -103q-206 -12 -322 158q-85 125 -33 341q7 30 34 48q118 77 162 159q3 8 7 15q19 65 19 327q0 65 -37 102t-130.5 51.5 t-125 3t-61.5 2.5t-41.5 45.5t2.5 61.5q37 79 254 45q142 -22 220.5 -101t78.5 -220t-8 -236q174 45 438 47q3 127 10 260q12 251 140 251h145q33 0 56.5 -23.5t23.5 -56.5t-23.5 -56.5t-56.5 -23.5h-114zM911 202q-7 192 -4 407q-319 -3 -478 -70q-59 -100 -182 -187 q-24 -124 16 -183q65 -96 181 -89q311 17 467 122z"/>
            <glyph unicode="L" horiz-adv-x="1800"
                   d="M1449 -221q34 -48 37.5 -68t1.5 -40q-4 -44 -13 -59q-12 -22 -23 -34q-52 -34 -67 -37l-35 -5q-54 5 -72 16q-37 22 -61 70q-11 22 -11 56q8 65 34 96q39 46 108 46q57 -8 80 -23zM1805 1280q33 0 56.5 -23t23.5 -56.5t-23.5 -57t-56.5 -23.5h-498q-12 -115 -37 -208 q226 1 327 -99.5t83 -272.5q-40 -362 -189 -512q-117 -117 -289 -108q-33 2 -55.5 26.5t-20.5 57.5t26.5 55.5t57.5 20.5q101 -6 167 61q110 110 143 417q11 95 -33 138q-69 70 -281 53q-108 -198 -312 -228q-180 -27 -283 225q-118 -21 -192 -95q-119 -119 -139 -383 q-8 -99 34 -140q66 -66 269 -38q33 5 59.5 -15t31 -53t-15.5 -59.5t-53 -30.5q-282 -40 -404 83q-94 93 -81 266q25 322 186 484q103 102 256 135q-26 97 -46 220h-516q-33 0 -56.5 23.5t-23.5 57t23.5 56.5t56.5 23h1805zM1146 1120h-468q56 -331 144 -419q25 -25 48 -22 q127 19 198 150q1 30 24 52q38 97 54 239z"/>
            <glyph unicode="M" horiz-adv-x="0"
                   d="M-273 1368q-123 287 17 426q89 89 275 96q82 3 143 -28q203 -105 116 -474q-8 -33 -36 -50t-60.5 -9.5t-49.5 35.5t-10 60q59 248 -27 292q-39 20 -122 9t-119 -47q-62 -61 19 -246q14 -30 1.5 -61t-42.5 -44.5t-61 -1t-44 42.5z"/>
            <glyph unicode="N" horiz-adv-x="0"
                   d="M-99 1701q34 -48 37.5 -68t1.5 -41q-4 -44 -13 -59q-12 -21 -23 -33q-52 -35 -67 -38l-35 -4q-54 5 -72 16q-37 22 -61 70q-11 21 -11 55q8 66 34 96q39 47 108 47q57 -9 80 -24z"/>
            <glyph unicode="O" horiz-adv-x="0"
                   d="M-943.5 2100.5q23.5 -23.5 24 -78.5t10 -80.5t33 -47.5t41 -33.5t38.5 -5.5q277 87 481 15q150 -29 193 -180q51 -163 -1 -315q-11 -32 -41 -46.5t-61 -3.5t-45.5 40.5t-4.5 61.5q36 103 0 216q-15 44 -77 70q-123 13 -171 -101.5t-9 -172.5q18 -28 11.5 -60.5t-34 -51 t-60 -12t-51.5 34.5q-85 129 -7 318q14 33 33 62q-52 -10 -109 -28q-117 -36 -232 72q-54 51 -75.5 107.5t-22.5 162.5q0 33 23.5 56.5t56.5 23.5t56.5 -23.5z"/>
            <glyph unicode="P"
                   d="M1205 1280q33 0 56.5 -23.5t23.5 -56.5t-23.5 -56.5t-56.5 -23.5h-134q51 -227 -8 -317q-14 -21 -46 -43q-70 -47 -370 -60q-323 -14 -367 -358q-27 -207 19 -252q10 -10 88 -12q30 229 137 336q78 78 227 93t248 -76q81 -74 71 -218q-2 -27 -8.5 -75.5t-57.5 -99.5 q-138 -138 -683 -118q-126 5 -179 121q-35 77 -32.5 164t11.5 154q30 230 160.5 360.5t362 140.5t286.5 35q17 68 -23 225h-907q-33 0 -56.5 23.5t-23.5 56.5t23.5 56.5t56.5 23.5h1205zM549 79q110 4 193 19q156 27 163 75q17 125 -29 153t-123.5 20.5t-115.5 -45.5 q-65 -65 -88 -222z"/>
            <glyph unicode="Q"
                   d="M1091 1120q-15 -58 -18.5 -249t-6.5 -318.5t4 -345.5q19 -34 3 -71q3 -67 6.5 -115.5t-18 -73.5t-55 -27t-58.5 19.5t-27 55.5l-2 28q-180 -87 -466 -103q-206 -12 -322 158q-85 125 -33 341q7 30 34 48q118 77 162 159q3 9 8 17q17 54 18 325q0 65 -35.5 100.5 t-130.5 51.5t-126.5 4.5t-61.5 2.5t-41.5 45.5t2.5 61.5q37 78 251 46q167 -14 478.5 0.5t409.5 -0.5h139q33 0 56.5 -23.5t23.5 -56.5t-23.5 -56.5t-56.5 -23.5h-114zM911 202q-7 192 -4 407q-319 -3 -478 -70q-60 -101 -182 -187q-24 -124 16 -183q65 -96 181 -89 q311 17 467 122zM472 722q173 45 438 47q8 293 21 360q-95 0 -241.5 -7t-241.5 -8q47 -92 24 -392z"/>
            <glyph unicode="R" horiz-adv-x="0"
                   d="M-30 -599q0 -34 -23 -57.5t-56.5 -23.5t-57 23t-23.5 75q-1 104 -62 122q-22 6 -70 3l-34 -5q-68 -32 -166 -17q-31 4 -49.5 26.5t-18.5 53.5t19.5 53t50.5 25l111 14q22 22 23 105l-4 200q-1 34 22 57.5t56.5 24.5t57 -22t24.5 -56l4 -200q-1 -64 -9 -102 q113 -18 167 -120q37 -71 38 -179z"/>
            <glyph unicode="S" horiz-adv-x="1600"
                   d="M537 436q-212 -40 -234 -168q-26 -145 4 -177q19 -20 138 35l5 5q50 55 87 305zM557 601q23 260 -32 402q-34 90 -175 111l-160 6h-190q-33 0 -56.5 23.5t-23.5 56.5t23.5 56.5t56.5 23.5h258q57 0 107 -6q551 -18 1061 5q7 1 16 1h163q33 0 56.5 -23.5t23.5 -56.5 t-23.5 -56.5t-56.5 -23.5h-121q52 -545 -49 -1134q-6 -32 -33 -51t-59.5 -13.5t-51.5 32.5t-14 60q44 255 58 501q-113 28 -632 -53q-7 -57 -18 -118q-53 -307 -170 -362q-224 -105 -317 -8.5t-53 322.5q46 248 412 305zM653 1107q88 -153 67 -480q458 70 621 45 q4 225 -18 443q-327 -12 -670 -8zM1053 101q34 -47 37.5 -67.5t1.5 -40.5q-4 -44 -13 -59q-13 -21 -23 -33q-52 -35 -67 -38l-35 -4q-54 5 -73 16q-36 21 -60 70q-11 21 -11 55q8 65 34 96q39 47 108 47q57 -9 79 -24z"/>
            <glyph unicode="T"
                   d="M1285 1200q0 -33 -23.5 -56.5t-56.5 -23.5h-516q-16 -129 3 -238q84 -2 169 -30q227 -74 235 -414q7 -293 -202 -422q-277 -171 -544 -46.5t-258 432.5q7 244 262 388q89 50 178 73q-19 120 -4 257h-528q-33 0 -56.5 23.5t-23.5 56.5t23.5 56.5t56.5 23.5h1205 q33 0 56.5 -23.5t23.5 -56.5zM936 447q-5 214 -125 253q-185 60 -370 -44.5t-189 -252.5q-6 -209 162 -286q193 -90 396 35q131 81 126 295z"/>
            <glyph unicode="U" horiz-adv-x="0"
                   d="M-149 -668q-41 -63 -123 -97q-173 -70 -516.5 -67t-454.5 119q-67 69 -49 123q11 31 40.5 45.5t61 4t46.5 -40.5q44 -89 309 -91q490 -4 552 92q18 27 50.5 34t60 -11t34.5 -50.5t-11 -60.5zM-133 -292q-41 -63 -123 -97q-173 -70 -516.5 -67t-454.5 119q-67 69 -49 123 q11 31 40.5 45.5t61 4t46.5 -40.5q44 -89 309 -91q490 -4 552 92q18 27 50.5 34t60 -11t34.5 -50.5t-11 -60.5z"/>
            <glyph unicode="V" horiz-adv-x="1400"
                   d="M1405 1280q33 0 56.5 -23.5t23.5 -56.5t-23.5 -56.5t-56.5 -23.5h-240q87 -182 -31 -320q191 -223 131 -490q-50 -214 -257 -310q133 -122 101 -237q-9 -32 -37.5 -48.5t-60.5 -7.5t-48.5 37.5t-7.5 60.5q4 16 -33 54t-105 82q-64 -12 -142 -18q65 -84 43 -180 q-8 -32 -36 -49.5t-60 -10t-49.5 35.5t-11.5 55t-7 44t-37 42t-110 69q-201 30 -275 149q-17 28 -9.5 60.5t35.5 49.5t60.5 9.5t44 -26t19.5 -27.5q86 -85 402 -59q57 4 106 14q21 10 43 9q234 58 276 238q42 190 -103 357q-195 -94 -548 -30q-33 6 -52 33.5t-13 60 t33.5 51.5t59.5 13q431 -79 538 92q45 71 -44 197h-980q-33 0 -56.5 23.5t-23.5 56.5t23.5 56.5t56.5 23.5h1016h3.5h2.5h383z"/>
            <glyph unicode="W" horiz-adv-x="400"
                   d="M405 1280q33 0 56.5 -23.5t23.5 -56.5t-23.5 -56.5t-56.5 -23.5h-121q13 -368 -57 -735q-6 -33 -33.5 -51.5t-60 -12t-51 33.5t-12.5 60q67 353 54 705h-124q-33 0 -56.5 23.5t-23.5 56.5t23.5 56.5t56.5 23.5h199h2h2h202zM295 1695q34 -48 37.5 -68t1.5 -41 q-4 -44 -13 -59q-12 -21 -23 -33q-52 -35 -67 -38l-35 -4q-54 5 -72 16q-37 22 -61 70q-11 21 -11 55q8 66 34 96q39 47 108 47q57 -9 80 -24z"/>
            <glyph unicode="X" horiz-adv-x="1400"
                   d="M1101 304q-79 -8 -208 3q12 -107 -14 -272q-5 -29 -27 -48q-121 -103 -413 -66q-219 27 -306 154.5t-35 343.5q7 30 34 48q124 82 167 169q20 40 21 332q0 80 -35.5 115t-117.5 37h-167q-33 0 -56.5 23.5t-23.5 56.5t23.5 56.5t56.5 23.5h168h1h1l14 -1q543 -23 1059 1 h11h151q33 0 56.5 -23.5t23.5 -56.5t-23.5 -56.5t-56.5 -23.5h-121q-8 -30 -11 -97q-29 -579 1 -1018q2 -33 -19.5 -58t-55 -27t-58.5 19.5t-27 55.5q-10 146 -13 309zM1099 464q-1 264 7.5 438.5t15.5 212.5q-329 -11 -667 -4q25 -61 25 -143q-1 -330 -36 -400 q-58 -118 -197 -216q-28 -143 29 -200t182 -73q188 -23 268 16q27 197 -10 267q-24 43 4 83.5t77 33.5q228 -30 302 -15z"/>
            <glyph unicode="Y" horiz-adv-x="0"
                   d="M-1072 2032q53 104 153 135q141 43 358 -77q373 -207 436 -653q14 -65 -11.5 -92t-59 -29t-57 18t-26.5 48.5t-10 41t-24 29.5q-99 99 -408 203q-152 51 -200 -84q-15 -42 -45 -56t-61 -3t-45 41t-3 61q31 87 82 138q122 122 312.5 58t311.5 -128q-92 168 -259 261 q-207 115 -277 50q-12 -11 -25 -37t-44.5 -36.5t-61 4t-40 46t3.5 61.5z"/>
            <glyph unicode="Z" horiz-adv-x="1400"
                   d="M59 -131q34 -48 37.5 -68t1.5 -40q-4 -44 -13 -59q-13 -22 -23 -34q-52 -34 -67 -37l-35 -5q-54 5 -73 16q-36 22 -60 70q-11 22 -11 56q8 65 34 96q39 46 108 46q57 -8 79 -23zM765 1280h640q33 0 56.5 -23.5t23.5 -56.5t-23.5 -56.5t-56.5 -23.5h-109q64 -403 38 -1123 q-1 -33 -25 -55.5t-57 -21.5t-56 25.5t-21 57.5q26 728 -41 1117h-282q71 -557 40 -927q-17 -211 -385 -272q-174 -29 -275 72q-120 121 -117 408q2 201 115 313q153 153 492 118q-12 137 -31 288h-691q-33 0 -56.5 23.5t-23.5 56.5t23.5 56.5t56.5 23.5h758h3.5h3.5z M734 670q-286 36 -391 -69q-66 -66 -68 -202q-2 -220 69 -291q44 -44 137 -29q245 41 252 128q16 201 1 463z"/>
            <glyph unicode="[" horiz-adv-x="800"
                   d="M480 -7q-3 -33 -28.5 -54.5t-58.5 -18.5t-54.5 28.5t-18.5 58.5q55 593 1 1186q-3 33 18 58.5t54 28.5t58.5 -18.5t28.5 -54.5q55 -607 0 -1214z"/>
            <glyph unicode="\"
                   d="M1285 1200q0 -33 -23.5 -56.5t-56.5 -23.5h-114l-19 -325q-2 -36 -30.5 -58t-64.5 -16q-154 29 -408 8q-30 -15 -61 -6l-27 -3q-216 -23 -193 -169q8 -31 24 -43q62 -50 256 -27q251 52 425 22q33 -6 52 -33t13.5 -59.5t-32.5 -51.5t-59 -14q-124 21 -214 4l-164 -27 q-118 -25 -127 -138q-5 -58 5 -69q89 -88 516 -1q33 7 60.5 -11t34.5 -50.5t-11 -60.5t-50 -34q-345 -71 -486 -41q-248 52 -231 258q8 88 40 150q-106 20 -160 89l-18 24q-44 62 -34 166t87 180q39 40 104 64q-137 121 -162 272h-157q-33 0 -56.5 23.5t-23.5 56.5 t23.5 56.5t56.5 23.5h231h1h2h756q25 9 52 0h163q33 0 56.5 -23.5t23.5 -56.5zM931 1120h-609q38 -129 218 -233q221 20 377 4z"/>
            <glyph unicode="]"
                   d="M873 -4q-3 -33 -28.5 -54.5t-58.5 -18.5t-54.5 28.5t-18.5 58.5q55 593 1 1186q-3 33 18 58.5t54 28.5t58.5 -18.5t28.5 -54.5q55 -607 0 -1214zM480 -7q-3 -33 -28.5 -54.5t-58.5 -18.5t-54.5 28.5t-18.5 58.5q55 593 1 1186q-3 33 18 58.5t54 28.5t58.5 -18.5 t28.5 -54.5q55 -607 0 -1214z"/>
            <glyph unicode="^"
                   d="M149 -90q34 -48 37.5 -68t1.5 -40q-4 -44 -13 -59q-12 -22 -23 -34q-52 -34 -67 -37l-35 -5q-54 5 -72 16q-37 22 -61 70q-11 22 -11 56q8 65 34 96q39 46 108 46q57 -8 80 -23zM1091 1120q-15 -58 -18.5 -249t-6.5 -318.5t4 -345.5q19 -34 3 -71q3 -67 6.5 -115.5 t-18 -73.5t-55 -27t-58.5 19.5t-27 55.5l-2 28q-180 -87 -466 -103q-206 -12 -322 158q-85 125 -33 341q7 30 34 48q118 77 162 159q3 8 7 15q19 65 19 327q0 65 -37 102t-130.5 51.5t-125 3t-61.5 2.5t-41.5 45.5t2.5 61.5q37 79 254 45q142 -22 220.5 -101t78.5 -220 t-8 -236q174 45 438 47q3 127 10 260q12 251 140 251h145q33 0 56.5 -23.5t23.5 -56.5t-23.5 -56.5t-56.5 -23.5h-114zM911 202q-7 192 -4 407q-319 -3 -478 -70q-59 -100 -182 -187q-24 -124 16 -183q65 -96 181 -89q311 17 467 122z"/>
            <glyph unicode="_" horiz-adv-x="200"
                   d="M205 1280q33 0 56.5 -23.5t23.5 -56.5t-23.5 -56.5t-56.5 -23.5h-205q-33 0 -56.5 23.5t-23.5 56.5t23.5 56.5t56.5 23.5h205z"/>
            <glyph unicode="`" horiz-adv-x="1000"
                   d="M480 1000q0 -33 -23.5 -56.5t-56.5 -23.5t-56.5 23.5t-23.5 56.5v400q0 33 23.5 56.5t56.5 23.5t56.5 -23.5t23.5 -56.5v-400z"/>
            <glyph unicode="a" horiz-adv-x="1400"
                   d="M919 1284l200 7q-9 263 -92 346t-307 83q-177 0 -270.5 -93.5t-131.5 -261.5q-10 -42 -17 -85h380q40 0 103 3.5t135 0.5zM947 1123q-96 -3 -266 -3h-400q-16 -219 26 -438q214 7 392 7t307 -9q33 -3 64 91.5t40 171.5t8 95q-2 54 -121 78q-23 4 -50 7zM1254 1132 q32 -61 22 -141q-36 -321 -147 -424q83 -91 57 -233q-33 -181 -136 -284q-130 -130 -357 -130q-152 0 -335 114q-18 11 -32 31q-52 73 -156 492q-69 281 -49 563h-121q-33 0 -56.5 23.5t-23.5 56.5t23.5 56.5t56.5 23.5h139q9 60 23 121q48 212 167 332q147 147 391 147 q358 0 471 -196q78 -135 88 -391q94 -2 136 -12.5t59 -39t9 -61t-36.5 -49.5t-61 -9t-131.5 10zM1007 463q-60 62 -246.5 64.5t-416.5 -4.5q81 -322 112 -365q90 -78 244 -78t229 75.5t99 206.5q12 66 -21 101z"/>
            <glyph unicode="b" horiz-adv-x="1238"
                   d="M1205 1280q33 0 56.5 -23.5t23.5 -56.5t-23.5 -56.5t-56.5 -23.5h-115q17 -932 -7 -1130q-4 -32 -30 -52.5t-58.5 -16.5t-52 28.5t-18.5 52.5q-450 -126 -618 -30q-124 72 -110 236q18 192 94 303q-161 67 -149.5 276.5t73.5 332.5h-214q-33 0 -56.5 23.5t-23.5 56.5 t23.5 56.5t56.5 23.5h1205zM516 486q-136 -29 -160 -294q-6 -60 24 -77q125 -72 554 56q4 135 3 356q-135 -26 -416 -40q-3 -1 -5 -1zM929 1120h-506q-105 -50 -123 -346q-6 -88 38 -111t122 -19q367 16 476 46q-2 190 -7 430z"/>
            <glyph unicode="c" horiz-adv-x="1400"
                   d="M1405 1280q33 0 56.5 -23.5t23.5 -56.5t-23.5 -56.5t-56.5 -23.5h-123q34 -504 -2 -887q-11 -116 -87 -192q-121 -121 -401 -121q-209 0 -313.5 104.5t-56.5 317.5q19 84 30 153q-51 2 -120 6q-119 8 -189.5 76.5t-40.5 190.5q42 165 253 208q120 25 200 -55t74 -269 q237 -1 509 22q0 209 -16 446h-1122q-33 0 -56.5 23.5t-23.5 56.5t23.5 56.5t56.5 23.5h1405zM615 492q-4 -26 -11 -60l-14 -73q-7 -39 -12 -53q-29 -126 21.5 -176t192.5 -50q213 0 288 75q35 35 40 92q12 126 16 266q-277 -22 -521 -21zM469 654q4 123 -31 157 q-15 15 -70 4q-93 -19 -110 -87q-9 -32 -1 -39q27 -24 92 -28.5t120 -6.5z"/>
            <glyph unicode="d" horiz-adv-x="1400"
                   d="M1405 1280q33 0 56.5 -23.5t23.5 -56.5t-23.5 -56.5t-56.5 -23.5h-140q21 -346 -13 -443q-17 -49 -60 -67q-218 -89 -473 -123q-64 -280 -30 -382q5 -14 11.5 -20.5t24.5 -4.5q321 24 400 63q6 15 24 33t51 18t56.5 -23.5t23.5 -62.5q0 -114 -251 -156q-111 -18 -292 -32 q-91 -7 -150 52q-115 115 -35 500q-236 -7 -328.5 87t-67.5 228q36 191 310 213q168 14 241 -114q49 -84 38 -235q187 29 362 97q17 80 -2 372h-1105q-33 0 -56.5 23.5t-23.5 56.5t23.5 56.5t56.5 23.5h1177h3h2h223zM583 634q23 187 -60 204q-58 12 -116 -7.5t-80.5 -42 t-16 -59.5t20.5 -51q54 -55 252 -44z"/>
            <glyph unicode="e"
                   d="M370 1270q37 21 76 1q74 2 187.5 13.5t230.5 3.5t341 -8q33 0 56.5 -23.5t23.5 -56.5t-23.5 -56.5t-67 -23.5h-91.5l-23 -404q-3 -44 -42.5 -65.5t-78.5 1.5q-190 113 -406 55q-129 -35 -205.5 -111t-69 -208.5t80.5 -205.5t232 -103q193 -34 400 177q23 24 56 24t57 -23 t24 -56t-23 -57q-266 -272 -544 -223q-208 41 -319.5 152.5t-121.5 286.5q-17 312 250 448q-76 136 -59 304h-5q-145 8 -306 8q-33 0 -56.5 23.5t-23.5 56.5t23.5 56.5t56.5 23.5q164 0 251 -4.5t119 -5.5zM943 1124q-46 1 -119.5 6.5t-180.5 -5.5t-171 -14 q-18 -144 52 -247q210 53 403 -19z"/>
            <glyph unicode="f"
                   d="M1074 1120q32 -248 -107 -337q215 -243 87 -550q-58 -139 -197 -218q-17 -16 -44 -22q-135 -63 -312 -72q-249 -14 -329 93q-90 105 -7 307q26 65 71 109q143 143 428 32q178 -70 220 -209q13 20 22 42q49 123 25.5 229.5t-143.5 210.5q-208 -26 -397 -15q-33 2 -55 26.5 t-20 58t26.5 55.5t58.5 20q204 -12 435 23q45 7 63 35q35 53 14 182h-913q-33 0 -56.5 23.5t-23.5 56.5t23.5 56.5t56.5 23.5h1205q33 0 56.5 -23.5t23.5 -56.5t-23.5 -56.5t-56.5 -23.5h-131zM733 133q13 77 -26.5 116t-100.5 63q-188 74 -258 4q-21 -21 -42 -71 q-46 -114 5 -143t184.5 -21t237.5 52z"/>
            <glyph unicode="g" horiz-adv-x="1400"
                   d="M765 1280h640q33 0 56.5 -23.5t23.5 -56.5t-23.5 -56.5t-56.5 -23.5h-109q64 -403 38 -1123q-1 -33 -25 -55.5t-57 -21.5t-56 25.5t-21 57.5q26 728 -41 1117h-282q71 -557 40 -927q-17 -211 -385 -272q-174 -29 -275 72q-120 121 -117 408q2 201 115 313 q153 153 492 118q-12 137 -31 288h-691q-33 0 -56.5 23.5t-23.5 56.5t23.5 56.5t56.5 23.5h758h3.5h3.5zM734 670q-286 36 -391 -69q-66 -66 -68 -202q-2 -220 69 -291q44 -44 137 -29q245 41 252 128q16 201 1 463z"/>
            <glyph unicode="h"
                   d="M1205 1280q33 0 56.5 -23.5t23.5 -56.5t-23.5 -56.5t-56.5 -23.5h-160q63 -787 14 -965q-64 -235 -515 -235q-351 0 -413 203q-13 44 -11 97q14 294 119 400q87 86 214 58q33 -7 50.5 -35t10.5 -60.5t-35 -50t-65 -9.5t-61 -16q-62 -62 -73 -295q-2 -48 24 -75 q56 -57 240 -57q329 0 361 117q41 153 -21 923h-884q-33 0 -56.5 23.5t-23.5 56.5t23.5 56.5t56.5 23.5h956h3h2h244z"/>
            <glyph unicode="i" horiz-adv-x="400"
                   d="M405 1280q33 0 56.5 -23.5t23.5 -56.5t-23.5 -56.5t-56.5 -23.5h-146q-12 -399 -5 -1119q0 -33 -23 -57t-56 -24t-57 23t-24 56q-7 717 5 1121h-99q-33 0 -56.5 23.5t-23.5 56.5t23.5 56.5t56.5 23.5h106q6 124 14 206q23 205 118 300q113 114 277 91q75 -10 117 -50 q76 -71 79 -204q2 -85 -44 -185q-14 -30 -45 -42t-61 2t-42 45t2 61q48 105 22 178q-14 38 -79 38q-157 1 -184 -252q-9 -75 -14 -188h139z"/>
            <glyph unicode="j" horiz-adv-x="1400"
                   d="M1171 1280q26 8 51 0h183q33 0 56.5 -23.5t23.5 -56.5t-23.5 -56.5t-56.5 -23.5h-120q23 -240 20 -497q7 -25 -1 -48q-5 -282 -41 -584q-3 -33 -29 -53.5t-59 -17t-53.5 29.5t-16.5 59q30 262 38 508l-431 -18q-5 -204 -36 -507q-4 -33 -29.5 -54t-58.5 -17.5t-54 29 t-18 58.5q30 286 35 485l-124 -5q-133 -5 -202.5 62t-56.5 193q27 250 256 269q93 8 156.5 -29.5t94 -101.5t36.5 -222l434 18q0 229 -21 443h-1124q-33 0 -56.5 23.5t-23.5 56.5t23.5 56.5t56.5 23.5h1171zM541 770q-12 90 -94 83q-107 -8 -117 -102q-8 -74 3 -83 q24 -23 88 -20l129 5q-3 66 -9 117z"/>
            <glyph unicode="k"
                   d="M1205 1280q33 0 56.5 -23.5t23.5 -56.5t-23.5 -56.5t-56.5 -23.5h-79q18 -375 -166 -618q99 -191 181 -480q9 -32 -7 -61t-48 -38t-61 7t-38 48q-67 236 -143 398q-236 -219 -464 -196q-148 16 -229 97q-103 102 -85 290q12 118 97 203t275 110q240 33 430 -228 q113 188 98 468h-966q-33 0 -56.5 23.5t-23.5 56.5t23.5 56.5t56.5 23.5h1038h2.5h3.5h161zM764 521q-145 222 -317 199q-124 -16 -170 -62t-51 -107q-11 -112 34 -157t136 -54q169 -18 368 181z"/>
            <glyph unicode="l" horiz-adv-x="1800"
                   d="M1805 1280q33 0 56.5 -23t23.5 -56.5t-23.5 -57t-56.5 -23.5h-498q-12 -115 -37 -208q226 1 327 -99.5t83 -272.5q-40 -362 -189 -512q-117 -117 -289 -108q-33 2 -55.5 26.5t-20.5 57.5t26.5 55.5t57.5 20.5q101 -6 167 61q110 110 143 417q11 95 -33 138 q-69 70 -281 53q-108 -198 -312 -228q-180 -27 -283 225q-118 -21 -192 -95q-119 -119 -139 -383q-8 -99 34 -140q66 -66 269 -38q33 5 59.5 -15t31 -53t-15.5 -59.5t-53 -30.5q-282 -40 -404 83q-94 93 -81 266q25 322 186 484q103 102 256 135q-26 97 -46 220h-516 q-33 0 -56.5 23.5t-23.5 57t23.5 56.5t56.5 23h1805zM1146 1120h-468q56 -331 144 -419q25 -25 48 -22q127 19 198 150q1 30 24 52q38 97 54 239z"/>
            <glyph unicode="m" horiz-adv-x="1600"
                   d="M258 1280q332 0 417 -219q49 -128 49 -324q324 50 407 52t108 2l102 -1q-2 179 -21 354q3 56 12 74q33 62 108 62h165q33 0 56.5 -23.5t23.5 -56.5t-23.5 -56.5t-56.5 -23.5h-121q19 -206 17 -418q4 -19 0 -38q-7 -331 -66 -678q-6 -32 -33 -51t-59.5 -13.5t-51.5 32.5 t-14 60q54 315 63 617q-137 18 -624 -58q-47 -518 -201 -591q-237 -113 -334 -11q-40 42 -53.5 116t23 232t141.5 263t271 129q5 182 -39 295.5t-266 113.5h-258q-33 0 -56.5 23.5t-23.5 56.5t23.5 56.5t56.5 23.5h258zM552 546q-195 -46 -250 -282q-25 -107 -18.5 -141 t11 -39t39.5 0.5t73 23.5t41 20q65 70 104 418z"/>
            <glyph unicode="n"
                   d="M1205 1280q33 0 56.5 -23.5t23.5 -56.5t-23.5 -56.5t-56.5 -23.5h-509q19 -144 13 -241q171 -14 263 -106q122 -121 108 -342q-28 -447 -273 -509q-32 -8 -60.5 9t-36.5 49.5t9 61t50 36.5q131 32 151 363q9 149 -58 216.5t-229 63.5q4 1 -32 -1q-125 -7 -195 -77 q-91 -91 -102 -284.5t31 -255.5l8 -9q18 -18 52 -14.5t59.5 -17.5t29 -54t-17.5 -58.5t-54 -29.5q-137 -13 -209.5 94t-58 358t148.5 384q100 100 256 120q8 86 -14 244h-535q-33 0 -56.5 23.5t-23.5 56.5t23.5 56.5t56.5 23.5h1205z"/>
            <glyph unicode="o" horiz-adv-x="0"
                   d="M-908 1746q2 -62 26.5 -86.5t51.5 -19.5q67 12 199 95q265 169 431 3q128 -128 91 -350q-6 -33 -33 -52t-59.5 -13.5t-52 32.5t-13.5 60q27 158 -68 229q-66 48 -236 -60t-288 -106q-18 0 -28 4l-22 8q-151 54 -159 256v45q0 34 23.5 57t56.5 23t56.5 -23t23.5 -57v-45z "/>
            <glyph unicode="p"
                   d="M1285 1200q0 -33 -23.5 -56.5t-56.5 -23.5h-114q-8 -30 -11 -97q-23 -450 -10 -816q19 -34 3 -71q3 -67 6.5 -115.5t-18 -73.5t-55 -27t-58.5 19.5t-27 55.5l-2 28q-180 -87 -466 -103q-206 -12 -322 158q-85 125 -33 341q7 30 34 48q124 82 167 169q20 40 21 332 q0 65 -37 102t-130.5 51.5t-125 3t-61.5 2.5t-41.5 45.5t2.5 61.5q37 79 256 45q140 -22 218.5 -101t78.5 -210q-1 -330 -36 -400q-58 -118 -197 -216q-24 -124 16 -183q65 -96 181 -89q311 17 467 122q-14 370 9 829q12 249 140 249h145q33 0 56.5 -23.5t23.5 -56.5z"/>
            <glyph unicode="q" horiz-adv-x="1400"
                   d="M1405 1280q33 0 56.5 -23.5t23.5 -56.5t-23.5 -56.5t-56.5 -23.5h-314q52 -199 -47 -314q76 -41 125 -90q131 -131 91 -299q-92 -394 -567 -472q-232 -36 -348 -33q-170 5 -216 93q-15 29 -5 61t39 47t59 5.5t45 -33.5q63 -38 400 18q370 61 435 339q22 93 -40.5 155.5 t-183.5 107.5q-154 -47 -346 -29q-33 4 -54 29.5t-17.5 58.5t29 54t58.5 18q150 -15 273 19q22 17 48 17q29 13 47 31q61 61 8 217h-924q-33 0 -56.5 23.5t-23.5 56.5t23.5 56.5t56.5 23.5h1405z"/>
            <glyph unicode="r" horiz-adv-x="1000"
                   d="M1005 1280q33 0 56.5 -23.5t23.5 -56.5t-23.5 -56.5t-56.5 -23.5h-116q25 -511 -30 -990q-7 -51 -42 -85q-13 -11 -45 -36q-108 -68 -365 -89q-153 -12 -225 63q-56 58 -62 147q-29 422 176 529q242 126 440 93q2 185 -7 368h-729q-33 0 -56.5 23.5t-23.5 56.5t23.5 56.5 t56.5 23.5h803h2h2h198zM700 154q0 1 12 110.5t20 324.5q-153 37 -362 -72q-112 -58 -90 -375q2 -32 13 -43q23 -26 100 -19q248 21 307 74z"/>
            <glyph unicode="s" horiz-adv-x="1600"
                   d="M537 436q-212 -40 -234 -168q-26 -145 4 -177q19 -20 138 35l5 5q50 55 87 305zM557 601q23 260 -32 402q-34 90 -175 111l-160 6h-190q-33 0 -56.5 23.5t-23.5 56.5t23.5 56.5t56.5 23.5h258q57 0 107 -6q551 -18 1061 5q7 1 16 1h163q33 0 56.5 -23.5t23.5 -56.5 t-23.5 -56.5t-56.5 -23.5h-121q52 -545 -49 -1134q-6 -32 -33 -51t-59.5 -13.5t-51.5 32.5t-14 60q44 255 58 501q-113 28 -632 -53q-7 -57 -18 -118q-53 -307 -170 -362q-224 -105 -317 -8.5t-53 322.5q46 248 412 305zM653 1107q88 -153 67 -480q458 70 621 45 q4 225 -18 443q-327 -12 -670 -8z"/>
            <glyph unicode="t"
                   d="M1205 1280q33 0 56.5 -23.5t23.5 -56.5t-23.5 -56.5t-56.5 -23.5h-140l19 -315q2 -44 -33 -69.5t-76 -9.5q-244 95 -398 25q-260 -119 -296.5 -324t35.5 -277q35 -35 99 -48q217 -42 439 62q51 25 68 40q6 23 28 42.5t55 17.5t55 -27t19 -65q-5 -81 -157 -152 q-269 -127 -537 -74q-113 22 -182 91q-132 131 -80 418.5t388 441.5q173 79 406 16l-12 207h-905q-33 0 -56.5 23.5t-23.5 56.5t23.5 56.5t56.5 23.5h979h2h2h222z"/>
            <glyph unicode="u" horiz-adv-x="0"
                   d="M-133 -292q-41 -63 -123 -97q-173 -70 -516.5 -67t-454.5 119q-67 69 -49 123q11 31 40.5 45.5t61 4t46.5 -40.5q44 -89 309 -91q490 -4 552 92q18 27 50.5 34t60 -11t34.5 -50.5t-11 -60.5z"/>
            <glyph unicode="v"
                   d="M1285 1200q0 -33 -23.5 -56.5t-56.5 -23.5h-138q-5 -92 28 -282q7 -42 -23.5 -71.5t-71.5 -20.5q-151 31 -541 -6q-81 -7 -124 -50.5t-56 -136.5q-5 -38 4 -49q38 -43 283 -11q33 9 70 16q25 15 55 10q129 18 295 13q33 -1 56 -25t22 -57t-25 -56t-57 -22 q-168 5 -285 -13q-43 -19 -123 -29q-98 -35 -133.5 -103.5t-30 -93.5t23.5 -36t67.5 -22t395.5 36q17 3 25 5q5 20 25 40t53 20t56.5 -23.5t23.5 -66.5t-39.5 -82.5t-121.5 -50.5q-375 -51 -451 -34q-126 29 -175 93q-29 36 -33.5 61t-6.5 40q-10 80 48 192q5 10 11 20 q-91 10 -130 53l-22 24q-54 63 -37 191t100 211t222 96q306 28 476 17q-16 120 -13 203h-908q-33 0 -56.5 23.5t-23.5 56.5t23.5 56.5t56.5 23.5h1205q33 0 56.5 -23.5t23.5 -56.5z"/>
            <glyph unicode="w" horiz-adv-x="400"
                   d="M405 1280q33 0 56.5 -23.5t23.5 -56.5t-23.5 -56.5t-56.5 -23.5h-121q13 -368 -57 -735q-6 -33 -33.5 -51.5t-60 -12t-51 33.5t-12.5 60q67 353 54 705h-124q-33 0 -56.5 23.5t-23.5 56.5t23.5 56.5t56.5 23.5h199h2h2h202z"/>
            <glyph unicode="x" horiz-adv-x="1400"
                   d="M1405 1280q33 0 56.5 -23.5t23.5 -56.5t-23.5 -56.5t-56.5 -23.5h-551q23 -51 43 -117q107 -88 313 -124q32 -6 51.5 -33t13.5 -59.5t-33 -52t-60 -13.5q-135 24 -237 68q10 -60 18 -124t-49 -87t-94 26q-95 128 -263 72q-90 -30 -148 -88q-107 -107 -113 -326 q-2 -78 30 -110q100 -100 403 -53q312 45 371 155l22 99q7 33 35 50.5t60.5 10.5t50 -35t10.5 -60l-24 -108q-10 -47 -65 -102q-124 -124 -438 -168q-385 -55 -530 90q-89 89 -85 235q12 442 371 562q150 50 267 8q-8 40 -17 75q-88 88 -120 209h-637q-33 0 -56.5 23.5 t-23.5 56.5t23.5 56.5t56.5 23.5h1405z"/>
            <glyph unicode="y" horiz-adv-x="0"
                   d="M-1067 1720q154 230 493 112q439 -154 454 -432q2 -33 -20.5 -57.5t-55.5 -26.5t-57.5 20.5t-26.5 55.5q-4 72 -78.5 146.5t-282.5 147t-292 -53.5q-19 -28 -51.5 -34.5t-60 12t-34 51t11.5 59.5z"/>
            <glyph unicode="z" horiz-adv-x="1400"
                   d="M995 -234q34 -48 37.5 -68t1.5 -40q-4 -44 -13 -59q-12 -22 -23 -34q-52 -34 -67 -37l-35 -5q-54 5 -72 16q-37 22 -61 70q-11 22 -11 56q8 65 34 96q39 46 108 46q57 -8 80 -23zM1171 1280q26 8 51 0h183q33 0 56.5 -23.5t23.5 -56.5t-23.5 -56.5t-56.5 -23.5h-120 q23 -240 20 -497q7 -25 -1 -48q-5 -282 -41 -584q-3 -33 -29 -53.5t-59 -17t-53.5 29.5t-16.5 59q30 262 38 508l-431 -18q-5 -204 -36 -507q-4 -33 -29.5 -54t-58.5 -17.5t-54 29t-18 58.5q30 286 35 485l-124 -5q-133 -5 -202.5 62t-56.5 193q27 250 256 269 q93 8 156.5 -29.5t94 -101.5t36.5 -222l434 18q0 229 -21 443h-1124q-33 0 -56.5 23.5t-23.5 56.5t23.5 56.5t56.5 23.5h1171zM541 770q-12 90 -94 83q-107 -8 -117 -102q-8 -74 3 -83q24 -23 88 -20l129 5q-3 66 -9 117z"/>
            <glyph unicode="{" horiz-adv-x="1000"
                   d="M457 802q-3 -125 -49 -189q8 -7 11 -10l16 -18q65 -71 57 -214l-22 -376q-2 -80 14 -94q29 -27 81.5 -17t80 -9t33.5 -51.5t-13 -60t-68 -36.5q-136 -25 -223 56q-66 63 -65 178v44l22 376q5 82 -31 114l1 -2q-30 26 -83.5 27t-76 23.5t-22.5 57t23 57.5t65 22.5 t57.5 13.5t23 33.5t8.5 70.5l-9 448q6 87 42 134l15 19q76 91 261 81q33 -2 54.5 -27.5t19 -58.5t-27.5 -54.5t-78 -17.5q-120 7 -126 -80z"/>
            <glyph unicode="|"
                   d="M1205 1280q33 0 56.5 -23.5t23.5 -56.5t-23.5 -56.5t-56.5 -23.5h-922q25 -135 18 -263q227 108 470 36q114 -34 181 -101q136 -137 65 -379q-29 -97 -83 -175l140 -192q19 -27 13 -60t-33 -52t-60 -13t-52 33l-118 164q-114 -95 -262 -137q-268 -77 -355 19 q-41 45 -49.5 93.5t3.5 113.5q26 132 107 213q116 116 332 116q10 0 25.5 -3.5t19.5 -4.5q50 -19 98.5 -67.5t84.5 -89.5q21 41 35 88q45 150 -24 220q-39 38 -114 60q-248 74 -476 -102q-45 -35 -92 -4.5t-35 84.5q42 191 -2 403h-120q-33 0 -56.5 23.5t-23.5 56.5 t23.5 56.5t56.5 23.5h1205zM725 244q-94 113 -132 132q-237 -3 -271 -183q-13 -67 -5 -76q28 -33 174 9.5t234 117.5z"/>
            <glyph unicode="}" horiz-adv-x="1000"
                   d="M378 1477q223 60 292 -114q26 -66 23 -166l-13 -400q0 -95 22 -114q8 -8 23 -10q96 18 123 -7q59 -54 14 -118q-25 -36 -130 -36q-56 -15 -52 -109l15 -400q0 -173 -78 -237q-81 -74 -232 -45q-33 7 -51.5 34.5t-12 60t34 51t79.5 8.5t76 12t24 110l-15 400 q-4 118 52 190q-52 65 -52 216l13 400q3 92 -19 115.5t-73 9.5t-80 2t-38 48t7 61t48 38z"/>
            <glyph unicode="~" horiz-adv-x="400"
                   d="M640 2014q-8 -254 -145 -391.5t-406 -126.5q-201 8 -306 113q-146 147 -85 455q6 32 33.5 50.5t60 12t51 -34t11.5 -60.5q-44 -223 42 -309q61 -61 199 -67q199 -8 289 82t96 280q1 34 25 56.5t57.5 21.5t56 -25t21.5 -57zM406 1280q33 0 56.5 -23.5t23.5 -56.5 t-23.5 -56.5t-57.5 -23.5h-405q-33 0 -56.5 23.5t-23.5 56.5t23.5 56.5t56.5 23.5h406z"/>
            <glyph unicode="&#xa3;" horiz-adv-x="1000"
                   d="M588 1121q-71 7 -83 -7q-29 -32 -25.5 -95t5.5 -112q67 0 144 -4q33 -1 55.5 -25.5t21 -57.5t-26 -55.5t-77 -20t-112.5 2.5q2 -127 1 -251l126 7q33 2 57.5 -20.5t26.5 -55.5t-20.5 -57.5t-55.5 -26.5l-138 -7q-7 -184 -25 -238q275 12 362 -21l8 -4q30 -13 42.5 -44 t-1 -61t-44.5 -42.5t-61 1.5h-2q-98 33 -497 -1q-32 -6 -67.5 -6t-57.5 21.5t-23.5 55t18.5 57t54 26.5l58 5q33 15 41 26q24 28 28 91t6 125l-122 -7q-33 -2 -57.5 20.5t-26.5 55.5t20.5 57.5t55.5 26.5l134 7q2 127 0 254q-65 -6 -102.5 -16.5t-66.5 5.5t-38 48t7 61 t61.5 42t133.5 20q-2 47 -5 95q-8 149 67 226q46 48 123 59q35 5 102 -2l174 -25q32 -5 52 -31.5t15 -59.5t-31.5 -52.5t-59.5 -15.5z"/>
            <glyph unicode="&#xa4;"
                   d="M600 920q-134 0 -229 -93.5t-95 -222.5t84 -219q15 -9 25 -24q90 -81 221.5 -80.5t224.5 94.5t93 226t-95 225.5t-229 93.5zM206 319q-90 122 -90 281t90 280l-63 64q-23 23 -23 56.5t23.5 56.5t57 23t56.5 -24l63 -64q122 88 280.5 88t279.5 -88l63 63q24 24 57 24 t56.5 -23.5t23.5 -56.5t-23 -56l-63 -63q90 -122 90 -280.5t-90 -279.5l63 -64q23 -23 23 -56t-23.5 -56.5t-56.5 -23.5t-57 24l-63 63q-122 -87 -280 -87t-279 87l-65 -64q-23 -23 -56 -23t-56.5 23.5t-23.5 56.5t24 57z"/>
            <glyph unicode="&#xac;" horiz-adv-x="0"
                   d="M-121 -211q-6 -34 -32.5 -53t-60.5 -13q-135 25 -200 3t-82 -40t-23.5 -33.5t2.5 -38t20 -29.5q55 -32 203 -36q75 4 102.5 2t49.5 -24.5t22 -56.5t-22 -56.5t-60 -23.5t-76 -1q-167 -8 -196 -39q-6 -5 -12 -13q-26 -46 -11 -61t55 -28q80 -25 227 3q33 6 60.5 -13 t33.5 -51.5t-13 -60t-51 -33.5q-186 -34 -305 3q-189 58 -171 216q9 87 67 145q-47 36 -60 68t-23 72.5t1 85t27.5 67t34.5 43.5q42 48 133.5 79t209.5 21q1 50 -6.5 86.5t10.5 64.5t50.5 34.5t60.5 -11.5t34 -51q21 -100 1 -227z"/>
            <glyph unicode="&#xad;" horiz-adv-x="0"
                   d="M-133 -292q-41 -63 -123 -97q-173 -70 -516.5 -67t-454.5 119q-67 69 -49 123q11 31 40.5 45.5t61 4t46.5 -40.5q44 -89 309 -91q490 -4 552 92q18 27 50.5 34t60 -11t34.5 -50.5t-11 -60.5z"/>
            <glyph unicode="&#x964;" horiz-adv-x="1000"
                   d="M480 -7q-3 -33 -28.5 -54.5t-58.5 -18.5t-54.5 28.5t-18.5 58.5q55 593 1 1186q-3 33 18 58.5t54 28.5t58.5 -18.5t28.5 -54.5q55 -607 0 -1214z"/>
            <glyph unicode="&#x965;"
                   d="M873 -4q-3 -33 -28.5 -54.5t-58.5 -18.5t-54.5 28.5t-18.5 58.5q55 593 1 1186q-3 33 18 58.5t54 28.5t58.5 -18.5t28.5 -54.5q55 -607 0 -1214zM480 -7q-3 -33 -28.5 -54.5t-58.5 -18.5t-54.5 28.5t-18.5 58.5q55 593 1 1186q-3 33 18 58.5t54 28.5t58.5 -18.5 t28.5 -54.5q55 -607 0 -1214z"/>
            <glyph unicode="&#xa01;" horiz-adv-x="0"
                   d="M-306 2100q34 -48 37.5 -68t1.5 -41q-4 -44 -13 -59q-12 -21 -23 -33q-52 -35 -67 -38l-35 -4q-54 5 -72 16q-37 22 -61 70q-11 21 -11 55q8 66 34 96q39 47 108 47q57 -9 80 -24zM45 2020q56 -219 -208 -375t-473 -53q-275 138 -244 432q4 32 30 53t58.5 17.5 t53.5 -29.5t18 -59q-20 -183 156 -270q130 -65 323 49q157 93 131 195q-8 32 8.5 60.5t49 37t61 -8.5t36.5 -49z"/>
            <glyph unicode="&#xa02;" horiz-adv-x="0"
                   d="M-99 1701q34 -48 37.5 -68t1.5 -41q-4 -44 -13 -59q-12 -21 -23 -33q-52 -35 -67 -38l-35 -4q-54 5 -72 16q-37 22 -61 70q-11 21 -11 55q8 66 34 96q39 47 108 47q57 -9 80 -24z"/>
            <glyph unicode="&#xa03;" horiz-adv-x="800"
                   d="M408.5 480q124.5 0 200.5 -76t76 -195.5t-85.5 -205t-215 -83.5t-197 79.5t-67.5 197t82 201.5t206.5 82zM525 208q0 112 -117 112q-58 0 -93 -35t-35 -105.5t53 -91.5q20 -8 68 -8.5t86 37.5t38 91zM408.5 1280q124.5 0 200.5 -75.5t76 -195.5t-85.5 -205t-215 -83.5 t-197 79.5t-67.5 197.5t82 201t206.5 81.5zM525 1009q0 111 -117 111q-58 0 -93 -35t-35 -105.5t53 -90.5q20 -8 68 -8.5t86 37.5t38 91z"/>
            <glyph unicode="&#xa05;" horiz-adv-x="1800"
                   d="M347 1280q162 -3 265 -105q81 -81 99 -238q393 37 558 -128q84 -84 105 -214h146v566q0 11 11.5 38.5t19.5 35.5l33 23q32 21 130 22h86q33 1 56.5 -22.5t23.5 -56.5t-23 -56.5t-57 -24.5h-85q-21 0 -35 -1v-573q6 -14 6 -31t-6 -31v-484q0 -33 -23.5 -56.5t-56.5 -23.5 t-56.5 23.5t-23.5 56.5v435h-141q-15 -276 -137 -398q-81 -81 -195 -92q-165 -15 -225 122q-41 96 -19 267q13 107 79 172q89 89 258 89h71q-16 62 -55 101q-113 113 -441 80q-12 -489 -253 -558q-182 -53 -276 43.5t-50 353.5q38 227 416 299q-12 106 -61 155t-145 51h-346 q-33 0 -56.5 23.5t-23.5 56.5t23.5 56.5t56.5 23.5h347zM555 753q-242 -50 -261 -163q-30 -177 11 -222q22 -23 105 1t121 184q20 83 24 200zM1218 435h-78q-103 0 -137.5 -34.5t-41.5 -86.5q-20 -158 19 -200q15 -17 65 -7q156 30 173 328z"/>
            <glyph unicode="&#xa06;" horiz-adv-x="2200"
                   d="M347 1280q162 -3 265 -105q81 -81 99 -238q393 37 558 -128q84 -84 105 -214h146v566q0 11 11.5 38.5t19.5 35.5l33 23q32 21 130 22h86q33 1 56.5 -22.5t23.5 -56.5t-23 -56.5t-57 -24.5h-85q-21 0 -35 -1v-573q6 -14 6 -31t-6 -31v-484q0 -33 -23.5 -56.5t-56.5 -23.5 t-56.5 23.5t-23.5 56.5v435h-141q-15 -276 -137 -398q-81 -81 -195 -92q-165 -15 -225 122q-41 96 -19 267q13 107 79 172q89 89 258 89h71q-16 62 -55 101q-113 113 -441 80q-12 -489 -253 -558q-182 -53 -276 43.5t-50 353.5q38 227 416 299q-12 106 -61 155t-145 51h-346 q-33 0 -56.5 23.5t-23.5 56.5t23.5 56.5t56.5 23.5h347zM555 753q-242 -50 -261 -163q-30 -177 11 -222q22 -23 105 1t121 184q20 83 24 200zM1218 435h-78q-103 0 -137.5 -34.5t-41.5 -86.5q-20 -158 19 -200q15 -17 65 -7q156 30 173 328zM2205 1280q33 0 56.5 -23.5 t23.5 -56.5t-23.5 -56.5t-56.5 -23.5h-121q13 -368 -57 -735q-6 -33 -33.5 -51.5t-60 -12t-51 33.5t-12.5 60q67 353 54 705h-124q-33 0 -56.5 23.5t-23.5 56.5t23.5 56.5t56.5 23.5h199h2h2h202z"/>
            <glyph unicode="&#xa07;" horiz-adv-x="1600"
                   d="M770 1270q37 21 76 1q74 2 187.5 13.5t230.5 3.5t341 -8q33 0 56.5 -23.5t23.5 -56.5t-23.5 -56.5t-67 -23.5h-91.5l-23 -404q-3 -44 -42.5 -65.5t-78.5 1.5q-190 113 -406 55q-129 -35 -205.5 -111t-69 -208.5t80.5 -205.5t232 -103q193 -34 400 177q23 24 56 24t57 -23 t24 -56t-23 -57q-266 -272 -544 -223q-208 41 -319.5 152.5t-121.5 286.5q-17 312 250 448q-76 136 -59 304h-5q-145 8 -306 8q-33 0 -56.5 23.5t-23.5 56.5t23.5 56.5t56.5 23.5q164 0 251 -4.5t119 -5.5zM1343 1124q-46 1 -119.5 6.5t-180.5 -5.5t-171 -14 q-18 -144 52 -247q210 53 403 -19zM405 1280q33 0 56.5 -23.5t23.5 -56.5t-23.5 -56.5t-56.5 -23.5h-146q-12 -399 -5 -1119q0 -33 -23 -57t-56 -24t-57 23t-24 56q-7 717 5 1121h-99q-33 0 -56.5 23.5t-23.5 56.5t23.5 56.5t56.5 23.5h106q6 124 14 206q23 205 118 300 q113 114 277 91q75 -10 117 -50q76 -71 79 -204q2 -85 -44 -185q-14 -30 -45 -42t-61 2t-42 45t2 61q48 105 22 178q-14 38 -79 38q-157 1 -184 -252q-9 -75 -14 -188h139z"/>
            <glyph unicode="&#xa08;" horiz-adv-x="1600"
                   d="M1605 1280q33 0 56.5 -23.5t23.5 -56.5t-23.5 -56.5t-56.5 -23.5h-97q-1 -441 -30 -1123q-2 -34 -26 -56t-57.5 -20.5t-55.5 25.5t-21 57q31 710 32 1117h-150q-33 0 -56.5 23.5t-23.5 56.5t23.5 56.5t56.5 23.5h149q-4 276 -28 358t-55 82q-112 0 -162 -105 q-24 -52 -24 -151q0 -33 -23.5 -56.5t-56.5 -23.5t-56.5 23.5t-23.5 56.5q0 135 34 208q98 208 312 208q78 0 135 -56q91 -92 101 -345q4 -90 5 -199h98zM370 1270q37 21 76 1q74 2 187.5 13.5t230.5 3.5t341 -8q33 0 56.5 -23.5t23.5 -56.5t-23.5 -56.5t-67 -23.5h-91.5 l-23 -404q-3 -44 -42.5 -65.5t-78.5 1.5q-190 113 -406 55q-129 -35 -205.5 -111t-69 -208.5t80.5 -205.5t232 -103q193 -34 400 177q23 24 56 24t57 -23t24 -56t-23 -57q-266 -272 -544 -223q-208 41 -319.5 152.5t-121.5 286.5q-17 312 250 448q-76 136 -59 304h-5 q-145 8 -306 8q-33 0 -56.5 23.5t-23.5 56.5t23.5 56.5t56.5 23.5q164 0 251 -4.5t119 -5.5zM943 1124q-46 1 -119.5 6.5t-180.5 -5.5t-171 -14q-18 -144 52 -247q210 53 403 -19z"/>
            <glyph unicode="&#xa09;" horiz-adv-x="1400"
                   d="M919 1284l200 7q-9 263 -92 346t-307 83q-177 0 -270.5 -93.5t-131.5 -261.5q-10 -42 -17 -85h380q40 0 103 3.5t135 0.5zM947 1123q-96 -3 -266 -3h-400q-16 -219 26 -438q214 7 392 7t307 -9q33 -3 64 91.5t40 171.5t8 95q-2 54 -121 78q-23 4 -50 7zM1254 1132 q32 -61 22 -141q-36 -321 -147 -424q83 -91 57 -233q-33 -181 -136 -284q-130 -130 -357 -130q-152 0 -335 114q-18 11 -32 31q-52 73 -156 492q-69 281 -49 563h-121q-33 0 -56.5 23.5t-23.5 56.5t23.5 56.5t56.5 23.5h139q9 60 23 121q48 212 167 332q147 147 391 147 q358 0 471 -196q78 -135 88 -391q94 -2 136 -12.5t59 -39t9 -61t-36.5 -49.5t-61 -9t-131.5 10zM1007 463q-60 62 -246.5 64.5t-416.5 -4.5q81 -322 112 -365q90 -78 244 -78t229 75.5t99 206.5q12 66 -21 101zM1223 -292q-41 -63 -123 -97q-173 -70 -516.5 -67t-454.5 119 q-67 69 -49 123q11 31 40.5 45.5t61 4t46.5 -40.5q44 -89 309 -91q490 -4 552 92q18 27 50.5 34t60 -11t34.5 -50.5t-11 -60.5z"/>
            <glyph unicode="&#xa0a;" horiz-adv-x="1400"
                   d="M919 1284l200 7q-9 263 -92 346t-307 83q-177 0 -270.5 -93.5t-131.5 -261.5q-10 -42 -17 -85h380q40 0 103 3.5t135 0.5zM947 1123q-96 -3 -266 -3h-400q-16 -219 26 -438q214 7 392 7t307 -9q33 -3 64 91.5t40 171.5t8 95q-2 54 -121 78q-23 4 -50 7zM1254 1132 q32 -61 22 -141q-36 -321 -147 -424q83 -91 57 -233q-33 -181 -136 -284q-130 -130 -357 -130q-152 0 -335 114q-18 11 -32 31q-52 73 -156 492q-69 281 -49 563h-121q-33 0 -56.5 23.5t-23.5 56.5t23.5 56.5t56.5 23.5h139q9 60 23 121q48 212 167 332q147 147 391 147 q358 0 471 -196q78 -135 88 -391q94 -2 136 -12.5t59 -39t9 -61t-36.5 -49.5t-61 -9t-131.5 10zM1007 463q-60 62 -246.5 64.5t-416.5 -4.5q81 -322 112 -365q90 -78 244 -78t229 75.5t99 206.5q12 66 -21 101zM1195 -640q-41 -63 -123 -97q-173 -70 -516.5 -67t-454.5 119 q-67 69 -49 123q11 31 40.5 45.5t61 4t46.5 -40.5q44 -89 309 -91q490 -4 552 92q18 27 50.5 34t60 -11t34.5 -50.5t-11 -60.5zM1211 -264q-41 -63 -123 -97q-173 -70 -516.5 -67t-454.5 119q-67 69 -49 123q11 31 40.5 45.5t61 4t46.5 -40.5q44 -89 309 -91q490 -4 552 92 q18 27 50.5 34t60 -11t34.5 -50.5t-11 -60.5z"/>
            <glyph unicode="&#xa0f;"
                   d="M133 1720q154 230 493 112q439 -154 454 -432q2 -33 -20.5 -57.5t-55.5 -26.5t-57.5 20.5t-26.5 55.5q-4 72 -78.5 146.5t-282.5 147t-292 -53.5q-19 -28 -51.5 -34.5t-60 12t-34 51t11.5 59.5zM370 1270q37 21 76 1q74 2 187.5 13.5t230.5 3.5t341 -8q33 0 56.5 -23.5 t23.5 -56.5t-23.5 -56.5t-67 -23.5h-91.5l-23 -404q-3 -44 -42.5 -65.5t-78.5 1.5q-190 113 -406 55q-129 -35 -205.5 -111t-69 -208.5t80.5 -205.5t232 -103q193 -34 400 177q23 24 56 24t57 -23t24 -56t-23 -57q-266 -272 -544 -223q-208 41 -319.5 152.5t-121.5 286.5 q-17 312 250 448q-76 136 -59 304h-5q-145 8 -306 8q-33 0 -56.5 23.5t-23.5 56.5t23.5 56.5t56.5 23.5q164 0 251 -4.5t119 -5.5zM943 1124q-46 1 -119.5 6.5t-180.5 -5.5t-171 -14q-18 -144 52 -247q210 53 403 -19z"/>
            <glyph unicode="&#xa10;" horiz-adv-x="1800"
                   d="M728 2032q53 104 153 135q141 43 358 -77q373 -207 436 -653q14 -65 -11.5 -92t-59 -29t-57 18t-26.5 48.5t-10 41t-24 29.5q-99 99 -408 203q-152 51 -200 -84q-15 -42 -45 -56t-61 -3t-45 41t-3 61q31 87 82 138q122 122 312.5 58t311.5 -128q-92 168 -259 261 q-207 115 -277 50q-12 -11 -25 -37t-44.5 -36.5t-61 4t-40 46t3.5 61.5zM347 1280q162 -3 265 -105q81 -81 99 -238q393 37 558 -128q84 -84 105 -214h146v566q0 11 11.5 38.5t19.5 35.5l33 23q32 21 130 22h86q33 1 56.5 -22.5t23.5 -56.5t-23 -56.5t-57 -24.5h-85 q-21 0 -35 -1v-573q6 -14 6 -31t-6 -31v-484q0 -33 -23.5 -56.5t-56.5 -23.5t-56.5 23.5t-23.5 56.5v435h-141q-15 -276 -137 -398q-81 -81 -195 -92q-165 -15 -225 122q-41 96 -19 267q13 107 79 172q89 89 258 89h71q-16 62 -55 101q-113 113 -441 80q-12 -489 -253 -558 q-182 -53 -276 43.5t-50 353.5q38 227 416 299q-12 106 -61 155t-145 51h-346q-33 0 -56.5 23.5t-23.5 56.5t23.5 56.5t56.5 23.5h347zM555 753q-242 -50 -261 -163q-30 -177 11 -222q22 -23 105 1t121 184q20 83 24 200zM1218 435h-78q-103 0 -137.5 -34.5t-41.5 -86.5 q-20 -158 19 -200q15 -17 65 -7q156 30 173 328z"/>
            <glyph unicode="&#xa13;" horiz-adv-x="1400"
                   d="M919 1284q90 2 251.5 9.5t253.5 -15.5q33 -8 50 -36.5t9 -61t-36.5 -49.5t-61 -9t-131.5 10q32 -61 22 -141q-36 -321 -147 -424q83 -91 57 -233q-33 -181 -136 -284q-130 -130 -357 -130q-152 0 -335 114q-18 11 -32 31q-52 73 -156 496q-69 280 -50 559h-120 q-33 0 -56.5 23.5t-23.5 56.5t23.5 56.5t56.5 23.5h138q10 61 24 121q84 362 412 475q241 83 522 1q212 -62 207 -210q-1 -33 -25 -55.5t-57.5 -21.5t-56 25t-21.5 58q0 3 -14 17t-79 33q-231 68 -424 1q-107 -37 -196 -125.5t-129 -318.5h380q40 0 103 3.5t135 0.5z M947 1123q-96 -3 -266 -3h-401q-16 -218 27 -438q214 7 392 7t307 -9q33 -3 64 91.5t40 171.5t8 95q-2 54 -121 78q-23 4 -50 7zM1007 463q-60 62 -246.5 64.5t-416.5 -4.5q81 -322 112 -365q84 -78 241 -78t232 75.5t99 206.5q12 66 -21 101z"/>
            <glyph unicode="&#xa14;" horiz-adv-x="1800"
                   d="M866 2100.5q23 -23.5 24 -78.5t10.5 -80.5t32.5 -47.5t41 -33.5t38 -5.5q277 87 481 15q151 -29 193 -180q51 -163 -1 -315q-11 -32 -40.5 -46.5t-61 -3.5t-46 40.5t-3.5 61.5q35 103 -1 216q-14 44 -76 70q-123 13 -171.5 -101.5t-9.5 -172.5q18 -28 11.5 -60.5t-34 -51 t-60 -12t-50.5 34.5q-86 129 -7 318q14 33 33 62q-52 -10 -109 -28q-117 -36 -233 72q-54 51 -75 107.5t-22 162.5q-1 33 22.5 56.5t57 23.5t56.5 -23.5zM347 1280q162 -3 265 -105q81 -81 99 -238q393 37 558 -128q84 -84 105 -214h146v566q0 11 11.5 38.5t19.5 35.5l33 23 q32 21 130 22h86q33 1 56.5 -22.5t23.5 -56.5t-23 -56.5t-57 -24.5h-85q-21 0 -35 -1v-573q6 -14 6 -31t-6 -31v-484q0 -33 -23.5 -56.5t-56.5 -23.5t-56.5 23.5t-23.5 56.5v435h-141q-15 -276 -137 -398q-81 -81 -195 -92q-165 -15 -225 122q-41 96 -19 267q13 107 79 172 q89 89 258 89h71q-16 62 -55 101q-113 113 -441 80q-12 -489 -253 -558q-182 -53 -276 43.5t-50 353.5q38 227 416 299q-12 106 -61 155t-145 51h-346q-33 0 -56.5 23.5t-23.5 56.5t23.5 56.5t56.5 23.5h347zM555 753q-242 -50 -261 -163q-30 -177 11 -222q22 -23 105 1 t121 184q20 83 24 200zM1218 435h-78q-103 0 -137.5 -34.5t-41.5 -86.5q-20 -158 19 -200q15 -17 65 -7q156 30 173 328z"/>
            <glyph unicode="&#xa15;"
                   d="M1205 1280q33 0 56.5 -23.5t23.5 -56.5t-23.5 -56.5t-56.5 -23.5h-79q18 -375 -166 -618q99 -191 181 -480q9 -32 -7 -61t-48 -38t-61 7t-38 48q-67 236 -143 398q-236 -219 -464 -196q-148 16 -229 97q-103 102 -85 290q12 118 97 203t275 110q240 33 430 -228 q113 188 98 468h-966q-33 0 -56.5 23.5t-23.5 56.5t23.5 56.5t56.5 23.5h1038h2.5h3.5h161zM764 521q-145 222 -317 199q-124 -16 -170 -62t-51 -107q-11 -112 34 -157t136 -54q169 -18 368 181z"/>
            <glyph unicode="&#xa16;"
                   d="M1091 1120q-15 -58 -18.5 -249t-6.5 -318.5t4 -345.5q19 -34 3 -71q3 -67 6.5 -115.5t-18 -73.5t-55 -27t-58.5 19.5t-27 55.5l-2 28q-180 -87 -466 -103q-206 -12 -322 158q-85 125 -33 341q7 30 34 48q118 77 162 159q3 8 7 15q19 65 19 327q0 65 -37 102t-130.5 51.5 t-125 3t-61.5 2.5t-41.5 45.5t2.5 61.5q37 79 254 45q142 -22 220.5 -101t78.5 -220t-8 -236q174 45 438 47q3 127 10 260q12 251 140 251h145q33 0 56.5 -23.5t23.5 -56.5t-23.5 -56.5t-56.5 -23.5h-114zM911 202q-7 192 -4 407q-319 -3 -478 -70q-59 -100 -182 -187 q-24 -124 16 -183q65 -96 181 -89q311 17 467 122z"/>
            <glyph unicode="&#xa17;" horiz-adv-x="1400"
                   d="M765 1280h640q33 0 56.5 -23.5t23.5 -56.5t-23.5 -56.5t-56.5 -23.5h-109q64 -403 38 -1123q-1 -33 -25 -55.5t-57 -21.5t-56 25.5t-21 57.5q26 728 -41 1117h-282q71 -557 40 -927q-17 -211 -385 -272q-174 -29 -275 72q-120 121 -117 408q2 201 115 313 q153 153 492 118q-12 137 -31 288h-691q-33 0 -56.5 23.5t-23.5 56.5t23.5 56.5t56.5 23.5h758h3.5h3.5zM734 670q-286 36 -391 -69q-66 -66 -68 -202q-2 -220 69 -291q44 -44 137 -29q245 41 252 128q16 201 1 463z"/>
            <glyph unicode="&#xa18;" horiz-adv-x="1600"
                   d="M188 1280q144 0 206 -123q31 -61 37 -152q27 -440 -158 -579q-19 -111 0 -153q78 -176 144 -193q199 1 267 70q35 34 35 78t5 59q23 360 -4 839q-2 34 20 58.5t55.5 26.5t58 -20t26.5 -55q29 -510 2 -890q19 -177 130 -179q288 -5 309 158q29 227 -14 970q-2 35 21.5 60 t57.5 25h214q33 0 56.5 -23.5t23.5 -56.5t-23.5 -56.5t-56.5 -23.5h-129q36 -661 10 -898q1 -5 1 -11l-5 -213q0 -33 -24 -56t-57 -22t-50.5 19t-22.5 32q-119 -68 -316 -64q-140 3 -219 121q-118 -108 -378 -108q-71 0 -145 71t-138 217q-42 96 -5 282q7 37 31.5 50.5 t37.5 26.5q100 100 80 428q-5 79 -26.5 102t-56.5 23h-188q-33 0 -56.5 23.5t-23.5 56.5t23.5 56.5t56.5 23.5h188z"/>
            <glyph unicode="&#xa19;"
                   d="M1205 1280q33 0 56.5 -23.5t23.5 -56.5t-23.5 -56.5t-56.5 -23.5h-922q25 -135 18 -263q227 108 470 36q114 -34 181 -101q136 -137 65 -379q-29 -97 -83 -175l140 -192q19 -27 13 -60t-33 -52t-60 -13t-52 33l-118 164q-114 -95 -262 -137q-268 -77 -355 19 q-41 45 -49.5 93.5t3.5 113.5q26 132 107 213q116 116 332 116q10 0 25.5 -3.5t19.5 -4.5q50 -19 98.5 -67.5t84.5 -89.5q21 41 35 88q45 150 -24 220q-39 38 -114 60q-248 74 -476 -102q-45 -35 -92 -4.5t-35 84.5q42 191 -2 403h-120q-33 0 -56.5 23.5t-23.5 56.5 t23.5 56.5t56.5 23.5h1205zM725 244q-94 113 -132 132q-237 -3 -271 -183q-13 -67 -5 -76q28 -33 174 9.5t234 117.5z"/>
            <glyph unicode="&#xa1a;" horiz-adv-x="1400"
                   d="M1405 1280q33 0 56.5 -23.5t23.5 -56.5t-23.5 -56.5t-56.5 -23.5h-123q34 -504 -2 -887q-11 -116 -87 -192q-121 -121 -401 -121q-209 0 -313.5 104.5t-56.5 317.5q19 84 30 153q-51 2 -120 6q-119 8 -189.5 76.5t-40.5 190.5q42 165 253 208q120 25 200 -55t74 -269 q237 -1 509 22q0 209 -16 446h-1122q-33 0 -56.5 23.5t-23.5 56.5t23.5 56.5t56.5 23.5h1405zM615 492q-4 -26 -11 -60l-14 -73q-7 -39 -12 -53q-29 -126 21.5 -176t192.5 -50q213 0 288 75q35 35 40 92q12 126 16 266q-277 -22 -521 -21zM469 654q4 123 -31 157 q-15 15 -70 4q-93 -19 -110 -87q-9 -32 -1 -39q27 -24 92 -28.5t120 -6.5z"/>
            <glyph unicode="&#xa1b;"
                   d="M1205 1280q33 0 56.5 -23.5t23.5 -56.5t-23.5 -56.5t-56.5 -23.5h-116q9 -128 -10 -271q-6 -47 -28.5 -68t-28.5 -26q-79 -65 -367 -32.5t-340 13.5q-27 -30 -39 -144q-4 -33 7 -43q75 -70 361 -41q232 23 330.5 -75.5t85.5 -255.5t-135 -213q-52 -23 -110 -26l-425 -17 q-149 -4 -219.5 71t-55 207.5t94.5 202.5q-108 72 -93.5 206.5t52 195.5t79.5 78q94 37 354.5 7.5t319.5 -7.5q16 126 7 238h-929q-33 0 -56.5 23.5t-23.5 56.5t23.5 56.5t56.5 23.5h997h4h4h200zM521 86q10 87 -19 203q-4 17 -11 24t-28 7q-108 1 -144.5 -35.5t-43.5 -99 t13 -85t79.5 -20.5t132.5 5zM682 93l116 5q56 2 77.5 22t24.5 65q7 88 -31 127q-57 54 -217 36l6 -21q32 -128 24 -234z"/>
            <glyph unicode="&#xa1c;" horiz-adv-x="1400"
                   d="M1171 1280q26 8 51 0h183q33 0 56.5 -23.5t23.5 -56.5t-23.5 -56.5t-56.5 -23.5h-120q23 -240 20 -497q7 -25 -1 -48q-5 -282 -41 -584q-3 -33 -29 -53.5t-59 -17t-53.5 29.5t-16.5 59q30 262 38 508l-431 -18q-5 -204 -36 -507q-4 -33 -29.5 -54t-58.5 -17.5t-54 29 t-18 58.5q30 286 35 485l-124 -5q-133 -5 -202.5 62t-56.5 193q27 250 256 269q93 8 156.5 -29.5t94 -101.5t36.5 -222l434 18q0 229 -21 443h-1124q-33 0 -56.5 23.5t-23.5 56.5t23.5 56.5t56.5 23.5h1171zM541 770q-12 90 -94 83q-107 -8 -117 -102q-8 -74 3 -83 q24 -23 88 -20l129 5q-3 66 -9 117z"/>
            <glyph unicode="&#xa1d;"
                   d="M1285 1200q0 -33 -23.5 -56.5t-56.5 -23.5h-182q-79 -175 -274 -275q112 -25 178 -91q132 -131 58 -388q-12 -42 -55 -112q87 -98 140 -223q13 -30 0.5 -61t-43 -44t-61.5 -0.5t-44 43.5q-34 80 -86 148l-28 -37q-95 -125 -377 -148q-162 -13 -245 67t-66 225 q9 76 67 134t135 94q199 95 391 -19q52 -31 98 -67q15 27 20 44q48 166 -17 231q-34 34 -118 52t-177 71q-141 -34 -318 -44q-34 -2 -58.5 20t-26.5 55.5t20 58t55 26.5q82 5 154 14q-98 93 -188 226h-157q-33 0 -56.5 23.5t-23.5 56.5t23.5 56.5t56.5 23.5h1205 q33 0 56.5 -23.5t23.5 -56.5zM839 1120h-484q93 -115 191 -184q202 61 293 184zM722 232q-42 34 -91 63q-119 71 -241 13q-51 -25 -90.5 -64t-18.5 -100.5t136 -51.5q212 17 263 84z"/>
            <glyph unicode="&#xa1e;"
                   d="M1285 1200q0 -33 -23.5 -56.5t-56.5 -23.5h-114l-19 -325q-2 -36 -30.5 -58t-64.5 -16q-154 29 -408 8q-30 -15 -61 -6l-27 -3q-216 -23 -193 -169q8 -31 24 -43q62 -50 256 -27q251 52 425 22q33 -6 52 -33t13.5 -59.5t-32.5 -51.5t-59 -14q-124 21 -214 4l-164 -27 q-118 -25 -127 -138q-5 -58 5 -69q89 -88 516 -1q33 7 60.5 -11t34.5 -50.5t-11 -60.5t-50 -34q-345 -71 -486 -41q-248 52 -231 258q8 88 40 150q-106 20 -160 89l-18 24q-44 62 -34 166t87 180q39 40 104 64q-137 121 -162 272h-157q-33 0 -56.5 23.5t-23.5 56.5 t23.5 56.5t56.5 23.5h231h1h2h756q25 9 52 0h163q33 0 56.5 -23.5t23.5 -56.5zM931 1120h-609q38 -129 218 -233q221 20 377 4z"/>
            <glyph unicode="&#xa1f;"
                   d="M1205 1280q33 0 56.5 -23.5t23.5 -56.5t-23.5 -56.5t-56.5 -23.5h-140l19 -315q2 -44 -33 -69.5t-76 -9.5q-244 95 -398 25q-260 -119 -296.5 -324t35.5 -277q35 -35 99 -48q217 -42 439 62q51 25 68 40q6 23 28 42.5t55 17.5t55 -27t19 -65q-5 -81 -157 -152 q-269 -127 -537 -74q-113 22 -182 91q-132 131 -80 418.5t388 441.5q173 79 406 16l-12 207h-905q-33 0 -56.5 23.5t-23.5 56.5t23.5 56.5t56.5 23.5h979h2h2h222z"/>
            <glyph unicode="&#xa20;"
                   d="M1285 1200q0 -33 -23.5 -56.5t-56.5 -23.5h-516q-16 -129 3 -238q84 -2 169 -30q227 -74 235 -414q7 -293 -202 -422q-277 -171 -544 -46.5t-258 432.5q7 244 262 388q89 50 178 73q-19 120 -4 257h-528q-33 0 -56.5 23.5t-23.5 56.5t23.5 56.5t56.5 23.5h1205 q33 0 56.5 -23.5t23.5 -56.5zM936 447q-5 214 -125 253q-185 60 -370 -44.5t-189 -252.5q-6 -209 162 -286q193 -90 396 35q131 81 126 295z"/>
            <glyph unicode="&#xa21;"
                   d="M1074 1120q32 -248 -107 -337q215 -243 87 -550q-58 -139 -197 -218q-17 -16 -44 -22q-135 -63 -312 -72q-249 -14 -329 93q-90 105 -7 307q26 65 71 109q143 143 428 32q178 -70 220 -209q13 20 22 42q49 123 25.5 229.5t-143.5 210.5q-208 -26 -397 -15q-33 2 -55 26.5 t-20 58t26.5 55.5t58.5 20q204 -12 435 23q45 7 63 35q35 53 14 182h-913q-33 0 -56.5 23.5t-23.5 56.5t23.5 56.5t56.5 23.5h1205q33 0 56.5 -23.5t23.5 -56.5t-23.5 -56.5t-56.5 -23.5h-131zM733 133q13 77 -26.5 116t-100.5 63q-188 74 -258 4q-21 -21 -42 -71 q-46 -114 5 -143t184.5 -21t237.5 52z"/>
            <glyph unicode="&#xa22;" horiz-adv-x="1600"
                   d="M1685 1200q0 -33 -23.5 -56.5t-56.5 -23.5h-364q14 -107 16 -176q5 -153 -50 -202q-17 -16 -24 -20q-111 -81 -517 -155q-9 -53 -22 -113q-65 -289 4 -357q16 -16 47 -17l60 -2q30 229 137 337q78 77 227 92t245 -73.5t67 -286.5q-9 -58 -59 -109q-138 -138 -683 -118 q-174 6 -221 188q-35 136 25 406l7 31q-216 -15 -298 67q-53 53 -49.5 141.5t73.5 158t229 87.5q102 12 166.5 -53.5t61.5 -212.5q338 63 408 119q19 54 -12 268h-1079q-33 0 -56.5 23.5t-23.5 56.5t23.5 56.5t56.5 23.5h1605q33 0 56.5 -23.5t23.5 -56.5zM525 708 q8 98 -20 128q-7 7 -32 5q-158 -18 -161 -90q-1 -22 4.5 -27.5t20.5 -10.5q59 -20 188 -5zM1273 173q17 125 -29 153t-123.5 20.5t-115.5 -45.5q-65 -65 -88 -222q110 4 193 19q156 27 163 75z"/>
            <glyph unicode="&#xa23;" horiz-adv-x="1400"
                   d="M1405 1280q33 0 56.5 -23.5t23.5 -56.5t-23.5 -56.5t-56.5 -23.5h-551q23 -51 43 -117q107 -88 313 -124q32 -6 51.5 -33t13.5 -59.5t-33 -52t-60 -13.5q-135 24 -237 68q10 -60 18 -124t-49 -87t-94 26q-95 128 -263 72q-90 -30 -148 -88q-107 -107 -113 -326 q-2 -78 30 -110q100 -100 403 -53q312 45 371 155l22 99q7 33 35 50.5t60.5 10.5t50 -35t10.5 -60l-24 -108q-10 -47 -65 -102q-124 -124 -438 -168q-385 -55 -530 90q-89 89 -85 235q12 442 371 562q150 50 267 8q-8 40 -17 75q-88 88 -120 209h-637q-33 0 -56.5 23.5 t-23.5 56.5t23.5 56.5t56.5 23.5h1405z"/>
            <glyph unicode="&#xa24;" horiz-adv-x="1400"
                   d="M1405 1280q33 0 56.5 -23.5t23.5 -56.5t-23.5 -56.5t-56.5 -23.5h-314q52 -199 -47 -314q76 -41 125 -90q131 -131 91 -299q-92 -394 -567 -472q-232 -36 -348 -33q-170 5 -216 93q-15 29 -5 61t39 47t59 5.5t45 -33.5q63 -38 400 18q370 61 435 339q22 93 -40.5 155.5 t-183.5 107.5q-154 -47 -346 -29q-33 4 -54 29.5t-17.5 58.5t29 54t58.5 18q150 -15 273 19q22 17 48 17q29 13 47 31q61 61 8 217h-924q-33 0 -56.5 23.5t-23.5 56.5t23.5 56.5t56.5 23.5h1405z"/>
            <glyph unicode="&#xa25;"
                   d="M1091 1120q-15 -58 -18.5 -249t-6.5 -318.5t4 -345.5q19 -34 3 -71q3 -67 6.5 -115.5t-18 -73.5t-55 -27t-58.5 19.5t-27 55.5l-2 28q-180 -87 -466 -103q-206 -12 -322 158q-85 125 -33 341q7 30 34 48q118 77 162 159q3 9 8 17q17 54 18 325q0 65 -35.5 100.5 t-130.5 51.5t-126.5 4.5t-61.5 2.5t-41.5 45.5t2.5 61.5q37 78 251 46q167 -14 478.5 0.5t409.5 -0.5h139q33 0 56.5 -23.5t23.5 -56.5t-23.5 -56.5t-56.5 -23.5h-114zM911 202q-7 192 -4 407q-319 -3 -478 -70q-60 -101 -182 -187q-24 -124 16 -183q65 -96 181 -89 q311 17 467 122zM472 722q173 45 438 47q8 293 21 360q-95 0 -241.5 -7t-241.5 -8q47 -92 24 -392z"/>
            <glyph unicode="&#xa26;" horiz-adv-x="1400"
                   d="M1405 1280q33 0 56.5 -23.5t23.5 -56.5t-23.5 -56.5t-56.5 -23.5h-140q21 -346 -13 -443q-17 -49 -60 -67q-218 -89 -473 -123q-64 -280 -30 -382q5 -14 11.5 -20.5t24.5 -4.5q321 24 400 63q6 15 24 33t51 18t56.5 -23.5t23.5 -62.5q0 -114 -251 -156q-111 -18 -292 -32 q-91 -7 -150 52q-115 115 -35 500q-236 -7 -328.5 87t-67.5 228q36 191 310 213q168 14 241 -114q49 -84 38 -235q187 29 362 97q17 80 -2 372h-1105q-33 0 -56.5 23.5t-23.5 56.5t23.5 56.5t56.5 23.5h1177h3h2h223zM583 634q23 187 -60 204q-58 12 -116 -7.5t-80.5 -42 t-16 -59.5t20.5 -51q54 -55 252 -44z"/>
            <glyph unicode="&#xa27;"
                   d="M1285 1200q0 -33 -23.5 -56.5t-56.5 -23.5h-114q-8 -30 -11 -97q-23 -450 -10 -816q19 -34 3 -71q3 -67 6.5 -115.5t-18 -73.5t-55 -27t-58.5 19.5t-27 55.5l-2 28q-180 -87 -466 -103q-206 -12 -322 158q-85 125 -33 341q7 30 34 48q124 82 167 169q20 40 21 332 q0 65 -35.5 100.5t-130.5 51.5t-126.5 4.5t-61.5 2.5t-41.5 45.5t2.5 61.5q37 78 251 46q167 -14 478.5 0.5t409.5 -0.5h139q33 0 56.5 -23.5t23.5 -56.5zM911 202q-14 370 9 829q3 55 11 98q-95 0 -241.5 -7t-241.5 -8q32 -62 32 -146q-1 -330 -36 -400q-58 -118 -197 -216 q-24 -124 16 -183q65 -96 181 -89q311 17 467 122z"/>
            <glyph unicode="&#xa28;"
                   d="M1205 1280q33 0 56.5 -23.5t23.5 -56.5t-23.5 -56.5t-56.5 -23.5h-509q19 -144 13 -241q171 -14 263 -106q122 -121 108 -342q-28 -447 -273 -509q-32 -8 -60.5 9t-36.5 49.5t9 61t50 36.5q131 32 151 363q9 149 -58 216.5t-229 63.5q4 1 -32 -1q-125 -7 -195 -77 q-91 -91 -102 -284.5t31 -255.5l8 -9q18 -18 52 -14.5t59.5 -17.5t29 -54t-17.5 -58.5t-54 -29.5q-137 -13 -209.5 94t-58 358t148.5 384q100 100 256 120q8 86 -14 244h-535q-33 0 -56.5 23.5t-23.5 56.5t23.5 56.5t56.5 23.5h1205z"/>
            <glyph unicode="&#xa2a;"
                   d="M1285 1200q0 -33 -23.5 -56.5t-56.5 -23.5h-114q-8 -30 -11 -97q-23 -450 -10 -816q19 -34 3 -71q3 -67 6.5 -115.5t-18 -73.5t-55 -27t-58.5 19.5t-27 55.5l-2 28q-180 -87 -466 -103q-206 -12 -322 158q-85 125 -33 341q7 30 34 48q124 82 167 169q20 40 21 332 q0 65 -37 102t-130.5 51.5t-125 3t-61.5 2.5t-41.5 45.5t2.5 61.5q37 79 256 45q140 -22 218.5 -101t78.5 -210q-1 -330 -36 -400q-58 -118 -197 -216q-24 -124 16 -183q65 -96 181 -89q311 17 467 122q-14 370 9 829q12 249 140 249h145q33 0 56.5 -23.5t23.5 -56.5z"/>
            <glyph unicode="&#xa2b;"
                   d="M1205 1280q33 0 56.5 -23.5t23.5 -56.5t-23.5 -56.5t-56.5 -23.5h-134q51 -227 -8 -317q-14 -21 -46 -43q-70 -47 -370 -60q-323 -14 -367 -358q-27 -207 19 -252q10 -10 88 -12q30 229 137 336q78 78 227 93t248 -76q81 -74 71 -218q-2 -27 -8.5 -75.5t-57.5 -99.5 q-138 -138 -683 -118q-126 5 -179 121q-35 77 -32.5 164t11.5 154q30 230 160.5 360.5t362 140.5t286.5 35q17 68 -23 225h-907q-33 0 -56.5 23.5t-23.5 56.5t23.5 56.5t56.5 23.5h1205zM549 79q110 4 193 19q156 27 163 75q17 125 -29 153t-123.5 20.5t-115.5 -45.5 q-65 -65 -88 -222z"/>
            <glyph unicode="&#xa2c;"
                   d="M1205 1280q33 0 56.5 -23.5t23.5 -56.5t-23.5 -56.5t-56.5 -23.5h-115q17 -932 -7 -1130q-4 -32 -30 -52.5t-58.5 -16.5t-52 28.5t-18.5 52.5q-450 -126 -618 -30q-124 72 -110 236q18 192 94 303q-161 67 -149.5 276.5t73.5 332.5h-214q-33 0 -56.5 23.5t-23.5 56.5 t23.5 56.5t56.5 23.5h1205zM516 486q-136 -29 -160 -294q-6 -60 24 -77q125 -72 554 56q4 135 3 356q-135 -26 -416 -40q-3 -1 -5 -1zM929 1120h-506q-105 -50 -123 -346q-6 -88 38 -111t122 -19q367 16 476 46q-2 190 -7 430z"/>
            <glyph unicode="&#xa2d;"
                   d="M1205 1280q33 0 56.5 -23.5t23.5 -56.5t-23.5 -56.5t-56.5 -23.5h-124q-15 -244 -114 -435q153 -190 28 -532q-79 -218 -399 -233q-355 -17 -433 62q-43 43 -43 85t23.5 65.5t56.5 23.5t52.5 -19.5t25.5 -40.5q68 -29 329 -16q195 10 238 127q76 209 26 329 q-76 -96 -178 -175q-145 -112 -399 -38q-89 26 -132 79l-17 21q-22 30 -35.5 94t9.5 149q67 249 387 216q211 -23 334 -91q67 146 81 329h-921q-33 0 -56.5 23.5t-23.5 56.5t23.5 56.5t56.5 23.5h1003h1h1h200zM759 653q-93 51 -249 67.5t-208 -35.5q-17 -17 -34 -81 q-27 -99 70 -127q176 -52 264.5 16t156.5 160z"/>
            <glyph unicode="&#xa2e;" horiz-adv-x="1600"
                   d="M258 1280q332 0 417 -219q49 -128 49 -324q324 50 407 52t108 2l102 -1q-2 179 -21 354q3 56 12 74q33 62 108 62h165q33 0 56.5 -23.5t23.5 -56.5t-23.5 -56.5t-56.5 -23.5h-121q19 -206 17 -418q4 -19 0 -38q-7 -331 -66 -678q-6 -32 -33 -51t-59.5 -13.5t-51.5 32.5 t-14 60q54 315 63 617q-137 18 -624 -58q-47 -518 -201 -591q-237 -113 -334 -11q-40 42 -53.5 116t23 232t141.5 263t271 129q5 182 -39 295.5t-266 113.5h-258q-33 0 -56.5 23.5t-23.5 56.5t23.5 56.5t56.5 23.5h258zM552 546q-195 -46 -250 -282q-25 -107 -18.5 -141 t11 -39t39.5 0.5t73 23.5t41 20q65 70 104 418z"/>
            <glyph unicode="&#xa2f;" horiz-adv-x="1398"
                   d="M1101 304q-79 -8 -208 3q12 -107 -14 -272q-5 -29 -27 -48q-121 -103 -413 -66q-219 27 -306 154.5t-35 343.5q7 30 34 48q124 82 167 169q20 40 21 332q0 80 -35.5 115t-117.5 37h-167q-33 0 -56.5 23.5t-23.5 56.5t23.5 56.5t56.5 23.5h168h1h1l14 -1q543 -23 1059 1 h11h151q33 0 56.5 -23.5t23.5 -56.5t-23.5 -56.5t-56.5 -23.5h-121q-8 -30 -11 -97q-29 -579 1 -1018q2 -33 -19.5 -58t-55 -27t-58.5 19.5t-27 55.5q-10 146 -13 309zM1099 464q-1 264 7.5 438.5t15.5 212.5q-329 -11 -667 -4q25 -61 25 -143q-1 -330 -36 -400 q-58 -118 -197 -216q-28 -143 29 -200t182 -73q188 -23 268 16q27 197 -10 267q-24 43 4 83.5t77 33.5q228 -30 302 -15z"/>
            <glyph unicode="&#xa30;" horiz-adv-x="1000"
                   d="M1005 1280q33 0 56.5 -23.5t23.5 -56.5t-23.5 -56.5t-56.5 -23.5h-116q25 -511 -30 -990q-7 -51 -42 -85q-13 -11 -45 -36q-108 -68 -365 -89q-153 -12 -225 63q-56 58 -62 147q-29 422 176 529q242 126 440 93q2 185 -7 368h-729q-33 0 -56.5 23.5t-23.5 56.5t23.5 56.5 t56.5 23.5h803h2h2h198zM700 154q0 1 12 110.5t20 324.5q-153 37 -362 -72q-112 -58 -90 -375q2 -32 13 -43q23 -26 100 -19q248 21 307 74z"/>
            <glyph unicode="&#xa32;" horiz-adv-x="1800"
                   d="M1805 1280q33 0 56.5 -23t23.5 -56.5t-23.5 -57t-56.5 -23.5h-498q-12 -115 -37 -208q226 1 327 -99.5t83 -272.5q-40 -362 -189 -512q-117 -117 -289 -108q-33 2 -55.5 26.5t-20.5 57.5t26.5 55.5t57.5 20.5q101 -6 167 61q110 110 143 417q11 95 -33 138 q-69 70 -281 53q-108 -198 -312 -228q-180 -27 -283 225q-118 -21 -192 -95q-119 -119 -139 -383q-8 -99 34 -140q66 -66 269 -38q33 5 59.5 -15t31 -53t-15.5 -59.5t-53 -30.5q-282 -40 -404 83q-94 93 -81 266q25 322 186 484q103 102 256 135q-26 97 -46 220h-516 q-33 0 -56.5 23.5t-23.5 57t23.5 56.5t56.5 23h1805zM1146 1120h-468q56 -331 144 -419q25 -25 48 -22q127 19 198 150q1 30 24 52q38 97 54 239z"/>
            <glyph unicode="&#xa33;" horiz-adv-x="1800"
                   d="M1805 1280q33 0 56.5 -23t23.5 -56.5t-23.5 -57t-56.5 -23.5h-498q-12 -115 -37 -208q226 1 327 -99.5t83 -272.5q-40 -362 -189 -512q-117 -117 -289 -108q-33 2 -55.5 26.5t-20.5 57.5t26.5 55.5t57.5 20.5q101 -6 167 61q110 110 143 417q11 95 -33 138 q-69 70 -281 53q-108 -198 -312 -228q-180 -27 -283 225q-118 -21 -192 -95q-119 -119 -139 -383q-8 -99 34 -140q66 -66 269 -38q33 5 59.5 -15t31 -53t-15.5 -59.5t-53 -30.5q-282 -40 -404 83q-94 93 -81 266q25 322 186 484q103 102 256 135q-26 97 -46 220h-516 q-33 0 -56.5 23.5t-23.5 57t23.5 56.5t56.5 23h1805zM1146 1120h-468q56 -331 144 -419q25 -25 48 -22q127 19 198 150q1 30 24 52q38 97 54 239zM1706 -97q34 -47 37.5 -67.5t1.5 -40.5q-4 -44 -13 -59q-12 -21 -23 -33q-52 -35 -67 -38l-35 -4q-54 5 -72 16q-37 21 -61 70 q-11 21 -11 55q8 65 34 96q39 47 108 47q57 -9 80 -24z"/>
            <glyph unicode="&#xa35;"
                   d="M1285 1200q0 -33 -23.5 -56.5t-56.5 -23.5h-138q-5 -92 28 -282q7 -42 -23.5 -71.5t-71.5 -20.5q-151 31 -541 -6q-81 -7 -124 -50.5t-56 -136.5q-5 -38 4 -49q38 -43 283 -11q33 9 70 16q25 15 55 10q129 18 295 13q33 -1 56 -25t22 -57t-25 -56t-57 -22 q-168 5 -285 -13q-43 -19 -123 -29q-98 -35 -133.5 -103.5t-30 -93.5t23.5 -36t67.5 -22t395.5 36q17 3 25 5q5 20 25 40t53 20t56.5 -23.5t23.5 -66.5t-39.5 -82.5t-121.5 -50.5q-375 -51 -451 -34q-126 29 -175 93q-29 36 -33.5 61t-6.5 40q-10 80 48 192q5 10 11 20 q-91 10 -130 53l-22 24q-54 63 -37 191t100 211t222 96q306 28 476 17q-16 120 -13 203h-908q-33 0 -56.5 23.5t-23.5 56.5t23.5 56.5t56.5 23.5h1205q33 0 56.5 -23.5t23.5 -56.5z"/>
            <glyph unicode="&#xa36;" horiz-adv-x="1600"
                   d="M537 436q-212 -40 -234 -168q-26 -145 4 -177q19 -20 138 35l5 5q50 55 87 305zM557 601q23 260 -32 402q-34 90 -175 111l-160 6h-190q-33 0 -56.5 23.5t-23.5 56.5t23.5 56.5t56.5 23.5h258q57 0 107 -6q551 -18 1061 5q7 1 16 1h163q33 0 56.5 -23.5t23.5 -56.5 t-23.5 -56.5t-56.5 -23.5h-121q52 -545 -49 -1134q-6 -32 -33 -51t-59.5 -13.5t-51.5 32.5t-14 60q44 255 58 501q-113 28 -632 -53q-7 -57 -18 -118q-53 -307 -170 -362q-224 -105 -317 -8.5t-53 322.5q46 248 412 305zM653 1107q88 -153 67 -480q458 70 621 45 q4 225 -18 443q-327 -12 -670 -8zM1053 101q34 -47 37.5 -67.5t1.5 -40.5q-4 -44 -13 -59q-13 -21 -23 -33q-52 -35 -67 -38l-35 -4q-54 5 -73 16q-36 21 -60 70q-11 21 -11 55q8 65 34 96q39 47 108 47q57 -9 79 -24z"/>
            <glyph unicode="&#xa38;" horiz-adv-x="1600"
                   d="M537 436q-212 -40 -234 -168q-26 -145 4 -177q19 -20 138 35l5 5q50 55 87 305zM557 601q23 260 -32 402q-34 90 -175 111l-160 6h-190q-33 0 -56.5 23.5t-23.5 56.5t23.5 56.5t56.5 23.5h258q57 0 107 -6q551 -18 1061 5q7 1 16 1h163q33 0 56.5 -23.5t23.5 -56.5 t-23.5 -56.5t-56.5 -23.5h-121q52 -545 -49 -1134q-6 -32 -33 -51t-59.5 -13.5t-51.5 32.5t-14 60q44 255 58 501q-113 28 -632 -53q-7 -57 -18 -118q-53 -307 -170 -362q-224 -105 -317 -8.5t-53 322.5q46 248 412 305zM653 1107q88 -153 67 -480q458 70 621 45 q4 225 -18 443q-327 -12 -670 -8z"/>
            <glyph unicode="&#xa39;"
                   d="M1205 1280q33 0 56.5 -23.5t23.5 -56.5t-23.5 -56.5t-56.5 -23.5h-160q63 -787 14 -965q-64 -235 -515 -235q-351 0 -413 203q-13 44 -11 97q14 294 119 400q87 86 214 58q33 -7 50.5 -35t10.5 -60.5t-35 -50t-65 -9.5t-61 -16q-62 -62 -73 -295q-2 -48 24 -75 q56 -57 240 -57q329 0 361 117q41 153 -21 923h-884q-33 0 -56.5 23.5t-23.5 56.5t23.5 56.5t56.5 23.5h956h3h2h244z"/>
            <glyph unicode="&#xa3c;" horiz-adv-x="0"
                   d="M-99 -302q34 -48 37.5 -68t1.5 -40q-4 -44 -13 -59q-12 -22 -23 -34q-52 -34 -67 -37l-35 -5q-54 5 -72 16q-37 22 -61 70q-11 22 -11 56q8 65 34 96q39 46 108 46q57 -8 80 -23z"/>
            <glyph unicode="&#xa3e;" horiz-adv-x="400"
                   d="M405 1280q33 0 56.5 -23.5t23.5 -56.5t-23.5 -56.5t-56.5 -23.5h-121q13 -368 -57 -735q-6 -33 -33.5 -51.5t-60 -12t-51 33.5t-12.5 60q67 353 54 705h-124q-33 0 -56.5 23.5t-23.5 56.5t23.5 56.5t56.5 23.5h199h2h2h202z"/>
            <glyph unicode="&#xa3f;" horiz-adv-x="400"
                   d="M405 1280q33 0 56.5 -23.5t23.5 -56.5t-23.5 -56.5t-56.5 -23.5h-146q-12 -399 -5 -1119q0 -33 -23 -57t-56 -24t-57 23t-24 56q-7 717 5 1121h-99q-33 0 -56.5 23.5t-23.5 56.5t23.5 56.5t56.5 23.5h106q6 124 14 206q23 205 118 300q113 114 277 91q75 -10 117 -50 q76 -71 79 -204q2 -85 -44 -185q-14 -30 -45 -42t-61 2t-42 45t2 61q48 105 22 178q-14 38 -79 38q-157 1 -184 -252q-9 -75 -14 -188h139z"/>
            <glyph unicode="&#xa40;" horiz-adv-x="400"
                   d="M405 1280q33 0 56.5 -23.5t23.5 -56.5t-23.5 -56.5t-56.5 -23.5h-97q-1 -441 -30 -1123q-2 -34 -26 -56t-57.5 -20.5t-55.5 25.5t-21 57q31 710 32 1117h-150q-33 0 -56.5 23.5t-23.5 56.5t23.5 56.5t56.5 23.5h149q-4 276 -28 358t-55 82q-112 0 -162 -105 q-24 -52 -24 -151q0 -33 -23.5 -56.5t-56.5 -23.5t-56.5 23.5t-23.5 56.5q0 135 34 208q98 208 312 208q78 0 135 -56q91 -92 101 -345q4 -90 5 -199h98z"/>
            <glyph unicode="&#xa41;" horiz-adv-x="0"
                   d="M-133 -292q-41 -63 -123 -97q-173 -70 -516.5 -67t-454.5 119q-67 69 -49 123q11 31 40.5 45.5t61 4t46.5 -40.5q44 -89 309 -91q490 -4 552 92q18 27 50.5 34t60 -11t34.5 -50.5t-11 -60.5z"/>
            <glyph unicode="&#xa42;" horiz-adv-x="0"
                   d="M-149 -668q-41 -63 -123 -97q-173 -70 -516.5 -67t-454.5 119q-67 69 -49 123q11 31 40.5 45.5t61 4t46.5 -40.5q44 -89 309 -91q490 -4 552 92q18 27 50.5 34t60 -11t34.5 -50.5t-11 -60.5zM-133 -292q-41 -63 -123 -97q-173 -70 -516.5 -67t-454.5 119q-67 69 -49 123 q11 31 40.5 45.5t61 4t46.5 -40.5q44 -89 309 -91q490 -4 552 92q18 27 50.5 34t60 -11t34.5 -50.5t-11 -60.5z"/>
            <glyph unicode="&#xa47;" horiz-adv-x="0"
                   d="M-1067 1720q154 230 493 112q439 -154 454 -432q2 -33 -20.5 -57.5t-55.5 -26.5t-57.5 20.5t-26.5 55.5q-4 72 -78.5 146.5t-282.5 147t-292 -53.5q-19 -28 -51.5 -34.5t-60 12t-34 51t11.5 59.5z"/>
            <glyph unicode="&#xa48;" horiz-adv-x="0"
                   d="M-1072 2032q53 104 153 135q141 43 358 -77q373 -207 436 -653q14 -65 -11.5 -92t-59 -29t-57 18t-26.5 48.5t-10 41t-24 29.5q-99 99 -408 203q-152 51 -200 -84q-15 -42 -45 -56t-61 -3t-45 41t-3 61q31 87 82 138q122 122 312.5 58t311.5 -128q-92 168 -259 261 q-207 115 -277 50q-12 -11 -25 -37t-44.5 -36.5t-61 4t-40 46t3.5 61.5z"/>
            <glyph unicode="&#xa4b;" horiz-adv-x="0"
                   d="M-908 1746q2 -62 26.5 -86.5t51.5 -19.5q67 12 199 95q265 169 431 3q128 -128 91 -350q-6 -33 -33 -52t-59.5 -13.5t-52 32.5t-13.5 60q27 158 -68 229q-66 48 -236 -60t-288 -106q-18 0 -28 4l-22 8q-151 54 -159 256v45q0 34 23.5 57t56.5 23t56.5 -23t23.5 -57v-45z "/>
            <glyph unicode="&#xa4c;" horiz-adv-x="0"
                   d="M-943.5 2100.5q23.5 -23.5 24 -78.5t10 -80.5t33 -47.5t41 -33.5t38.5 -5.5q277 87 481 15q150 -29 193 -180q51 -163 -1 -315q-11 -32 -41 -46.5t-61 -3.5t-45.5 40.5t-4.5 61.5q36 103 0 216q-15 44 -77 70q-123 13 -171 -101.5t-9 -172.5q18 -28 11.5 -60.5t-34 -51 t-60 -12t-51.5 34.5q-85 129 -7 318q14 33 33 62q-52 -10 -109 -28q-117 -36 -232 72q-54 51 -75.5 107.5t-22.5 162.5q0 33 23.5 56.5t56.5 23.5t56.5 -23.5z"/>
            <glyph unicode="&#xa4d;" horiz-adv-x="0"
                   d="M38 -485q8 -32 -9 -60.5t-49.5 -36.5t-61 9t-35.5 47q-38 152 -467 64q-32 -7 -60 11t-34.5 50.5t11.5 60.5t51 34q579 120 654 -179z"/>
            <glyph unicode="&#xa59;"
                   d="M1091 1120q-15 -58 -18.5 -249t-6.5 -318.5t4 -345.5q19 -34 3 -71q3 -67 6.5 -115.5t-18 -73.5t-55 -27t-58.5 19.5t-27 55.5l-2 28q-180 -87 -466 -103q-206 -12 -322 158q-85 125 -33 341q7 30 34 48q118 77 162 159q3 8 7 15q19 65 19 327q0 65 -37 102t-130.5 51.5 t-125 3t-61.5 2.5t-41.5 45.5t2.5 61.5q37 79 254 45q142 -22 220.5 -101t78.5 -220t-8 -236q174 45 438 47q3 127 10 260q12 251 140 251h145q33 0 56.5 -23.5t23.5 -56.5t-23.5 -56.5t-56.5 -23.5h-114zM911 202q-7 192 -4 407q-319 -3 -478 -70q-59 -100 -182 -187 q-24 -124 16 -183q65 -96 181 -89q311 17 467 122zM216 -262q34 -47 37.5 -67.5t1.5 -40.5q-4 -44 -13 -59q-13 -21 -23 -33q-52 -35 -67 -38l-35 -4q-54 5 -73 16q-36 21 -60 70q-11 21 -11 55q8 65 34 96q39 47 108 47q57 -9 79 -24z"/>
            <glyph unicode="&#xa5a;" horiz-adv-x="1400"
                   d="M765 1280h640q33 0 56.5 -23.5t23.5 -56.5t-23.5 -56.5t-56.5 -23.5h-109q64 -403 38 -1123q-1 -33 -25 -55.5t-57 -21.5t-56 25.5t-21 57.5q26 728 -41 1117h-282q71 -557 40 -927q-17 -211 -385 -272q-174 -29 -275 72q-120 121 -117 408q2 201 115 313 q153 153 492 118q-12 137 -31 288h-691q-33 0 -56.5 23.5t-23.5 56.5t23.5 56.5t56.5 23.5h758h3.5h3.5zM734 670q-286 36 -391 -69q-66 -66 -68 -202q-2 -220 69 -291q44 -44 137 -29q245 41 252 128q16 201 1 463zM250 -312q34 -47 37.5 -67.5t1.5 -40.5q-4 -44 -13 -59 q-13 -21 -23 -33q-52 -35 -67 -38l-35 -4q-54 5 -73 16q-36 21 -60 70q-11 21 -11 55q8 65 34 96q39 47 108 47q57 -9 79 -24z"/>
            <glyph unicode="&#xa5b;" horiz-adv-x="1400"
                   d="M1171 1280q26 8 51 0h183q33 0 56.5 -23.5t23.5 -56.5t-23.5 -56.5t-56.5 -23.5h-120q23 -240 20 -497q7 -25 -1 -48q-5 -282 -41 -584q-3 -33 -29 -53.5t-59 -17t-53.5 29.5t-16.5 59q30 262 38 508l-431 -18q-5 -204 -36 -507q-4 -33 -29.5 -54t-58.5 -17.5t-54 29 t-18 58.5q30 286 35 485l-124 -5q-133 -5 -202.5 62t-56.5 193q27 250 256 269q93 8 156.5 -29.5t94 -101.5t36.5 -222l434 18q0 229 -21 443h-1124q-33 0 -56.5 23.5t-23.5 56.5t23.5 56.5t56.5 23.5h1171zM541 770q-12 90 -94 83q-107 -8 -117 -102q-8 -74 3 -83 q24 -23 88 -20l129 5q-3 66 -9 117zM1014 -250q34 -47 37.5 -67.5t1.5 -40.5q-4 -44 -13 -59q-12 -21 -23 -33q-52 -35 -67 -38l-35 -4q-54 5 -72 16q-37 21 -61 70q-11 21 -11 55q8 65 34 96q39 47 108 47q57 -9 80 -24z"/>
            <glyph unicode="&#xa5c;" horiz-adv-x="1400"
                   d="M1405 1280q33 0 56.5 -23.5t23.5 -56.5t-23.5 -56.5t-56.5 -23.5h-240q87 -182 -31 -320q191 -223 131 -490q-50 -214 -257 -310q133 -122 101 -237q-9 -32 -37.5 -48.5t-60.5 -7.5t-48.5 37.5t-7.5 60.5q4 16 -33 54t-105 82q-64 -12 -142 -18q65 -84 43 -180 q-8 -32 -36 -49.5t-60 -10t-49.5 35.5t-11.5 55t-7 44t-37 42t-110 69q-201 30 -275 149q-17 28 -9.5 60.5t35.5 49.5t60.5 9.5t44 -26t19.5 -27.5q86 -85 402 -59q57 4 106 14q21 10 43 9q234 58 276 238q42 190 -103 357q-195 -94 -548 -30q-33 6 -52 33.5t-13 60 t33.5 51.5t59.5 13q431 -79 538 92q45 71 -44 197h-980q-33 0 -56.5 23.5t-23.5 56.5t23.5 56.5t56.5 23.5h1016h3.5h2.5h383z"/>
            <glyph unicode="&#xa5e;"
                   d="M1205 1280q33 0 56.5 -23.5t23.5 -56.5t-23.5 -56.5t-56.5 -23.5h-134q51 -227 -8 -317q-14 -21 -46 -43q-70 -47 -370 -60q-323 -14 -367 -358q-27 -207 19 -252q10 -10 88 -12q30 229 137 336q78 78 227 93t248 -76q81 -74 71 -218q-2 -27 -8.5 -75.5t-57.5 -99.5 q-138 -138 -683 -118q-126 5 -179 121q-35 77 -32.5 164t11.5 154q30 230 160.5 360.5t362 140.5t286.5 35q17 68 -23 225h-907q-33 0 -56.5 23.5t-23.5 56.5t23.5 56.5t56.5 23.5h1205zM549 79q110 4 193 19q156 27 163 75q17 125 -29 153t-123.5 20.5t-115.5 -45.5 q-65 -65 -88 -222zM235 -317q34 -47 37.5 -67.5t1.5 -40.5q-4 -44 -13 -59q-13 -21 -23 -33q-52 -35 -67 -38l-35 -4q-54 5 -73 16q-36 21 -60 70q-11 21 -11 55q8 65 34 96q39 47 108 47q57 -9 79 -24z"/>
            <glyph unicode="&#xa66;" horiz-adv-x="1600"
                   d="M322 89q-202 202 -202 499q0 197 91 354t247 247.5t338 90.5q259 0 353 -55q190 -112 256.5 -267t66.5 -348t-95 -330q-148 -214 -241 -268q-155 -92 -362 -92t-315 63q-76 45 -137 106zM435 202q47 -47 111 -84.5t227 -37.5q219 0 328 108q57 58 134 168.5t77 262 t-58 286.5q-41 97 -184 181q-58 34 -273 34t-366 -151t-151 -381.5t155 -385.5z"/>
            <glyph unicode="&#xa67;" horiz-adv-x="1600"
                   d="M1115 830q3 94 8 160t-19 90q-58 59 -262.5 41t-289.5 -104q-62 -61 -72 -159.5t29 -137.5q53 -53 213 -40q349 27 393 150zM1279 917q10 -58 -5 -115q-6 -244 10 -558q9 -170 43 -188q34 0 57.5 -23.5t23.5 -56.5t-23.5 -56.5t-60 -23.5t-54 9t-57.5 39 q-78 78 -88.5 286.5t-11.5 380.5q-134 -71 -373 -90t-338 80t-82 263q39 375 516 417q271 25 382 -88q75 -77 66 -199q-3 -37 -5 -77z"/>
            <glyph unicode="&#xa68;" horiz-adv-x="1600"
                   d="M322 1082q10 29 21.5 56t65.5 62q124 80 455 80q206 0 313 -107q136 -135 103.5 -406.5t-332.5 -403.5q308 -140 332 -354q3 -33 -17.5 -59t-53.5 -29.5t-59 17t-31 67t-60 100.5q-99 100 -349 176q-207 -61 -270.5 -59t-90.5 29q-7 7 -18 32t-11 35q7 50 13 70.5 t27 40.5t34 27q87 53 278 2l38 -10l92 30q294 97 318.5 299t-55.5 282q-61 61 -201 61q-332 0 -383 -67q-2 -3 -3 -5q-7 -32 -34.5 -50t-60 -11t-50.5 34.5t-11 60.5z"/>
            <glyph unicode="&#xa69;" horiz-adv-x="1600"
                   d="M1016 246q189 -83 238 -149q28 -38 25 -59.5t-1 -37.5q-6 -32 -34 -50.5t-60 -12t-47 29t-17 41.5q-57 61 -382 174q-331 -56 -399 24q-6 7 -14 24q-26 57 14 115q81 115 364 19l50 -17q131 23 231 56.5t115 60.5q61 113 32.5 141.5t-164.5 48.5q-50 -13 -106 -18 q-206 -21 -379 1q-31 3 -50 24.5t-20 52t17 53t48 28.5q252 47 475 22q70 22 109 60q67 68 71 149q1 30 -23.5 54.5t-104.5 41.5q-271 55 -573 -72q-31 -13 -61.5 -0.5t-43.5 43.5t-0.5 61.5t43.5 43.5q348 146 667 80q127 -26 193 -92q93 -93 47 -250q-28 -98 -100 -170 q40 -19 68 -46q115 -115 -7 -336q-43 -79 -189 -128z"/>
            <glyph unicode="&#xa6a;" horiz-adv-x="1600"
                   d="M1180 1186q140 -140 82 -408q-24 -112 -104 -187q142 -85 122 -286q-36 -370 -489 -389q-271 -12 -387.5 104.5t-82.5 325.5q24 146 140 217q-95 102 -100 269q-7 240 112 359q60 60 146 86q32 9 61 -6.5t38.5 -47.5t-6 -61t-55.5 -41q-143 -43 -136 -285q3 -110 58 -165 t197 -48q292 13 331 192q53 245 -115 306q-42 15 -56 45t-3 61t41 45t61 3q87 -31 145 -89zM906 474q-81 -13 -130 -13l-57 1q-143 2 -200 -55q-31 -31 -40 -87q-21 -128 34 -183q70 -70 266.5 -61.5t277.5 89.5q54 54 63 147t-32.5 134.5t-181.5 27.5z"/>
            <glyph unicode="&#xa6b;" horiz-adv-x="1600"
                   d="M1240 3q-8 -32 -37 -48.5t-61 -8t-48.5 37.5t-7.5 61q35 131 42 381q-68 -37 -167 -70q-269 -90 -533 9q-98 37 -119 164q-7 41 -9 110q-5 146 110 227q21 14 52 14t47 14t11 89q-9 127 -105 137q-33 4 -53.5 30t-17 59t29.5 53.5t59 17.5q97 -11 167 -81.5t79.5 -212 t-51 -199.5t-142.5 -66q-28 -30 -26 -80q-2 -3 2 -61t22 -65q211 -79 427 -7q153 51 201 99q10 9 11.5 16t5.5 15q-3 239 -25 557q-2 33 19.5 58t55 27t58.5 -19.5t27 -55.5q61 -889 -24 -1202z"/>
            <glyph unicode="&#xa6c;" horiz-adv-x="1600"
                   d="M728 -92q-273 46 -342 119q-96 102 -69 256t110 247q-123 92 -98 280q31 241 150.5 360.5t290.5 128.5l71 4q-1 48 3 103q15 66 35.5 92.5t54.5 60.5t93.5 70.5t90.5 43.5q86 20 145 -56q20 -26 16 -58.5t-30 -53t-56.5 -17t-49.5 23.5h-1q-95 -58 -128 -101 q-10 -13 -10 -17q-4 -51 -3 -93q153 -8 198 -72q52 -76 63 -107q28 -80 -23 -132q-2 -1 -12 -9q-53 -44 -178 -20q-138 27 -185 183q-35 -1 -75 -4q-121 -7 -199 -85.5t-103 -264.5q-11 -87 28 -126q18 -19 55 -30q185 83 500 41q121 -16 150 -45q2 -2 5.5 -54.5t-3.5 -63.5 q-3 -1 -20.5 -12.5t-35.5 -17.5t-220.5 -26t-353.5 7q-91 -61 -110.5 -172t17.5 -151q17 -19 101 -41q207 -57 338.5 -48.5t180.5 58.5q24 23 57 23t56.5 -23.5t23.5 -56.5t-23 -57q-109 -108 -312 -104q-98 1 -193 17zM1082 1118q-12 26 -38 20q12 -26 38 -20z"/>
            <glyph unicode="&#xa6d;" horiz-adv-x="1600"
                   d="M598 1194q70 70 188 85q284 37 430 -108q89 -90 119 -244q92 -486 -359 -827q-171 -129 -351 -140.5t-353 91.5q-29 16 -37.5 48t8 61t48.5 37.5t75 -16.5q99 -57 221 -63q190 -8 403 205q249 249 187 574q-20 106 -74 161q-90 90 -297 63q-63 -9 -94 -39 q-64 -65 -14 -262q8 -33 -9 -61t-49.5 -36.5t-60.5 8.5t-37 49q-72 286 56 414z"/>
            <glyph unicode="&#xa6e;" horiz-adv-x="1600"
                   d="M398 921q-168 31 -233.5 116.5t-45.5 186.5q51 256 373 256q81 0 122 -42.5t61.5 -105.5t4.5 -218q-27 -438 -60 -797q-22 -232 109 -237q555 -8 594 33q9 32 37.5 48.5t60.5 7.5t48.5 -37.5t7.5 -61.5q-17 -62 -91 -97q-158 -75 -667 -53q-103 5 -174 75 q-106 106 -85 336q55 594 60 791q0 4 1 9q20 149 -12 185q-4 4 -17 4q-209 0 -216 -136q-2 -26 5 -35q35 -50 145 -70q369 -68 961 0q33 4 59 -16.5t29.5 -53.5t-17 -59t-53.5 -29q-615 -72 -1007 0z"/>
            <glyph unicode="&#xa6f;" horiz-adv-x="1600"
                   d="M1319 1473q-98 16 -147.5 -34t-60.5 -173t27 -161t117 -39q64 6 114.5 11.5t75.5 -13t30 -52t-13 -59.5q-32 -45 -189 -47q-339 -32 -608 -16q-21 -308 -45 -573q-22 -232 109 -237q499 -20 597 42q10 26 36.5 41t58.5 6t48.5 -37.5t7.5 -61.5q-17 -62 -91 -97 q-158 -75 -667 -53q-103 5 -174 75q-106 106 -85 336q33 359 48 573q-57 7 -110 17q-168 31 -233.5 116.5t-45.5 186.5q51 256 373 256q81 0 122 -42.5t61.5 -105.5t4.5 -218l-4 -64q143 -9 309 -2q-47 87 -34 224q17 189 116 288.5t278 70.5q33 -5 52 -32t14 -60t-32 -52 t-60 -14zM518 1064l3 67q20 149 -12 185q-4 4 -17 4q-209 0 -216 -136q-2 -26 5 -35q35 -50 145 -70q45 -8 92 -15z"/>
            <glyph unicode="&#xa70;" horiz-adv-x="0"
                   d="M-273 1368q-123 287 17 426q89 89 275 96q82 3 143 -28q203 -105 116 -474q-8 -33 -36 -50t-60.5 -9.5t-49.5 35.5t-10 60q59 248 -27 292q-39 20 -122 9t-119 -47q-62 -61 19 -246q14 -30 1.5 -61t-42.5 -44.5t-61 -1t-44 42.5z"/>
            <glyph unicode="&#xa71;" horiz-adv-x="400"
                   d="M640 2014q-8 -254 -145 -391.5t-406 -126.5q-201 8 -306 113q-146 147 -85 455q6 32 33.5 50.5t60 12t51 -34t11.5 -60.5q-44 -223 42 -309q61 -61 199 -67q199 -8 289 82t96 280q1 34 25 56.5t57.5 21.5t56 -25t21.5 -57zM406 1280q33 0 56.5 -23.5t23.5 -56.5 t-23.5 -56.5t-57.5 -23.5h-405q-33 0 -56.5 23.5t-23.5 56.5t23.5 56.5t56.5 23.5h406z"/>
            <glyph unicode="&#xa72;"
                   d="M370 1270q37 21 76 1q74 2 187.5 13.5t230.5 3.5t341 -8q33 0 56.5 -23.5t23.5 -56.5t-23.5 -56.5t-67 -23.5h-91.5l-23 -404q-3 -44 -42.5 -65.5t-78.5 1.5q-190 113 -406 55q-129 -35 -205.5 -111t-69 -208.5t80.5 -205.5t232 -103q193 -34 400 177q23 24 56 24t57 -23 t24 -56t-23 -57q-266 -272 -544 -223q-208 41 -319.5 152.5t-121.5 286.5q-17 312 250 448q-76 136 -59 304h-5q-145 8 -306 8q-33 0 -56.5 23.5t-23.5 56.5t23.5 56.5t56.5 23.5q164 0 251 -4.5t119 -5.5zM943 1124q-46 1 -119.5 6.5t-180.5 -5.5t-171 -14 q-18 -144 52 -247q210 53 403 -19z"/>
            <glyph unicode="&#xa73;" horiz-adv-x="1400"
                   d="M919 1284l200 7q-9 263 -92 346t-307 83q-177 0 -270.5 -93.5t-131.5 -261.5q-10 -42 -17 -85h380q40 0 103 3.5t135 0.5zM947 1123q-96 -3 -266 -3h-400q-16 -219 26 -438q214 7 392 7t307 -9q33 -3 64 91.5t40 171.5t8 95q-2 54 -121 78q-23 4 -50 7zM1254 1132 q32 -61 22 -141q-36 -321 -147 -424q83 -91 57 -233q-33 -181 -136 -284q-130 -130 -357 -130q-152 0 -335 114q-18 11 -32 31q-52 73 -156 492q-69 281 -49 563h-121q-33 0 -56.5 23.5t-23.5 56.5t23.5 56.5t56.5 23.5h139q9 60 23 121q48 212 167 332q147 147 391 147 q358 0 471 -196q78 -135 88 -391q94 -2 136 -12.5t59 -39t9 -61t-36.5 -49.5t-61 -9t-131.5 10zM1007 463q-60 62 -246.5 64.5t-416.5 -4.5q81 -322 112 -365q90 -78 244 -78t229 75.5t99 206.5q12 66 -21 101z"/>
            <glyph unicode="&#xa74;" horiz-adv-x="3900"
                   d="M1795 1206q69 -22 101 -55q62 -64 77 -134q45 -213 -159 -350q71 -38 121.5 -106.5t54 -168.5t-85.5 -236q-117 -179 -468 -81q-439 122 -457 778q-14 464 192 669q127 128 322.5 157.5t295.5 20.5q203 779 793 1013t909 -85q261 -261 307 -912q3 -33 -19 -58t-55 -27.5 t-58 19t-27 54.5q-57 797 -444 926q-212 70 -549 -63q-548 -217 -721 -985q8 -27 -6 -52.5t-42 -33.5t-52.5 5.5t-32.5 37.5q-57 15 -275 -18q-288 -44 -357 -363q435 114 635 48zM703 946q-25 138 -105.5 179.5t-149.5 24.5t-143.5 -98t-89 -126t-12.5 -56q6 -26 48 -49 q212 -116 434 106zM712 737q-266 -207 -538 -57q-44 25 -57.5 40t-20.5 21t-15 18l-16 25q-44 72 -9.5 172t136.5 210l18 18q215 215 458 87q273 -145 184 -723q-55 -356 -12 -499l143 -109q26 -20 30.5 -53t-15.5 -59t-53 -30.5t-59 15.5l-162 123q-17 14 -25 34 q-71 175 -7 591q15 96 20 176zM1139 986q-7 -158 15 -305l258 3q84 15 170 47q268 97 234 252q-12 56 -85 76q-172 46 -592 -73zM1196 510q40 -113 109 -181q104 -104 319 -127q111 -12 149 46t49.5 107.5t0.5 77.5q-18 52 -88 95l-307 -4q-118 -21 -232 -14z"/>
            <glyph unicode="&#x2000;" horiz-adv-x="1406"/>
            <glyph unicode="&#x2001;" horiz-adv-x="2812"/>
            <glyph unicode="&#x2002;" horiz-adv-x="1406"/>
            <glyph unicode="&#x2003;" horiz-adv-x="2812"/>
            <glyph unicode="&#x2004;" horiz-adv-x="937"/>
            <glyph unicode="&#x2005;" horiz-adv-x="703"/>
            <glyph unicode="&#x2006;" horiz-adv-x="468"/>
            <glyph unicode="&#x2007;" horiz-adv-x="468"/>
            <glyph unicode="&#x2008;" horiz-adv-x="351"/>
            <glyph unicode="&#x2009;" horiz-adv-x="562"/>
            <glyph unicode="&#x200a;" horiz-adv-x="156"/>
            <glyph unicode="&#x200c;" horiz-adv-x="0" d="M-36 -275v1859h72v-1859h-72z"/>
            <glyph unicode="&#x200d;" horiz-adv-x="0"
                   d="M170 1320l-134 136v-1731h-72v1731l-134 -136l-49 49l171 169l-171 168l49 49l170 -171l170 171l49 -49l-171 -168l171 -169z"/>
            <glyph unicode="&#x2010;" horiz-adv-x="0"
                   d="M-133 -292q-41 -63 -123 -97q-173 -70 -516.5 -67t-454.5 119q-67 69 -49 123q11 31 40.5 45.5t61 4t46.5 -40.5q44 -89 309 -91q490 -4 552 92q18 27 50.5 34t60 -11t34.5 -50.5t-11 -60.5z"/>
            <glyph unicode="&#x2011;" horiz-adv-x="0"
                   d="M-133 -292q-41 -63 -123 -97q-173 -70 -516.5 -67t-454.5 119q-67 69 -49 123q11 31 40.5 45.5t61 4t46.5 -40.5q44 -89 309 -91q490 -4 552 92q18 27 50.5 34t60 -11t34.5 -50.5t-11 -60.5z"/>
            <glyph unicode="&#x2012;" horiz-adv-x="0"
                   d="M-133 -292q-41 -63 -123 -97q-173 -70 -516.5 -67t-454.5 119q-67 69 -49 123q11 31 40.5 45.5t61 4t46.5 -40.5q44 -89 309 -91q490 -4 552 92q18 27 50.5 34t60 -11t34.5 -50.5t-11 -60.5z"/>
            <glyph unicode="&#x2013;" horiz-adv-x="1118" d="M-2 732v107h1120v-107h-1120z"/>
            <glyph unicode="&#x2014;" horiz-adv-x="1818" d="M-2 732v107h1820v-107h-1820z"/>
            <glyph unicode="&#x2018;" horiz-adv-x="652"
                   d="M364 1554l-48.5 -35t-35.5 -31t-25 -37t-16 -52q30 -2 52.5 -7.5t38 -19t23 -35.5t7.5 -57q0 -52 -28 -83t-76 -31q-50 0 -76.5 23t-37.5 52t-12 55.5t-1 34.5q0 39 13.5 78t38.5 75.5t59.5 70.5t75.5 63l48 -64v0z"/>
            <glyph unicode="&#x2019;" horiz-adv-x="652"
                   d="M296 1230l48.5 34t35.5 31.5t25 37.5t16 52q-60 2 -90.5 26.5t-30.5 92.5q0 52 28 83t76 31q33 0 55.5 -11t37 -27.5t21.5 -36.5t10 -38.5t3 -32.5v-19q0 -39 -14 -78t-38.5 -75.5t-59 -70.5t-75.5 -63l-48 64v0z"/>
            <glyph unicode="&#x2026;" horiz-adv-x="1812"
                   d="M393 101q0 -21 -8 -39.5t-21.5 -32t-32 -21.5t-39.5 -8t-39.5 8t-32 21.5t-21.5 32t-8 39.5t8 39.5t21.5 32t32 21.5t39.5 8t39.5 -8t32 -21.5t21.5 -32t8 -39.5zM1005 101q0 -21 -8 -39.5t-21.5 -32t-32 -21.5t-39.5 -8t-39.5 8t-32 21.5t-21.5 32t-8 39.5t8 39.5 t21.5 32t32 21.5t39.5 8t39.5 -8t32 -21.5t21.5 -32t8 -39.5zM1618 101q0 -21 -8 -39.5t-21.5 -32t-32 -21.5t-39.5 -8t-39.5 8t-32 21.5t-21.5 32t-8 39.5t8 39.5t21.5 32t32 21.5t39.5 8t39.5 -8t32 -21.5t21.5 -32t8 -39.5z"/>
            <glyph unicode="&#x202f;" horiz-adv-x="562"/>
            <glyph unicode="&#x205f;" horiz-adv-x="703"/>
            <glyph unicode="&#x20ac;" horiz-adv-x="1302"
                   d="M228 506h-128l23 111h95v141h-118l23 111h106q18 118 74 211.5t138 158t185 99t216 34.5q42 0 78.5 -3t70.5 -8t66.5 -12.5t65.5 -17.5l-30 -100q-21 13 -50.5 22.5t-63.5 16t-70 9.5t-70 3q-82 0 -153 -34.5t-126.5 -92t-93.5 -132t-53 -154.5h616l-26 -111h-604v-141 h581l-26 -111h-541v-3q15 -80 53 -154.5t93.5 -132t126.5 -92t153 -34.5q34 0 70 3t70 9.5t63.5 16t50.5 22.5l30 -100q-33 -10 -65.5 -17.5t-66.5 -13t-70.5 -8t-78.5 -2.5q-113 0 -216 33t-185 96.5t-138 155.5t-74 210z"/>
            <glyph unicode="&#x2212;" horiz-adv-x="1287" d="M255 502v117h772v-117h-772z"/>
            <glyph unicode="&#x25cc;" horiz-adv-x="1305"
                   d="M213 617q7 -56 27 -105l-98 -56q-33 75 -42 161h113v0zM1188 617q-5 -43 -15.5 -83t-26.5 -77l-99 57q10 24 17 50t11 53h113v0zM912 333q43 33 76 76l98 -56q-25 -34 -54.5 -63t-62.5 -54l-57 97v0zM299 408q17 -22 36 -41.5t40 -36.5l-55 -96q-68 50 -118 118l97 56v0z M377 1020q-21 -17 -40 -35.5t-36 -39.5l-98 56q25 34 54.5 63t63.5 54l56 -98v0zM101 737q9 85 42 160l97 -56q-19 -49 -27 -104h-112v0zM585 1107q-56 -8 -103 -27l-57 98q38 16 78 26.5t82 15.5v-113v0zM705 245q56 8 104 28l56 -97q-38 -17 -78 -27.5t-82 -15.5v112v0z M585 133q-86 9 -161 42l56 96q25 -10 51 -17t54 -10v-111v0zM1075 737q-4 27 -11 52.5t-17 49.5l97 57q34 -77 44 -159h-113v0zM987 943q-17 21 -36 39.5t-40 35.5l56 97q33 -25 62.5 -54t54.5 -62l-97 -56v0zM705 1219q84 -11 158 -44l-56 -96q-24 10 -50 17t-52 11v112v0z "/>
            <glyph unicode="&#x262c;" horiz-adv-x="2123"
                   d="M1228 1621q18 -9 9 -38q-7 -26 -15 -52q189 -26 322 -160q17 -16 33 -35q148 -172 142 -403q-6 -222 -206 -425l-6 -6q-133 -133 -279 -190v-4q7 -28 -26 -66t-67 -42l-14 -2l1 -228l270 168q87 52 154 119q176 176 247 470q95 387 -225 711h-1q-12 12 -4 36t32.5 48.5 t48.5 32.5t36 -4l22 -21q363 -363 346 -703q-14 -272 -359 -796v0q-9 -14 -20 -26q-11 -10 -23 -18q-26 -17 -46 -15q-12 1 -18 9q-15 13 -131 94q-28 -20 -57 -38l-238 -146q177 -114 295 -200l2.5 -2.5l2.5 -2.5q26 -33 36 -53q11 -21 14 -42q6 -54 -47 -106 q-5 -6 -10 -10q-23 -20 -45 -33t-44 -16.5t-35 10.5q-27 27 4 149q-61 50 -154 112l-52 34l1 -130q0 -3 -1 -7q5 -2 8 -8l42 -77q4 -6 3 -16q-2 -35 -11 -62t-23.5 -47t-26.5 -32q-13 -14 -29 -24q-13 -9 -21 -13t-19 -6t-29 -6q-35 -1 -55 19q-27 28 -28 94q0 42 12 77 q10 26 27 49t24 29l-1 217l-177 -119q13 -54 11 -83q0 -18 -5.5 -33.5t-11.5 -24t-13 -16.5t-8 -10q-58 -58 -103 -36q-8 4 -31 22q-1 0 -3 3q-21 20 -19 52t20 68q18 33 48 70q12 15 28 28l2 1l2 2q85 62 198 137l-238 144q-36 22 -70 47l-97 -69q0 -2 -2 -5q-4 -3 -5 -1 q-8 -18 -25.5 -33.5t-34 -19t-22.5 6.5t1 28q-333 508 -347 769q-18 358 377 753l19 19l1 1q25 24 48.5 31.5t35.5 -4.5t4 -36t-32 -48q-289 -292 -198 -669q77 -314 274 -511q79 -80 179 -140l193 -119l-1 193q0 6 2 14l-18 2q-35 4 -68 43q-16 18 -22 34q-152 27 -288 132 q-29 22 -53 46q-140 140 -148 365q-11 298 191 500q24 24 50 46q115 96 257 137q-10 41 -22 81q-9 28 9 37l88 46q42 22 85 21q65 0 83 -23zM1191 1395q-90 -455 15 -982q134 35 244 145l5 5q133 135 137 296q6 208 -131 367q-14 16 -30 32q-103 103 -240 137zM908 421 q103 526 13 979q-146 -25 -245 -108q-16 -13 -29 -26q-130 -130 -122 -366q7 -202 135 -330q23 -22 49 -43q96 -73 199 -106z"/>
            <glyph unicode="&#xe000;" horiz-adv-x="1280" d="M0 1280h1280v-1280h-1280v1280z"/>
            <glyph horiz-adv-x="200"
                   d="M205 1280q33 0 56.5 -23.5t23.5 -56.5t-23.5 -56.5t-56.5 -23.5h-205q-33 0 -56.5 23.5t-23.5 56.5t23.5 56.5t56.5 23.5h205zM96 1691q34 -48 37.5 -68t1.5 -40q-4 -44 -13 -59q-12 -22 -23 -34q-52 -34 -67 -37l-35 -5q-54 5 -72 16q-37 22 -61 70q-11 22 -11 56 q8 65 34 96q39 46 108 46q57 -8 80 -23zM-1067 1720q154 230 493 112q439 -154 454 -432q2 -33 -20.5 -57.5t-55.5 -26.5t-57.5 20.5t-26.5 55.5q-4 72 -78.5 146.5t-282.5 147t-292 -53.5q-19 -28 -51.5 -34.5t-60 12t-34 51t11.5 59.5z"/>
            <glyph horiz-adv-x="0"
                   d="M-207 1356q-123 287 17 426q89 89 275 96q82 3 143 -28q203 -105 116 -474q-8 -33 -36 -50t-60.5 -9.5t-49.5 35.5t-10 60q59 248 -27 292q-39 20 -122 9t-119 -47q-62 -61 19 -246q14 -30 1.5 -61t-42.5 -44.5t-61 -1t-44 42.5z"/>
            <glyph horiz-adv-x="200"
                   d="M205 1280q33 0 56.5 -23.5t23.5 -56.5t-23.5 -56.5t-56.5 -23.5h-205q-33 0 -56.5 23.5t-23.5 56.5t23.5 56.5t56.5 23.5h205zM-743.5 2100.5q23.5 -23.5 24 -78.5t10.5 -80.5t33 -47.5t40.5 -33.5t38.5 -5.5q277 87 481 15q150 -29 193 -180q51 -163 -1 -315 q-11 -32 -40.5 -46.5t-61 -3.5t-46 40.5t-3.5 61.5q35 103 -1 216q-14 44 -76 70q-123 13 -171.5 -101.5t-9.5 -172.5q18 -28 11.5 -60.5t-34 -51t-60 -12t-50.5 34.5q-86 129 -7 318q13 33 33 62q-53 -10 -110 -28q-117 -36 -232 72q-54 51 -75.5 107.5t-22.5 162.5 q0 33 23.5 56.5t56.5 23.5t56.5 -23.5zM398 1744q34 -48 37.5 -68t1.5 -41q-4 -44 -13 -59q-12 -21 -23 -33q-52 -35 -67 -38l-35 -4q-54 5 -72 16q-37 22 -61 70q-11 21 -11 55q8 66 34 96q39 47 108 47q57 -9 80 -24z"/>
            <glyph horiz-adv-x="0"
                   d="M80 -599q0 -34 -23 -57.5t-56.5 -23.5t-57 23t-23.5 75q-1 104 -62 122q-22 6 -70 3l-34 -5q-68 -32 -166 -17q-31 4 -49.5 26.5t-18.5 53.5t19.5 53t50.5 25l111 14q22 22 23 105l-4 200q-1 34 22 57.5t56.5 24.5t57 -22t24.5 -56l4 -200q-1 -64 -9 -102 q113 -18 167 -120q37 -71 38 -179z"/>
            <glyph horiz-adv-x="0"
                   d="M-121 -211q-6 -34 -32.5 -53t-60.5 -13q-135 25 -200 3t-82 -40t-23.5 -33.5t2.5 -38t20 -29.5q55 -32 203 -36q75 4 102.5 2t49.5 -24.5t22 -56.5t-22 -56.5t-60 -23.5t-76 -1q-167 -8 -196 -39q-6 -5 -12 -13q-26 -46 -11 -61t55 -28q80 -25 227 3q33 6 60.5 -13 t33.5 -51.5t-13 -60t-51 -33.5q-186 -34 -305 3q-189 58 -171 216q9 87 67 145q-47 36 -60 68t-23 72.5t1 85t27.5 67t34.5 43.5q42 48 133.5 79t209.5 21q1 50 -6.5 86.5t10.5 64.5t50.5 34.5t60.5 -11.5t34 -51q21 -100 1 -227z"/>
            <glyph horiz-adv-x="0"
                   d="M-97 -587q-2 -95 -64 -157q-87 -87 -270.5 -103t-253.5 117q-49 92 -36 213t65 169.5t106 55.5t92 3t58.5 -30t17 -59t-29.5 -53.5t-68.5 -16t-58.5 -9.5t-25 -92t32 -122q19 -21 58 -19q215 14 217 101l-23 586q-1 33 21.5 57.5t55.5 25.5t57.5 -21.5t25.5 -55.5z"/>
            <glyph horiz-adv-x="1398"
                   d="M1101 304q-73 -9 -208 3q12 -107 -14 -272q-5 -29 -27 -48q-121 -103 -413 -66q-210 26 -306 155q-181 243 -152 457q4 32 30.5 52.5t59 16t53 -31t15.5 -59.5q-20 -149 122 -340q55 -74 220 -94.5t245 18.5q27 197 -10 267q-24 43 4 83.5t77 33.5q228 -30 302 -15 q-1 264 7.5 439.5t14.5 212.5q-710 -18 -1125 4q-33 2 -55.5 26.5t-20.5 57.5t26.5 55.5t57.5 20.5q446 -24 1243 0h4h3h151q33 0 56.5 -23.5t23.5 -56.5t-23.5 -56.5t-56.5 -23.5h-121q-8 -30 -11 -97q-29 -579 1 -1018q2 -33 -19.5 -58t-55 -27t-58.5 19.5t-27 55.5 q-10 146 -13 309z"/>
            <glyph horiz-adv-x="200"
                   d="M205 1280q33 0 56.5 -23.5t23.5 -56.5t-23.5 -56.5t-56.5 -23.5h-205q-33 0 -56.5 23.5t-23.5 56.5t23.5 56.5t56.5 23.5h205zM301 1691q34 -48 37.5 -68t1.5 -40q-4 -44 -13 -59q-12 -22 -23 -34q-52 -34 -67 -37l-35 -5q-54 5 -72 16q-37 22 -61 70q-11 22 -11 56 q8 65 34 96q39 46 108 46q57 -8 80 -23zM-1072 2032q53 104 153 135q141 43 358 -77q373 -207 436 -653q14 -65 -11.5 -92t-59 -29t-57 18t-26.5 48.5t-10 41t-24 29.5q-99 99 -408 203q-152 51 -200 -84q-15 -42 -45 -56t-61 -3t-45 41t-3 61q31 87 82 138 q122 122 312.5 58t311.5 -128q-92 168 -259 261q-207 115 -277 50q-12 -11 -25 -37t-44.5 -36.5t-61 4t-40 46t3.5 61.5z"/>
            <glyph horiz-adv-x="200"
                   d="M205 1280q33 0 56.5 -23.5t23.5 -56.5t-23.5 -56.5t-56.5 -23.5h-205q-33 0 -56.5 23.5t-23.5 56.5t23.5 56.5t56.5 23.5h205zM291 1711q34 -48 37.5 -68t1.5 -41q-4 -44 -13 -59q-12 -21 -23 -33q-52 -35 -67 -38l-35 -4q-54 5 -72 16q-37 22 -61 70q-11 21 -11 55 q8 66 34 96q39 47 108 47q57 -9 80 -24zM-908 1746q2 -62 26.5 -86.5t51.5 -19.5q67 12 199 95q265 169 431 3q128 -128 91 -350q-6 -33 -33 -52t-59.5 -13.5t-52 32.5t-13.5 60q27 158 -68 229q-66 48 -236 -60t-288 -106q-18 0 -28 4l-22 8q-151 54 -159 256v45 q0 34 23.5 57t56.5 23t56.5 -23t23.5 -57v-45z"/>
            <glyph horiz-adv-x="400"
                   d="M405 1280q33 0 56.5 -23.5t23.5 -56.5t-23.5 -56.5t-56.5 -23.5h-97q-1 -441 -30 -1123q-2 -34 -26 -56t-57.5 -20.5t-55.5 25.5t-21 57q31 710 32 1117h-150q-33 0 -56.5 23.5t-23.5 56.5t23.5 56.5t56.5 23.5h149q-4 276 -28 358t-55 82q-112 0 -162 -105 q-24 -52 -24 -151q0 -33 -23.5 -56.5t-56.5 -23.5t-56.5 23.5t-23.5 56.5q0 135 34 208q98 208 312 208q78 0 135 -56q91 -92 101 -345q4 -90 5 -199h98zM700 1505q34 -48 37.5 -68t1.5 -41q-4 -44 -13 -59q-12 -21 -23 -33q-52 -35 -67 -38l-35 -4q-54 5 -72 16 q-37 22 -61 70q-11 21 -11 55q8 66 34 96q39 47 108 47q57 -9 80 -24z"/>
            <glyph horiz-adv-x="0"
                   d="M-121 -211q-6 -34 -32.5 -53t-60.5 -13q-135 25 -200 3t-82 -40t-23.5 -33.5t2.5 -38t20 -29.5q55 -32 203 -36q75 4 102.5 2t49.5 -24.5t22 -56.5t-22 -56.5t-60 -23.5t-76 -1q-167 -8 -196 -39q-6 -5 -12 -13q-26 -46 -11 -61t55 -28q80 -25 227 3q33 6 60.5 -13 t33.5 -51.5t-13 -60t-51 -33.5q-186 -34 -305 3q-189 58 -171 216q9 87 67 145q-47 36 -60 68t-23 72.5t1 85t27.5 67t34.5 43.5q42 48 133.5 79t209.5 21q1 50 -6.5 86.5t10.5 64.5t50.5 34.5t60.5 -11.5t34 -51q21 -100 1 -227zM24 -1211q8 -32 -9 -60.5t-49.5 -36.5 t-61 9t-35.5 47q-38 152 -467 64q-32 -7 -60 11t-34.5 50.5t11.5 60.5t51 34q579 120 654 -179z"/>
            <glyph horiz-adv-x="0"
                   d="M-97 -587q-2 -95 -64 -157q-87 -87 -270.5 -103t-253.5 117q-49 92 -36 213t65 169.5t106 55.5t92 3t58.5 -30t17 -59t-29.5 -53.5t-68.5 -16t-58.5 -9.5t-25 -92t32 -122q19 -21 58 -19q215 14 217 101l-23 586q-1 33 21.5 57.5t55.5 25.5t57.5 -21.5t25.5 -55.5z M38 -1134q8 -32 -9 -60.5t-49.5 -36.5t-61 9t-35.5 47q-38 152 -467 64q-32 -7 -60 11t-34.5 50.5t11.5 60.5t51 34q579 120 654 -179z"/>
            <glyph horiz-adv-x="0"
                   d="M78 -605q1 -33 -22.5 -56.5t-56.5 -24t-56.5 23t-24.5 74.5q-1 105 -61 122q-23 7 -71 3l-34 -4q-68 -32 -165 -18q-32 5 -50.5 27t-18 53.5t19.5 53t50 25.5l111 14q22 22 23 105l-4 200q0 33 23 57t56 24.5t57 -22.5t24 -56l4 -200q-1 -63 -9 -102q113 -17 167 -119 q38 -71 38 -180zM-133 -851q-41 -63 -123 -97q-173 -70 -516.5 -67t-454.5 119q-67 69 -49 123q11 31 40.5 45.5t61 4t46.5 -40.5q44 -89 309 -91q490 -4 552 92q18 27 50.5 34t60 -11t34.5 -50.5t-11 -60.5z"/>
            <glyph horiz-adv-x="0"
                   d="M-85 -1137q-41 -63 -123 -97q-173 -70 -516.5 -67t-454.5 119q-67 69 -49 123q11 31 40.5 45.5t61 4t46.5 -40.5q44 -89 309 -91q490 -4 552 92q18 27 50.5 34t60 -11t34.5 -50.5t-11 -60.5zM-121 -211q-6 -34 -32.5 -53t-61.5 -13q-135 25 -199.5 3t-81.5 -40 t-23.5 -33.5t2.5 -38t20 -29.5q55 -32 203 -36q75 4 102.5 2t49.5 -24.5t22 -56.5t-22 -56.5t-60 -23.5t-76 -1q-167 -8 -196 -39q-6 -5 -13 -13q-25 -46 -10.5 -61t55.5 -28q80 -25 227 3q33 6 60 -13t33 -51.5t-12.5 -60t-51.5 -33.5q-185 -34 -304 3q-189 58 -172 216 q10 87 68 145q-47 36 -60 68t-23 72.5t1 85t27 67t34 43.5q43 48 134 79t210 21q1 50 -6.5 86.5t10.5 64.5t50.5 34.5t60 -11.5t34.5 -51q21 -100 1 -227z"/>
            <glyph horiz-adv-x="0"
                   d="M-149 -1143q-41 -63 -123 -97q-173 -70 -516.5 -67t-454.5 119q-67 69 -49 123q11 31 40.5 45.5t61 4t46.5 -40.5q44 -89 309 -91q490 -4 552 92q18 27 50.5 34t60 -11t34.5 -50.5t-11 -60.5zM-99 -587q-2 -95 -64 -157q-88 -87 -271.5 -103t-253.5 117q-48 92 -35 213 t64.5 169.5t106 55.5t92.5 3t58.5 -30t17 -59t-29.5 -53.5t-68.5 -16t-58.5 -9.5t-25 -92t31 -122q19 -21 59 -19q215 14 217 101l-23 586q-1 33 21.5 57.5t55.5 25.5t57 -21.5t26 -55.5z"/>
            <glyph horiz-adv-x="0"
                   d="M80 -599q0 -34 -23 -57.5t-56.5 -23.5t-57 23t-23.5 75q-1 104 -62 122q-22 6 -70 3l-34 -5q-68 -32 -166 -17q-31 4 -49.5 26.5t-18.5 53.5t19.5 53t50.5 25l111 14q22 22 23 105l-4 200q-1 34 22 57.5t56.5 24.5t57 -22t24.5 -56l4 -200q-1 -64 -9 -102 q113 -18 167 -120q37 -71 38 -179zM-71 -1178q8 -32 -9 -60.5t-49 -36.5t-60.5 9t-35.5 47q-38 152 -467 63q-33 -7 -60.5 11.5t-34.5 51t11.5 60t50.5 34.5q579 119 654 -179z"/>
            <glyph horiz-adv-x="0"
                   d="M-149 -1577q-41 -63 -123 -97q-173 -70 -516.5 -67t-454.5 119q-67 69 -49 123q11 31 40.5 45.5t61 4t46.5 -40.5q44 -89 309 -91q490 -4 552 92q18 27 50.5 34t60 -11t34.5 -50.5t-11 -60.5zM-133 -1201q-41 -63 -123 -97q-173 -70 -516.5 -67t-454.5 119 q-67 69 -49 123q11 31 40.5 45.5t61 4t46.5 -40.5q44 -89 309 -91q490 -4 552 92q18 27 50.5 34t60 -11t34.5 -50.5t-11 -60.5zM-122 -211q-5 -34 -31.5 -53t-61.5 -13q-135 25 -199.5 3t-81.5 -40t-24 -33.5t2 -38t20 -29.5q56 -32 204 -36q74 4 101.5 2t49.5 -24.5 t22 -56.5t-21.5 -56.5t-59.5 -23.5t-76 -1q-167 -8 -196 -39q-7 -5 -13 -13q-26 -46 -11 -61t55 -28q81 -25 228 3q32 6 59.5 -13t33.5 -51.5t-12.5 -60t-51.5 -33.5q-186 -34 -304 3q-189 58 -172 216q9 87 67 145q-47 36 -59.5 68t-23 72.5t1 85t27.5 67t34 43.5 q43 48 134 79t209 21q2 50 -6 86.5t10.5 64.5t50.5 34.5t60 -11.5t35 -51q21 -100 0 -227z"/>
            <glyph horiz-adv-x="0"
                   d="M-197 -1513q-41 -63 -123 -97q-173 -70 -516.5 -67t-454.5 119q-67 69 -49 123q11 31 40.5 45.5t61 4t46.5 -40.5q44 -89 309 -91q490 -4 552 92q18 27 50.5 34t60 -11t34.5 -50.5t-11 -60.5zM-181 -1137q-41 -63 -123 -97q-173 -70 -516.5 -67t-454.5 119 q-67 69 -49 123q11 31 40.5 45.5t61 4t46.5 -40.5q44 -89 309 -91q490 -4 552 92q18 27 50.5 34t60 -11t34.5 -50.5t-11 -60.5zM-98 -587q-2 -95 -64 -157q-87 -87 -270.5 -103t-253.5 117q-49 92 -35.5 213t65 169.5t105.5 55.5t92 3t58.5 -30t17 -59t-29.5 -53.5 t-68.5 -16t-58 -9.5t-24.5 -92t31 -122q19 -21 59 -19q214 14 216 101l-23 586q-1 33 21.5 57.5t55.5 25.5t57.5 -21.5t25.5 -55.5z"/>
            <glyph horiz-adv-x="0"
                   d="M-149 -1257q-41 -63 -123 -97q-173 -70 -516.5 -67t-454.5 119q-67 69 -49 123q11 31 40.5 45.5t61 4t46.5 -40.5q44 -89 309 -91q490 -4 552 92q18 27 50.5 34t60 -11t34.5 -50.5t-11 -60.5zM-133 -881q-41 -63 -123 -97q-173 -70 -516.5 -67t-454.5 119q-67 69 -49 123 q11 31 40.5 45.5t61 4t46.5 -40.5q44 -89 309 -91q490 -4 552 92q18 27 50.5 34t60 -11t34.5 -50.5t-11 -60.5zM79 -599q1 -34 -22.5 -57.5t-56.5 -23.5t-56.5 23t-24.5 75q-1 104 -61 122q-23 6 -71 3l-34 -5q-68 -32 -165 -17q-32 4 -50.5 26.5t-18 53.5t19.5 53t50 25 l111 14q22 22 23 105l-4 200q0 34 23 57.5t56 24.5t57 -22t24 -56l4 -200q-1 -64 -9 -102q113 -18 167 -120q38 -71 38 -179z"/>
            <glyph horiz-adv-x="1400"
                   d="M1593 1647q34 -48 37.5 -68t1.5 -41q-4 -44 -13 -59q-12 -21 -23 -33q-52 -35 -67 -38l-35 -4q-54 5 -72 16q-37 22 -61 70q-11 21 -11 55q8 66 34 96q39 47 108 47q57 -9 80 -24zM919 1284l200 7q-9 263 -92 346t-307 83q-177 0 -270.5 -93.5t-131.5 -261.5 q-10 -42 -17 -85h380q40 0 103 3.5t135 0.5zM947 1123q-96 -3 -266 -3h-400q-16 -219 26 -438q214 7 392 7t307 -9q33 -3 64 91.5t40 171.5t8 95q-2 54 -121 78q-23 4 -50 7zM1254 1132q32 -61 22 -141q-36 -321 -147 -424q83 -91 57 -233q-33 -181 -136 -284 q-130 -130 -357 -130q-152 0 -335 114q-18 11 -32 31q-52 73 -156 492q-69 281 -49 563h-121q-33 0 -56.5 23.5t-23.5 56.5t23.5 56.5t56.5 23.5h139q9 60 23 121q48 212 167 332q147 147 391 147q358 0 471 -196q78 -135 88 -391q94 -2 136 -12.5t59 -39t9 -61t-36.5 -49.5 t-61 -9t-131.5 10zM1007 463q-60 62 -246.5 64.5t-416.5 -4.5q81 -322 112 -365q90 -78 244 -78t229 75.5t99 206.5q12 66 -21 101zM1195 -640q-41 -63 -123 -97q-173 -70 -516.5 -67t-454.5 119q-67 69 -49 123q11 31 40.5 45.5t61 4t46.5 -40.5q44 -89 309 -91 q490 -4 552 92q18 27 50.5 34t60 -11t34.5 -50.5t-11 -60.5zM1211 -264q-41 -63 -123 -97q-173 -70 -516.5 -67t-454.5 119q-67 69 -49 123q11 31 40.5 45.5t61 4t46.5 -40.5q44 -89 309 -91q490 -4 552 92q18 27 50.5 34t60 -11t34.5 -50.5t-11 -60.5z"/>
            <glyph horiz-adv-x="1400"
                   d="M1648 1640q34 -48 37.5 -68t1.5 -40q-4 -44 -13 -59q-12 -22 -23 -33q-52 -35 -67 -38l-35 -5q-54 5 -72 16q-37 22 -61 70q-11 22 -11 56q8 65 34 96q39 46 108 46q57 -8 80 -23zM919 1284q90 2 251.5 9.5t253.5 -15.5q33 -8 50 -36.5t9 -61t-36.5 -49.5t-61 -9 t-131.5 10q32 -61 22 -141q-36 -321 -147 -424q83 -91 57 -233q-33 -181 -136 -284q-130 -130 -357 -130q-152 0 -335 114q-18 11 -32 31q-52 73 -156 496q-69 280 -50 559h-120q-33 0 -56.5 23.5t-23.5 56.5t23.5 56.5t56.5 23.5h138q10 61 24 121q84 362 412 475 q241 83 522 1q212 -62 207 -210q-1 -33 -25 -55.5t-57.5 -21.5t-56 25t-21.5 58q0 3 -14 17t-79 33q-231 68 -424 1q-107 -37 -196 -125.5t-129 -318.5h380q40 0 103 3.5t135 0.5zM947 1123q-96 -3 -266 -3h-401q-16 -218 27 -438q214 7 392 7t307 -9q33 -3 64 91.5 t40 171.5t8 95q-2 54 -121 78q-23 4 -50 7zM1007 463q-60 62 -246.5 64.5t-416.5 -4.5q81 -322 112 -365q84 -78 241 -78t232 75.5t99 206.5q12 66 -21 101z"/>
            <glyph horiz-adv-x="1400"
                   d="M1600 1625q34 -48 37.5 -68t1.5 -41q-4 -44 -13 -59q-12 -21 -23 -33q-52 -35 -67 -38l-35 -4q-54 5 -72 16q-37 22 -61 70q-11 21 -11 55q8 66 34 96q39 47 108 47q57 -9 80 -24zM919 1284l200 7q-9 263 -92 346t-307 83q-177 0 -270.5 -93.5t-131.5 -261.5 q-10 -42 -17 -85h380q40 0 103 3.5t135 0.5zM947 1123q-96 -3 -266 -3h-400q-16 -219 26 -438q214 7 392 7t307 -9q33 -3 64 91.5t40 171.5t8 95q-2 54 -121 78q-23 4 -50 7zM1254 1132q32 -61 22 -141q-36 -321 -147 -424q83 -91 57 -233q-33 -181 -136 -284 q-130 -130 -357 -130q-152 0 -335 114q-18 11 -32 31q-52 73 -156 492q-69 281 -49 563h-121q-33 0 -56.5 23.5t-23.5 56.5t23.5 56.5t56.5 23.5h139q9 60 23 121q48 212 167 332q147 147 391 147q358 0 471 -196q78 -135 88 -391q94 -2 136 -12.5t59 -39t9 -61t-36.5 -49.5 t-61 -9t-131.5 10zM1007 463q-60 62 -246.5 64.5t-416.5 -4.5q81 -322 112 -365q90 -78 244 -78t229 75.5t99 206.5q12 66 -21 101zM1223 -292q-41 -63 -123 -97q-173 -70 -516.5 -67t-454.5 119q-67 69 -49 123q11 31 40.5 45.5t61 4t46.5 -40.5q44 -89 309 -91 q490 -4 552 92q18 27 50.5 34t60 -11t34.5 -50.5t-11 -60.5z"/>
            <glyph horiz-adv-x="2000"
                   d="M2366 2020q-8 -254 -145 -391.5t-406 -126.5q-201 8 -306 113q-146 147 -85 455q6 32 33.5 50.5t60 12t51 -34t11.5 -60.5q-44 -223 42 -309q61 -61 199 -67q199 -8 289 82t96 280q1 34 25 56.5t57.5 21.5t56 -25t21.5 -57zM2132 1286q33 0 56.5 -23.5t23.5 -56.5 t-23.5 -56.5t-57.5 -23.5h-405q-33 0 -56.5 23.5t-23.5 56.5t23.5 56.5t56.5 23.5h406zM919 1284q90 2 251.5 9.5t253.5 -15.5q33 -8 50 -36.5t9 -61t-36.5 -49.5t-61 -9t-131.5 10q32 -61 22 -141q-36 -321 -147 -424q83 -91 57 -233q-33 -181 -136 -284 q-130 -130 -357 -130q-152 0 -335 114q-18 11 -32 31q-52 73 -156 496q-69 280 -50 559h-120q-33 0 -56.5 23.5t-23.5 56.5t23.5 56.5t56.5 23.5h138q10 61 24 121q84 362 412 475q241 83 522 1q212 -62 207 -210q-1 -33 -25 -55.5t-57.5 -21.5t-56 25t-21.5 58q0 3 -14 17 t-79 33q-231 68 -424 1q-107 -37 -196 -125.5t-129 -318.5h380q40 0 103 3.5t135 0.5zM947 1123q-96 -3 -266 -3h-401q-16 -218 27 -438q214 7 392 7t307 -9q33 -3 64 91.5t40 171.5t8 95q-2 54 -121 78q-23 4 -50 7zM1007 463q-60 62 -246.5 64.5t-416.5 -4.5 q81 -322 112 -365q84 -78 241 -78t232 75.5t99 206.5q12 66 -21 101zM1770 1286q33 0 56.5 -23.5t23.5 -56.5t-23.5 -56.5t-56.5 -23.5h-205q-33 0 -56.5 23.5t-23.5 56.5t23.5 56.5t56.5 23.5h205zM1589 1286q33 0 56.5 -23.5t23.5 -56.5t-23.5 -56.5t-56.5 -23.5h-205 q-33 0 -56.5 23.5t-23.5 56.5t23.5 56.5t56.5 23.5h205z"/>
            <glyph d="M231 -60q34 -48 37.5 -68t1.5 -40q-4 -44 -13 -59q-12 -22 -23 -34q-52 -34 -67 -37l-35 -5q-54 5 -72 16q-37 22 -61 70q-11 22 -11 56q8 65 34 96q39 46 108 46q57 -8 80 -23zM1205 1280q33 0 56.5 -23.5t23.5 -56.5t-23.5 -56.5t-56.5 -23.5h-79q18 -375 -166 -618 q99 -191 181 -480q9 -32 -7 -61t-48 -38t-61 7t-38 48q-67 236 -143 398q-236 -219 -464 -196q-148 16 -229 97q-103 102 -85 290q12 118 97 203t275 110q240 33 430 -228q113 188 98 468h-966q-33 0 -56.5 23.5t-23.5 56.5t23.5 56.5t56.5 23.5h1038h2.5h3.5h161zM764 521 q-145 222 -317 199q-124 -16 -170 -62t-51 -107q-11 -112 34 -157t136 -54q169 -18 368 181z"/>
            <glyph horiz-adv-x="1600"
                   d="M188 1280q144 0 206 -123q31 -61 37 -152q27 -440 -158 -579q-19 -111 0 -153q78 -176 144 -193q199 1 267 70q35 34 35 78t5 59q23 360 -4 839q-2 34 20 58.5t55.5 26.5t58 -20t26.5 -55q29 -510 2 -890q19 -177 130 -179q288 -5 309 158q29 227 -14 970q-2 35 21.5 60 t57.5 25h214q33 0 56.5 -23.5t23.5 -56.5t-23.5 -56.5t-56.5 -23.5h-129q36 -661 10 -898q1 -5 1 -11l-5 -213q0 -33 -24 -56t-57 -22t-50.5 19t-22.5 32q-119 -68 -316 -64q-140 3 -219 121q-118 -108 -378 -108q-71 0 -145 71t-138 217q-42 96 -5 282q7 37 31.5 50.5 t37.5 26.5q100 100 80 428q-5 79 -26.5 102t-56.5 23h-188q-33 0 -56.5 23.5t-23.5 56.5t23.5 56.5t56.5 23.5h188zM223 -276q34 -48 37.5 -68t1.5 -40q-4 -44 -13 -59q-12 -22 -23 -34q-52 -34 -67 -37l-35 -5q-54 5 -72 16q-37 22 -61 70q-11 22 -11 56q8 65 34 96 q39 46 108 46q57 -8 80 -23z"/>
            <glyph horiz-adv-x="1400"
                   d="M1405 1280q33 0 56.5 -23.5t23.5 -56.5t-23.5 -56.5t-56.5 -23.5h-123q34 -504 -2 -887q-11 -116 -87 -192q-121 -121 -401 -121q-209 0 -313.5 104.5t-56.5 317.5q19 84 30 153q-51 2 -120 6q-119 8 -189.5 76.5t-40.5 190.5q42 165 253 208q120 25 200 -55t74 -269 q237 -1 509 22q0 209 -16 446h-1122q-33 0 -56.5 23.5t-23.5 56.5t23.5 56.5t56.5 23.5h1405zM615 492q-4 -26 -11 -60l-14 -73q-7 -39 -12 -53q-29 -126 21.5 -176t192.5 -50q213 0 288 75q35 35 40 92q12 126 16 266q-277 -22 -521 -21zM469 654q4 123 -31 157 q-15 15 -70 4q-93 -19 -110 -87q-9 -32 -1 -39q27 -24 92 -28.5t120 -6.5zM295 108q34 -48 37.5 -68t1.5 -40q-4 -44 -13 -59q-12 -22 -23 -34q-52 -34 -67 -37l-35 -5q-54 5 -72 16q-37 22 -61 70q-11 22 -11 56q8 65 34 96q39 46 108 46q57 -8 80 -23z"/>
            <glyph d="M1205 1280q33 0 56.5 -23.5t23.5 -56.5t-23.5 -56.5t-56.5 -23.5h-116q9 -128 -10 -271q-6 -47 -28.5 -68t-28.5 -26q-79 -65 -367 -32.5t-340 13.5q-27 -30 -39 -144q-4 -33 7 -43q75 -70 361 -41q232 23 330.5 -75.5t85.5 -255.5t-135 -213q-52 -23 -110 -26l-425 -17 q-149 -4 -219.5 71t-55 207.5t94.5 202.5q-108 72 -93.5 206.5t52 195.5t79.5 78q94 37 354.5 7.5t319.5 -7.5q16 126 7 238h-929q-33 0 -56.5 23.5t-23.5 56.5t23.5 56.5t56.5 23.5h997h4h4h200zM521 86q10 87 -19 203q-4 17 -11 24t-28 7q-108 1 -144.5 -35.5t-43.5 -99 t13 -85t79.5 -20.5t132.5 5zM682 93l116 5q56 2 77.5 22t24.5 65q7 88 -31 127q-57 54 -217 36l6 -21q32 -128 24 -234zM279 -332q34 -48 37.5 -68t1.5 -40q-4 -44 -13 -59q-12 -22 -23 -34q-52 -34 -67 -37l-35 -5q-54 5 -72 16q-37 22 -61 70q-11 22 -11 56q8 65 34 96 q39 46 108 46q57 -8 80 -23z"/>
            <glyph d="M227 -334q34 -48 37.5 -68t1.5 -40q-4 -44 -13 -59q-12 -22 -23 -34q-52 -34 -67 -37l-35 -5q-54 5 -72 16q-37 22 -61 70q-11 22 -11 56q8 65 34 96q39 46 108 46q57 -8 80 -23zM1285 1200q0 -33 -23.5 -56.5t-56.5 -23.5h-182q-79 -175 -274 -275q112 -25 178 -91 q132 -131 58 -388q-12 -42 -55 -112q87 -98 140 -223q13 -30 0.5 -61t-43 -44t-61.5 -0.5t-44 43.5q-34 80 -86 148l-28 -37q-95 -125 -377 -148q-162 -13 -245 67t-66 225q9 76 67 134t135 94q199 95 391 -19q52 -31 98 -67q15 27 20 44q48 166 -17 231q-34 34 -118 52 t-177 71q-141 -34 -318 -44q-34 -2 -58.5 20t-26.5 55.5t20 58t55 26.5q82 5 154 14q-98 93 -188 226h-157q-33 0 -56.5 23.5t-23.5 56.5t23.5 56.5t56.5 23.5h1205q33 0 56.5 -23.5t23.5 -56.5zM839 1120h-484q93 -115 191 -184q202 61 293 184zM722 232q-42 34 -91 63 q-119 71 -241 13q-51 -25 -90.5 -64t-18.5 -100.5t136 -51.5q212 17 263 84z"/>
            <glyph d="M1285 1200q0 -33 -23.5 -56.5t-56.5 -23.5h-114l-19 -325q-2 -36 -30.5 -58t-64.5 -16q-154 29 -408 8q-30 -15 -61 -6l-27 -3q-216 -23 -193 -169q8 -31 24 -43q62 -50 256 -27q251 52 425 22q33 -6 52 -33t13.5 -59.5t-32.5 -51.5t-59 -14q-124 21 -214 4l-164 -27 q-118 -25 -127 -138q-5 -58 5 -69q89 -88 516 -1q33 7 60.5 -11t34.5 -50.5t-11 -60.5t-50 -34q-345 -71 -486 -41q-248 52 -231 258q8 88 40 150q-106 20 -160 89l-18 24q-44 62 -34 166t87 180q39 40 104 64q-137 121 -162 272h-157q-33 0 -56.5 23.5t-23.5 56.5 t23.5 56.5t56.5 23.5h231h1h2h756q25 9 52 0h163q33 0 56.5 -23.5t23.5 -56.5zM931 1120h-609q38 -129 218 -233q221 20 377 4zM223 -212q34 -48 37.5 -68t1.5 -40q-4 -44 -13 -59q-12 -22 -23 -34q-52 -34 -67 -37l-35 -5q-54 5 -72 16q-37 22 -61 70q-11 22 -11 56 q8 65 34 96q39 46 108 46q57 -8 80 -23z"/>
            <glyph d="M1205 1280q33 0 56.5 -23.5t23.5 -56.5t-23.5 -56.5t-56.5 -23.5h-140l19 -315q2 -44 -33 -69.5t-76 -9.5q-244 95 -398 25q-260 -119 -296.5 -324t35.5 -277q35 -35 99 -48q217 -42 439 62q51 25 68 40q6 23 28 42.5t55 17.5t55 -27t19 -65q-5 -81 -157 -152 q-269 -127 -537 -74q-113 22 -182 91q-132 131 -80 418.5t388 441.5q173 79 406 16l-12 207h-905q-33 0 -56.5 23.5t-23.5 56.5t23.5 56.5t56.5 23.5h979h2h2h222zM303 -300q34 -48 37.5 -68t1.5 -40q-4 -44 -13 -59q-12 -22 -23 -34q-52 -34 -67 -37l-35 -5q-54 5 -72 16 q-37 22 -61 70q-11 22 -11 56q8 65 34 96q39 46 108 46q57 -8 80 -23z"/>
            <glyph d="M1285 1200q0 -33 -23.5 -56.5t-56.5 -23.5h-516q-16 -129 3 -238q84 -2 169 -30q227 -74 235 -414q7 -293 -202 -422q-277 -171 -544 -46.5t-258 432.5q7 244 262 388q89 50 178 73q-19 120 -4 257h-528q-33 0 -56.5 23.5t-23.5 56.5t23.5 56.5t56.5 23.5h1205 q33 0 56.5 -23.5t23.5 -56.5zM936 447q-5 214 -125 253q-185 60 -370 -44.5t-189 -252.5q-6 -209 162 -286q193 -90 396 35q131 81 126 295zM303 -276q34 -48 37.5 -68t1.5 -40q-4 -44 -13 -59q-12 -22 -23 -34q-52 -34 -67 -37l-35 -5q-54 5 -72 16q-37 22 -61 70 q-11 22 -11 56q8 65 34 96q39 46 108 46q57 -8 80 -23z"/>
            <glyph d="M1205 1280q33 0 56.5 -23.5t23.5 -56.5t-23.5 -56.5t-56.5 -23.5h-922q25 -135 18 -263q227 108 470 36q114 -34 181 -101q136 -137 65 -379q-29 -97 -83 -175l140 -192q19 -27 13 -60t-33 -52t-60 -13t-52 33l-118 164q-114 -95 -262 -137q-268 -77 -355 19 q-41 45 -49.5 93.5t3.5 113.5q26 132 107 213q116 116 332 116q10 0 25.5 -3.5t19.5 -4.5q50 -19 98.5 -67.5t84.5 -89.5q21 41 35 88q45 150 -24 220q-39 38 -114 60q-248 74 -476 -102q-45 -35 -92 -4.5t-35 84.5q42 191 -2 403h-120q-33 0 -56.5 23.5t-23.5 56.5 t23.5 56.5t56.5 23.5h1205zM725 244q-94 113 -132 132q-237 -3 -271 -183q-13 -67 -5 -76q28 -33 174 9.5t234 117.5zM335 -300q34 -48 37.5 -68t1.5 -40q-4 -44 -13 -59q-12 -22 -23 -34q-52 -34 -67 -37l-35 -5q-54 5 -72 16q-37 22 -61 70q-11 22 -11 56q8 65 34 96 q39 46 108 46q57 -8 80 -23z"/>
            <glyph horiz-adv-x="1400"
                   d="M1405 1280q33 0 56.5 -23.5t23.5 -56.5t-23.5 -56.5t-56.5 -23.5h-551q23 -51 43 -117q107 -88 313 -124q32 -6 51.5 -33t13.5 -59.5t-33 -52t-60 -13.5q-135 24 -237 68q10 -60 18 -124t-49 -87t-94 26q-95 128 -263 72q-90 -30 -148 -88q-107 -107 -113 -326 q-2 -78 30 -110q100 -100 403 -53q312 45 371 155l22 99q7 33 35 50.5t60.5 10.5t50 -35t10.5 -60l-24 -108q-10 -47 -65 -102q-124 -124 -438 -168q-385 -55 -530 90q-89 89 -85 235q12 442 371 562q150 50 267 8q-8 40 -17 75q-88 88 -120 209h-637q-33 0 -56.5 23.5 t-23.5 56.5t23.5 56.5t56.5 23.5h1405zM271 -316q34 -48 37.5 -68t1.5 -40q-4 -44 -13 -59q-12 -22 -23 -34q-52 -34 -67 -37l-35 -5q-54 5 -72 16q-37 22 -61 70q-11 22 -11 56q8 65 34 96q39 46 108 46q57 -8 80 -23z"/>
            <glyph horiz-adv-x="1400"
                   d="M1405 1280q33 0 56.5 -23.5t23.5 -56.5t-23.5 -56.5t-56.5 -23.5h-314q52 -199 -47 -314q76 -41 125 -90q131 -131 91 -299q-92 -394 -567 -472q-232 -36 -348 -33q-170 5 -216 93q-15 29 -5 61t39 47t59 5.5t45 -33.5q63 -38 400 18q370 61 435 339q22 93 -40.5 155.5 t-183.5 107.5q-154 -47 -346 -29q-33 4 -54 29.5t-17.5 58.5t29 54t58.5 18q150 -15 273 19q22 17 48 17q29 13 47 31q61 61 8 217h-924q-33 0 -56.5 23.5t-23.5 56.5t23.5 56.5t56.5 23.5h1405zM255 -364q34 -48 37.5 -68t1.5 -40q-4 -44 -13 -59q-12 -22 -23 -34 q-52 -34 -67 -37l-35 -5q-54 5 -72 16q-37 22 -61 70q-11 22 -11 56q8 65 34 96q39 46 108 46q57 -8 80 -23z"/>
            <glyph d="M1091 1120q-15 -58 -18.5 -249t-6.5 -318.5t4 -345.5q19 -34 3 -71q3 -67 6.5 -115.5t-18 -73.5t-55 -27t-58.5 19.5t-27 55.5l-2 28q-180 -87 -466 -103q-206 -12 -322 158q-85 125 -33 341q7 30 34 48q118 77 162 159q3 8 7 15q19 65 19 327q0 65 -37 102t-130.5 51.5 t-125 3t-61.5 2.5t-41.5 45.5t2.5 61.5q37 79 254 45q142 -22 220.5 -101t78.5 -220t-8 -236q174 45 438 47q3 127 10 260q12 251 140 251h145q33 0 56.5 -23.5t23.5 -56.5t-23.5 -56.5t-56.5 -23.5h-114zM911 202q-7 192 -4 407q-319 -3 -478 -70q-59 -100 -182 -187 q-24 -124 16 -183q65 -96 181 -89q311 17 467 122zM287 -284q34 -48 37.5 -68t1.5 -40q-4 -44 -13 -59q-12 -22 -23 -34q-52 -34 -67 -37l-35 -5q-54 5 -72 16q-37 22 -61 70q-11 22 -11 56q8 65 34 96q39 46 108 46q57 -8 80 -23z"/>
            <glyph horiz-adv-x="1600"
                   d="M1685 1200q0 -33 -23.5 -56.5t-56.5 -23.5h-364q14 -107 16 -176q5 -153 -50 -202q-17 -16 -24 -20q-111 -81 -517 -155q-9 -53 -22 -113q-65 -289 4 -357q16 -16 47 -17l60 -2q30 229 137 337q78 77 227 92t245 -73.5t67 -286.5q-9 -58 -59 -109q-138 -138 -683 -118 q-174 6 -221 188q-35 136 25 406l7 31q-216 -15 -298 67q-53 53 -49.5 141.5t73.5 158t229 87.5q102 12 166.5 -53.5t61.5 -212.5q338 63 408 119q19 54 -12 268h-1079q-33 0 -56.5 23.5t-23.5 56.5t23.5 56.5t56.5 23.5h1605q33 0 56.5 -23.5t23.5 -56.5zM525 708 q8 98 -20 128q-7 7 -32 5q-158 -18 -161 -90q-1 -22 4.5 -27.5t20.5 -10.5q59 -20 188 -5zM1273 173q17 125 -29 153t-123.5 20.5t-115.5 -45.5q-65 -65 -88 -222q110 4 193 19q156 27 163 75zM295 108q34 -48 37.5 -68t1.5 -40q-4 -44 -13 -59q-12 -22 -23 -34 q-52 -34 -67 -37l-35 -5q-54 5 -72 16q-37 22 -61 70q-11 22 -11 56q8 65 34 96q39 46 108 46q57 -8 80 -23z"/>
            <glyph horiz-adv-x="1400"
                   d="M1405 1280q33 0 56.5 -23.5t23.5 -56.5t-23.5 -56.5t-56.5 -23.5h-140q21 -346 -13 -443q-17 -49 -60 -67q-218 -89 -473 -123q-64 -280 -30 -382q5 -14 11.5 -20.5t24.5 -4.5q321 24 400 63q6 15 24 33t51 18t56.5 -23.5t23.5 -62.5q0 -114 -251 -156q-111 -18 -292 -32 q-91 -7 -150 52q-115 115 -35 500q-236 -7 -328.5 87t-67.5 228q36 191 310 213q168 14 241 -114q49 -84 38 -235q187 29 362 97q17 80 -2 372h-1105q-33 0 -56.5 23.5t-23.5 56.5t23.5 56.5t56.5 23.5h1177h3h2h223zM583 634q23 187 -60 204q-58 12 -116 -7.5t-80.5 -42 t-16 -59.5t20.5 -51q54 -55 252 -44zM295 108q34 -48 37.5 -68t1.5 -40q-4 -44 -13 -59q-12 -22 -23 -34q-52 -34 -67 -37l-35 -5q-54 5 -72 16q-37 22 -61 70q-11 22 -11 56q8 65 34 96q39 46 108 46q57 -8 80 -23z"/>
            <glyph d="M1205 1280q33 0 56.5 -23.5t23.5 -56.5t-23.5 -56.5t-56.5 -23.5h-509q19 -144 13 -241q171 -14 263 -106q122 -121 108 -342q-28 -447 -273 -509q-32 -8 -60.5 9t-36.5 49.5t9 61t50 36.5q131 32 151 363q9 149 -58 216.5t-229 63.5q4 1 -32 -1q-125 -7 -195 -77 q-91 -91 -102 -284.5t31 -255.5l8 -9q18 -18 52 -14.5t59.5 -17.5t29 -54t-17.5 -58.5t-54 -29.5q-137 -13 -209.5 94t-58 358t148.5 384q100 100 256 120q8 86 -14 244h-535q-33 0 -56.5 23.5t-23.5 56.5t23.5 56.5t56.5 23.5h1205zM279 -308q34 -48 37.5 -68t1.5 -40 q-4 -44 -13 -59q-12 -22 -23 -34q-52 -34 -67 -37l-35 -5q-54 5 -72 16q-37 22 -61 70q-11 22 -11 56q8 65 34 96q39 46 108 46q57 -8 80 -23z"/>
            <glyph d="M1285 1200q0 -33 -23.5 -56.5t-56.5 -23.5h-114q-8 -30 -11 -97q-23 -450 -10 -816q19 -34 3 -71q3 -67 6.5 -115.5t-18 -73.5t-55 -27t-58.5 19.5t-27 55.5l-2 28q-180 -87 -466 -103q-206 -12 -322 158q-85 125 -33 341q7 30 34 48q124 82 167 169q20 40 21 332 q0 65 -37 102t-130.5 51.5t-125 3t-61.5 2.5t-41.5 45.5t2.5 61.5q37 79 256 45q140 -22 218.5 -101t78.5 -210q-1 -330 -36 -400q-58 -118 -197 -216q-24 -124 16 -183q65 -96 181 -89q311 17 467 122q-14 370 9 829q12 249 140 249h145q33 0 56.5 -23.5t23.5 -56.5z M263 -308q34 -48 37.5 -68t1.5 -40q-4 -44 -13 -59q-12 -22 -23 -34q-52 -34 -67 -37l-35 -5q-54 5 -72 16q-37 22 -61 70q-11 22 -11 56q8 65 34 96q39 46 108 46q57 -8 80 -23z"/>
            <glyph d="M1205 1280q33 0 56.5 -23.5t23.5 -56.5t-23.5 -56.5t-56.5 -23.5h-115q17 -932 -7 -1130q-4 -32 -30 -52.5t-58.5 -16.5t-52 28.5t-18.5 52.5q-450 -126 -618 -30q-124 72 -110 236q18 192 94 303q-161 67 -149.5 276.5t73.5 332.5h-214q-33 0 -56.5 23.5t-23.5 56.5 t23.5 56.5t56.5 23.5h1205zM516 486q-136 -29 -160 -294q-6 -60 24 -77q125 -72 554 56q4 135 3 356q-135 -26 -416 -40q-3 -1 -5 -1zM929 1120h-506q-105 -50 -123 -346q-6 -88 38 -111t122 -19q367 16 476 46q-2 190 -7 430zM303 -276q34 -48 37.5 -68t1.5 -40 q-4 -44 -13 -59q-12 -22 -23 -34q-52 -34 -67 -37l-35 -5q-54 5 -72 16q-37 22 -61 70q-11 22 -11 56q8 65 34 96q39 46 108 46q57 -8 80 -23z"/>
            <glyph d="M1205 1280q33 0 56.5 -23.5t23.5 -56.5t-23.5 -56.5t-56.5 -23.5h-124q-15 -244 -114 -435q153 -190 28 -532q-79 -218 -399 -233q-355 -17 -433 62q-43 43 -43 85t23.5 65.5t56.5 23.5t52.5 -19.5t25.5 -40.5q68 -29 329 -16q195 10 238 127q76 209 26 329 q-76 -96 -178 -175q-145 -112 -399 -38q-89 26 -132 79l-17 21q-22 30 -35.5 94t9.5 149q67 249 387 216q211 -23 334 -91q67 146 81 329h-921q-33 0 -56.5 23.5t-23.5 56.5t23.5 56.5t56.5 23.5h1003h1h1h200zM759 653q-93 51 -249 67.5t-208 -35.5q-17 -17 -34 -81 q-27 -99 70 -127q176 -52 264.5 16t156.5 160zM287 -356q34 -48 37.5 -68t1.5 -40q-4 -44 -13 -59q-12 -22 -23 -34q-52 -34 -67 -37l-35 -5q-54 5 -72 16q-37 22 -61 70q-11 22 -11 56q8 65 34 96q39 46 108 46q57 -8 80 -23z"/>
            <glyph d="M1285 1200q0 -33 -23.5 -56.5t-56.5 -23.5h-114q-8 -30 -11 -97q-23 -450 -10 -816q19 -34 3 -71q3 -67 6.5 -115.5t-18 -73.5t-55 -27t-58.5 19.5t-27 55.5l-2 28q-180 -87 -466 -103q-206 -12 -322 158q-85 125 -33 341q7 30 34 48q124 82 167 169q20 40 21 332 q0 65 -35.5 100.5t-130.5 51.5t-126.5 4.5t-61.5 2.5t-41.5 45.5t2.5 61.5q37 78 251 46q167 -14 478.5 0.5t409.5 -0.5h139q33 0 56.5 -23.5t23.5 -56.5zM911 202q-14 370 9 829q3 55 11 98q-95 0 -241.5 -7t-241.5 -8q32 -62 32 -146q-1 -330 -36 -400q-58 -118 -197 -216 q-24 -124 16 -183q65 -96 181 -89q311 17 467 122zM303 -316q34 -48 37.5 -68t1.5 -40q-4 -44 -13 -59q-12 -22 -23 -34q-52 -34 -67 -37l-35 -5q-54 5 -72 16q-37 22 -61 70q-11 22 -11 56q8 65 34 96q39 46 108 46q57 -8 80 -23z"/>
            <glyph horiz-adv-x="1398"
                   d="M1101 304q-79 -8 -208 3q12 -107 -14 -272q-5 -29 -27 -48q-121 -103 -413 -66q-219 27 -306 154.5t-35 343.5q7 30 34 48q124 82 167 169q20 40 21 332q0 80 -35.5 115t-117.5 37h-167q-33 0 -56.5 23.5t-23.5 56.5t23.5 56.5t56.5 23.5h168h1h1l14 -1q543 -23 1059 1 h11h151q33 0 56.5 -23.5t23.5 -56.5t-23.5 -56.5t-56.5 -23.5h-121q-8 -30 -11 -97q-29 -579 1 -1018q2 -33 -19.5 -58t-55 -27t-58.5 19.5t-27 55.5q-10 146 -13 309zM1099 464q-1 264 7.5 438.5t15.5 212.5q-329 -11 -667 -4q25 -61 25 -143q-1 -330 -36 -400 q-58 -118 -197 -216q-28 -143 29 -200t182 -73q188 -23 268 16q27 197 -10 267q-24 43 4 83.5t77 33.5q228 -30 302 -15zM303 -332q34 -48 37.5 -68t1.5 -40q-4 -44 -13 -59q-12 -22 -23 -34q-52 -34 -67 -37l-35 -5q-54 5 -72 16q-37 22 -61 70q-11 22 -11 56q8 65 34 96 q39 46 108 46q57 -8 80 -23z"/>
            <glyph horiz-adv-x="1000"
                   d="M1005 1280q33 0 56.5 -23.5t23.5 -56.5t-23.5 -56.5t-56.5 -23.5h-116q25 -511 -30 -990q-7 -51 -42 -85q-13 -11 -45 -36q-108 -68 -365 -89q-153 -12 -225 63q-56 58 -62 147q-29 422 176 529q242 126 440 93q2 185 -7 368h-729q-33 0 -56.5 23.5t-23.5 56.5t23.5 56.5 t56.5 23.5h803h2h2h198zM700 154q0 1 12 110.5t20 324.5q-153 37 -362 -72q-112 -58 -90 -375q2 -32 13 -43q23 -26 100 -19q248 21 307 74zM295 -308q34 -48 37.5 -68t1.5 -40q-4 -44 -13 -59q-12 -22 -23 -34q-52 -34 -67 -37l-35 -5q-54 5 -72 16q-37 22 -61 70 q-11 22 -11 56q8 65 34 96q39 46 108 46q57 -8 80 -23z"/>
            <glyph horiz-adv-x="1600"
                   d="M1094 101q34 -48 37.5 -68t1.5 -40q-4 -44 -13 -59q-12 -22 -23 -34q-52 -34 -67 -37l-35 -5q-54 5 -72 16q-37 22 -61 70q-11 22 -11 56q8 65 34 96q39 46 108 46q57 -8 80 -23zM258 1280q332 0 417 -219q49 -128 49 -324q324 50 407 52t108 2l102 -1q-2 179 -21 354 q3 56 12 74q33 62 108 62h165q33 0 56.5 -23.5t23.5 -56.5t-23.5 -56.5t-56.5 -23.5h-121q19 -206 17 -418q4 -19 0 -38q-7 -331 -66 -678q-6 -32 -33 -51t-59.5 -13.5t-51.5 32.5t-14 60q54 315 63 617q-137 18 -624 -58q-47 -518 -201 -591q-237 -113 -334 -11 q-40 42 -53.5 116t23 232t141.5 263t271 129q5 182 -39 295.5t-266 113.5h-258q-33 0 -56.5 23.5t-23.5 56.5t23.5 56.5t56.5 23.5h258zM552 546q-195 -46 -250 -282q-25 -107 -18.5 -141t11 -39t39.5 0.5t73 23.5t41 20q65 70 104 418z"/>
            <glyph horiz-adv-x="1600"
                   d="M1100 103q34 -48 37.5 -68t1.5 -40q-4 -44 -13 -59q-12 -22 -23 -34q-52 -34 -67 -37l-35 -5q-54 5 -72 16q-37 22 -61 70q-11 22 -11 56q8 65 34 96q39 46 108 46q57 -8 80 -23zM537 436q-212 -40 -234 -168q-26 -145 4 -177q19 -20 138 35l5 5q50 55 87 305zM557 601 q23 260 -32 402q-34 90 -175 111l-160 6h-190q-33 0 -56.5 23.5t-23.5 56.5t23.5 56.5t56.5 23.5h258q57 0 107 -6q551 -18 1061 5q7 1 16 1h163q33 0 56.5 -23.5t23.5 -56.5t-23.5 -56.5t-56.5 -23.5h-121q52 -545 -49 -1134q-6 -32 -33 -51t-59.5 -13.5t-51.5 32.5t-14 60 q44 255 58 501q-113 28 -632 -53q-7 -57 -18 -118q-53 -307 -170 -362q-224 -105 -317 -8.5t-53 322.5q46 248 412 305zM653 1107q88 -153 67 -480q458 70 621 45q4 225 -18 443q-327 -12 -670 -8z"/>
            <glyph d="M1205 1280q33 0 56.5 -23.5t23.5 -56.5t-23.5 -56.5t-56.5 -23.5h-160q63 -787 14 -965q-64 -235 -515 -235q-351 0 -413 203q-13 44 -11 97q14 294 119 400q87 86 214 58q33 -7 50.5 -35t10.5 -60.5t-35 -50t-65 -9.5t-61 -16q-62 -62 -73 -295q-2 -48 24 -75 q56 -57 240 -57q329 0 361 117q41 153 -21 923h-884q-33 0 -56.5 23.5t-23.5 56.5t23.5 56.5t56.5 23.5h956h3h2h244zM239 -292q34 -48 37.5 -68t1.5 -40q-4 -44 -13 -59q-12 -22 -23 -34q-52 -34 -67 -37l-35 -5q-54 5 -72 16q-37 22 -61 70q-11 22 -11 56q8 65 34 96 q39 46 108 46q57 -8 80 -23z"/>
            <glyph horiz-adv-x="1800"
                   d="M347 1280q162 -3 265 -105q81 -81 99 -238q393 37 558 -128q84 -84 105 -214h146v566q0 11 11.5 38.5t19.5 35.5l33 23q32 21 130 22h86q33 1 56.5 -22.5t23.5 -56.5t-23 -56.5t-57 -24.5h-85q-21 0 -35 -1v-573q6 -14 6 -31t-6 -31v-484q0 -33 -23.5 -56.5t-56.5 -23.5 t-56.5 23.5t-23.5 56.5v435h-141q-15 -276 -137 -398q-81 -81 -195 -92q-165 -15 -225 122q-41 96 -19 267q13 107 79 172q89 89 258 89h71q-16 62 -55 101q-113 113 -441 80q-12 -489 -253 -558q-182 -53 -276 43.5t-50 353.5q38 227 416 299q-12 106 -61 155t-145 51h-346 q-33 0 -56.5 23.5t-23.5 56.5t23.5 56.5t56.5 23.5h347zM555 753q-242 -50 -261 -163q-30 -177 11 -222q22 -23 105 1t121 184q20 83 24 200zM1218 435h-78q-103 0 -137.5 -34.5t-41.5 -86.5q-20 -158 19 -200q15 -17 65 -7q156 30 173 328zM551 -116q34 -48 37.5 -68 t1.5 -40q-4 -44 -13 -59q-12 -22 -23 -34q-52 -34 -67 -37l-35 -5q-54 5 -72 16q-37 22 -61 70q-11 22 -11 56q8 65 34 96q39 46 108 46q57 -8 80 -23z"/>
            <glyph d="M1285 1200q0 -33 -23.5 -56.5t-56.5 -23.5h-138q-5 -92 28 -282q7 -42 -23.5 -71.5t-71.5 -20.5q-151 31 -541 -6q-81 -7 -124 -50.5t-56 -136.5q-5 -38 4 -49q38 -43 283 -11q33 9 70 16q25 15 55 10q129 18 295 13q33 -1 56 -25t22 -57t-25 -56t-57 -22 q-168 5 -285 -13q-43 -19 -123 -29q-98 -35 -133.5 -103.5t-30 -93.5t23.5 -36t67.5 -22t395.5 36q17 3 25 5q5 20 25 40t53 20t56.5 -23.5t23.5 -66.5t-39.5 -82.5t-121.5 -50.5q-375 -51 -451 -34q-126 29 -175 93q-29 36 -33.5 61t-6.5 40q-10 80 48 192q5 10 11 20 q-91 10 -130 53l-22 24q-54 63 -37 191t100 211t222 96q306 28 476 17q-16 120 -13 203h-908q-33 0 -56.5 23.5t-23.5 56.5t23.5 56.5t56.5 23.5h1205q33 0 56.5 -23.5t23.5 -56.5zM311 -316q34 -48 37.5 -68t1.5 -40q-4 -44 -13 -59q-12 -22 -23 -34q-52 -34 -67 -37 l-35 -5q-54 5 -72 16q-37 22 -61 70q-11 22 -11 56q8 65 34 96q39 46 108 46q57 -8 80 -23z"/>
            <glyph horiz-adv-x="2200"
                   d="M347 1280q162 -3 265 -105q81 -81 99 -238q393 37 558 -128q84 -84 105 -214h146v566q0 11 11.5 38.5t19.5 35.5l33 23q32 21 130 22h86q33 1 56.5 -22.5t23.5 -56.5t-23 -56.5t-57 -24.5h-85q-21 0 -35 -1v-573q6 -14 6 -31t-6 -31v-484q0 -33 -23.5 -56.5t-56.5 -23.5 t-56.5 23.5t-23.5 56.5v435h-141q-15 -276 -137 -398q-81 -81 -195 -92q-165 -15 -225 122q-41 96 -19 267q13 107 79 172q89 89 258 89h71q-16 62 -55 101q-113 113 -441 80q-12 -489 -253 -558q-182 -53 -276 43.5t-50 353.5q38 227 416 299q-12 106 -61 155t-145 51h-346 q-33 0 -56.5 23.5t-23.5 56.5t23.5 56.5t56.5 23.5h347zM555 753q-242 -50 -261 -163q-30 -177 11 -222q22 -23 105 1t121 184q20 83 24 200zM1218 435h-78q-103 0 -137.5 -34.5t-41.5 -86.5q-20 -158 19 -200q15 -17 65 -7q156 30 173 328zM2205 1280q33 0 56.5 -23.5 t23.5 -56.5t-23.5 -56.5t-56.5 -23.5h-121q13 -368 -57 -735q-6 -33 -33.5 -51.5t-60 -12t-51 33.5t-12.5 60q67 353 54 705h-124q-33 0 -56.5 23.5t-23.5 56.5t23.5 56.5t56.5 23.5h199h2h2h202zM623 -172q34 -48 37.5 -68t1.5 -40q-4 -44 -13 -59q-12 -22 -23 -34 q-52 -34 -67 -37l-35 -5q-54 5 -72 16q-37 22 -61 70q-11 22 -11 56q8 65 34 96q39 46 108 46q57 -8 80 -23z"/>
            <glyph horiz-adv-x="1600"
                   d="M770 1270q37 21 76 1q74 2 187.5 13.5t230.5 3.5t341 -8q33 0 56.5 -23.5t23.5 -56.5t-23.5 -56.5t-67 -23.5h-91.5l-23 -404q-3 -44 -42.5 -65.5t-78.5 1.5q-190 113 -406 55q-129 -35 -205.5 -111t-69 -208.5t80.5 -205.5t232 -103q193 -34 400 177q23 24 56 24t57 -23 t24 -56t-23 -57q-266 -272 -544 -223q-208 41 -319.5 152.5t-121.5 286.5q-17 312 250 448q-76 136 -59 304h-5q-145 8 -306 8q-33 0 -56.5 23.5t-23.5 56.5t23.5 56.5t56.5 23.5q164 0 251 -4.5t119 -5.5zM1343 1124q-46 1 -119.5 6.5t-180.5 -5.5t-171 -14 q-18 -144 52 -247q210 53 403 -19zM405 1280q33 0 56.5 -23.5t23.5 -56.5t-23.5 -56.5t-56.5 -23.5h-146q-12 -399 -5 -1119q0 -33 -23 -57t-56 -24t-57 23t-24 56q-7 717 5 1121h-99q-33 0 -56.5 23.5t-23.5 56.5t23.5 56.5t56.5 23.5h106q6 124 14 206q23 205 118 300 q113 114 277 91q75 -10 117 -50q76 -71 79 -204q2 -85 -44 -185q-14 -30 -45 -42t-61 2t-42 45t2 61q48 105 22 178q-14 38 -79 38q-157 1 -184 -252q-9 -75 -14 -188h139zM603 -236q34 -48 37.5 -68t1.5 -40q-4 -44 -13 -59q-12 -22 -23 -34q-52 -34 -67 -37l-35 -5 q-54 5 -72 16q-37 22 -61 70q-11 22 -11 56q8 65 34 96q39 46 108 46q57 -8 80 -23z"/>
            <glyph horiz-adv-x="1600"
                   d="M1605 1280q33 0 56.5 -23.5t23.5 -56.5t-23.5 -56.5t-56.5 -23.5h-97q-1 -441 -30 -1123q-2 -34 -26 -56t-57.5 -20.5t-55.5 25.5t-21 57q31 710 32 1117h-150q-33 0 -56.5 23.5t-23.5 56.5t23.5 56.5t56.5 23.5h149q-4 276 -28 358t-55 82q-112 0 -162 -105 q-24 -52 -24 -151q0 -33 -23.5 -56.5t-56.5 -23.5t-56.5 23.5t-23.5 56.5q0 135 34 208q98 208 312 208q78 0 135 -56q91 -92 101 -345q4 -90 5 -199h98zM370 1270q37 21 76 1q74 2 187.5 13.5t230.5 3.5t341 -8q33 0 56.5 -23.5t23.5 -56.5t-23.5 -56.5t-67 -23.5h-91.5 l-23 -404q-3 -44 -42.5 -65.5t-78.5 1.5q-190 113 -406 55q-129 -35 -205.5 -111t-69 -208.5t80.5 -205.5t232 -103q193 -34 400 177q23 24 56 24t57 -23t24 -56t-23 -57q-266 -272 -544 -223q-208 41 -319.5 152.5t-121.5 286.5q-17 312 250 448q-76 136 -59 304h-5 q-145 8 -306 8q-33 0 -56.5 23.5t-23.5 56.5t23.5 56.5t56.5 23.5q164 0 251 -4.5t119 -5.5zM943 1124q-46 1 -119.5 6.5t-180.5 -5.5t-171 -14q-18 -144 52 -247q210 53 403 -19zM295 -260q34 -48 37.5 -68t1.5 -40q-4 -44 -13 -59q-12 -22 -23 -34q-52 -34 -67 -37l-35 -5 q-54 5 -72 16q-37 22 -61 70q-11 22 -11 56q8 65 34 96q39 46 108 46q57 -8 80 -23z"/>
            <glyph horiz-adv-x="1400"
                   d="M315 -736q34 -48 37.5 -68t1.5 -40q-4 -44 -13 -59q-12 -22 -23 -34q-52 -34 -67 -37l-35 -5q-54 5 -72 16q-37 22 -61 70q-11 22 -11 56q8 65 34 96q39 46 108 46q57 -8 80 -23zM919 1284l200 7q-9 263 -92 346t-307 83q-177 0 -270.5 -93.5t-131.5 -261.5 q-10 -42 -17 -85h380q40 0 103 3.5t135 0.5zM947 1123q-96 -3 -266 -3h-400q-16 -219 26 -438q214 7 392 7t307 -9q33 -3 64 91.5t40 171.5t8 95q-2 54 -121 78q-23 4 -50 7zM1254 1132q32 -61 22 -141q-36 -321 -147 -424q83 -91 57 -233q-33 -181 -136 -284 q-130 -130 -357 -130q-152 0 -335 114q-18 11 -32 31q-52 73 -156 492q-69 281 -49 563h-121q-33 0 -56.5 23.5t-23.5 56.5t23.5 56.5t56.5 23.5h139q9 60 23 121q48 212 167 332q147 147 391 147q358 0 471 -196q78 -135 88 -391q94 -2 136 -12.5t59 -39t9 -61t-36.5 -49.5 t-61 -9t-131.5 10zM1007 463q-60 62 -246.5 64.5t-416.5 -4.5q81 -322 112 -365q90 -78 244 -78t229 75.5t99 206.5q12 66 -21 101zM1223 -292q-41 -63 -123 -97q-173 -70 -516.5 -67t-454.5 119q-67 69 -49 123q11 31 40.5 45.5t61 4t46.5 -40.5q44 -89 309 -91 q490 -4 552 92q18 27 50.5 34t60 -11t34.5 -50.5t-11 -60.5z"/>
            <glyph horiz-adv-x="1400"
                   d="M313 -1079q34 -48 37.5 -68t1.5 -40q-4 -44 -13 -59q-12 -22 -23 -34q-52 -34 -67 -37l-35 -5q-54 5 -72 16q-37 22 -61 70q-11 22 -11 56q8 65 34 96q39 46 108 46q57 -8 80 -23zM919 1284l200 7q-9 263 -92 346t-307 83q-177 0 -270.5 -93.5t-131.5 -261.5 q-10 -42 -17 -85h380q40 0 103 3.5t135 0.5zM947 1123q-96 -3 -266 -3h-400q-16 -219 26 -438q214 7 392 7t307 -9q33 -3 64 91.5t40 171.5t8 95q-2 54 -121 78q-23 4 -50 7zM1254 1132q32 -61 22 -141q-36 -321 -147 -424q83 -91 57 -233q-33 -181 -136 -284 q-130 -130 -357 -130q-152 0 -335 114q-18 11 -32 31q-52 73 -156 492q-69 281 -49 563h-121q-33 0 -56.5 23.5t-23.5 56.5t23.5 56.5t56.5 23.5h139q9 60 23 121q48 212 167 332q147 147 391 147q358 0 471 -196q78 -135 88 -391q94 -2 136 -12.5t59 -39t9 -61t-36.5 -49.5 t-61 -9t-131.5 10zM1007 463q-60 62 -246.5 64.5t-416.5 -4.5q81 -322 112 -365q90 -78 244 -78t229 75.5t99 206.5q12 66 -21 101zM1195 -640q-41 -63 -123 -97q-173 -70 -516.5 -67t-454.5 119q-67 69 -49 123q11 31 40.5 45.5t61 4t46.5 -40.5q44 -89 309 -91 q490 -4 552 92q18 27 50.5 34t60 -11t34.5 -50.5t-11 -60.5zM1211 -264q-41 -63 -123 -97q-173 -70 -516.5 -67t-454.5 119q-67 69 -49 123q11 31 40.5 45.5t61 4t46.5 -40.5q44 -89 309 -91q490 -4 552 92q18 27 50.5 34t60 -11t34.5 -50.5t-11 -60.5z"/>
            <glyph d="M133 1720q154 230 493 112q439 -154 454 -432q2 -33 -20.5 -57.5t-55.5 -26.5t-57.5 20.5t-26.5 55.5q-4 72 -78.5 146.5t-282.5 147t-292 -53.5q-19 -28 -51.5 -34.5t-60 12t-34 51t11.5 59.5zM370 1270q37 21 76 1q74 2 187.5 13.5t230.5 3.5t341 -8q33 0 56.5 -23.5 t23.5 -56.5t-23.5 -56.5t-67 -23.5h-91.5l-23 -404q-3 -44 -42.5 -65.5t-78.5 1.5q-190 113 -406 55q-129 -35 -205.5 -111t-69 -208.5t80.5 -205.5t232 -103q193 -34 400 177q23 24 56 24t57 -23t24 -56t-23 -57q-266 -272 -544 -223q-208 41 -319.5 152.5t-121.5 286.5 q-17 312 250 448q-76 136 -59 304h-5q-145 8 -306 8q-33 0 -56.5 23.5t-23.5 56.5t23.5 56.5t56.5 23.5q164 0 251 -4.5t119 -5.5zM943 1124q-46 1 -119.5 6.5t-180.5 -5.5t-171 -14q-18 -144 52 -247q210 53 403 -19zM287 -308q34 -48 37.5 -68t1.5 -40q-4 -44 -13 -59 q-12 -22 -23 -34q-52 -34 -67 -37l-35 -5q-54 5 -72 16q-37 22 -61 70q-11 22 -11 56q8 65 34 96q39 46 108 46q57 -8 80 -23z"/>
            <glyph horiz-adv-x="1800"
                   d="M728 2032q53 104 153 135q141 43 358 -77q373 -207 436 -653q14 -65 -11.5 -92t-59 -29t-57 18t-26.5 48.5t-10 41t-24 29.5q-99 99 -408 203q-152 51 -200 -84q-15 -42 -45 -56t-61 -3t-45 41t-3 61q31 87 82 138q122 122 312.5 58t311.5 -128q-92 168 -259 261 q-207 115 -277 50q-12 -11 -25 -37t-44.5 -36.5t-61 4t-40 46t3.5 61.5zM347 1280q162 -3 265 -105q81 -81 99 -238q393 37 558 -128q84 -84 105 -214h146v566q0 11 11.5 38.5t19.5 35.5l33 23q32 21 130 22h86q33 1 56.5 -22.5t23.5 -56.5t-23 -56.5t-57 -24.5h-85 q-21 0 -35 -1v-573q6 -14 6 -31t-6 -31v-484q0 -33 -23.5 -56.5t-56.5 -23.5t-56.5 23.5t-23.5 56.5v435h-141q-15 -276 -137 -398q-81 -81 -195 -92q-165 -15 -225 122q-41 96 -19 267q13 107 79 172q89 89 258 89h71q-16 62 -55 101q-113 113 -441 80q-12 -489 -253 -558 q-182 -53 -276 43.5t-50 353.5q38 227 416 299q-12 106 -61 155t-145 51h-346q-33 0 -56.5 23.5t-23.5 56.5t23.5 56.5t56.5 23.5h347zM555 753q-242 -50 -261 -163q-30 -177 11 -222q22 -23 105 1t121 184q20 83 24 200zM1218 435h-78q-103 0 -137.5 -34.5t-41.5 -86.5 q-20 -158 19 -200q15 -17 65 -7q156 30 173 328zM623 -100q34 -48 37.5 -68t1.5 -40q-4 -44 -13 -59q-12 -22 -23 -34q-52 -34 -67 -37l-35 -5q-54 5 -72 16q-37 22 -61 70q-11 22 -11 56q8 65 34 96q39 46 108 46q57 -8 80 -23z"/>
            <glyph horiz-adv-x="1400"
                   d="M919 1284q90 2 251.5 9.5t253.5 -15.5q33 -8 50 -36.5t9 -61t-36.5 -49.5t-61 -9t-131.5 10q32 -61 22 -141q-36 -321 -147 -424q83 -91 57 -233q-33 -181 -136 -284q-130 -130 -357 -130q-152 0 -335 114q-18 11 -32 31q-52 73 -156 496q-69 280 -50 559h-120 q-33 0 -56.5 23.5t-23.5 56.5t23.5 56.5t56.5 23.5h138q10 61 24 121q84 362 412 475q241 83 522 1q212 -62 207 -210q-1 -33 -25 -55.5t-57.5 -21.5t-56 25t-21.5 58q0 3 -14 17t-79 33q-231 68 -424 1q-107 -37 -196 -125.5t-129 -318.5h380q40 0 103 3.5t135 0.5z M947 1123q-96 -3 -266 -3h-401q-16 -218 27 -438q214 7 392 7t307 -9q33 -3 64 91.5t40 171.5t8 95q-2 54 -121 78q-23 4 -50 7zM1007 463q-60 62 -246.5 64.5t-416.5 -4.5q81 -322 112 -365q84 -78 241 -78t232 75.5t99 206.5q12 66 -21 101zM431 -316q34 -48 37.5 -68 t1.5 -40q-4 -44 -13 -59q-12 -22 -23 -34q-52 -34 -67 -37l-35 -5q-54 5 -72 16q-37 22 -61 70q-11 22 -11 56q8 65 34 96q39 46 108 46q57 -8 80 -23z"/>
            <glyph horiz-adv-x="1800"
                   d="M866 2100.5q23 -23.5 24 -78.5t10.5 -80.5t32.5 -47.5t41 -33.5t38 -5.5q277 87 481 15q151 -29 193 -180q51 -163 -1 -315q-11 -32 -40.5 -46.5t-61 -3.5t-46 40.5t-3.5 61.5q35 103 -1 216q-14 44 -76 70q-123 13 -171.5 -101.5t-9.5 -172.5q18 -28 11.5 -60.5t-34 -51 t-60 -12t-50.5 34.5q-86 129 -7 318q14 33 33 62q-52 -10 -109 -28q-117 -36 -233 72q-54 51 -75 107.5t-22 162.5q-1 33 22.5 56.5t57 23.5t56.5 -23.5zM347 1280q162 -3 265 -105q81 -81 99 -238q393 37 558 -128q84 -84 105 -214h146v566q0 11 11.5 38.5t19.5 35.5l33 23 q32 21 130 22h86q33 1 56.5 -22.5t23.5 -56.5t-23 -56.5t-57 -24.5h-85q-21 0 -35 -1v-573q6 -14 6 -31t-6 -31v-484q0 -33 -23.5 -56.5t-56.5 -23.5t-56.5 23.5t-23.5 56.5v435h-141q-15 -276 -137 -398q-81 -81 -195 -92q-165 -15 -225 122q-41 96 -19 267q13 107 79 172 q89 89 258 89h71q-16 62 -55 101q-113 113 -441 80q-12 -489 -253 -558q-182 -53 -276 43.5t-50 353.5q38 227 416 299q-12 106 -61 155t-145 51h-346q-33 0 -56.5 23.5t-23.5 56.5t23.5 56.5t56.5 23.5h347zM555 753q-242 -50 -261 -163q-30 -177 11 -222q22 -23 105 1 t121 184q20 83 24 200zM1218 435h-78q-103 0 -137.5 -34.5t-41.5 -86.5q-20 -158 19 -200q15 -17 65 -7q156 30 173 328zM583 -172q34 -48 37.5 -68t1.5 -40q-4 -44 -13 -59q-12 -22 -23 -34q-52 -34 -67 -37l-35 -5q-54 5 -72 16q-37 22 -61 70q-11 22 -11 56q8 65 34 96 q39 46 108 46q57 -8 80 -23z"/>
            <glyph d="M1091 1120q-15 -58 -18.5 -249t-6.5 -318.5t4 -345.5q19 -34 3 -71q3 -67 6.5 -115.5t-18 -73.5t-55 -27t-58.5 19.5t-27 55.5l-2 28q-180 -87 -466 -103q-206 -12 -322 158q-85 125 -33 341q7 30 34 48q118 77 162 159q3 8 7 15q19 65 19 327q0 65 -37 102t-130.5 51.5 t-125 3t-61.5 2.5t-41.5 45.5t2.5 61.5q37 79 254 45q142 -22 220.5 -101t78.5 -220t-8 -236q174 45 438 47q3 127 10 260q12 251 140 251h145q33 0 56.5 -23.5t23.5 -56.5t-23.5 -56.5t-56.5 -23.5h-114zM911 202q-7 192 -4 407q-319 -3 -478 -70q-59 -100 -182 -187 q-24 -124 16 -183q65 -96 181 -89q311 17 467 122z"/>
            <glyph horiz-adv-x="1400"
                   d="M765 1280h640q33 0 56.5 -23.5t23.5 -56.5t-23.5 -56.5t-56.5 -23.5h-109q64 -403 38 -1123q-1 -33 -25 -55.5t-57 -21.5t-56 25.5t-21 57.5q26 728 -41 1117h-282q71 -557 40 -927q-17 -211 -385 -272q-174 -29 -275 72q-120 121 -117 408q2 201 115 313 q153 153 492 118q-12 137 -31 288h-691q-33 0 -56.5 23.5t-23.5 56.5t23.5 56.5t56.5 23.5h758h3.5h3.5zM734 670q-286 36 -391 -69q-66 -66 -68 -202q-2 -220 69 -291q44 -44 137 -29q245 41 252 128q16 201 1 463z"/>
            <glyph horiz-adv-x="1600"
                   d="M188 1280q144 0 206 -123q31 -61 37 -152q27 -440 -158 -579q-19 -111 0 -153q78 -176 144 -193q199 1 267 70q35 34 35 78t5 59q23 360 -4 839q-2 34 20 58.5t55.5 26.5t58 -20t26.5 -55q29 -510 2 -890q19 -177 130 -179q288 -5 309 158q29 227 -14 970q-2 35 21.5 60 t57.5 25h214q33 0 56.5 -23.5t23.5 -56.5t-23.5 -56.5t-56.5 -23.5h-129q36 -661 10 -898q1 -5 1 -11l-5 -213q0 -33 -24 -56t-57 -22t-50.5 19t-22.5 32q-119 -68 -316 -64q-140 3 -219 121q-118 -108 -378 -108q-71 0 -145 71t-138 217q-42 96 -5 282q7 37 31.5 50.5 t37.5 26.5q100 100 80 428q-5 79 -26.5 102t-56.5 23h-188q-33 0 -56.5 23.5t-23.5 56.5t23.5 56.5t56.5 23.5h188z"/>
            <glyph horiz-adv-x="1400"
                   d="M1171 1280q26 8 51 0h183q33 0 56.5 -23.5t23.5 -56.5t-23.5 -56.5t-56.5 -23.5h-120q23 -240 20 -497q7 -25 -1 -48q-5 -282 -41 -584q-3 -33 -29 -53.5t-59 -17t-53.5 29.5t-16.5 59q30 262 38 508l-431 -18q-5 -204 -36 -507q-4 -33 -29.5 -54t-58.5 -17.5t-54 29 t-18 58.5q30 286 35 485l-124 -5q-133 -5 -202.5 62t-56.5 193q27 250 256 269q93 8 156.5 -29.5t94 -101.5t36.5 -222l434 18q0 229 -21 443h-1124q-33 0 -56.5 23.5t-23.5 56.5t23.5 56.5t56.5 23.5h1171zM541 770q-12 90 -94 83q-107 -8 -117 -102q-8 -74 3 -83 q24 -23 88 -20l129 5q-3 66 -9 117z"/>
            <glyph horiz-adv-x="1201"
                   d="M1091 1120q-15 -58 -18.5 -249t-6.5 -318.5t4 -345.5q19 -34 3 -71q3 -67 6.5 -115.5t-18 -73.5t-55 -27t-58.5 19.5t-27 55.5l-2 28q-180 -87 -466 -103q-206 -12 -322 158q-85 125 -33 341q7 30 34 48q118 77 162 159q3 9 8 17q17 54 18 325q0 65 -35.5 100.5 t-130.5 51.5t-126.5 4.5t-61.5 2.5t-41.5 45.5t2.5 61.5q37 78 251 46q167 -14 478.5 0.5t409.5 -0.5h139q33 0 56.5 -23.5t23.5 -56.5t-23.5 -56.5t-56.5 -23.5h-114zM911 202q-7 192 -4 407q-319 -3 -478 -70q-60 -101 -182 -187q-24 -124 16 -183q65 -96 181 -89 q311 17 467 122zM472 722q173 45 438 47q8 293 21 360q-95 0 -241.5 -7t-241.5 -8q47 -92 24 -392z"/>
            <glyph d="M1091 1120q-15 -58 -18.5 -249t-6.5 -318.5t4 -345.5q19 -34 3 -71q3 -67 6.5 -115.5t-18 -73.5t-55 -27t-58.5 19.5t-27 55.5l-2 28q-180 -87 -466 -103q-206 -12 -322 158q-85 125 -33 341q7 30 34 48q118 77 162 159q3 9 8 17q17 54 18 325q0 65 -35.5 100.5 t-130.5 51.5t-126.5 4.5t-61.5 2.5t-41.5 45.5t2.5 61.5q37 78 251 46q167 -14 478.5 0.5t409.5 -0.5h139q33 0 56.5 -23.5t23.5 -56.5t-23.5 -56.5t-56.5 -23.5h-114zM911 202q-7 192 -4 407q-319 -3 -478 -70q-60 -101 -182 -187q-24 -124 16 -183q65 -96 181 -89 q311 17 467 122zM472 722q173 45 438 47q8 293 21 360q-95 0 -241.5 -7t-241.5 -8q47 -92 24 -392z"/>
            <glyph d="M1285 1200q0 -33 -23.5 -56.5t-56.5 -23.5h-114q-8 -30 -11 -97q-23 -450 -10 -816q19 -34 3 -71q3 -67 6.5 -115.5t-18 -73.5t-55 -27t-58.5 19.5t-27 55.5l-2 28q-180 -87 -466 -103q-206 -12 -322 158q-85 125 -33 341q7 30 34 48q124 82 167 169q20 40 21 332 q0 65 -35.5 100.5t-130.5 51.5t-126.5 4.5t-61.5 2.5t-41.5 45.5t2.5 61.5q37 78 251 46q167 -14 478.5 0.5t409.5 -0.5h139q33 0 56.5 -23.5t23.5 -56.5zM911 202q-14 370 9 829q3 55 11 98q-95 0 -241.5 -7t-241.5 -8q32 -62 32 -146q-1 -330 -36 -400q-58 -118 -197 -216 q-24 -124 16 -183q65 -96 181 -89q311 17 467 122z"/>
            <glyph horiz-adv-x="1201"
                   d="M1285 1200q0 -33 -23.5 -56.5t-56.5 -23.5h-114q-8 -30 -11 -97q-23 -450 -10 -816q19 -34 3 -71q3 -67 6.5 -115.5t-18 -73.5t-55 -27t-58.5 19.5t-27 55.5l-2 28q-180 -87 -466 -103q-206 -12 -322 158q-85 125 -33 341q7 30 34 48q124 82 167 169q20 40 21 332 q0 65 -37 102t-130.5 51.5t-125 3t-61.5 2.5t-41.5 45.5t2.5 61.5q37 79 256 45q140 -22 218.5 -101t78.5 -210q-1 -330 -36 -400q-58 -118 -197 -216q-24 -124 16 -183q65 -96 181 -89q311 17 467 122q-14 370 9 829q12 249 140 249h145q33 0 56.5 -23.5t23.5 -56.5z"/>
            <glyph d="M1285 1200q0 -33 -23.5 -56.5t-56.5 -23.5h-114q-8 -30 -11 -97q-23 -450 -10 -816q19 -34 3 -71q3 -67 6.5 -115.5t-18 -73.5t-55 -27t-58.5 19.5t-27 55.5l-2 28q-180 -87 -466 -103q-206 -12 -322 158q-85 125 -33 341q7 30 34 48q124 82 167 169q20 40 21 332 q0 65 -37 102t-130.5 51.5t-125 3t-61.5 2.5t-41.5 45.5t2.5 61.5q37 79 256 45q140 -22 218.5 -101t78.5 -210q-1 -330 -36 -400q-58 -118 -197 -216q-24 -124 16 -183q65 -96 181 -89q311 17 467 122q-14 370 9 829q12 249 140 249h145q33 0 56.5 -23.5t23.5 -56.5z"/>
            <glyph horiz-adv-x="1600"
                   d="M258 1280q332 0 417 -219q49 -128 49 -324q324 50 407 52t108 2l102 -1q-2 179 -21 354q3 56 12 74q33 62 108 62h165q33 0 56.5 -23.5t23.5 -56.5t-23.5 -56.5t-56.5 -23.5h-121q19 -206 17 -418q4 -19 0 -38q-7 -331 -66 -678q-6 -32 -33 -51t-59.5 -13.5t-51.5 32.5 t-14 60q54 315 63 617q-137 18 -624 -58q-47 -518 -201 -591q-237 -113 -334 -11q-40 42 -53.5 116t23 232t141.5 263t271 129q5 182 -39 295.5t-266 113.5h-258q-33 0 -56.5 23.5t-23.5 56.5t23.5 56.5t56.5 23.5h258zM552 546q-195 -46 -250 -282q-25 -107 -18.5 -141 t11 -39t39.5 0.5t73 23.5t41 20q65 70 104 418z"/>
            <glyph horiz-adv-x="1400"
                   d="M1101 304q-79 -8 -208 3q12 -107 -14 -272q-5 -29 -27 -48q-121 -103 -413 -66q-219 27 -306 154.5t-35 343.5q7 30 34 48q124 82 167 169q20 40 21 332q0 80 -35.5 115t-117.5 37h-167q-33 0 -56.5 23.5t-23.5 56.5t23.5 56.5t56.5 23.5h168h1h1l14 -1q543 -23 1059 1 h11h151q33 0 56.5 -23.5t23.5 -56.5t-23.5 -56.5t-56.5 -23.5h-121q-8 -30 -11 -97q-29 -579 1 -1018q2 -33 -19.5 -58t-55 -27t-58.5 19.5t-27 55.5q-10 146 -13 309zM1099 464q-1 264 7.5 438.5t15.5 212.5q-329 -11 -667 -4q25 -61 25 -143q-1 -330 -36 -400 q-58 -118 -197 -216q-28 -143 29 -200t182 -73q188 -23 268 16q27 197 -10 267q-24 43 4 83.5t77 33.5q228 -30 302 -15z"/>
            <glyph horiz-adv-x="1600"
                   d="M537 436q-212 -40 -234 -168q-26 -145 4 -177q19 -20 138 35l5 5q50 55 87 305zM557 601q23 260 -32 402q-34 90 -175 111l-160 6h-190q-33 0 -56.5 23.5t-23.5 56.5t23.5 56.5t56.5 23.5h258q57 0 107 -6q551 -18 1061 5q7 1 16 1h163q33 0 56.5 -23.5t23.5 -56.5 t-23.5 -56.5t-56.5 -23.5h-121q52 -545 -49 -1134q-6 -32 -33 -51t-59.5 -13.5t-51.5 32.5t-14 60q44 255 58 501q-113 28 -632 -53q-7 -57 -18 -118q-53 -307 -170 -362q-224 -105 -317 -8.5t-53 322.5q46 248 412 305zM653 1107q88 -153 67 -480q458 70 621 45 q4 225 -18 443q-327 -12 -670 -8zM1053 101q34 -47 37.5 -67.5t1.5 -40.5q-4 -44 -13 -59q-13 -21 -23 -33q-52 -35 -67 -38l-35 -4q-54 5 -73 16q-36 21 -60 70q-11 21 -11 55q8 65 34 96q39 47 108 47q57 -9 79 -24z"/>
            <glyph horiz-adv-x="1600"
                   d="M537 436q-212 -40 -234 -168q-26 -145 4 -177q19 -20 138 35l5 5q50 55 87 305zM557 601q23 260 -32 402q-34 90 -175 111l-160 6h-190q-33 0 -56.5 23.5t-23.5 56.5t23.5 56.5t56.5 23.5h258q57 0 107 -6q551 -18 1061 5q7 1 16 1h163q33 0 56.5 -23.5t23.5 -56.5 t-23.5 -56.5t-56.5 -23.5h-121q52 -545 -49 -1134q-6 -32 -33 -51t-59.5 -13.5t-51.5 32.5t-14 60q44 255 58 501q-113 28 -632 -53q-7 -57 -18 -118q-53 -307 -170 -362q-224 -105 -317 -8.5t-53 322.5q46 248 412 305zM653 1107q88 -153 67 -480q458 70 621 45 q4 225 -18 443q-327 -12 -670 -8z"/>
            <glyph horiz-adv-x="1253"
                   d="M1091 1120q-15 -58 -18.5 -249t-6.5 -318.5t4 -345.5q19 -34 3 -71q3 -67 6.5 -115.5t-18 -73.5t-55 -27t-58.5 19.5t-27 55.5l-2 28q-180 -87 -466 -103q-206 -12 -322 158q-85 125 -33 341q7 30 34 48q118 77 162 159q3 8 7 15q19 65 19 327q0 65 -37 102t-130.5 51.5 t-125 3t-61.5 2.5t-41.5 45.5t2.5 61.5q37 79 254 45q142 -22 220.5 -101t78.5 -220t-8 -236q174 45 438 47q3 127 10 260q12 251 140 251h145q33 0 56.5 -23.5t23.5 -56.5t-23.5 -56.5t-56.5 -23.5h-114zM911 202q-7 192 -4 407q-319 -3 -478 -70q-59 -100 -182 -187 q-24 -124 16 -183q65 -96 181 -89q311 17 467 122zM1184 -483q0 -34 -23 -57.5t-56.5 -23.5t-57 23t-23.5 75q-1 104 -62 122q-22 6 -70 3l-34 -5q-68 -32 -166 -17q-31 4 -49.5 26.5t-18.5 53.5t19.5 53t50.5 25l111 14q22 22 23 105l-4 200q-1 34 22 57.5t56.5 24.5 t57 -22t24.5 -56l4 -200q-1 -64 -9 -102q113 -18 167 -120q37 -71 38 -179z"/>
            <glyph horiz-adv-x="1253"
                   d="M1091 1120q-15 -58 -18.5 -249t-6.5 -318.5t4 -345.5q19 -34 3 -71q3 -67 6.5 -115.5t-18 -73.5t-55 -27t-58.5 19.5t-27 55.5l-2 28q-180 -87 -466 -103q-206 -12 -322 158q-85 125 -33 341q7 30 34 48q118 77 162 159q3 8 7 15q19 65 19 327q0 65 -37 102t-130.5 51.5 t-125 3t-61.5 2.5t-41.5 45.5t2.5 61.5q37 79 254 45q142 -22 220.5 -101t78.5 -220t-8 -236q174 45 438 47q3 127 10 260q12 251 140 251h145q33 0 56.5 -23.5t23.5 -56.5t-23.5 -56.5t-56.5 -23.5h-114zM911 202q-7 192 -4 407q-319 -3 -478 -70q-59 -100 -182 -187 q-24 -124 16 -183q65 -96 181 -89q311 17 467 122zM1107 -163q-6 -34 -32.5 -53t-60.5 -13q-135 25 -200 3t-82 -40t-23.5 -33.5t2.5 -38t20 -29.5q55 -32 203 -36q75 4 102.5 2t49.5 -24.5t22 -56.5t-22 -56.5t-60 -23.5t-76 -1q-167 -8 -196 -39q-6 -5 -12 -13 q-26 -46 -11 -61t55 -28q80 -25 227 3q33 6 60.5 -13t33.5 -51.5t-13 -60t-51 -33.5q-186 -34 -305 3q-189 58 -171 216q9 87 67 145q-47 36 -60 68t-23 72.5t1 85t27.5 67t34.5 43.5q42 48 133.5 79t209.5 21q1 50 -6.5 86.5t10.5 64.5t50.5 34.5t60.5 -11.5t34 -51 q21 -100 1 -227z"/>
            <glyph horiz-adv-x="1253"
                   d="M1091 1120q-15 -58 -18.5 -249t-6.5 -318.5t4 -345.5q19 -34 3 -71q3 -67 6.5 -115.5t-18 -73.5t-55 -27t-58.5 19.5t-27 55.5l-2 28q-180 -87 -466 -103q-206 -12 -322 158q-85 125 -33 341q7 30 34 48q118 77 162 159q3 8 7 15q19 65 19 327q0 65 -37 102t-130.5 51.5 t-125 3t-61.5 2.5t-41.5 45.5t2.5 61.5q37 79 254 45q142 -22 220.5 -101t78.5 -220t-8 -236q174 45 438 47q3 127 10 260q12 251 140 251h145q33 0 56.5 -23.5t23.5 -56.5t-23.5 -56.5t-56.5 -23.5h-114zM911 202q-7 192 -4 407q-319 -3 -478 -70q-59 -100 -182 -187 q-24 -124 16 -183q65 -96 181 -89q311 17 467 122zM1131 -535q-2 -95 -64 -157q-87 -87 -270.5 -103t-253.5 117q-49 92 -36 213t65 169.5t106 55.5t92 3t58.5 -30t17 -59t-29.5 -53.5t-68.5 -16t-58.5 -9.5t-25 -92t32 -122q19 -21 58 -19q215 14 217 101l-23 586 q-1 33 21.5 57.5t55.5 25.5t57.5 -21.5t25.5 -55.5z"/>
            <glyph horiz-adv-x="1543"
                   d="M765 1280h640q33 0 56.5 -23.5t23.5 -56.5t-23.5 -56.5t-56.5 -23.5h-109q64 -403 38 -1123q-1 -33 -25 -55.5t-57 -21.5t-56 25.5t-21 57.5q26 728 -41 1117h-282q71 -557 40 -927q-17 -211 -385 -272q-174 -29 -275 72q-120 121 -117 408q2 201 115 313 q153 153 492 118q-12 137 -31 288h-691q-33 0 -56.5 23.5t-23.5 56.5t23.5 56.5t56.5 23.5h758h3.5h3.5zM734 670q-286 36 -391 -69q-66 -66 -68 -202q-2 -220 69 -291q44 -44 137 -29q245 41 252 128q16 201 1 463zM1488 -500q1 -34 -22.5 -57.5t-56.5 -23.5t-56.5 23 t-24.5 75q0 104 -61 122q-23 6 -71 3l-34 -5q-68 -32 -165 -17q-31 4 -50 26.5t-18.5 53.5t20 53t50.5 25l110 14q22 22 24 105l-4 200q-1 34 22 57.5t56 24.5t57 -22t24 -56l4 -200q-1 -64 -9 -102q113 -18 167 -120q38 -71 38 -179z"/>
            <glyph horiz-adv-x="1543"
                   d="M765 1280h640q33 0 56.5 -23.5t23.5 -56.5t-23.5 -56.5t-56.5 -23.5h-109q64 -403 38 -1123q-1 -33 -25 -55.5t-57 -21.5t-56 25.5t-21 57.5q26 728 -41 1117h-282q71 -557 40 -927q-17 -211 -385 -272q-174 -29 -275 72q-120 121 -117 408q2 201 115 313 q153 153 492 118q-12 137 -31 288h-691q-33 0 -56.5 23.5t-23.5 56.5t23.5 56.5t56.5 23.5h758h3.5h3.5zM734 670q-286 36 -391 -69q-66 -66 -68 -202q-2 -220 69 -291q44 -44 137 -29q245 41 252 128q16 201 1 463zM1409 -175q-6 -34 -32.5 -53t-60.5 -13q-135 25 -200 3 t-82 -40t-23.5 -33.5t2.5 -38t20 -29.5q55 -32 203 -36q75 4 102.5 2t49.5 -24.5t22 -56.5t-22 -56.5t-60 -23.5t-76 -1q-167 -8 -196 -39q-6 -5 -12 -13q-26 -46 -11 -61t55 -28q80 -25 227 3q33 6 60.5 -13t33.5 -51.5t-13 -60t-51 -33.5q-186 -34 -305 3 q-189 58 -171 216q9 87 67 145q-47 36 -60 68t-23 72.5t1 85t27.5 67t34.5 43.5q42 48 133.5 79t209.5 21q1 50 -6.5 86.5t10.5 64.5t50.5 34.5t60.5 -11.5t34 -51q21 -100 1 -227z"/>
            <glyph horiz-adv-x="1543"
                   d="M765 1280h640q33 0 56.5 -23.5t23.5 -56.5t-23.5 -56.5t-56.5 -23.5h-109q64 -403 38 -1123q-1 -33 -25 -55.5t-57 -21.5t-56 25.5t-21 57.5q26 728 -41 1117h-282q71 -557 40 -927q-17 -211 -385 -272q-174 -29 -275 72q-120 121 -117 408q2 201 115 313 q153 153 492 118q-12 137 -31 288h-691q-33 0 -56.5 23.5t-23.5 56.5t23.5 56.5t56.5 23.5h758h3.5h3.5zM734 670q-286 36 -391 -69q-66 -66 -68 -202q-2 -220 69 -291q44 -44 137 -29q245 41 252 128q16 201 1 463zM1433 -520q-2 -95 -64 -157q-87 -87 -270.5 -103 t-253.5 118q-49 92 -36 212.5t65 169.5t106 56t92 2.5t58.5 -30t17 -58.5t-29.5 -54t-68.5 -16t-58.5 -9t-25 -92t32 -123q19 -21 58 -18q215 14 217 101l-23 585q-1 33 21.5 57.5t55.5 26t57.5 -21t25.5 -55.5z"/>
            <glyph horiz-adv-x="1612"
                   d="M1637 -482q0 -34 -23 -57.5t-56.5 -23.5t-57 23t-23.5 75q-1 104 -62 122q-22 6 -70 3l-34 -5q-68 -32 -166 -17q-31 4 -49.5 26.5t-18.5 53.5t19.5 53t50.5 25l111 14q22 22 23 105l-4 200q-1 34 22 57.5t56.5 24.5t57 -22t24.5 -56l4 -200q-1 -64 -9 -102 q113 -18 167 -120q37 -71 38 -179zM188 1280q144 0 206 -123q31 -61 37 -152q27 -440 -158 -579q-19 -111 0 -153q78 -176 144 -193q199 1 267 70q35 34 35 78t5 59q23 360 -4 839q-2 34 20 58.5t55.5 26.5t58 -20t26.5 -55q29 -510 2 -890q19 -177 130 -179q288 -5 309 158 q29 227 -14 970q-2 35 21.5 60t57.5 25h214q33 0 56.5 -23.5t23.5 -56.5t-23.5 -56.5t-56.5 -23.5h-129q36 -661 10 -898q1 -5 1 -11l-5 -213q0 -33 -24 -56t-57 -22t-50.5 19t-22.5 32q-119 -68 -316 -64q-140 3 -219 121q-118 -108 -378 -108q-71 0 -145 71t-138 217 q-42 96 -5 282q7 37 31.5 50.5t37.5 26.5q100 100 80 428q-5 79 -26.5 102t-56.5 23h-188q-33 0 -56.5 23.5t-23.5 56.5t23.5 56.5t56.5 23.5h188z"/>
            <glyph horiz-adv-x="1612"
                   d="M1548 -179q-5 -35 -31.5 -54t-61.5 -12q-135 24 -199.5 2t-81.5 -40t-24 -33.5t2 -38t21 -28.5q55 -33 203 -36q74 3 102 1.5t49.5 -24t22 -56.5t-21.5 -56.5t-60 -24t-76 -0.5q-167 -8 -196 -39q-6 -6 -13 -14q-26 -46 -11 -61t55 -27q81 -25 228 2q32 6 59.5 -12.5 t33.5 -51t-12.5 -60t-51.5 -33.5q-186 -35 -304 2q-189 59 -172 216q10 87 67 145q-47 37 -59.5 69t-23 72.5t1 85t27.5 67t34 42.5q43 48 134 79.5t209 20.5q2 50 -6 87t10.5 64.5t51 34.5t60 -11.5t34.5 -50.5q21 -101 0 -227zM188 1280q144 0 206 -123q31 -61 37 -152 q27 -440 -158 -579q-19 -111 0 -153q78 -176 144 -193q199 1 267 70q35 34 35 78t5 59q23 360 -4 839q-2 34 20 58.5t55.5 26.5t58 -20t26.5 -55q29 -510 2 -890q19 -177 130 -179q288 -5 309 158q29 227 -14 970q-2 35 21.5 60t57.5 25h214q33 0 56.5 -23.5t23.5 -56.5 t-23.5 -56.5t-56.5 -23.5h-129q36 -661 10 -898q1 -5 1 -11l-5 -213q0 -33 -24 -56t-57 -22t-50.5 19t-22.5 32q-119 -68 -316 -64q-140 3 -219 121q-118 -108 -378 -108q-71 0 -145 71t-138 217q-42 96 -5 282q7 37 31.5 50.5t37.5 26.5q100 100 80 428q-5 79 -26.5 102 t-56.5 23h-188q-33 0 -56.5 23.5t-23.5 56.5t23.5 56.5t56.5 23.5h188z"/>
            <glyph horiz-adv-x="1612"
                   d="M1577 -565q-2 -95 -64 -157q-87 -87 -270.5 -103t-253.5 118q-49 92 -36 212.5t65 169.5t106 56t92 2.5t58.5 -30t17 -58.5t-29.5 -54t-68.5 -16t-58.5 -9t-25 -92t32 -123q19 -21 58 -18q215 14 217 101l-23 585q-1 33 21.5 57.5t55.5 26t57.5 -21t25.5 -55.5zM188 1280 q144 0 206 -123q31 -61 37 -152q27 -440 -158 -579q-19 -111 0 -153q78 -176 144 -193q199 1 267 70q35 34 35 78t5 59q23 360 -4 839q-2 34 20 58.5t55.5 26.5t58 -20t26.5 -55q29 -510 2 -890q19 -177 130 -179q288 -5 309 158q29 227 -14 970q-2 35 21.5 60t57.5 25h214 q33 0 56.5 -23.5t23.5 -56.5t-23.5 -56.5t-56.5 -23.5h-129q36 -661 10 -898q1 -5 1 -11l-5 -213q0 -33 -24 -56t-57 -22t-50.5 19t-22.5 32q-119 -68 -316 -64q-140 3 -219 121q-118 -108 -378 -108q-71 0 -145 71t-138 217q-42 96 -5 282q7 37 31.5 50.5t37.5 26.5 q100 100 80 428q-5 79 -26.5 102t-56.5 23h-188q-33 0 -56.5 23.5t-23.5 56.5t23.5 56.5t56.5 23.5h188z"/>
            <glyph horiz-adv-x="1343"
                   d="M1284 -487q0 -34 -23 -57.5t-56.5 -23.5t-57 23t-23.5 75q-1 104 -62 122q-22 6 -70 3l-34 -5q-68 -32 -166 -17q-31 4 -49.5 26.5t-18.5 53.5t19.5 53t50.5 25l111 14q22 22 23 105l-4 200q-1 34 22 57.5t56.5 24.5t57 -22t24.5 -56l4 -200q-1 -64 -9 -102 q113 -18 167 -120q37 -71 38 -179zM1171 1280q26 8 51 0h183q33 0 56.5 -23.5t23.5 -56.5t-23.5 -56.5t-56.5 -23.5h-120q23 -240 20 -497q7 -25 -1 -48q-5 -282 -41 -584q-3 -33 -29 -53.5t-59 -17t-53.5 29.5t-16.5 59q30 262 38 508l-431 -18q-5 -204 -36 -507 q-4 -33 -29.5 -54t-58.5 -17.5t-54 29t-18 58.5q30 286 35 485l-124 -5q-133 -5 -202.5 62t-56.5 193q27 250 256 269q93 8 156.5 -29.5t94 -101.5t36.5 -222l434 18q0 229 -21 443h-1124q-33 0 -56.5 23.5t-23.5 56.5t23.5 56.5t56.5 23.5h1171zM541 770q-12 90 -94 83 q-107 -8 -117 -102q-8 -74 3 -83q24 -23 88 -20l129 5q-3 66 -9 117z"/>
            <glyph horiz-adv-x="1343"
                   d="M1191 -211q-6 -34 -32.5 -53t-60.5 -13q-135 25 -200 3t-82 -40t-23.5 -33.5t2.5 -38t20 -29.5q55 -32 203 -36q75 4 102.5 2t49.5 -24.5t22 -56.5t-22 -56.5t-60 -23.5t-76 -1q-167 -8 -196 -39q-6 -5 -12 -13q-26 -46 -11 -61t55 -28q80 -25 227 3q33 6 60.5 -13 t33.5 -51.5t-13 -60t-51 -33.5q-186 -34 -305 3q-189 58 -171 216q9 87 67 145q-47 36 -60 68t-23 72.5t1 85t27.5 67t34.5 43.5q42 48 133.5 79t209.5 21q1 50 -6.5 86.5t10.5 64.5t50.5 34.5t60.5 -11.5t34 -51q21 -100 1 -227zM1171 1280q26 8 51 0h183q33 0 56.5 -23.5 t23.5 -56.5t-23.5 -56.5t-56.5 -23.5h-120q23 -240 20 -497q7 -25 -1 -48q-5 -282 -41 -584q-3 -33 -29 -53.5t-59 -17t-53.5 29.5t-16.5 59q30 262 38 508l-431 -18q-5 -204 -36 -507q-4 -33 -29.5 -54t-58.5 -17.5t-54 29t-18 58.5q30 286 35 485l-124 -5 q-133 -5 -202.5 62t-56.5 193q27 250 256 269q93 8 156.5 -29.5t94 -101.5t36.5 -222l434 18q0 229 -21 443h-1124q-33 0 -56.5 23.5t-23.5 56.5t23.5 56.5t56.5 23.5h1171zM541 770q-12 90 -94 83q-107 -8 -117 -102q-8 -74 3 -83q24 -23 88 -20l129 5q-3 66 -9 117z"/>
            <glyph horiz-adv-x="1343"
                   d="M1235 -527q-2 -95 -64 -157q-87 -87 -270.5 -103t-253.5 117q-49 92 -36 213t65 169.5t106 55.5t92 3t58.5 -30t17 -59t-29.5 -53.5t-68.5 -16t-58.5 -9.5t-25 -92t32 -122q19 -21 58 -19q215 14 217 101l-23 586q-1 33 21.5 57.5t55.5 25.5t57.5 -21.5t25.5 -55.5z M1171 1280q26 8 51 0h183q33 0 56.5 -23.5t23.5 -56.5t-23.5 -56.5t-56.5 -23.5h-120q23 -240 20 -497q7 -25 -1 -48q-5 -282 -41 -584q-3 -33 -29 -53.5t-59 -17t-53.5 29.5t-16.5 59q30 262 38 508l-431 -18q-5 -204 -36 -507q-4 -33 -29.5 -54t-58.5 -17.5t-54 29 t-18 58.5q30 286 35 485l-124 -5q-133 -5 -202.5 62t-56.5 193q27 250 256 269q93 8 156.5 -29.5t94 -101.5t36.5 -222l434 18q0 229 -21 443h-1124q-33 0 -56.5 23.5t-23.5 56.5t23.5 56.5t56.5 23.5h1171zM541 770q-12 90 -94 83q-107 -8 -117 -102q-8 -74 3 -83 q24 -23 88 -20l129 5q-3 66 -9 117z"/>
            <glyph horiz-adv-x="1273"
                   d="M1184 -483q0 -34 -23 -57.5t-56.5 -23.5t-57 23t-23.5 75q-1 104 -62 122q-22 6 -70 3l-34 -5q-68 -32 -166 -17q-31 4 -49.5 26.5t-18.5 53.5t19.5 53t50.5 25l111 14q22 22 23 105l-4 200q-1 34 22 57.5t56.5 24.5t57 -22t24.5 -56l4 -200q-1 -64 -9 -102 q113 -18 167 -120q37 -71 38 -179zM1091 1120q-15 -58 -18.5 -249t-6.5 -318.5t4 -345.5q19 -34 3 -71q3 -67 6.5 -115.5t-18 -73.5t-55 -27t-58.5 19.5t-27 55.5l-2 28q-180 -87 -466 -103q-206 -12 -322 158q-85 125 -33 341q7 30 34 48q118 77 162 159q3 9 8 17 q17 54 18 325q0 65 -35.5 100.5t-130.5 51.5t-126.5 4.5t-61.5 2.5t-41.5 45.5t2.5 61.5q37 78 251 46q167 -14 478.5 0.5t409.5 -0.5h139q33 0 56.5 -23.5t23.5 -56.5t-23.5 -56.5t-56.5 -23.5h-114zM911 202q-7 192 -4 407q-319 -3 -478 -70q-60 -101 -182 -187 q-24 -124 16 -183q65 -96 181 -89q311 17 467 122zM472 722q173 45 438 47q8 293 21 360q-95 0 -241.5 -7t-241.5 -8q47 -92 24 -392z"/>
            <glyph horiz-adv-x="1273"
                   d="M1099 -179q-6 -34 -32.5 -53t-60.5 -13q-135 25 -200 3t-82 -40t-23.5 -33.5t2.5 -38t20 -29.5q55 -32 203 -36q75 4 102.5 2t49.5 -24.5t22 -56.5t-22 -56.5t-60 -23.5t-76 -1q-167 -8 -196 -39q-6 -5 -12 -13q-26 -46 -11 -61t55 -28q80 -25 227 3q33 6 60.5 -13 t33.5 -51.5t-13 -60t-51 -33.5q-186 -34 -305 3q-189 58 -171 216q9 87 67 145q-47 36 -60 68t-23 72.5t1 85t27.5 67t34.5 43.5q42 48 133.5 79t209.5 21q1 50 -6.5 86.5t10.5 64.5t50.5 34.5t60.5 -11.5t34 -51q21 -100 1 -227zM1091 1120q-15 -58 -18.5 -249t-6.5 -318.5 t4 -345.5q19 -34 3 -71q3 -67 6.5 -115.5t-18 -73.5t-55 -27t-58.5 19.5t-27 55.5l-2 28q-180 -87 -466 -103q-206 -12 -322 158q-85 125 -33 341q7 30 34 48q118 77 162 159q3 9 8 17q17 54 18 325q0 65 -35.5 100.5t-130.5 51.5t-126.5 4.5t-61.5 2.5t-41.5 45.5t2.5 61.5 q37 78 251 46q167 -14 478.5 0.5t409.5 -0.5h139q33 0 56.5 -23.5t23.5 -56.5t-23.5 -56.5t-56.5 -23.5h-114zM911 202q-7 192 -4 407q-319 -3 -478 -70q-60 -101 -182 -187q-24 -124 16 -183q65 -96 181 -89q311 17 467 122zM472 722q173 45 438 47q8 293 21 360 q-95 0 -241.5 -7t-241.5 -8q47 -92 24 -392z"/>
            <glyph horiz-adv-x="1273"
                   d="M1119 -515q-2 -95 -64 -157q-87 -87 -270.5 -103t-253.5 117q-49 92 -36 213t65 169.5t106 55.5t92 3t58.5 -30t17 -59t-29.5 -53.5t-68.5 -16t-58.5 -9.5t-25 -92t32 -122q19 -21 58 -19q215 14 217 101l-23 586q-1 33 21.5 57.5t55.5 25.5t57.5 -21.5t25.5 -55.5z M1091 1120q-15 -58 -18.5 -249t-6.5 -318.5t4 -345.5q19 -34 3 -71q3 -67 6.5 -115.5t-18 -73.5t-55 -27t-58.5 19.5t-27 55.5l-2 28q-180 -87 -466 -103q-206 -12 -322 158q-85 125 -33 341q7 30 34 48q118 77 162 159q3 9 8 17q17 54 18 325q0 65 -35.5 100.5t-130.5 51.5 t-126.5 4.5t-61.5 2.5t-41.5 45.5t2.5 61.5q37 78 251 46q167 -14 478.5 0.5t409.5 -0.5h139q33 0 56.5 -23.5t23.5 -56.5t-23.5 -56.5t-56.5 -23.5h-114zM911 202q-7 192 -4 407q-319 -3 -478 -70q-60 -101 -182 -187q-24 -124 16 -183q65 -96 181 -89q311 17 467 122z M472 722q173 45 438 47q8 293 21 360q-95 0 -241.5 -7t-241.5 -8q47 -92 24 -392z"/>
            <glyph horiz-adv-x="1253"
                   d="M1172 -503q0 -34 -23 -57.5t-56.5 -23.5t-57 23t-23.5 75q-1 104 -62 122q-22 6 -70 3l-34 -5q-68 -32 -166 -17q-31 4 -49.5 26.5t-18.5 53.5t19.5 53t50.5 25l111 14q22 22 23 105l-4 200q-1 34 22 57.5t56.5 24.5t57 -22t24.5 -56l4 -200q-1 -64 -9 -102 q113 -18 167 -120q37 -71 38 -179zM1091 1120q-15 -58 -18.5 -249t-6.5 -318.5t4 -345.5q19 -34 3 -71q3 -67 6.5 -115.5t-18 -73.5t-55 -27t-58.5 19.5t-27 55.5l-2 28q-180 -87 -466 -103q-206 -12 -322 158q-85 125 -33 341q7 30 34 48q118 77 162 159q3 9 8 17 q17 54 18 325q0 65 -35.5 100.5t-130.5 51.5t-126.5 4.5t-61.5 2.5t-41.5 45.5t2.5 61.5q37 78 251 46q167 -14 478.5 0.5t409.5 -0.5h139q33 0 56.5 -23.5t23.5 -56.5t-23.5 -56.5t-56.5 -23.5h-114zM911 202q-7 192 -4 407q-319 -3 -478 -70q-60 -101 -182 -187 q-24 -124 16 -183q65 -96 181 -89q311 17 467 122zM472 722q173 45 438 47q8 293 21 360q-95 0 -241.5 -7t-241.5 -8q47 -92 24 -392z"/>
            <glyph horiz-adv-x="1253"
                   d="M1087 -191q-6 -34 -32.5 -53t-60.5 -13q-135 25 -200 3t-82 -40t-23.5 -33.5t2.5 -38t20 -29.5q55 -32 203 -36q75 4 102.5 2t49.5 -24.5t22 -56.5t-22 -56.5t-60 -23.5t-76 -1q-167 -8 -196 -39q-6 -5 -12 -13q-26 -46 -11 -61t55 -28q80 -25 227 3q33 6 60.5 -13 t33.5 -51.5t-13 -60t-51 -33.5q-186 -34 -305 3q-189 58 -171 216q9 87 67 145q-47 36 -60 68t-23 72.5t1 85t27.5 67t34.5 43.5q42 48 133.5 79t209.5 21q1 50 -6.5 86.5t10.5 64.5t50.5 34.5t60.5 -11.5t34 -51q21 -100 1 -227zM1091 1120q-15 -58 -18.5 -249t-6.5 -318.5 t4 -345.5q19 -34 3 -71q3 -67 6.5 -115.5t-18 -73.5t-55 -27t-58.5 19.5t-27 55.5l-2 28q-180 -87 -466 -103q-206 -12 -322 158q-85 125 -33 341q7 30 34 48q118 77 162 159q3 9 8 17q17 54 18 325q0 65 -35.5 100.5t-130.5 51.5t-126.5 4.5t-61.5 2.5t-41.5 45.5t2.5 61.5 q37 78 251 46q167 -14 478.5 0.5t409.5 -0.5h139q33 0 56.5 -23.5t23.5 -56.5t-23.5 -56.5t-56.5 -23.5h-114zM911 202q-7 192 -4 407q-319 -3 -478 -70q-60 -101 -182 -187q-24 -124 16 -183q65 -96 181 -89q311 17 467 122zM472 722q173 45 438 47q8 293 21 360 q-95 0 -241.5 -7t-241.5 -8q47 -92 24 -392z"/>
            <glyph horiz-adv-x="1253"
                   d="M1123 -527q-2 -95 -64 -157q-87 -87 -270.5 -103t-253.5 117q-49 92 -36 213t65 169.5t106 55.5t92 3t58.5 -30t17 -59t-29.5 -53.5t-68.5 -16t-58.5 -9.5t-25 -92t32 -122q19 -21 58 -19q215 14 217 101l-23 586q-1 33 21.5 57.5t55.5 25.5t57.5 -21.5t25.5 -55.5z M1091 1120q-15 -58 -18.5 -249t-6.5 -318.5t4 -345.5q19 -34 3 -71q3 -67 6.5 -115.5t-18 -73.5t-55 -27t-58.5 19.5t-27 55.5l-2 28q-180 -87 -466 -103q-206 -12 -322 158q-85 125 -33 341q7 30 34 48q118 77 162 159q3 9 8 17q17 54 18 325q0 65 -35.5 100.5t-130.5 51.5 t-126.5 4.5t-61.5 2.5t-41.5 45.5t2.5 61.5q37 78 251 46q167 -14 478.5 0.5t409.5 -0.5h139q33 0 56.5 -23.5t23.5 -56.5t-23.5 -56.5t-56.5 -23.5h-114zM911 202q-7 192 -4 407q-319 -3 -478 -70q-60 -101 -182 -187q-24 -124 16 -183q65 -96 181 -89q311 17 467 122z M472 722q173 45 438 47q8 293 21 360q-95 0 -241.5 -7t-241.5 -8q47 -92 24 -392z"/>
            <glyph horiz-adv-x="1388"
                   d="M1304 -487q0 -34 -23 -57.5t-56.5 -23.5t-57 23t-23.5 75q-1 104 -62 122q-22 6 -70 3l-34 -5q-68 -32 -166 -17q-31 4 -49.5 26.5t-18.5 53.5t19.5 53t50.5 25l111 14q22 22 23 105l-4 200q-1 34 22 57.5t56.5 24.5t57 -22t24.5 -56l4 -200q-1 -64 -9 -102 q113 -18 167 -120q37 -71 38 -179zM1285 1200q0 -33 -23.5 -56.5t-56.5 -23.5h-114q-8 -30 -11 -97q-23 -450 -10 -816q19 -34 3 -71q3 -67 6.5 -115.5t-18 -73.5t-55 -27t-58.5 19.5t-27 55.5l-2 28q-180 -87 -466 -103q-206 -12 -322 158q-85 125 -33 341q7 30 34 48 q124 82 167 169q20 40 21 332q0 65 -35.5 100.5t-130.5 51.5t-126.5 4.5t-61.5 2.5t-41.5 45.5t2.5 61.5q37 78 251 46q167 -14 478.5 0.5t409.5 -0.5h139q33 0 56.5 -23.5t23.5 -56.5zM911 202q-14 370 9 829q3 55 11 98q-95 0 -241.5 -7t-241.5 -8q32 -62 32 -146 q-1 -330 -36 -400q-58 -118 -197 -216q-24 -124 16 -183q65 -96 181 -89q311 17 467 122z"/>
            <glyph horiz-adv-x="1388"
                   d="M1215 -203q-6 -34 -32.5 -53t-60.5 -13q-135 25 -200 3t-82 -40t-23.5 -33.5t2.5 -38t20 -29.5q55 -32 203 -36q75 4 102.5 2t49.5 -24.5t22 -56.5t-22 -56.5t-60 -23.5t-76 -1q-167 -8 -196 -39q-6 -5 -12 -13q-26 -46 -11 -61t55 -28q80 -25 227 3q33 6 60.5 -13 t33.5 -51.5t-13 -60t-51 -33.5q-186 -34 -305 3q-189 58 -171 216q9 87 67 145q-47 36 -60 68t-23 72.5t1 85t27.5 67t34.5 43.5q42 48 133.5 79t209.5 21q1 50 -6.5 86.5t10.5 64.5t50.5 34.5t60.5 -11.5t34 -51q21 -100 1 -227zM1285 1200q0 -33 -23.5 -56.5t-56.5 -23.5 h-114q-8 -30 -11 -97q-23 -450 -10 -816q19 -34 3 -71q3 -67 6.5 -115.5t-18 -73.5t-55 -27t-58.5 19.5t-27 55.5l-2 28q-180 -87 -466 -103q-206 -12 -322 158q-85 125 -33 341q7 30 34 48q124 82 167 169q20 40 21 332q0 65 -35.5 100.5t-130.5 51.5t-126.5 4.5t-61.5 2.5 t-41.5 45.5t2.5 61.5q37 78 251 46q167 -14 478.5 0.5t409.5 -0.5h139q33 0 56.5 -23.5t23.5 -56.5zM911 202q-14 370 9 829q3 55 11 98q-95 0 -241.5 -7t-241.5 -8q32 -62 32 -146q-1 -330 -36 -400q-58 -118 -197 -216q-24 -124 16 -183q65 -96 181 -89q311 17 467 122z "/>
            <glyph horiz-adv-x="1388"
                   d="M1143 -553q-20 -92 -93 -141q-103 -69 -286 -49t-226 164q-29 100 7 216t96 154t114.5 34t91 -15.5t52 -40.5t5.5 -61t-39.5 -47t-70.5 -2t-59 2t-42 -86t7 -126q14 -24 54 -29q213 -28 232 57l91 579q5 32 31.5 52t59.5 14.5t52.5 -32t14.5 -59.5zM1285 1200 q0 -33 -23.5 -56.5t-56.5 -23.5h-114q-8 -30 -11 -97q-23 -450 -10 -816q19 -34 3 -71q3 -67 6.5 -115.5t-18 -73.5t-55 -27t-58.5 19.5t-27 55.5l-2 28q-180 -87 -466 -103q-206 -12 -322 158q-85 125 -33 341q7 30 34 48q124 82 167 169q20 40 21 332q0 65 -35.5 100.5 t-130.5 51.5t-126.5 4.5t-61.5 2.5t-41.5 45.5t2.5 61.5q37 78 251 46q167 -14 478.5 0.5t409.5 -0.5h139q33 0 56.5 -23.5t23.5 -56.5zM911 202q-14 370 9 829q3 55 11 98q-95 0 -241.5 -7t-241.5 -8q32 -62 32 -146q-1 -330 -36 -400q-58 -118 -197 -216q-24 -124 16 -183 q65 -96 181 -89q311 17 467 122z"/>
            <glyph horiz-adv-x="1243"
                   d="M1175 -491q1 -33 -22.5 -56.5t-56.5 -24t-56.5 23t-24.5 74.5q0 105 -61 122q-23 7 -71 3l-34 -4q-68 -32 -165 -18q-31 5 -50 27t-18.5 53.5t20 53t50.5 25.5l110 14q22 22 24 105l-4 200q-1 33 22 57t56 24.5t57 -22.5t24 -56l4 -200q-1 -63 -9 -102q113 -17 167 -119 q38 -71 38 -180zM1285 1200q0 -33 -23.5 -56.5t-56.5 -23.5h-114q-8 -30 -11 -97q-23 -450 -10 -816q19 -34 3 -71q3 -67 6.5 -115.5t-18 -73.5t-55 -27t-58.5 19.5t-27 55.5l-2 28q-180 -87 -466 -103q-206 -12 -322 158q-85 125 -33 341q7 30 34 48q124 82 167 169 q20 40 21 332q0 65 -37 102t-130.5 51.5t-125 3t-61.5 2.5t-41.5 45.5t2.5 61.5q37 79 256 45q140 -22 218.5 -101t78.5 -210q-1 -330 -36 -400q-58 -118 -197 -216q-24 -124 16 -183q65 -96 181 -89q311 17 467 122q-14 370 9 829q12 249 140 249h145q33 0 56.5 -23.5 t23.5 -56.5z"/>
            <glyph horiz-adv-x="1243"
                   d="M1086 -200q-5 -35 -31.5 -54t-61.5 -12q-135 24 -199.5 2t-81.5 -40t-24 -33.5t2 -38t21 -28.5q55 -33 203 -36q74 3 102 1.5t49.5 -24t22 -56.5t-21.5 -56.5t-60 -24t-76 -0.5q-167 -8 -196 -39q-6 -6 -13 -14q-26 -46 -11 -61t55 -27q81 -25 228 2q32 6 59.5 -12.5 t33.5 -51t-12.5 -60t-51.5 -33.5q-186 -35 -304 2q-189 59 -172 216q10 87 67 145q-47 37 -59.5 69t-23 72.5t1 85t27.5 67t34 42.5q43 48 134 79.5t209 20.5q2 50 -6 87t10.5 64.5t51 34.5t60 -11.5t34.5 -50.5q21 -101 0 -227zM1285 1200q0 -33 -23.5 -56.5t-56.5 -23.5 h-114q-8 -30 -11 -97q-23 -450 -10 -816q19 -34 3 -71q3 -67 6.5 -115.5t-18 -73.5t-55 -27t-58.5 19.5t-27 55.5l-2 28q-180 -87 -466 -103q-206 -12 -322 158q-85 125 -33 341q7 30 34 48q124 82 167 169q20 40 21 332q0 65 -37 102t-130.5 51.5t-125 3t-61.5 2.5 t-41.5 45.5t2.5 61.5q37 79 256 45q140 -22 218.5 -101t78.5 -210q-1 -330 -36 -400q-58 -118 -197 -216q-24 -124 16 -183q65 -96 181 -89q311 17 467 122q-14 370 9 829q12 249 140 249h145q33 0 56.5 -23.5t23.5 -56.5z"/>
            <glyph horiz-adv-x="1243"
                   d="M1121 -528q-2 -95 -64 -157q-87 -87 -270.5 -103t-253.5 118q-49 92 -36 212.5t65 169.5t106 56t92 2.5t58.5 -30t17 -58.5t-29.5 -54t-68.5 -16t-58.5 -9t-25 -92t32 -123q19 -21 58 -18q215 14 217 101l-23 585q-1 33 21.5 57.5t55.5 26t57.5 -21t25.5 -55.5z M1285 1200q0 -33 -23.5 -56.5t-56.5 -23.5h-114q-8 -30 -11 -97q-23 -450 -10 -816q19 -34 3 -71q3 -67 6.5 -115.5t-18 -73.5t-55 -27t-58.5 19.5t-27 55.5l-2 28q-180 -87 -466 -103q-206 -12 -322 158q-85 125 -33 341q7 30 34 48q124 82 167 169q20 40 21 332 q0 65 -37 102t-130.5 51.5t-125 3t-61.5 2.5t-41.5 45.5t2.5 61.5q37 79 256 45q140 -22 218.5 -101t78.5 -210q-1 -330 -36 -400q-58 -118 -197 -216q-24 -124 16 -183q65 -96 181 -89q311 17 467 122q-14 370 9 829q12 249 140 249h145q33 0 56.5 -23.5t23.5 -56.5z"/>
            <glyph horiz-adv-x="1238"
                   d="M1179 -494q0 -34 -23 -57.5t-56.5 -23.5t-57 23t-23.5 75q-1 104 -62 122q-22 6 -70 3l-34 -5q-68 -32 -166 -17q-31 4 -49.5 26.5t-18.5 53.5t19.5 53t50.5 25l111 14q22 22 23 105l-4 200q-1 34 22 57.5t56.5 24.5t57 -22t24.5 -56l4 -200q-1 -64 -9 -102 q113 -18 167 -120q37 -71 38 -179zM1285 1200q0 -33 -23.5 -56.5t-56.5 -23.5h-114q-8 -30 -11 -97q-23 -450 -10 -816q19 -34 3 -71q3 -67 6.5 -115.5t-18 -73.5t-55 -27t-58.5 19.5t-27 55.5l-2 28q-180 -87 -466 -103q-206 -12 -322 158q-85 125 -33 341q7 30 34 48 q124 82 167 169q20 40 21 332q0 65 -37 102t-130.5 51.5t-125 3t-61.5 2.5t-41.5 45.5t2.5 61.5q37 79 256 45q140 -22 218.5 -101t78.5 -210q-1 -330 -36 -400q-58 -118 -197 -216q-24 -124 16 -183q65 -96 181 -89q311 17 467 122q-14 370 9 829q12 249 140 249h145 q33 0 56.5 -23.5t23.5 -56.5z"/>
            <glyph horiz-adv-x="1238"
                   d="M1104 -200q-6 -35 -32.5 -54t-60.5 -12q-135 24 -200 2t-82 -40t-23.5 -33.5t2.5 -38t20 -28.5q55 -33 203 -36q75 3 102.5 1.5t49.5 -24t22 -56.5t-22 -56.5t-60 -24t-76 -0.5q-167 -8 -196 -39q-6 -6 -12 -14q-26 -46 -11 -61t55 -27q80 -25 227 2q33 6 60.5 -12.5 t33.5 -51t-13 -60t-51 -33.5q-186 -35 -305 2q-189 59 -171 216q9 87 67 145q-47 37 -60 69t-23 72.5t1 85t27.5 67t34.5 42.5q42 48 133.5 79.5t209.5 20.5q1 50 -6.5 87t10.5 64.5t50.5 34.5t60.5 -11.5t34 -50.5q21 -101 1 -227zM1285 1200q0 -33 -23.5 -56.5 t-56.5 -23.5h-114q-8 -30 -11 -97q-23 -450 -10 -816q19 -34 3 -71q3 -67 6.5 -115.5t-18 -73.5t-55 -27t-58.5 19.5t-27 55.5l-2 28q-180 -87 -466 -103q-206 -12 -322 158q-85 125 -33 341q7 30 34 48q124 82 167 169q20 40 21 332q0 65 -37 102t-130.5 51.5t-125 3 t-61.5 2.5t-41.5 45.5t2.5 61.5q37 79 256 45q140 -22 218.5 -101t78.5 -210q-1 -330 -36 -400q-58 -118 -197 -216q-24 -124 16 -183q65 -96 181 -89q311 17 467 122q-14 370 9 829q12 249 140 249h145q33 0 56.5 -23.5t23.5 -56.5z"/>
            <glyph horiz-adv-x="1238"
                   d="M1124 -552q-2 -95 -64 -157q-87 -87 -270.5 -103t-253.5 117q-48 92 -35 213t64.5 169.5t105.5 55.5t92 3t59 -30t17 -59t-29.5 -53.5t-68.5 -16t-58.5 -9.5t-24.5 -92t31 -122q19 -21 59 -19q215 14 217 101l-23 586q-2 33 20.5 57.5t55.5 25.5t57.5 -21.5t25.5 -55.5z M1285 1200q0 -33 -23.5 -56.5t-56.5 -23.5h-114q-8 -30 -11 -97q-23 -450 -10 -816q19 -34 3 -71q3 -67 6.5 -115.5t-18 -73.5t-55 -27t-58.5 19.5t-27 55.5l-2 28q-180 -87 -466 -103q-206 -12 -322 158q-85 125 -33 341q7 30 34 48q124 82 167 169q20 40 21 332 q0 65 -37 102t-130.5 51.5t-125 3t-61.5 2.5t-41.5 45.5t2.5 61.5q37 79 256 45q140 -22 218.5 -101t78.5 -210q-1 -330 -36 -400q-58 -118 -197 -216q-24 -124 16 -183q65 -96 181 -89q311 17 467 122q-14 370 9 829q12 249 140 249h145q33 0 56.5 -23.5t23.5 -56.5z"/>
            <glyph horiz-adv-x="1198"
                   d="M1210 -477q1 -33 -22.5 -56.5t-56.5 -24t-56.5 23t-24.5 74.5q0 105 -61 122q-23 7 -71 3l-34 -4q-68 -32 -165 -18q-31 5 -50 27t-18.5 53.5t20 53t50.5 25.5l110 14q22 22 24 105l-4 200q-1 33 22 57t56 24.5t57 -22.5t24 -56l4 -200q-1 -63 -9 -102q113 -17 167 -119 q38 -71 38 -180zM258 1280q332 0 417 -219q49 -128 49 -324q324 50 407 52t108 2l102 -1q-2 179 -21 354q3 56 12 74q33 62 108 62h165q33 0 56.5 -23.5t23.5 -56.5t-23.5 -56.5t-56.5 -23.5h-121q19 -206 17 -418q4 -19 0 -38q-7 -331 -66 -678q-6 -32 -33 -51t-59.5 -13.5 t-51.5 32.5t-14 60q54 315 63 617q-137 18 -624 -58q-47 -518 -201 -591q-237 -113 -334 -11q-40 42 -53.5 116t23 232t141.5 263t271 129q5 182 -39 295.5t-266 113.5h-258q-33 0 -56.5 23.5t-23.5 56.5t23.5 56.5t56.5 23.5h258zM552 546q-195 -46 -250 -282 q-25 -107 -18.5 -141t11 -39t39.5 0.5t73 23.5t41 20q65 70 104 418z"/>
            <glyph horiz-adv-x="1198"
                   d="M1125 -193q-6 -35 -32.5 -54t-60.5 -12q-135 24 -200 2t-82 -40t-23.5 -33.5t2.5 -38t20 -28.5q55 -33 203 -36q75 3 102.5 1.5t49.5 -24t22 -56.5t-22 -56.5t-60 -24t-76 -0.5q-167 -8 -196 -39q-6 -6 -12 -14q-26 -46 -11 -61t55 -27q80 -25 227 2q33 6 60.5 -12.5 t33.5 -51t-13 -60t-51 -33.5q-186 -35 -305 2q-189 59 -171 216q9 87 67 145q-47 37 -60 69t-23 72.5t1 85t27.5 67t34.5 42.5q42 48 133.5 79.5t209.5 20.5q1 50 -6.5 87t10.5 64.5t50.5 34.5t60.5 -11.5t34 -50.5q21 -101 1 -227zM258 1280q332 0 417 -219 q49 -128 49 -324q324 50 407 52t108 2l102 -1q-2 179 -21 354q3 56 12 74q33 62 108 62h165q33 0 56.5 -23.5t23.5 -56.5t-23.5 -56.5t-56.5 -23.5h-121q19 -206 17 -418q4 -19 0 -38q-7 -331 -66 -678q-6 -32 -33 -51t-59.5 -13.5t-51.5 32.5t-14 60q54 315 63 617 q-137 18 -624 -58q-47 -518 -201 -591q-237 -113 -334 -11q-40 42 -53.5 116t23 232t141.5 263t271 129q5 182 -39 295.5t-266 113.5h-258q-33 0 -56.5 23.5t-23.5 56.5t23.5 56.5t56.5 23.5h258zM552 546q-195 -46 -250 -282q-25 -107 -18.5 -141t11 -39t39.5 0.5t73 23.5 t41 20q65 70 104 418z"/>
            <glyph horiz-adv-x="1198"
                   d="M1149 -538q-2 -95 -64 -157q-87 -87 -270.5 -103t-253.5 117q-49 92 -36 213t65 169.5t106 55.5t92 3t58.5 -30t17 -59t-29.5 -53.5t-68.5 -16t-58.5 -9.5t-25 -92t32 -122q19 -21 58 -19q215 14 217 101l-23 586q-1 33 21.5 57.5t55.5 25.5t57.5 -21.5t25.5 -55.5z M258 1280q332 0 417 -219q49 -128 49 -324q324 50 407 52t108 2l102 -1q-2 179 -21 354q3 56 12 74q33 62 108 62h165q33 0 56.5 -23.5t23.5 -56.5t-23.5 -56.5t-56.5 -23.5h-121q19 -206 17 -418q4 -19 0 -38q-7 -331 -66 -678q-6 -32 -33 -51t-59.5 -13.5t-51.5 32.5 t-14 60q54 315 63 617q-137 18 -624 -58q-47 -518 -201 -591q-237 -113 -334 -11q-40 42 -53.5 116t23 232t141.5 263t271 129q5 182 -39 295.5t-266 113.5h-258q-33 0 -56.5 23.5t-23.5 56.5t23.5 56.5t56.5 23.5h258zM552 546q-195 -46 -250 -282q-25 -107 -18.5 -141 t11 -39t39.5 0.5t73 23.5t41 20q65 70 104 418z"/>
            <glyph horiz-adv-x="1463"
                   d="M1389 -478q1 -33 -22.5 -56.5t-56.5 -24t-56.5 23t-24.5 74.5q0 105 -61 122q-23 7 -71 3l-34 -4q-68 -32 -165 -18q-31 5 -50 27t-18.5 53.5t20 53t50.5 25.5l110 14q22 22 24 105l-4 200q-1 33 22 57t56 24.5t57 -22.5t24 -56l4 -200q-1 -63 -9 -102q113 -17 167 -119 q38 -71 38 -180zM1101 304q-79 -8 -208 3q12 -107 -14 -272q-5 -29 -27 -48q-121 -103 -413 -66q-219 27 -306 154.5t-35 343.5q7 30 34 48q124 82 167 169q20 40 21 332q0 80 -35.5 115t-117.5 37h-167q-33 0 -56.5 23.5t-23.5 56.5t23.5 56.5t56.5 23.5h168h1h1l14 -1 q543 -23 1059 1h11h151q33 0 56.5 -23.5t23.5 -56.5t-23.5 -56.5t-56.5 -23.5h-121q-8 -30 -11 -97q-29 -579 1 -1018q2 -33 -19.5 -58t-55 -27t-58.5 19.5t-27 55.5q-10 146 -13 309zM1099 464q-1 264 7.5 438.5t15.5 212.5q-329 -11 -667 -4q25 -61 25 -143 q-1 -330 -36 -400q-58 -118 -197 -216q-28 -143 29 -200t182 -73q188 -23 268 16q27 197 -10 267q-24 43 4 83.5t77 33.5q228 -30 302 -15z"/>
            <glyph horiz-adv-x="1463"
                   d="M1305 -184q-5 -34 -31.5 -53t-61.5 -13q-135 25 -199.5 3t-81.5 -40t-24 -33.5t2 -38t21 -29.5q55 -32 203 -36q74 4 102 2t49.5 -24.5t22 -56.5t-21.5 -56.5t-60 -23.5t-76 -1q-167 -8 -196 -39q-6 -5 -13 -13q-26 -46 -11 -61t55 -28q81 -25 228 3q32 6 59.5 -13 t33.5 -51.5t-12.5 -60t-51.5 -33.5q-186 -34 -304 3q-189 58 -172 216q10 87 67 145q-47 36 -59.5 68t-23 72.5t1 85t27.5 67t34 43.5q43 48 134 79t209 21q2 50 -6 86.5t10.5 64.5t51 34.5t60 -11.5t34.5 -51q21 -100 0 -227zM1101 304q-79 -8 -208 3q12 -107 -14 -272 q-5 -29 -27 -48q-121 -103 -413 -66q-219 27 -306 154.5t-35 343.5q7 30 34 48q124 82 167 169q20 40 21 332q0 80 -35.5 115t-117.5 37h-167q-33 0 -56.5 23.5t-23.5 56.5t23.5 56.5t56.5 23.5h168h1h1l14 -1q543 -23 1059 1h11h151q33 0 56.5 -23.5t23.5 -56.5 t-23.5 -56.5t-56.5 -23.5h-121q-8 -30 -11 -97q-29 -579 1 -1018q2 -33 -19.5 -58t-55 -27t-58.5 19.5t-27 55.5q-10 146 -13 309zM1099 464q-1 264 7.5 438.5t15.5 212.5q-329 -11 -667 -4q25 -61 25 -143q-1 -330 -36 -400q-58 -118 -197 -216q-28 -143 29 -200t182 -73 q188 -23 268 16q27 197 -10 267q-24 43 4 83.5t77 33.5q228 -30 302 -15z"/>
            <glyph horiz-adv-x="1463"
                   d="M1325 -520q-2 -95 -64 -157q-87 -87 -270.5 -103t-253.5 118q-49 92 -36 212.5t65 169.5t106 56t92 2.5t58.5 -30t17 -58.5t-29.5 -54t-68.5 -16t-58.5 -9t-25 -92t32 -123q19 -21 58 -18q215 14 217 101l-23 585q-1 33 21.5 57.5t55.5 26t57.5 -21t25.5 -55.5zM1101 304 q-79 -8 -208 3q12 -107 -14 -272q-5 -29 -27 -48q-121 -103 -413 -66q-219 27 -306 154.5t-35 343.5q7 30 34 48q124 82 167 169q20 40 21 332q0 80 -35.5 115t-117.5 37h-167q-33 0 -56.5 23.5t-23.5 56.5t23.5 56.5t56.5 23.5h168h1h1l14 -1q543 -23 1059 1h11h151 q33 0 56.5 -23.5t23.5 -56.5t-23.5 -56.5t-56.5 -23.5h-121q-8 -30 -11 -97q-29 -579 1 -1018q2 -33 -19.5 -58t-55 -27t-58.5 19.5t-27 55.5q-10 146 -13 309zM1099 464q-1 264 7.5 438.5t15.5 212.5q-329 -11 -667 -4q25 -61 25 -143q-1 -330 -36 -400q-58 -118 -197 -216 q-28 -143 29 -200t182 -73q188 -23 268 16q27 197 -10 267q-24 43 4 83.5t77 33.5q228 -30 302 -15z"/>
            <glyph horiz-adv-x="1234"
                   d="M1228 -495q0 -34 -23 -57.5t-56.5 -23.5t-57 23t-23.5 75q-1 104 -62 122q-22 6 -70 3l-34 -5q-68 -32 -166 -17q-31 4 -49.5 26.5t-18.5 53.5t19.5 53t50.5 25l111 14q22 22 23 105l-4 200q-1 34 22 57.5t56.5 24.5t57 -22t24.5 -56l4 -200q-1 -64 -9 -102 q113 -18 167 -120q37 -71 38 -179zM537 436q-212 -40 -234 -168q-26 -145 4 -177q19 -20 138 35l5 5q50 55 87 305zM557 601q23 260 -32 402q-34 90 -175 111l-160 6h-190q-33 0 -56.5 23.5t-23.5 56.5t23.5 56.5t56.5 23.5h258q57 0 107 -6q551 -18 1061 5q7 1 16 1h163 q33 0 56.5 -23.5t23.5 -56.5t-23.5 -56.5t-56.5 -23.5h-121q52 -545 -49 -1134q-6 -32 -33 -51t-59.5 -13.5t-51.5 32.5t-14 60q44 255 58 501q-113 28 -632 -53q-7 -57 -18 -118q-53 -307 -170 -362q-224 -105 -317 -8.5t-53 322.5q46 248 412 305zM653 1107 q88 -153 67 -480q458 70 621 45q4 225 -18 443q-327 -12 -670 -8zM1053 101q34 -47 37.5 -67.5t1.5 -40.5q-4 -44 -13 -59q-13 -21 -23 -33q-52 -35 -67 -38l-35 -4q-54 5 -73 16q-36 21 -60 70q-11 21 -11 55q8 65 34 96q39 47 108 47q57 -9 79 -24z"/>
            <glyph horiz-adv-x="1234"
                   d="M1147 -183q-6 -34 -32.5 -53t-60.5 -13q-135 25 -200 3t-82 -40t-23.5 -33.5t2.5 -38t20 -29.5q55 -32 203 -36q75 4 102.5 2t49.5 -24.5t22 -56.5t-22 -56.5t-60 -23.5t-76 -1q-167 -8 -196 -39q-6 -5 -12 -13q-26 -46 -11 -61t55 -28q80 -25 227 3q33 6 60.5 -13 t33.5 -51.5t-13 -60t-51 -33.5q-186 -34 -305 3q-189 58 -171 216q9 87 67 145q-47 36 -60 68t-23 72.5t1 85t27.5 67t34.5 43.5q42 48 133.5 79t209.5 21q1 50 -6.5 86.5t10.5 64.5t50.5 34.5t60.5 -11.5t34 -51q21 -100 1 -227zM537 436q-212 -40 -234 -168 q-26 -145 4 -177q19 -20 138 35l5 5q50 55 87 305zM557 601q23 260 -32 402q-34 90 -175 111l-160 6h-190q-33 0 -56.5 23.5t-23.5 56.5t23.5 56.5t56.5 23.5h258q57 0 107 -6q551 -18 1061 5q7 1 16 1h163q33 0 56.5 -23.5t23.5 -56.5t-23.5 -56.5t-56.5 -23.5h-121 q52 -545 -49 -1134q-6 -32 -33 -51t-59.5 -13.5t-51.5 32.5t-14 60q44 255 58 501q-113 28 -632 -53q-7 -57 -18 -118q-53 -307 -170 -362q-224 -105 -317 -8.5t-53 322.5q46 248 412 305zM653 1107q88 -153 67 -480q458 70 621 45q4 225 -18 443q-327 -12 -670 -8z M1053 101q34 -47 37.5 -67.5t1.5 -40.5q-4 -44 -13 -59q-13 -21 -23 -33q-52 -35 -67 -38l-35 -4q-54 5 -73 16q-36 21 -60 70q-11 21 -11 55q8 65 34 96q39 47 108 47q57 -9 79 -24z"/>
            <glyph horiz-adv-x="1234"
                   d="M1179 -543q-2 -95 -64 -157q-87 -87 -270.5 -103t-253.5 117q-49 92 -36 213t65 169.5t106 55.5t92 3t58.5 -30t17 -59t-29.5 -53.5t-68.5 -16t-58.5 -9.5t-25 -92t32 -122q19 -21 58 -19q215 14 217 101l-23 586q-1 33 21.5 57.5t55.5 25.5t57.5 -21.5t25.5 -55.5z M537 436q-212 -40 -234 -168q-26 -145 4 -177q19 -20 138 35l5 5q50 55 87 305zM557 601q23 260 -32 402q-34 90 -175 111l-160 6h-190q-33 0 -56.5 23.5t-23.5 56.5t23.5 56.5t56.5 23.5h258q57 0 107 -6q551 -18 1061 5q7 1 16 1h163q33 0 56.5 -23.5t23.5 -56.5 t-23.5 -56.5t-56.5 -23.5h-121q52 -545 -49 -1134q-6 -32 -33 -51t-59.5 -13.5t-51.5 32.5t-14 60q44 255 58 501q-113 28 -632 -53q-7 -57 -18 -118q-53 -307 -170 -362q-224 -105 -317 -8.5t-53 322.5q46 248 412 305zM653 1107q88 -153 67 -480q458 70 621 45 q4 225 -18 443q-327 -12 -670 -8zM1053 101q34 -47 37.5 -67.5t1.5 -40.5q-4 -44 -13 -59q-13 -21 -23 -33q-52 -35 -67 -38l-35 -4q-54 5 -73 16q-36 21 -60 70q-11 21 -11 55q8 65 34 96q39 47 108 47q57 -9 79 -24z"/>
            <glyph horiz-adv-x="1234"
                   d="M1236 -475q0 -34 -23 -57.5t-56.5 -23.5t-57 23t-23.5 75q-1 104 -62 122q-22 6 -70 3l-34 -5q-68 -32 -166 -17q-31 4 -49.5 26.5t-18.5 53.5t19.5 53t50.5 25l111 14q22 22 23 105l-4 200q-1 34 22 57.5t56.5 24.5t57 -22t24.5 -56l4 -200q-1 -64 -9 -102 q113 -18 167 -120q37 -71 38 -179zM537 436q-212 -40 -234 -168q-26 -145 4 -177q19 -20 138 35l5 5q50 55 87 305zM557 601q23 260 -32 402q-34 90 -175 111l-160 6h-190q-33 0 -56.5 23.5t-23.5 56.5t23.5 56.5t56.5 23.5h258q57 0 107 -6q551 -18 1061 5q7 1 16 1h163 q33 0 56.5 -23.5t23.5 -56.5t-23.5 -56.5t-56.5 -23.5h-121q52 -545 -49 -1134q-6 -32 -33 -51t-59.5 -13.5t-51.5 32.5t-14 60q44 255 58 501q-113 28 -632 -53q-7 -57 -18 -118q-53 -307 -170 -362q-224 -105 -317 -8.5t-53 322.5q46 248 412 305zM653 1107 q88 -153 67 -480q458 70 621 45q4 225 -18 443q-327 -12 -670 -8z"/>
            <glyph horiz-adv-x="1234"
                   d="M1143 -163q-6 -34 -32.5 -53t-60.5 -13q-135 25 -200 3t-82 -40t-23.5 -33.5t2.5 -38t20 -29.5q55 -32 203 -36q75 4 102.5 2t49.5 -24.5t22 -56.5t-22 -56.5t-60 -23.5t-76 -1q-167 -8 -196 -39q-6 -5 -12 -13q-26 -46 -11 -61t55 -28q80 -25 227 3q33 6 60.5 -13 t33.5 -51.5t-13 -60t-51 -33.5q-186 -34 -305 3q-189 58 -171 216q9 87 67 145q-47 36 -60 68t-23 72.5t1 85t27.5 67t34.5 43.5q42 48 133.5 79t209.5 21q1 50 -6.5 86.5t10.5 64.5t50.5 34.5t60.5 -11.5t34 -51q21 -100 1 -227zM537 436q-212 -40 -234 -168 q-26 -145 4 -177q19 -20 138 35l5 5q50 55 87 305zM557 601q23 260 -32 402q-34 90 -175 111l-160 6h-190q-33 0 -56.5 23.5t-23.5 56.5t23.5 56.5t56.5 23.5h258q57 0 107 -6q551 -18 1061 5q7 1 16 1h163q33 0 56.5 -23.5t23.5 -56.5t-23.5 -56.5t-56.5 -23.5h-121 q52 -545 -49 -1134q-6 -32 -33 -51t-59.5 -13.5t-51.5 32.5t-14 60q44 255 58 501q-113 28 -632 -53q-7 -57 -18 -118q-53 -307 -170 -362q-224 -105 -317 -8.5t-53 322.5q46 248 412 305zM653 1107q88 -153 67 -480q458 70 621 45q4 225 -18 443q-327 -12 -670 -8z"/>
            <glyph horiz-adv-x="1234"
                   d="M1179 -531q-2 -95 -64 -157q-87 -87 -270.5 -103t-253.5 117q-49 92 -36 213t65 169.5t106 55.5t92 3t58.5 -30t17 -59t-29.5 -53.5t-68.5 -16t-58.5 -9.5t-25 -92t32 -122q19 -21 58 -19q215 14 217 101l-23 586q-1 33 21.5 57.5t55.5 25.5t57.5 -21.5t25.5 -55.5z M537 436q-212 -40 -234 -168q-26 -145 4 -177q19 -20 138 35l5 5q50 55 87 305zM557 601q23 260 -32 402q-34 90 -175 111l-160 6h-190q-33 0 -56.5 23.5t-23.5 56.5t23.5 56.5t56.5 23.5h258q57 0 107 -6q551 -18 1061 5q7 1 16 1h163q33 0 56.5 -23.5t23.5 -56.5 t-23.5 -56.5t-56.5 -23.5h-121q52 -545 -49 -1134q-6 -32 -33 -51t-59.5 -13.5t-51.5 32.5t-14 60q44 255 58 501q-113 28 -632 -53q-7 -57 -18 -118q-53 -307 -170 -362q-224 -105 -317 -8.5t-53 322.5q46 248 412 305zM653 1107q88 -153 67 -480q458 70 621 45 q4 225 -18 443q-327 -12 -670 -8z"/>
            <glyph horiz-adv-x="1800"
                   d="M347 1280q162 -3 265 -105q81 -81 99 -238q393 37 558 -128q84 -84 105 -214h146v566q0 11 11.5 38.5t19.5 35.5l33 23q32 21 130 22h86q33 1 56.5 -22.5t23.5 -56.5t-23 -56.5t-57 -24.5h-85q-21 0 -35 -1v-573q6 -14 6 -31t-6 -31v-484q0 -33 -23.5 -56.5t-56.5 -23.5 t-56.5 23.5t-23.5 56.5v435h-141q-15 -276 -137 -398q-81 -81 -195 -92q-165 -15 -225 122q-41 96 -19 267q13 107 79 172q89 89 258 89h71q-16 62 -55 101q-113 113 -441 80q-12 -489 -253 -558q-182 -53 -276 43.5t-50 353.5q38 227 416 299q-12 106 -61 155t-145 51h-346 q-33 0 -56.5 23.5t-23.5 56.5t23.5 56.5t56.5 23.5h347zM555 753q-242 -50 -261 -163q-30 -177 11 -222q22 -23 105 1t121 184q20 83 24 200zM1218 435h-78q-103 0 -137.5 -34.5t-41.5 -86.5q-20 -158 19 -200q15 -17 65 -7q156 30 173 328z"/>
            <glyph horiz-adv-x="2200"
                   d="M347 1280q162 -3 265 -105q81 -81 99 -238q393 37 558 -128q84 -84 105 -214h146v566q0 11 11.5 38.5t19.5 35.5l33 23q32 21 130 22h86q33 1 56.5 -22.5t23.5 -56.5t-23 -56.5t-57 -24.5h-85q-21 0 -35 -1v-573q6 -14 6 -31t-6 -31v-484q0 -33 -23.5 -56.5t-56.5 -23.5 t-56.5 23.5t-23.5 56.5v435h-141q-15 -276 -137 -398q-81 -81 -195 -92q-165 -15 -225 122q-41 96 -19 267q13 107 79 172q89 89 258 89h71q-16 62 -55 101q-113 113 -441 80q-12 -489 -253 -558q-182 -53 -276 43.5t-50 353.5q38 227 416 299q-12 106 -61 155t-145 51h-346 q-33 0 -56.5 23.5t-23.5 56.5t23.5 56.5t56.5 23.5h347zM555 753q-242 -50 -261 -163q-30 -177 11 -222q22 -23 105 1t121 184q20 83 24 200zM1218 435h-78q-103 0 -137.5 -34.5t-41.5 -86.5q-20 -158 19 -200q15 -17 65 -7q156 30 173 328zM2205 1280q33 0 56.5 -23.5 t23.5 -56.5t-23.5 -56.5t-56.5 -23.5h-121q13 -368 -57 -735q-6 -33 -33.5 -51.5t-60 -12t-51 33.5t-12.5 60q67 353 54 705h-124q-33 0 -56.5 23.5t-23.5 56.5t23.5 56.5t56.5 23.5h199h2h2h202z"/>
            <glyph horiz-adv-x="1600"
                   d="M770 1270q37 21 76 1q74 2 187.5 13.5t230.5 3.5t341 -8q33 0 56.5 -23.5t23.5 -56.5t-23.5 -56.5t-67 -23.5h-91.5l-23 -404q-3 -44 -42.5 -65.5t-78.5 1.5q-190 113 -406 55q-129 -35 -205.5 -111t-69 -208.5t80.5 -205.5t232 -103q193 -34 400 177q23 24 56 24t57 -23 t24 -56t-23 -57q-266 -272 -544 -223q-208 41 -319.5 152.5t-121.5 286.5q-17 312 250 448q-76 136 -59 304h-5q-145 8 -306 8q-33 0 -56.5 23.5t-23.5 56.5t23.5 56.5t56.5 23.5q164 0 251 -4.5t119 -5.5zM1343 1124q-46 1 -119.5 6.5t-180.5 -5.5t-171 -14 q-18 -144 52 -247q210 53 403 -19zM405 1280q33 0 56.5 -23.5t23.5 -56.5t-23.5 -56.5t-56.5 -23.5h-146q-12 -399 -5 -1119q0 -33 -23 -57t-56 -24t-57 23t-24 56q-7 717 5 1121h-99q-33 0 -56.5 23.5t-23.5 56.5t23.5 56.5t56.5 23.5h106q6 124 14 206q23 205 118 300 q113 114 277 91q75 -10 117 -50q76 -71 79 -204q2 -85 -44 -185q-14 -30 -45 -42t-61 2t-42 45t2 61q48 105 22 178q-14 38 -79 38q-157 1 -184 -252q-9 -75 -14 -188h139z"/>
            <glyph horiz-adv-x="1600"
                   d="M1605 1280q33 0 56.5 -23.5t23.5 -56.5t-23.5 -56.5t-56.5 -23.5h-97q-1 -441 -30 -1123q-2 -34 -26 -56t-57.5 -20.5t-55.5 25.5t-21 57q31 710 32 1117h-150q-33 0 -56.5 23.5t-23.5 56.5t23.5 56.5t56.5 23.5h149q-4 276 -28 358t-55 82q-112 0 -162 -105 q-24 -52 -24 -151q0 -33 -23.5 -56.5t-56.5 -23.5t-56.5 23.5t-23.5 56.5q0 135 34 208q98 208 312 208q78 0 135 -56q91 -92 101 -345q4 -90 5 -199h98zM370 1270q37 21 76 1q74 2 187.5 13.5t230.5 3.5t341 -8q33 0 56.5 -23.5t23.5 -56.5t-23.5 -56.5t-67 -23.5h-91.5 l-23 -404q-3 -44 -42.5 -65.5t-78.5 1.5q-190 113 -406 55q-129 -35 -205.5 -111t-69 -208.5t80.5 -205.5t232 -103q193 -34 400 177q23 24 56 24t57 -23t24 -56t-23 -57q-266 -272 -544 -223q-208 41 -319.5 152.5t-121.5 286.5q-17 312 250 448q-76 136 -59 304h-5 q-145 8 -306 8q-33 0 -56.5 23.5t-23.5 56.5t23.5 56.5t56.5 23.5q164 0 251 -4.5t119 -5.5zM943 1124q-46 1 -119.5 6.5t-180.5 -5.5t-171 -14q-18 -144 52 -247q210 53 403 -19z"/>
            </font>
</defs>
</svg>
