<?xml version="1.0" standalone="no"?>
<!DOCTYPE svg PUBLIC "-//W3C//DTD SVG 1.1//EN" "http://www.w3.org/Graphics/SVG/1.1/DTD/svg11.dtd" >
<svg xmlns="http://www.w3.org/2000/svg">
    <metadata>
        This is a custom SVG webfont generated by Font Squirrel.
        Copyright : Copyright Copyright 2008 Paul Alan Grosse All rights reserved Released under the GPL
        Designer : Paul Alan Grosse
        Foundry : Paul Alan Grosse
    </metadata>
    <defs>
        <font id="webfontT6D2OFku" horiz-adv-x="0">
            <font-face units-per-em="2048" ascent="1638" descent="-410"/>
            <missing-glyph horiz-adv-x="1024"/>
            <glyph/>
            <glyph/>
            <glyph horiz-adv-x="1024"/>
            <glyph unicode=" " horiz-adv-x="1024"/>
            <glyph unicode="&#x09;" horiz-adv-x="1024"/>
            <glyph unicode="&#xa0;" horiz-adv-x="1024"/>
            <glyph unicode="!" horiz-adv-x="1293"
                   d="M1565 1282q10 -51 -43.5 -105t-101.5 -54l-575 1q-20 -54 -54 -112q149 -20 253 -124t141 -344q185 -1204 -772 -2192l-75 -76l-97 -93q-180 -166 -397 -325q-73 -53 -108 -18t1 96q20 36 55 62q496 367 788 766q550 752 410 1664q-32 207 -121 296t-230 95l-31 -31 l-146 -139q-223 -222 -80 -457q38 -63 153 22q66 49 87 49q53 0 62 -33q19 -69 -99 -157t-226 -103.5t-158 66.5q-138 227 -13 475q79 157 248 307q72 64 121 120q15 16 27 32q69 85 84 154l-748 1q-44 7 -50 39q-10 51 43.5 105t101.5 54l1500 -2q44 -7 50 -39zM1033 1982 q94 -94 -32 -400q-16 -37 -59 -76t-90 -32q-20 3 -34.5 24t2.5 64q86 208 42 252q-30 29 -101.5 7t-100.5 -38q8 -43 76 -112q30 -29 17.5 -69.5t-45 -72.5t-75 -46t-67.5 18l-23 24q-166 184 5 350q85 83 247.5 132.5t237.5 -25.5zM771 -483q29 -65 -47 -135 q-33 -31 -68 -40l-441 -114q-336 -87 -426 67q-16 28 0 64q37 84 112 107q51 15 71 -18q53 -91 294 -29l441 114q51 8 64 -16zM839.5 -200.5q-18.5 -44.5 -53.5 -73.5t-66 -36l-393 -96q-255 -63 -366 74q-32 65 42 135q50 47 85 45.5t44 -12.5q76 -93 250 -51l393 96 q41 6 62 -15.5t2.5 -66z"/>
            <glyph unicode="&#x22;" horiz-adv-x="1000"
                   d="M473 1127q-9 -80 -88 -128q-40 -24 -64 -19q-46 9 -46 51v352q9 80 88 128q40 24 64 19q46 -9 46 -51v-352zM720 1204q-9 -80 -87 -128q-40 -24 -64 -19q-46 9 -46 51v352q8 80 87 128q40 24 64 19q46 -9 46 -51v-352z"/>
            <glyph unicode="#" horiz-adv-x="1110"
                   d="M1098 429q8 -52 -49.5 -109t-124.5 -44l-43 8q-30 -244 -44 -274q-31 -71 -95 -102q-42 -20 -72 -5t-22 59q31 175 48 349q-124 14 -271 24l-37 -303q-20 -84 -98 -122q-42 -21 -62 -13q-42 19 -36 63q29 195 47 379q-114 -2 -151.5 -27t-68.5 -19.5t-40 33.5 q-25 75 113 163q48 31 162 43l10 242q-148 2 -205 -19t-74 6q-38 61 36 135q28 28 76.5 47t167.5 26q-2 147 -10 171q-31 57 41 128q41 42 81.5 48.5t55.5 -17.5q31 -48 30 -331q133 -6 251 -22q-5 141 -13 179q-40 16 -19.5 74.5t72.5 93t102 16.5q16 -6 24 -24 q32 -61 35 -375q142 -35 154 -53q41 -61 -29.5 -131t-127.5 -49l-10 -182q170 -24 182 -38t14 -28zM718 732q-114 22 -260 33l-13 -229q116 -4 267 -19z"/>
            <glyph unicode="$" horiz-adv-x="1024"
                   d="M994.5 448q-16.5 -142 -124.5 -250t-304 -125q-6 -23 -18.5 -60.5t-57 -72t-76 -38t-42.5 7.5q-38 38 0 101q6 22 13 62q-333 25 -324 203q3 47 56.5 100.5t106.5 40.5q35 -10 34 -57q0 -13 16 -29q36 -36 135 -52l20 241q-238 -15 -325.5 72.5t-56.5 221t154 222.5 q92 66 230 102q-39 60 31 130q99 99 179 18q25 -24 21 -82l-1 -29q185 10 260 -65q50 -50 50 -134q-1 -49 -54.5 -102.5t-105.5 -42.5q-38 7 -38 47q0 88 -123 99l-16 -248q214 24 303 -65q74 -74 57.5 -216zM457 964q-162 -27 -210 -73q-7 -10 -10 -50t39 -81.5t166 -44.5z M798 365q10 87 -32.5 130t-145.5 42l-25 -270q170 2 191 48q8 20 12 50z"/>
            <glyph unicode="%" horiz-adv-x="1221"
                   d="M1012 1109q-131 -345 -388 -562q-175 -149 -483 -589q-25 -35 -62.5 -58t-62.5 -19q-49 9 -46.5 48t25.5 73q339 484 536.5 651t296.5 430q12 32 -64 42q-18 2 -29 13q-13 19 -15 50.5t51.5 85t104.5 47.5q82 -10 121 -48q55 -56 15 -164zM1153.5 452.5 q82.5 -182.5 -99.5 -376.5l-29 -29l-21 -19q-66 -58 -149 -78.5t-165 21.5q-158 81 -124 286q25 145 111.5 227.5t183.5 103.5q210 47 292.5 -135.5zM966 308q-16 36 -38 58q-47 47 -125 30q-18 -4 -26 -11q-8 -13 -15 -58q-21 -121 76 -170q69 -35 108 7q57 62 20 144z M623 1065q11 -61 -22.5 -146t-98.5 -144l-19 -19q-18 -17 -60 -46q-156 -107 -298 -8q-158 111 -87 345q24 81 81 137q102 102 234 116.5t188.5 -42t81.5 -193.5zM405 1040q-27 76 -107 67q-52 -6 -70 -13q-48 -140 55 -212q75 -53 119.5 -8.5t2.5 166.5z"/>
            <glyph unicode="&#x26;" horiz-adv-x="1225"
                   d="M1403 1283q10 -52 -43.5 -105.5t-101.5 -53.5h-218q3 -134 -81 -211q-87 -86 -206 -73q-310 33 -451 -109q-45 -45 -62 -131.5t28 -192.5q167 285 503 259q213 -17 291 -157q90 -162 3 -307q-22 -37 -35 -52l-31 -34q-190 -193 -464 -165t-400 212.5t-84.5 396t260 359 t532.5 119.5q-4 36 -16 86h-947q-43 6 -49 38q-11 52 42.5 105.5t102.5 53.5h1377q44 -6 50 -38zM903 220q26 43 -26.5 140t-211 109t-192.5 -27q-104 -119 -52 -165q25 -24 9 -66q87 -51 213 -64q180 -19 257 68zM158.5 49.5q6.5 -49.5 -48.5 -104t-98.5 -49.5t-49.5 42 q-2 13 -5.5 16.5t-14.5 2.5q-42 -4 -54.5 26.5t11.5 77t75 76.5q23 13 45 16q70 9 101.5 -22.5t38 -81z"/>
            <glyph unicode="'" horiz-adv-x="1000"
                   d="M594 1143q-9 -80 -88 -127q-40 -24 -64 -19q-46 9 -46 51v352q9 80 88 127q40 24 64 19q46 -9 46 -51v-352z"/>
            <glyph unicode="(" horiz-adv-x="1024"
                   d="M775 1580q43 -56 -36 -135q-24 -24 -51 -37q-97 -47 -164 -113q-190 -191 -190 -597q0 -678 425 -900q43 -23 14.5 -87t-92.5 -94q-42 -19 -70 -5q-475 248 -475 990q0 503 289 792q115 115 267 188q42 20 61 11t22 -13z"/>
            <glyph unicode=")" horiz-adv-x="1024"
                   d="M824 693q0 -594 -316 -909q-101 -101 -230 -169q-58 -30 -88 0q-38 61 36 135q21 21 73.5 48.5t109.5 84.5q217 217 217 714q0 593 -429 800q-44 21 -16.5 85t91.5 95q42 20 71 6q481 -231 481 -890z"/>
            <glyph unicode="*" horiz-adv-x="1106"
                   d="M993 444q38 -60 -28 -125.5t-117 -56.5q-15 3 -25 13l-19 19q-76 76 -161 142q6 -110 19 -228q6 -51 -48.5 -105.5t-99 -49t-48.5 42.5q-25 215 -24 405q-117 -65 -158 -96q-19 -55 -70 -86q-77 -46 -107 -12q-14 15 -14 37q0 120 203 243l56 33q-92 48 -142 64 q-19 -10 -36 -5q-47 -17 -67 8q-45 56 50 152q80 80 214 26q42 -17 93 -42q14 119 35 172.5t59 78.5q1 0 11 9l17 12q42 32 87 32t52 -35q10 -60 -52 -118q-17 -94 -25 -195q247 118 293 111q21 -3 25 -8q25 -28 12.5 -67.5t-44 -71t-77.5 -48t-106 -41.5q119 -86 223 -190z "/>
            <glyph unicode="+"
                   d="M-430 1844q94 -94 -32 -400q-15 -37 -58 -76t-90 -32q-21 3 -35.5 24t3.5 64q85 208 41 252q-29 29 -101 7t-101 -38q8 -43 77 -112q29 -29 16.5 -69.5t-44.5 -72.5t-75 -46t-67 18l-23 24q-166 184 5 350q84 83 246.5 132.5t237.5 -25.5z"/>
            <glyph unicode="," horiz-adv-x="700"
                   d="M437 215q70 -187 -144 -405q-55 -55 -106 -48q-21 3 -25 8q-25 28 -13 66.5t35 62.5q68 70 72 122q-40 -11 -59.5 11.5t-13.5 51.5q19 102 60 142q105 102 159 48q20 -21 35 -59z"/>
            <glyph unicode="-"
                   d="M-520 -148q37 -61 -37 -134q-33 -32 -68 -44l-327 -105q-165 -53 -378 52q-44 22 -16 86t92 94q42 20 70 6q169 -83 270 -50l327 105q47 11 67 -10z"/>
            <glyph unicode="." horiz-adv-x="533"
                   d="M412.5 122q6.5 -49 -48.5 -104q-54 -55 -102 -49q-40 4 -46 42q-2 13 -5 16t-14 2q-43 -4 -55 27t5 64q30 60 82 89q23 13 45 16q69 9 100.5 -22.5t38 -80.5z"/>
            <glyph unicode="/" horiz-adv-x="1024"
                   d="M1064.5 1383.5q-18.5 -43.5 -44.5 -66.5q-327 -293 -887 -1379q-27 -51 -82.5 -82.5t-86 -1t-1.5 87.5q553 1071 919 1438q80 79 119 84.5t60.5 -16t3 -65z"/>
            <glyph unicode="0" horiz-adv-x="1600"
                   d="M1409 465q-66 -180 -191 -305q-84 -84 -188 -137q-282 -144 -549 -60q-119 37 -202 120q-79 79 -124 200q-89 240 22 520q70 175 190 296q92 92 206 145q253 118 532 26q121 -40 202 -120q70 -71 109 -172q93 -240 -7 -513zM1226 840q-31 83 -89 140q-66 66 -166 99 q-225 74 -405 -10q-57 -27 -100 -69q-63 -63 -107 -174q-85 -214 -14 -406q38 -102 103 -167q68 -68 165 -98q210 -66 415 38q53 27 91 66q65 65 106 176q76 210 1 405z"/>
            <glyph unicode="1" horiz-adv-x="1600"
                   d="M1011 925q2 85 -68.5 142t-232.5 57t-188 -49q-5 -11 -10 -27q-41 -129 43 -213q63 -63 177 -60q236 6 269 75q6 12 10 30v45zM1323 41.5q2 -39.5 -36 -77.5t-73 -54q-64 -31 -159 64q-119 119 -85 339q23 145 33 355q-139 -85 -363 -91q-184 -4 -281 117.5t-39.5 300.5 t207.5 264q109 62 305 62.5t287 -90.5t90 -212q-6 -397 -43 -636q-33 -209 131 -290q24 -12 26 -51.5z"/>
            <glyph unicode="2" horiz-adv-x="1600"
                   d="M1318 696q-112 -195 -322 -300q205 -129 298 -222q120 -119 15 -224q-62 -62 -114 -46q-12 3 -20 11q-15 22 -15 38t-43 60q-105 104 -417 286q-257 -52 -400 29q-105 60 -32 166q19 27 28 34l19 15q44 39 127 61q134 34 281 -48l91 -52q200 50 286 135q31 32 54 73 q137 239 -237 402q-175 76 -616 -97q-44 -17 -70 2.5t-14.5 61.5t43 73.5t63.5 44.5q509 202 736 103q485 -210 259 -606z"/>
            <glyph unicode="3" horiz-adv-x="1600"
                   d="M1314 90q7 -42 -49.5 -99t-120.5 -46t-391 164q-216 -44 -414 1q-120 27 -146 83q-38 84 72 194q70 70 146 88t224 -53l225 -108q32 8 63 18q190 62 200 104.5t-9.5 85.5t-37.5 61q-95 94 -309 96q-118 1 -285.5 -5.5t-189.5 2t-26.5 37t15.5 61.5q52 88 125 94 q274 23 464 8l172 9q52 3 74 9q5 31 -5 81.5t-41 81.5q-155 155 -830 43q-44 -8 -58.5 22.5t2.5 65.5q45 93 125 106q924 155 994 -184q42 -203 -93 -328q57 -39 81 -94l10 -23q84 -205 -119 -373q-47 -39 -115 -73q164 -73 202 -80t45 -49z"/>
            <glyph unicode="4" horiz-adv-x="1600"
                   d="M1327.5 395.5q-0.5 -199.5 -177.5 -321.5q-111 -77 -285 -104q-533 -82 -598 239q-50 249 164 405q-135 64 -171 174q-81 250 92 424q33 33 78 62q243 155 350 -18q16 -27 0 -64q-36 -84 -111 -107q-51 -16 -72 17q-46 75 -136 18q-62 -39 -10 -198q46 -140 358 -184 l38 4q242 20 263 101q55 206 -161 305q-50 23 -17 87.5t83 89t79 11.5q289 -133 208 -442q-36 -134 -145 -217q171 -82 170.5 -281.5zM1130 289q-1 221 -282 238q-73 5 -137 13q-184 -21 -239 -74q-32 -32 -14.5 -115t59.5 -125q109 -109 418 -61q172 27 189 76q6 20 6 48z "/>
            <glyph unicode="5" horiz-adv-x="1600"
                   d="M1296 1287q-54 -1231 -8 -1378q17 -53 -43.5 -113.5t-112.5 -50.5q-27 5 -35 31q-35 110 -24 670q-82 -84 -183 -129q-328 -148 -503.5 25.5t50.5 465.5q120 155 41 232q-55 56 -189 85q-40 9 -37 43q7 87 89 135q40 24 72 17q237 -52 283 -186q53 -155 -125 -385 q-55 -71 -60.5 -126.5t41.5 -105.5q125 -123 349 -23q105 46 173 228q3 27 24 475q3 49 50 96.5t83 47.5t51 -16q14 -21 14 -35v-3z"/>
            <glyph unicode="6" horiz-adv-x="1600"
                   d="M1364.5 176.5q13.5 -25.5 -3.5 -61.5q-43 -93 -123 -108l-176 -33q-514 -96 -695 24q-235 156 -42 494q21 35 49 66q-196 162 -8 476q124 208 467 256q28 124 64 179q125 198 359 235q45 7 58.5 -24.5t-3.5 -65.5q-47 -94 -136.5 -107.5t-114.5 -52.5t-44 -149 q259 13 309 -46q129 -153 32 -278q-18 -23 -26 -31q-81 -81 -233 -97t-220.5 52.5t-69.5 194.5q-246 -26 -283 -88q-130 -219 79 -321q121 35 397.5 50.5t292.5 10.5t24 -13q38 -60 -39 -138q-34 -34 -78 -43q-424 -88 -674 -67q-29 -11 -41 -19q-110 -196 36 -292.5 t605 -10.5l176 33q18 1 33 0.5t28.5 -26zM1184 1050q-26 41 -44 51t-119 10q38 -77 163 -61z"/>
            <glyph unicode="7" horiz-adv-x="1700"
                   d="M1359 690q-43 -224 -215 -435q-142 -175 -358.5 -250t-540.5 -8q-41 9 -38 44q7 85 88 133q40 24 72 18q465 -96 649 129q119 146 149 305q52 270 -104 426q-59 59 -132 73q-163 32 -247 -52q-15 -15 -17 -40q-10 -155 15 -189l6.5 -2t15.5 -10q39 -60 -42.5 -141.5 t-143 -20t-47.5 276.5q11 171 211 303q164 109 369 70q103 -19 182 -99q194 -193 128 -531z"/>
            <glyph unicode="8" horiz-adv-x="1600"
                   d="M1435 218q3 -55 -74 -132q-119 -119 -360 -161q-322 -56 -449 25q-232 148 -131 584q43 184 61 353q-279 0 -307 89q-54 166 194 343q190 135 275 50q51 -51 49 -182l-5 -103q484 4 590 35q67 45 100 11q23 -22 14 -60t-46.5 -76t-88.5 -56q-117 -44 -588 -50 q-20 -144 -55 -297q-81 -349 94 -460q93 -59 361 -11q169 29 197 72q17 27 64.5 58t84.5 7q19 -12 20 -39zM495 1086q-1 94 -20 113q-11 11 -60 -24q-63 -45 -50 -61q21 -21 130 -28z"/>
            <glyph unicode="9" horiz-adv-x="1600"
                   d="M1435 218q3 -55 -74 -132q-119 -119 -360 -161q-322 -56 -449 25q-232 148 -131 584q43 184 61 353q-274 -12 -307 89q-41 124 84.5 249.5t230.5 159.5q207 66 203 -198l-4 -99l226 6q-57 87 -68 198q-19 205 128 323q125 101 343 67q43 -7 40 -42q-3 -64 -42 -100 t-68 -46t-95.5 -0.5t-104.5 -4.5q-10 -32 -1.5 -120.5t83.5 -163t179 -121.5q19 -9 25 -23q21 -54 -52 -126q-46 -47 -97 -43q-205 12 -515 2q-20 -147 -56 -303q-81 -349 94 -460q93 -59 361 -11q169 29 197 72q17 27 64.5 58t84.5 7q19 -12 20 -39zM495 1083 q-1 113 -27 119q-11 3 -45.5 -21.5t-48.5 -38.5q-20 -20 -1.5 -38.5t122.5 -20.5z"/>
            <glyph unicode=":" horiz-adv-x="555"
                   d="M412.5 122q6.5 -49 -48.5 -104q-54 -55 -102 -49q-40 4 -46 42q-2 13 -5 16t-14 2q-43 -4 -55 27t5 64q30 60 82 89q23 13 45 16q69 9 100.5 -22.5t38 -80.5zM410.5 710q6.5 -49 -48.5 -104q-54 -55 -102 -49q-40 4 -46 42q-2 13 -5 16t-14 2q-43 -4 -55 27t5 64 q30 60 82 89q23 13 45 16q69 9 100.5 -22.5t38 -80.5z"/>
            <glyph unicode=";" horiz-adv-x="586"
                   d="M408 708.5q6 -49.5 -49 -104.5q-54 -54 -101 -49q-41 5 -46 42q-2 13 -5.5 16.5t-14.5 2.5q-42 -4 -54.5 26.5t4.5 64.5q31 59 82 89q23 13 45 16q70 9 101.5 -22.5t37.5 -81zM437 215q70 -187 -144 -405q-55 -55 -106 -48q-21 3 -25 8q-25 28 -13 66.5t35 62.5 q68 70 72 122q-40 -11 -59.5 11.5t-13.5 51.5q19 102 60 142q105 102 159 48q20 -21 35 -59z"/>
            <glyph unicode="&#x3c;" horiz-adv-x="3989"
                   d="M3843 1706q-9 -82 -80.5 -124t-103.5 -9q-14 21 -14 40l1 46q0 441 -167 692t-584 251q-340 0 -569 -287q-320 -400 -328 -713q-1 -62 -57 -104.5t-83 -42.5q-28 0 -49 22q-64 63 -187 63q-195 0 -271 -100q-96 -124 -130 -282l649 7h4q112 0 156.5 -44.5t44.5 -100 t-40 -152t-87.5 -143.5t-76.5 -69q119 -84 140 -248q4 -25 4 -50q-1 -137 -104 -240q-135 -133 -340 -133q-105 0 -228 73q-171 101 -255.5 336.5t-84.5 465.5q0 361 212 638q184 239 503 239q63 0 115 -12q81 302 363 655q335 419 802 419t665 -297q180 -270 180 -748v-48z M710 959q0 70 -80 117.5t-174 47.5t-147 -52q-16 -15 -16.5 -91t54 -130.5t137.5 -54.5q14 0 30 2q116 10 156 50.5t40 110.5zM1047 -115q-15 -38 -52 -75q-82 -82 -178 14q-77 77 -97 221q-22 158 -20 264l4 226l4 163q-139 -100 -322 -99q-128 0 -209.5 82t-81.5 209 q0 216 183 337q142 95 300 95q100 0 196 -58q133 -78 134 -201v-75l-11 -536q-3 -136 17 -281q24 -169 112 -204q47 -19 21 -82zM1876 919q0 48 -97 48l-578 -5v-5q0 -132 31 -270q97 22 234 35l288 45q44 7 65.5 28.5t39 64t17.5 59.5zM1818 244q0 132 -59 191 q-97 97 -242 97q-66 0 -130 -7l-101 -15q71 -187 218 -274q93 -55 180 -55t130 39q3 6 4 24z"/>
            <glyph unicode="="
                   d="M-578 -499q30 -66 -46 -135q-34 -31 -69 -41l-441 -114q-335 -86 -426 68q-16 27 0 63q38 85 113 107q51 16 70 -18q54 -91 294 -28l441 114q52 7 64 -16zM-508.5 -216.5q-18.5 -44.5 -53.5 -73.5t-66 -37l-393 -96q-255 -62 -367 74q-31 66 42 135q50 48 85.5 46.5 t44.5 -13.5q76 -92 249 -50l393 96q41 6 62.5 -15.5t3 -66z"/>
            <glyph unicode="&#x3e;" horiz-adv-x="3874"
                   d="M1392 966q-7 118 -65 175q-92 92 -321 36q-61 -15 -80 -34t-23 -80q-8 -120 49.5 -177t195.5 -55q190 2 236 118q4 9 8 17zM1727 104q17 -53 -37 -107t-108 -59q-155 -12 -189 342q-1 11 1 23q11 57 3 447q-144 -113 -336 -116.5t-279.5 84.5t-74 278t194.5 307 q70 45 159 66q306 75 436 -56q88 -87 93 -265q15 -559 0 -668q22 -211 76 -242q4 -2 28 -3.5t33 -30.5zM3646 1123q86 -754 -449 -1298l-20 -20q-608 -607 -1374 -551q-972 70 -1395 734q-453 710 -76 1608q121 289 327 496q334 333 860 429q945 173 1473 -292 q24 -22 11.5 -62.5t-56.5 -85t-95 -37.5q-15 2 -26 12q-490 432 -1372 271q-443 -81 -696 -334q-152 -152 -246 -379q-341 -814 77 -1471q399 -626 1322 -693q666 -48 1167 455l17 17q429 435 354 1089q-87 756 -476 722q-113 -10 -149 -60.5t-37 -185.5q-1 -69 -81 -123.5 t-110 0.5q-112 205 -265 215q-244 17 -385 -124q-77 -77 -102 -227h672q144 -3 211 -69.5t33 -182.5q-48 -164 -194 -258q84 -53 112 -144q75 -240 -104 -418q-264 -264 -585 -70q-202 121 -287 396q-107 348 -51 691q45 280 276 451t509 152q122 -8 220 -96q53 99 155 168 t244 82q493 43 591 -807zM2561.5 901.5q18.5 63.5 -13 95.5t-129.5 34h-590q0 -141 30 -284q255 47 431 40q253 51 271.5 114.5zM2485.5 444q-44.5 134 -290.5 144q-125 -22 -280 -34q76 -195 227 -285q217 -130 333 -14q55 55 10.5 189z"/>
            <glyph unicode="?" horiz-adv-x="1200"
                   d="M896 1068q8 -192 -224 -386q-59 -49 -68 -238q-3 -47 -56.5 -100.5t-106.5 -40.5q-13 4 -21 12q-14 22 -14 41q14 300 194 450q102 85 99 157q-8 217 -195 216q-69 0 -87 -12q-12 -20 -12.5 -70.5t-26 -86.5t-63.5 -59t-62 -18q-46 9 -46 52q3 178 114.5 285t262.5 107 q300 -1 312 -309zM633.5 174q4.5 -46 -48.5 -99q-16 -16 -36 -28q-24 -30 -71 -57t-79 5q-16 15 -12 44q9 72 68 131.5t132 53.5q42 -4 46.5 -50z"/>
            <glyph unicode="@"
                   d="M207 -556q17 -27 1 -63q-38 -85 -113 -107q-51 -16 -70 18q-262 440 -731 457q-41 2 -47 37q-9 55 44.5 108.5t102.5 52.5q525 -15 813 -503z"/>
            <glyph unicode="A" horiz-adv-x="1620"
                   d="M1816 1285q9 -51 -44 -104t-102 -54l-157 -1q18 -205 23 -587l4 -340q1 -3 1 -7q-10 -1403 -1370 -2319q-60 -40 -97 -16q-17 11 -21.5 48.5t49.5 92.5q14 13 31 25q740 498 1033 1170q203 463 186 1097q-8 274 -102 347q-21 19 -39 23q61 -189 -90 -336 q-96 -95 -271 -144.5t-243 19.5q-85 85 25 326q61 133 127 198.5t118 99.5q-81 117 -153 130l-50 9q62 -308 -190 -463q-48 -30 -105 -48q-226 -75 -296 -5q-100 100 127 426q69 98 149 167q-47 31 -121 50q-185 48 -340 37q-43 -4 -53 29q-17 56 37 110t100 57 q151 11 381 -39q138 -30 218 -122q104 26 260.5 -12t271.5 -263q131 -3 214 -47q-11 242 -26 309q-7 4 -11 8q-1 4 -8 14t8 60t31 64l30 27t60.5 18.5t58.5 -9.5l297 -5q42 -1 49 -40zM487.5 786q-12.5 90 -37.5 144q-48 -36 -121.5 -141t-78.5 -159q-4 -47 124 -6 q79 26 87 33q39 39 26.5 129zM1032 451q8 50 -79 235q-43 -9 -76.5 -42.5t-81 -137.5t-22.5 -134q29 -29 118.5 -4t107.5 38t26 20q4 11 7 25z"/>
            <glyph unicode="B" horiz-adv-x="1232"
                   d="M1368 1283q10 -52 -43.5 -105.5t-101.5 -53.5h-142q20 -193 -53 -373q93 -126 89 -354q-2 -83 -81 -199q-139 -203 -431 -237q-459 -53 -523 163q-15 52 45 112.5t113 49.5q27 -5 35 -32q41 -138 408 -96q167 19 204 78q48 78 23 215q-10 56 -36 103q-95 -80 -230 -129 q-324 -118 -481 39q-84 84 -61 215q15 87 90.5 162.5t156.5 113.5t148 40q119 2 291 -69q54 -22 100 -50q8 100 -21 248h-987q-43 6 -49 38q-11 52 42.5 105.5t102.5 53.5h1342q44 -6 50 -38zM836 667q-66 62 -191 113q-200 83 -288 41.5t-95 -78.5q-20 -116 97 -178t327 15 q96 34 150 87z"/>
            <glyph unicode="C" horiz-adv-x="1352"
                   d="M1509 1284q10 -52 -43.5 -105.5t-101.5 -53.5h-155q-30 -134 -105 -208l-56 -51q-27 -24 -106.5 -54t-206.5 -7q-329 59 -447 3q-6 -3 -10 -6q-3 -13 -4 -40q-5 -114 26.5 -146t106.5 2q148 68 387 90q423 38 411 -303q-5 -151 -141.5 -287.5t-384 -226.5t-563.5 55 q-116 53 -104 270q5 104 138 213q-82 60 -74 244q5 116 76 198l43 46q34 34 95 63q184 88 537 25q149 -26 169.5 4.5t29.5 115.5l-1130 -1q-44 6 -50 38q-10 52 43.5 105.5t101.5 53.5l1468 1q44 -6 50 -38zM603 228q-29 96 -75 141q-79 79 -222 -6q-76 -44 -98 -70 q-5 -134 51 -159q139 -64 257 -76q69 60 83 98t4 72zM1009 334q6 192 -287 177q45 -58 68 -136q40 -131 -39 -255l-25 -38q163 60 221.5 118.5t61.5 133.5z"/>
            <glyph unicode="D" horiz-adv-x="1199"
                   d="M1405 1289q11 -52 -42.5 -106t-102.5 -54h-218l21 -179q178 -1650 -812 -2640q-263 -263 -607 -476q-39 -24 -64 -20q-50 8 -48 48q4 79 86 129q1243 769 1275 2288l-17 -17q-127 -127 -312 -152q-344 -47 -439 47q-77 77 -5 228q180 381 32 744h-271q-44 6 -50 37 q-11 52 42.5 106t101.5 54l306 1h1075q43 -7 49 -38zM872 703q6 119 -46 426h-439q89 -355 -93 -739q-20 -42 1 -63q60 -60 343 -22q97 13 141 58q80 80 93 340z"/>
            <glyph unicode="E" horiz-adv-x="1493"
                   d="M1670 1283q11 -52 -42.5 -105.5t-102.5 -53.5h-120q-5 -18 -14 -37q-97 -210 -198 -316q142 -116 24 -390q-99 -227 -219 -348q-159 -159 -316 -138q-323 44 -502 526q-40 108 -53.5 158t-23 67.5t-2.5 44.5q-47 222 -30 433h-191q-43 6 -49 38q-11 52 42.5 105.5 t102.5 53.5h125l13 51q51 196 194 338.5t331 234.5q244 120 692 73q64 -7 85 -38q50 -73 -7 -176q-33 -61 -58 -78q-84 -61 -117 -28t2 103q6 12 5 14q-6 5 -20 6q-399 42 -584 -48q-135 -66 -218 -149.5t-115 -201.5q-13 -50 -22 -101h1339q43 -6 49 -38zM1214 1076 q-25 48 -255 48h-695q-2 -148 30 -303l488 16l299 20q40 17 133 219zM1035 360q91 210 -59 265q-44 17 -301 14l-328 -16q162 -493 441 -530q63 -9 120.5 48.5t126.5 218.5z"/>
            <glyph unicode="F" horiz-adv-x="1442"
                   d="M1560 1286q11 -52 -42.5 -106t-102.5 -54h-163q-34 -160 -182 -307q-95 -95 -275 -158l-265 -90q-38 -185 33 -295q46 108 189 231t364 112q149 -7 219.5 -125t4.5 -257.5t-221 -230.5t-289 -76q-330 36 -415 147q-139 183 -71 466q-93 -3 -176 15.5t-120 54.5 q-124 124 113 338q103 93 197.5 123.5t143.5 -19.5q80 -80 65 -293l295 95q72 22 131.5 81.5t73.5 187.5h-1173q-43 7 -50 38q-10 52 43.5 106t102.5 54h1521q43 -7 49 -38zM372 740q-2 119 -39 144q-21 14 -102 -59q-19 -16 -27 -27q37 -51 168 -58zM1163 227 q26 87 -37 149q-43 43 -113 46q-130 6 -179 -31q-76 -56 -83 -72q-30 -88 59 -174q58 -11 131.5 -19t165.5 46q48 28 56 55z"/>
            <glyph unicode="G" horiz-adv-x="1649"
                   d="M1750 1281q6 -51 -51 -108.5t-114 -44.5q-14 3 -101 5l31 -235q2 -9 9 -155q23 -500 -35 -843t-172 -625q-223 -551 -683 -1011q-99 -99 -253 -216.5t-286 -199.5q-39 -25 -65 -21q-46 6 -48 51.5t50 96.5q16 16 99.5 68.5t211 153.5t197.5 171q233 233 379 459 q395 612 413 1479q-95 -95 -230 -156q-341 -154 -446 159q-108 -136 -239 -167q-214 -51 -315 51q-179 178 67 846q7 18 -9 34q-50 49 -271 52q-42 1 -49 36q-11 54 42.5 108t102.5 54q463 0 368 -256q-213 -574 -81 -705q60 -60 202 -27q63 14 141 200q-20 266 39 670 q12 84 104 126q67 30 87 -16q3 -7 4 -16q61 -440 -24 -669l-9 -25q19 -195 91 -267t205 -11q79 35 134 91q78 77 80 222q1 88 -23 265l-37 271q-10 71 79 132q43 30 78 24q244 -1 275 -7.5t40.5 -17.5t11.5 -26z"/>
            <glyph unicode="H"
                   d="M-120 -373q-6 -224 -146 -329q-66 -49 -142 -49q-153 0 -245 92t-107 258q-1 9 -1 24.5t6 51.5q8 51 71.5 100.5t116.5 50.5h1q45 0 80 -15t43 -25q40 -50 -40 -130q-29 -29 -62 -42q49 -151 212 -166q23 54 23 122.5t-45 309.5q-10 52 47 109q52 53 98 50q43 -3 49 -39 q41 -214 41 -351v-22z"/>
            <glyph unicode="I" horiz-adv-x="601"
                   d="M769 1285q11 -52 -42.5 -105.5t-107.5 -54.5l-236 -1q63 -336 66 -804q6 -1178 -803 -1987q-262 -262 -592 -474q-67 -42 -101 -8q-13 19 -15 50.5t50 84.5q16 15 34 27q298 191 540 433q342 342 517 794t172.5 982t-42.5 902q-289 -1 -308 0q-56 6 -53.5 55.5t52.5 100 t104 44.5q17 -1 180 -2q-70 463 -213 606q-81 80 -173 47q-11 -4 -14 -12q-51 -114 30 -419q15 -52 -45 -112t-113 -49q-27 5 -35 33q-127 470 65 652l29 26q70 66 196.5 86t229.5 -83q179 -180 254 -775l324 1q44 -7 50 -38z"/>
            <glyph unicode="J" horiz-adv-x="1238"
                   d="M1404 1284q11 -52 -42.5 -106t-102.5 -54h-199q-48 -172 -192 -266l40 -71q143 -263 -26 -478q-55 -70 -105 -123q53 -94 67 -138q46 -153 -98 -242q-59 -36 -86 -0.5t-3 85.5q-5 44 -60 139q-242 -158 -406 6q-70 69 -97 148q-44 130 79 253q56 56 139 90 q186 76 326 -124l63 -93q53 60 63 87q37 97 -40 240l-52 92q-396 -240 -516 -120q-34 34 -17 77t54.5 78t72.5 38t42.5 -4t10.5 -12q46 -61 273 68q-169 242 -313 270h-62q-27 -5 -48 -20q-80 -59 -118 -21q-15 15 -13 41h-160q-44 7 -50 38q-10 52 43.5 106t101.5 54h324 q14 2 29 2l56 -2h973q43 -7 49 -38zM516 160l-58 85q-92 131 -158 105q-12 -5 -21 -10q8 -61 93 -146q61 -61 144 -34zM684 1124q55 -62 108 -143l42 30q38 27 43 113h-193z"/>
            <glyph unicode="K" horiz-adv-x="1253"
                   d="M1405 1293q11 -52 -42.5 -106t-102.5 -54h-217q3 -23 20 -180q176 -1651 -812 -2639q-263 -263 -607 -476q-39 -24 -64 -20q-50 8 -48 48q4 79 86 129q1243 770 1275 2288l-16 -17q-126 -126 -312 -152q-474 -68 -479 140q-2 56 33 134q71 153 91 301q-4 21 5 46 q16 196 -59 386q-297 1 -313 22q-31 41 8 101q23 36 60 60.5t80.5 21.5t294.5 -8q35 -1 47 -27q93 -217 80 -447q120 -6 453 1q-11 155 -46 324q-10 51 45.5 106.5t110.5 55.5h380q43 -7 49 -38zM869 650q-327 -8 -486 -5q-30 -123 -88 -250q-22 -46 1 -69q58 -58 341 -17 q99 15 142 57q76 77 90 284z"/>
            <glyph unicode="L" horiz-adv-x="1540"
                   d="M1717 1283q11 -52 -42.5 -105.5t-102.5 -53.5h-377q-38 -144 -81 -241q383 5 342 -407q-22 -221 -160 -358.5t-313 -181.5q-50 -12 -64 16q-7 13 -10.5 26t10.5 46t46.5 63.5t67.5 39.5q101 26 157.5 82.5t71.5 203.5q28 290 -270 272l-31 -33q-107 -105 -215 -107 t-188 78q-44 44 -84 112q-100 -96 -159.5 -277t14 -254.5t282.5 -51.5q43 5 55 -27q20 -56 -34.5 -110t-99.5 -59q-266 -29 -372 77q-120 120 -30 393t278 439q-47 110 -90 259h-438q-43 6 -49 38q-11 52 42.5 105.5t102.5 53.5h1692q43 -6 49 -38zM1017 1124h-465 q82 -238 176 -331q61 -61 117 -49q39 8 87.5 118t84.5 262zM1466.5 -93.5q6.5 -49.5 -48.5 -104t-98.5 -49.5t-49.5 42q-2 13 -5.5 16.5t-14.5 2.5q-42 -4 -54.5 26.5t11.5 77t75 76.5q23 13 45 16q70 9 101.5 -22.5t38 -81z"/>
            <glyph unicode="M"
                   d="M320 1844q94 -94 -32 -400q-15 -37 -58 -76t-90 -32q-21 3 -35.5 24t3.5 64q85 208 41 252q-29 29 -101 7t-101 -38q8 -43 77 -112q29 -29 16.5 -69.5t-44.5 -72.5t-75 -46t-67 18l-23 24q-166 184 5 350q84 83 246.5 132.5t237.5 -25.5z"/>
            <glyph unicode="N"
                   d="M-209.5 1690q6.5 -49 -48.5 -104q-54 -55 -102 -49q-40 4 -46 42q-2 13 -5 16t-14 2q-43 -4 -55 27t5 64q30 60 82 89q23 13 45 16q69 9 100.5 -22.5t38 -80.5z"/>
            <glyph unicode="O"
                   d="M-193 1545q-37 -86 -108 -178t-136 -77q-15 4 -24 13q-29 45 12 105q63 91 74 148.5t-28.5 97t-140.5 54.5q-69 -6 -128 -9q-2 -83 68 -240q13 -29 -4 -63q-32 -65 -96.5 -98t-86.5 18q-111 247 -61 387q-164 18 -217 97q-176 268 19 463q96 96 254 141q50 15 66 -12 q8 -14 11.5 -26t-7.5 -43q-31 -83 -153 -119q-70 -21 -76 -53q-13 -72 68 -195q40 -61 235 -62q86 29 229 9.5t211 -87.5q94 -95 19 -271z"/>
            <glyph unicode="P" horiz-adv-x="1225"
                   d="M1403 1283q10 -52 -43.5 -105.5t-101.5 -53.5h-218q3 -134 -81 -211q-87 -86 -206 -73q-310 33 -451 -109q-45 -45 -62 -131.5t28 -192.5q167 285 503 259q213 -17 291 -157q90 -162 3 -307q-22 -37 -35 -52l-31 -34q-190 -193 -464 -165t-400 212.5t-84.5 396t260 359 t532.5 119.5q-4 36 -16 86h-947q-43 6 -49 38q-11 52 42.5 105.5t102.5 53.5h1377q44 -6 50 -38zM903 220q26 43 -26.5 140t-211 109t-192.5 -27q-104 -119 -52 -165q25 -24 9 -66q87 -51 213 -64q180 -19 257 68z"/>
            <glyph unicode="Q" horiz-adv-x="1199"
                   d="M1405 1290q11 -52 -42.5 -106t-102.5 -54h-217q9 -56 13 -102l7 -78q153 -1674 -812 -2639q-263 -263 -607 -476q-39 -24 -64 -20q-50 8 -48 49q4 78 86 128q305 189 534 418q717 717 741 1870l-17 -17q-122 -126 -312 -152q-345 -47 -439 47q-76 76 -5.5 226.5 t92.5 294.5q-11 25 8 64q16 198 -60 387h-279q-44 6 -50 37q-11 52 43 106t101 54l1381 -1q43 -7 49 -36zM866 842q-10 109 -40 288h-432q33 -141 23 -289q121 -6 449 1zM869 647q-325 -8 -484 -5q-31 -124 -91 -250q-21 -45 1 -67q58 -58 343 -19q97 14 141 57 q76 77 90 284z"/>
            <glyph unicode="R"
                   d="M-102 -813q4 -50 -56 -110t-114 -37q-7 3 -13 9q-12 19 -13 32q-12 150 -108 356q-69 -39 -165 -54t-146 35t-16.5 166t139.5 179q58 34 124.5 39.5t108.5 -15.5l10 43q10 43 42 74q77 78 130 49q31 -17 22 -62q-36 -173 -82 -268q124 -250 137 -436zM-483 -419 q-25 28 -65 25q-1 -19 3 -22l11 -6q19 -4 51 3z"/>
            <glyph unicode="S" horiz-adv-x="1234"
                   d="M728.5 212.5q6.5 -49.5 -48.5 -104t-98.5 -49.5t-49.5 42q-2 13 -5.5 16.5t-14.5 2.5q-42 -4 -54.5 26.5t11.5 77t75 76.5q23 13 45 16q70 9 101.5 -22.5t38 -81zM1389 1283q11 -52 -42.5 -105.5t-102.5 -53.5h-183q280 -1778 -743 -2800q-257 -258 -594 -463 q-40 -24 -64 -20q-49 9 -47 50q5 78 87 128q1403 856 1199 2739q-237 -10 -378 -59q-5 -301 -174 -470q-33 -33 -73 -60q-187 -125 -274 -39q-63 63 -54 219q11 196 149 334q86 86 223 140q-8 59 -46 215q-21 86 -157 86h-234q-65 7 -50 67t60.5 94t63.5 35t257 1h1128 q43 -6 49 -38zM335 644q-130 -42 -175 -100q-25 -33 -29.5 -128t33.5 -110q24 -9 88 32q90 58 83 306zM874 946l-29 178h-369q20 -89 33 -236q103 38 365 58z"/>
            <glyph unicode="T" horiz-adv-x="1361"
                   d="M1547 1283q10 -52 -43.5 -105.5t-102.5 -53.5h-640q-16 -141 -80 -233q76 2 188.5 -22.5t191.5 -103t112 -172.5q99 -275 -94 -468q-103 -103 -279 -153q-627 -180 -664 381q-15 220 187 422q85 85 212 160q33 59 35 189h-690q-43 6 -49 38q-11 52 42.5 105.5t102.5 53.5 h1521q43 -6 50 -38zM983 227q60 61 0 230q-27 74 -89.5 136.5t-206 93.5t-227.5 -33q-44 -34 -82 -31q-51 -77 -45 -172q11 -170 93 -252q123 -123 419 -38q100 29 138 66z"/>
            <glyph unicode="U"
                   d="M-173 -499q30 -66 -46 -135q-34 -31 -69 -41l-441 -114q-335 -86 -426 68q-16 27 0 63q38 85 113 107q51 16 70 -18q54 -91 294 -28l441 114q52 7 64 -16zM-103.5 -216.5q-18.5 -44.5 -53.5 -73.5t-66 -37l-393 -96q-255 -62 -367 74q-31 66 42 135q51 48 86 46.5 t44 -13.5q76 -92 249 -50l393 96q41 6 62.5 -15.5t3 -66z"/>
            <glyph unicode="V" horiz-adv-x="1318"
                   d="M1494 1283q10 -52 -43.5 -105.5t-101.5 -53.5h-169q-9 -143 -163 -304q-9 -9 -19 -18q86 -50 150 -129q16 -19 29 -65q71 -246 -196 -464q143 -101 116 -204q-12 -41 -45 -72q-79 -77 -130 -42q-27 19 -20 51q2 6 1 12t-35 40t-123 85q-166 -46 -364 8q4 -58 -5 -77 q-30 -64 -75.5 -91.5t-69.5 -22.5q-46 9 -46 51q0 186 -113 395q-20 39 -31 65.5t5 59.5q34 68 96.5 96.5t86.5 -13.5l28 -56l31.5 -61t60 -71t108.5 -66q163 -53 285 -39q60 49 105 33q47 25 93 71q95 95 29 219q-2 5 -30 32q-109 109 -280 135q-123 -3 -144 6t-29.5 17.5 t-11 33t16.5 55.5q56 90 132.5 92.5t148.5 -7.5q112 4 145 38q80 88 64 145q-11 34 -42 62h-1059q-43 6 -49 38q-11 52 42.5 105.5t102.5 53.5h1468q44 -6 50 -38z"/>
            <glyph unicode="W" horiz-adv-x="594"
                   d="M402.5 1684q6.5 -49 -48.5 -104q-54 -55 -102 -49q-40 4 -46 42q-2 13 -5 16t-14 2q-43 -4 -55 27t5 64q30 60 82 89q23 13 45 16q69 9 100.5 -22.5t38 -80.5zM736 1280q11 -52 -42.5 -105.5t-102.5 -53.5h-237q1 -173 -22 -350t-118 -299q-27 -34 -66 -54t-60 -12 q-66 25 -22 105q9 12 32 48.5t43.5 181t13.5 380.5h-311q-43 6 -49 38q-11 52 42.5 105.5t102.5 53.5h747q43 -6 49 -38z"/>
            <glyph unicode="X" horiz-adv-x="1453"
                   d="M1105 768q-6 174 -24 356h-729q67 -260 -19 -431q-111 -221 -15 -317q43 -43 128 -63q173 -43 250 -13q22 87 -12 274q-40 10 -34 67l14 63q14 68 75.5 104t82 27.5t26 -15t9.5 -20.5l9 -43q93 -11 239 11zM1611 1283q11 -52 -42.5 -105.5t-102.5 -53.5h-179 q95 -1175 -278 -2027q-206 -471 -563 -829l-101 -97q-222 -205 -490 -369q-40 -25 -64 -20q-50 8 -47 49q5 79 86 128q282 173 515 406q419 419 612 1063q154 512 152 1157q-118 -22 -211 -27q17 -200 -56 -305q-109 -157 -307 -161q-95 -2 -210.5 26t-178.5 91 q-151 151 16 484q67 134 -43 431h-239q-43 6 -49 38q-11 52 42.5 105.5t102.5 53.5h1586q43 -6 49 -38z"/>
            <glyph unicode="Y"
                   d="M-130 1412q12 -62 -63.5 -123.5t-117.5 -22.5q-234 218 -404 229q-75 4 -125 -29q4 -24 21 -50t-0.5 -67t-62 -78t-76.5 -32t-43 22q-93 148 54 299q15 16 41 36q209 160 453 57q-136 218 -376 192q2 -22 9 -53q13 -53 -42.5 -108.5t-99.5 -53t-52 36.5q-27 118 -1 183 q66 157 216 184q275 49 438.5 -114.5t230.5 -507.5z"/>
            <glyph unicode="Z" horiz-adv-x="1543"
                   d="M1682 1283q11 -52 -42.5 -105.5t-102.5 -53.5h-192q95 -534 23 -1086q-6 -45 -38 -78q-77 -76 -130 -55q-34 14 -28 57q77 593 -46 1162h-185q83 -502 3 -767q-35 -121 -128 -213q-141 -142 -377.5 -176.5t-316.5 45.5q-114 115 76 412q230 360 566 463q-15 111 -39 236 h-818q-43 6 -49 38q-11 52 42.5 105.5t102.5 53.5h1630q43 -6 49 -38zM782 715q-260 -54 -430 -320q-106 -166 -60.5 -211.5t206.5 -22t219 81.5q25 25 39 70q44 149 26 402zM75.5 -3.5q6.5 -49.5 -48 -104t-98.5 -49.5t-50 42q-2 13 -5 16.5t-14 2.5q-42 -4 -54.5 26.5 t11 77t75.5 76.5q23 13 45 16q69 9 100.5 -22.5t38 -81z"/>
            <glyph unicode="[" horiz-adv-x="741"
                   d="M533 1340q226 -1163 -105 -2057q-202 -547 -603 -948l-40 -40q-239 -240 -544 -439q-67 -44 -102 -9q-29 44 2 91t66 70q270 177 479 386q1006 1006 653 2826q-11 52 44.5 107t99.5 52t50 -39z"/>
            <glyph unicode="\" horiz-adv-x="1345"
                   d="M1497 1286q11 -51 -43 -105q-53 -53 -102 -54h-180q-35 -102 -109 -176q-148 -148 -429 -122q-107 10 -189 6q-53 -42 -89 -28q-16 6 -29 12q-77 -20 -92 -53q-5 -12 -8 -27q-32 -133 23 -187.5t204 -39.5q167 70 485 121q40 6 56.5 -21.5t-6.5 -71.5t-45.5 -66.5 t-82 -48.5t-230.5 -62t-222 -44q-25 -12 -34 -19q-34 -119 24 -177.5t205 -64.5q190 -8 430 162q71 51 106 16t-3 -99q-22 -36 -56 -60q-319 -226 -578 -216q-192 8 -276 92q-103 103 -38 314q8 27 23 52q-253 46 -178 364q34 144 156 236q-69 82 -89 208h-214q-43 7 -49 38 q-11 52 42.5 106t102.5 54h1465q43 -7 49 -39zM989 1112q-13 13 -40 15h-249h-365q37 -66 104 -105q121 20 301.5 3.5t223.5 24.5q2 1 15 25.5t10 36.5z"/>
            <glyph unicode="]" horiz-adv-x="1132"
                   d="M926 1340q226 -1163 -105 -2057q-202 -547 -603 -948l-40 -40q-239 -240 -544 -439q-67 -44 -102 -9q-29 44 2 91t66 70q270 177 479 386q1006 1006 653 2826q-11 52 44.5 107t99.5 52t50 -39zM574 -204q-10 -42 -42 -74q-79 -79 -132 -47q-29 17 -20 61 q132 605 -36 1482q-10 52 47 109q53 53 98 50q43 -3 49 -39q175 -910 36 -1542z"/>
            <glyph unicode="^" horiz-adv-x="1253"
                   d="M1432 1283q11 -52 -42.5 -105.5t-102.5 -53.5h-233l17 -210q5 -31 14 -151q23 -299 -17 -722q-4 -46 -37 -79q-75 -75 -128 -58q-11 4 -18 11q-15 24 -13 44q14 161 19 319q-36 -36 -78 -64q-231 -151 -481 -132q-125 9 -180 64t-60 136q-2 25 12 53q84 169 113 356 q-3 21 7 47q16 137 3 283q-12 128 -318 103q-44 -3 -54 30q-18 55 36 109t100 58q413 34 432 -192q13 -143 0 -280h452q-13 160 -38 316q-9 57 45.5 105.5t94.5 51t61 2.5l112 -3h233q43 -6 49 -38zM886 651h-495q-35 -146 -100 -284q18 -79 147 -89q186 -13 339 88 q41 26 69 107.5t40 177.5zM166.5 37.5q6.5 -49.5 -48.5 -104t-98.5 -49.5t-49.5 42q-2 13 -5.5 16.5t-14.5 2.5q-42 -4 -54.5 26.5t11.5 77t75 76.5q23 13 45 16q70 9 101.5 -22.5t38 -81z"/>
            <glyph unicode="_" horiz-adv-x="178"
                   d="M300 1283q10 -52 -43.5 -105.5t-101.5 -53.5h-234q-44 6 -50 38q-10 52 43.5 105.5t101.5 53.5h234q43 -6 50 -38z"/>
            <glyph unicode="`" horiz-adv-x="1000"
                   d="M594 1143q-9 -80 -88 -127q-40 -24 -64 -19q-46 9 -46 51v352q9 80 88 127q40 24 64 19q46 -9 46 -51v-352z"/>
            <glyph unicode="a" horiz-adv-x="1493"
                   d="M1653 1283q11 -52 -42.5 -105.5t-102.5 -53.5h-83q-39 -205 -205 -361q63 -63 48 -185q-52 -409 -303 -584q-301 -210 -604 93q-178 178 -248 462l-21 89q-6 28 -7 45q-39 245 -19 441h-186q-43 6 -49 38q-11 52 42.5 105.5t102.5 53.5h125q70 279 240 450 q110 110 251 167q358 146 613 -75q177 -154 194 -542h205q43 -6 49 -38zM1230 1035q12 23 -4 39q-49 50 -254 50h-715q-6 -143 19 -297q331 17 586 9l238 7q37 17 130 192zM1072 502q15 117 -121 128l-182 9l-247 -6l-203 -4q83 -286 290.5 -441t333.5 -29q98 98 129 343z M280 1321h914q-31 260 -155 368q-203 177 -467 69q-78 -32 -131 -86q-114 -113 -161 -351z"/>
            <glyph unicode="b" horiz-adv-x="1238"
                   d="M897 958l-14 166h-349q-116 -11 -138 -55q-13 -24 -18 -63q-12 -91 26.5 -129.5t159.5 -9.5l59 14q121 47 274 77zM1408 1283q11 -52 -42.5 -105.5t-102.5 -53.5h-173q157 -1857 -827 -2841q-280 -281 -648 -485q-61 -33 -92 -2q-38 60 36 135q20 19 43 32 q381 211 662 527q234 264 396 639q214 494 248 1160q-72 -64 -171 -110q-187 -86 -398 -36q-145 35 -107 304q18 124 83 219q-162 38 -132 266q14 106 75 192h-378q-43 6 -49 38q-11 52 42.5 105.5t102.5 53.5h1383q43 -6 49 -38zM903 771l-319 -78q-104 -41 -125 -73 t-31 -101q-24 -168 37 -182q159 -38 280 18q60 28 87 54q70 70 71 362z"/>
            <glyph unicode="c" horiz-adv-x="1315"
                   d="M1474 1289q11 -52 -42.5 -105.5t-102.5 -53.5h-117q7 -173 -132 -294q125 -183 102 -341q-35 -239 -180 -384q-121 -122 -292 -154q-405 -77 -513 232q-30 85 40 378q-215 -14 -263 41q-80 93 79 252q49 49 124 104q220 163 298 84q54 -53 7 -224l-12 -44q245 39 498 154 q34 16 41 36q19 55 -13 160h-1084q-44 6 -50 38q-10 52 43.5 105.5t101.5 53.5h1418q43 -6 49 -38zM308 874q-21 -6 -71 -43t-77 -61q35 -11 128 -8q22 76 20 112zM987 423q17 116 -104 280q-6 8 -8 19q-231 -95 -454 -133q-50 -216 -29 -276q77 -220 383 -162q86 16 128 59 q62 61 84 213z"/>
            <glyph unicode="d" horiz-adv-x="1496"
                   d="M1625 1283q11 -52 -42.5 -105.5t-102.5 -53.5h-179q10 -222 -134 -366q-67 -68 -160 -104t-432 -72q-63 -226 26.5 -315.5t288 -77t263.5 38.5q41 50 76 57q75 14 84 -32q5 -23 -11 -61q-55 -128 -262 -172q-86 -18 -223 -26q-266 -18 -382 98q-143 143 -41 476 q-227 -9 -290 53.5t-1 172.5q97 174 214 243q143 84 244 -17q81 -81 61 -245q341 35 392.5 55t64.5 42q43 77 15 252h-1214q-43 6 -49 38q-11 52 42.5 105.5t102.5 53.5h1253h6h341q43 -6 49 -38zM429 763q-4 67 -42 92.5t-46 21.5q-25 -12 -67 -86q29 -28 155 -28z"/>
            <glyph unicode="e" horiz-adv-x="1388"
                   d="M1525 1284q11 -52 -42.5 -106t-102.5 -54h-228q-14 -124 -55 -262q-19 -62 -83 -102q-34 -20 -64 -18q-212 11 -337 -52q-13 -8 -35 -20.5t-60 -50.5t-61 -68q-119 -156 -20 -327t284 -127q143 35 345 196q37 30 69 33t43 -8q34 -34 10.5 -80.5t-58.5 -74.5 q-348 -279 -588 -273q-207 4 -309.5 223t70.5 468q45 67 109 131l22 21q-195 160 -218 391h-325q-43 7 -49 38q-11 52 42.5 106t102.5 54h1489q43 -7 49 -38zM962 1124h-524q52 -142 205 -249q132 57 295 64q20 97 24 185z"/>
            <glyph unicode="f" horiz-adv-x="1331"
                   d="M1529 1211q-27 -43 -65 -66q-37 -21 -63 -21h-293q-42 -68 -152 -161q95 -46 186 -180t87 -282q0 -5 -22 -92.5t-49 -149.5q-72 -159 -213 -235q-317 -169 -593 -79q-424 138 -268 420q46 85 103 142q230 231 558 96q271 -111 235 -364q33 59 53 188q12 76 -77 208 q-34 50 -78.5 94.5t-83.5 55t-66 13.5q-140 -65 -320 -24q-10 3 -17 7q-44 28 -1.5 100.5t110.5 86.5q158 33 274 31q76 53 119 97l27 28h-1040q-23 3 -34 10t-15 28q-11 52 42.5 105.5t102.5 53.5h1521q23 -3 29 -7q47 -29 3 -103zM776 128q53 194 -171 286 q-107 44 -164 44q-106 0 -152 -46q-19 -19 -44 -65t33.5 -104t203.5 -105.5t294 -9.5z"/>
            <glyph unicode="g" horiz-adv-x="1518"
                   d="M1683 1285q10 -51 -43.5 -105t-101.5 -54l-206 1q263 -1804 -776 -2843q-266 -266 -605 -473q-40 -24 -64 -20q-49 9 -47 50q5 78 86 128q872 533 1137 1431q219 743 55 1727l-182 -2l33 -302q54 -494 -139 -683q-69 -67 -116 -90t-83 -33q-396 -112 -505 -3 q-129 129 127 502q146 214 502 356l-28 253l-800 1q-43 7 -50 39q-10 51 43.5 105t102.5 54h1611q43 -7 49 -39zM773 706q-288 -107 -373 -230q-161 -236 -99.5 -297t377.5 28q35 10 50 31q81 118 45 468z"/>
            <glyph unicode="h" horiz-adv-x="1176"
                   d="M1398 1283q10 -52 -43.5 -105.5t-101.5 -53.5h-178q39 -742 -101 -987q-29 -52 -68 -90q-94 -94 -200 -92q-373 9 -536 172q-107 107 -124 272q-33 302 117 445l25 24q56 49 118 67t83 -7q36 -65 -41 -134q-36 -33 -59.5 -40t-26.5 -10t-7 -11q-30 -70 -14 -210.5 t99 -223.5q141 -141 471 -147l11 20q15 26 33 109.5t24 191.5l8 209q3 162 -15 442h-992q-43 6 -49 38q-11 52 42.5 105.5t102.5 53.5h989q53 30 86 0h297q44 -6 50 -38z"/>
            <glyph unicode="i" horiz-adv-x="555"
                   d="M950 2296q37 -62 -38 -135q-32 -32 -68 -43q-265 -84 -395 -214q-192 -192 -121 -555l6 -28h326q43 -7 49 -39q10 -52 -43 -105t-102 -54h-195q118 -775 -22 -1444q-86 -412 -247.5 -719.5t-332.5 -478.5q-1 -1 -29 -33l-65 -73q-21 -24 -56 -58l-49 -49 q-244 -235 -543 -424q-66 -42 -100 -8q-39 61 36 135q15 15 75 54q224 141 436 345l45 44q28 28 44 46l58 66q27 31 64 67.5t105.5 132.5t141.5 239q248 486 291 1143q30 466 -67 1016l-302 -1q-43 7 -49 39q-10 52 43 105t102 54h171q-47 408 232 683q199 199 533 302 q44 13 66 -10z"/>
            <glyph unicode="j" horiz-adv-x="1314"
                   d="M1499 1285q11 -52 -42.5 -106t-102.5 -54h-175q16 -142 21 -211t5.5 -69t5.5 -7q18 -28 -4 -75q34 -803 -193 -1418.5t-641 -1029.5l-20 -20q-287 -287 -668 -509q-72 -42 -102 9q-22 36 13 84t71 69q338 196 588 447q806 805 757 2219q-196 -97 -441 -150 q-105 -342 -231 -466q-50 -49 -98 -47q-23 1 -36 16q-19 33 -5.5 69t36.5 57q63 64 148 338l-54 -7q-203 -24 -270.5 89.5t95.5 302.5q109 128 251.5 88t178.5 -133q20 -54 19 -120q227 46 399 131q-11 168 -34 343h-1082q-43 7 -49 38q-11 52 42.5 106t102.5 54h1107 q20 4 35 0h324q43 -7 49 -38zM400 619q-24 82 -144 96q-27 -41 6 -74t138 -22z"/>
            <glyph unicode="k" horiz-adv-x="1331"
                   d="M1469 1282q11 -52 -42.5 -105.5t-102.5 -53.5h-157q-15 -338 -129 -583q166 -327 183 -432q9 -52 -46 -107t-99 -51t-50 40q-13 78 -138 330l-16 -16q-201 -182 -330 -211q-314 -71 -426 130t-13 402t351 272q194 54 382 -83q46 -34 91 -92l23 104q21 107 22 297h-1058 q-44 6 -50 38q-10 52 43.5 105.5t101.5 53.5h1411q43 -6 49 -38zM820 454q-72 129 -144 181q-145 106 -260.5 74t-137.5 -76q-3 -6 -6 -17q-41 -119 26 -240q80 -142 301 -91q62 15 195 138q11 10 26 31z"/>
            <glyph unicode="l" horiz-adv-x="1540"
                   d="M1717 1283q11 -52 -42.5 -105.5t-102.5 -53.5h-377q-38 -144 -81 -241q383 5 342 -407q-22 -221 -160 -358.5t-313 -181.5q-50 -12 -64 16q-7 13 -10.5 26t10.5 46t46.5 63.5t67.5 39.5q101 26 157.5 82.5t71.5 203.5q28 290 -270 272l-31 -33q-107 -105 -215 -107 t-188 78q-44 44 -84 112q-100 -96 -159.5 -277t14 -254.5t282.5 -51.5q43 5 55 -27q20 -56 -34.5 -110t-99.5 -59q-266 -29 -372 77q-120 120 -30 393t278 439q-47 110 -90 259h-438q-43 6 -49 38q-11 52 42.5 105.5t102.5 53.5h1692q43 -6 49 -38zM1017 1124h-465 q82 -238 176 -331q61 -61 117 -49q39 8 87.5 118t84.5 262z"/>
            <glyph unicode="m" horiz-adv-x="1234"
                   d="M1331 1283q11 -52 -42.5 -105.5t-102.5 -53.5h-125q280 -1777 -743 -2800q-257 -258 -594 -463q-40 -24 -64 -20q-49 9 -47 50q5 78 87 128q1403 857 1199 2740q-189 -5 -372 -48q-12 -290 -176 -455q-37 -37 -82 -65q-188 -120 -271 -37q-65 66 -51.5 238.5t144.5 304.5 q96 96 245 150q-5 51 -36 124t-40 82q-66 66 -377 71q-41 1 -51 32q-17 53 39 109t101 56q433 -1 493 -154q50 -129 56 -267q135 36 353 48l-36 215q1 48 17 70q62 88 129 88h298q43 -6 49 -38zM340 664q-132 -39 -177 -96l-13 -17q-12 -15 -18.5 -103.5t21 -110.5t99 24 t86.5 235q2 34 2 68z"/>
            <glyph unicode="n" horiz-adv-x="1293"
                   d="M1533 1282q11 -51 -43 -105t-102 -54l-575 1q-19 -54 -54 -112q150 -20 254 -124t141 -344q185 -1204 -772 -2192l-75 -76l-98 -93q-180 -166 -396 -325q-73 -53 -108 -18t0 96q21 36 55 62q496 367 788 766q550 752 410 1664q-32 207 -120.5 296t-230.5 95l-31 -31 l-146 -139q-223 -222 -80 -457q39 -63 153 22q66 49 88 49q53 0 62 -33q18 -69 -100 -157t-225.5 -103.5t-158.5 66.5q-138 227 -13 475q79 157 248 307q72 64 122 120l27 32q68 85 83 154l-748 1q-43 7 -49 39q-11 51 42.5 105t102.5 54l1500 -2q43 -7 49 -39z"/>
            <glyph unicode="o"
                   d="M-175.5 1803q89.5 -218 -126.5 -434q-59 -59 -110 -49q-15 2 -25 13q-39 60 39.5 138.5t32.5 190.5q-56 139 -371 50q-224 -62 -325 39q-83 83 -72 278t101 286q107 106 223 42q47 -26 11 -90.5t-93 -89.5q-23 -10 -41 -11q-21 -184 39 -244t204 -19q424 118 513.5 -100z "/>
            <glyph unicode="p" horiz-adv-x="1242"
                   d="M1393 1286q11 -52 -42.5 -105.5t-102.5 -54.5q-130 0 -200 -17q2 -15 3 -35l20 -259q59 -803 -146 -1427q-327 -993 -1310 -1584q-40 -24 -64 -19q-49 10 -46 51q6 79 88 128q806 484 1106 1267q180 470 190 1040q-100 -106 -246 -162q-567 -219 -580 110q-4 113 84 307 q155 339 14 557q-27 40 -282 43q-42 1 -49 35q-11 55 43 108.5t102 53.5q308 0 366 -84q179 -258 -16 -701q-124 -281 -5 -314q102 -28 349 67q70 28 110 67q115 115 95 352q-1 3 -4 92t-16.5 164.5t-3.5 126.5q17 80 128 156.5t366 74.5q42 -1 49 -38z"/>
            <glyph unicode="q" horiz-adv-x="1325"
                   d="M1495 1285q10 -52 -43.5 -105.5t-102.5 -53.5h-253q-29 -139 -185 -253q359 -98 351 -340q-4 -119 -96 -264q-52 -82 -117 -147q-222 -222 -528.5 -193t-520.5 339q-18 26 -1.5 65.5t59.5 79t90 32.5q21 -4 32 -20q190 -275 441 -299q214 -20 329 95q32 32 61 77 q104 166 -2 272t-436 151q-34 5 -40 34q-11 61 54 121q28 25 60 36q179 62 239 123q31 31 11 91h-993q-43 6 -50 38q-10 52 43.5 105.5t102.5 53.5h987q41 17 67 0h391q43 -6 50 -38z"/>
            <glyph unicode="r" horiz-adv-x="1040"
                   d="M1218 1283q10 -52 -43.5 -105.5t-101.5 -53.5h-178q14 -259 8 -481q-15 -545 -254 -665q-65 -32 -131 -22q-389 60 -458 549q-31 214 171 356q158 111 468 129l-5 108l-2 26h-812q-43 6 -49 38q-11 52 42.5 105.5t102.5 53.5h809q53 30 86 0h297q44 -6 50 -38zM707 788v9 q-323 -5 -432 -81q-31 -17 -20 -96q61 -423 386 -469q61 114 65 453z"/>
            <glyph unicode="s" horiz-adv-x="1234"
                   d="M1389 1283q11 -52 -42.5 -105.5t-102.5 -53.5h-183q280 -1778 -743 -2800q-257 -258 -594 -463q-40 -24 -64 -20q-49 9 -47 50q5 78 87 128q1403 856 1199 2739q-237 -10 -378 -59q-5 -301 -174 -470q-33 -33 -73 -60q-187 -125 -274 -39q-63 63 -54 219q11 196 149 334 q86 86 223 140q-8 59 -46 215q-21 86 -157 86h-234q-65 7 -50 67t60.5 94t63.5 35t257 1h1128q43 -6 49 -38zM335 644q-130 -42 -175 -100q-25 -33 -29.5 -128t33.5 -110q24 -9 88 32q90 58 83 306zM874 946l-29 178h-369q20 -89 33 -236q103 38 365 58z"/>
            <glyph unicode="t" horiz-adv-x="1222"
                   d="M1382 1285q10 -52 -43.5 -106t-102.5 -54h-170q-6 -120 -131 -207q-89 -62 -260 -69q-303 -11 -414 -145q-151 -185 -30 -384q57 -94 136 -137q221 -118 641 233q49 41 84 37t47 -29.5t-6.5 -64.5t-52.5 -67q-409 -343 -694 -337q-212 5 -338 211q-175 288 87 606 q212 259 630 275q64 2 102 11q-6 27 -28 67h-945q-44 7 -50 38q-10 52 43.5 106t101.5 54h1343q43 -7 50 -38z"/>
            <glyph unicode="u"
                   d="M-112 -148q37 -61 -37 -134q-33 -32 -68 -44l-327 -105q-165 -53 -378 52q-44 22 -16 86t92 94q42 20 70 6q169 -83 270 -50l327 105q47 11 67 -10z"/>
            <glyph unicode="v" horiz-adv-x="1345"
                   d="M1497 1285q11 -51 -43 -105t-102 -54l-180 1q-35 -102 -108 -176q-149 -148 -427 -122.5t-380 -37.5q-21 -14 -30 -52q-32 -133 23 -187.5t204 -39.5q167 70 485 121q40 6 56.5 -21.5t-6.5 -71.5t-45.5 -66.5t-82 -48.5t-230.5 -62t-222 -44q-25 -12 -34 -19 q-34 -120 24 -178t205 -64q190 -8 430 162q71 51 106 16t-3 -99q-22 -36 -56 -60q-319 -226 -578 -216q-192 8 -276 92q-103 103 -38 314q8 27 23 52q-252 46 -178 364q40 167 205 269.5t504 72.5q201 -18 225 29t21 58q-14 13 -40 15h-249h-813q-43 7 -49 38 q-11 52 42.5 106t102.5 54h1049q8 0 16 -1h400q43 -7 49 -39z"/>
            <glyph unicode="w" horiz-adv-x="507"
                   d="M736 1280q11 -52 -42.5 -105.5t-102.5 -53.5h-237q1 -173 -22 -350t-118 -299q-27 -34 -66 -54t-60 -12q-66 25 -22 105q9 12 32 48.5t43.5 181t13.5 380.5h-311q-43 6 -49 38q-11 52 42.5 105.5t102.5 53.5h747q43 -6 49 -38z"/>
            <glyph unicode="x" horiz-adv-x="1473"
                   d="M1633 1283q11 -52 -42.5 -105.5t-102.5 -53.5h-406q4 -31 4 -66q135 -52 356 -103q40 -9 37 -43q-8 -87 -90 -135q-40 -23 -71 -16q-149 34 -262 70q-41 -196 -112.5 -245.5t-109.5 -19.5q-232 192 -406 144q-97 -27 -139 -88q-94 -137 -5 -298q125 -225 530 -192.5 t483 207.5q18 39 46.5 62t39.5 28q70 34 95 -8q16 -27 -3 -70q-44 -97 -124 -178q-206 -206 -609 -237q-514 -41 -643 239q-166 361 192 632q281 211 596 15q4 27 1 71q-176 78 -193 172q-7 32 -10 59h-763q-43 6 -49 38q-11 52 42.5 105.5t102.5 53.5h723q115 124 246 0 h597q43 -6 49 -38z"/>
            <glyph unicode="y"
                   d="M-102 1393q7 -51 -48 -106t-99 -50t-49 42q-42 322 -388 458q-62 25 -119 33q0 -29 7.5 -76.5t-47.5 -102t-99 -50.5t-50 41q-32 201 79 307q46 43 94 62q106 42 273 -24q396 -156 446 -534z"/>
            <glyph unicode="z" horiz-adv-x="1340"
                   d="M848.5 105.5q6.5 -49.5 -48.5 -104t-98.5 -49.5t-49.5 42q-2 13 -5.5 16.5t-14.5 2.5q-42 -4 -54.5 26.5t11.5 77t75 76.5q23 13 45 16q70 9 101.5 -22.5t38 -81zM1499 1285q11 -52 -42.5 -106t-102.5 -54h-175q16 -142 21 -211t5.5 -69t5.5 -7q18 -28 -4 -75 q34 -803 -193 -1418.5t-641 -1029.5l-20 -20q-287 -287 -668 -509q-72 -42 -102 9q-22 36 13 84t71 69q338 196 588 447q806 805 757 2219q-196 -97 -441 -150q-105 -342 -231 -466q-50 -49 -98 -47q-23 1 -36 16q-19 33 -5.5 69t36.5 57q63 64 148 338l-54 -7 q-203 -24 -270.5 89.5t95.5 302.5q109 128 251.5 88t178.5 -133q20 -54 19 -120q227 46 399 131q-11 168 -34 343h-1082q-43 7 -49 38q-11 52 42.5 106t102.5 54h1107q20 4 35 0h324q43 -7 49 -38zM400 619q-24 82 -144 96q-27 -41 6 -74t138 -22z"/>
            <glyph unicode="{" horiz-adv-x="1024"
                   d="M842 1608q11 -54 -42.5 -107.5t-123.5 -54.5q-18 0 -32 -3v-20v-586q-8 -103 -58 -166q57 -53 58 -148v-630q0 -31 22.5 -54t106.5 -25q42 -2 49 -36q11 -54 -42.5 -108t-102.5 -54q-128 0 -179.5 51.5t-51.5 129.5v630q0 44 -32 76t-160 38q-42 2 -47 37q-9 55 44 107.5 t108 53t87 5.5v583q0 127 96.5 224t249.5 93q43 -2 50 -36z"/>
            <glyph unicode="|" horiz-adv-x="1336"
                   d="M1459 1282q10 -52 -43.5 -105.5t-101.5 -53.5h-949q-4 -67 -24 -133q511 187 716 -17q218 -219 -52 -687q-15 -28 -33 -53q88 -94 149 -207q15 -28 -1 -64q-32 -70 -96 -99.5t-87 13.5q-52 96 -125 176q-193 -162 -457 -165q-165 -1 -235 68.5t-16 219.5 q28 76 75.5 146.5t81.5 99.5l16 15q215 193 584 -101q189 349 2 489t-678 -70q-57 -24 -81 9.5t7 88.5q73 128 55 271h-266q-44 6 -50 38q-10 52 43.5 105.5t101.5 53.5h1414q44 -6 50 -38zM764 156q-87 77 -204 141.5t-196 50.5q-33 -6 -48 -29q-112 -165 -51 -226 q45 -45 175 -44q201 2 324 107z"/>
            <glyph unicode="}" horiz-adv-x="1024"
                   d="M813 702q11 -52 -43 -106.5t-109.5 -55t-86.5 -7.5v-10v-631q0 -112 -81 -183l-23 -20q-97 -76 -223 -73q-42 1 -49 36q-11 54 42.5 108t116.5 54h19v613q0 94 60 171q-60 51 -60 144v585q0 54 -31 85.5t-118 33.5q-42 2 -49 36q-11 54 42.5 108t102.5 54 q132 0 191.5 -59.5t59.5 -161.5v-585q0 -103 165 -100l24 1q44 -6 50 -37z"/>
            <glyph unicode="~" horiz-adv-x="402"
                   d="M697 2066q-47 -269 -189 -410l-42 -38q-16 -14 -32 -25l-31 -21q-132 -84 -316 -62q-370 44 -386 391q-2 49 51.5 102.5t104.5 46.5q39 -6 41 -47q12 -263 301 -297q144 -17 206.5 45.5t96.5 246.5q8 44 40 76q78 77 131 51q31 -16 24 -59zM541 1284q11 -52 -43 -106 t-102 -54h-484q-43 7 -50 38q-10 52 43.5 106t102.5 54h484q43 -7 49 -38z"/>
            <glyph unicode="&#xa3;" horiz-adv-x="1024"
                   d="M990 145q44 -55 -36 -135q-23 -23 -57.5 -40t-63.5 -4q-126 57 -333 36l-335 -35q-33 0 -39 7q-51 52 30 142t85 283l5 192q-43 6 -69 3q-51 -69 -116 -68q-41 1 -48 38q-5 25 12.5 64.5t58.5 79.5q69 68 166 80l1 46q1 10 4 21q79 298 276 404q296 159 454 1 q39 -60 -27 -126t-117 -57q-16 3 -26 13q-97 97 -276 1q-49 -26 -91 -175l-3 -145q136 -33 177 -2q30 22 66.5 19.5t43.5 -36.5q11 -54 -40 -105q-95 -95 -252 -88l-1 -68q-4 -175 -73 -315l214 22q243 26 397 -44q10 -5 13 -9z"/>
            <glyph unicode="&#xa4;" horiz-adv-x="1291"
                   d="M962 628q-4 146 -106.5 248.5t-248.5 104.5t-214.5 -66t-68.5 -188q-1 -171 104.5 -276t249.5 -105q288 1 284 282zM1267 1271q31 -61 -80 -155l-124 -114q93 -123 96 -292.5t-92 -305.5l183 -170v-1q39 -60 -26.5 -125.5t-116.5 -56.5q-15 2 -26 12q-109 106 -188 175 q-137 -88 -300 -89.5t-278 84.5l-156 -146q-50 -48 -97 -46q-23 1 -36 16q-34 64 40 135l150 140q-91 125 -89.5 297t98.5 307q-184 176 -194 176l-9 15t1.5 50.5t54.5 79.5t95 38q15 -2 26 -11q83 -70 204 -186q135 82 292.5 80.5t267.5 -78.5q197 187 243 194t61 -23z"/>
            <glyph unicode="&#xac;"
                   d="M-65 -642q39 -60 -36 -135q-27 -27 -58 -40q-273 -115 -397 10q-101 101 -5 261q-76 33 -125 120q-62 108 33.5 232t233.5 145q32 4 72 0q13 43 58 72.5t64 30.5q51 2 61 -32q22 -73 20 -128q-4 -83 -107 -150q-58 -37 -136.5 -8t-118.5 16q-1 -43 38.5 -81.5 t149.5 -44.5q83 20 140 20t72 -5t23 -28t-7 -56q-61 -135 -303 -129l-15 -6q-14 -29 31 -68q69 -61 236 9q43 18 69 0q6 -4 7 -5z"/>
            <glyph unicode="&#xad;"
                   d="M-520 -148q37 -61 -37 -134q-33 -32 -68 -44l-327 -105q-165 -53 -378 52q-44 22 -16 86t92 94q42 20 70 6q169 -83 270 -50l327 105q47 11 67 -10z"/>
            <glyph unicode="&#x964;" horiz-adv-x="741"
                   d="M533 1340q226 -1163 -105 -2057q-202 -547 -603 -948l-40 -40q-239 -240 -544 -439q-67 -44 -102 -9q-29 44 2 91t66 70q270 177 479 386q1006 1006 653 2826q-11 52 44.5 107t99.5 52t50 -39z"/>
            <glyph unicode="&#x965;" horiz-adv-x="1132"
                   d="M926 1340q226 -1163 -105 -2057q-202 -547 -603 -948l-40 -40q-239 -240 -544 -439q-67 -44 -102 -9q-29 44 2 91t66 70q270 177 479 386q1006 1006 653 2826q-11 52 44.5 107t99.5 52t50 -39zM574 -204q-10 -42 -42 -74q-79 -79 -132 -47q-29 17 -20 61 q132 605 -36 1482q-10 52 47 109q53 53 98 50q43 -3 49 -39q175 -910 36 -1542z"/>
            <glyph unicode="&#xa01;"
                   d="M-515.5 1750q6.5 -49 -48.5 -104q-54 -55 -102 -49q-40 4 -46 42q-2 13 -5 16t-14 2q-43 -4 -55 27t5 64q30 60 82 89q23 13 45 16q69 9 100.5 -22.5t38 -80.5zM-152 1897q-28 -258 -159 -389q-154 -154 -366 -184q-8 -1 -16 0q-407 28 -433 401q-4 50 56 110t114 37 q7 -3 13 -9q13 -19 13 -32q12 -169 110 -236q73 -62 225 -74q108 17 187 88q42 47 60 210q5 45 38 78q75 75 128 56q10 -3 17 -10q15 -25 13 -46z"/>
            <glyph unicode="&#xa02;"
                   d="M-209.5 1690q6.5 -49 -48.5 -104q-54 -55 -102 -49q-40 4 -46 42q-2 13 -5 16t-14 2q-43 -4 -55 27t5 64q30 60 82 89q23 13 45 16q69 9 100.5 -22.5t38 -80.5z"/>
            <glyph unicode="&#xa03;" horiz-adv-x="652"
                   d="M582 464q75 -179 -89 -342q-14 -14 -27 -25l-32 -25q-56 -42 -125.5 -53.5t-127.5 14.5q-200 87 -129 296q29 87 92 144t110 77q185 78 282 -19q29 -29 46 -67zM385 216q48 20 13 95q-16 36 -33 53q-43 43 -118 11q-4 -2 -7 -3q-4 -11 -10 -45q-12 -60 86 -103 q42 -18 69 -8zM591 1065q112 -181 -67.5 -341t-323.5 -120q-229 62 -162 300q26 92 97 160t165 98q193 62 291 -97zM223 913q-6 -86 107 -117q53 -15 102 34q16 16 -23 80q-64 107 -170 56q-5 -3 -10 -7q-4 -12 -6 -46z"/>
            <glyph unicode="&#xa05;" horiz-adv-x="1620"
                   d="M1816 1285q9 -51 -44 -104t-102 -54l-157 -1q18 -205 23 -587l4 -340q1 -3 1 -7q-10 -1403 -1370 -2319q-60 -40 -97 -16q-17 11 -21.5 48.5t49.5 92.5q14 13 31 25q740 498 1033 1170q203 463 186 1097q-8 274 -102 347q-21 19 -39 23q61 -189 -90 -336 q-96 -95 -271 -144.5t-243 19.5q-85 85 25 326q61 133 127 198.5t118 99.5q-81 117 -153 130l-50 9q62 -308 -190 -463q-48 -30 -105 -48q-226 -75 -296 -5q-100 100 127 426q69 98 149 167q-47 31 -121 50q-185 48 -340 37q-43 -4 -53 29q-17 56 37 110t100 57 q151 11 381 -39q138 -30 218 -122q104 26 260.5 -12t271.5 -263q131 -3 214 -47q-11 242 -26 309q-7 4 -11 8q-1 4 -8 14t8 60t31 64l30 27t60.5 18.5t58.5 -9.5l297 -5q42 -1 49 -40zM487.5 786q-12.5 90 -37.5 144q-48 -36 -121.5 -141t-78.5 -159q-4 -47 124 -6 q79 26 87 33q39 39 26.5 129zM1032 451q8 50 -79 235q-43 -9 -76.5 -42.5t-81 -137.5t-22.5 -134q29 -29 118.5 -4t107.5 38t26 20q4 11 7 25z"/>
            <glyph unicode="&#xa06;" horiz-adv-x="2325"
                   d="M1071 462q8 50 -79 235q-43 -9 -76.5 -42.5t-82 -139t-20.5 -133.5t117.5 -3t107.5 38t26 20zM475.5 784q-12.5 90 -37.5 144q-48 -36 -121.5 -141t-78.5 -159q-4 -47 124 -6q79 26 88 34q38 38 25.5 128zM2474 1280q10 -52 -43.5 -105.5t-101.5 -53.5h-238 q1 -177 -21.5 -352t-118.5 -297q-27 -34 -66 -54t-60 -12q-42 16 -37.5 55t24.5 65q95 118 81 595h-311q-6 0 -36 1l-21 1q11 -176 28 -849l1 -82v-1q0 -1054 -804 -1858q-240 -240 -566 -460q-60 -40 -97 -16q-17 11 -21.5 48.5t49.5 92.5q14 13 31 25q745 501 1033 1170 q185 431 178 900q-1 18 -4 97.5t-3 101.5q1 276 -91 347q49 -204 -154 -350q-84 -61 -207 -96q-184 -52 -252 17q-85 85 25 326q61 133 127 199t119 99q-71 89 -257 133q68 -313 -188 -470q-48 -30 -105 -48q-226 -75 -296 -5q-100 100 127 426q69 98 149 167 q-48 31 -120 50q-190 49 -329 39q-43 -3 -53 29q-17 56 37 110t100 57q132 11 369 -41q138 -30 218 -122q100 21 288.5 -13.5t295.5 -248.5q107 -5 187 -54q-11 238 -26 305q-6 4 -11 8q-1 4 -8 14t8 60t31 64l30 27t61 18.5t59 -10.5q75 -11 219 -11h332h2h2h385 q43 -6 50 -38z"/>
            <glyph unicode="&#xa07;" horiz-adv-x="1809"
                   d="M1370 1128h-524q52 -142 206 -249q131 57 295 64q20 98 23 185zM1934 1283q10 -52 -43.5 -106t-101.5 -54h-228q-15 -124 -56 -262q-18 -62 -83 -102q-33 -20 -63 -18q-279 15 -406 -98q-232 -206 -105 -424q97 -167 282 -123q142 35 344 196q38 30 70 33t43 -8 q34 -34 10 -80.5t-58 -74.5q-348 -279 -589 -273q-206 4 -308.5 223t69.5 468q47 68 109 130l23 23q-195 159 -218 390l-185 1q118 -778 -22 -1445q-87 -412 -248.5 -719.5t-332.5 -478.5q-1 -1 -28 -33l-66 -73q-160 -181 -426 -379q-107 -80 -221 -152q-66 -42 -100 -8 q-39 61 35 135q16 15 35 27q292 185 514 408l52 54l89 101q247 247 411 713q278 786 92 1852l-301 -3q-44 6 -50 39q-10 52 43.5 105.5t102.5 53.5l170 -1q-47 405 232 683q199 199 533 303q44 13 66 -10q37 -62 -37 -135q-33 -32 -68 -43q-265 -84 -395 -214 q-192 -192 -121 -557l6 -28l1479 2q44 -7 50 -38z"/>
            <glyph unicode="&#xa08;" horiz-adv-x="1938"
                   d="M962 1124h-524q52 -142 205 -249q132 57 295 64q20 98 24 185zM2099 1285q11 -52 -43 -106t-107 -54l-237 -1q64 -336 66 -804q6 -1178 -802 -1986q-262 -263 -593 -475q-66 -42 -101 -8q-12 19 -14 50.5t50 84.5q15 15 34 27q298 191 540 433q342 342 517 794t172 982 t-42 902h-294h-93q-14 -124 -55 -262q-19 -62 -83 -102q-34 -20 -64 -18q-218 12 -337 -52q-13 -8 -35 -20.5t-60 -50.5t-61 -68q-119 -156 -20 -327t284 -127q143 35 345 196q37 30 69 33t43 -8q34 -34 10.5 -80.5t-58.5 -74.5q-348 -279 -588 -273q-207 4 -309.5 223 t70.5 468q49 72 109 131l22 21q-195 160 -218 391h-325q-43 7 -49 38q-11 52 42.5 106t102.5 54l1526 1q-70 461 -213 605q-81 80 -173 47q-10 -4 -14 -12q-51 -114 31 -419q14 -52 -46 -112t-112 -49q-28 5 -35 33q-128 472 65 652l28 26q71 66 197 86t229 -83 q180 -180 254 -776l325 2q43 -7 50 -38z"/>
            <glyph unicode="&#xa09;" horiz-adv-x="1493"
                   d="M1653 1283q11 -52 -42.5 -105.5t-102.5 -53.5h-83q-39 -205 -205 -361q63 -63 48 -185q-52 -409 -303 -584q-301 -210 -604 93q-178 178 -248 462l-21 89q-6 28 -7 45q-39 245 -19 441h-186q-43 6 -49 38q-11 52 42.5 105.5t102.5 53.5h125q70 279 240 450 q110 110 251 167q358 146 613 -75q177 -154 194 -542h205q43 -6 49 -38zM1230 1035q12 23 -4 39q-49 50 -254 50h-715q-6 -143 19 -297q331 17 586 9l238 7q37 17 130 192zM1072 502q15 117 -121 128l-182 9l-247 -6l-203 -4q83 -286 290.5 -441t333.5 -29q98 98 129 343z M280 1321h914q-31 260 -155 368q-203 177 -467 69q-78 -32 -131 -86q-114 -113 -161 -351zM1112 -183q37 -61 -37 -135q-33 -32 -68 -43l-327 -105q-165 -53 -378 51q-44 22 -16 86t92 95q42 20 70 6q169 -83 270 -51l327 105q47 11 67 -9z"/>
            <glyph unicode="&#xa0a;" horiz-adv-x="1493"
                   d="M1653 1283q11 -52 -42.5 -105.5t-102.5 -53.5h-83q-39 -205 -205 -361q63 -63 48 -185q-52 -409 -303 -584q-301 -210 -604 93q-178 178 -248 462l-21 89q-6 28 -7 45q-39 245 -19 441h-186q-43 6 -49 38q-11 52 42.5 105.5t102.5 53.5h125q70 279 240 450 q110 110 251 167q358 146 613 -75q177 -154 194 -542h205q43 -6 49 -38zM1230 1035q12 23 -4 39q-49 50 -254 50h-715q-6 -143 19 -297q331 17 586 9l238 7q37 17 130 192zM1072 502q15 117 -121 128l-182 9l-247 -6l-203 -4q83 -286 290.5 -441t333.5 -29q98 98 129 343z M280 1321h914q-31 260 -155 368q-203 177 -467 69q-78 -32 -131 -86q-114 -113 -161 -351zM1039 -618q30 -66 -46 -135q-34 -31 -69 -41l-441 -114q-335 -86 -426 68q-16 27 0 63q38 85 113 107q51 16 70 -18q54 -91 294 -28l441 114q52 7 64 -16zM1108.5 -335.5 q-18.5 -44.5 -53.5 -73.5t-66 -37l-393 -96q-255 -62 -367 74q-31 66 42 135q51 48 86 46.5t44 -13.5q76 -92 249 -50l393 96q41 6 62.5 -15.5t3 -66z"/>
            <glyph unicode="&#xa0f;" horiz-adv-x="1388"
                   d="M962 1124h-524q52 -142 205 -249q132 57 295 64q20 98 24 185zM1525 1284q11 -52 -42.5 -106t-102.5 -54h-228q-14 -124 -55 -262q-19 -62 -83 -102q-34 -20 -64 -18q-212 11 -337 -52q-13 -8 -35 -20.5t-60 -50.5t-61 -68q-119 -156 -20 -327t284 -127q143 35 345 196 q37 30 69 33t43 -8q34 -34 10.5 -80.5t-58.5 -74.5q-348 -279 -588 -273q-207 4 -309.5 223t70.5 468q45 67 109 131l22 21q-195 160 -218 391h-325q-43 7 -49 38q-11 52 42.5 106t102.5 54h1072q-58 288 -380 415q-73 29 -119 34q0 -29 7 -77t-47.5 -102.5t-98.5 -50.5 t-50 41q-33 200 79 307q45 43 93 62q106 42 274 -24q396 -156 445 -534q4 -32 -20 -71h234q43 -7 49 -38z"/>
            <glyph unicode="&#xa10;" horiz-adv-x="1734"
                   d="M1496 1474q10 -56 -62 -118t-120 -24q-233 218 -404 229q-74 4 -125 -29q6 -25 22 -50.5t-1.5 -66.5t-62 -78t-76 -31.5t-42.5 21.5q-92 150 54 299q15 16 41 36q207 159 453 56q-136 219 -376 193q2 -22 9 -53q12 -53 -43.5 -108.5t-99 -53t-51.5 35.5q-27 120 0 185 q64 156 215 183q358 64 539 -245q90 -153 130 -381zM1863 1279q9 -51 -45 -105q-53 -53 -102 -53l-156 1q18 -205 23 -587l4 -340v-7q-4 -563 -217 -1023q-229 -497 -542 -792l-54 -54q-37 -39 -86 -83l-121 -105q-131 -115 -349 -262q-59 -40 -97 -16q-17 11 -21.5 48.5 t49.5 92.5q14 13 31 25q745 501 1033 1170q183 426 178 902q-2 151 -6 194q-28 270 -61 340q-3 7 -33 17q43 -174 -97 -311q-97 -95 -271.5 -144.5t-242.5 19.5q-85 85 25 326q61 133 126.5 198.5t117.5 98.5q-28 34 -97 71t-140 54q66 -312 -189 -469q-48 -30 -105 -48 q-226 -75 -296 -5q-100 100 127 426q69 98 149 167q-50 34 -120 50q-251 55 -370 47q-43 -3 -53 30q-17 55 37 109t100 57q138 11 410 -49q139 -30 219 -123q181 38 327 -4q126 -36 238 -249q108 -5 188 -54q-11 238 -26 305l-11 8q-1 4 -8 14t8 60t31 64l30 27t61 18.5 t59 -10.5l296 -6q42 -1 49 -40zM526.5 776q-12.5 90 -37.5 144q-48 -36 -121.5 -141t-78.5 -159q-4 -47 124 -6q79 26 88 34q38 38 25.5 128zM1105 462q8 50 -79 235q-43 -9 -76.5 -42.5t-81 -137.5t-22.5 -134q29 -29 118.5 -4t107.5 38t26 20q4 11 7 25z"/>
            <glyph unicode="&#xa13;" horiz-adv-x="1546"
                   d="M1670 1283q11 -52 -42.5 -105.5t-102.5 -53.5h-120q-5 -18 -14 -37q-97 -210 -198 -316q142 -116 24 -390q-99 -227 -219 -348q-159 -159 -316 -138q-323 44 -502 526q-40 108 -53.5 158t-23 67.5t-2.5 44.5q-47 222 -30 433h-191q-43 6 -49 38q-11 52 42.5 105.5 t102.5 53.5h125l13 51q51 196 194 338.5t331 234.5q244 120 692 73q64 -7 85 -38q50 -73 -7 -176q-33 -61 -58 -78q-84 -61 -117 -28t2 103q6 12 5 14q-6 5 -20 6q-399 42 -584 -48q-135 -66 -218 -149.5t-115 -201.5q-13 -50 -22 -101h1339q43 -6 49 -38zM1214 1076 q-25 48 -255 48h-695q-2 -148 30 -303l488 16l299 20q40 17 133 219zM1035 360q91 210 -59 265q-44 17 -301 14l-328 -16q162 -493 441 -530q63 -9 120.5 48.5t126.5 218.5z"/>
            <glyph unicode="&#xa14;" horiz-adv-x="1764"
                   d="M1135 462q8 50 -79 235q-43 -9 -76.5 -42.5t-82 -139t-20.5 -133.5t117.5 -3t107.5 38t26 20zM536.5 776q-12.5 90 -37.5 144q-48 -36 -121.5 -141t-78.5 -159q-4 -47 124 -6q79 26 88 34q38 38 25.5 128zM1893 1282q9 -51 -44.5 -104.5t-102.5 -53.5l-156 -2 q18 -205 23 -587l4 -340q1 -3 1 -7q-11 -1404 -1370 -2319q-60 -40 -97 -16q-17 11 -21.5 48.5t49.5 92.5q14 13 31 25q745 501 1033 1170q212 492 172 1097q-13 191 -84 293q6 -137 -99 -240t-279.5 -152.5t-242.5 19.5q-85 85 25 326q61 133 127 198.5t118 99.5 q-66 97 -133 120q-27 9 -127 12q73 -318 -187 -477q-48 -30 -105 -48q-226 -75 -296 -5q-100 100 127 426q69 98 149 167q-50 34 -120 50q-251 55 -370 47q-43 -3 -53 30q-17 55 37 109t100 57q138 11 410 -49q139 -31 219 -123q196 39 344 -3q129 -36 241 -250 q108 -5 188 -54q-11 238 -26 305q-30 17 -11 82q15 51 31 64.5t30 26.5q6 6 19 10q-20 43 17 97q63 91 74 148.5t-28.5 97t-140.5 54.5q-69 -7 -128 -9q-2 -84 68 -240q13 -29 -4 -64q-32 -65 -96.5 -97.5t-86.5 17.5q-111 248 -61 387q-164 18 -217 98q-176 268 19 463 q95 95 254 141q50 15 66 -12q8 -14 11.5 -26.5t-7.5 -42.5q-31 -84 -153 -120q-70 -20 -76 -53q-13 -72 68 -195q40 -61 235 -61q88 28 230 8.5t209 -86.5q95 -95 20 -271q-37 -86 -108 -178q-28 -36 -55 -56l287 -5q42 -1 49 -40z"/>
            <glyph unicode="&#xa15;" horiz-adv-x="1331"
                   d="M1469 1282q11 -52 -42.5 -105.5t-102.5 -53.5h-157q-15 -338 -129 -583q166 -327 183 -432q9 -52 -46 -107t-99 -51t-50 40q-13 78 -138 330l-16 -16q-201 -182 -330 -211q-314 -71 -426 130t-13 402t351 272q194 54 382 -83q46 -34 91 -92l23 104q21 107 22 297h-1058 q-44 6 -50 38q-10 52 43.5 105.5t101.5 53.5h1411q43 -6 49 -38zM820 454q-72 129 -144 181q-145 106 -260.5 74t-137.5 -76q-3 -6 -6 -17q-41 -119 26 -240q80 -142 301 -91q62 15 195 138q11 10 26 31z"/>
            <glyph unicode="&#xa16;" horiz-adv-x="1253"
                   d="M1405 1293q11 -52 -42.5 -106t-102.5 -54h-217q3 -23 20 -180q176 -1651 -812 -2639q-263 -263 -607 -476q-39 -24 -64 -20q-50 8 -48 48q4 79 86 129q1243 770 1275 2288l-16 -17q-126 -126 -312 -152q-474 -68 -479 140q-2 56 33 134q71 153 91 301q-4 21 5 46 q16 196 -59 386q-297 1 -313 22q-31 41 8 101q23 36 60 60.5t80.5 21.5t294.5 -8q35 -1 47 -27q93 -217 80 -447q120 -6 453 1q-11 155 -46 324q-10 51 45.5 106.5t110.5 55.5h380q43 -7 49 -38zM869 650q-327 -8 -486 -5q-30 -123 -88 -250q-22 -46 1 -69q58 -58 341 -17 q99 15 142 57q76 77 90 284z"/>
            <glyph unicode="&#xa17;" horiz-adv-x="1518"
                   d="M1683 1285q10 -51 -43.5 -105t-101.5 -54l-206 1q263 -1804 -776 -2843q-266 -266 -605 -473q-40 -24 -64 -20q-49 9 -47 50q5 78 86 128q872 533 1137 1431q219 743 55 1727l-182 -2l33 -302q54 -494 -139 -683q-69 -67 -116 -90t-83 -33q-396 -112 -505 -3 q-129 129 127 502q146 214 502 356l-28 253l-800 1q-43 7 -50 39q-10 51 43.5 105t102.5 54h1611q43 -7 49 -39zM773 706q-288 -107 -373 -230q-161 -236 -99.5 -297t377.5 28q35 10 50 31q81 118 45 468z"/>
            <glyph unicode="&#xa18;" horiz-adv-x="1649"
                   d="M1750 1281q6 -51 -51 -108.5t-114 -44.5q-14 3 -101 5l31 -235q2 -9 9 -155q23 -500 -35 -843t-172 -625q-223 -551 -683 -1011q-99 -99 -253 -216.5t-286 -199.5q-39 -25 -65 -21q-46 6 -48 51.5t50 96.5q16 16 99.5 68.5t211 153.5t197.5 171q233 233 379 459 q395 612 413 1479q-95 -95 -230 -156q-341 -154 -446 159q-108 -136 -239 -167q-214 -51 -315 51q-179 178 67 846q7 18 -9 34q-50 49 -271 52q-42 1 -49 36q-11 54 42.5 108t102.5 54q463 0 368 -256q-213 -574 -81 -705q60 -60 202 -27q63 14 141 200q-20 266 39 670 q12 84 104 126q67 30 87 -16q3 -7 4 -16q61 -440 -24 -669l-9 -25q19 -195 91 -267t205 -11q79 35 134 91q78 77 80 222q1 88 -23 265l-37 271q-10 71 79 132q43 30 78 24q244 -1 275 -7.5t40.5 -17.5t11.5 -26z"/>
            <glyph unicode="&#xa19;" horiz-adv-x="1336"
                   d="M1459 1282q10 -52 -43.5 -105.5t-101.5 -53.5h-949q-4 -67 -24 -133q511 187 716 -17q218 -219 -52 -687q-15 -28 -33 -53q88 -94 149 -207q15 -28 -1 -64q-32 -70 -96 -99.5t-87 13.5q-52 96 -125 176q-193 -162 -457 -165q-165 -1 -235 68.5t-16 219.5 q28 76 75.5 146.5t81.5 99.5l16 15q215 193 584 -101q189 349 2 489t-678 -70q-57 -24 -81 9.5t7 88.5q73 128 55 271h-266q-44 6 -50 38q-10 52 43.5 105.5t101.5 53.5h1414q44 -6 50 -38zM764 156q-87 77 -204 141.5t-196 50.5q-33 -6 -48 -29q-112 -165 -51 -226 q45 -45 175 -44q201 2 324 107z"/>
            <glyph unicode="&#xa1a;" horiz-adv-x="1315"
                   d="M1474 1289q11 -52 -42.5 -105.5t-102.5 -53.5h-117q7 -173 -132 -294q125 -183 102 -341q-35 -239 -180 -384q-121 -122 -292 -154q-405 -77 -513 232q-30 85 40 378q-215 -14 -263 41q-80 93 79 252q49 49 124 104q220 163 298 84q54 -53 7 -224l-12 -44q245 39 498 154 q34 16 41 36q19 55 -13 160h-1084q-44 6 -50 38q-10 52 43.5 105.5t101.5 53.5h1418q43 -6 49 -38zM308 874q-21 -6 -71 -43t-77 -61q35 -11 128 -8q22 76 20 112zM987 423q17 116 -104 280q-6 8 -8 19q-231 -95 -454 -133q-50 -216 -29 -276q77 -220 383 -162q86 16 128 59 q62 61 84 213z"/>
            <glyph unicode="&#xa1b;" horiz-adv-x="1352"
                   d="M1509 1284q10 -52 -43.5 -105.5t-101.5 -53.5h-155q-30 -134 -105 -208l-56 -51q-27 -24 -106.5 -54t-206.5 -7q-329 59 -447 3q-6 -3 -10 -6q-3 -13 -4 -40q-5 -114 26.5 -146t106.5 2q148 68 387 90q423 38 411 -303q-5 -151 -141.5 -287.5t-384 -226.5t-563.5 55 q-116 53 -104 270q5 104 138 213q-82 60 -74 244q5 116 76 198l43 46q34 34 95 63q184 88 537 25q149 -26 169.5 4.5t29.5 115.5l-1130 -1q-44 6 -50 38q-10 52 43.5 105.5t101.5 53.5l1468 1q44 -6 50 -38zM603 228q-29 96 -75 141q-79 79 -222 -6q-76 -44 -98 -70 q-5 -134 51 -159q139 -64 257 -76q69 60 83 98t4 72zM1009 334q6 192 -287 177q45 -58 68 -136q40 -131 -39 -255l-25 -38q163 60 221.5 118.5t61.5 133.5z"/>
            <glyph unicode="&#xa1c;" horiz-adv-x="1314"
                   d="M1499 1285q11 -52 -42.5 -106t-102.5 -54h-175q16 -142 21 -211t5.5 -69t5.5 -7q18 -28 -4 -75q34 -803 -193 -1418.5t-641 -1029.5l-20 -20q-287 -287 -668 -509q-72 -42 -102 9q-22 36 13 84t71 69q338 196 588 447q806 805 757 2219q-196 -97 -441 -150 q-105 -342 -231 -466q-50 -49 -98 -47q-23 1 -36 16q-19 33 -5.5 69t36.5 57q63 64 148 338l-54 -7q-203 -24 -270.5 89.5t95.5 302.5q109 128 251.5 88t178.5 -133q20 -54 19 -120q227 46 399 131q-11 168 -34 343h-1082q-43 7 -49 38q-11 52 42.5 106t102.5 54h1107 q20 4 35 0h324q43 -7 49 -38zM400 619q-24 82 -144 96q-27 -41 6 -74t138 -22z"/>
            <glyph unicode="&#xa1d;" horiz-adv-x="1238"
                   d="M1404 1284q11 -52 -42.5 -106t-102.5 -54h-199q-48 -172 -192 -266l40 -71q143 -263 -26 -478q-55 -70 -105 -123q53 -94 67 -138q46 -153 -98 -242q-59 -36 -86 -0.5t-3 85.5q-5 44 -60 139q-242 -158 -406 6q-70 69 -97 148q-44 130 79 253q56 56 139 90 q186 76 326 -124l63 -93q53 60 63 87q37 97 -40 240l-52 92q-396 -240 -516 -120q-34 34 -17 77t54.5 78t72.5 38t42.5 -4t10.5 -12q46 -61 273 68q-169 242 -313 270h-62q-27 -5 -48 -20q-80 -59 -118 -21q-15 15 -13 41h-160q-44 7 -50 38q-10 52 43.5 106t101.5 54h324 q14 2 29 2l56 -2h973q43 -7 49 -38zM516 160l-58 85q-92 131 -158 105q-12 -5 -21 -10q8 -61 93 -146q61 -61 144 -34zM684 1124q55 -62 108 -143l42 30q38 27 43 113h-193z"/>
            <glyph unicode="&#xa1e;" horiz-adv-x="1345"
                   d="M1497 1286q11 -51 -43 -105q-53 -53 -102 -54h-180q-35 -102 -109 -176q-148 -148 -429 -122q-107 10 -189 6q-53 -42 -89 -28q-16 6 -29 12q-77 -20 -92 -53q-5 -12 -8 -27q-32 -133 23 -187.5t204 -39.5q167 70 485 121q40 6 56.5 -21.5t-6.5 -71.5t-45.5 -66.5 t-82 -48.5t-230.5 -62t-222 -44q-25 -12 -34 -19q-34 -119 24 -177.5t205 -64.5q190 -8 430 162q71 51 106 16t-3 -99q-22 -36 -56 -60q-319 -226 -578 -216q-192 8 -276 92q-103 103 -38 314q8 27 23 52q-253 46 -178 364q34 144 156 236q-69 82 -89 208h-214q-43 7 -49 38 q-11 52 42.5 106t102.5 54h1465q43 -7 49 -39zM989 1112q-13 13 -40 15h-249h-365q37 -66 104 -105q121 20 301.5 3.5t223.5 24.5q2 1 15 25.5t10 36.5z"/>
            <glyph unicode="&#xa1f;" horiz-adv-x="1222"
                   d="M1382 1285q10 -52 -43.5 -106t-102.5 -54h-170q-6 -120 -131 -207q-89 -62 -260 -69q-303 -11 -414 -145q-151 -185 -30 -384q57 -94 136 -137q221 -118 641 233q49 41 84 37t47 -29.5t-6.5 -64.5t-52.5 -67q-409 -343 -694 -337q-212 5 -338 211q-175 288 87 606 q212 259 630 275q64 2 102 11q-6 27 -28 67h-945q-44 7 -50 38q-10 52 43.5 106t101.5 54h1343q43 -7 50 -38z"/>
            <glyph unicode="&#xa20;" horiz-adv-x="1361"
                   d="M1547 1283q10 -52 -43.5 -105.5t-102.5 -53.5h-640q-16 -141 -80 -233q76 2 188.5 -22.5t191.5 -103t112 -172.5q99 -275 -94 -468q-103 -103 -279 -153q-627 -180 -664 381q-15 220 187 422q85 85 212 160q33 59 35 189h-690q-43 6 -49 38q-11 52 42.5 105.5t102.5 53.5 h1521q43 -6 50 -38zM983 227q60 61 0 230q-27 74 -89.5 136.5t-206 93.5t-227.5 -33q-44 -34 -82 -31q-51 -77 -45 -172q11 -170 93 -252q123 -123 419 -38q100 29 138 66z"/>
            <glyph unicode="&#xa21;" horiz-adv-x="1331"
                   d="M1529 1211q-27 -43 -65 -66q-37 -21 -63 -21h-293q-42 -68 -152 -161q95 -46 186 -180t87 -282q0 -5 -22 -92.5t-49 -149.5q-72 -159 -213 -235q-317 -169 -593 -79q-424 138 -268 420q46 85 103 142q230 231 558 96q271 -111 235 -364q33 59 53 188q12 76 -77 208 q-34 50 -78.5 94.5t-83.5 55t-66 13.5q-140 -65 -320 -24q-10 3 -17 7q-44 28 -1.5 100.5t110.5 86.5q158 33 274 31q76 53 119 97l27 28h-1040q-23 3 -34 10t-15 28q-11 52 42.5 105.5t102.5 53.5h1521q23 -3 29 -7q47 -29 3 -103zM776 128q53 194 -171 286 q-107 44 -164 44q-106 0 -152 -46q-19 -19 -44 -65t33.5 -104t203.5 -105.5t294 -9.5z"/>
            <glyph unicode="&#xa22;" horiz-adv-x="1442"
                   d="M1560 1286q11 -52 -42.5 -106t-102.5 -54h-163q-34 -160 -182 -307q-95 -95 -275 -158l-265 -90q-38 -185 33 -295q46 108 189 231t364 112q149 -7 219.5 -125t4.5 -257.5t-221 -230.5t-289 -76q-330 36 -415 147q-139 183 -71 466q-93 -3 -176 15.5t-120 54.5 q-124 124 113 338q103 93 197.5 123.5t143.5 -19.5q80 -80 65 -293l295 95q72 22 131.5 81.5t73.5 187.5h-1173q-43 7 -50 38q-10 52 43.5 106t102.5 54h1521q43 -7 49 -38zM372 740q-2 119 -39 144q-21 14 -102 -59q-19 -16 -27 -27q37 -51 168 -58zM1163 227 q26 87 -37 149q-43 43 -113 46q-130 6 -179 -31q-76 -56 -83 -72q-30 -88 59 -174q58 -11 131.5 -19t165.5 46q48 28 56 55z"/>
            <glyph unicode="&#xa23;" horiz-adv-x="1515"
                   d="M1633 1283q11 -52 -42.5 -105.5t-102.5 -53.5h-406q4 -31 4 -66q135 -52 356 -103q40 -9 37 -43q-8 -87 -90 -135q-40 -23 -71 -16q-149 34 -262 70q-41 -196 -112.5 -245.5t-109.5 -19.5q-232 192 -406 144q-97 -27 -139 -88q-94 -137 -5 -298q125 -225 530 -192.5 t483 207.5q18 39 46.5 62t39.5 28q70 34 95 -8q16 -27 -3 -70q-44 -97 -124 -178q-206 -206 -609 -237q-514 -41 -643 239q-166 361 192 632q281 211 596 15q4 27 1 71q-176 78 -193 172q-7 32 -10 59h-763q-43 6 -49 38q-11 52 42.5 105.5t102.5 53.5h723q115 124 246 0 h597q43 -6 49 -38z"/>
            <glyph unicode="&#xa24;" horiz-adv-x="1325"
                   d="M1495 1285q10 -52 -43.5 -105.5t-102.5 -53.5h-253q-29 -139 -185 -253q359 -98 351 -340q-4 -119 -96 -264q-52 -82 -117 -147q-222 -222 -528.5 -193t-520.5 339q-18 26 -1.5 65.5t59.5 79t90 32.5q21 -4 32 -20q190 -275 441 -299q214 -20 329 95q32 32 61 77 q104 166 -2 272t-436 151q-34 5 -40 34q-11 61 54 121q28 25 60 36q179 62 239 123q31 31 11 91h-993q-43 6 -50 38q-10 52 43.5 105.5t102.5 53.5h987q41 17 67 0h391q43 -6 50 -38z"/>
            <glyph unicode="&#xa25;" horiz-adv-x="1199"
                   d="M1405 1290q11 -52 -42.5 -106t-102.5 -54h-217q9 -56 13 -102l7 -78q153 -1674 -812 -2639q-263 -263 -607 -476q-39 -24 -64 -20q-50 8 -48 49q4 78 86 128q305 189 534 418q717 717 741 1870l-17 -17q-122 -126 -312 -152q-345 -47 -439 47q-76 76 -5.5 226.5 t92.5 294.5q-11 25 8 64q16 198 -60 387h-279q-44 6 -50 37q-11 52 43 106t101 54l1381 -1q43 -7 49 -36zM866 842q-10 109 -40 288h-432q33 -141 23 -289q121 -6 449 1zM869 647q-325 -8 -484 -5q-31 -124 -91 -250q-21 -45 1 -67q58 -58 343 -19q97 14 141 57 q76 77 90 284z"/>
            <glyph unicode="&#xa26;" horiz-adv-x="1496"
                   d="M1625 1283q11 -52 -42.5 -105.5t-102.5 -53.5h-179q10 -222 -134 -366q-67 -68 -160 -104t-432 -72q-63 -226 26.5 -315.5t288 -77t263.5 38.5q41 50 76 57q75 14 84 -32q5 -23 -11 -61q-55 -128 -262 -172q-86 -18 -223 -26q-266 -18 -382 98q-143 143 -41 476 q-227 -9 -290 53.5t-1 172.5q97 174 214 243q143 84 244 -17q81 -81 61 -245q341 35 392.5 55t64.5 42q43 77 15 252h-1214q-43 6 -49 38q-11 52 42.5 105.5t102.5 53.5h1253h6h341q43 -6 49 -38zM429 763q-4 67 -42 92.5t-46 21.5q-25 -12 -67 -86q29 -28 155 -28z"/>
            <glyph unicode="&#xa27;" horiz-adv-x="1199"
                   d="M1405 1289q11 -52 -42.5 -106t-102.5 -54h-218l21 -179q178 -1650 -812 -2640q-263 -263 -607 -476q-39 -24 -64 -20q-50 8 -48 48q4 79 86 129q1243 769 1275 2288l-17 -17q-127 -127 -312 -152q-344 -47 -439 47q-77 77 -5 228q180 381 32 744h-271q-44 6 -50 37 q-11 52 42.5 106t101.5 54l306 1h1075q43 -7 49 -38zM872 703q6 119 -46 426h-439q89 -355 -93 -739q-20 -42 1 -63q60 -60 343 -22q97 13 141 58q80 80 93 340z"/>
            <glyph unicode="&#xa28;" horiz-adv-x="1293"
                   d="M1533 1282q11 -51 -43 -105t-102 -54l-575 1q-19 -54 -54 -112q150 -20 254 -124t141 -344q185 -1204 -772 -2192l-75 -76l-98 -93q-180 -166 -396 -325q-73 -53 -108 -18t0 96q21 36 55 62q496 367 788 766q550 752 410 1664q-32 207 -120.5 296t-230.5 95l-31 -31 l-146 -139q-223 -222 -80 -457q39 -63 153 22q66 49 88 49q53 0 62 -33q18 -69 -100 -157t-225.5 -103.5t-158.5 66.5q-138 227 -13 475q79 157 248 307q72 64 122 120l27 32q68 85 83 154l-748 1q-43 7 -49 39q-11 51 42.5 105t102.5 54l1500 -2q43 -7 49 -39z"/>
            <glyph unicode="&#xa2a;" horiz-adv-x="1242"
                   d="M1393 1286q11 -52 -42.5 -105.5t-102.5 -54.5q-130 0 -200 -17q2 -15 3 -35l20 -259q59 -803 -146 -1427q-327 -993 -1310 -1584q-40 -24 -64 -19q-49 10 -46 51q6 79 88 128q806 484 1106 1267q180 470 190 1040q-100 -106 -246 -162q-567 -219 -580 110q-4 113 84 307 q155 339 14 557q-27 40 -282 43q-42 1 -49 35q-11 55 43 108.5t102 53.5q308 0 366 -84q179 -258 -16 -701q-124 -281 -5 -314q102 -28 349 67q70 28 110 67q115 115 95 352q-1 3 -4 92t-16.5 164.5t-3.5 126.5q17 80 128 156.5t366 74.5q42 -1 49 -38z"/>
            <glyph unicode="&#xa2b;" horiz-adv-x="1225"
                   d="M1403 1283q10 -52 -43.5 -105.5t-101.5 -53.5h-218q3 -134 -81 -211q-87 -86 -206 -73q-310 33 -451 -109q-45 -45 -62 -131.5t28 -192.5q167 285 503 259q213 -17 291 -157q90 -162 3 -307q-22 -37 -35 -52l-31 -34q-190 -193 -464 -165t-400 212.5t-84.5 396t260 359 t532.5 119.5q-4 36 -16 86h-947q-43 6 -49 38q-11 52 42.5 105.5t102.5 53.5h1377q44 -6 50 -38zM903 220q26 43 -26.5 140t-211 109t-192.5 -27q-104 -119 -52 -165q25 -24 9 -66q87 -51 213 -64q180 -19 257 68z"/>
            <glyph unicode="&#xa2c;" horiz-adv-x="1238"
                   d="M897 958l-14 166h-349q-116 -11 -138 -55q-13 -24 -18 -63q-12 -91 26.5 -129.5t159.5 -9.5l59 14q121 47 274 77zM1408 1283q11 -52 -42.5 -105.5t-102.5 -53.5h-173q157 -1857 -827 -2841q-280 -281 -648 -485q-61 -33 -92 -2q-38 60 36 135q20 19 43 32 q381 211 662 527q234 264 396 639q214 494 248 1160q-72 -64 -171 -110q-187 -86 -398 -36q-145 35 -107 304q18 124 83 219q-162 38 -132 266q14 106 75 192h-378q-43 6 -49 38q-11 52 42.5 105.5t102.5 53.5h1383q43 -6 49 -38zM903 771l-319 -78q-104 -41 -125 -73 t-31 -101q-24 -168 37 -182q159 -38 280 18q60 28 87 54q70 70 71 362z"/>
            <glyph unicode="&#xa2d;" horiz-adv-x="1232"
                   d="M1368 1283q10 -52 -43.5 -105.5t-101.5 -53.5h-142q20 -193 -53 -373q93 -126 89 -354q-2 -83 -81 -199q-139 -203 -431 -237q-459 -53 -523 163q-15 52 45 112.5t113 49.5q27 -5 35 -32q41 -138 408 -96q167 19 204 78q48 78 23 215q-10 56 -36 103q-95 -80 -230 -129 q-324 -118 -481 39q-84 84 -61 215q15 87 90.5 162.5t156.5 113.5t148 40q119 2 291 -69q54 -22 100 -50q8 100 -21 248h-987q-43 6 -49 38q-11 52 42.5 105.5t102.5 53.5h1342q44 -6 50 -38zM836 667q-66 62 -191 113q-200 83 -288 41.5t-95 -78.5q-20 -116 97 -178t327 15 q96 34 150 87z"/>
            <glyph unicode="&#xa2e;" horiz-adv-x="1234"
                   d="M1331 1283q11 -52 -42.5 -105.5t-102.5 -53.5h-125q280 -1777 -743 -2800q-257 -258 -594 -463q-40 -24 -64 -20q-49 9 -47 50q5 78 87 128q1403 857 1199 2740q-189 -5 -372 -48q-12 -290 -176 -455q-37 -37 -82 -65q-188 -120 -271 -37q-65 66 -51.5 238.5t144.5 304.5 q96 96 245 150q-5 51 -36 124t-40 82q-66 66 -377 71q-41 1 -51 32q-17 53 39 109t101 56q433 -1 493 -154q50 -129 56 -267q135 36 353 48l-36 215q1 48 17 70q62 88 129 88h298q43 -6 49 -38zM340 664q-132 -39 -177 -96l-13 -17q-12 -15 -18.5 -103.5t21 -110.5t99 24 t86.5 235q2 34 2 68z"/>
            <glyph unicode="&#xa2f;" horiz-adv-x="1453"
                   d="M1105 768q-6 174 -24 356h-729q67 -260 -19 -431q-111 -221 -15 -317q43 -43 128 -63q173 -43 250 -13q22 87 -12 274q-40 10 -34 67l14 63q14 68 75.5 104t82 27.5t26 -15t9.5 -20.5l9 -43q93 -11 239 11zM1611 1283q11 -52 -42.5 -105.5t-102.5 -53.5h-179 q95 -1175 -278 -2027q-206 -471 -563 -829l-101 -97q-222 -205 -490 -369q-40 -25 -64 -20q-50 8 -47 49q5 79 86 128q282 173 515 406q419 419 612 1063q154 512 152 1157q-118 -22 -211 -27q17 -200 -56 -305q-109 -157 -307 -161q-95 -2 -210.5 26t-178.5 91 q-151 151 16 484q67 134 -43 431h-239q-43 6 -49 38q-11 52 42.5 105.5t102.5 53.5h1586q43 -6 49 -38z"/>
            <glyph unicode="&#xa30;" horiz-adv-x="1040"
                   d="M1218 1283q10 -52 -43.5 -105.5t-101.5 -53.5h-178q14 -259 8 -481q-15 -545 -254 -665q-65 -32 -131 -22q-389 60 -458 549q-31 214 171 356q158 111 468 129l-5 108l-2 26h-812q-43 6 -49 38q-11 52 42.5 105.5t102.5 53.5h809q53 30 86 0h297q44 -6 50 -38zM707 788v9 q-323 -5 -432 -81q-31 -17 -20 -96q61 -423 386 -469q61 114 65 453z"/>
            <glyph unicode="&#xa32;" horiz-adv-x="1586"
                   d="M1717 1283q11 -52 -42.5 -105.5t-102.5 -53.5h-377q-38 -144 -81 -241q383 5 342 -407q-22 -221 -160 -358.5t-313 -181.5q-50 -12 -64 16q-7 13 -10.5 26t10.5 46t46.5 63.5t67.5 39.5q101 26 157.5 82.5t71.5 203.5q28 290 -270 272l-31 -33q-107 -105 -215 -107 t-188 78q-44 44 -84 112q-100 -96 -159.5 -277t14 -254.5t282.5 -51.5q43 5 55 -27q20 -56 -34.5 -110t-99.5 -59q-266 -29 -372 77q-120 120 -30 393t278 439q-47 110 -90 259h-438q-43 6 -49 38q-11 52 42.5 105.5t102.5 53.5h1692q43 -6 49 -38zM1017 1124h-465 q82 -238 176 -331q61 -61 117 -49q39 8 87.5 118t84.5 262z"/>
            <glyph unicode="&#xa33;" horiz-adv-x="1527"
                   d="M1717 1283q11 -52 -42.5 -105.5t-102.5 -53.5h-377q-38 -144 -81 -241q383 5 342 -407q-22 -221 -160 -358.5t-313 -181.5q-50 -12 -64 16q-7 13 -10.5 26t10.5 46t46.5 63.5t67.5 39.5q101 26 157.5 82.5t71.5 203.5q28 290 -270 272l-31 -33q-107 -105 -215 -107 t-188 78q-44 44 -84 112q-100 -96 -159.5 -277t14 -254.5t282.5 -51.5q43 5 55 -27q20 -56 -34.5 -110t-99.5 -59q-266 -29 -372 77q-120 120 -30 393t278 439q-47 110 -90 259h-438q-43 6 -49 38q-11 52 42.5 105.5t102.5 53.5h1692q43 -6 49 -38zM1017 1124h-465 q82 -238 176 -331q61 -61 117 -49q39 8 87.5 118t84.5 262zM1489.5 -65.5q6.5 -49.5 -48.5 -104t-98.5 -49.5t-49.5 42q-2 13 -5.5 16.5t-14.5 2.5q-42 -4 -54.5 26.5t11.5 77t75 76.5q23 13 45 16q70 9 101.5 -22.5t38 -81z"/>
            <glyph unicode="&#xa35;" horiz-adv-x="1345"
                   d="M1497 1285q11 -51 -43 -105t-102 -54l-180 1q-35 -102 -108 -176q-149 -148 -427 -122.5t-380 -37.5q-21 -14 -30 -52q-32 -133 23 -187.5t204 -39.5q167 70 485 121q40 6 56.5 -21.5t-6.5 -71.5t-45.5 -66.5t-82 -48.5t-230.5 -62t-222 -44q-25 -12 -34 -19 q-34 -120 24 -178t205 -64q190 -8 430 162q71 51 106 16t-3 -99q-22 -36 -56 -60q-319 -226 -578 -216q-192 8 -276 92q-103 103 -38 314q8 27 23 52q-252 46 -178 364q40 167 205 269.5t504 72.5q201 -18 225 29t21 58q-14 13 -40 15h-249h-813q-43 7 -49 38 q-11 52 42.5 106t102.5 54h1049q8 0 16 -1h400q43 -7 49 -39z"/>
            <glyph unicode="&#xa36;" horiz-adv-x="1234"
                   d="M728.5 212.5q6.5 -49.5 -48.5 -104t-98.5 -49.5t-49.5 42q-2 13 -5.5 16.5t-14.5 2.5q-42 -4 -54.5 26.5t11.5 77t75 76.5q23 13 45 16q70 9 101.5 -22.5t38 -81zM1389 1283q11 -52 -42.5 -105.5t-102.5 -53.5h-183q280 -1778 -743 -2800q-257 -258 -594 -463 q-40 -24 -64 -20q-49 9 -47 50q5 78 87 128q1403 856 1199 2739q-237 -10 -378 -59q-5 -301 -174 -470q-33 -33 -73 -60q-187 -125 -274 -39q-63 63 -54 219q11 196 149 334q86 86 223 140q-8 59 -46 215q-21 86 -157 86h-234q-65 7 -50 67t60.5 94t63.5 35t257 1h1128 q43 -6 49 -38zM335 644q-130 -42 -175 -100q-25 -33 -29.5 -128t33.5 -110q24 -9 88 32q90 58 83 306zM874 946l-29 178h-369q20 -89 33 -236q103 38 365 58z"/>
            <glyph unicode="&#xa38;" horiz-adv-x="1234"
                   d="M1389 1283q11 -52 -42.5 -105.5t-102.5 -53.5h-183q280 -1778 -743 -2800q-257 -258 -594 -463q-40 -24 -64 -20q-49 9 -47 50q5 78 87 128q1403 856 1199 2739q-237 -10 -378 -59q-5 -301 -174 -470q-33 -33 -73 -60q-187 -125 -274 -39q-63 63 -54 219q11 196 149 334 q86 86 223 140q-8 59 -46 215q-21 86 -157 86h-234q-65 7 -50 67t60.5 94t63.5 35t257 1h1128q43 -6 49 -38zM335 644q-130 -42 -175 -100q-25 -33 -29.5 -128t33.5 -110q24 -9 88 32q90 58 83 306zM874 946l-29 178h-369q20 -89 33 -236q103 38 365 58z"/>
            <glyph unicode="&#xa39;" horiz-adv-x="1176"
                   d="M1398 1283q10 -52 -43.5 -105.5t-101.5 -53.5h-178q39 -742 -101 -987q-29 -52 -68 -90q-94 -94 -200 -92q-373 9 -536 172q-107 107 -124 272q-33 302 117 445l25 24q56 49 118 67t83 -7q36 -65 -41 -134q-36 -33 -59.5 -40t-26.5 -10t-7 -11q-30 -70 -14 -210.5 t99 -223.5q141 -141 471 -147l11 20q15 26 33 109.5t24 191.5l8 209q3 162 -15 442h-992q-43 6 -49 38q-11 52 42.5 105.5t102.5 53.5h989q53 30 86 0h297q44 -6 50 -38z"/>
            <glyph unicode="&#xa3c;"
                   d="M-81.5 -174.5q6.5 -49.5 -48.5 -104t-98.5 -49.5t-49.5 42q-2 13 -5.5 16.5t-14.5 2.5q-42 -4 -54.5 26.5t11.5 77t75 76.5q23 13 45 16q70 9 101.5 -22.5t38 -81z"/>
            <glyph unicode="&#xa3e;" horiz-adv-x="507"
                   d="M736 1280q11 -52 -42.5 -105.5t-102.5 -53.5h-237q1 -173 -22 -350t-118 -299q-27 -34 -66 -54t-60 -12q-66 25 -22 105q9 12 32 48.5t43.5 181t13.5 380.5h-311q-43 6 -49 38q-11 52 42.5 105.5t102.5 53.5h747q43 -6 49 -38z"/>
            <glyph unicode="&#xa3f;" horiz-adv-x="555"
                   d="M950 2296q37 -62 -38 -135q-32 -32 -68 -43q-265 -84 -395 -214q-192 -192 -121 -555l6 -28h326q43 -7 49 -39q10 -52 -43 -105t-102 -54h-195q118 -775 -22 -1444q-86 -412 -247.5 -719.5t-332.5 -478.5q-1 -1 -29 -33l-65 -73q-21 -24 -56 -58l-49 -49 q-244 -235 -543 -424q-66 -42 -100 -8q-39 61 36 135q15 15 75 54q224 141 436 345l45 44q28 28 44 46l58 66q27 31 64 67.5t105.5 132.5t141.5 239q248 486 291 1143q30 466 -67 1016l-302 -1q-43 7 -49 39q-10 52 43 105t102 54h171q-47 408 232 683q199 199 533 302 q44 13 66 -10z"/>
            <glyph unicode="&#xa40;" horiz-adv-x="601"
                   d="M769 1285q11 -52 -42.5 -105.5t-107.5 -54.5l-236 -1q63 -336 66 -804q6 -1178 -803 -1987q-262 -262 -592 -474q-67 -42 -101 -8q-13 19 -15 50.5t50 84.5q16 15 34 27q298 191 540 433q342 342 517 794t172.5 982t-42.5 902q-289 -1 -308 0q-56 6 -53.5 55.5t52.5 100 t104 44.5q17 -1 180 -2q-70 463 -213 606q-81 80 -173 47q-11 -4 -14 -12q-51 -114 30 -419q15 -52 -45 -112t-113 -49q-27 5 -35 33q-127 470 65 652l29 26q70 66 196.5 86t229.5 -83q179 -180 254 -775l324 1q44 -7 50 -38z"/>
            <glyph unicode="&#xa41;"
                   d="M-112 -148q37 -61 -37 -134q-33 -32 -68 -44l-327 -105q-165 -53 -378 52q-44 22 -16 86t92 94q42 20 70 6q169 -83 270 -50l327 105q47 11 67 -10z"/>
            <glyph unicode="&#xa42;"
                   d="M-173 -499q30 -66 -46 -135q-34 -31 -69 -41l-441 -114q-335 -86 -426 68q-16 27 0 63q38 85 113 107q51 16 70 -18q54 -91 294 -28l441 114q52 7 64 -16zM-103.5 -216.5q-18.5 -44.5 -53.5 -73.5t-66 -37l-393 -96q-255 -62 -367 74q-31 66 42 135q51 48 86 46.5 t44 -13.5q76 -92 249 -50l393 96q41 6 62.5 -15.5t3 -66z"/>
            <glyph unicode="&#xa47;"
                   d="M-102 1393q7 -51 -48 -106t-99 -50t-49 42q-42 322 -388 458q-62 25 -119 33q0 -29 7.5 -76.5t-47.5 -102t-99 -50.5t-50 41q-32 201 79 307q46 43 94 62q106 42 273 -24q396 -156 446 -534z"/>
            <glyph unicode="&#xa48;"
                   d="M-130 1412q12 -62 -63.5 -123.5t-117.5 -22.5q-234 218 -404 229q-75 4 -125 -29q4 -24 21 -50t-0.5 -67t-62 -78t-76.5 -32t-43 22q-93 148 54 299q15 16 41 36q209 160 453 57q-136 218 -376 192q2 -22 9 -53q13 -53 -42.5 -108.5t-99.5 -53t-52 36.5q-27 118 -1 183 q66 157 216 184q275 49 438.5 -114.5t230.5 -507.5z"/>
            <glyph unicode="&#xa4b;"
                   d="M-175.5 1803q89.5 -218 -126.5 -434q-59 -59 -110 -49q-15 2 -25 13q-39 60 39.5 138.5t32.5 190.5q-56 139 -371 50q-224 -62 -325 39q-83 83 -72 278t101 286q107 106 223 42q47 -26 11 -90.5t-93 -89.5q-23 -10 -41 -11q-21 -184 39 -244t204 -19q424 118 513.5 -100z "/>
            <glyph unicode="&#xa4c;"
                   d="M-193 1545q-37 -86 -108 -178t-136 -77q-15 4 -24 13q-29 45 12 105q63 91 74 148.5t-28.5 97t-140.5 54.5q-69 -6 -128 -9q-2 -83 68 -240q13 -29 -4 -63q-32 -65 -96.5 -98t-86.5 18q-111 247 -61 387q-164 18 -217 97q-176 268 19 463q96 96 254 141q50 15 66 -12 q8 -14 11.5 -26t-7.5 -43q-31 -83 -153 -119q-70 -21 -76 -53q-13 -72 68 -195q40 -61 235 -62q86 29 229 9.5t211 -87.5q94 -95 19 -271z"/>
            <glyph unicode="&#xa4d;"
                   d="M207 -556q17 -27 1 -63q-38 -85 -113 -107q-51 -16 -70 18q-262 440 -731 457q-41 2 -47 37q-9 55 44.5 108.5t102.5 52.5q525 -15 813 -503z"/>
            <glyph unicode="&#xa59;" horiz-adv-x="1253"
                   d="M1405 1293q11 -52 -42.5 -106t-102.5 -54h-217q3 -23 20 -180q176 -1651 -812 -2639q-263 -263 -607 -476q-39 -24 -64 -20q-50 8 -48 48q4 79 86 129q1243 770 1275 2288l-16 -17q-126 -126 -312 -152q-474 -68 -479 140q-2 56 33 134q71 153 91 301q-4 21 5 46 q16 196 -59 386q-297 1 -313 22q-31 41 8 101q23 36 60 60.5t80.5 21.5t294.5 -8q35 -1 47 -27q93 -217 80 -447q120 -6 453 1q-11 155 -46 324q-10 51 45.5 106.5t110.5 55.5h380q43 -7 49 -38zM869 650q-327 -8 -486 -5q-30 -123 -88 -250q-22 -46 1 -69q58 -58 341 -17 q99 15 142 57q76 77 90 284zM201.5 -44q6.5 -49 -48 -104t-98.5 -50t-50 43q-2 13 -5 16t-14 2q-42 -4 -54.5 27t11 77.5t75.5 75.5q23 13 45 16q69 9 100.5 -22.5t38 -80.5z"/>
            <glyph unicode="&#xa5a;" horiz-adv-x="1550"
                   d="M1683 1285q10 -51 -43.5 -105t-101.5 -54l-206 1q263 -1804 -776 -2843q-266 -266 -605 -473q-40 -24 -64 -20q-49 9 -47 50q5 78 86 128q872 533 1137 1431q219 743 55 1727l-182 -2l33 -302q54 -494 -139 -683q-69 -67 -116 -90t-83 -33q-396 -112 -505 -3 q-129 129 127 502q146 214 502 356l-28 253l-800 1q-43 7 -50 39q-10 51 43.5 105t102.5 54h1611q43 -7 49 -39zM773 706q-288 -107 -373 -230q-161 -236 -99.5 -297t377.5 28q35 10 50 31q81 118 45 468zM168.5 -213.5q6.5 -49.5 -48.5 -104t-98.5 -49.5t-49.5 42 q-2 13 -5.5 16.5t-14.5 2.5q-42 -4 -54.5 26.5t11.5 77t75 76.5q23 13 45 16q70 9 101.5 -22.5t38 -81z"/>
            <glyph unicode="&#xa5b;" horiz-adv-x="1314"
                   d="M1499 1285q11 -52 -42.5 -106t-102.5 -54h-175q16 -142 21 -211t5.5 -69t5.5 -7q18 -28 -4 -75q34 -803 -193 -1418.5t-641 -1029.5l-20 -20q-287 -287 -668 -509q-72 -42 -102 9q-22 36 13 84t71 69q338 196 588 447q806 805 757 2219q-196 -97 -441 -150 q-105 -342 -231 -466q-50 -49 -98 -47q-23 1 -36 16q-19 33 -5.5 69t36.5 57q63 64 148 338l-54 -7q-203 -24 -270.5 89.5t95.5 302.5q109 128 251.5 88t178.5 -133q20 -54 19 -120q227 46 399 131q-11 168 -34 343h-1082q-43 7 -49 38q-11 52 42.5 106t102.5 54h1107 q20 4 35 0h324q43 -7 49 -38zM400 619q-24 82 -144 96q-27 -41 6 -74t138 -22zM826.5 13.5q6.5 -49.5 -48.5 -104t-98.5 -49.5t-49.5 42q-2 13 -5.5 16.5t-14.5 2.5q-42 -4 -54.5 26.5t11.5 77t75 76.5q23 13 45 16q70 9 101.5 -22.5t38 -81z"/>
            <glyph unicode="&#xa5c;" horiz-adv-x="1318"
                   d="M1494 1283q10 -52 -43.5 -105.5t-101.5 -53.5h-169q-9 -143 -163 -304q-9 -9 -19 -18q86 -50 150 -129q16 -19 29 -65q71 -246 -196 -464q143 -101 116 -204q-12 -41 -45 -72q-79 -77 -130 -42q-27 19 -20 51q2 6 1 12t-35 40t-123 85q-166 -46 -364 8q4 -58 -5 -77 q-30 -64 -75.5 -91.5t-69.5 -22.5q-46 9 -46 51q0 186 -113 395q-20 39 -31 65.5t5 59.5q34 68 96.5 96.5t86.5 -13.5l28 -56l31.5 -61t60 -71t108.5 -66q163 -53 285 -39q60 49 105 33q47 25 93 71q95 95 29 219q-2 5 -30 32q-109 109 -280 135q-123 -3 -144 6t-29.5 17.5 t-11 33t16.5 55.5q56 90 132.5 92.5t148.5 -7.5q112 4 145 38q80 88 64 145q-11 34 -42 62h-1059q-43 6 -49 38q-11 52 42.5 105.5t102.5 53.5h1468q44 -6 50 -38z"/>
            <glyph unicode="&#xa5e;" horiz-adv-x="1225"
                   d="M1403 1283q10 -52 -43.5 -105.5t-101.5 -53.5h-218q3 -134 -81 -211q-87 -86 -206 -73q-310 33 -451 -109q-45 -45 -62 -131.5t28 -192.5q167 285 503 259q213 -17 291 -157q90 -162 3 -307q-22 -37 -35 -52l-31 -34q-190 -193 -464 -165t-400 212.5t-84.5 396t260 359 t532.5 119.5q-4 36 -16 86h-947q-43 6 -49 38q-11 52 42.5 105.5t102.5 53.5h1377q44 -6 50 -38zM903 220q26 43 -26.5 140t-211 109t-192.5 -27q-104 -119 -52 -165q25 -24 9 -66q87 -51 213 -64q180 -19 257 68zM159.5 -39q6.5 -49 -48 -104t-98.5 -50t-50 43q-2 13 -5 16 t-14 2q-42 -4 -54.5 27t11 77.5t75.5 75.5q23 13 45 16q69 9 100.5 -22.5t38 -80.5z"/>
            <glyph unicode="&#xa66;" horiz-adv-x="1600"
                   d="M1409 465q-66 -180 -191 -305q-84 -84 -188 -137q-282 -144 -549 -60q-119 37 -202 120q-79 79 -124 200q-89 240 22 520q70 175 190 296q92 92 206 145q253 118 532 26q121 -40 202 -120q70 -71 109 -172q93 -240 -7 -513zM1226 840q-31 83 -89 140q-66 66 -166 99 q-225 74 -405 -10q-57 -27 -100 -69q-63 -63 -107 -174q-85 -214 -14 -406q38 -102 103 -167q68 -68 165 -98q210 -66 415 38q53 27 91 66q65 65 106 176q76 210 1 405z"/>
            <glyph unicode="&#xa67;" horiz-adv-x="1600"
                   d="M1011 925q2 85 -68.5 142t-232.5 57t-188 -49q-5 -11 -10 -27q-41 -129 43 -213q63 -63 177 -60q236 6 269 75q6 12 10 30v45zM1323 41.5q2 -39.5 -36 -77.5t-73 -54q-64 -31 -159 64q-119 119 -85 339q23 145 33 355q-139 -85 -363 -91q-184 -4 -281 117.5t-39.5 300.5 t207.5 264q109 62 305 62.5t287 -90.5t90 -212q-6 -397 -43 -636q-33 -209 131 -290q24 -12 26 -51.5z"/>
            <glyph unicode="&#xa68;" horiz-adv-x="1600"
                   d="M1318 696q-112 -195 -322 -300q205 -129 298 -222q120 -119 15 -224q-62 -62 -114 -46q-12 3 -20 11q-15 22 -15 38t-43 60q-105 104 -417 286q-257 -52 -400 29q-105 60 -32 166q19 27 28 34l19 15q44 39 127 61q134 34 281 -48l91 -52q200 50 286 135q31 32 54 73 q137 239 -237 402q-175 76 -616 -97q-44 -17 -70 2.5t-14.5 61.5t43 73.5t63.5 44.5q509 202 736 103q485 -210 259 -606z"/>
            <glyph unicode="&#xa69;" horiz-adv-x="1600"
                   d="M1314 90q7 -42 -49.5 -99t-120.5 -46t-391 164q-216 -44 -414 1q-120 27 -146 83q-38 84 72 194q70 70 146 88t224 -53l225 -108q32 8 63 18q190 62 200 104.5t-9.5 85.5t-37.5 61q-95 94 -309 96q-118 1 -285.5 -5.5t-189.5 2t-26.5 37t15.5 61.5q52 88 125 94 q274 23 464 8l172 9q52 3 74 9q5 31 -5 81.5t-41 81.5q-155 155 -830 43q-44 -8 -58.5 22.5t2.5 65.5q45 93 125 106q924 155 994 -184q42 -203 -93 -328q57 -39 81 -94l10 -23q84 -205 -119 -373q-47 -39 -115 -73q164 -73 202 -80t45 -49z"/>
            <glyph unicode="&#xa6a;" horiz-adv-x="1600"
                   d="M1327.5 395.5q-0.5 -199.5 -177.5 -321.5q-111 -77 -285 -104q-533 -82 -598 239q-50 249 164 405q-135 64 -171 174q-81 250 92 424q33 33 78 62q243 155 350 -18q16 -27 0 -64q-36 -84 -111 -107q-51 -16 -72 17q-46 75 -136 18q-62 -39 -10 -198q46 -140 358 -184 l38 4q242 20 263 101q55 206 -161 305q-50 23 -17 87.5t83 89t79 11.5q289 -133 208 -442q-36 -134 -145 -217q171 -82 170.5 -281.5zM1130 289q-1 221 -282 238q-73 5 -137 13q-184 -21 -239 -74q-32 -32 -14.5 -115t59.5 -125q109 -109 418 -61q172 27 189 76q6 20 6 48z "/>
            <glyph unicode="&#xa6b;" horiz-adv-x="1600"
                   d="M1296 1287q-54 -1231 -8 -1378q17 -53 -43.5 -113.5t-112.5 -50.5q-27 5 -35 31q-35 110 -24 670q-82 -84 -183 -129q-328 -148 -503.5 25.5t50.5 465.5q120 155 41 232q-55 56 -189 85q-40 9 -37 43q7 87 89 135q40 24 72 17q237 -52 283 -186q53 -155 -125 -385 q-55 -71 -60.5 -126.5t41.5 -105.5q125 -123 349 -23q105 46 173 228q3 27 24 475q3 49 50 96.5t83 47.5t51 -16q14 -21 14 -35v-3z"/>
            <glyph unicode="&#xa6c;" horiz-adv-x="1600"
                   d="M1364.5 176.5q13.5 -25.5 -3.5 -61.5q-43 -93 -123 -108l-176 -33q-514 -96 -695 24q-235 156 -42 494q21 35 49 66q-196 162 -8 476q124 208 467 256q28 124 64 179q125 198 359 235q45 7 58.5 -24.5t-3.5 -65.5q-47 -94 -136.5 -107.5t-114.5 -52.5t-44 -149 q259 13 309 -46q129 -153 32 -278q-18 -23 -26 -31q-81 -81 -233 -97t-220.5 52.5t-69.5 194.5q-246 -26 -283 -88q-130 -219 79 -321q121 35 397.5 50.5t292.5 10.5t24 -13q38 -60 -39 -138q-34 -34 -78 -43q-424 -88 -674 -67q-29 -11 -41 -19q-110 -196 36 -292.5 t605 -10.5l176 33q18 1 33 0.5t28.5 -26zM1184 1050q-26 41 -44 51t-119 10q38 -77 163 -61z"/>
            <glyph unicode="&#xa6d;" horiz-adv-x="1600"
                   d="M1359 690q-43 -224 -215 -435q-142 -175 -358.5 -250t-540.5 -8q-41 9 -38 44q7 85 88 133q40 24 72 18q465 -96 649 129q119 146 149 305q52 270 -104 426q-59 59 -132 73q-163 32 -247 -52q-15 -15 -17 -40q-10 -155 15 -189l6.5 -2t15.5 -10q39 -60 -42.5 -141.5 t-143 -20t-47.5 276.5q11 171 211 303q164 109 369 70q103 -19 182 -99q194 -193 128 -531z"/>
            <glyph unicode="&#xa6e;" horiz-adv-x="1600"
                   d="M1435 218q3 -55 -74 -132q-119 -119 -360 -161q-322 -56 -449 25q-232 148 -131 584q43 184 61 353q-279 0 -307 89q-54 166 194 343q190 135 275 50q51 -51 49 -182l-5 -103q484 4 590 35q67 45 100 11q23 -22 14 -60t-46.5 -76t-88.5 -56q-117 -44 -588 -50 q-20 -144 -55 -297q-81 -349 94 -460q93 -59 361 -11q169 29 197 72q17 27 64.5 58t84.5 7q19 -12 20 -39zM495 1086q-1 94 -20 113q-11 11 -60 -24q-63 -45 -50 -61q21 -21 130 -28z"/>
            <glyph unicode="&#xa6f;" horiz-adv-x="1600"
                   d="M1435 218q3 -55 -74 -132q-119 -119 -360 -161q-322 -56 -449 25q-232 148 -131 584q43 184 61 353q-274 -12 -307 89q-41 124 84.5 249.5t230.5 159.5q207 66 203 -198l-4 -99l226 6q-57 87 -68 198q-19 205 128 323q125 101 343 67q43 -7 40 -42q-3 -64 -42 -100 t-68 -46t-95.5 -0.5t-104.5 -4.5q-10 -32 -1.5 -120.5t83.5 -163t179 -121.5q19 -9 25 -23q21 -54 -52 -126q-46 -47 -97 -43q-205 12 -515 2q-20 -147 -56 -303q-81 -349 94 -460q93 -59 361 -11q169 29 197 72q17 27 64.5 58t84.5 7q19 -12 20 -39zM495 1083 q-1 113 -27 119q-11 3 -45.5 -21.5t-48.5 -38.5q-20 -20 -1.5 -38.5t122.5 -20.5z"/>
            <glyph unicode="&#xa70;"
                   d="M320 1844q94 -94 -32 -400q-15 -37 -58 -76t-90 -32q-21 3 -35.5 24t3.5 64q85 208 41 252q-29 29 -101 7t-101 -38q8 -43 77 -112q29 -29 16.5 -69.5t-44.5 -72.5t-75 -46t-67 18l-23 24q-166 184 5 350q84 83 246.5 132.5t237.5 -25.5z"/>
            <glyph unicode="&#xa71;" horiz-adv-x="402"
                   d="M697 2066q-47 -269 -189 -410l-42 -38q-16 -14 -32 -25l-31 -21q-132 -84 -316 -62q-370 44 -386 391q-2 49 51.5 102.5t104.5 46.5q39 -6 41 -47q12 -263 301 -297q144 -17 206.5 45.5t96.5 246.5q8 44 40 76q78 77 131 51q31 -16 24 -59zM541 1284q11 -52 -43 -106 t-102 -54h-484q-43 7 -50 38q-10 52 43.5 106t102.5 54h484q43 -7 49 -38z"/>
            <glyph unicode="&#xa72;" horiz-adv-x="1388"
                   d="M1525 1284q11 -52 -42.5 -106t-102.5 -54h-228q-14 -124 -55 -262q-19 -62 -83 -102q-34 -20 -64 -18q-212 11 -337 -52q-13 -8 -35 -20.5t-60 -50.5t-61 -68q-119 -156 -20 -327t284 -127q143 35 345 196q37 30 69 33t43 -8q34 -34 10.5 -80.5t-58.5 -74.5 q-348 -279 -588 -273q-207 4 -309.5 223t70.5 468q45 67 109 131l22 21q-195 160 -218 391h-325q-43 7 -49 38q-11 52 42.5 106t102.5 54h1489q43 -7 49 -38zM962 1124h-524q52 -142 205 -249q132 57 295 64q20 97 24 185z"/>
            <glyph unicode="&#xa73;" horiz-adv-x="1493"
                   d="M1653 1283q11 -52 -42.5 -105.5t-102.5 -53.5h-83q-39 -205 -205 -361q63 -63 48 -185q-52 -409 -303 -584q-301 -210 -604 93q-178 178 -248 462l-21 89q-6 28 -7 45q-39 245 -19 441h-186q-43 6 -49 38q-11 52 42.5 105.5t102.5 53.5h125q70 279 240 450 q110 110 251 167q358 146 613 -75q177 -154 194 -542h205q43 -6 49 -38zM1230 1035q12 23 -4 39q-49 50 -254 50h-715q-6 -143 19 -297q331 17 586 9l238 7q37 17 130 192zM1072 502q15 117 -121 128l-182 9l-247 -6l-203 -4q83 -286 290.5 -441t333.5 -29q98 98 129 343z M280 1321h914q-31 260 -155 368q-203 177 -467 69q-78 -32 -131 -86q-114 -113 -161 -351z"/>
            <glyph unicode="&#xa74;" horiz-adv-x="2916"
                   d="M2796.5 1256q10.5 -119 -1.5 -259q-3 -48 -36 -80q-74 -74 -127 -59q-12 3 -20 11q-15 23 -13 42q28 460 -131.5 619.5t-539.5 -18.5l-65 -32q-217 -110 -345 -557q-17 -60 -70.5 -94.5t-89.5 -24.5q-143 40 -221.5 9.5t-98.5 -49.5q-39 -38 -54 -135h417q99 -1 142 -44 q80 -80 -32 -267q-21 -36 -52 -65q35 -40 55 -103.5t9 -142.5t-80 -148t-115 -86q-128 -48 -228 -12.5t-154 88.5q-101 101 -141 306q9 -49 -1 10q-35 192 -22 337.5t53 220.5q97 184 306 265q111 43 233 31q169 471 488 632q547 277 780 44q68 -69 92.5 -140t38 -125.5 t24 -173.5zM516 404q-3 52 -41.5 90.5t-106.5 42.5t-86.5 -13.5t7.5 -84.5q18 -43 87 -59t97 -1t43 25zM792 -146q9 -52 -49 -110q-18 -19 -35 -28q-148 -83 -179 174q-15 128 -12 341q-130 -76 -234 -52q-148 34 -181 115q-72 188 67.5 318.5t296 122t225.5 -133.5 q29 -52 24 -269q-10 -390 42 -441q29 -6 35 -37zM1376 413q-18 18 -71 18l-326 1q4 -55 14 -115l261 15q74 12 108 26q23 45 14 55zM1328 -54q7 30 -7 74q-28 91 -122 117l-22 -1q-61 -10 -130 -15q57 -123 160 -160q84 -29 121 -15z"/>
            <glyph unicode="&#x2000;" horiz-adv-x="1399"/>
            <glyph unicode="&#x2001;" horiz-adv-x="2799"/>
            <glyph unicode="&#x2002;" horiz-adv-x="1399"/>
            <glyph unicode="&#x2003;" horiz-adv-x="2799"/>
            <glyph unicode="&#x2004;" horiz-adv-x="933"/>
            <glyph unicode="&#x2005;" horiz-adv-x="699"/>
            <glyph unicode="&#x2006;" horiz-adv-x="466"/>
            <glyph unicode="&#x2007;" horiz-adv-x="466"/>
            <glyph unicode="&#x2008;" horiz-adv-x="349"/>
            <glyph unicode="&#x2009;" horiz-adv-x="559"/>
            <glyph unicode="&#x200a;" horiz-adv-x="155"/>
            <glyph unicode="&#x200c;" d="M-36 -275v1859h72v-1859h-72z"/>
            <glyph unicode="&#x200d;"
                   d="M170 1320l-134 136v-1731h-72v1731l-134 -136l-49 49l171 169l-171 168l49 49l170 -171l170 171l49 -49l-171 -168l171 -169z"/>
            <glyph unicode="&#x2010;"
                   d="M-520 -148q37 -61 -37 -134q-33 -32 -68 -44l-327 -105q-165 -53 -378 52q-44 22 -16 86t92 94q42 20 70 6q169 -83 270 -50l327 105q47 11 67 -10z"/>
            <glyph unicode="&#x2011;"
                   d="M-520 -148q37 -61 -37 -134q-33 -32 -68 -44l-327 -105q-165 -53 -378 52q-44 22 -16 86t92 94q42 20 70 6q169 -83 270 -50l327 105q47 11 67 -10z"/>
            <glyph unicode="&#x2012;"
                   d="M-520 -148q37 -61 -37 -134q-33 -32 -68 -44l-327 -105q-165 -53 -378 52q-44 22 -16 86t92 94q42 20 70 6q169 -83 270 -50l327 105q47 11 67 -10z"/>
            <glyph unicode="&#x2013;" horiz-adv-x="1118" d="M-2 732v107h1120v-107h-1120z"/>
            <glyph unicode="&#x2014;" horiz-adv-x="1818" d="M-2 732v107h1820v-107h-1820z"/>
            <glyph unicode="&#x2018;" horiz-adv-x="652"
                   d="M364 1554l-48.5 -35t-35.5 -31t-25 -37t-16 -52q30 -2 52.5 -7.5t38 -19t23 -35.5t7.5 -57q0 -52 -28 -83t-76 -31q-50 0 -76.5 23t-37.5 52t-12 55.5t-1 34.5q0 39 13.5 78t38.5 75.5t59.5 70.5t75.5 63l48 -64v0z"/>
            <glyph unicode="&#x2019;" horiz-adv-x="652"
                   d="M296 1230l48.5 34t35.5 31.5t25 37.5t16 52q-60 2 -90.5 26.5t-30.5 92.5q0 52 28 83t76 31q33 0 55.5 -11t37 -27.5t21.5 -36.5t10 -38.5t3 -32.5v-19q0 -39 -14 -78t-38.5 -75.5t-59 -70.5t-75.5 -63l-48 64v0z"/>
            <glyph unicode="&#x2026;" horiz-adv-x="1812"
                   d="M393 101q0 -21 -8 -39.5t-21.5 -32t-32 -21.5t-39.5 -8t-39.5 8t-32 21.5t-21.5 32t-8 39.5t8 39.5t21.5 32t32 21.5t39.5 8t39.5 -8t32 -21.5t21.5 -32t8 -39.5zM1005 101q0 -21 -8 -39.5t-21.5 -32t-32 -21.5t-39.5 -8t-39.5 8t-32 21.5t-21.5 32t-8 39.5t8 39.5 t21.5 32t32 21.5t39.5 8t39.5 -8t32 -21.5t21.5 -32t8 -39.5zM1618 101q0 -21 -8 -39.5t-21.5 -32t-32 -21.5t-39.5 -8t-39.5 8t-32 21.5t-21.5 32t-8 39.5t8 39.5t21.5 32t32 21.5t39.5 8t39.5 -8t32 -21.5t21.5 -32t8 -39.5z"/>
            <glyph unicode="&#x202f;" horiz-adv-x="559"/>
            <glyph unicode="&#x205f;" horiz-adv-x="699"/>
            <glyph unicode="&#x20ac;" horiz-adv-x="1302"
                   d="M228 506h-128l23 111h95v141h-118l23 111h106q18 118 74 211.5t138 158t185 99t216 34.5q42 0 78.5 -3t70.5 -8t66.5 -12.5t65.5 -17.5l-30 -100q-21 13 -50.5 22.5t-63.5 16t-70 9.5t-70 3q-82 0 -153 -34.5t-126.5 -92t-93.5 -132t-53 -154.5h616l-26 -111h-604v-141 h581l-26 -111h-541v-3q15 -80 53 -154.5t93.5 -132t126.5 -92t153 -34.5q34 0 70 3t70 9.5t63.5 16t50.5 22.5l30 -100q-33 -10 -65.5 -17.5t-66.5 -13t-70.5 -8t-78.5 -2.5q-113 0 -216 33t-185 96.5t-138 155.5t-74 210z"/>
            <glyph unicode="&#x2212;" horiz-adv-x="1287" d="M255 502v117h772v-117h-772z"/>
            <glyph unicode="&#x25cc;" horiz-adv-x="1305"
                   d="M213 617q7 -56 27 -105l-98 -56q-33 75 -42 161h113v0zM1188 617q-5 -43 -15.5 -83t-26.5 -77l-99 57q10 24 17 50t11 53h113v0zM912 333q43 33 76 76l98 -56q-25 -34 -54.5 -63t-62.5 -54l-57 97v0zM299 408q17 -22 36 -41.5t40 -36.5l-55 -96q-68 50 -118 118l97 56v0z M377 1020q-21 -17 -40 -35.5t-36 -39.5l-98 56q25 34 54.5 63t63.5 54l56 -98v0zM101 737q9 85 42 160l97 -56q-19 -49 -27 -104h-112v0zM585 1107q-56 -8 -103 -27l-57 98q38 16 78 26.5t82 15.5v-113v0zM705 245q56 8 104 28l56 -97q-38 -17 -78 -27.5t-82 -15.5v112v0z M585 133q-86 9 -161 42l56 96q25 -10 51 -17t54 -10v-111v0zM1075 737q-4 27 -11 52.5t-17 49.5l97 57q34 -77 44 -159h-113v0zM987 943q-17 21 -36 39.5t-40 35.5l56 97q33 -25 62.5 -54t54.5 -62l-97 -56v0zM705 1219q84 -11 158 -44l-56 -96q-24 10 -50 17t-52 11v112v0z "/>
            <glyph unicode="&#x262c;" horiz-adv-x="2123"
                   d="M1228 1621q18 -9 9 -38q-7 -26 -15 -52q189 -26 322 -160q17 -16 33 -35q148 -172 142 -403q-6 -222 -206 -425l-6 -6q-133 -133 -279 -190v-4q7 -28 -26 -66t-67 -42l-14 -2l1 -228l270 168q87 52 154 119q176 176 247 470q95 387 -225 711h-1q-12 12 -4 36t32.5 48.5 t48.5 32.5t36 -4l22 -21q363 -363 346 -703q-14 -272 -359 -796v0q-9 -14 -20 -26q-11 -10 -23 -18q-26 -17 -46 -15q-12 1 -18 9q-15 13 -131 94q-28 -20 -57 -38l-238 -146q177 -114 295 -200l2.5 -2.5l2.5 -2.5q26 -33 36 -53q11 -21 14 -42q6 -54 -47 -106 q-5 -6 -10 -10q-23 -20 -45 -33t-44 -16.5t-35 10.5q-27 27 4 149q-61 50 -154 112l-52 34l1 -130q0 -3 -1 -7q5 -2 8 -8l42 -77q4 -6 3 -16q-2 -35 -11 -62t-23.5 -47t-26.5 -32q-13 -14 -29 -24q-13 -9 -21 -13t-19 -6t-29 -6q-35 -1 -55 19q-27 28 -28 94q0 42 12 77 q10 26 27 49t24 29l-1 217l-177 -119q13 -54 11 -83q0 -18 -5.5 -33.5t-11.5 -24t-13 -16.5t-8 -10q-58 -58 -103 -36q-8 4 -31 22q-1 0 -3 3q-21 20 -19 52t20 68q18 33 48 70q12 15 28 28l2 1l2 2q85 62 198 137l-238 144q-36 22 -70 47l-97 -69q0 -2 -2 -5q-4 -3 -5 -1 q-8 -18 -25.5 -33.5t-34 -19t-22.5 6.5t1 28q-333 508 -347 769q-18 358 377 753l19 19l1 1q25 24 48.5 31.5t35.5 -4.5t4 -36t-32 -48q-289 -292 -198 -669q77 -314 274 -511q79 -80 179 -140l193 -119l-1 193q0 6 2 14l-18 2q-35 4 -68 43q-16 18 -22 34q-152 27 -288 132 q-29 22 -53 46q-140 140 -148 365q-11 298 191 500q24 24 50 46q115 96 257 137q-10 41 -22 81q-9 28 9 37l88 46q42 22 85 21q65 0 83 -23zM1191 1395q-90 -455 15 -982q134 35 244 145l5 5q133 135 137 296q6 208 -131 367q-14 16 -30 32q-103 103 -240 137zM908 421 q103 526 13 979q-146 -25 -245 -108q-16 -13 -29 -26q-130 -130 -122 -366q7 -202 135 -330q23 -22 49 -43q96 -73 199 -106z"/>
            <glyph unicode="&#xe000;" horiz-adv-x="1385" d="M0 1385h1385v-1385h-1385v1385z"/>
            <glyph d="M138.5 1714q6.5 -49 -48.5 -104q-54 -55 -102 -49q-40 4 -46 42q-2 13 -5 16t-14 2q-43 -4 -55 27t5 64q30 60 82 89q23 13 45 16q69 9 100.5 -22.5t38 -80.5zM-102 1393q7 -51 -48 -106t-99 -50t-49 42q-42 322 -388 458q-62 25 -119 33q0 -29 7.5 -76.5t-47.5 -102 t-99 -50.5t-50 41q-32 201 79 307q46 43 94 62q106 42 273 -24q396 -156 446 -534z"/>
            <glyph d="M386 1832q94 -94 -32 -400q-15 -37 -58 -76t-90 -32q-21 3 -35.5 24t3.5 64q85 208 41 252q-29 29 -101 7t-101 -38q8 -43 77 -112q29 -29 16.5 -69.5t-44.5 -72.5t-75 -46t-67 18l-23 24q-166 184 5 350q84 83 246.5 132.5t237.5 -25.5z"/>
            <glyph d="M-193 1545q-37 -86 -108 -178t-136 -77q-15 4 -24 13q-29 45 12 105q63 91 74 148.5t-28.5 97t-140.5 54.5q-69 -6 -128 -9q-2 -83 68 -240q13 -29 -4 -63q-32 -65 -96.5 -98t-86.5 18q-111 247 -61 387q-164 18 -217 97q-176 268 19 463q96 96 254 141q50 15 66 -12 q8 -14 11.5 -26t-7.5 -43q-31 -83 -153 -119q-70 -21 -76 -53q-13 -72 68 -195q40 -61 235 -62q86 29 229 9.5t211 -87.5q94 -95 19 -271zM203 1720q6 -49 -49 -104q-54 -55 -101 -49q-41 4 -46 42q-2 13 -5.5 16t-14.5 2q-42 -4 -54.5 27t4.5 64q31 60 82 89q23 13 45 16 q70 9 101.5 -22.5t37.5 -80.5z"/>
            <glyph d="M8 -813q4 -50 -56 -110t-114 -37q-7 3 -13 9q-12 19 -13 32q-12 150 -108 356q-69 -39 -165 -54t-146 35t-16.5 166t139.5 179q58 34 124.5 39.5t108.5 -15.5l10 43q10 43 42 74q77 78 130 49q31 -17 22 -62q-36 -173 -82 -268q124 -250 137 -436zM-373 -419 q-25 28 -65 25q-1 -19 3 -22l11 -6q19 -4 51 3z"/>
            <glyph d="M-65 -642q39 -60 -36 -135q-27 -27 -58 -40q-273 -115 -397 10q-101 101 -5 261q-76 33 -125 120q-62 108 33.5 232t233.5 145q32 4 72 0q13 43 58 72.5t64 30.5q51 2 61 -32q22 -73 20 -128q-4 -83 -107 -150q-58 -37 -136.5 -8t-118.5 16q-1 -43 38.5 -81.5 t149.5 -44.5q83 20 140 20t72 -5t23 -28t-7 -56q-61 -135 -303 -129l-15 -6q-14 -29 31 -68q69 -61 236 9q43 18 69 0q6 -4 7 -5z"/>
            <glyph d="M-120 -373q-6 -224 -146 -329q-66 -49 -142 -49q-153 0 -245 92t-107 258q-1 9 -1 24.5t6 51.5q8 51 71.5 100.5t116.5 50.5h1q45 0 80 -15t43 -25q40 -50 -40 -130q-29 -29 -62 -42q49 -151 212 -166q23 54 23 122.5t-45 309.5q-10 52 47 109q52 53 98 50q43 -3 49 -39 q41 -214 41 -351v-22z"/>
            <glyph horiz-adv-x="1338"
                   d="M1503 1283q11 -52 -42.5 -105.5t-102.5 -53.5h-179q95 -1175 -278 -2027q-207 -472 -535 -800l-129 -125q-198 -192 -490 -370q-40 -25 -64 -20q-50 8 -47 49q5 79 86 128q227 139 380.5 278.5t234.5 234.5q166 194 283 405q385 690 381 1708q-118 -22 -211 -27 q17 -200 -56 -305q-155 -224 -505 -138q-104 25 -158 79q-144 144 -19 494q44 123 105 146q47 18 86 -40l7 -25q-2 7 -2 0q-1 -21 -21 -73q-124 -317 111 -383q163 -47 250 -13q22 88 -12 274q-45 12 -34 67l14 63q15 70 96.5 115.5t96.5 -19.5l9 -43q93 -11 239 11 q-6 174 -24 356h-1052q-44 6 -50 38q-10 52 43.5 105.5t101.5 53.5h1438q43 -6 49 -38z"/>
            <glyph d="M240 1690q6 -49 -49 -104q-54 -55 -101 -49q-41 4 -46 42q-2 13 -5.5 16t-14.5 2q-42 -4 -54.5 27t4.5 64q31 60 82 89q23 13 45 16q70 9 101.5 -22.5t37.5 -80.5zM-130 1412q12 -62 -63.5 -123.5t-117.5 -22.5q-234 218 -404 229q-75 4 -125 -29q4 -24 21 -50t-0.5 -67 t-62 -78t-76.5 -32t-43 22q-93 148 54 299q15 16 41 36q209 160 453 57q-136 218 -376 192q2 -22 9 -53q13 -53 -42.5 -108.5t-99.5 -53t-52 36.5q-27 118 -1 183q66 157 216 184q275 49 438.5 -114.5t230.5 -507.5z"/>
            <glyph d="M224.5 1690q6.5 -49 -48.5 -104q-54 -55 -102 -49q-40 4 -46 42q-2 13 -5 16t-14 2q-43 -4 -55 27t5 64q30 60 82 89q23 13 45 16q69 9 100.5 -22.5t38 -80.5zM-175.5 1803q89.5 -218 -126.5 -434q-59 -59 -110 -49q-15 2 -25 13q-39 60 39.5 138.5t32.5 190.5 q-56 139 -371 50q-224 -62 -325 39q-83 83 -72 278t101 286q107 106 223 42q47 -26 11 -90.5t-93 -89.5q-23 -10 -41 -11q-21 -184 39 -244t204 -19q424 118 513.5 -100z"/>
            <glyph horiz-adv-x="481"
                   d="M746.5 1599q6.5 -49 -48.5 -104q-54 -55 -102 -49q-40 4 -46 42q-2 13 -5 16t-14 2q-43 -4 -55 27t5 64q30 60 82 89q23 13 45 16q69 9 100.5 -22.5t38 -80.5zM769 1285q11 -52 -42.5 -105.5t-107.5 -54.5l-236 -1q63 -336 66 -804q6 -1178 -803 -1987 q-262 -262 -592 -474q-67 -42 -101 -8q-13 19 -15 50.5t50 84.5q16 15 34 27q298 191 540 433q342 342 517 794t172.5 982t-42.5 902q-289 -1 -308 0q-56 6 -53.5 55.5t52.5 100t104 44.5q17 -1 180 -2q-70 463 -213 606q-81 80 -173 47q-11 -4 -14 -12q-51 -114 30 -419 q15 -52 -45 -112t-113 -49q-27 5 -35 33q-127 470 65 652l29 26q70 66 196.5 86t229.5 -83q179 -180 254 -775l324 1q44 -7 50 -38z"/>
            <glyph d="M193 -1282q17 -27 1 -63q-38 -85 -113 -107q-51 -16 -70 18q-262 440 -731 457q-41 2 -47 37q-9 55 44.5 108.5t102.5 52.5q525 -15 813 -503zM-65 -642q39 -60 -36 -135q-27 -27 -58 -40q-273 -115 -397 10q-101 101 -5 261q-76 33 -125 120q-62 108 33.5 232t233.5 145 q32 4 72 0q13 43 58 72.5t64 30.5q51 2 61 -32q22 -73 20 -128q-4 -83 -107 -150q-58 -37 -136.5 -8t-118.5 16q-1 -43 38.5 -81.5t149.5 -44.5q83 20 140 20t72 -5t23 -28t-7 -56q-61 -135 -303 -129l-15 -6q-14 -29 31 -68q69 -61 236 9q43 18 69 0q6 -4 7 -5z"/>
            <glyph d="M207 -1205q17 -27 1 -63q-38 -85 -113 -107q-51 -16 -70 18q-262 440 -731 457q-41 2 -47 37q-9 55 44.5 108.5t102.5 52.5q525 -15 813 -503zM-120 -373q-6 -224 -146 -329q-66 -49 -142 -49q-153 0 -245 92t-107 258q-1 9 -1 24.5t6 51.5q8 51 71.5 100.5t116.5 50.5h1 q45 0 80 -15t43 -25q40 -50 -40 -130q-29 -29 -62 -42q49 -151 212 -166q23 54 23 122.5t-45 309.5q-10 52 47 109q52 53 98 50q43 -3 49 -39q41 -214 41 -351v-22z"/>
            <glyph d="M-160 -779q37 -61 -37 -134q-33 -32 -68 -44l-327 -105q-165 -53 -378 52q-44 22 -16 86t92 94q42 20 70 6q169 -83 270 -50l327 105q47 11 67 -10zM-27 -797q4 -50 -56 -110t-114 -37q-8 3 -13 9q-13 19 -14 32q-11 150 -107 356q-69 -39 -165 -54t-146 35t-17 166 t140 179q57 34 124 39.5t109 -15.5l10 43q10 43 41 74q78 78 131 49q31 -17 21 -62q-36 -173 -81 -268q123 -250 137 -436zM-408 -403q-25 28 -66 25q-1 -19 4 -22l10 -6q20 -4 52 3z"/>
            <glyph d="M12 -658q39 -60 -37 -135q-26 -27 -57 -40q-273 -115 -397 10q-102 101 -6 261q-75 33 -124 120q-62 108 33.5 232t232.5 145q33 4 72 0q14 43 58.5 72.5t63.5 30.5q51 2 62 -32q22 -73 19 -128q-4 -83 -107 -150q-58 -37 -136 -8t-118 16q-1 -43 38 -81.5t150 -44.5 q83 20 140 20t71.5 -5t23 -28t-6.5 -56q-61 -135 -303 -129l-15 -6q-14 -29 30 -68q70 -61 236 9q43 18 70 0q5 -4 7 -5zM-112 -817q37 -61 -37 -134q-33 -32 -68 -44l-327 -105q-165 -53 -378 52q-44 22 -16 86t92 94q42 20 70 6q169 -83 270 -50l327 105q47 11 67 -10z "/>
            <glyph d="M-115 -421q-6 -224 -146 -329q-66 -49 -143 -49q-152 0 -244 92t-108 258q-1 9 -1 24.5t6 51.5q9 51 72 100.5t116 50.5h2q45 0 80 -15t42 -25q41 -50 -40 -130q-28 -29 -62 -42q49 -151 212 -166q23 54 23 122.5t-45 309.5q-10 52 48 109q52 53 97 50q43 -3 50 -39 q41 -214 41 -351v-22zM-112 -807q37 -61 -37 -134q-33 -32 -68 -44l-327 -105q-165 -53 -378 52q-44 22 -16 86t92 94q42 20 70 6q169 -83 270 -50l327 105q47 11 67 -10z"/>
            <glyph d="M99 -1249q16 -28 0 -64q-37 -84 -112 -107q-51 -15 -71 18q-261 441 -730 458q-42 1 -48 37q-9 54 44.5 107.5t102.5 52.5q525 -15 814 -502zM-96 -749q4 -50 -56 -110t-114 -37q-7 3 -13 9q-12 19 -13 32q-12 150 -108 356q-69 -39 -165 -54t-146 35t-16.5 166 t139.5 179q58 34 124.5 39.5t108.5 -15.5l10 43q10 43 42 74q77 78 130 49q31 -17 22 -62q-36 -173 -82 -268q124 -250 137 -436zM-477 -355q-25 28 -65 25q-1 -19 3 -22l11 -6q19 -4 51 3z"/>
            <glyph d="M-65 -642q39 -60 -36 -135q-27 -27 -58 -40q-273 -115 -397 10q-101 101 -5 261q-76 33 -125 120q-62 108 33.5 232t233.5 145q32 4 72 0q13 43 58 72.5t64 30.5q51 2 61 -32q22 -73 20 -128q-4 -83 -107 -150q-58 -37 -136.5 -8t-118.5 16q-1 -43 38.5 -81.5 t149.5 -44.5q83 20 140 20t72 -5t23 -28t-7 -56q-61 -135 -303 -129l-15 -6q-14 -29 31 -68q69 -61 236 9q43 18 69 0q6 -4 7 -5zM-173 -1168q30 -66 -46 -135q-34 -31 -69 -41l-441 -114q-335 -86 -426 68q-16 27 0 63q38 85 113 107q51 16 70 -18q54 -91 294 -28l441 114 q52 7 64 -16zM-103.5 -885.5q-18.5 -44.5 -53.5 -73.5t-66 -37l-393 -96q-255 -62 -367 74q-31 66 42 135q51 48 86 46.5t44 -13.5q76 -92 249 -50l393 96q41 6 62.5 -15.5t3 -66z"/>
            <glyph d="M-120 -373q-6 -224 -146 -329q-66 -49 -142 -49q-153 0 -245 92t-107 258q-1 9 -1 24.5t6 51.5q8 51 71.5 100.5t116.5 50.5h1q45 0 80 -15t43 -25q40 -50 -40 -130q-29 -29 -62 -42q49 -151 212 -166q23 54 23 122.5t-45 309.5q-10 52 47 109q52 53 98 50q43 -3 49 -39 q41 -214 41 -351v-22zM-173 -1168q30 -66 -46 -135q-34 -31 -69 -41l-441 -114q-335 -86 -426 68q-16 27 0 63q38 85 113 107q51 16 70 -18q54 -91 294 -28l441 114q52 7 64 -16zM-103.5 -885.5q-18.5 -44.5 -53.5 -73.5t-66 -37l-393 -96q-255 -62 -367 74q-31 66 42 135 q51 48 86 46.5t44 -13.5q76 -92 249 -50l393 96q41 6 62.5 -15.5t3 -66z"/>
            <glyph d="M8 -813q4 -50 -56 -110t-114 -37q-7 3 -13 9q-12 19 -13 32q-12 150 -108 356q-69 -39 -165 -54t-146 35t-16.5 166t139.5 179q58 34 124.5 39.5t108.5 -15.5l10 43q10 43 42 74q77 78 130 49q31 -17 22 -62q-36 -173 -82 -268q124 -250 137 -436zM-373 -419 q-25 28 -65 25q-1 -19 3 -22l11 -6q19 -4 51 3zM-138 -1316q30 -65 -46 -135q-34 -31 -69 -40l-441 -114q-335 -87 -426 67q-16 28 0 64q38 84 113 107q51 15 70 -18q54 -91 294 -29l441 114q52 8 64 -16zM-68.5 -1033.5q-18.5 -44.5 -53.5 -73.5t-66 -36l-393 -96 q-255 -63 -367 74q-31 65 42 135q51 47 86 45.5t44 -12.5q76 -93 249 -51l393 96q41 6 62.5 -15.5t3 -66z"/>
            <glyph horiz-adv-x="1491"
                   d="M1767.5 1585q6.5 -49 -48.5 -104q-54 -55 -102 -49q-40 4 -46 42q-2 13 -5 16t-14 2q-43 -4 -55 27t5 64q30 60 82 89q23 13 45 16q69 9 100.5 -22.5t38 -80.5zM1653 1283q11 -52 -42.5 -105.5t-102.5 -53.5h-83q-39 -205 -205 -361q63 -63 48 -185q-52 -409 -303 -584 q-301 -210 -604 93q-178 178 -248 462l-21 89q-6 28 -7 45q-39 245 -19 441h-186q-43 6 -49 38q-11 52 42.5 105.5t102.5 53.5h125q70 279 240 450q110 110 251 167q358 146 613 -75q177 -154 194 -542h205q43 -6 49 -38zM1230 1035q12 23 -4 39q-49 50 -254 50h-715 q-6 -143 19 -297q331 17 586 9l238 7q37 17 130 192zM1072 502q15 117 -121 128l-182 9l-247 -6l-203 -4q83 -286 290.5 -441t333.5 -29q98 98 129 343zM280 1321h914q-31 260 -155 368q-203 177 -467 69q-78 -32 -131 -86q-114 -113 -161 -351zM1039 -618q30 -66 -46 -135 q-34 -31 -69 -41l-441 -114q-335 -86 -426 68q-16 27 0 63q38 85 113 107q51 16 70 -18q54 -91 294 -28l441 114q52 7 64 -16zM1108.5 -335.5q-18.5 -44.5 -53.5 -73.5t-66 -37l-393 -96q-255 -62 -367 74q-31 66 42 135q51 48 86 46.5t44 -13.5q76 -92 249 -50l393 96 q41 6 62.5 -15.5t3 -66z"/>
            <glyph horiz-adv-x="1493"
                   d="M1688 1563.5q6 -49.5 -49 -104.5q-54 -54 -101 -49q-41 5 -46 42q-2 13 -5.5 16.5t-14.5 2.5q-42 -4 -54.5 26.5t4.5 64.5q31 59 82 89q23 13 45 16q70 9 101.5 -22.5t37.5 -81zM1670 1283q11 -52 -42.5 -105.5t-102.5 -53.5h-120q-5 -18 -14 -37q-97 -210 -198 -316 q142 -116 24 -390q-99 -227 -219 -348q-159 -159 -316 -138q-323 44 -502 526q-40 108 -53.5 158t-23 67.5t-2.5 44.5q-47 222 -30 433h-191q-43 6 -49 38q-11 52 42.5 105.5t102.5 53.5h125l13 51q51 196 194 338.5t331 234.5q244 120 692 73q64 -7 85 -38q50 -73 -7 -176 q-33 -61 -58 -78q-84 -61 -117 -28t2 103q6 12 5 14q-6 5 -20 6q-399 42 -584 -48q-135 -66 -218 -149.5t-115 -201.5q-13 -50 -22 -101h1339q43 -6 49 -38zM1214 1076q-25 48 -255 48h-695q-2 -148 30 -303l488 16l299 20q40 17 133 219zM1035 360q91 210 -59 265 q-44 17 -301 14l-328 -16q162 -493 441 -530q63 -9 120.5 48.5t126.5 218.5z"/>
            <glyph horiz-adv-x="1491"
                   d="M1739.5 1593q6.5 -49 -48.5 -104q-54 -55 -102 -49q-40 4 -46 42q-2 13 -5 16t-14 2q-43 -4 -55 27t5 64q30 60 82 89q23 13 45 16q69 9 100.5 -22.5t38 -80.5zM1653 1283q11 -52 -42.5 -105.5t-102.5 -53.5h-83q-39 -205 -205 -361q63 -63 48 -185q-52 -409 -303 -584 q-301 -210 -604 93q-178 178 -248 462l-21 89q-6 28 -7 45q-39 245 -19 441h-186q-43 6 -49 38q-11 52 42.5 105.5t102.5 53.5h125q70 279 240 450q110 110 251 167q358 146 613 -75q177 -154 194 -542h205q43 -6 49 -38zM1230 1035q12 23 -4 39q-49 50 -254 50h-715 q-6 -143 19 -297q331 17 586 9l238 7q37 17 130 192zM1072 502q15 117 -121 128l-182 9l-247 -6l-203 -4q83 -286 290.5 -441t333.5 -29q98 98 129 343zM280 1321h914q-31 260 -155 368q-203 177 -467 69q-78 -32 -131 -86q-114 -113 -161 -351zM1112 -183q37 -61 -37 -135 q-33 -32 -68 -43l-327 -105q-165 -53 -378 51q-44 22 -16 86t92 95q42 20 70 6q169 -83 270 -51l327 105q47 11 67 -9z"/>
            <glyph horiz-adv-x="2274"
                   d="M2582 2066q-47 -269 -189 -410l-42 -38q-16 -14 -32 -25l-31 -21q-132 -84 -316 -62q-370 44 -386 391q-2 49 51.5 102.5t104.5 46.5q39 -6 41 -47q12 -263 301 -297q144 -17 206.5 45.5t96.5 246.5q8 44 40 76q78 77 131 51q31 -16 24 -59zM2426 1284q11 -52 -43 -106 t-102 -54h-484q-43 7 -50 38q-10 52 43.5 106t102.5 54h484q43 -7 49 -38zM1670 1283q11 -52 -42.5 -105.5t-102.5 -53.5h-120q-5 -18 -14 -37q-97 -210 -198 -316q142 -116 24 -390q-99 -227 -219 -348q-159 -159 -316 -138q-323 44 -502 526q-40 108 -53.5 158t-23 67.5 t-2.5 44.5q-47 222 -30 433h-191q-43 6 -49 38q-11 52 42.5 105.5t102.5 53.5h125l13 51q51 196 194 338.5t331 234.5q244 120 692 73q64 -7 85 -38q50 -73 -7 -176q-33 -61 -58 -78q-84 -61 -117 -28t2 103q6 12 5 14q-6 5 -20 6q-399 42 -584 -48q-135 -66 -218 -149.5 t-115 -201.5q-13 -50 -22 -101h1339q43 -6 49 -38zM1214 1076q-25 48 -255 48h-695q-2 -148 30 -303l488 16l299 20q40 17 133 219zM1035 360q91 210 -59 265q-44 17 -301 14l-328 -16q162 -493 441 -530q63 -9 120.5 48.5t126.5 218.5zM1917 1283q10 -52 -43.5 -105.5 t-101.5 -53.5h-234q-44 6 -50 38q-10 52 43.5 105.5t101.5 53.5h234q43 -6 50 -38z"/>
            <glyph horiz-adv-x="1331"
                   d="M127.5 5q6.5 -49 -48 -104t-98.5 -50t-50 43q-2 13 -5 16t-14 2q-42 -4 -54.5 27t11 77.5t75.5 75.5q23 13 45 16q69 9 100.5 -22.5t38 -80.5zM1469 1282q11 -52 -42.5 -105.5t-102.5 -53.5h-157q-15 -338 -129 -583q166 -327 183 -432q9 -52 -46 -107t-99 -51t-50 40 q-13 78 -138 330l-16 -16q-201 -182 -330 -211q-314 -71 -426 130t-13 402t351 272q194 54 382 -83q46 -34 91 -92l23 104q21 107 22 297h-1058q-44 6 -50 38q-10 52 43.5 105.5t101.5 53.5h1411q43 -6 49 -38zM820 454q-72 129 -144 181q-145 106 -260.5 74t-137.5 -76 q-3 -6 -6 -17q-41 -119 26 -240q80 -142 301 -91q62 15 195 138q11 10 26 31z"/>
            <glyph horiz-adv-x="1595"
                   d="M139.5 -36q6.5 -49 -48.5 -104t-98.5 -50t-49.5 43q-2 13 -5.5 16t-14.5 2q-42 -4 -54.5 27t11.5 77.5t75 75.5q23 13 45 16q70 9 101.5 -22.5t38 -80.5zM1750 1281q6 -51 -51 -108.5t-114 -44.5q-14 3 -101 5l31 -235q2 -9 9 -155q23 -500 -35 -843t-172 -625 q-223 -551 -683 -1011q-99 -99 -253 -216.5t-286 -199.5q-39 -25 -65 -21q-46 6 -48 51.5t50 96.5q16 16 99.5 68.5t211 153.5t197.5 171q233 233 379 459q395 612 413 1479q-95 -95 -230 -156q-341 -154 -446 159q-108 -136 -239 -167q-214 -51 -315 51q-179 178 67 846 q7 18 -9 34q-50 49 -271 52q-42 1 -49 36q-11 54 42.5 108t102.5 54q463 0 368 -256q-213 -574 -81 -705q60 -60 202 -27q63 14 141 200q-20 266 39 670q12 84 104 126q67 30 87 -16q3 -7 4 -16q61 -440 -24 -669l-9 -25q19 -195 91 -267t205 -11q79 35 134 91q78 77 80 222 q1 88 -23 265l-37 271q-10 71 79 132q43 30 78 24q244 -1 275 -7.5t40.5 -17.5t11.5 -26z"/>
            <glyph horiz-adv-x="1315"
                   d="M154.5 21q6.5 -49 -48 -104t-98.5 -50t-50 43q-2 13 -5 16t-14 2q-42 -4 -54.5 27t11 77.5t75.5 75.5q23 13 45 16q69 9 100.5 -22.5t38 -80.5zM1474 1289q11 -52 -42.5 -105.5t-102.5 -53.5h-117q7 -173 -132 -294q125 -183 102 -341q-35 -239 -180 -384 q-121 -122 -292 -154q-405 -77 -513 232q-30 85 40 378q-215 -14 -263 41q-80 93 79 252q49 49 124 104q220 163 298 84q54 -53 7 -224l-12 -44q245 39 498 154q34 16 41 36q19 55 -13 160h-1084q-44 6 -50 38q-10 52 43.5 105.5t101.5 53.5h1418q43 -6 49 -38zM308 874 q-21 -6 -71 -43t-77 -61q35 -11 128 -8q22 76 20 112zM987 423q17 116 -104 280q-6 8 -8 19q-231 -95 -454 -133q-50 -216 -29 -276q77 -220 383 -162q86 16 128 59q62 61 84 213z"/>
            <glyph horiz-adv-x="1352"
                   d="M44.5 -184.5q6.5 -49.5 -48.5 -104t-98.5 -49.5t-49.5 42q-2 13 -5.5 16.5t-14.5 2.5q-42 -4 -54.5 26.5t11.5 77t75 76.5q23 13 45 16q70 9 101.5 -22.5t38 -81zM1509 1284q10 -52 -43.5 -105.5t-101.5 -53.5h-155q-30 -134 -105 -208l-56 -51q-27 -24 -106.5 -54 t-206.5 -7q-329 59 -447 3q-6 -3 -10 -6q-3 -13 -4 -40q-5 -114 26.5 -146t106.5 2q148 68 387 90q423 38 411 -303q-5 -151 -141.5 -287.5t-384 -226.5t-563.5 55q-116 53 -104 270q5 104 138 213q-82 60 -74 244q5 116 76 198l43 46q34 34 95 63q184 88 537 25 q149 -26 169.5 4.5t29.5 115.5l-1130 -1q-44 6 -50 38q-10 52 43.5 105.5t101.5 53.5l1468 1q44 -6 50 -38zM603 228q-29 96 -75 141q-79 79 -222 -6q-76 -44 -98 -70q-5 -134 51 -159q139 -64 257 -76q69 60 83 98t4 72zM1009 334q6 192 -287 177q45 -58 68 -136 q40 -131 -39 -255l-25 -38q163 60 221.5 118.5t61.5 133.5z"/>
            <glyph horiz-adv-x="1238"
                   d="M158.5 -116q6.5 -49 -48.5 -104t-98.5 -50t-49.5 43q-2 13 -5.5 16t-14.5 2q-42 -4 -54.5 27t11.5 77.5t75 75.5q23 13 45 16q70 9 101.5 -22.5t38 -80.5zM1404 1284q11 -52 -42.5 -106t-102.5 -54h-199q-48 -172 -192 -266l40 -71q143 -263 -26 -478q-55 -70 -105 -123 q53 -94 67 -138q46 -153 -98 -242q-59 -36 -86 -0.5t-3 85.5q-5 44 -60 139q-242 -158 -406 6q-70 69 -97 148q-44 130 79 253q56 56 139 90q186 76 326 -124l63 -93q53 60 63 87q37 97 -40 240l-52 92q-396 -240 -516 -120q-34 34 -17 77t54.5 78t72.5 38t42.5 -4t10.5 -12 q46 -61 273 68q-169 242 -313 270h-62q-27 -5 -48 -20q-80 -59 -118 -21q-15 15 -13 41h-160q-44 7 -50 38q-10 52 43.5 106t101.5 54h324q14 2 29 2l56 -2h973q43 -7 49 -38zM516 160l-58 85q-92 131 -158 105q-12 -5 -21 -10q8 -61 93 -146q61 -61 144 -34zM684 1124 q55 -62 108 -143l42 30q38 27 43 113h-193z"/>
            <glyph horiz-adv-x="1345"
                   d="M100.5 -15.5q6.5 -49.5 -48.5 -104t-98.5 -49.5t-49.5 42q-2 13 -5.5 16.5t-14.5 2.5q-42 -4 -54.5 26.5t11.5 77t75 76.5q23 13 45 16q70 9 101.5 -22.5t38 -81zM1497 1286q11 -51 -43 -105q-53 -53 -102 -54h-180q-35 -102 -109 -176q-148 -148 -429 -122 q-107 10 -189 6q-53 -42 -89 -28q-16 6 -29 12q-77 -20 -92 -53q-5 -12 -8 -27q-32 -133 23 -187.5t204 -39.5q167 70 485 121q40 6 56.5 -21.5t-6.5 -71.5t-45.5 -66.5t-82 -48.5t-230.5 -62t-222 -44q-25 -12 -34 -19q-34 -119 24 -177.5t205 -64.5q190 -8 430 162 q71 51 106 16t-3 -99q-22 -36 -56 -60q-319 -226 -578 -216q-192 8 -276 92q-103 103 -38 314q8 27 23 52q-253 46 -178 364q34 144 156 236q-69 82 -89 208h-214q-43 7 -49 38q-11 52 42.5 106t102.5 54h1465q43 -7 49 -39zM989 1112q-13 13 -40 15h-249h-365 q37 -66 104 -105q121 20 301.5 3.5t223.5 24.5q2 1 15 25.5t10 36.5z"/>
            <glyph horiz-adv-x="1222"
                   d="M62.5 -101.5q6.5 -49.5 -48 -104t-98.5 -49.5t-50 42q-2 13 -5 16.5t-14 2.5q-42 -4 -54.5 26.5t11 77t75.5 76.5q23 13 45 16q69 9 100.5 -22.5t38 -81zM1382 1285q10 -52 -43.5 -106t-102.5 -54h-170q-6 -120 -131 -207q-89 -62 -260 -69q-303 -11 -414 -145 q-151 -185 -30 -384q57 -94 136 -137q221 -118 641 233q49 41 84 37t47 -29.5t-6.5 -64.5t-52.5 -67q-409 -343 -694 -337q-212 5 -338 211q-175 288 87 606q212 259 630 275q64 2 102 11q-6 27 -28 67h-945q-44 7 -50 38q-10 52 43.5 106t101.5 54h1343q43 -7 50 -38z"/>
            <glyph horiz-adv-x="1361"
                   d="M130.5 -41.5q6.5 -49.5 -48 -104t-98.5 -49.5t-50 42q-2 13 -5 16.5t-14 2.5q-42 -4 -54.5 26.5t11 77t75.5 76.5q23 13 45 16q69 9 100.5 -22.5t38 -81zM1547 1283q10 -52 -43.5 -105.5t-102.5 -53.5h-640q-16 -141 -80 -233q76 2 188.5 -22.5t191.5 -103t112 -172.5 q99 -275 -94 -468q-103 -103 -279 -153q-627 -180 -664 381q-15 220 187 422q85 85 212 160q33 59 35 189h-690q-43 6 -49 38q-11 52 42.5 105.5t102.5 53.5h1521q43 -6 50 -38zM983 227q60 61 0 230q-27 74 -89.5 136.5t-206 93.5t-227.5 -33q-44 -34 -82 -31 q-51 -77 -45 -172q11 -170 93 -252q123 -123 419 -38q100 29 138 66z"/>
            <glyph horiz-adv-x="1316"
                   d="M21.5 -91q6.5 -49 -48 -104t-98.5 -50t-50 43q-2 13 -5 16t-14 2q-42 -4 -54.5 27t11 77.5t75.5 75.5q23 13 45 16q69 9 100.5 -22.5t38 -80.5zM1459 1282q10 -52 -43.5 -105.5t-101.5 -53.5h-949q-4 -67 -24 -133q511 187 716 -17q218 -219 -52 -687q-15 -28 -33 -53 q88 -94 149 -207q15 -28 -1 -64q-32 -70 -96 -99.5t-87 13.5q-52 96 -125 176q-193 -162 -457 -165q-165 -1 -235 68.5t-16 219.5q28 76 75.5 146.5t81.5 99.5l16 15q215 193 584 -101q189 349 2 489t-678 -70q-57 -24 -81 9.5t7 88.5q73 128 55 271h-266q-44 6 -50 38 q-10 52 43.5 105.5t101.5 53.5h1414q44 -6 50 -38zM764 156q-87 77 -204 141.5t-196 50.5q-33 -6 -48 -29q-112 -165 -51 -226q45 -45 175 -44q201 2 324 107z"/>
            <glyph horiz-adv-x="1498"
                   d="M80.5 -90q6.5 -49 -48.5 -104t-98.5 -50t-49.5 43q-2 13 -5.5 16t-14.5 2q-42 -4 -54.5 27t11.5 77.5t75 75.5q23 13 45 16q70 9 101.5 -22.5t38 -80.5zM1633 1283q11 -52 -42.5 -105.5t-102.5 -53.5h-406q4 -31 4 -66q135 -52 356 -103q40 -9 37 -43q-8 -87 -90 -135 q-40 -23 -71 -16q-149 34 -262 70q-41 -196 -112.5 -245.5t-109.5 -19.5q-232 192 -406 144q-97 -27 -139 -88q-94 -137 -5 -298q125 -225 530 -192.5t483 207.5q18 39 46.5 62t39.5 28q70 34 95 -8q16 -27 -3 -70q-44 -97 -124 -178q-206 -206 -609 -237q-514 -41 -643 239 q-166 361 192 632q281 211 596 15q4 27 1 71q-176 78 -193 172q-7 32 -10 59h-763q-43 6 -49 38q-11 52 42.5 105.5t102.5 53.5h723q115 124 246 0h597q43 -6 49 -38z"/>
            <glyph horiz-adv-x="1325"
                   d="M137.5 -94.5q6.5 -49.5 -48.5 -104t-98.5 -49.5t-49.5 42q-2 13 -5.5 16.5t-14.5 2.5q-42 -4 -54.5 26.5t11.5 77t75 76.5q23 13 45 16q70 9 101.5 -22.5t38 -81zM1495 1285q10 -52 -43.5 -105.5t-102.5 -53.5h-253q-29 -139 -185 -253q359 -98 351 -340 q-4 -119 -96 -264q-52 -82 -117 -147q-222 -222 -528.5 -193t-520.5 339q-18 26 -1.5 65.5t59.5 79t90 32.5q21 -4 32 -20q190 -275 441 -299q214 -20 329 95q32 32 61 77q104 166 -2 272t-436 151q-34 5 -40 34q-11 61 54 121q28 25 60 36q179 62 239 123q31 31 11 91h-993 q-43 6 -50 38q-10 52 43.5 105.5t102.5 53.5h987q41 17 67 0h391q43 -6 50 -38z"/>
            <glyph horiz-adv-x="1246"
                   d="M97.5 -65.5q6.5 -49.5 -48 -104t-98.5 -49.5t-50 42q-2 13 -5 16.5t-14 2.5q-42 -4 -54.5 26.5t11 77t75.5 76.5q23 13 45 16q69 9 100.5 -22.5t38 -81zM1405 1293q11 -52 -42.5 -106t-102.5 -54h-217q3 -23 20 -180q176 -1651 -812 -2639q-263 -263 -607 -476 q-39 -24 -64 -20q-50 8 -48 48q4 79 86 129q1243 770 1275 2288l-16 -17q-126 -126 -312 -152q-474 -68 -479 140q-2 56 33 134q71 153 91 301q-4 21 5 46q16 196 -59 386q-297 1 -313 22q-31 41 8 101q23 36 60 60.5t80.5 21.5t294.5 -8q35 -1 47 -27q93 -217 80 -447 q120 -6 453 1q-11 155 -46 324q-10 51 45.5 106.5t110.5 55.5h380q43 -7 49 -38zM869 650q-327 -8 -486 -5q-30 -123 -88 -250q-22 -46 1 -69q58 -58 341 -17q99 15 142 57q76 77 90 284z"/>
            <glyph horiz-adv-x="1442"
                   d="M252.5 23.5q6.5 -49.5 -48 -104t-98.5 -49.5t-50 42q-2 13 -5 16.5t-14 2.5q-42 -4 -54.5 26.5t11 77t75.5 76.5q23 13 45 16q69 9 100.5 -22.5t38 -81zM1560 1286q11 -52 -42.5 -106t-102.5 -54h-163q-34 -160 -182 -307q-95 -95 -275 -158l-265 -90q-38 -185 33 -295 q46 108 189 231t364 112q149 -7 219.5 -125t4.5 -257.5t-221 -230.5t-289 -76q-330 36 -415 147q-139 183 -71 466q-93 -3 -176 15.5t-120 54.5q-124 124 113 338q103 93 197.5 123.5t143.5 -19.5q80 -80 65 -293l295 95q72 22 131.5 81.5t73.5 187.5h-1173q-43 7 -50 38 q-10 52 43.5 106t102.5 54h1521q43 -7 49 -38zM372 740q-2 119 -39 144q-21 14 -102 -59q-19 -16 -27 -27q37 -51 168 -58zM1163 227q26 87 -37 149q-43 43 -113 46q-130 6 -179 -31q-76 -56 -83 -72q-30 -88 59 -174q58 -11 131.5 -19t165.5 46q48 28 56 55z"/>
            <glyph horiz-adv-x="1445"
                   d="M268.5 75.5q6.5 -49.5 -48.5 -104t-98.5 -49.5t-49.5 42q-2 13 -5.5 16.5t-14.5 2.5q-42 -4 -54.5 26.5t11.5 77t75 76.5q23 13 45 16q70 9 101.5 -22.5t38 -81zM1625 1283q11 -52 -42.5 -105.5t-102.5 -53.5h-179q10 -222 -134 -366q-67 -68 -160 -104t-432 -72 q-63 -226 26.5 -315.5t288 -77t263.5 38.5q41 50 76 57q75 14 84 -32q5 -23 -11 -61q-55 -128 -262 -172q-86 -18 -223 -26q-266 -18 -382 98q-143 143 -41 476q-227 -9 -290 53.5t-1 172.5q97 174 214 243q143 84 244 -17q81 -81 61 -245q341 35 392.5 55t64.5 42 q43 77 15 252h-1214q-43 6 -49 38q-11 52 42.5 105.5t102.5 53.5h1253h6h341q43 -6 49 -38zM429 763q-4 67 -42 92.5t-46 21.5q-25 -12 -67 -86q29 -28 155 -28z"/>
            <glyph horiz-adv-x="1293"
                   d="M131.5 -146q6.5 -49 -48 -104t-98.5 -50t-50 43q-2 13 -5 16t-14 2q-42 -4 -54.5 27t11 77.5t75.5 75.5q23 13 45 16q69 9 100.5 -22.5t38 -80.5zM1533 1282q11 -51 -43 -105t-102 -54l-575 1q-19 -54 -54 -112q150 -20 254 -124t141 -344q185 -1204 -772 -2192l-75 -76 l-98 -93q-180 -166 -396 -325q-73 -53 -108 -18t0 96q21 36 55 62q496 367 788 766q550 752 410 1664q-32 207 -120.5 296t-230.5 95l-31 -31l-146 -139q-223 -222 -80 -457q39 -63 153 22q66 49 88 49q53 0 62 -33q18 -69 -100 -157t-225.5 -103.5t-158.5 66.5 q-138 227 -13 475q79 157 248 307q72 64 122 120l27 32q68 85 83 154l-748 1q-43 7 -49 39q-11 51 42.5 105t102.5 54l1500 -2q43 -7 49 -39z"/>
            <glyph horiz-adv-x="1238"
                   d="M87.5 -63q6.5 -49 -48 -104t-98.5 -50t-50 43q-2 13 -5 16t-14 2q-42 -4 -54.5 27t11 77.5t75.5 75.5q23 13 45 16q69 9 100.5 -22.5t38 -80.5zM1393 1286q11 -52 -42.5 -105.5t-102.5 -54.5q-130 0 -200 -17q2 -15 3 -35l20 -259q59 -803 -146 -1427 q-327 -993 -1310 -1584q-40 -24 -64 -19q-49 10 -46 51q6 79 88 128q806 484 1106 1267q180 470 190 1040q-100 -106 -246 -162q-567 -219 -580 110q-4 113 84 307q155 339 14 557q-27 40 -282 43q-42 1 -49 35q-11 55 43 108.5t102 53.5q308 0 366 -84q179 -258 -16 -701 q-124 -281 -5 -314q102 -28 349 67q70 28 110 67q115 115 95 352q-1 3 -4 92t-16.5 164.5t-3.5 126.5q17 80 128 156.5t366 74.5q42 -1 49 -38z"/>
            <glyph horiz-adv-x="1238"
                   d="M239.5 -26q6.5 -49 -48.5 -104t-98.5 -50t-49.5 43q-2 13 -5.5 16t-14.5 2q-42 -4 -54.5 27t11.5 77.5t75 75.5q23 13 45 16q70 9 101.5 -22.5t38 -80.5zM897 958l-14 166h-349q-116 -11 -138 -55q-13 -24 -18 -63q-12 -91 26.5 -129.5t159.5 -9.5l59 14q121 47 274 77z M1408 1283q11 -52 -42.5 -105.5t-102.5 -53.5h-173q157 -1857 -827 -2841q-280 -281 -648 -485q-61 -33 -92 -2q-38 60 36 135q20 19 43 32q381 211 662 527q234 264 396 639q214 494 248 1160q-72 -64 -171 -110q-187 -86 -398 -36q-145 35 -107 304q18 124 83 219 q-162 38 -132 266q14 106 75 192h-378q-43 6 -49 38q-11 52 42.5 105.5t102.5 53.5h1383q43 -6 49 -38zM903 771l-319 -78q-104 -41 -125 -73t-31 -101q-24 -168 37 -182q159 -38 280 18q60 28 87 54q70 70 71 362z"/>
            <glyph horiz-adv-x="1212"
                   d="M113.5 -127.5q6.5 -49.5 -48.5 -104t-98.5 -49.5t-49.5 42q-2 13 -5.5 16.5t-14.5 2.5q-42 -4 -54.5 26.5t11.5 77t75 76.5q23 13 45 16q70 9 101.5 -22.5t38 -81zM1368 1283q10 -52 -43.5 -105.5t-101.5 -53.5h-142q20 -193 -53 -373q93 -126 89 -354q-2 -83 -81 -199 q-139 -203 -431 -237q-459 -53 -523 163q-15 52 45 112.5t113 49.5q27 -5 35 -32q41 -138 408 -96q167 19 204 78q48 78 23 215q-10 56 -36 103q-95 -80 -230 -129q-324 -118 -481 39q-84 84 -61 215q15 87 90.5 162.5t156.5 113.5t148 40q119 2 291 -69q54 -22 100 -50 q8 100 -21 248h-987q-43 6 -49 38q-11 52 42.5 105.5t102.5 53.5h1342q44 -6 50 -38zM836 667q-66 62 -191 113q-200 83 -288 41.5t-95 -78.5q-20 -116 97 -178t327 15q96 34 150 87z"/>
            <glyph horiz-adv-x="1242"
                   d="M65.5 8q6.5 -49 -48 -104t-98.5 -50t-50 43q-2 13 -5 16t-14 2q-42 -4 -54.5 27t11 77.5t75.5 75.5q23 13 45 16q69 9 100.5 -22.5t38 -80.5zM1405 1289q11 -52 -42.5 -106t-102.5 -54h-218l21 -179q178 -1650 -812 -2640q-263 -263 -607 -476q-39 -24 -64 -20 q-50 8 -48 48q4 79 86 129q1243 769 1275 2288l-17 -17q-127 -127 -312 -152q-344 -47 -439 47q-77 77 -5 228q180 381 32 744h-271q-44 6 -50 37q-11 52 42.5 106t101.5 54l306 1h1075q43 -7 49 -38zM872 703q6 119 -46 426h-439q89 -355 -93 -739q-20 -42 1 -63 q60 -60 343 -22q97 13 141 58q80 80 93 340z"/>
            <glyph horiz-adv-x="1453"
                   d="M168.5 12q6.5 -49 -48.5 -104t-98.5 -50t-49.5 43q-2 13 -5.5 16t-14.5 2q-42 -4 -54.5 27t11.5 77.5t75 75.5q23 13 45 16q70 9 101.5 -22.5t38 -80.5zM1105 768q-6 174 -24 356h-729q67 -260 -19 -431q-111 -221 -15 -317q43 -43 128 -63q173 -43 250 -13 q22 87 -12 274q-40 10 -34 67l14 63q14 68 75.5 104t82 27.5t26 -15t9.5 -20.5l9 -43q93 -11 239 11zM1611 1283q11 -52 -42.5 -105.5t-102.5 -53.5h-179q95 -1175 -278 -2027q-206 -471 -563 -829l-101 -97q-222 -205 -490 -369q-40 -25 -64 -20q-50 8 -47 49q5 79 86 128 q282 173 515 406q419 419 612 1063q154 512 152 1157q-118 -22 -211 -27q17 -200 -56 -305q-109 -157 -307 -161q-95 -2 -210.5 26t-178.5 91q-151 151 16 484q67 134 -43 431h-239q-43 6 -49 38q-11 52 42.5 105.5t102.5 53.5h1586q43 -6 49 -38z"/>
            <glyph horiz-adv-x="1029"
                   d="M228.5 -55.5q6.5 -49.5 -48.5 -104t-98.5 -49.5t-49.5 42q-2 13 -5.5 16.5t-14.5 2.5q-42 -4 -54.5 26.5t11.5 77t75 76.5q23 13 45 16q70 9 101.5 -22.5t38 -81zM1218 1283q10 -52 -43.5 -105.5t-101.5 -53.5h-178q14 -259 8 -481q-15 -545 -254 -665q-65 -32 -131 -22 q-389 60 -458 549q-31 214 171 356q158 111 468 129l-5 108l-2 26h-812q-43 6 -49 38q-11 52 42.5 105.5t102.5 53.5h809q53 30 86 0h297q44 -6 50 -38zM707 788v9q-323 -5 -432 -81q-31 -17 -20 -96q61 -423 386 -469q61 114 65 453z"/>
            <glyph horiz-adv-x="1234"
                   d="M758.5 223q6.5 -49 -48.5 -104t-98.5 -50t-49.5 43q-2 13 -5.5 16t-14.5 2q-42 -4 -54.5 27t11.5 77.5t75 75.5q23 13 45 16q70 9 101.5 -22.5t38 -80.5zM1331 1283q11 -52 -42.5 -105.5t-102.5 -53.5h-125q280 -1777 -743 -2800q-257 -258 -594 -463q-40 -24 -64 -20 q-49 9 -47 50q5 78 87 128q1403 857 1199 2740q-189 -5 -372 -48q-12 -290 -176 -455q-37 -37 -82 -65q-188 -120 -271 -37q-65 66 -51.5 238.5t144.5 304.5q96 96 245 150q-5 51 -36 124t-40 82q-66 66 -377 71q-41 1 -51 32q-17 53 39 109t101 56q433 -1 493 -154 q50 -129 56 -267q135 36 353 48l-36 215q1 48 17 70q62 88 129 88h298q43 -6 49 -38zM340 664q-132 -39 -177 -96l-13 -17q-12 -15 -18.5 -103.5t21 -110.5t99 24t86.5 235q2 34 2 68z"/>
            <glyph horiz-adv-x="1234"
                   d="M749.5 134.5q6.5 -49.5 -48.5 -104t-98.5 -49.5t-49.5 42q-2 13 -5.5 16.5t-14.5 2.5q-42 -4 -54.5 26.5t11.5 77t75 76.5q23 13 45 16q70 9 101.5 -22.5t38 -81zM1389 1283q11 -52 -42.5 -105.5t-102.5 -53.5h-183q280 -1778 -743 -2800q-257 -258 -594 -463 q-40 -24 -64 -20q-49 9 -47 50q5 78 87 128q1403 856 1199 2739q-237 -10 -378 -59q-5 -301 -174 -470q-33 -33 -73 -60q-187 -125 -274 -39q-63 63 -54 219q11 196 149 334q86 86 223 140q-8 59 -46 215q-21 86 -157 86h-234q-65 7 -50 67t60.5 94t63.5 35t257 1h1128 q43 -6 49 -38zM335 644q-130 -42 -175 -100q-25 -33 -29.5 -128t33.5 -110q24 -9 88 32q90 58 83 306zM874 946l-29 178h-369q20 -89 33 -236q103 38 365 58z"/>
            <glyph horiz-adv-x="1200"
                   d="M151.5 -29.5q6.5 -49.5 -48.5 -104t-98.5 -49.5t-49.5 42q-2 13 -5.5 16.5t-14.5 2.5q-42 -4 -54.5 26.5t11.5 77t75 76.5q23 13 45 16q70 9 101.5 -22.5t38 -81zM1398 1283q10 -52 -43.5 -105.5t-101.5 -53.5h-178q39 -742 -101 -987q-29 -52 -68 -90q-94 -94 -200 -92 q-373 9 -536 172q-107 107 -124 272q-33 302 117 445l25 24q56 49 118 67t83 -7q36 -65 -41 -134q-36 -33 -59.5 -40t-26.5 -10t-7 -11q-30 -70 -14 -210.5t99 -223.5q141 -141 471 -147l11 20q15 26 33 109.5t24 191.5l8 209q3 162 -15 442h-992q-43 6 -49 38 q-11 52 42.5 105.5t102.5 53.5h989q53 30 86 0h297q44 -6 50 -38z"/>
            <glyph horiz-adv-x="1646"
                   d="M430.5 181.5q6.5 -49.5 -48.5 -104t-98.5 -49.5t-49.5 42q-2 13 -5.5 16.5t-14.5 2.5q-42 -4 -54.5 26.5t11.5 77t75 76.5q23 13 45 16q70 9 101.5 -22.5t38 -81zM1816 1285q9 -51 -44 -104t-102 -54l-157 -1q18 -205 23 -587l4 -340q1 -3 1 -7q-10 -1403 -1370 -2319 q-60 -40 -97 -16q-17 11 -21.5 48.5t49.5 92.5q14 13 31 25q740 498 1033 1170q203 463 186 1097q-8 274 -102 347q-21 19 -39 23q61 -189 -90 -336q-96 -95 -271 -144.5t-243 19.5q-85 85 25 326q61 133 127 198.5t118 99.5q-81 117 -153 130l-50 9q62 -308 -190 -463 q-48 -30 -105 -48q-226 -75 -296 -5q-100 100 127 426q69 98 149 167q-47 31 -121 50q-185 48 -340 37q-43 -4 -53 29q-17 56 37 110t100 57q151 11 381 -39q138 -30 218 -122q104 26 260.5 -12t271.5 -263q131 -3 214 -47q-11 242 -26 309q-7 4 -11 8q-1 4 -8 14t8 60 t31 64l30 27t60.5 18.5t58.5 -9.5l297 -5q42 -1 49 -40zM487.5 786q-12.5 90 -37.5 144q-48 -36 -121.5 -141t-78.5 -159q-4 -47 124 -6q79 26 87 33q39 39 26.5 129zM1032 451q8 50 -79 235q-43 -9 -76.5 -42.5t-81 -137.5t-22.5 -134q29 -29 118.5 -4t107.5 38t26 20 q4 11 7 25z"/>
            <glyph horiz-adv-x="1345"
                   d="M111.5 -55q6.5 -49 -48.5 -104t-98.5 -50t-49.5 43q-2 13 -5.5 16t-14.5 2q-42 -4 -54.5 27t11.5 77.5t75 75.5q23 13 45 16q70 9 101.5 -22.5t38 -80.5zM1497 1285q11 -51 -43 -105t-102 -54l-180 1q-35 -102 -108 -176q-149 -148 -427 -122.5t-380 -37.5 q-21 -14 -30 -52q-32 -133 23 -187.5t204 -39.5q167 70 485 121q40 6 56.5 -21.5t-6.5 -71.5t-45.5 -66.5t-82 -48.5t-230.5 -62t-222 -44q-25 -12 -34 -19q-34 -120 24 -178t205 -64q190 -8 430 162q71 51 106 16t-3 -99q-22 -36 -56 -60q-319 -226 -578 -216 q-192 8 -276 92q-103 103 -38 314q8 27 23 52q-252 46 -178 364q40 167 205 269.5t504 72.5q201 -18 225 29t21 58q-14 13 -40 15h-249h-813q-43 7 -49 38q-11 52 42.5 106t102.5 54h1049q8 0 16 -1h400q43 -7 49 -39z"/>
            <glyph horiz-adv-x="1948"
                   d="M463.5 180q6.5 -49 -48 -104t-98.5 -50t-50 43q-2 13 -5 16t-14 2q-42 -4 -54.5 27t11 77.5t75.5 75.5q23 13 45 16q69 9 100.5 -22.5t38 -80.5zM1071 462q8 50 -79 235q-43 -9 -76.5 -42.5t-82 -139t-20.5 -133.5t117.5 -3t107.5 38t26 20zM475.5 784 q-12.5 90 -37.5 144q-48 -36 -121.5 -141t-78.5 -159q-4 -47 124 -6q79 26 88 34q38 38 25.5 128zM2474 1280q10 -52 -43.5 -105.5t-101.5 -53.5h-238q1 -177 -21.5 -352t-118.5 -297q-27 -34 -66 -54t-60 -12q-42 16 -37.5 55t24.5 65q95 118 81 595h-311q-6 0 -36 1l-21 1 q11 -176 28 -849l1 -82v-1q0 -1054 -804 -1858q-240 -240 -566 -460q-60 -40 -97 -16q-17 11 -21.5 48.5t49.5 92.5q14 13 31 25q745 501 1033 1170q185 431 178 900q-1 18 -4 97.5t-3 101.5q1 276 -91 347q49 -204 -154 -350q-84 -61 -207 -96q-184 -52 -252 17 q-85 85 25 326q61 133 127 199t119 99q-71 89 -257 133q68 -313 -188 -470q-48 -30 -105 -48q-226 -75 -296 -5q-100 100 127 426q69 98 149 167q-48 31 -120 50q-190 49 -329 39q-43 -3 -53 29q-17 56 37 110t100 57q132 11 369 -41q138 -30 218 -122q100 21 288.5 -13.5 t295.5 -248.5q107 -5 187 -54q-11 238 -26 305q-6 4 -11 8q-1 4 -8 14t8 60t31 64l30 27t61 18.5t59 -10.5q75 -11 219 -11h332h2h2h385q43 -6 50 -38z"/>
            <glyph horiz-adv-x="1744"
                   d="M752.5 -213q6.5 -49 -48 -104t-98.5 -50t-50 43q-2 13 -5 16t-14 2q-42 -4 -54.5 27t11 77.5t75.5 75.5q23 13 45 16q69 9 100.5 -22.5t38 -80.5zM1370 1128h-524q52 -142 206 -249q131 57 295 64q20 98 23 185zM1934 1283q10 -52 -43.5 -106t-101.5 -54h-228 q-15 -124 -56 -262q-18 -62 -83 -102q-33 -20 -63 -18q-279 15 -406 -98q-232 -206 -105 -424q97 -167 282 -123q142 35 344 196q38 30 70 33t43 -8q34 -34 10 -80.5t-58 -74.5q-348 -279 -589 -273q-206 4 -308.5 223t69.5 468q47 68 109 130l23 23q-195 159 -218 390 l-185 1q118 -778 -22 -1445q-87 -412 -248.5 -719.5t-332.5 -478.5q-1 -1 -28 -33l-66 -73q-160 -181 -426 -379q-107 -80 -221 -152q-66 -42 -100 -8q-39 61 35 135q16 15 35 27q292 185 514 408l52 54l89 101q247 247 411 713q278 786 92 1852l-301 -3q-44 6 -50 39 q-10 52 43.5 105.5t102.5 53.5l170 -1q-47 405 232 683q199 199 533 303q44 13 66 -10q37 -62 -37 -135q-33 -32 -68 -43q-265 -84 -395 -214q-192 -192 -121 -557l6 -28l1479 2q44 -7 50 -38z"/>
            <glyph horiz-adv-x="1932"
                   d="M261.5 -128q6.5 -49 -48 -104t-98.5 -50t-50 43q-2 13 -5 16t-14 2q-42 -4 -54.5 27t11 77.5t75.5 75.5q23 13 45 16q69 9 100.5 -22.5t38 -80.5zM962 1124h-524q52 -142 205 -249q132 57 295 64q20 98 24 185zM2099 1285q11 -52 -43 -106t-107 -54l-237 -1 q64 -336 66 -804q6 -1178 -802 -1986q-262 -263 -593 -475q-66 -42 -101 -8q-12 19 -14 50.5t50 84.5q15 15 34 27q298 191 540 433q342 342 517 794t172 982t-42 902h-294h-93q-14 -124 -55 -262q-19 -62 -83 -102q-34 -20 -64 -18q-218 12 -337 -52q-13 -8 -35 -20.5 t-60 -50.5t-61 -68q-119 -156 -20 -327t284 -127q143 35 345 196q37 30 69 33t43 -8q34 -34 10.5 -80.5t-58.5 -74.5q-348 -279 -588 -273q-207 4 -309.5 223t70.5 468q49 72 109 131l22 21q-195 160 -218 391h-325q-43 7 -49 38q-11 52 42.5 106t102.5 54l1526 1 q-70 461 -213 605q-81 80 -173 47q-10 -4 -14 -12q-51 -114 31 -419q14 -52 -46 -112t-112 -49q-28 5 -35 33q-128 472 65 652l28 26q71 66 197 86t229 -83q180 -180 254 -776l325 2q43 -7 50 -38z"/>
            <glyph horiz-adv-x="1491"
                   d="M236.5 -61q6.5 -49 -48 -104t-98.5 -50t-50 43q-2 13 -5 16t-14 2q-42 -4 -54.5 27t11 77.5t75.5 75.5q23 13 45 16q69 9 100.5 -22.5t38 -80.5zM1653 1283q11 -52 -42.5 -105.5t-102.5 -53.5h-83q-39 -205 -205 -361q63 -63 48 -185q-52 -409 -303 -584 q-301 -210 -604 93q-178 178 -248 462l-21 89q-6 28 -7 45q-39 245 -19 441h-186q-43 6 -49 38q-11 52 42.5 105.5t102.5 53.5h125q70 279 240 450q110 110 251 167q358 146 613 -75q177 -154 194 -542h205q43 -6 49 -38zM1230 1035q12 23 -4 39q-49 50 -254 50h-715 q-6 -143 19 -297q331 17 586 9l238 7q37 17 130 192zM1072 502q15 117 -121 128l-182 9l-247 -6l-203 -4q83 -286 290.5 -441t333.5 -29q98 98 129 343zM280 1321h914q-31 260 -155 368q-203 177 -467 69q-78 -32 -131 -86q-114 -113 -161 -351zM1112 -183q37 -61 -37 -135 q-33 -32 -68 -43l-327 -105q-165 -53 -378 51q-44 22 -16 86t92 95q42 20 70 6q169 -83 270 -51l327 105q47 11 67 -9z"/>
            <glyph horiz-adv-x="1491"
                   d="M223.5 -48q6.5 -49 -48 -104t-98.5 -50t-50 43q-2 13 -5 16t-14 2q-42 -4 -54.5 27t11 77.5t75.5 75.5q23 13 45 16q69 9 100.5 -22.5t38 -80.5zM1653 1283q11 -52 -42.5 -105.5t-102.5 -53.5h-83q-39 -205 -205 -361q63 -63 48 -185q-52 -409 -303 -584 q-301 -210 -604 93q-178 178 -248 462l-21 89q-6 28 -7 45q-39 245 -19 441h-186q-43 6 -49 38q-11 52 42.5 105.5t102.5 53.5h125q70 279 240 450q110 110 251 167q358 146 613 -75q177 -154 194 -542h205q43 -6 49 -38zM1230 1035q12 23 -4 39q-49 50 -254 50h-715 q-6 -143 19 -297q331 17 586 9l238 7q37 17 130 192zM1072 502q15 117 -121 128l-182 9l-247 -6l-203 -4q83 -286 290.5 -441t333.5 -29q98 98 129 343zM280 1321h914q-31 260 -155 368q-203 177 -467 69q-78 -32 -131 -86q-114 -113 -161 -351zM1039 -618q30 -66 -46 -135 q-34 -31 -69 -41l-441 -114q-335 -86 -426 68q-16 27 0 63q38 85 113 107q51 16 70 -18q54 -91 294 -28l441 114q52 7 64 -16zM1108.5 -335.5q-18.5 -44.5 -53.5 -73.5t-66 -37l-393 -96q-255 -62 -367 74q-31 66 42 135q51 48 86 46.5t44 -13.5q76 -92 249 -50l393 96 q41 6 62.5 -15.5t3 -66z"/>
            <glyph horiz-adv-x="1340"
                   d="M200.5 -97.5q6.5 -49.5 -48 -104t-98.5 -49.5t-50 42q-2 13 -5 16.5t-14 2.5q-42 -4 -54.5 26.5t11 77t75.5 76.5q23 13 45 16q69 9 100.5 -22.5t38 -81zM962 1124h-524q52 -142 205 -249q132 57 295 64q20 98 24 185zM1525 1284q11 -52 -42.5 -106t-102.5 -54h-228 q-14 -124 -55 -262q-19 -62 -83 -102q-34 -20 -64 -18q-212 11 -337 -52q-13 -8 -35 -20.5t-60 -50.5t-61 -68q-119 -156 -20 -327t284 -127q143 35 345 196q37 30 69 33t43 -8q34 -34 10.5 -80.5t-58.5 -74.5q-348 -279 -588 -273q-207 4 -309.5 223t70.5 468 q45 67 109 131l22 21q-195 160 -218 391h-325q-43 7 -49 38q-11 52 42.5 106t102.5 54h1072q-58 288 -380 415q-73 29 -119 34q0 -29 7 -77t-47.5 -102.5t-98.5 -50.5t-50 41q-33 200 79 307q45 43 93 62q106 42 274 -24q396 -156 445 -534q4 -32 -20 -71h234q43 -7 49 -38z "/>
            <glyph horiz-adv-x="1723"
                   d="M461.5 155.5q6.5 -49.5 -48 -104t-98.5 -49.5t-50 42q-2 13 -5 16.5t-14 2.5q-42 -4 -54.5 26.5t11 77t75.5 76.5q23 13 45 16q69 9 100.5 -22.5t38 -81zM1496 1474q10 -56 -62 -118t-120 -24q-233 218 -404 229q-74 4 -125 -29q6 -25 22 -50.5t-1.5 -66.5t-62 -78 t-76 -31.5t-42.5 21.5q-92 150 54 299q15 16 41 36q207 159 453 56q-136 219 -376 193q2 -22 9 -53q12 -53 -43.5 -108.5t-99 -53t-51.5 35.5q-27 120 0 185q64 156 215 183q358 64 539 -245q90 -153 130 -381zM1863 1279q9 -51 -45 -105q-53 -53 -102 -53l-156 1 q18 -205 23 -587l4 -340v-7q-4 -563 -217 -1023q-229 -497 -542 -792l-54 -54q-37 -39 -86 -83l-121 -105q-131 -115 -349 -262q-59 -40 -97 -16q-17 11 -21.5 48.5t49.5 92.5q14 13 31 25q745 501 1033 1170q183 426 178 902q-2 151 -6 194q-28 270 -61 340q-3 7 -33 17 q43 -174 -97 -311q-97 -95 -271.5 -144.5t-242.5 19.5q-85 85 25 326q61 133 126.5 198.5t117.5 98.5q-28 34 -97 71t-140 54q66 -312 -189 -469q-48 -30 -105 -48q-226 -75 -296 -5q-100 100 127 426q69 98 149 167q-50 34 -120 50q-251 55 -370 47q-43 -3 -53 30 q-17 55 37 109t100 57q138 11 410 -49q139 -30 219 -123q181 38 327 -4q126 -36 238 -249q108 -5 188 -54q-11 238 -26 305l-11 8q-1 4 -8 14t8 60t31 64l30 27t61 18.5t59 -10.5l296 -6q42 -1 49 -40zM526.5 776q-12.5 90 -37.5 144q-48 -36 -121.5 -141t-78.5 -159 q-4 -47 124 -6q79 26 88 34q38 38 25.5 128zM1105 462q8 50 -79 235q-43 -9 -76.5 -42.5t-81 -137.5t-22.5 -134q29 -29 118.5 -4t107.5 38t26 20q4 11 7 25z"/>
            <glyph horiz-adv-x="1493"
                   d="M262.5 -22q6.5 -49 -48 -104t-98.5 -50t-50 43q-2 13 -5 16t-14 2q-42 -4 -54.5 27t11 77.5t75.5 75.5q23 13 45 16q69 9 100.5 -22.5t38 -80.5zM1670 1283q11 -52 -42.5 -105.5t-102.5 -53.5h-120q-5 -18 -14 -37q-97 -210 -198 -316q142 -116 24 -390 q-99 -227 -219 -348q-159 -159 -316 -138q-323 44 -502 526q-40 108 -53.5 158t-23 67.5t-2.5 44.5q-47 222 -30 433h-191q-43 6 -49 38q-11 52 42.5 105.5t102.5 53.5h125l13 51q51 196 194 338.5t331 234.5q244 120 692 73q64 -7 85 -38q50 -73 -7 -176q-33 -61 -58 -78 q-84 -61 -117 -28t2 103q6 12 5 14q-6 5 -20 6q-399 42 -584 -48q-135 -66 -218 -149.5t-115 -201.5q-13 -50 -22 -101h1339q43 -6 49 -38zM1214 1076q-25 48 -255 48h-695q-2 -148 30 -303l488 16l299 20q40 17 133 219zM1035 360q91 210 -59 265q-44 17 -301 14l-328 -16 q162 -493 441 -530q63 -9 120.5 48.5t126.5 218.5z"/>
            <glyph horiz-adv-x="1776"
                   d="M468.5 175.5q6.5 -49.5 -48.5 -104t-98.5 -49.5t-49.5 42q-2 13 -5.5 16.5t-14.5 2.5q-42 -4 -54.5 26.5t11.5 77t75 76.5q23 13 45 16q70 9 101.5 -22.5t38 -81zM1135 462q8 50 -79 235q-43 -9 -76.5 -42.5t-82 -139t-20.5 -133.5t117.5 -3t107.5 38t26 20zM536.5 776 q-12.5 90 -37.5 144q-48 -36 -121.5 -141t-78.5 -159q-4 -47 124 -6q79 26 88 34q38 38 25.5 128zM1893 1282q9 -51 -44.5 -104.5t-102.5 -53.5l-156 -2q18 -205 23 -587l4 -340q1 -3 1 -7q-11 -1404 -1370 -2319q-60 -40 -97 -16q-17 11 -21.5 48.5t49.5 92.5q14 13 31 25 q745 501 1033 1170q212 492 172 1097q-13 191 -84 293q6 -137 -99 -240t-279.5 -152.5t-242.5 19.5q-85 85 25 326q61 133 127 198.5t118 99.5q-66 97 -133 120q-27 9 -127 12q73 -318 -187 -477q-48 -30 -105 -48q-226 -75 -296 -5q-100 100 127 426q69 98 149 167 q-50 34 -120 50q-251 55 -370 47q-43 -3 -53 30q-17 55 37 109t100 57q138 11 410 -49q139 -31 219 -123q196 39 344 -3q129 -36 241 -250q108 -5 188 -54q-11 238 -26 305q-30 17 -11 82q15 51 31 64.5t30 26.5q6 6 19 10q-20 43 17 97q63 91 74 148.5t-28.5 97 t-140.5 54.5q-69 -7 -128 -9q-2 -84 68 -240q13 -29 -4 -64q-32 -65 -96.5 -97.5t-86.5 17.5q-111 248 -61 387q-164 18 -217 98q-176 268 19 463q95 95 254 141q50 15 66 -12q8 -14 11.5 -26.5t-7.5 -42.5q-31 -84 -153 -120q-70 -20 -76 -53q-13 -72 68 -195 q40 -61 235 -61q88 28 230 8.5t209 -86.5q95 -95 20 -271q-37 -86 -108 -178q-28 -36 -55 -56l287 -5q42 -1 49 -40z"/>
            <glyph horiz-adv-x="1253"
                   d="M1432 1283q11 -52 -42.5 -105.5t-102.5 -53.5h-233l17 -210q5 -31 14 -151q23 -299 -17 -722q-4 -46 -37 -79q-75 -75 -128 -58q-11 4 -18 11q-15 24 -13 44q14 161 19 319q-36 -36 -78 -64q-231 -151 -481 -132q-125 9 -180 64t-60 136q-2 25 12 53q84 169 113 356 q-3 21 7 47q16 137 3 283q-12 128 -318 103q-44 -3 -54 30q-18 55 36 109t100 58q413 34 432 -192q13 -143 0 -280h452q-13 160 -38 316q-9 57 45.5 105.5t94.5 51t61 2.5l112 -3h233q43 -6 49 -38zM886 651h-495q-35 -146 -100 -284q18 -79 147 -89q186 -13 339 88 q41 26 69 107.5t40 177.5z"/>
            <glyph horiz-adv-x="1543"
                   d="M1682 1283q11 -52 -42.5 -105.5t-102.5 -53.5h-192q95 -534 23 -1086q-6 -45 -38 -78q-77 -76 -130 -55q-34 14 -28 57q77 593 -46 1162h-185q83 -502 3 -767q-35 -121 -128 -213q-141 -142 -377.5 -176.5t-316.5 45.5q-114 115 76 412q230 360 566 463q-15 111 -39 236 h-818q-43 6 -49 38q-11 52 42.5 105.5t102.5 53.5h1630q43 -6 49 -38zM782 715q-260 -54 -430 -320q-106 -166 -60.5 -211.5t206.5 -22t219 81.5q25 25 39 70q44 149 26 402z"/>
            <glyph horiz-adv-x="1612"
                   d="M1737 1282q11 -52 -43 -105.5t-102 -53.5l-91 1q66 -511 13 -1083q-4 -46 -37 -79q-75 -75 -128 -58q-11 4 -18 11q-15 24 -13 44q14 159 20 303q-134 -265 -518 -153q-106 31 -163 229q-233 -302 -446 -223q-62 23 -112 76q-165 174 49 759q27 74 -13 114 q-58 57 -255 60q-42 1 -49 35q-11 55 42.5 108.5t102.5 53.5q241 0 329 -88t27 -254q-185 -497 -55 -626q75 -75 140 -49q29 11 71 52.5t79 101.5t52 103q-10 147 -3.5 346t24.5 252.5t39 81.5l14 17q104 103 178 40q47 -41 19 -272.5t-72 -384.5q5 -62 14 -105 q47 -214 118 -235q226 -64 274 73l19 55q33 94 42 114q61 217 -3 621q-9 59 47.5 108t98.5 49h1h259q43 -7 49 -39z"/>
            <glyph horiz-adv-x="1343"
                   d="M1527 1283q11 -52 -42.5 -105.5t-102.5 -53.5h-204q19 -143 23.5 -216.5t5.5 -73.5t11 -18t-9 -60q13 -353 -36 -719q-6 -44 -39 -77q-76 -76 -129 -55q-34 14 -28 58q45 338 36 659q-247 -94 -423 -144q-80 -304 -272 -519q-30 -33 -69.5 -50t-67 1t-18.5 57.5t39 73.5 q136 152 198 391q-243 -44 -323 36.5t23 268.5q63 115 169.5 164t219 -29.5t123.5 -209.5q163 44 392 130q-12 168 -40 332h-1084q-43 6 -49 38q-11 52 42.5 105.5t102.5 53.5h1502q43 -6 49 -38zM399 617q-18 41 -58.5 69t-76.5 35q-34 -62 -16 -84q33 -33 151 -20z"/>
            <glyph horiz-adv-x="1273"
                   d="M868 651h-490q-25 -86 -64 -175q-67 -151 -28 -190q26 -25 105 -13q193 29 311 75t137 88t29 215zM1432 1283q11 -52 -42.5 -105.5t-102.5 -53.5h-227q34 -616 3 -1081q-3 -47 -56.5 -100.5t-106.5 -38.5q-12 3 -20 11q-15 23 -13 42l12 322q-182 -145 -560 -202 q-142 -21 -203 40q-92 92 20 347q51 114 72 223q-7 27 10 61q24 195 -46 376h-270q-43 6 -49 38q-11 52 42.5 105.5t102.5 53.5h1385q43 -6 49 -38zM870 849q-4 135 -26 275h-441q28 -134 14 -275h453z"/>
            <glyph horiz-adv-x="1253"
                   d="M1407 1283q11 -52 -42.5 -105.5t-102.5 -53.5h-209q92 -566 4 -1089q-7 -44 -39 -76q-77 -78 -130 -52q-33 15 -25 58q26 163 35 331q-145 -154 -370 -184q-304 -40 -389.5 45.5t-11.5 247.5q196 434 39 719h-286q-43 6 -49 38q-11 52 42.5 105.5t102.5 53.5h1382 q43 -6 49 -38zM874 616q26 171 -39 508h-424q78 -299 -108 -709q-26 -57 0 -83q57 -56 299 -24q126 17 186 77t86 231z"/>
            <glyph horiz-adv-x="1388"
                   d="M1562 1283q11 -52 -42.5 -105.5t-102.5 -53.5h-602q-15 -48 -42 -96q464 -72 410 -985q-2 -46 -56 -100t-107 -39q-12 3 -20 11q-15 22 -13 42q49 851 -362 879l-38 -40q-51 -51 -91 -86l-57 -52q-166 -166 -136 -412q14 -115 94 -90q50 15 102 54t70 48q51 27 81.5 -3.5 t4 -78.5t-61.5 -74q-305 -231 -429 -108q-45 46 -57 140q-48 382 289 676q231 200 240 314h-756q-43 6 -49 38q-11 52 42.5 105.5t102.5 53.5h1537q43 -6 49 -38z"/>
            <glyph horiz-adv-x="1243"
                   d="M1382 1283q11 -52 -42.5 -105.5t-102.5 -53.5q-137 0 -203 -18q18 -62 21 -127.5t6 -116.5q24 -456 -3 -820q-3 -46 -36 -79q-75 -75 -128 -59q-11 3 -19 11q-15 23 -13 43q11 165 14 322q-146 -151 -403 -217.5t-355 31.5q-112 112 17 426q175 428 20 555 q-79 65 -268 49q-43 -3 -54 29.5t8 66.5q51 94 131.5 101t135.5 1l52 -6q27 -3 84 -24q197 -72 180 -358q-9 -152 -103 -381t-35.5 -287.5t234.5 -13t250.5 120t84.5 211t8 186.5t-20 199q-46 150 106 263q123 92 384 89q42 0 49 -38z"/>
            <glyph horiz-adv-x="1238"
                   d="M1399 1283q11 -52 -42.5 -105.5t-102.5 -53.5h-148q43 -590 -39 -1089q-7 -44 -39 -76q-77 -77 -130 -53q-33 16 -25 59q24 153 37 315q-154 -130 -333 -153q-280 -36 -338 86q-87 186 105 460q-76 15 -114 61q-109 132 7 390h-339q-43 6 -49 38q-11 52 42.5 105.5 t102.5 53.5h1047h1h2h306q43 -6 49 -38zM911 972l-10 152q-371 -2 -502 -25q-53 -142 11 -206q46 -46 206 -22q174 73 295 101zM914 775q-200 -70 -344 -95q-45 -19 -68 -33q-129 -176 -75 -290q28 -60 226 -34q121 16 200 95q36 35 47.5 133t13.5 224z"/>
            <glyph horiz-adv-x="1198"
                   d="M1363 1282q9 -52 -44.5 -105t-102.5 -53l-141 2q66 -446 18 -1084q-3 -46 -36 -79q-75 -75 -128 -59q-11 3 -19 11q-15 23 -13 43q34 463 8 819q-142 0 -384 -78q2 -265 -110 -406q-64 -80 -125 -120q-193 -127 -283 -36q-43 42 -60 151t24 209q84 203 304 293l44 18 q-2 30 -10.5 96.5t-62.5 120.5q-100 99 -349 101q-46 0 -53.5 15.5t-10.5 28.5t10.5 47t53.5 68t69 34q388 1 448 -60q76 -76 93 -267q7 -68 9 -110q193 68 373 87q-13 102 -32 193q-11 52 41 104t117.5 56.5t302.5 -1.5q42 -1 49 -39zM328 631l-83 -34q-88 -36 -107 -83 t-8 -115t37 -87.5t95 28.5q49 35 64 185q5 46 2 106z"/>
            <glyph horiz-adv-x="1463"
                   d="M1113 762q-7 176 -27 362h-731q58 -272 -71 -563q-45 -101 24 -169.5t252 -104.5q72 -13 96.5 -6t33.5 12q44 53 42 231q-93 7 -99 69q-1 10 1 39q9 113 109 182q59 41 109.5 32t68.5 -118zM1600 1283q11 -52 -42.5 -105.5t-102.5 -53.5h-162q52 -598 -25 -1089 q-7 -43 -40 -76q-77 -77 -130 -53q-32 15 -26 59q45 288 45 614l-123 -21l-67 -12q-15 -230 -146.5 -361.5t-342.5 -91.5t-303 132q-120 120 -29 324q131 292 17 575h-209q-43 6 -49 38q-11 52 42.5 105.5t102.5 53.5h1541q43 -6 49 -38z"/>
            <glyph horiz-adv-x="1234"
                   d="M824.5 212.5q6.5 -49.5 -48.5 -104t-98.5 -49.5t-49.5 42q-2 13 -5.5 16.5t-14.5 2.5q-42 -4 -54.5 26.5t11.5 77t75 76.5q23 13 45 16q70 9 101.5 -22.5t38 -81zM1454 1283q11 -52 -42.5 -105.5t-102.5 -53.5h-183q99 -649 44 -1086q-6 -45 -38 -77q-77 -77 -130 -56 q-33 14 -28 57q42 335 -12 806l-385 -62q12 -313 -174 -453q-255 -193 -351 -97q-75 75 -27 312q24 114 64.5 169t71.5 85q83 84 181 108l28 7q-1 14 -2 33q-3 122 -69 188t-142 66h-245q-43 6 -49 38q-11 52 42.5 105.5t102.5 53.5h1397q43 -6 49 -38zM380 654l-80 -26 q-62 -20 -75 -44.5t-20 -58.5q-33 -160 3 -188q23 -18 151 78q3 3 7 11q29 74 14 228zM939 945l-28 179h-383q48 -139 47 -232z"/>
            <glyph horiz-adv-x="1306"
                   d="M1454 1283q11 -52 -42.5 -105.5t-102.5 -53.5h-183q99 -649 44 -1086q-6 -45 -38 -77q-77 -77 -130 -56q-33 14 -28 57q42 335 -12 806l-385 -62q12 -313 -174 -453q-255 -193 -351 -97q-75 75 -27 312q24 114 64.5 169t71.5 85q83 84 181 108l28 7q-1 14 -2 33 q-3 122 -69 188t-142 66h-245q-43 6 -49 38q-11 52 42.5 105.5t102.5 53.5h1397q43 -6 49 -38zM380 654l-80 -26q-62 -20 -75 -44.5t-20 -58.5q-33 -160 3 -188q23 -18 151 78q3 3 7 11q29 74 14 228zM939 945l-28 179h-383q48 -139 47 -232z"/>
            <glyph horiz-adv-x="1253"
                   d="M1124 -657q4 -50 -56 -110t-114 -37q-7 3 -13 9q-12 19 -13 32q-12 150 -108 356q-69 -39 -165 -54t-146 35t-16.5 166t139.5 179q58 34 124.5 39.5t108.5 -15.5l10 43q10 43 42 74q77 78 130 49q31 -17 22 -62q-36 -173 -82 -268q124 -250 137 -436zM743 -263 q-25 28 -65 25q-1 -19 3 -22l11 -6q19 -4 51 3zM1432 1283q11 -52 -42.5 -105.5t-102.5 -53.5h-233l17 -210q5 -31 14 -151q23 -299 -17 -722q-4 -46 -37 -79q-75 -75 -128 -58q-11 4 -18 11q-15 24 -13 44q14 161 19 319q-36 -36 -78 -64q-231 -151 -481 -132 q-125 9 -180 64t-60 136q-2 25 12 53q84 169 113 356q-3 21 7 47q16 137 3 283q-12 128 -318 103q-44 -3 -54 30q-18 55 36 109t100 58q413 34 432 -192q13 -143 0 -280h452q-13 160 -38 316q-9 57 45.5 105.5t94.5 51t61 2.5l112 -3h233q43 -6 49 -38zM886 651h-495 q-35 -146 -100 -284q18 -79 147 -89q186 -13 339 88q41 26 69 107.5t40 177.5z"/>
            <glyph horiz-adv-x="1253"
                   d="M1163 -590q39 -60 -36 -135q-27 -27 -58 -40q-273 -115 -397 10q-101 101 -5 261q-76 33 -125 120q-62 108 33.5 232t233.5 145q32 4 72 0q13 43 58 72.5t64 30.5q51 2 61 -32q22 -73 20 -128q-4 -83 -107 -150q-58 -37 -136.5 -8t-118.5 16q-1 -43 38.5 -81.5 t149.5 -44.5q83 20 140 20t72 -5t23 -28t-7 -56q-61 -135 -303 -129l-15 -6q-14 -29 31 -68q69 -61 236 9q43 18 69 0q6 -4 7 -5zM1432 1283q11 -52 -42.5 -105.5t-102.5 -53.5h-233l17 -210q5 -31 14 -151q23 -299 -17 -722q-4 -46 -37 -79q-75 -75 -128 -58q-11 4 -18 11 q-15 24 -13 44q14 161 19 319q-36 -36 -78 -64q-231 -151 -481 -132q-125 9 -180 64t-60 136q-2 25 12 53q84 169 113 356q-3 21 7 47q16 137 3 283q-12 128 -318 103q-44 -3 -54 30q-18 55 36 109t100 58q413 34 432 -192q13 -143 0 -280h452q-13 160 -38 316 q-9 57 45.5 105.5t94.5 51t61 2.5l112 -3h233q43 -6 49 -38zM886 651h-495q-35 -146 -100 -284q18 -79 147 -89q186 -13 339 88q41 26 69 107.5t40 177.5z"/>
            <glyph horiz-adv-x="1253"
                   d="M1108 -309q-6 -224 -146 -329q-66 -49 -142 -49q-153 0 -245 92t-107 258q-1 9 -1 24.5t6 51.5q8 51 71.5 100.5t116.5 50.5h1q45 0 80 -15t43 -25q40 -50 -40 -130q-29 -29 -62 -42q49 -151 212 -166q23 54 23 122.5t-45 309.5q-10 52 47 109q52 53 98 50q43 -3 49 -39 q41 -214 41 -351v-22zM1432 1283q11 -52 -42.5 -105.5t-102.5 -53.5h-233l17 -210q5 -31 14 -151q23 -299 -17 -722q-4 -46 -37 -79q-75 -75 -128 -58q-11 4 -18 11q-15 24 -13 44q14 161 19 319q-36 -36 -78 -64q-231 -151 -481 -132q-125 9 -180 64t-60 136q-2 25 12 53 q84 169 113 356q-3 21 7 47q16 137 3 283q-12 128 -318 103q-44 -3 -54 30q-18 55 36 109t100 58q413 34 432 -192q13 -143 0 -280h452q-13 160 -38 316q-9 57 45.5 105.5t94.5 51t61 2.5l112 -3h233q43 -6 49 -38zM886 651h-495q-35 -146 -100 -284q18 -79 147 -89 q186 -13 339 88q41 26 69 107.5t40 177.5z"/>
            <glyph horiz-adv-x="1543"
                   d="M1682 1283q11 -52 -42.5 -105.5t-102.5 -53.5h-192q95 -534 23 -1086q-6 -45 -38 -78q-77 -76 -130 -55q-34 14 -28 57q77 593 -46 1162h-185q83 -502 3 -767q-35 -121 -128 -213q-141 -142 -377.5 -176.5t-316.5 45.5q-114 115 76 412q230 360 566 463q-15 111 -39 236 h-818q-43 6 -49 38q-11 52 42.5 105.5t102.5 53.5h1630q43 -6 49 -38zM782 715q-260 -54 -430 -320q-106 -166 -60.5 -211.5t206.5 -22t219 81.5q25 25 39 70q44 149 26 402zM1428 -682q4 -50 -56 -110t-114 -37q-8 3 -14 9q-12 19 -13 32q-11 150 -107 356 q-69 -39 -165 -54t-146 35t-17 166t140 179q57 34 124 39.5t109 -15.5l10 43q10 43 41 74q78 78 131 49q30 -17 21 -62q-36 -173 -81 -268q123 -250 137 -436zM1047 -288q-26 28 -66 25q-1 -19 3 -22l11 -6q20 -4 52 3z"/>
            <glyph horiz-adv-x="1543"
                   d="M1682 1283q11 -52 -42.5 -105.5t-102.5 -53.5h-192q95 -534 23 -1086q-6 -45 -38 -78q-77 -76 -130 -55q-34 14 -28 57q77 593 -46 1162h-185q83 -502 3 -767q-35 -121 -128 -213q-141 -142 -377.5 -176.5t-316.5 45.5q-114 115 76 412q230 360 566 463q-15 111 -39 236 h-818q-43 6 -49 38q-11 52 42.5 105.5t102.5 53.5h1630q43 -6 49 -38zM782 715q-260 -54 -430 -320q-106 -166 -60.5 -211.5t206.5 -22t219 81.5q25 25 39 70q44 149 26 402zM1461 -611q39 -59 -37 -135q-26 -26 -57 -39q-273 -115 -397 9q-102 102 -6 262q-75 33 -125 119 q-61 108 34.5 232.5t232.5 144.5q33 5 72 0q14 44 58.5 73.5t63.5 30.5q51 2 62 -32q22 -73 19 -129q-4 -83 -107 -149q-58 -37 -136 -8t-118 15q-1 -43 38 -81.5t150 -44.5q83 21 140 20.5t71.5 -5.5t23 -28t-6.5 -56q-61 -134 -303 -129q-10 -3 -15 -5q-14 -30 30 -69 q70 -61 236 9q43 18 70 1q5 -4 7 -6z"/>
            <glyph horiz-adv-x="1543"
                   d="M1682 1283q11 -52 -42.5 -105.5t-102.5 -53.5h-192q95 -534 23 -1086q-6 -45 -38 -78q-77 -76 -130 -55q-34 14 -28 57q77 593 -46 1162h-185q83 -502 3 -767q-35 -121 -128 -213q-141 -142 -377.5 -176.5t-316.5 45.5q-114 115 76 412q230 360 566 463q-15 111 -39 236 h-818q-43 6 -49 38q-11 52 42.5 105.5t102.5 53.5h1630q43 -6 49 -38zM782 715q-260 -54 -430 -320q-106 -166 -60.5 -211.5t206.5 -22t219 81.5q25 25 39 70q44 149 26 402zM1401 -315q-6 -224 -146 -328q-66 -49 -142 -49q-153 0 -245 91.5t-107 258.5q-1 8 -1 23.5 t6 52.5q8 50 71.5 99.5t116.5 50.5h1q45 0 80 -15t43 -24q40 -51 -40 -131q-29 -28 -62 -41q49 -152 212 -167q23 55 23 123t-45 309q-10 52 47 110q52 52 98 49q43 -3 49 -38q41 -214 41 -352v-22z"/>
            <glyph horiz-adv-x="1612"
                   d="M1737 1282q11 -52 -43 -105.5t-102 -53.5l-91 1q66 -511 13 -1083q-4 -46 -37 -79q-75 -75 -128 -58q-11 4 -18 11q-15 24 -13 44q14 159 20 303q-134 -265 -518 -153q-106 31 -163 229q-233 -302 -446 -223q-62 23 -112 76q-165 174 49 759q27 74 -13 114 q-58 57 -255 60q-42 1 -49 35q-11 55 42.5 108.5t102.5 53.5q241 0 329 -88t27 -254q-185 -497 -55 -626q75 -75 140 -49q29 11 71 52.5t79 101.5t52 103q-10 147 -3.5 346t24.5 252.5t39 81.5l14 17q104 103 178 40q47 -41 19 -272.5t-72 -384.5q5 -62 14 -105 q47 -214 118 -235q226 -64 274 73l19 55q33 94 42 114q61 217 -3 621q-9 59 47.5 108t98.5 49h1h259q43 -7 49 -39zM1565 -685q4 -50 -56 -110t-113 -37q-8 3 -14 9q-12 19 -13 32q-12 150 -108 356q-69 -39 -165 -54t-146 35t-16.5 166t139.5 179q58 34 124.5 39.5 t108.5 -15.5l10 43q10 43 42 74q77 78 130 49q31 -17 22 -62q-36 -173 -82 -268q124 -250 137 -436zM1184 -291q-25 28 -65 25q-1 -19 3 -22l11 -6q19 -4 51 3z"/>
            <glyph horiz-adv-x="1612"
                   d="M1737 1282q11 -52 -43 -105.5t-102 -53.5l-91 1q66 -511 13 -1083q-4 -46 -37 -79q-75 -75 -128 -58q-11 4 -18 11q-15 24 -13 44q14 159 20 303q-134 -265 -518 -153q-106 31 -163 229q-233 -302 -446 -223q-62 23 -112 76q-165 174 49 759q27 74 -13 114 q-58 57 -255 60q-42 1 -49 35q-11 55 42.5 108.5t102.5 53.5q241 0 329 -88t27 -254q-185 -497 -55 -626q75 -75 140 -49q29 11 71 52.5t79 101.5t52 103q-10 147 -3.5 346t24.5 252.5t39 81.5l14 17q104 103 178 40q47 -41 19 -272.5t-72 -384.5q5 -62 14 -105 q47 -214 118 -235q226 -64 274 73l19 55q33 94 42 114q61 217 -3 621q-9 59 47.5 108t98.5 49h1h259q43 -7 49 -39zM1605 -611q39 -59 -37 -135q-26 -26 -57 -39q-273 -115 -397 9q-102 102 -6 262q-75 33 -125 119q-61 108 34.5 232.5t232.5 144.5q33 5 72 0 q14 44 58.5 73.5t63.5 30.5q51 2 62 -32q22 -73 19 -129q-4 -83 -107 -149q-58 -37 -136 -8t-118 15q-1 -43 38 -81.5t150 -44.5q83 21 140 20.5t71.5 -5.5t23 -28t-6.5 -56q-61 -134 -303 -129q-10 -3 -15 -5q-14 -30 30 -69q70 -61 236 9q43 18 70 1q5 -4 7 -6z"/>
            <glyph horiz-adv-x="1612"
                   d="M1737 1282q11 -52 -43 -105.5t-102 -53.5l-91 1q66 -511 13 -1083q-4 -46 -37 -79q-75 -75 -128 -58q-11 4 -18 11q-15 24 -13 44q14 159 20 303q-134 -265 -518 -153q-106 31 -163 229q-233 -302 -446 -223q-62 23 -112 76q-165 174 49 759q27 74 -13 114 q-58 57 -255 60q-42 1 -49 35q-11 55 42.5 108.5t102.5 53.5q241 0 329 -88t27 -254q-185 -497 -55 -626q75 -75 140 -49q29 11 71 52.5t79 101.5t52 103q-10 147 -3.5 346t24.5 252.5t39 81.5l14 17q104 103 178 40q47 -41 19 -272.5t-72 -384.5q5 -62 14 -105 q47 -214 118 -235q226 -64 274 73l19 55q33 94 42 114q61 217 -3 621q-9 59 47.5 108t98.5 49h1h259q43 -7 49 -39zM1554 -301q-6 -224 -146 -329q-66 -49 -142 -49q-153 0 -245 92t-107 258q-1 9 -1 24.5t6 51.5q8 51 71.5 100.5t116.5 50.5h1q45 0 80 -15t43 -25 q40 -50 -40 -130q-29 -29 -62 -42q49 -151 212 -166q23 54 23 122.5t-45 309.5q-10 52 47 109q52 53 98 50q43 -3 49 -39q41 -214 41 -351v-22z"/>
            <glyph horiz-adv-x="1343"
                   d="M1527 1283q11 -52 -42.5 -105.5t-102.5 -53.5h-204q19 -143 23.5 -216.5t5.5 -73.5t11 -18t-9 -60q13 -353 -36 -719q-6 -44 -39 -77q-76 -76 -129 -55q-34 14 -28 58q45 338 36 659q-247 -94 -423 -144q-80 -304 -272 -519q-30 -33 -69.5 -50t-67 1t-18.5 57.5t39 73.5 q136 152 198 391q-243 -44 -323 36.5t23 268.5q63 115 169.5 164t219 -29.5t123.5 -209.5q163 44 392 130q-12 168 -40 332h-1084q-43 6 -49 38q-11 52 42.5 105.5t102.5 53.5h1502q43 -6 49 -38zM399 617q-18 41 -58.5 69t-76.5 35q-34 -62 -16 -84q33 -33 151 -20z M1234 -679q4 -50 -56 -110t-114 -37q-7 3 -13 9q-12 19 -13 32q-12 150 -108 356q-69 -39 -165 -54t-146 35t-16.5 166t139.5 179q58 34 124.5 39.5t108.5 -15.5l10 43q10 43 42 74q77 78 130 49q31 -17 22 -62q-36 -173 -82 -268q124 -250 137 -436zM853 -285 q-25 28 -65 25q-1 -19 3 -22l11 -6q19 -4 51 3z"/>
            <glyph horiz-adv-x="1343"
                   d="M1527 1283q11 -52 -42.5 -105.5t-102.5 -53.5h-204q19 -143 23.5 -216.5t5.5 -73.5t11 -18t-9 -60q13 -353 -36 -719q-6 -44 -39 -77q-76 -76 -129 -55q-34 14 -28 58q45 338 36 659q-247 -94 -423 -144q-80 -304 -272 -519q-30 -33 -69.5 -50t-67 1t-18.5 57.5t39 73.5 q136 152 198 391q-243 -44 -323 36.5t23 268.5q63 115 169.5 164t219 -29.5t123.5 -209.5q163 44 392 130q-12 168 -40 332h-1084q-43 6 -49 38q-11 52 42.5 105.5t102.5 53.5h1502q43 -6 49 -38zM399 617q-18 41 -58.5 69t-76.5 35q-34 -62 -16 -84q33 -33 151 -20z M1264 -593q39 -59 -37 -135q-26 -26 -57 -39q-273 -115 -397 9q-102 102 -6 262q-75 33 -125 119q-61 108 34.5 232.5t232.5 144.5q33 5 72 0q14 44 58.5 73.5t63.5 30.5q51 2 61 -32q23 -73 20 -129q-4 -83 -107 -149q-58 -37 -136 -8t-118 15q-1 -43 38 -81.5t150 -44.5 q83 21 140 20.5t71.5 -5.5t23 -28t-6.5 -56q-61 -134 -303 -129q-10 -3 -15 -5q-14 -30 30 -69q70 -61 236 9q43 18 70 1q5 -4 7 -6z"/>
            <glyph horiz-adv-x="1343"
                   d="M1527 1283q11 -52 -42.5 -105.5t-102.5 -53.5h-204q19 -143 23.5 -216.5t5.5 -73.5t11 -18t-9 -60q13 -353 -36 -719q-6 -44 -39 -77q-76 -76 -129 -55q-34 14 -28 58q45 338 36 659q-247 -94 -423 -144q-80 -304 -272 -519q-30 -33 -69.5 -50t-67 1t-18.5 57.5t39 73.5 q136 152 198 391q-243 -44 -323 36.5t23 268.5q63 115 169.5 164t219 -29.5t123.5 -209.5q163 44 392 130q-12 168 -40 332h-1084q-43 6 -49 38q-11 52 42.5 105.5t102.5 53.5h1502q43 -6 49 -38zM399 617q-18 41 -58.5 69t-76.5 35q-34 -62 -16 -84q33 -33 151 -20z M1212 -313q-6 -224 -146 -329q-66 -49 -142 -49q-153 0 -245 92t-107 258q-1 9 -1 24.5t6 51.5q8 51 71.5 100.5t116.5 50.5h1q45 0 80 -15t43 -25q40 -50 -40 -130q-29 -29 -62 -42q49 -151 212 -166q23 54 23 122.5t-45 309.5q-10 52 47 109q52 53 98 50q43 -3 49 -39 q41 -214 41 -351v-22z"/>
            <glyph horiz-adv-x="1273"
                   d="M868 651h-490q-25 -86 -64 -175q-67 -151 -28 -190q26 -25 105 -13q193 29 311 75t137 88t29 215zM1432 1283q11 -52 -42.5 -105.5t-102.5 -53.5h-227q34 -616 3 -1081q-3 -47 -56.5 -100.5t-106.5 -38.5q-12 3 -20 11q-15 23 -13 42l12 322q-182 -145 -560 -202 q-142 -21 -203 40q-92 92 20 347q51 114 72 223q-7 27 10 61q24 195 -46 376h-270q-43 6 -49 38q-11 52 42.5 105.5t102.5 53.5h1385q43 -6 49 -38zM870 849q-4 135 -26 275h-441q28 -134 14 -275h453zM1129 -675q4 -50 -56 -110t-114 -37q-8 3 -14 9q-12 19 -13 32 q-11 150 -107 356q-69 -39 -165 -54t-146 35t-17 166t140 179q57 34 124 39.5t109 -15.5l10 43q10 43 41 74q78 78 131 49q30 -17 21 -62q-36 -173 -81 -268q123 -250 137 -436zM748 -281q-26 28 -66 25q-1 -19 3 -22l11 -6q20 -4 52 3z"/>
            <glyph horiz-adv-x="1273"
                   d="M868 651h-490q-25 -86 -64 -175q-67 -151 -28 -190q26 -25 105 -13q193 29 311 75t137 88t29 215zM1432 1283q11 -52 -42.5 -105.5t-102.5 -53.5h-227q34 -616 3 -1081q-3 -47 -56.5 -100.5t-106.5 -38.5q-12 3 -20 11q-15 23 -13 42l12 322q-182 -145 -560 -202 q-142 -21 -203 40q-92 92 20 347q51 114 72 223q-7 27 10 61q24 195 -46 376h-270q-43 6 -49 38q-11 52 42.5 105.5t102.5 53.5h1385q43 -6 49 -38zM870 849q-4 135 -26 275h-441q28 -134 14 -275h453zM1155 -610q39 -60 -36 -135q-27 -27 -58 -40q-273 -115 -397 10 q-101 101 -5 261q-76 33 -125 120q-62 108 33.5 232t233.5 145q32 4 72 0q13 43 58 72.5t64 30.5q51 2 61 -32q22 -73 20 -128q-4 -83 -107 -150q-58 -37 -136.5 -8t-118.5 16q-1 -43 38.5 -81.5t149.5 -44.5q83 20 140 20t72 -5t23 -28t-7 -56q-61 -135 -303 -129l-15 -6 q-14 -29 31 -68q69 -61 236 9q43 18 69 0q6 -4 7 -5z"/>
            <glyph horiz-adv-x="1273"
                   d="M868 651h-490q-25 -86 -64 -175q-67 -151 -28 -190q26 -25 105 -13q193 29 311 75t137 88t29 215zM1432 1283q11 -52 -42.5 -105.5t-102.5 -53.5h-227q34 -616 3 -1081q-3 -47 -56.5 -100.5t-106.5 -38.5q-12 3 -20 11q-15 23 -13 42l12 322q-182 -145 -560 -202 q-142 -21 -203 40q-92 92 20 347q51 114 72 223q-7 27 10 61q24 195 -46 376h-270q-43 6 -49 38q-11 52 42.5 105.5t102.5 53.5h1385q43 -6 49 -38zM870 849q-4 135 -26 275h-441q28 -134 14 -275h453zM1096 -301q-6 -224 -146 -329q-66 -49 -142 -49q-153 0 -245 92 t-107 258q-1 9 -1 24.5t6 51.5q8 51 71.5 100.5t116.5 50.5h1q45 0 80 -15t43 -25q40 -50 -40 -130q-29 -29 -62 -42q49 -151 212 -166q23 54 23 122.5t-45 309.5q-10 52 47 109q52 53 98 50q43 -3 49 -39q41 -214 41 -351v-22z"/>
            <glyph horiz-adv-x="1253"
                   d="M1407 1283q11 -52 -42.5 -105.5t-102.5 -53.5h-209q92 -566 4 -1089q-7 -44 -39 -76q-77 -78 -130 -52q-33 15 -25 58q26 163 35 331q-145 -154 -370 -184q-304 -40 -389.5 45.5t-11.5 247.5q196 434 39 719h-286q-43 6 -49 38q-11 52 42.5 105.5t102.5 53.5h1382 q43 -6 49 -38zM874 616q26 171 -39 508h-424q78 -299 -108 -709q-26 -57 0 -83q57 -56 299 -24q126 17 186 77t86 231zM1117 -695q4 -50 -56 -110t-114 -37q-8 3 -14 9q-12 19 -13 32q-11 150 -107 356q-69 -39 -165 -54t-146 35t-17 166t140 179q57 34 124 39.5t109 -15.5 l10 43q10 43 41 74q78 78 131 49q30 -17 21 -62q-36 -173 -81 -268q123 -250 137 -436zM736 -301q-26 28 -66 25q-1 -19 3 -22l11 -6q20 -4 52 3z"/>
            <glyph horiz-adv-x="1253"
                   d="M1407 1283q11 -52 -42.5 -105.5t-102.5 -53.5h-209q92 -566 4 -1089q-7 -44 -39 -76q-77 -78 -130 -52q-33 15 -25 58q26 163 35 331q-145 -154 -370 -184q-304 -40 -389.5 45.5t-11.5 247.5q196 434 39 719h-286q-43 6 -49 38q-11 52 42.5 105.5t102.5 53.5h1382 q43 -6 49 -38zM874 616q26 171 -39 508h-424q78 -299 -108 -709q-26 -57 0 -83q57 -56 299 -24q126 17 186 77t86 231zM1143 -622q39 -60 -36 -135q-27 -27 -58 -40q-273 -115 -397 10q-101 101 -5 261q-76 33 -125 120q-62 108 33.5 232t233.5 145q32 4 72 0q13 43 58 72.5 t64 30.5q51 2 61 -32q22 -73 20 -128q-4 -83 -107 -150q-58 -37 -136.5 -8t-118.5 16q-1 -43 38.5 -81.5t149.5 -44.5q83 20 140 20t72 -5t23 -28t-7 -56q-61 -135 -303 -129l-15 -6q-14 -29 31 -68q69 -61 236 9q43 18 69 0q6 -4 7 -5z"/>
            <glyph horiz-adv-x="1253"
                   d="M1407 1283q11 -52 -42.5 -105.5t-102.5 -53.5h-209q92 -566 4 -1089q-7 -44 -39 -76q-77 -78 -130 -52q-33 15 -25 58q26 163 35 331q-145 -154 -370 -184q-304 -40 -389.5 45.5t-11.5 247.5q196 434 39 719h-286q-43 6 -49 38q-11 52 42.5 105.5t102.5 53.5h1382 q43 -6 49 -38zM874 616q26 171 -39 508h-424q78 -299 -108 -709q-26 -57 0 -83q57 -56 299 -24q126 17 186 77t86 231zM1098 -313q-6 -224 -146 -329q-66 -49 -142 -49q-153 0 -245 92t-107 258q-1 9 -1 24.5t6 51.5q8 51 71.5 100.5t116.5 50.5h1q45 0 80 -15t43 -25 q40 -50 -40 -130q-29 -29 -62 -42q49 -151 212 -166q23 54 23 122.5t-45 309.5q-10 52 47 109q52 53 98 50q43 -3 49 -39q41 -214 41 -351v-22z"/>
            <glyph horiz-adv-x="1388"
                   d="M1562 1283q11 -52 -42.5 -105.5t-102.5 -53.5h-602q-15 -48 -42 -96q464 -72 410 -985q-2 -46 -56 -100t-107 -39q-12 3 -20 11q-15 22 -13 42q49 851 -362 879l-38 -40q-51 -51 -91 -86l-57 -52q-166 -166 -136 -412q14 -115 94 -90q50 15 102 54t70 48q51 27 81.5 -3.5 t4 -78.5t-61.5 -74q-305 -231 -429 -108q-45 46 -57 140q-48 382 289 676q231 200 240 314h-756q-43 6 -49 38q-11 52 42.5 105.5t102.5 53.5h1537q43 -6 49 -38zM1221 -701q4 -50 -56 -110t-113 -37q-8 3 -14 9q-12 19 -13 32q-12 150 -108 356q-69 -39 -165 -54t-146 35 t-16.5 166t139.5 179q58 34 124.5 39.5t108.5 -15.5l10 43q10 43 42 74q77 78 130 49q31 -17 22 -62q-36 -173 -82 -268q124 -250 137 -436zM840 -307q-25 28 -65 25q-1 -19 3 -22l11 -6q19 -4 51 3z"/>
            <glyph horiz-adv-x="1388"
                   d="M1562 1283q11 -52 -42.5 -105.5t-102.5 -53.5h-602q-15 -48 -42 -96q464 -72 410 -985q-2 -46 -56 -100t-107 -39q-12 3 -20 11q-15 22 -13 42q49 851 -362 879l-38 -40q-51 -51 -91 -86l-57 -52q-166 -166 -136 -412q14 -115 94 -90q50 15 102 54t70 48q51 27 81.5 -3.5 t4 -78.5t-61.5 -74q-305 -231 -429 -108q-45 46 -57 140q-48 382 289 676q231 200 240 314h-756q-43 6 -49 38q-11 52 42.5 105.5t102.5 53.5h1537q43 -6 49 -38zM1271 -618q39 -59 -36 -135q-27 -26 -58 -39q-273 -115 -397 9q-101 102 -5 262q-76 33 -125 119 q-62 108 33.5 232.5t233.5 144.5q32 5 72 0q13 44 58 73.5t64 30.5q51 2 61 -32q22 -73 20 -129q-4 -83 -107 -149q-58 -37 -136.5 -8t-118.5 15q-1 -43 38.5 -81.5t149.5 -44.5q83 21 140 20.5t72 -5.5t23 -28t-7 -56q-61 -134 -303 -129q-10 -3 -15 -5q-14 -30 31 -69 q69 -61 236 9q43 18 69 1q6 -4 7 -6z"/>
            <glyph horiz-adv-x="1388"
                   d="M1562 1283q11 -52 -42.5 -105.5t-102.5 -53.5h-602q-15 -48 -42 -96q464 -72 410 -985q-2 -46 -56 -100t-107 -39q-12 3 -20 11q-15 22 -13 42q49 851 -362 879l-38 -40q-51 -51 -91 -86l-57 -52q-166 -166 -136 -412q14 -115 94 -90q50 15 102 54t70 48q51 27 81.5 -3.5 t4 -78.5t-61.5 -74q-305 -231 -429 -108q-45 46 -57 140q-48 382 289 676q231 200 240 314h-756q-43 6 -49 38q-11 52 42.5 105.5t102.5 53.5h1537q43 -6 49 -38zM1162 -338q-49 -219 -207 -294q-74 -36 -149 -21q-150 29 -222 137t-55 275q0 8 3 23.5t16 49.5 q18 48 89.5 84.5t124.5 26.5h1q44 -9 75.5 -30t37.5 -32q29 -57 -65 -121q-33 -22 -69 -28q19 -158 176 -205q33 49 46.5 116.5t15.5 312.5q0 53 68 98q61 41 105 29q42 -11 41 -47q-1 -218 -27 -353z"/>
            <glyph horiz-adv-x="1243"
                   d="M1382 1283q11 -52 -42.5 -105.5t-102.5 -53.5q-137 0 -203 -18q18 -62 21 -127.5t6 -116.5q24 -456 -3 -820q-3 -46 -36 -79q-75 -75 -128 -59q-11 3 -19 11q-15 23 -13 43q11 165 14 322q-146 -151 -403 -217.5t-355 31.5q-112 112 17 426q175 428 20 555 q-79 65 -268 49q-43 -3 -54 29.5t8 66.5q51 94 131.5 101t135.5 1l52 -6q27 -3 84 -24q197 -72 180 -358q-9 -152 -103 -381t-35.5 -287.5t234.5 -13t250.5 120t84.5 211t8 186.5t-20 199q-46 150 106 263q123 92 384 89q42 0 49 -38zM1109 -693q4 -51 -56 -111t-114 -37 q-7 4 -13 10q-12 19 -13 31q-12 150 -108 357q-69 -40 -165 -54.5t-146 35.5t-16.5 166t139.5 178q58 34 124.5 39.5t108.5 -15.5l10 43q10 43 42 75q77 77 130 48q31 -17 22 -61q-36 -174 -82 -268q124 -250 137 -436zM728 -300q-25 28 -65 25q-1 -19 3 -21l11 -6 q19 -4 51 2z"/>
            <glyph horiz-adv-x="1243"
                   d="M1382 1283q11 -52 -42.5 -105.5t-102.5 -53.5q-137 0 -203 -18q18 -62 21 -127.5t6 -116.5q24 -456 -3 -820q-3 -46 -36 -79q-75 -75 -128 -59q-11 3 -19 11q-15 23 -13 43q11 165 14 322q-146 -151 -403 -217.5t-355 31.5q-112 112 17 426q175 428 20 555 q-79 65 -268 49q-43 -3 -54 29.5t8 66.5q51 94 131.5 101t135.5 1l52 -6q27 -3 84 -24q197 -72 180 -358q-9 -152 -103 -381t-35.5 -287.5t234.5 -13t250.5 120t84.5 211t8 186.5t-20 199q-46 150 106 263q123 92 384 89q42 0 49 -38zM1143 -632q39 -59 -37 -135 q-26 -26 -57 -39q-273 -115 -397 9q-102 102 -6 262q-75 33 -125 119q-61 108 34.5 232.5t232.5 144.5q33 5 72 0q14 44 58.5 73.5t63.5 30.5q51 2 62 -32q22 -73 19 -129q-4 -83 -107 -149q-58 -37 -136 -8t-118 15q-1 -43 38 -81.5t150 -44.5q83 21 140 20.5t71.5 -5.5 t23 -28t-6.5 -56q-61 -134 -303 -129q-10 -3 -15 -5q-14 -30 30 -69q70 -61 236 9q43 18 70 1q5 -4 7 -6z"/>
            <glyph horiz-adv-x="1243"
                   d="M1382 1283q11 -52 -42.5 -105.5t-102.5 -53.5q-137 0 -203 -18q18 -62 21 -127.5t6 -116.5q24 -456 -3 -820q-3 -46 -36 -79q-75 -75 -128 -59q-11 3 -19 11q-15 23 -13 43q11 165 14 322q-146 -151 -403 -217.5t-355 31.5q-112 112 17 426q175 428 20 555 q-79 65 -268 49q-43 -3 -54 29.5t8 66.5q51 94 131.5 101t135.5 1l52 -6q27 -3 84 -24q197 -72 180 -358q-9 -152 -103 -381t-35.5 -287.5t234.5 -13t250.5 120t84.5 211t8 186.5t-20 199q-46 150 106 263q123 92 384 89q42 0 49 -38zM1098 -314q-6 -224 -146 -328 q-66 -49 -142 -49q-153 0 -245 91.5t-107 258.5q-1 8 -1 23.5t6 52.5q8 50 71.5 99.5t116.5 50.5h1q45 0 80 -15t43 -24q40 -51 -40 -131q-29 -28 -62 -41q49 -152 212 -167q23 55 23 123t-45 309q-10 52 47 110q52 52 98 49q43 -3 49 -38q41 -214 41 -352v-22z"/>
            <glyph horiz-adv-x="1238"
                   d="M1399 1283q11 -52 -42.5 -105.5t-102.5 -53.5h-148q43 -590 -39 -1089q-7 -44 -39 -76q-77 -77 -130 -53q-33 16 -25 59q24 153 37 315q-154 -130 -333 -153q-280 -36 -338 86q-87 186 105 460q-76 15 -114 61q-109 132 7 390h-339q-43 6 -49 38q-11 52 42.5 105.5 t102.5 53.5h1047h1h2h306q43 -6 49 -38zM911 972l-10 152q-371 -2 -502 -25q-53 -142 11 -206q46 -46 206 -22q174 73 295 101zM914 775q-200 -70 -344 -95q-45 -19 -68 -33q-129 -176 -75 -290q28 -60 226 -34q121 16 200 95q36 35 47.5 133t13.5 224zM1118 -697 q4 -50 -56 -110t-114 -37q-7 3 -13 9q-12 19 -13 32q-12 150 -108 356q-69 -39 -165 -54t-146 35t-16.5 166t139.5 179q58 34 124.5 39.5t108.5 -15.5l10 43q10 43 42 74q77 78 130 49q31 -17 22 -62q-36 -173 -82 -268q124 -250 137 -436zM737 -303q-25 28 -65 25 q-1 -19 3 -22l11 -6q19 -4 51 3z"/>
            <glyph horiz-adv-x="1238"
                   d="M1399 1283q11 -52 -42.5 -105.5t-102.5 -53.5h-148q43 -590 -39 -1089q-7 -44 -39 -76q-77 -77 -130 -53q-33 16 -25 59q24 153 37 315q-154 -130 -333 -153q-280 -36 -338 86q-87 186 105 460q-76 15 -114 61q-109 132 7 390h-339q-43 6 -49 38q-11 52 42.5 105.5 t102.5 53.5h1047h1h2h306q43 -6 49 -38zM911 972l-10 152q-371 -2 -502 -25q-53 -142 11 -206q46 -46 206 -22q174 73 295 101zM914 775q-200 -70 -344 -95q-45 -19 -68 -33q-129 -176 -75 -290q28 -60 226 -34q121 16 200 95q36 35 47.5 133t13.5 224zM1149 -621 q39 -59 -36 -135q-27 -26 -58 -39q-273 -115 -397 9q-101 102 -5 262q-76 33 -125 119q-62 108 33.5 232.5t233.5 144.5q32 5 72 0q13 44 58 73.5t64 30.5q51 2 61 -32q22 -73 20 -129q-4 -83 -107 -149q-58 -37 -136.5 -8t-118.5 15q-1 -43 38.5 -81.5t149.5 -44.5 q83 21 140 20.5t72 -5.5t23 -28t-7 -56q-61 -134 -303 -129q-10 -3 -15 -5q-14 -30 31 -69q69 -61 236 9q43 18 69 1q6 -4 7 -6z"/>
            <glyph horiz-adv-x="1238"
                   d="M1399 1283q11 -52 -42.5 -105.5t-102.5 -53.5h-148q43 -590 -39 -1089q-7 -44 -39 -76q-77 -77 -130 -53q-33 16 -25 59q24 153 37 315q-154 -130 -333 -153q-280 -36 -338 86q-87 186 105 460q-76 15 -114 61q-109 132 7 390h-339q-43 6 -49 38q-11 52 42.5 105.5 t102.5 53.5h1047h1h2h306q43 -6 49 -38zM911 972l-10 152q-371 -2 -502 -25q-53 -142 11 -206q46 -46 206 -22q174 73 295 101zM914 775q-200 -70 -344 -95q-45 -19 -68 -33q-129 -176 -75 -290q28 -60 226 -34q121 16 200 95q36 35 47.5 133t13.5 224zM1102 -338 q-6 -224 -146 -329q-66 -49 -143 -49q-152 0 -244 92t-108 258q-1 9 -1 24.5t6 51.5q8 51 71.5 100.5t116.5 50.5h2q45 0 80 -15t42 -25q41 -50 -40 -130q-28 -29 -62 -42q49 -151 212 -166q23 54 23 122.5t-45 309.5q-10 52 48 109q52 53 97 50q43 -3 50 -39 q41 -214 41 -351v-22z"/>
            <glyph horiz-adv-x="1198"
                   d="M1363 1282q9 -52 -44.5 -105t-102.5 -53l-141 2q66 -446 18 -1084q-3 -46 -36 -79q-75 -75 -128 -59q-11 3 -19 11q-15 23 -13 43q34 463 8 819q-142 0 -384 -78q2 -265 -110 -406q-64 -80 -125 -120q-193 -127 -283 -36q-43 42 -60 151t24 209q84 203 304 293l44 18 q-2 30 -10.5 96.5t-62.5 120.5q-100 99 -349 101q-46 0 -53.5 15.5t-10.5 28.5t10.5 47t53.5 68t69 34q388 1 448 -60q76 -76 93 -267q7 -68 9 -110q193 68 373 87q-13 102 -32 193q-11 52 41 104t117.5 56.5t302.5 -1.5q42 -1 49 -39zM328 631l-83 -34q-88 -36 -107 -83 t-8 -115t37 -87.5t95 28.5q49 35 64 185q5 46 2 106zM1139 -674q4 -50 -56 -110t-114 -37q-8 3 -14 9q-12 19 -13 32q-11 150 -107 356q-69 -39 -165 -54t-146 35t-17 166t140 179q57 34 124 39.5t109 -15.5l10 43q10 43 41 74q78 78 131 49q30 -17 21 -62 q-36 -173 -81 -268q123 -250 137 -436zM758 -280q-26 28 -66 25q-1 -19 3 -22l11 -6q20 -4 52 3z"/>
            <glyph horiz-adv-x="1198"
                   d="M1363 1282q9 -52 -44.5 -105t-102.5 -53l-141 2q66 -446 18 -1084q-3 -46 -36 -79q-75 -75 -128 -59q-11 3 -19 11q-15 23 -13 43q34 463 8 819q-142 0 -384 -78q2 -265 -110 -406q-64 -80 -125 -120q-193 -127 -283 -36q-43 42 -60 151t24 209q84 203 304 293l44 18 q-2 30 -10.5 96.5t-62.5 120.5q-100 99 -349 101q-46 0 -53.5 15.5t-10.5 28.5t10.5 47t53.5 68t69 34q388 1 448 -60q76 -76 93 -267q7 -68 9 -110q193 68 373 87q-13 102 -32 193q-11 52 41 104t117.5 56.5t302.5 -1.5q42 -1 49 -39zM328 631l-83 -34q-88 -36 -107 -83 t-8 -115t37 -87.5t95 28.5q49 35 64 185q5 46 2 106zM1176 -608q39 -60 -37 -135q-26 -27 -57 -40q-273 -115 -397 10q-102 101 -6 261q-75 33 -125 120q-61 108 34.5 232t232.5 145q33 4 72 0q14 43 58.5 72.5t63.5 30.5q51 2 61 -32q23 -73 20 -128q-4 -83 -107 -150 q-58 -37 -136 -8t-118 16q-1 -43 38 -81.5t150 -44.5q83 20 140 20t71.5 -5t23 -28t-6.5 -56q-61 -135 -303 -129l-15 -6q-14 -29 30 -68q70 -61 236 9q43 18 70 0q5 -4 7 -5z"/>
            <glyph horiz-adv-x="1198"
                   d="M1363 1282q9 -52 -44.5 -105t-102.5 -53l-141 2q66 -446 18 -1084q-3 -46 -36 -79q-75 -75 -128 -59q-11 3 -19 11q-15 23 -13 43q34 463 8 819q-142 0 -384 -78q2 -265 -110 -406q-64 -80 -125 -120q-193 -127 -283 -36q-43 42 -60 151t24 209q84 203 304 293l44 18 q-2 30 -10.5 96.5t-62.5 120.5q-100 99 -349 101q-46 0 -53.5 15.5t-10.5 28.5t10.5 47t53.5 68t69 34q388 1 448 -60q76 -76 93 -267q7 -68 9 -110q193 68 373 87q-13 102 -32 193q-11 52 41 104t117.5 56.5t302.5 -1.5q42 -1 49 -39zM328 631l-83 -34q-88 -36 -107 -83 t-8 -115t37 -87.5t95 28.5q49 35 64 185q5 46 2 106zM1132 -297q-6 -224 -146 -328q-66 -49 -143 -49q-152 0 -244 91.5t-108 258.5q-1 8 -1 23.5t6 52.5q8 50 71.5 99.5t116.5 50.5h2q45 0 80 -15t42 -24q41 -51 -40 -131q-28 -28 -62 -41q49 -152 212 -167q23 55 23 123 t-45 309q-10 52 48 110q52 52 97 49q43 -3 50 -38q41 -214 41 -352v-22z"/>
            <glyph horiz-adv-x="1463"
                   d="M1113 762q-7 176 -27 362h-731q58 -272 -71 -563q-45 -101 24 -169.5t252 -104.5q72 -13 96.5 -6t33.5 12q44 53 42 231q-93 7 -99 69q-1 10 1 39q9 113 109 182q59 41 109.5 32t68.5 -118zM1600 1283q11 -52 -42.5 -105.5t-102.5 -53.5h-162q52 -598 -25 -1089 q-7 -43 -40 -76q-77 -77 -130 -53q-32 15 -26 59q45 288 45 614l-123 -21l-67 -12q-15 -230 -146.5 -361.5t-342.5 -91.5t-303 132q-120 120 -29 324q131 292 17 575h-209q-43 6 -49 38q-11 52 42.5 105.5t102.5 53.5h1541q43 -6 49 -38zM1307 -675q4 -50 -56 -110t-114 -37 q-8 3 -14 9q-12 19 -13 32q-11 150 -107 356q-69 -39 -165 -54t-146 35t-17 166t140 179q57 34 124 39.5t109 -15.5l10 43q10 43 41 74q78 78 131 49q30 -17 21 -62q-36 -173 -81 -268q123 -250 137 -436zM926 -281q-26 28 -66 25q-1 -19 3 -22l11 -6q20 -4 52 3z"/>
            <glyph horiz-adv-x="1463"
                   d="M1113 762q-7 176 -27 362h-731q58 -272 -71 -563q-45 -101 24 -169.5t252 -104.5q72 -13 96.5 -6t33.5 12q44 53 42 231q-93 7 -99 69q-1 10 1 39q9 113 109 182q59 41 109.5 32t68.5 -118zM1600 1283q11 -52 -42.5 -105.5t-102.5 -53.5h-162q52 -598 -25 -1089 q-7 -43 -40 -76q-77 -77 -130 -53q-32 15 -26 59q45 288 45 614l-123 -21l-67 -12q-15 -230 -146.5 -361.5t-342.5 -91.5t-303 132q-120 120 -29 324q131 292 17 575h-209q-43 6 -49 38q-11 52 42.5 105.5t102.5 53.5h1541q43 -6 49 -38zM1360 -615q39 -60 -37 -135 q-26 -27 -57 -40q-273 -115 -397 10q-102 101 -6 261q-75 33 -125 120q-61 108 34.5 232t232.5 145q33 4 72 0q14 43 58.5 72.5t63.5 30.5q51 2 61 -32q23 -73 20 -128q-4 -83 -107 -150q-58 -37 -136 -8t-118 16q-1 -43 38 -81.5t150 -44.5q83 20 140 20t71.5 -5t23 -28 t-6.5 -56q-61 -135 -303 -129l-15 -6q-14 -29 30 -68q70 -61 236 9q43 18 70 0q5 -4 7 -5z"/>
            <glyph horiz-adv-x="1463"
                   d="M1113 762q-7 176 -27 362h-731q58 -272 -71 -563q-45 -101 24 -169.5t252 -104.5q72 -13 96.5 -6t33.5 12q44 53 42 231q-93 7 -99 69q-1 10 1 39q9 113 109 182q59 41 109.5 32t68.5 -118zM1600 1283q11 -52 -42.5 -105.5t-102.5 -53.5h-162q52 -598 -25 -1089 q-7 -43 -40 -76q-77 -77 -130 -53q-32 15 -26 59q45 288 45 614l-123 -21l-67 -12q-15 -230 -146.5 -361.5t-342.5 -91.5t-303 132q-120 120 -29 324q131 292 17 575h-209q-43 6 -49 38q-11 52 42.5 105.5t102.5 53.5h1541q43 -6 49 -38zM1300 -306q-6 -224 -146 -328 q-66 -49 -142 -49q-153 0 -245 91.5t-107 258.5q-1 8 -1 23.5t6 52.5q8 50 71.5 99.5t116.5 50.5h1q45 0 80 -15t43 -24q40 -51 -40 -131q-29 -28 -62 -41q49 -152 212 -167q23 55 23 123t-45 309q-10 52 47 110q52 52 98 49q43 -3 49 -38q41 -214 41 -352v-22z"/>
            <glyph horiz-adv-x="1234"
                   d="M824.5 212.5q6.5 -49.5 -48.5 -104t-98.5 -49.5t-49.5 42q-2 13 -5.5 16.5t-14.5 2.5q-42 -4 -54.5 26.5t11.5 77t75 76.5q23 13 45 16q70 9 101.5 -22.5t38 -81zM1454 1283q11 -52 -42.5 -105.5t-102.5 -53.5h-183q99 -649 44 -1086q-6 -45 -38 -77q-77 -77 -130 -56 q-33 14 -28 57q42 335 -12 806l-385 -62q12 -313 -174 -453q-255 -193 -351 -97q-75 75 -27 312q24 114 64.5 169t71.5 85q83 84 181 108l28 7q-1 14 -2 33q-3 122 -69 188t-142 66h-245q-43 6 -49 38q-11 52 42.5 105.5t102.5 53.5h1397q43 -6 49 -38zM380 654l-80 -26 q-62 -20 -75 -44.5t-20 -58.5q-33 -160 3 -188q23 -18 151 78q3 3 7 11q29 74 14 228zM939 945l-28 179h-383q48 -139 47 -232zM1225 -681q4 -50 -56 -110t-113 -37q-8 3 -14 9q-12 19 -13 32q-12 150 -108 356q-69 -39 -165 -54t-146 35t-16.5 166t139.5 179 q58 34 124.5 39.5t108.5 -15.5l10 43q10 43 42 74q77 78 130 49q31 -17 22 -62q-36 -173 -82 -268q124 -250 137 -436zM844 -287q-25 28 -65 25q-1 -19 3 -22l11 -6q19 -4 51 3z"/>
            <glyph horiz-adv-x="1234"
                   d="M824.5 212.5q6.5 -49.5 -48.5 -104t-98.5 -49.5t-49.5 42q-2 13 -5.5 16.5t-14.5 2.5q-42 -4 -54.5 26.5t11.5 77t75 76.5q23 13 45 16q70 9 101.5 -22.5t38 -81zM1454 1283q11 -52 -42.5 -105.5t-102.5 -53.5h-183q99 -649 44 -1086q-6 -45 -38 -77q-77 -77 -130 -56 q-33 14 -28 57q42 335 -12 806l-385 -62q12 -313 -174 -453q-255 -193 -351 -97q-75 75 -27 312q24 114 64.5 169t71.5 85q83 84 181 108l28 7q-1 14 -2 33q-3 122 -69 188t-142 66h-245q-43 6 -49 38q-11 52 42.5 105.5t102.5 53.5h1397q43 -6 49 -38zM380 654l-80 -26 q-62 -20 -75 -44.5t-20 -58.5q-33 -160 3 -188q23 -18 151 78q3 3 7 11q29 74 14 228zM939 945l-28 179h-383q48 -139 47 -232zM1202 -611q39 -60 -36 -135q-27 -27 -58 -40q-273 -115 -397 10q-101 101 -5 261q-76 33 -125 120q-62 108 33.5 232t233.5 145q32 4 72 0 q13 43 58 72.5t64 30.5q51 2 61 -32q22 -73 19 -128q-3 -83 -106 -150q-58 -37 -136.5 -8t-118.5 16q-1 -43 38.5 -81.5t149.5 -44.5q83 20 140 20t72 -5t23 -28t-7 -56q-61 -135 -303 -129l-15 -6q-14 -29 31 -68q69 -61 236 9q43 18 69 0q6 -4 7 -5z"/>
            <glyph horiz-adv-x="1234"
                   d="M824.5 212.5q6.5 -49.5 -48.5 -104t-98.5 -49.5t-49.5 42q-2 13 -5.5 16.5t-14.5 2.5q-42 -4 -54.5 26.5t11.5 77t75 76.5q23 13 45 16q70 9 101.5 -22.5t38 -81zM1454 1283q11 -52 -42.5 -105.5t-102.5 -53.5h-183q99 -649 44 -1086q-6 -45 -38 -77q-77 -77 -130 -56 q-33 14 -28 57q42 335 -12 806l-385 -62q12 -313 -174 -453q-255 -193 -351 -97q-75 75 -27 312q24 114 64.5 169t71.5 85q83 84 181 108l28 7q-1 14 -2 33q-3 122 -69 188t-142 66h-245q-43 6 -49 38q-11 52 42.5 105.5t102.5 53.5h1397q43 -6 49 -38zM380 654l-80 -26 q-62 -20 -75 -44.5t-20 -58.5q-33 -160 3 -188q23 -18 151 78q3 3 7 11q29 74 14 228zM939 945l-28 179h-383q48 -139 47 -232zM1153 -321q-6 -224 -146 -329q-66 -49 -142 -49q-153 0 -245 92t-107 258q-1 9 -1 24.5t6 51.5q8 51 71.5 100.5t116.5 50.5h1q45 0 80 -15 t43 -25q40 -50 -40 -130q-29 -29 -62 -42q49 -151 212 -166q23 54 23 122.5t-45 309.5q-10 52 47 109q52 53 98 50q43 -3 49 -39q41 -214 41 -351v-22z"/>
            <glyph horiz-adv-x="1234"
                   d="M1454 1283q11 -52 -42.5 -105.5t-102.5 -53.5h-183q99 -649 44 -1086q-6 -45 -38 -77q-77 -77 -130 -56q-33 14 -28 57q42 335 -12 806l-385 -62q12 -313 -174 -453q-255 -193 -351 -97q-75 75 -27 312q24 114 64.5 169t71.5 85q83 84 181 108l28 7q-1 14 -2 33 q-3 122 -69 188t-142 66h-245q-43 6 -49 38q-11 52 42.5 105.5t102.5 53.5h1397q43 -6 49 -38zM380 654l-80 -26q-62 -20 -75 -44.5t-20 -58.5q-33 -160 3 -188q23 -18 151 78q3 3 7 11q29 74 14 228zM939 945l-28 179h-383q48 -139 47 -232zM1225 -688q4 -51 -56 -111 t-114 -37q-8 4 -14 10q-12 19 -13 31q-11 150 -107 357q-69 -40 -165 -54.5t-146 35.5t-17 166t140 178q57 34 124 39.5t109 -15.5l10 43q10 43 41 75q78 77 131 48q30 -17 21 -61q-36 -174 -81 -268q123 -250 137 -436zM844 -295q-26 28 -66 25q-1 -19 3 -21l11 -6 q20 -4 52 2z"/>
            <glyph horiz-adv-x="1234"
                   d="M1454 1283q11 -52 -42.5 -105.5t-102.5 -53.5h-183q99 -649 44 -1086q-6 -45 -38 -77q-77 -77 -130 -56q-33 14 -28 57q42 335 -12 806l-385 -62q12 -313 -174 -453q-255 -193 -351 -97q-75 75 -27 312q24 114 64.5 169t71.5 85q83 84 181 108l28 7q-1 14 -2 33 q-3 122 -69 188t-142 66h-245q-43 6 -49 38q-11 52 42.5 105.5t102.5 53.5h1397q43 -6 49 -38zM380 654l-80 -26q-62 -20 -75 -44.5t-20 -58.5q-33 -160 3 -188q23 -18 151 78q3 3 7 11q29 74 14 228zM939 945l-28 179h-383q48 -139 47 -232zM1201 -602q39 -60 -36 -135 q-27 -27 -58 -40q-273 -115 -397 10q-101 101 -5 261q-76 33 -125 120q-62 108 33.5 232t233.5 145q32 4 72 0q13 43 58 72.5t64 30.5q51 2 61 -32q22 -73 20 -128q-4 -83 -107 -150q-58 -37 -136.5 -8t-118.5 16q-1 -43 38.5 -81.5t149.5 -44.5q83 20 140 20t72 -5t23 -28 t-7 -56q-61 -135 -303 -129l-15 -6q-14 -29 31 -68q69 -61 236 9q43 18 69 0q6 -4 7 -5z"/>
            <glyph horiz-adv-x="1234"
                   d="M1454 1283q11 -52 -42.5 -105.5t-102.5 -53.5h-183q99 -649 44 -1086q-6 -45 -38 -77q-77 -77 -130 -56q-33 14 -28 57q42 335 -12 806l-385 -62q12 -313 -174 -453q-255 -193 -351 -97q-75 75 -27 312q24 114 64.5 169t71.5 85q83 84 181 108l28 7q-1 14 -2 33 q-3 122 -69 188t-142 66h-245q-43 6 -49 38q-11 52 42.5 105.5t102.5 53.5h1397q43 -6 49 -38zM380 654l-80 -26q-62 -20 -75 -44.5t-20 -58.5q-33 -160 3 -188q23 -18 151 78q3 3 7 11q29 74 14 228zM939 945l-28 179h-383q48 -139 47 -232zM1154 -310q-6 -224 -146 -329 q-66 -49 -142 -49q-153 0 -245 92t-107 258q-1 9 -1 24.5t6 51.5q8 51 71.5 100.5t116.5 50.5h1q45 0 80 -15t43 -25q40 -50 -40 -130q-29 -29 -62 -42q49 -151 212 -166q23 54 23 122.5t-45 309.5q-10 52 47 109q52 53 98 50q43 -3 49 -39q41 -214 41 -351v-22z"/>
            <glyph horiz-adv-x="1737"
                   d="M1883 1277q9 -51 -44.5 -104.5t-102.5 -53.5l-156 5q18 -211 23 -585l4 -340q1 -3 1 -7v-1q0 -152 -63 -216q-32 -32 -64.5 -36.5t-43 6.5t-19.5 35t-7.5 95t-2.5 131.5t-3 86.5q3 271 -90 337q32 -164 -101 -295q-97 -95 -271.5 -144.5t-242.5 19.5q-85 85 25 326 q61 133 127 198.5t118 99.5q-66 97 -133 120q-27 9 -118 12q73 -318 -187 -477q-48 -30 -105 -48q-226 -75 -296 -5q-100 100 127 426q69 98 149 167q-50 34 -120 50q-251 55 -370 47q-43 -3 -53 30q-17 55 37 109t100 57q138 11 410 -49q139 -30 219 -123q189 38 338 -4 q126 -35 238 -249q108 -5 188 -54q-11 238 -26 305q-6 4 -11 8q-1 4 -8 14t8 60.5t31 64t30 26.5t61 18.5t59 -10.5q51 -6 165.5 -9t131.5 -3q41 -2 48 -40zM535.5 776q-12.5 90 -37.5 144q-48 -36 -121.5 -141t-78.5 -159q-4 -47 124 -6q79 26 88 34q38 38 25.5 128z M1125 462q8 50 -79 235q-43 -9 -76.5 -42.5t-82 -139t-20.5 -133.5t117.5 -3t107.5 38t26 20q4 11 7 25z"/>
            <glyph horiz-adv-x="2353"
                   d="M1114 462q8 50 -79 235q-43 -9 -76.5 -42.5t-81 -137.5t-22.5 -134q29 -29 118.5 -4t107.5 38t26 20q4 11 7 25zM514.5 776q-12.5 90 -37.5 144q-48 -36 -121.5 -141t-78.5 -159q-4 -47 124 -6q79 26 88 34q38 38 25.5 128zM2517 1280q10 -52 -43.5 -105.5t-101.5 -53.5 h-238q-3 -390 -140 -564q-27 -34 -66 -54t-60 -12q-42 16 -37.5 55t24.5 65q47 58 66 206t15 304h-196q-20 -2 -88 0h-27l-56 2q18 -212 23 -590l4 -334q1 -3 1 -7v-1q0 -178 -107 -223q-54 -24 -77 26q-14 32 -13.5 87.5t-3 131t-3.5 79.5q5 331 -94 359q46 -177 -96 -316 q-97 -95 -271.5 -144.5t-242.5 19.5q-85 85 25 326q61 133 127 198.5t118 99.5q-66 97 -133 120q-27 9 -128 13q73 -319 -187 -478q-48 -30 -105 -48q-226 -75 -296 -5q-100 100 127 426q69 98 149 167q-50 34 -120 50q-251 55 -370 47q-43 -3 -53 30q-17 55 37 109t100 57 q138 11 410 -49q139 -30 219 -123q197 39 348 -4q126 -35 238 -249q108 -4 188 -54q-11 238 -26 305q-6 4 -11 8q-1 4 -8 14t8 60.5t31 64t30 26.5t61 18.5t59 -10.5q75 -11 219 -11h332h2h2h385q43 -6 50 -38z"/>
            <glyph horiz-adv-x="1809"
                   d="M1370 1124h-524q53 -143 206 -249q131 57 295 64q20 98 23 185zM1934 1283q10 -52 -43.5 -106t-101.5 -54h-228q-15 -129 -56 -266q-18 -62 -83 -102q-33 -20 -63 -18q-218 11 -340 -53q-82 -43 -144 -125.5t-69 -135.5q-15 -110 42 -208q97 -167 282 -123 q142 35 344 196q38 30 70 33t43 -8q34 -34 10 -80.5t-58 -74.5q-348 -279 -589 -273q-206 4 -308.5 223t69.5 468q45 66 111 131l22 21l-54 49q-145 145 -165 342h-185q31 -203 44 -400q1 -22 1 -555q0 -237 -75 -279.5t-104.5 8.5t-18 176.5t-1.5 564.5q-5 176 -62 488 l-302 1q-43 7 -49 39q-10 52 43.5 105.5t102.5 53.5l170 -1q-47 405 232 683q199 199 533 303q44 13 66 -10q37 -62 -37 -135q-33 -32 -68 -43q-266 -84 -396 -215q-191 -191 -120 -556l6 -28l1479 2q44 -7 50 -38z"/>
            <glyph horiz-adv-x="1853"
                   d="M2014 1284q10 -51 -43 -104.5t-107 -54.5h-195q79 -399 45.5 -786.5t-118.5 -435.5q-67 -38 -96 6q-41 60 -4 320q54 376 -41 896l-388 -1q-14 -124 -55 -262q-19 -62 -83 -102q-34 -20 -64 -18q-243 13 -334 -50q-13 -9 -36.5 -22t-61.5 -51t-61 -68q-119 -156 -20 -327 t284 -127q142 34 345 196q37 30 69 33t43 -8q34 -34 10.5 -80.5t-58.5 -74.5q-348 -279 -588 -273q-207 4 -309.5 223t70.5 468q45 67 109 131l22 21q-195 160 -218 391h-240q-43 7 -49 38q-11 52 42.5 106t102.5 54h1441q-70 462 -213 606q-81 80 -173 47q-10 -4 -14 -12 q-51 -114 31 -419q14 -52 -46 -112t-112 -49q-27 5 -35 33q-137 495 98 683q80 63 199 82t222 -84q180 -180 254 -775h325q43 -7 50 -38zM877 1124h-524q52 -143 205 -249q132 57 295 64q20 98 24 185z"/>
            <glyph horiz-adv-x="1750"
                   d="M1528 1478q11 -60 -61.5 -122t-120.5 -24q-233 218 -404 229q-74 4 -125 -29q6 -25 22 -50.5t-1.5 -66.5t-62 -78t-76 -31.5t-42.5 21.5q-92 150 54 299q15 16 41 36q207 159 453 57q-136 218 -376 192q2 -22 9 -53q12 -53 -43.5 -108.5t-99 -53t-51.5 35.5 q-27 120 0 185q64 156 215 183q274 49 439 -116t230 -506zM1895 1285q10 -53 -43.5 -107t-103.5 -55l-156 -1q18 -205 23 -587l4 -340q1 -3 1 -7v-1q-2 -278 -114 -302q-29 -7 -49 12q-36 37 -34 195q5 351 -90 487q6 -137 -99 -240t-279.5 -152.5t-242.5 19.5 q-85 85 25 326q61 133 127 198.5t118 99.5q-66 97 -133 120q-28 10 -149 13q73 -319 -187 -478q-48 -30 -105 -48q-226 -75 -296 -5q-100 100 127 426q69 98 149 167q-50 34 -120 50q-251 55 -370 47q-43 -3 -53 30q-17 55 37 109t100 57q138 11 410 -49q139 -31 219 -123 q215 40 369 -4q127 -36 238 -249q108 -5 188 -54q-11 238 -26 305l-11 8q-1 4 -8 14t8 60.5t31 64t30 26.5t61 18.5t59 -10.5h296q42 -1 49 -40zM279 620q-4 -47 124 -6q80 26 88 34q38 38 25.5 128t-37.5 144q-48 -36 -121.5 -141t-78.5 -159zM1058 697q-43 -9 -76.5 -42.5 t-81 -137.5t-22.5 -134q29 -29 118.5 -4t107.5 38t26 20q4 11 7 25q8 50 -79 235z"/>
            <glyph horiz-adv-x="1744"
                   d="M1717 1637q-37 -86 -108 -178t-136 -77q-15 3 -24 13q-28 45 12 105q63 91 74 148.5t-28.5 97t-140.5 54.5q-69 -7 -128 -9q-2 -84 68 -240q13 -29 -4 -64q-32 -65 -96.5 -97.5t-86.5 17.5q-111 248 -61 387q-164 18 -217 98q-176 268 18 463q96 95 255 141q50 15 66 -12 q8 -14 12 -26.5t-8 -42.5q-31 -84 -153 -120q-70 -20 -76 -53q-13 -72 68 -195q40 -61 235 -61q87 28 229.5 9t210.5 -87q94 -95 19 -271zM1890 1282q9 -51 -44.5 -104.5t-102.5 -53.5l-156 -2q18 -211 23 -587l5 -348q-1 -238 -109 -272q-34 -10 -62 18t-26.5 124.5t-2 128 t-4.5 101.5q-2 335 -95 361q48 -177 -95 -317q-97 -95 -271.5 -144.5t-242.5 19.5q-85 85 25 326q61 133 127 198.5t118 99.5q-66 97 -133 120q-28 10 -144 13q73 -319 -187 -478q-48 -30 -105 -48q-226 -75 -296 -5q-100 100 127 426q69 98 149 167q-50 34 -120 50 q-251 55 -370 47q-43 -3 -53 30q-17 55 37 109t100 57q138 11 410 -49q139 -31 219 -123q210 40 364 -4q126 -36 238 -249q108 -5 188 -54q-11 238 -26 305l-11 8q-1 4 -8 14t8 60t31 64l30 27t60 18.5t58 -8.5l298 -5q42 -1 49 -40zM516.5 776q-12.5 90 -37.5 144 q-48 -36 -121.5 -141t-78.5 -159q-4 -47 124 -6q80 26 88 34q38 38 25.5 128zM1132 462q8 50 -79 235q-43 -9 -76.5 -42.5t-81 -137.5t-22.5 -134q29 -29 118.5 -4t107.5 38t26 20q4 11 7 25z"/>
            <glyph horiz-adv-x="555"
                   d="M950 2296q37 -62 -38 -135q-32 -32 -68 -43q-265 -84 -395 -214q-192 -192 -121 -557l6 -29l326 -1q43 -7 49 -39q14 -69 -74 -130q-38 -27 -71 -27h-195q31 -204 43.5 -391t2.5 -567q-8 -303 -132 -331q-36 -9 -53 27q-24 53 -8.5 259.5t-4 480t-63.5 523.5l-302 1 q-43 7 -49 39q-10 52 43.5 105.5t101.5 53.5l171 -1q-36 290 107 527q51 84 125 157q199 199 533 302q44 13 66 -10z"/>
            <glyph horiz-adv-x="601"
                   d="M769 1284q11 -52 -42.5 -105t-108.5 -54l-212 -1q63 -452 43 -773t-24 -359q-17 -174 -133 -201q-28 -7 -43.5 20t-8.5 137q34 575 -31 1176q-289 -1 -308 0q-57 6 -54 55t53.5 99t100.5 44q12 -1 183 -1q-71 465 -213 607q-81 80 -173 47q-11 -4 -14 -12 q-51 -114 30 -419q15 -52 -45 -112t-113 -49q-27 5 -35 33q-127 470 65 652l29 26q70 66 196.5 86t228.5 -83q180 -180 255 -776l324 1q44 -7 50 -38z"/>
            <glyph horiz-adv-x="1132"
                   d="M574 -204q-10 -42 -42 -74q-79 -79 -132 -47q-29 17 -20 61q132 605 -36 1482q-10 52 45 107t99 52t50 -39q175 -910 36 -1542z"/>
            <glyph horiz-adv-x="1132"
                   d="M903 -204q-10 -42 -42 -74q-79 -79 -132 -47q-29 17 -20 61q132 605 -36 1482q-10 52 45 107t99 52t50 -39q175 -910 36 -1542zM574 -204q-10 -42 -42 -74q-79 -79 -132 -47q-29 17 -20 61q132 605 -36 1482q-10 52 45 107t99 52t50 -39q175 -910 36 -1542z"/>
            <glyph horiz-adv-x="1427"
                   d="M1565 1282q10 -51 -43.5 -105t-101.5 -54l-575 1q-20 -54 -54 -112q149 -20 253 -124t141 -344q185 -1204 -772 -2192l-75 -76l-97 -93q-180 -166 -397 -325q-73 -53 -108 -18t1 96q20 36 55 62q496 367 788 766q550 752 410 1664q-32 207 -121 296t-230 95l-31 -31 l-146 -139q-223 -222 -80 -457q38 -63 153 22q66 49 87 49q53 0 62 -33q19 -69 -99 -157t-226 -103.5t-158 66.5q-138 227 -13 475q79 157 248 307q72 64 121 120q15 16 27 32q69 85 84 154l-748 1q-44 7 -50 39q-10 51 43.5 105t101.5 54l1500 -2q44 -7 50 -39zM1033 1982 q94 -94 -32 -400q-16 -37 -59 -76t-90 -32q-20 3 -34.5 24t2.5 64q86 208 42 252q-30 29 -101.5 7t-100.5 -38q8 -43 76 -112q30 -29 17.5 -69.5t-45 -72.5t-75 -46t-67.5 18l-23 24q-166 184 5 350q85 83 247.5 132.5t237.5 -25.5zM771 -483q29 -65 -47 -135 q-33 -31 -68 -40l-441 -114q-336 -87 -426 67q-16 28 0 64q37 84 112 107q51 15 71 -18q53 -91 294 -29l441 114q51 8 64 -16zM839.5 -200.5q-18.5 -44.5 -53.5 -73.5t-66 -36l-393 -96q-255 -63 -366 74q-32 65 42 135q50 47 85 45.5t44 -12.5q76 -93 250 -51l393 96 q41 6 62 -15.5t2.5 -66z"/>
            <glyph horiz-adv-x="1253"
                   d="M1432 1283q11 -52 -42.5 -105.5t-102.5 -53.5h-233l17 -210q5 -31 14 -151q23 -299 -17 -722q-4 -46 -37 -79q-75 -75 -128 -58q-11 4 -18 11q-15 24 -13 44q14 161 19 319q-36 -36 -78 -64q-231 -151 -481 -132q-125 9 -180 64t-60 136q-2 25 12 53q84 169 113 356 q-3 21 7 47q16 137 3 283q-12 128 -318 103q-44 -3 -54 30q-18 55 36 109t100 58q413 34 432 -192q13 -143 0 -280h452q-13 160 -38 316q-9 57 45.5 105.5t94.5 51t61 2.5l112 -3h233q43 -6 49 -38zM886 651h-495q-35 -146 -100 -284q18 -79 147 -89q186 -13 339 88 q41 26 69 107.5t40 177.5zM264.5 51.5q6.5 -49.5 -48.5 -104t-98.5 -49.5t-49.5 42q-2 13 -5.5 16.5t-14.5 2.5q-42 -4 -54.5 26.5t11.5 77t75 76.5q23 13 45 16q70 9 101.5 -22.5t38 -81zM1120 -682q4 -51 -56 -111t-114 -37q-8 4 -14 10q-12 19 -13 31q-11 150 -107 357 q-69 -40 -165 -54.5t-146 35.5t-17 166t140 178q57 34 124 39.5t109 -15.5l10 43q10 43 41 75q78 77 131 48q30 -17 21 -61q-36 -174 -81 -268q123 -250 137 -436zM739 -289q-26 28 -66 25q-1 -19 3 -21l11 -6q20 -4 52 2z"/>
            <glyph horiz-adv-x="1253"
                   d="M1432 1283q11 -52 -42.5 -105.5t-102.5 -53.5h-233l17 -210q5 -31 14 -151q23 -299 -17 -722q-4 -46 -37 -79q-75 -75 -128 -58q-11 4 -18 11q-15 24 -13 44q14 161 19 319q-36 -36 -78 -64q-231 -151 -481 -132q-125 9 -180 64t-60 136q-2 25 12 53q84 169 113 356 q-3 21 7 47q16 137 3 283q-12 128 -318 103q-44 -3 -54 30q-18 55 36 109t100 58q413 34 432 -192q13 -143 0 -280h452q-13 160 -38 316q-9 57 45.5 105.5t94.5 51t61 2.5l112 -3h233q43 -6 49 -38zM886 651h-495q-35 -146 -100 -284q18 -79 147 -89q186 -13 339 88 q41 26 69 107.5t40 177.5zM264.5 51.5q6.5 -49.5 -48.5 -104t-98.5 -49.5t-49.5 42q-2 13 -5.5 16.5t-14.5 2.5q-42 -4 -54.5 26.5t11.5 77t75 76.5q23 13 45 16q70 9 101.5 -22.5t38 -81zM1163 -590q39 -60 -36 -135q-27 -27 -58 -40q-273 -115 -397 10q-101 101 -5 261 q-76 33 -125 120q-62 108 33.5 232t233.5 145q32 4 72 0q13 43 58 72.5t64 30.5q51 2 61 -32q22 -73 20 -128q-4 -83 -107 -150q-58 -37 -136.5 -8t-118.5 16q-1 -43 38.5 -81.5t149.5 -44.5q83 20 140 20t72 -5t23 -28t-7 -56q-61 -135 -303 -129l-15 -6q-14 -29 31 -68 q69 -61 236 9q43 18 69 0q6 -4 7 -5z"/>
            <glyph horiz-adv-x="1253"
                   d="M1432 1283q11 -52 -42.5 -105.5t-102.5 -53.5h-233l17 -210q5 -31 14 -151q23 -299 -17 -722q-4 -46 -37 -79q-75 -75 -128 -58q-11 4 -18 11q-15 24 -13 44q14 161 19 319q-36 -36 -78 -64q-231 -151 -481 -132q-125 9 -180 64t-60 136q-2 25 12 53q84 169 113 356 q-3 21 7 47q16 137 3 283q-12 128 -318 103q-44 -3 -54 30q-18 55 36 109t100 58q413 34 432 -192q13 -143 0 -280h452q-13 160 -38 316q-9 57 45.5 105.5t94.5 51t61 2.5l112 -3h233q43 -6 49 -38zM886 651h-495q-35 -146 -100 -284q18 -79 147 -89q186 -13 339 88 q41 26 69 107.5t40 177.5zM264.5 51.5q6.5 -49.5 -48.5 -104t-98.5 -49.5t-49.5 42q-2 13 -5.5 16.5t-14.5 2.5q-42 -4 -54.5 26.5t11.5 77t75 76.5q23 13 45 16q70 9 101.5 -22.5t38 -81zM1108 -309q-6 -224 -146 -329q-66 -49 -142 -49q-153 0 -245 92t-107 258 q-1 9 -1 24.5t6 51.5q8 51 71.5 100.5t116.5 50.5h1q45 0 80 -15t43 -25q40 -50 -40 -130q-29 -29 -62 -42q49 -151 212 -166q23 54 23 122.5t-45 309.5q-10 52 47 109q52 53 98 50q43 -3 49 -39q41 -214 41 -351v-22z"/>
            <glyph horiz-adv-x="1543"
                   d="M1682 1283q11 -52 -42.5 -105.5t-102.5 -53.5h-192q95 -534 23 -1086q-6 -45 -38 -78q-77 -76 -130 -55q-34 14 -28 57q77 593 -46 1162h-185q83 -502 3 -767q-35 -121 -128 -213q-141 -142 -377.5 -176.5t-316.5 45.5q-114 115 76 412q230 360 566 463q-15 111 -39 236 h-818q-43 6 -49 38q-11 52 42.5 105.5t102.5 53.5h1630q43 -6 49 -38zM782 715q-260 -54 -430 -320q-106 -166 -60.5 -211.5t206.5 -22t219 81.5q25 25 39 70q44 149 26 402zM256.5 -108.5q6.5 -49.5 -48.5 -104t-98.5 -49.5t-49.5 42q-2 13 -5.5 16.5t-14.5 2.5 q-42 -4 -54.5 26.5t11.5 77t75 76.5q23 13 45 16q70 9 101.5 -22.5t38 -81zM1409 -686q4 -51 -56 -111t-114 -37q-8 4 -14 10q-12 19 -13 31q-11 150 -107 357q-69 -40 -165 -54.5t-146 35.5t-17 166t140 178q57 34 124 39.5t109 -15.5l10 43q10 43 41 75q78 77 131 48 q30 -17 21 -61q-36 -174 -81 -268q123 -250 137 -436zM1028 -293q-26 28 -66 25q-1 -19 3 -21l11 -6q20 -4 52 2z"/>
            <glyph horiz-adv-x="1543"
                   d="M1682 1283q11 -52 -42.5 -105.5t-102.5 -53.5h-192q95 -534 23 -1086q-6 -45 -38 -78q-77 -76 -130 -55q-34 14 -28 57q77 593 -46 1162h-185q83 -502 3 -767q-35 -121 -128 -213q-141 -142 -377.5 -176.5t-316.5 45.5q-114 115 76 412q230 360 566 463q-15 111 -39 236 h-818q-43 6 -49 38q-11 52 42.5 105.5t102.5 53.5h1630q43 -6 49 -38zM782 715q-260 -54 -430 -320q-106 -166 -60.5 -211.5t206.5 -22t219 81.5q25 25 39 70q44 149 26 402zM256.5 -108.5q6.5 -49.5 -48.5 -104t-98.5 -49.5t-49.5 42q-2 13 -5.5 16.5t-14.5 2.5 q-42 -4 -54.5 26.5t11.5 77t75 76.5q23 13 45 16q70 9 101.5 -22.5t38 -81zM1459 -614q39 -60 -36 -135q-27 -27 -58 -40q-273 -115 -397 10q-101 101 -5 261q-76 33 -125 120q-62 108 33.5 232t232.5 145q33 4 73 0q13 43 58 72.5t64 30.5q51 2 61 -32q22 -73 20 -128 q-4 -83 -107 -150q-58 -37 -136.5 -8t-118.5 16q-1 -43 38.5 -81.5t149.5 -44.5q83 20 140 20t72 -5t23 -28t-7 -56q-61 -135 -303 -129l-15 -6q-14 -29 31 -68q69 -61 236 9q43 18 69 0q6 -4 7 -5z"/>
            <glyph horiz-adv-x="1543"
                   d="M1682 1283q11 -52 -42.5 -105.5t-102.5 -53.5h-192q95 -534 23 -1086q-6 -45 -38 -78q-77 -76 -130 -55q-34 14 -28 57q77 593 -46 1162h-185q83 -502 3 -767q-35 -121 -128 -213q-141 -142 -377.5 -176.5t-316.5 45.5q-114 115 76 412q230 360 566 463q-15 111 -39 236 h-818q-43 6 -49 38q-11 52 42.5 105.5t102.5 53.5h1630q43 -6 49 -38zM782 715q-260 -54 -430 -320q-106 -166 -60.5 -211.5t206.5 -22t219 81.5q25 25 39 70q44 149 26 402zM256.5 -108.5q6.5 -49.5 -48.5 -104t-98.5 -49.5t-49.5 42q-2 13 -5.5 16.5t-14.5 2.5 q-42 -4 -54.5 26.5t11.5 77t75 76.5q23 13 45 16q70 9 101.5 -22.5t38 -81zM1405 -310q-6 -224 -146 -329q-66 -49 -142 -49q-153 0 -245 92t-107 258q-1 9 -1 24.5t6 51.5q8 51 71.5 100.5t116.5 50.5h1q45 0 80 -15t43 -25q40 -50 -40 -130q-29 -29 -62 -42 q49 -151 212 -166q23 54 23 122.5t-45 309.5q-10 52 47 109q52 53 98 50q43 -3 49 -39q41 -214 41 -351v-22z"/>
            </font>
</defs>
</svg>
